<svg width="19" height="19" viewBox="0 0 19 19" fill="none" xmlns="http://www.w3.org/2000/svg">
<path d="M17.4166 12.5786H8.89094M8.89094 12.5786C8.89094 13.2318 8.63431 13.8583 8.17749 14.3202C7.72067 14.7821 7.10109 15.0416 6.45505 15.0416C5.80901 15.0416 5.18943 14.7821 4.73261 14.3202C4.27579 13.8583 4.01915 13.2318 4.01915 12.5786C4.01915 11.9254 4.27579 11.2989 4.73261 10.837C5.18943 10.3751 5.80901 10.1157 6.45505 10.1157C7.10109 10.1157 7.72067 10.3751 8.17749 10.837C8.63431 11.2989 8.89094 11.9254 8.89094 12.5786ZM10.1089 6.42122H1.58325M10.1089 6.42122C10.1089 7.07443 10.3655 7.7009 10.8224 8.16279C11.2792 8.62469 11.8987 8.88418 12.5448 8.88418C13.1908 8.88418 13.8104 8.62469 14.2672 8.16279C14.724 7.7009 14.9807 7.07443 14.9807 6.42122C14.9807 5.768 14.724 5.14153 14.2672 4.67964C13.8104 4.21774 13.1908 3.95825 12.5448 3.95825C11.8987 3.95825 11.2792 4.21774 10.8224 4.67964C10.3655 5.14153 10.1089 5.768 10.1089 6.42122Z" stroke="#0A0A0A" stroke-width="2"/>
</svg>
