<?xml version="1.0" encoding="UTF-8"?>
<svg xmlns="http://www.w3.org/2000/svg" xmlns:xlink="http://www.w3.org/1999/xlink" viewBox="0 0 127.14894 255.31915">
  <defs>
    <style>
      .cls-1 {
        fill: url(#_Безымянный_градиент_355-2);
      }

      .cls-1, .cls-2, .cls-3, .cls-4, .cls-5, .cls-6, .cls-7, .cls-8, .cls-9, .cls-10, .cls-11 {
        stroke-width: 0px;
      }

      .cls-2 {
        fill: url(#_Безымянный_градиент_2);
      }

      .cls-3, .cls-9 {
        fill: #2a2d0e;
      }

      .cls-4 {
        fill: url(#_Безымянный_градиент_361);
      }

      .cls-5 {
        fill: url(#_Безымянный_градиент);
      }

      .cls-12 {
        clip-path: url(#clippath-2);
      }

      .cls-6 {
        fill: none;
      }

      .cls-13 {
        clip-path: url(#clippath-1);
      }

      .cls-7, .cls-14 {
        fill: url(#_Безымянный_градиент_355);
      }

      .cls-8, .cls-9 {
        fill-rule: evenodd;
      }

      .cls-8, .cls-11 {
        fill: #e28e13;
      }

      .cls-15 {
        clip-path: url(#clippath);
      }

      .cls-10 {
        fill: url(#_Безымянный_градиент_361-2);
      }

      .cls-16 {
        opacity: .56;
      }
    </style>
    <clipPath id="clippath">
      <rect class="cls-6" x="22.76404" y="9.30691" width="81.16" height="2.2"/>
    </clipPath>
    <linearGradient id="_Безымянный_градиент" data-name="Безымянный градиент" x1="22.76404" y1="239.46543" x2="103.92404" y2="239.46543" gradientTransform="translate(0 249.87234) scale(1 -1)" gradientUnits="userSpaceOnUse">
      <stop offset="0" stop-color="#b1b0ae"/>
      <stop offset="1" stop-color="#fdfdfd"/>
    </linearGradient>
    <clipPath id="clippath-1">
      <polygon class="cls-6" points="13.36404 233.91691 113.62404 233.91691 102.11404 244.92691 101.60404 245.98692 25.42404 245.98692 24.90404 244.93692 13.36404 233.91691"/>
    </clipPath>
    <linearGradient id="_Безымянный_градиент_2" data-name="Безымянный градиент 2" x1="13.36404" y1="9.92042" x2="113.62404" y2="9.92042" gradientTransform="translate(0 249.87234) scale(1 -1)" gradientUnits="userSpaceOnUse">
      <stop offset="0" stop-color="#b1b0ae"/>
      <stop offset="1" stop-color="#fdfdfd"/>
    </linearGradient>
    <linearGradient id="_Безымянный_градиент_355" data-name="Безымянный градиент 355" x1="13.52489" y1="239.97723" x2="113.78488" y2="239.97723" gradientUnits="userSpaceOnUse">
      <stop offset=".01397" stop-color="#d29d46" stop-opacity=".7"/>
      <stop offset=".01412" stop-color="#d19c45" stop-opacity=".70158"/>
      <stop offset=".02274" stop-color="#a07a3a" stop-opacity=".78139"/>
      <stop offset=".03232" stop-color="#785d30" stop-opacity=".849"/>
      <stop offset=".04334" stop-color="#564528" stop-opacity=".90496"/>
      <stop offset=".05621" stop-color="#3c3322" stop-opacity=".94791"/>
      <stop offset=".07213" stop-color="#2a261e" stop-opacity=".97797"/>
      <stop offset=".09445" stop-color="#1f1f1b" stop-opacity=".99524"/>
      <stop offset=".15643" stop-color="#1d1d1b"/>
      <stop offset=".25621" stop-color="#4a3b1f" stop-opacity=".89499"/>
      <stop offset=".47693" stop-color="#a7792a" stop-opacity=".68246"/>
      <stop offset=".58603" stop-color="#cc912e" stop-opacity=".6"/>
      <stop offset=".65892" stop-color="#8d6727" stop-opacity=".74392"/>
      <stop offset=".74392" stop-color="#503e20" stop-opacity=".88337"/>
      <stop offset=".81507" stop-color="#2a251c" stop-opacity=".96907"/>
      <stop offset=".86313" stop-color="#1d1d1b"/>
      <stop offset=".90819" stop-color="#1f1e1b" stop-opacity=".99983"/>
      <stop offset=".92926" stop-color="#26231d" stop-opacity=".99926"/>
      <stop offset=".94534" stop-color="#332c20" stop-opacity=".99826"/>
      <stop offset=".95889" stop-color="#463925" stop-opacity=".99685"/>
      <stop offset=".97084" stop-color="#5e492b" stop-opacity=".99501"/>
      <stop offset=".98169" stop-color="#7c5d32" stop-opacity=".99274"/>
      <stop offset=".99146" stop-color="#9e743b" stop-opacity=".99011"/>
      <stop offset="1" stop-color="#c48e45" stop-opacity=".98727"/>
    </linearGradient>
    <clipPath id="clippath-2">
      <polygon class="cls-7" points="13.52489 233.94223 113.78488 233.94223 102.27489 244.95222 101.76489 246.01224 25.58489 246.01224 25.06489 244.96223 13.52489 233.94223"/>
    </clipPath>
    <linearGradient id="_Безымянный_градиент_361" data-name="Безымянный градиент 361" x1="13.52489" y1="239.97721" x2="113.7849" y2="239.97721" gradientUnits="userSpaceOnUse">
      <stop offset=".01397" stop-color="#d2b782" stop-opacity=".7"/>
      <stop offset=".01412" stop-color="#d1b681" stop-opacity=".70158"/>
      <stop offset=".02274" stop-color="#a08d66" stop-opacity=".78139"/>
      <stop offset=".03232" stop-color="#786a4e" stop-opacity=".849"/>
      <stop offset=".04334" stop-color="#564d3b" stop-opacity=".90496"/>
      <stop offset=".05621" stop-color="#3c372c" stop-opacity=".94791"/>
      <stop offset=".07213" stop-color="#2a2822" stop-opacity=".97797"/>
      <stop offset=".09445" stop-color="#1f1f1c" stop-opacity=".99524"/>
      <stop offset=".15643" stop-color="#1d1d1b"/>
      <stop offset=".25621" stop-color="#4a463c" stop-opacity=".89499"/>
      <stop offset=".47693" stop-color="#a79b81" stop-opacity=".68246"/>
      <stop offset=".58603" stop-color="#ccbc9c" stop-opacity=".6"/>
      <stop offset=".65892" stop-color="#8d826d" stop-opacity=".74392"/>
      <stop offset=".74392" stop-color="#504b40" stop-opacity=".88337"/>
      <stop offset=".81507" stop-color="#2a2924" stop-opacity=".96907"/>
      <stop offset=".86313" stop-color="#1d1d1b"/>
      <stop offset=".90819" stop-color="#1f1f1c" stop-opacity=".99983"/>
      <stop offset=".92926" stop-color="#262623" stop-opacity=".99926"/>
      <stop offset=".94534" stop-color="#33322f" stop-opacity=".99826"/>
      <stop offset=".95889" stop-color="#46443f" stop-opacity=".99685"/>
      <stop offset=".97084" stop-color="#5e5b54" stop-opacity=".99501"/>
      <stop offset=".98169" stop-color="#7c776e" stop-opacity=".99274"/>
      <stop offset=".99146" stop-color="#9e988d" stop-opacity=".99011"/>
      <stop offset="1" stop-color="#c4bcae" stop-opacity=".98727"/>
    </linearGradient>
    <linearGradient id="_Безымянный_градиент_355-2" data-name="Безымянный градиент 355" x1="13.53397" y1="122.75224" x2="113.7849" y2="122.75224" xlink:href="#_Безымянный_градиент_355"/>
    <linearGradient id="_Безымянный_градиент_361-2" data-name="Безымянный градиент 361" x1="22.92491" y1="10.43223" x2="104.08489" y2="10.43223" xlink:href="#_Безымянный_градиент_361"/>
  </defs>
  <g id="_Слой_1" data-name=" Слой 1">
    <g>
      <path class="cls-8" d="m13.37404,28.64691c-.11-5.07,9.64-10.32,9.62-17.14l80.95.09c-.55,7.29,9.54,12.01,9.68,17.05v205.3H13.37404V28.64691Z"/>
      <g class="cls-15">
        <rect class="cls-5" x="22.76404" y="9.30691" width="81.16" height="2.2"/>
      </g>
      <g class="cls-13">
        <rect class="cls-2" x="13.36404" y="233.91691" width="100.26" height="12.07001"/>
      </g>
      <path class="cls-8" d="m113.62404,169.81691V28.64691c-.14-5.04-10.23-9.75-9.68-17.05l-80.95-.09c.02,6.82-9.73,12.07-9.62,17.14v141.16999h100.25Z"/>
      <path class="cls-9" d="m81.47404,162.93692l-18.02-7.09-17.43,7.39-7.39,17.8,6.61,17.62,18.3,7.82001,18.45-7.59,7.28-17.78-7.8-18.17v-.00002Zm-39.81,18.19c0-12.18001,9.87-22.05,22.05-22.05s22.05,9.87,22.05,22.05-9.87,22.05-22.05,22.05-22.05-9.87-22.05-22.05Z"/>
      <rect class="cls-3" x="46.43706" y="186.97577" width="1.42" height="1.42" transform="translate(-146.1222 177.89871) rotate(-73)"/>
      <polygon class="cls-9" points="50.15404 188.57692 46.56404 190.52691 47.12404 191.56691 48.59404 190.77691 48.74404 191.04692 47.63404 192.50691 48.37404 193.38691 49.62404 191.69691 51.80404 191.61691 51.23404 190.56691 49.39404 190.68692 49.25404 190.41691 50.72404 189.61691 50.15404 188.57692"/>
      <path class="cls-9" d="m51.74404,193.21692c.39-.37.72-.39999,1-.11s.22.62-.17.99001l-.85.8c-.39.37-.72.41-1,.12-.28-.3-.22-.63.17-1l.84-.8h.01Zm.29-1.3c-.43-.03-.84.14999-1.23.52l-.64.61c-.4.38-.6.78-.59,1.2s.21.85001.62,1.28.83.66,1.25.69.83-.14999,1.22-.53l.65-.61c.4-.38.6-.78.59-1.2,0-.42-.21-.85001-.62-1.28-.4-.42999-.82-.64999-1.24-.67999l-.01-.00002Z"/>
      <path class="cls-9" d="m52.41404,191.46692c0,.25.21.46001.46.46001s.46-.21001.46-.46001-.21-.46001-.46-.46001-.46.21001-.46.46001"/>
      <path class="cls-9" d="m54.27404,192.55691c-.25,0-.46.21001-.46.46001s.21.46001.46.46001.46-.21001.46-.46001-.2-.46001-.46-.46001"/>
      <polygon class="cls-9" points="54.50404 194.01692 52.52404 197.59691 53.43404 198.10692 54.60404 195.98692 54.65404 196.01692 54.67404 198.79692 55.66404 199.33691 57.64404 195.75691 56.72404 195.25691 55.53404 197.40692 55.49404 197.37692 55.57404 194.61691 54.50404 194.01692"/>
      <rect class="cls-3" x="56.19667" y="197.52371" width="4.09" height="1.17999" transform="translate(-147.93613 186.6311) rotate(-70.43)"/>
      <path class="cls-9" d="m60.54404,197.09691c-.38.25-.61.66-.69,1.22l-.11.75999c-.08.55.02.99001.31,1.34.29.34.75.56,1.36.66.29.03999.57.05.85.03.27-.02.5-.08.67-.16l.32-2.10001-1.42-.21001-.16.73.5.08-.13.89c-.1.03999-.25.03999-.43.00999-.55-.08-.78-.42999-.69-1.03l.13-.83c.05-.32001.17-.55.36-.67999.19-.13.46-.17.8-.12.32.05.6.14.85.28l.26-.66c-.11-.08-.29-.16-.54-.25-.25-.08-.5-.14-.75-.17999-.62-.09-1.11-.00999-1.49.24001"/>
      <path class="cls-9" d="m65.48404,196.86691c-1.09.03999-1.62.45-1.59,1.23.01.33.11.58.3.75999.18.17999.45.35001.8.5.25.11.42.2.5.27s.13.16.13.28c0,.14999-.03.27-.12.35001s-.24.13-.46.14c-.35.00999-.69-.03999-1.02-.14999l.03.74001c.32.11.7.16,1.15.14,1.09-.03999,1.62-.49001,1.58-1.35001,0-.14-.03-.27-.07-.39s-.09-.21001-.14-.28999c-.05-.08-.13-.14999-.24-.23-.1-.08-.2-.14-.28-.17999s-.19-.10001-.35-.17999c-.26-.13-.44-.23-.53-.3s-.13-.16-.14-.25999c0-.23.2-.35001.62-.37.27-.00999.53.00999.78.07001l.08-.67999c-.32-.09-.67-.12-1.05-.11"/>
      <path class="cls-9" d="m68.84404,198.72691l.6-.11c.3-.05.48.10001.55.46001.04.19.02.34-.03.44-.06.10001-.17.16-.32.19l-.59.11-.2-1.09-.01001-.00002Zm-.11-.61l-.19-1.05.52-.10001c.15-.03.26,0,.35.06.08.07001.14.19.18.37.07.36-.05.56-.34.62l-.51.09-.00999.01003Zm-1.43-1.48l.74,4.02,1.94-.36c.45-.08.78-.25.98-.49001.2-.25.27-.56.2-.94-.1-.53999-.39-.82001-.89-.85001v-.03999c.34-.22.48-.53999.4-.96001-.12-.64999-.6-.89-1.45-.74001l-1.92.35001v.01001Z"/>
      <polygon class="cls-9" points="70.72404 195.54692 72.38404 199.28691 74.93404 198.15692 74.64404 197.49691 73.16404 198.15692 72.76404 197.25691 73.95404 196.72691 73.66404 196.07692 72.47404 196.60692 72.08404 195.72691 73.51404 195.09691 73.21404 194.43692 70.72404 195.54692"/>
      <path class="cls-9" d="m75.97404,194.55691l-.37.27-.8-1.11.37-.27c.12-.09.24-.12.36-.08.12.03.25.16.4.37.16.22.23.39.23.50999s-.07.23-.19.32001m-2.53-.7l2.39,3.32001.96-.69-.79-1.09.39-.28,1.22.78.95-.67999-.03-.07001-1.51-.89c.19-.42999.13-.86-.18-1.28-.49-.69-1.13-.75-1.9-.2l-1.52,1.09.02-.01001Z"/>
      <path class="cls-9" d="m77.91404,193.18692c.42.36.86.50999,1.3.44.45-.07001.87-.34,1.28-.81.19-.22.35-.46001.47-.7.12-.24001.2-.46001.21-.66l-1.62-1.38-.93,1.09.53.52.33-.38.69.59c-.02.11-.09.23-.22.37-.36.42-.77.42999-1.24.03999l-.64-.55c-.25-.21001-.38-.42999-.39-.66-.01-.23.09-.48.32-.75.21-.24001.43-.42999.68-.57001l-.42-.57001c-.13.05-.29.16-.49.33s-.39.35001-.55.53999c-.4.47-.6.94-.58,1.39s.24.86.67,1.23l.58.5.02-.00995Z"/>
      <rect class="cls-3" x="79.38378" y="187.48699" width="1.42" height="1.42" transform="translate(-51.55108 31.66344) rotate(-17.01)"/>
      <polygon class="cls-9" points="78.74404 185.81691 82.75404 186.53691 82.96404 185.36691 81.30404 185.07692 81.54404 183.75691 83.19404 184.05691 83.40404 182.88691 79.38404 182.17691 79.18404 183.33691 80.75404 183.61691 80.51404 184.93692 78.94404 184.65692 78.74404 185.81691"/>
      <polygon class="cls-9" points="79.40404 180.50691 82.75404 180.27691 82.82404 181.28691 83.54404 181.27691 83.31404 178.00691 82.60404 178.05691 82.67404 179.08691 79.31404 179.31691 79.40404 180.50691"/>
      <path class="cls-9" d="m80.64404,175.56691l-.15-.42999,1.29-.46001.15.42999c.05.14.04.27-.02.37-.06.10001-.22.2-.46.28-.25.09-.44.11-.55.08-.12-.03999-.2-.13-.25-.27m-1.28,2.31l1.27-1.2c.36.3.79.36,1.28.19.79-.28,1.03-.87.72-1.75999l-.62-1.75999-3.85,1.36.39,1.11,1.27-.45.16.46001-1.09.95.39,1.10001h.07l.01-.00003Z"/>
      <path class="cls-9" d="m79.73404,170.72691l-1.35,1.38-.47-.75,1.8-.67.03.03999h-.01Zm-1.74,3.45l2.84-3.14-.89-1.41-4.02,1.25999.62.98.7-.25999.63.99001-.53.53999.65,1.03v.01001Z"/>
      <polygon class="cls-9" points="75.58404 170.42691 78.23404 167.32692 77.44404 166.64691 75.85404 168.51692 75.81404 168.47691 76.44404 165.79692 75.51404 165.00691 72.86404 168.10692 73.65404 168.77691 75.22404 166.94691 75.26404 166.97691 74.73404 169.69691 75.58404 170.42691"/>
      <path class="cls-9" d="m47.85404,184.46692l-1.09.2-.11-.60001c-.05-.3.1-.48.46-.53999.19-.03.34-.02.44.03999s.16.17.19.32001l.11.59v-.00999Zm-1.69.3l-1.04.19-.09-.52c-.03-.14,0-.25999.06-.34.07-.08.19-.14.37-.17999.36-.06.56.05.61.34l.09.50999Zm2.53.69l-.35-1.94c-.08-.45-.24-.78-.49-.98-.24-.2-.56-.27-.94-.2-.54.10001-.82.39-.85.88h-.04c-.22-.34-.54-.48-.96-.39999-.65.12-.89.60001-.74,1.44l.35,1.92,4.01-.72.01-.00002Z"/>
      <path class="cls-9" d="m46.00404,179.33691c.09.08.13.2.12.35001l-.04.46001-1.36-.11.04-.46001c.01-.14999.07-.25999.17-.33s.28-.09.54-.07001c.27.02.44.07001.53.16m-2.05,1.82001l4.07.34.1-1.17999-1.34-.11.04-.48,1.38-.42.1-1.16-.07-.02-1.65.57001c-.21-.42-.57-.64999-1.09-.7-.84-.07001-1.3.37-1.38,1.31l-.15,1.86-.00999-.01001Z"/>
      <path class="cls-9" d="m47.42404,175.94691l-1.67-.96001v-.05l1.94.16-.27.85001Zm-2.64-.46001l3.55,2.28.36-1.10001-.65-.37.36-1.12.75.06.38-1.16-4.23-.17-.51,1.58h-.01Z"/>
      <path class="cls-9" d="m48.52404,172.87692c.87.58,1.63.37,2.28-.61.32-.49001.45-.92999.39-1.33-.06-.39999-.3-.73-.73-1.02l-2.17-1.42999-.65.99001,2.27,1.5c.18.12.29.25.33.39999s.01.3-.09.46001c-.1.14999-.23.24001-.39.25999-.16.02-.32-.03-.5-.14l-2.27-1.5-.65.99001,2.17,1.42999h.01Z"/>
      <polygon class="cls-9" points="49.67404 166.96692 52.29404 170.09691 54.42404 168.30691 53.96404 167.76692 52.73404 168.79692 52.10404 168.04692 53.09404 167.21692 52.63404 166.67691 51.64404 167.50691 51.02404 166.76692 52.22404 165.76692 51.76404 165.22691 49.67404 166.96692"/>
      <path class="cls-9" d="m55.09404,165.43692l-.61-1.22.41-.21001c.14-.07001.26-.08.37-.02.11.05.22.19.34.42.12.24001.17.42.14.53999-.02.12-.1.22-.24.28l-.41.21001v.00002Zm-1.97-1.28999l1.83,3.64999,1.06-.53-.6-1.2.43-.22,1.08.96001,1.04-.52-.02-.07001-1.35-1.11c.25-.39999.26-.83.02-1.28999-.38-.75-.99-.92-1.84-.49001l-1.67.84.01999-.01999Z"/>
      <polygon class="cls-9" points="57.64404 162.06691 58.60404 166.02691 61.30404 165.37692 61.13404 164.68692 59.56404 165.06691 59.33404 164.10692 60.59404 163.80691 60.42404 163.11691 59.17404 163.41691 58.94404 162.48692 60.45404 162.12692 60.29404 161.42691 57.64404 162.06691"/>
      <rect class="cls-3" x="61.85861" y="161.19986" width="1.18" height="4.08" transform="translate(-13.30312 5.7319) rotate(-4.75)"/>
      <path class="cls-9" d="m66.74404,163.77691l.3-1.64999.43.08c.18.03.3.12.37.25999s.07.36.02.67c-.06.33-.15.53999-.26.63-.12.09-.27.12-.46.09l-.4-.07001v-.00999Zm-.74-2.52l-.73,4.00999,1.16.21001.19-1.03999.48.09c.56.10001.99.05,1.31-.17.32-.21001.52-.56.61-1.03.04-.24001.04-.46001,0-.64999s-.11-.36-.2-.48-.21-.23-.36-.32001c-.14-.09-.28-.16-.41-.2-.13-.05-.27-.08-.41-.11l-1.64-.3v-.01001Z"/>
      <path class="cls-9" d="m70.79404,165.25691l.52-1.03c.24-.48.54-.62.9-.44s.42.50999.18.98l-.52,1.03999c-.24.48-.54.63-.9.45-.36-.17999-.42-.50999-.18-1m-1.03-.64999c-.25.49001-.3.94-.15,1.33s.49.72,1.02.98c.53.27,1,.34,1.4.22s.72-.42.97-.91l.4-.78999c.25-.49001.29-.92999.15-1.33-.15-.39-.49-.72-1.02-.99001-.52-.25999-.99-.33-1.4-.21001s-.73.42-.98.91l-.39.78999v.00002Z"/>
      <path class="cls-9" d="m65.83404,172.42691l3.59-2.11c.08.05.16.09.24.14l-3.71,2.17999-.12-.21001v.00002Zm-.22-.38l3.36-1.97c.09.03999.17.09.26.14l-3.49,2.05-.12-.22h-.01Zm6.46,11.27l3.44-2.03c0,.10001,0,.2-.01.3l-3.31,1.94-.12-.22v.00999Zm-.22-.38l3.67-2.19v.3l-3.55,2.09-.12-.21001v.01001Zm1.94,3.39l.6-.36c-.12.25-.24.5-.38.75l-.22-.39Zm-.2-.36l1.08-.64999c-.05.11-.09.23-.14.34l-.83.5-.11-.19Zm-.22-.39l1.54-.91c-.04.13-.09.25999-.14.39l-1.28.75-.13-.22.00999-.00999Zm-.22-.39l1.95-1.14c-.03.11-.06.23-.1.34l-1.72,1.02-.13-.22Zm-.22-.38l2.32-1.37c-.03.12-.05.23-.08.35001l-2.11,1.24001-.12-.22-.00999-.00002Zm-.21-.37l2.64-1.55c-.02.10001-.04.2-.05.3l-2.46,1.46001-.12-.21001h-.00999Zm-.21-.36l2.92-1.72c-.01.09-.02.19-.04.28l-2.77,1.63-.11-.19Zm-.22-.39l3.2-1.88c0,.10001-.02.21001-.03.31l-3.04,1.78999-.13-.22v.00002Zm-8.77,9.31v-2.75999h.29v2.75999h-.29Zm1.37-4.22v-1.45h.27v1.39999h-.02c-.09,0-.17.02-.25.05Zm-.44,4.17v-2.72h.25v2.69c-.08,0-.16.02-.25.03Zm-.26-2.72v-.98h.06c0,.00999.01.05.01.06v.92999h0v2.73c-.09,0-.17.00999-.26.02v-2.75h.19v-.00999Zm-.19-1.47v-1.42999h.27v1.41s-.09.02-.13.03999v-.03h-.14v.00999Zm-.47-1.42999h.28v1.42999h-.28v-1.42999Zm1.82,5.50999v-2.60001h.31v2.55c-.1.02-.21.03999-.31.06v-.00999Zm-.42-3.52v-.08h.05s.01.05.01.06v.92999h.16v2.63c-.09.00999-.18.03-.27.03999v-2.67h.04v-.91l.01.00002Zm-.19-.3s.08-.08.14-.11c.01,0,.02-.00999.03-.02.07-.03.14-.05.22-.05h.02c.07,0,.14.02.19.03999.14.07001.21.21001.21.42999v.78999h-.44v-.81c0-.12-.05-.19-.15-.19-.03,0-.05,0-.08.00999-.03.00999-.06.03-.08.05v.92999h-.44v-.81c0-.11-.04-.17-.11-.17999h-.04c-.07,0-.12.03-.16.08v.92h-.44v-1.24001h.38v.14h.01s.09-.09.16-.12c.03-.00999.05-.02.08-.03.05-.00999.1-.02.15-.02h.04c.1,0,.18.03999.24.10001.02.02.04.03999.05.07001l.02.02002Zm-.29-1.69h.24v1.47c-.07-.03999-.15-.07001-.24-.07001v-1.39999Zm1.86,5.31v-2.39c.05-.00999.1-.03.14-.05v.03999h.11v2.34c-.08.02-.17.03999-.25.07001v-.00999Zm-.46-2.45c.08.05.17.07001.27.07001v2.42c-.09.02-.18.03999-.27.06,0,0,0-2.55,0-2.55Zm1.35,2.19v-2.14999h.29v2.05c-.09.03-.19.07001-.29.10001v-.00002Zm-.45-2.14999h.26v2.21001c-.09.03-.18.05-.26.08v-2.29001Zm-.83-1.34c.06-.02.13-.03.21-.03999h.22c.08,0,.15,0,.22.02.08.02.14.03999.19.07001.01,0,.02.02.04.03.09.08.14.2.14.36v.8h-.37l-.03-.11h-.02c-.05.06-.12.10001-.2.12-.05.02-.11.02-.17.02h-.03c-.1,0-.19-.03-.25-.09,0,0-.01-.00999-.02-.02-.06-.06-.09-.14999-.09-.27s.03-.21001.09-.27c.06-.07001.15-.11.27-.12h.19c.06,0,.12,0,.17.02v-.07001c0-.07001-.02-.12-.05-.14999-.02-.02-.06-.03999-.11-.03999h-.19c-.06,0-.12.00999-.19.02l-.02-.27v-.01003Zm-.06-.11v-1.46001h.28v1.41c-.08,0-.17.02-.24.03999h-.03l-.01.01001Zm-.5-1.46001h.31v1.82001c-.04-.19-.14-.33-.31-.39v-1.43001Zm.96,1.39999v-1.39999h.24v1.42c-.07-.00999-.14-.02-.21-.02h-.03Zm1.79,3.31v-1.81h.26v1.69c-.09.03999-.18.08-.26.12Zm-.36-1.81v-.84s.05-.00999.07-.02c.04,0,.07-.00999.11-.02v2.75999c-.1.03-.18.07001-.27.10001v-1.99001h.09v.01001Zm-.54-1.36h.38v.25999h.01s.04-.07001.06-.11c.07-.11.16-.17.26-.17999h.08v.39h-.08c-.04,0-.08,0-.13.02-.05,0-.09.02-.13.03999-.01,0-.03.00999-.04.02v.8h-.44v-1.24001h.03Zm0-.12v-1.42999h.28v1.42999h-.28Zm-.46-1.42999h.27v1.8c-.03-.10001-.08-.19-.16-.25999-.03-.03-.07-.05-.11-.07001,0,0,0-1.47,0-1.47Zm1.37.95v-.95h.25v.95h-.25Zm.86,3.35001v-1.39h.26v1.25c-.08.05-.17.09-.26.14Zm-.42-1.39h.22v-.28999l.02.03999v1.75c-.08.03999-.16.08-.23.11v-1.60001l-.00999-.00999Zm-.89-2.91h.26v1.41c-.09,0-.16.03999-.22.08v-.05h-.04v-1.44Zm2.19,3.78999v-.89999c.09.03.18.03999.27.05v.67c-.09.06-.18.12-.27.17999Zm-.88-2.24001h.45l-.19.36-.12.21001.12.23.19.37.02.03v.03h-.46l-.19-.42-.05-.10001h-.09v.52h-.44v-1.72h.44v.98h.09l.05-.10001.18-.39h.01l-.00999.00002Zm-.43-.60001v-.95h.24v1.66l-.02.03999v-.75h-.22Zm1.74,2.55v-.56c.08,0,.15,0,.22-.02v.42999c-.08.05-.15.11-.22.16v-.00999Zm.48-.66l.02-.46001h.03v-.35001c0-.14-.03-.28-.11-.39999v-1.64h.26v2.98c-.09.07001-.18.14999-.27.22v-.34l.07-.03v.02Zm-1.23-.77c0-.7.79-.59.98-.46001.21.14.18.41.18.64999h-.72c0,.12.01.2.15.25999.15.06.38.03.54-.00999v.25c-.27.10001-.72.10001-.95-.07001-.21-.16-.18-.38-.18-.62v.00002Zm-.12-.64v-1.42999h.25v1.52s-.05.03-.07.05c-.14.13-.18.31-.18.49001v.22c0,.2.07.37.23.49001,0,0,.01,0,.02.00999v1.12c-.08.05-.16.10001-.24.14v-1.14h.13v-.17999l-.14-.27v-.66l.21-.38h-.21v.01999Zm2.17,1.02v-2.46001h.26v2.21001c-.08.08-.17.17-.26.25Zm-.42.37v-2.83h.24v2.63c-.08.07001-.16.13-.24.2Zm1.31-1.28v-1.55h.26v1.24001c-.08.11-.17.21001-.26.31Zm-.44-1.55h.25v1.75999c-.09.09-.17.17-.25.25999v-2.02.00002Zm1.3.46001v-.46001h.31c-.1.16-.2.31-.31.46001Zm-.42.56v-1.02h.23v.73c-.08.10001-.15.2-.23.28999v.00002Zm-1.56-1.95l.77-1.17.67,1.17s-1.44,0-1.43999,0Zm-2.38,2.36v-1.42999h.25v1.42999h-.25Zm1.32-.02v-1.41h.23v1.48c-.08-.03-.15-.05-.23-.06v-.00999Zm-.44-1.41h.26v1.39999c-.09,0-.18,0-.26.03v-1.42999Zm-17.36-1.00999l.52.31-.18.31c-.12-.2-.23-.41-.34-.62Zm-.33-.7l1.05.64999-.11.19-.77-.46001c-.06-.13-.12-.25999-.17-.38v.00002Zm-.25-.64l1.52.89999-.13.22-1.24-.73c-.05-.13-.1-.25999-.15-.39999v.00999Zm-.21-.63l1.95,1.14999-.12.21001-1.71-1.02c-.04-.11-.07-.23-.11-.35001l-.01.01001Zm-.17-.62l2.34,1.39-.13.22-2.12-1.25-.09-.36Zm-.12-.56l2.68,1.58-.12.21001-2.49-1.48c-.02-.10001-.04-.2-.06-.31l-.01-.00002Zm-.09-.53l2.97,1.75-.11.19-2.82-1.66c-.02-.10001-.03-.19-.05-.28999l.01.00999Zm-.07-.56l3.26,1.92-.13.22-3.1-1.83c-.01-.11-.03-.21001-.04-.32001l.01.01001Zm-.04-.53999l3.53,2.08-.12.22-3.38-1.99001c0-.10001-.02-.2-.02-.31h-.01Zm-.02-.53999l3.76,2.24001-.12.21001-3.63-2.14v-.31l-.01-.00002Zm2.39,6.33v.77c-.18-.25-.36-.50999-.52-.77h.52Zm.19,0h.22v1.3c-.07-.09-.14-.17999-.21-.27v-1.02l-.01-.00999Zm.41,0h.26v1.8c-.09-.10001-.18-.2-.26-.3v-1.5Zm.45,0h.25v2.24001c-.09-.08-.17-.16-.25-.24001v-2Zm.11-1.98l.69,1.05h-1.29s.6-1.05.6-1.05Zm.59,1.98v2.64999c-.08-.08-.17-.16-.25-.24001v-2.42h.25v.01001Zm.43,0v3.00999c-.08-.06-.16-.13-.23-.19v-2.82001h.23v.00002Zm.45,0v1.14c-.13.09-.22.23-.22.45,0,.14.04.28.14.39.03.03.06.06.09.08v.28999s-.03-.00999-.05-.02l-.16-.06v.53999l.08.03s.09.03.14.03999v.47l.19.13v-.57001h.22v.71001c-.23-.16-.46-.32001-.69-.49001v-3.16h.26v.03003Zm.19,0h.22v1.02c-.07,0-.15.02-.22.03999v-1.06Zm.93,2.49001c.03.12.09.22.18.28999v1.39c-.08-.03999-.16-.09-.24-.14v-1.39s.05-.10001.06-.16v.01001Zm-.26.34v1.10001c-.09-.06-.18-.11-.27-.17v-.84c.1-.02.19-.05.27-.09v-.00002Zm.63.06c.09.03.18.05.29.05v1.49001c-.1-.05-.19-.10001-.29-.14999v-1.39001Zm.48.03999c.07,0,.15-.02.22-.05h.04v1.75c-.09-.03999-.17-.08-.26-.12v-1.59.00999Zm.45-.03h.23v1.91c-.08-.03-.16-.06-.23-.09v-1.82001Zm.42,0h.12v-.98s.03-.00999.05-.00999h.03s.01.05.01.06v.92999h.04v2.08c-.08-.03-.17-.06-.26-.10001v-1.98h.01Zm.45,0h.26v2.23c-.08-.03-.17-.05-.25-.08v-2.14l-.01-.00999Zm-1.32-2.91h.25v1.45h-.02c-.07-.02-.15-.03-.23-.03999v-1.41Zm.87,0h.25v1.41s-.08.02-.12.03999v-.5h-.12v-.95h-.01Zm.44,0h.26v1.49001c-.06-.05-.15-.08-.25-.09v-1.39999l-.01-.00002Zm1.37,1.42999v-1.42999h.24v1.42999h-.24Zm.43,0v-1.42999h.28v.95h-.13v1.50999c0,.14999.05.27.13.35001v2.73c-.09-.00999-.18-.03-.27-.03999v-2.59h.1v-1.47h-.11v-.01001Zm-.82,1.50999c.07,0,.13,0,.2-.02v2.46001c-.09-.02-.17-.03999-.26-.06v-2.38h.06Zm-.07-2.94h.27v2.42999h0c-.01-.00999-.01-.06-.01-.08v-.92h-.25v-1.42999h-.01Zm.46,5.41v-2.50999h.25v2.56c-.08-.02-.17-.03-.25-.05Zm-2.42-3.46001v.42l-.09.02c-.05.00999-.11.02-.17.03v-.50999s.09,0,.13.02l.12.03h0l.01-.01001Zm-1.8.36v.08s-.08.02-.1.02h-.12v-.21001s.04.02.06.03c.04.02.12.06.16.09v-.00999Zm.19-.77c.08,0,.17,0,.25.03v.23s-.03-.02-.05-.03c-.05-.03-.09-.05-.14-.08-.02-.00999-.05-.03-.08-.03999v-.10001h.02v-.00999Zm-.02-.41c.09,0,.18.00999.26.03.04,0,.07.02.1.03l-.04.27s-.04-.00999-.06-.00999c-.08-.02-.16-.02-.25-.02h-.02c-.08,0-.14.00999-.18.03999-.04.02-.06.06-.06.10001s.02.08.05.11h0c.03.03.09.06.18.11,0,0,.01,0,.02.00999.06.03.1.06.13.07001.03.02.07.03999.11.08h0c.04.03.07.06.09.09s.04.07001.05.12c.01.05.02.10001.02.16,0,.17-.05.28999-.16.38-.07.05-.16.09-.27.11-.05,0-.11.02-.17.02h-.22c-.07,0-.13-.02-.19-.03-.03,0-.07-.02-.1-.03v-.28999s.06.02.1.03c.06.02.13.03.19.03999h.12c.04,0,.07,0,.1-.00999.03,0,.06-.02.08-.03999.04-.03.05-.08.05-.14,0-.03999-.02-.08-.05-.11-.02-.02-.05-.03999-.09-.06-.03-.02-.06-.03999-.11-.06-.04-.02-.08-.03999-.11-.06-.08-.05-.14-.09-.19-.14999h0c-.07-.07001-.11-.17999-.11-.31s.04-.23.11-.3c.05-.05.11-.09.19-.12.06-.02.14-.03999.22-.03999h.18l.03-.02005Zm.26-1.13v1.03999c-.08-.02-.17-.03-.26-.03v-1.00999h.26Zm.36,2.06c0-.14.03-.25.09-.34.05-.07001.11-.12.19-.14999.08-.03.18-.05.29-.05h.19c.07,0,.13.02.2.03l-.04.25999s-.1-.02-.16-.02h-.07c-.05,0-.09,0-.12.02-.03.00999-.05.03-.07.05-.04.05-.06.12-.06.22v.17999c0,.09.02.17.06.21001.02.02.04.03.06.03999.04.02.09.03.15.03h.04c.06,0,.13-.00999.2-.03v.25999c-.07.02-.13.03-.2.03999h-.19c-.11,0-.21-.02-.29-.06s-.14-.09-.19-.14999c-.06-.08-.09-.19-.09-.33v-.22l.00999.01001Zm.09-2.06v1.55c-.13.11-.21.28-.21.50999h0l-.04-.08v-.57001l.05-.3h-.05v-1.11h.25v.00002Zm.19,0h.29v1.39999c-.11,0-.2.02-.29.03999v-1.44.00002Zm.92,1.07001h.43v.60001h.01c.06-.06.14-.11.23-.13.04,0,.08-.00999.13-.00999h.06c.12.00999.2.06.26.14.05.07001.07.17.07.3v.82001h-.44v-.81c0-.09-.03-.14999-.08-.17-.02,0-.05-.00999-.07-.00999-.07,0-.13.03-.17.08v.92h-.44v-1.72h0l.01-.01003Zm0-1.07001h.24v.95h-.24v-.95Zm1.47,1.55h.44v.8c0,.13.05.19.14.2h.01c.07,0,.12-.02.16-.07001v-.92999h.44v1.24001h-.38l-.02-.13h-.02c-.05.06-.12.10001-.19.13-.06.02-.12.03-.2.03h-.07c-.08,0-.14-.03-.19-.08-.08-.07001-.12-.19-.12-.35001,0,0,0-.84,0-.84Zm-.16-1.55h.28v1.42999h-.24v.95c0,.23.08.41.24.5v2.38c-.09-.03-.19-.05-.29-.08v-2.28h.02v-.94c0-.06,0-.11-.01-.16v-1.81.01001Zm1.83,2.92c.06.02.12.02.19.02h.07v2.66c-.08,0-.17-.02-.26-.03v-2.65001Zm.45,2.7v-2.73l.03-.02v.03h.2v2.73c-.08,0-.16-.00999-.23-.02v.01001Zm-.61-4.55h.4v1.34s0,.06.02.09c0,.00999.01.02.02.03.02.02.06.03999.11.03999h.01v.23s-.09.02-.14.03h-.07c-.07,0-.14,0-.19-.03-.08-.03999-.14-.13-.15-.21001v-1.50999l-.01-.00998Zm.16-1.07001h.25v.95h-.25v-.95Zm.87,5.64999v-2.74001h.26v2.75999c-.08,0-.17,0-.26-.00999v-.00999Zm-.43-5.64999h.24v1.42999h-.21v.52h.21v.24001l-.17.25h-.07s0-2.44,0-2.44Zm.88,5.67v-2.75999h.25v2.77h-.25v-.01001Zm0-3.28l.24-.35001v.35001h-.24Zm-.46-.84h.72v.25l-.02.03-.26.37-.19.27-.02.03999h.52v.28h-1.03v-.27l.08-.12.19-.28.2-.28999h-.49v-.28h.3Zm0-.12v-1.42999h.25v1.42999h-.25Zm.44,0v-1.42999h.25v1.42999h-.25Zm-4.49-10.10001l4.78,1.34v6.39999h-2.97v-.02h-.19v.02h-4.52l-.83-1.25,3.72-6.49001.01.00002Zm2.69-9.78999c.12-.02.23-.03999.35-.06l1.21.7-.12.21001-1.44-.85001Zm1.66.47l-.97-.57001c.13-.02.27-.03.41-.03999l.69.39-.12.22h-.01Zm.87-.45l-.12-.2c.14,0,.28,0,.43.02l-.31.17999Zm1.58,2.75l3.11-1.83c.09.03999.18.09.28.13l-3.25,1.91-.13-.22-.00999.00999Zm-.21-.37l2.84-1.67c.09.03999.18.08.27.12l-2.99,1.75999-.12-.21001v.00002Zm-.2-.35001l2.55-1.5c.09.03.18.07001.27.10001l-2.71,1.59-.11-.19Zm-.22-.38l2.25-1.3c.1.03.19.06.28.09l-2.41,1.42-.12-.21001v.00002Zm-.21-.37l1.9-1.09c.09.02.19.05.28.08l-2.06,1.21001-.11-.2-.01-.00002Zm-.21-.36l1.51-.87c.1.02.19.03999.29.06l-1.69,1s-.11-.19-.11-.19Zm-.22-.38l1.06-.61c.12.02.23.03999.35.06l-1.29.75999-.12-.21001v.00002Zm-.21-.37l.57-.33c.12.00999.24.02.36.03999l-.82.48-.11-.2v.01001Zm-.75-.11l-.42-.25c.19,0,.38-.00999.57-.02l-.15.25999v.01001Zm.43,11.05l4.78-1.34,3.65,6.37-.9,1.37h-7.53v-6.39999Zm8.06,2.57001l3.86-2.3v.25999l-3.76,2.24001-.11-.19.01-.00999Zm-.22-.39l4.05-2.39c0,.10001.02.19.02.28999l-3.94,2.33-.13-.22v-.00999Zm-.22-.39l4.22-2.49001c.01.09.02.17999.03.27l-4.12,2.44-.13-.22Zm-.22-.38l4.37-2.58c.01.09.03.17999.04.25999l-4.29,2.53-.12-.22v.01001Zm-.21-.37l4.5-2.64999c.02.08.03.17.05.25l-4.43,2.61-.12-.21001Zm-.2-.36l4.61-2.72c.02.08.04.14999.05.23l-4.55,2.67999-.11-.19v.00002Zm-.22-.39l4.71-2.78c.02.09.05.17.07.25999l-4.66,2.75-.13-.22.00999-.00999Zm-.22-.38l4.8-2.83c.03.08.05.16.08.24001l-4.75,2.8-.12-.22-.01.00999Zm-.21-.37l4.87-2.87c.03.08.06.14999.08.23l-4.83,2.85001-.12-.21001Zm-.21-.36l4.93-2.89999c.03.07001.06.14.08.21001l-4.9,2.89-.11-.19v-.01001Zm-.22-.38l4.97-2.92999c.03.08.07.14999.1.23l-4.95,2.92-.12-.22Zm-.22-.38l5-2.95c.04.07001.07.14999.11.22l-4.99,2.94-.12-.22v.00999Zm-.21-.37l5.02-2.96001c.04.07001.08.14.11.21001l-5.01,2.95-.12-.21001v.01001Zm-.21-.36l5.02-2.96001c.04.06.07.13.11.19l-5.02,2.96001-.02-.03999-.09-.14999v-.00002Zm-.22-.39l5.01-2.96001c.05.07001.09.14.13.22l-5.02,2.96001-.13-.22h.00999Zm-.22-.38l4.99-2.94c.05.07001.09.14.14.21001l-5,2.95-.12-.22h-.00999Zm-.21-.37l4.95-2.92c.05.06.1.13.14.2l-4.97,2.92999-.12-.21001v.00002Zm-.21-.36l4.9-2.89c.05.06.09.12.14.17999l-4.93,2.91-.11-.19v-.00999Zm-.22-.39l4.84-2.85001c.06.07001.11.13.16.2l-4.88,2.88-.13-.22.00999-.00999Zm-.22-.38l4.76-2.81c.06.06.12.13.17.19l-4.81,2.83-.12-.22v.00999Zm-.23-.39l4.66-2.75c.06.06.12.13.18.19l-4.72,2.78999-.13-.23h.00999Zm-.19-.33l4.55-2.71001c.06.05.11.11.17.16l-4.61,2.75-.11-.2Zm-.23-.39999l4.44-2.62c.06.06.13.11.19.17l-4.5,2.67999s-.13-.23-.13-.23Zm-.22-.39l4.31-2.53c.07.06.14.11.2.17l-4.38,2.59-.13-.22v-.00999Zm-.22-.39l4.15-2.44c.07.06.15.11.22.17l-4.24,2.49001s-.13-.22-.13-.22Zm-.2-.35001l3.99-2.34c.06.03999.13.09.19.14l-4.07,2.39-.11-.19Zm-.22-.38l3.8-2.23c.08.05.15.10001.23.14999l-3.91,2.3-.12-.21001v-.00999Zm-14.82,7.73l3.96,2.36-.11.19-3.85-2.3v-.25999.00999Zm.02-.48l4.16,2.46001-.13.22-4.05-2.39c0-.10001,0-.2.02-.28999v-.00002Zm.04-.49001l4.34,2.56-.13.22-4.24-2.5c0-.09.02-.17999.03-.28Zm.06-.47l4.5,2.64999-.12.22-4.41-2.60001c.01-.09.02-.17999.04-.27l-.01.00002Zm.08-.46001l4.64,2.73-.12.21001-4.56-2.69c.01-.09.03-.17.04-.25Zm.09-.42999l4.76,2.8-.11.19-4.69-2.77c.02-.08.03-.14999.05-.23l-.01.00999Zm.11-.45l4.87,2.87-.13.22-4.8-2.83c.02-.09.04-.17.07-.25999h-.01Zm.12-.44l4.96,2.92-.12.22-4.91-2.89c.02-.08.05-.16.07-.25Zm7.08.96001l3.87-6.75999h1.58l3.87,6.75999.12.21001-4.77,1.34-4.79-1.34.12-.2v-.01001Zm3.99-6.97l.67-1.17.67,1.17s-1.34,0-1.34,0Zm-1.85-2.37l1.66.96001-.11.19-1.84-1.09c.09-.02.19-.03999.28-.06l.01-.00002Zm-9.09,7.95l5.04,2.97-.12.21001-5-2.95c.03-.08.05-.16.08-.23v-.00002Zm.14-.39l5.1,3.00999-.11.19-5.07-2.99001c.03-.07001.05-.14.08-.21001v.00002Zm.17-.41l5.15,3.03999-.12.22-5.12-3.02c.03-.08.06-.16.1-.23l-.01-.00999Zm.18-.39999l5.19,3.06-.12.22-5.17-3.05c.03-.08.07-.14999.1-.23Zm.19-.39l5.21,3.07001-.12.21001-5.2-3.07001c.04-.07001.07-.14.11-.22v.00999Zm.2-.36l5.22,3.08-.11.19-5.22-3.08c.04-.07001.07-.13.11-.19Zm.23-.39l5.22,3.08-.13.22-5.22-3.08c.04-.07001.09-.14999.13-.22Zm.24-.37l5.2,3.07001-.12.22-5.21-3.07001c.04-.07001.09-.14.13-.21001v-.00999Zm.24-.36l5.17,3.05-.12.21001-5.19-3.06c.05-.07001.09-.13.14-.2v-.00002Zm.25-.33l5.13,3.03-.11.19-5.16-3.03999c.04-.06.09-.12.13-.17999l.01-.00002Zm.28-.35001l5.07,2.99001-.13.22-5.11-3.00999c.05-.07001.11-.13.16-.2l.01-.00002Zm.29-.34l5,2.95-.12.22-5.05-2.97c.06-.07001.11-.13.17-.2Zm.31-.34l4.91,2.89999-.13.23-4.96-2.92999c.06-.06.12-.13.18-.19v-.00999Zm.3-.3l4.81,2.86-.11.2-4.86-2.89999c.05-.05.11-.11.16-.16Zm.32-.3l4.71,2.78-.12.22-4.76-2.84c.06-.05.12-.11.17-.16Zm.33-.28999l4.59,2.7-.12.21001-4.66-2.75c.06-.05.12-.11.18-.16h.01Zm.33-.27l4.46,2.62-.1.17999-4.53-2.66c.06-.05.12-.09.18-.14l-.01.00002Zm.35-.27l4.31,2.53-.11.19-4.39-2.58c.06-.05.13-.09.19-.14Zm.37-.25999l4.14,2.42999-.11.19-4.23-2.49001c.07-.05.13-.09.2-.14v.01001Zm.35-.23l3.98,2.34-.09.16-4.06-2.39c.06-.03999.12-.07001.17-.11Zm.43-.25l3.77,2.21001-.12.21001-3.89-2.28c.08-.05.16-.10001.24-.14v-.00002Zm.44-.24001l3.54,2.08-.12.21001-3.67-2.16c.08-.05.17-.09.25-.13Zm.48-.23l3.28,1.92999-.13.22-3.43-2.00999c.09-.03999.18-.09.28-.13v-.00999Zm.49-.21001l3,1.77-.12.21001-3.16-1.86c.09-.03999.18-.08.27-.11l.01-.01001Zm.49-.19l2.71,1.60001-.11.19-2.88-1.69c.09-.03.18-.07001.27-.10001h.01Zm.51-.17l2.42,1.39999-.12.21001-2.57-1.52c.09-.03.18-.06.28-.09h-.01Zm.57-.16l2.06,1.17999-.12.21001-2.23-1.31c.1-.03.19-.05.29-.08Zm3.01-1.47c-6.03,0-11.13,4.03-12.73,9.55h0v.00999c-.34,1.17-.52,2.41-.52,3.67999,0,7.32001,5.93,13.25,13.25,13.25s13.25-5.92999,13.25-13.25c0-1.36-.2-2.67-.58-3.89999h0v-.00999c-1.09-3.52-3.6-6.41-6.86-8h0c-.38-.17999-.77-.35001-1.17-.5h0c-1.44-.53-2.99-.82001-4.61-.82001l-.03-.00999Z"/>
      <path class="cls-9" d="m60.19404,183.17691v-1.86h.29c.32,0,.55.07001.69.22.14.14.21.38.21.7s-.07.58-.21.74001c-.14.14999-.36.23-.66.23h-.17c-.08,0-.13-.00999-.17-.00999m-.58-2.14h-.5c-.16,0-.3-.00999-.45-.02v.28999c.22,0,.37.03.43.09s.09.21001.09.44v2.75999c0,.23-.03.38-.09.44s-.2.09-.43.09v.28999c.24-.00999.45-.02.63-.03h.88c.19,0,.4.02.65.03v-.28999h-.13c-.21,0-.34-.03-.4-.09s-.09-.21001-.09-.44v-1.12c.14,0,.26.02.36.02h.27c.56,0,.97-.11,1.24-.32001s.4-.53999.4-.99001c0-.41-.14-.7-.42-.89s-.72-.28-1.33-.28c-.07,0-.23,0-.48.00999-.25,0-.46.00999-.63.00999v.00003Z"/>
      <path class="cls-9" d="m65.67404,182.70691c.08.16.21.3.38.42999.17.12.44.25.83.39.09.03.16.06.21.08.3.11.5.22.6.33s.15.25999.15.44c0,.21001-.06.38-.19.49001-.13.12-.31.17999-.54.17999-.36,0-.66-.12-.89-.36-.23-.24001-.36-.57001-.38-.99001h-.25v1.49001h.21l.08-.34c.19.16.39.28999.6.36.21.08.45.12.71.12.5,0,.89-.12,1.19-.36.29-.24001.44-.56.44-.96001,0-.33-.09-.59-.27-.78999s-.56-.39999-1.15-.62c-.38-.14-.63-.27-.72-.37-.1-.11-.15-.25-.15-.42,0-.21001.07-.37.21-.5s.32-.19.55-.19c.31,0,.56.10001.75.3s.3.47.33.83h.24v-1.32001h-.22l-.05.25999c-.17-.12-.35-.22-.55-.28-.2-.06-.41-.09-.63-.09-.5,0-.89.12-1.18.35001-.29.23-.43.56-.43.96001,0,.21001.04.39999.12.56"/>
      <path class="cls-9" d="m63.66404,178.26692c.24-.28.36-.67999.36-1.2v-2.75c0-.24001.03-.39.09-.44.06-.06.2-.09.41-.09v-.28999h-.09c-.51.03-.83.03999-.96.03999h-.38c-.15,0-.4-.02-.74-.03v.28999h.06c.25,0,.41.03.48.08.07.06.11.21001.11.45v3.33c0,.27-.04.46001-.12.58-.08.12-.21.17999-.38.17999-.1,0-.18-.02-.25-.05-.07-.03999-.11-.09-.13-.14999.11-.05.19-.12.24-.2.05-.08.08-.17999.08-.3,0-.14-.04-.25-.13-.34s-.2-.14-.34-.14-.26.05-.35.14999c-.1.10001-.14.22-.14.37,0,.27.11.49001.32.67.22.17999.49.25999.84.25999.45,0,.8-.14,1.04-.41"/>
      <path class="cls-9" d="m66.34404,189.54692c-.09.00999-.13.07001-.13.16,0,.11.04.17.13.17999h.02c.05,0,.1-.02.14-.05v-.28s-.07-.00999-.12-.00999h-.04"/>
      <path class="cls-9" d="m70.02404,189.31691v.12h.31v-.13c0-.07001-.01-.12-.03-.14999s-.06-.05-.12-.05h-.01c-.05,0-.09.02-.11.05-.02.03-.03.08-.03.14999"/>
      <path class="cls-9" d="m58.64404,190.12692v-1.72h.44v.60001h.01c.09-.09.21-.14.36-.14.26,0,.39.14999.39.45v.82001h-.44v-.81c0-.12-.05-.19-.16-.19-.07,0-.13.03-.17.08v.92h-.44l.01-.01001Zm-.63-.52v-.17999s0-.11.03-.14c.02-.02.07-.03.1-.03.07,0,.13,0,.2.02l.12.03.07-.41v.8l-.15.03999c-.07.02-.13.03-.2.03-.03,0-.1,0-.13-.03-.03-.03-.03-.09-.03-.13h-.00999Zm-.56.00999v-.22c0-.36.2-.53999.59-.53999.13,0,.25.00999.37.03999l-.04.25999c-.07-.02-.14-.02-.22-.02-.09,0-.15.02-.19.07001-.04.05-.06.12-.06.22v.17999c0,.09.02.17.06.21001.04.05.11.07001.21.07001.07,0,.15-.00999.23-.03v.25999c-.12.03-.23.05-.34.05-.41,0-.61-.17999-.61-.53999v-.01001Zm-.25-1.09l-.04.27c-.1-.03-.2-.03999-.31-.03999-.17,0-.25.05-.25.14,0,.03999.02.08.05.11s.1.07001.21.13c.06.03.1.06.13.07001.03.02.07.03999.11.08.04.03.07.06.09.09s.04.07001.05.12c.01.05.02.10001.02.16,0,.34-.22.50999-.65.50999-.18,0-.33-.02-.46-.07001v-.28999c.13.05.27.07001.4.07001.09,0,.15-.02.18-.05.04-.03.05-.08.05-.14,0-.03999-.02-.08-.05-.11s-.1-.07001-.19-.12c-.14-.07001-.24-.14-.31-.21001s-.11-.17999-.11-.31c0-.31.22-.47.65-.47.15,0,.29.02.42.06l.01-.00002Zm.08.78s-.07-.09-.12-.12c-.04-.03-.08-.06-.12-.09-.05-.03-.09-.05-.14-.08-.06-.03-.14-.07001-.19-.11v-.00999c.03-.02.11-.02.13-.02.09,0,.19.00999.28.03l.13.03.08-.5-.1-.03c-.15-.05-.3-.06-.45-.06-.39,0-.77.13-.77.58,0,.14.04.28.14.39.09.10001.22.17999.34.24001.04.02.13.06.16.10001,0,0,.01.00999.01.03,0,.00999,0,.03999-.01.05-.02.00999-.08.02-.1.02-.12,0-.25-.02-.36-.07001l-.16-.06v.53999l.08.03c.16.06.33.08.5.08.36,0,.67-.12.75-.45.08.31.34.45.7.45.12,0,.25-.02.37-.06l.08-.03.02-.42999v.48h.68v-.98s.03-.00999.05-.00999h.03s.01.05.01.06v.92999h.68v-.94c0-.33-.16-.57001-.51-.57001-.09,0-.18.02-.26.05v-.5h-.68v.52l-.09-.02c-.13-.03-.26-.05-.4-.05-.44,0-.71.21001-.71.66h0s-.03-.06-.05-.09v.00998Z"/>
      <path class="cls-9" d="m60.11404,189.72691v-.84h.44v.8c0,.13.05.2.15.2.07,0,.12-.02.16-.07001v-.92999h.44v1.24001h-.38l-.02-.13h-.02c-.09.11-.22.16-.39.16-.25,0-.38-.14-.38-.42999m-.12-.95v.95c0,.33.16.55.5.55.12,0,.23-.02.32-.08v.03999h.61v-1.47h-.68v.99001h-.06c-.01-.00999-.01-.06-.01-.08v-.92h-.68v.02Z"/>
      <path class="cls-9" d="m66.50404,189.40692v-.07001c0-.07001-.02-.12-.05-.14999-.03-.03-.1-.05-.2-.05s-.19,0-.3.03l-.02-.27c.11-.03.25-.05.43-.05.2,0,.35.03999.44.12.09.08.14.2.14.36v.8h-.37l-.03-.11h-.02c-.09.10001-.21.14999-.36.14999-.11,0-.21-.03-.28-.09s-.11-.16-.11-.28999c0-.27.16-.39999.47-.39999.09,0,.18,0,.25.02m-2.85.72v-1.24001h.38v.14h.01s.09-.09.16-.12.14-.05.23-.05c.16,0,.27.06.34.17999.04-.05.1-.09.17-.12s.14-.05.22-.05c.28,0,.42.16.42.47v.8h-.44v-.81c0-.12-.05-.19-.15-.19-.06,0-.11.02-.16.06v.94h-.44v-.81c0-.12-.05-.19-.15-.19-.06,0-.12.03-.16.08v.92h-.44l.01-.00999Zm-1.26-.27l.48-.69h-.49v-.28h1v.25l-.49.7h.52v.28h-1.03v-.27l.01.01001Zm-.8-.06v-1.39h.44v1.34c0,.05.01.09.03.11s.06.03999.11.03999h.01v.23c-.06.02-.12.03-.21.03-.26,0-.39-.12-.39-.36l.01.00002Zm-.12-1.50999v1.50999c0,.32001.2.48.51.48.08,0,.17,0,.24-.03999l.04-.02v.03h1.94v-.99001h.06c0,.00999.01.05.01.06v.92999h.68v-.99001h.05s.01.05.01.06v.92999h.68v-.25c.02.06.06.12.12.17.1.08.23.12.35.12.11,0,.21-.02.3-.07001v.03999h.59v-.92c0-.17-.05-.33-.18-.45-.14-.12-.34-.14-.52-.14-.15,0-.32,0-.46.05l-.09.03.04.5.13-.02c.09-.02.18-.02.28-.02h.08-.08c-.27,0-.48.09-.56.31v-.24001c0-.35001-.17-.59-.54-.59-.1,0-.19.02-.27.06-.04.02-.07.03999-.1.06-.09-.09-.22-.12-.35-.12-.1,0-.19.02-.28.06v-.03h-.62v.96001h-.41l.38-.55v-.41h-1.24v.52h.38l-.34.49001h-.15v-1.49001h-.68v-.02994Z"/>
      <path class="cls-9" d="m66.50404,189.40692v-.07001c0-.07001-.02-.12-.05-.14999-.03-.03-.1-.05-.2-.05s-.19,0-.3.03l-.02-.27c.11-.03.25-.05.43-.05.2,0,.35.03999.44.12.09.08.14.2.14.36v.8h-.37l-.03-.11h-.02c-.09.10001-.21.14999-.36.14999-.11,0-.21-.03-.28-.09s-.11-.16-.11-.28999c0-.27.16-.39999.47-.39999.09,0,.18,0,.25.02m-2.85.72v-1.24001h.38v.14h.01s.09-.09.16-.12.14-.05.23-.05c.16,0,.27.06.34.17999.04-.05.1-.09.17-.12s.14-.05.22-.05c.28,0,.42.16.42.47v.8h-.44v-.81c0-.12-.05-.19-.15-.19-.06,0-.11.02-.16.06v.94h-.44v-.81c0-.12-.05-.19-.15-.19-.06,0-.12.03-.16.08v.92h-.44l.01-.00999Zm-1.27-1.24001h1v.25l-.49.7h.52v.28h-1.03v-.27l.48-.69h-.49v-.28l.01.01001Zm-.35-.48v1.34c0,.05.01.09.03.11s.06.03999.11.03999h.01v.23c-.06.02-.12.03-.21.03-.26,0-.39-.12-.39-.36v-1.39h.44l.01.00002Zm.23.37v.52h.38l-.34.49001h-.15v-1.49001h-.68v1.50999c0,.32001.2.48.51.48.08,0,.17,0,.24-.03999l.04-.02v.03h1.94v-.99001h.06c0,.00999.01.05.01.06v.92999h.68v-.99001h.05s.01.05.01.06v.92999h.68v-.25c.02.06.06.12.12.17.1.08.23.12.35.12.11,0,.21-.02.3-.07001v.03999h.59v-.92c0-.17-.05-.33-.18-.45-.14-.12-.34-.14-.52-.14-.15,0-.32,0-.46.05l-.09.03.04.5.13-.02c.09-.02.18-.02.28-.02h.08-.08c-.27,0-.48.09-.56.31v-.24001c0-.35001-.17-.59-.54-.59-.1,0-.19.02-.27.06-.04.02-.07.03999-.1.06-.09-.09-.22-.12-.35-.12-.1,0-.19.02-.28.06v-.03h-.62v.96001h-.41l.38-.55v-.41h-1.24v-.02994Z"/>
      <path class="cls-9" d="m68.23404,190.12692v-1.72h.44v.98h.09l.23-.5h.46l-.32.57001.33.64v.03h-.46l-.24-.52h-.09v.52h-.44001Zm-1.03-1.24001h.4v.25999h.01c.09-.19.21-.28.36-.28h.04v.39h-.03c-.05,0-.11,0-.18.02-.07.00999-.12.03-.16.06v.8h-.44v-1.25Zm-.12-.12v1.47h.68v-.84s.05-.00999.07-.02c.05,0,.1-.02.16-.02h.13v.87h.68v-.28999l.13.28999h.66v-.17999l-.31-.61.38-.69h-.74l-.12.25999v-.75h-.68v.47h-.08s-.04-.00999-.05-.00999c-.1,0-.18.03-.25.08v-.05h-.64l-.02.02Z"/>
      <path class="cls-9" d="m70.15404,189.72691h.56-.04c-.1.03999-.21.05-.31.05-.06,0-.14,0-.19-.03999,0,0-.01,0-.02-.00999m-.43-.72c.1-.09.24-.14.44-.14s.35.03999.44.13c.09.09.14.21001.14.39v.23h-.72v.05c0,.08.03.14.09.17999s.15.06.25.06.22-.02.34-.05v.25c-.13.03999-.28.06-.46.06-.21,0-.37-.05-.49-.14-.12-.09-.18-.22-.18-.39999v-.22c0-.17999.05-.31.15-.41v.01001Zm-.08-.09c-.14.13-.18.31-.18.49001v.22c0,.2.07.37.23.49001.16.12.36.16.56.16.16,0,.33-.02.49-.07001l.07-.03.02-.46001h.03v-.35001c0-.17999-.04-.35001-.17-.47-.14-.13-.34-.16-.52-.16s-.38.03999-.52.17999l-.01.00002Z"/>
      <path class="cls-9" d="m66.50404,189.86691v-.28s-.07-.00999-.12-.00999c-.12,0-.18.05-.18.16,0,.12.05.17999.16.17999.05,0,.1-.02.15-.05"/>
      <path class="cls-9" d="m70.01404,189.28691v.12h.31v-.13c0-.07001-.01-.12-.03-.14999s-.06-.05-.12-.05c-.06,0-.1.02-.12.05-.02.03-.03.08-.03.14999"/>
      <path class="cls-9" d="m57.18404,189.37692s-.05-.06-.09-.09-.08-.06-.11-.08-.08-.03999-.13-.07001c-.1-.06-.17-.10001-.21-.13-.03-.03-.05-.06-.05-.11,0-.09.08-.14.25-.14.11,0,.21.00999.31.03999l.04-.27c-.13-.03999-.26-.06-.42-.06-.43,0-.65.14999-.65.47,0,.13.04.23.11.31.07.07001.17.14.31.21001.1.05.16.09.19.12s.05.07001.05.11c0,.06-.02.11-.05.14-.04.03-.1.05-.18.05-.14,0-.27-.02-.4-.07001v.28999c.13.05.28.07001.46.07001.43,0,.65-.17.65-.50999,0-.06,0-.11-.02-.16-.01-.05-.03-.09-.05-.12"/>
      <path class="cls-9" d="m58.03404,188.85692c-.39,0-.59.17999-.59.53999v.22c0,.36.2.53999.61.53999.12,0,.23-.02.33-.05v-.25999c-.07.02-.15.03-.22.03-.1,0-.17-.02-.21-.07001s-.06-.12-.06-.21001v-.17999c0-.10001.02-.17.06-.22s.1-.07001.19-.07001c.08,0,.15,0,.22.02l.04-.25999c-.11-.03-.24-.03999-.37-.03999"/>
      <path class="cls-9" d="m58.64404,188.40692v1.72h.44v-.92c.04-.05.1-.08.17-.08.1,0,.16.06.16.19v.81h.44v-.82001c0-.3-.13-.45-.39-.45-.15,0-.27.05-.36.14999h-.01v-.60001h-.44l-.01.00002Z"/>
      <path class="cls-9" d="m60.11404,188.89691v.84c0,.28999.13.42999.38.42999.17,0,.3-.06.39-.17h.02l.02.13h.38v-1.24001h-.44v.92999s-.09.07001-.16.07001c-.1,0-.15-.07001-.15-.2v-.8h-.44v.01001Z"/>
      <path class="cls-9" d="m61.58404,188.40692v1.39c0,.24001.13.36.39.36.09,0,.15-.00999.19-.03v-.23h0c-.05,0-.09-.00999-.11-.03999-.02-.02-.03-.06-.03-.11v-1.34h-.44v-.00002Z"/>
      <polygon class="cls-9" points="62.37404 188.89691 62.37404 189.17691 62.86404 189.17691 62.38404 189.86691 62.38404 190.12692 63.41404 190.12692 63.41404 189.84691 62.88404 189.84691 63.38404 189.14691 63.38404 188.89691 62.37404 188.89691"/>
      <path class="cls-9" d="m63.64404,188.89691v1.24001h.44v-.92c.04-.05.09-.08.16-.08.1,0,.15.06.15.19v.81h.44v-.94c.05-.03999.1-.06.16-.06.1,0,.15.06.15.19v.81h.44v-.8c0-.32001-.14-.47-.42-.47-.08,0-.15.02-.22.05s-.13.08-.17.12c-.07-.12-.18-.17999-.34-.17999-.09,0-.16.02-.23.05s-.12.07001-.16.13h-.01v-.14h-.38l-.01-.00002Z"/>
      <path class="cls-9" d="m66.50404,189.58691v.28s-.09.05-.15.05c-.1,0-.16-.06-.16-.17999,0-.11.06-.16.18-.16.06,0,.1,0,.12.00999m-.25-.44c.1,0,.16.02.2.05.03.03.05.08.05.14999v.07001c-.07-.00999-.15-.02-.25-.02-.31,0-.47.13-.47.39999,0,.13.04.23.11.28999s.16.09.28.09c.15,0,.27-.05.36-.14999h.02l.03.12h.37v-.8c0-.16-.05-.28-.14-.36s-.24-.12-.44-.12c-.18,0-.32.02-.43.05l.02.27c.1-.02.2-.03.3-.03l-.00999-.00999Z"/>
      <path class="cls-9" d="m67.20404,188.89691v1.24001h.44v-.8s.1-.03999.16-.06c.07-.00999.13-.02.18-.02h.03v-.39h-.04c-.15,0-.27.10001-.36.28999h-.01v-.25999h-.4Z"/>
      <polygon class="cls-9" points="68.23404 188.40692 68.23404 190.12692 68.67404 190.12692 68.67404 189.60692 68.76404 189.60692 69.00404 190.12692 69.46404 190.12692 69.46404 190.09691 69.14404 189.46692 69.45404 188.89691 68.99404 188.89691 68.76404 189.38691 68.67404 189.38691 68.67404 188.40692 68.23404 188.40692"/>
      <path class="cls-9" d="m70.01404,189.40692v-.12c0-.07001.01-.12.03-.14999s.06-.05.12-.05c.06,0,.09.02.12.05.02.03.03.08.03.14999v.13h-.31l.00999-.01001Zm-.29-.41c-.1.09-.15.23-.15.41v.22c0,.17999.06.31.18.39999s.28.14.49.14c.18,0,.33-.02.44-.06v-.25c-.11.03-.22.05-.33.05s-.19-.02-.25-.06-.09-.10001-.09-.17999v-.05h.72v-.23c0-.17-.05-.3-.14-.39s-.24-.13-.44-.13-.34.05-.44.14l.01-.01001Z"/>
      <path class="cls-3" d="m26.67404,223.93692l-.41.39c-.28-.3-.6-.44-.95-.44-.3,0-.55.10001-.75.3s-.31.45-.31.75c0,.21001.05.39.14.55s.22.28999.38.38c.16.09.35.14.55.14.17,0,.33-.03.47-.10001.14-.06.3-.17999.47-.35001l.4.42c-.23.22-.45.38-.65.47-.2.09-.44.13-.7.13-.48,0-.88-.14999-1.18-.46001-.31-.3-.46-.7-.46-1.17,0-.31.07-.58.21-.82001s.34-.42999.6-.58c.26-.14999.54-.22.84-.22.26,0,.5.05.74.16s.44.25999.61.46001m-4.75-.53999h.59v2.53999h.87v.56h-1.45v-3.10001l-.01.00002Zm-1.94.82001l-.42,1.07001h.84l-.42-1.07001Zm-.3-.82001h.59l1.19,3.10001h-.61l-.24-.64h-1.27l-.25.64h-.61l1.2-3.10001Zm7.62-3.14c-.1,0-.18.03999-.25.10001-.07.07001-.1.14999-.1.25s.03.17999.1.25.15.10001.25.10001.18-.03999.25-.10001c.07-.07001.1-.14999.1-.25s-.03-.17999-.1-.25-.15-.10001-.25-.10001Zm0-.38c.2,0,.38.07001.52.22.14.14.22.32001.22.52s-.07.38-.22.52c-.14.14-.32.22-.52.22s-.38-.07001-.52-.22c-.14-.14-.22-.32001-.22-.52s.07-.38.22-.52c.14-.14.32-.22.52-.22Zm-2.05-1.39999c-.1,0-.18.03-.25.10001s-.1.14999-.1.25.03.17999.1.25.15.10001.25.10001.18-.03.25-.10001.1-.14999.1-.25-.03-.17999-.1-.25-.15-.10001-.25-.10001Zm2.02-.44h.43l-2.45,3.45h-.42l2.1-2.96001c-.13.02-.25.03999-.36.05-.11.00999-.21.02-.31.02s-.2,0-.31-.02c.03.10001.05.19.05.27,0,.2-.07.38-.21.52s-.32.21001-.52.21001-.38-.07001-.53-.21001c-.14-.14-.22-.32001-.22-.52,0-.13.03-.25.1-.37.06-.11.16-.2.27-.27.12-.07001.23-.10001.35-.10001.09,0,.21.02.36.05.27.06.51.09.72.09.19,0,.36-.02.52-.05s.31-.08.44-.14999l-.01-.00999Zm-4.54.14h1.45v.53999h-1.01l-.13.57001s.07-.02.1-.02h.1c.28,0,.51.10001.7.28999.19.19.28.44.28.73s-.1.56-.31.75999c-.21.21001-.46.31-.75.31-.26,0-.49-.08-.68-.23s-.31-.36-.37-.62h.62c.05.10001.11.17.19.22s.16.07001.26.07001c.13,0,.24-.05.33-.14s.14-.21001.14-.36-.04-.25999-.13-.35001c-.08-.09-.19-.14-.31-.14-.06,0-.13.02-.19.05-.06.03-.12.08-.18.14l-.48-.11.37-1.72v.01001Zm-1.36,2.52l.41.21001-.52.89-.29-.14.39-.96001h.01Zm-1.54-.60001v-1.03999l-.71,1.03999h.71Zm0-2h.59v2h.28v.53999h-.28v.63h-.58v-.63h-1.35v-.53999l1.35-2h-.01Z"/>
      <path class="cls-3" d="m100.23404,217.87692h1.49v.56h-1.04l-.13.58s.07-.02.11-.02h.1c.29,0,.53.10001.72.28999.19.2.29.45.29.75s-.11.57001-.32.78c-.21.21001-.47.32001-.77.32001-.27,0-.5-.08-.7-.23s-.32-.37-.38-.64h.64c.05.10001.11.17.19.23.08.05.17.08.26.08.13,0,.25-.05.34-.14.09-.10001.14-.22.14-.37s-.04-.27-.13-.36-.19-.14-.32-.14c-.07,0-.13.02-.2.05-.06.03-.13.08-.19.14999l-.49-.11.38-1.77.00999-.00999Zm6.44,5.37h.6v2.60001h.89v.58h-1.49v-3.18001Zm-2.23.50999c-.29,0-.54.10001-.74.31-.2.2-.3.46001-.3.78,0,.35001.13.63.38.83.2.16.42.24001.67.24001.29,0,.53-.10001.73-.31.2-.21001.3-.46001.3-.77s-.1-.56-.3-.77c-.2-.21001-.45-.31-.74-.31Zm0-.59c.45,0,.84.16,1.16.49001.32.33.49.72.49,1.19s-.16.86-.48,1.17999c-.32.32001-.71.48-1.16.48s-.87-.17-1.19-.5-.47-.72-.47-1.17999c0-.3.07-.58.22-.84.15-.25.35-.46001.61-.61s.54-.22.83-.22l-.00999.00999Zm-4.84.08h.62l.8,2.25999.82-2.25999h.62l-1.15,3.17999h-.58l-1.12-3.17999h-.01Zm7.95-5.37h.6v2.60001h.89v.58h-1.49v-3.18001Zm-3.68,0h.59l.74,2.22.74-2.22h.59l.53,3.17999h-.58l-.34-2.00999-.67,2.00999h-.53l-.67-2.00999-.35,2.00999h-.59l.55-3.17999h-.01Zm-6.13,0h1.49v.56h-1.04l-.13.58s.07-.02.11-.02h.1c.29,0,.53.10001.72.28999.19.2.29.45.29.75s-.11.57001-.32.78c-.21.21001-.47.32001-.77.32001-.27,0-.5-.08-.7-.23-.19-.14999-.32-.37-.38-.64h.64c.05.10001.11.17.19.23.08.05.17.08.26.08.13,0,.25-.05.34-.14.09-.10001.14-.22.14-.37s-.04-.27-.13-.36-.19-.14-.32-.14c-.07,0-.13.02-.2.05-.06.03-.13.08-.19.14999l-.49-.11.38-1.77.00999-.00999Zm-2.38.78h-.58c.03-.23.11-.42.25-.57001.19-.2.44-.3.73-.3.26,0,.48.08.66.25s.26.36.26.59c0,.14-.04.27-.12.39s-.19.21001-.34.28c.19.06.34.16.45.3s.16.31.16.50999c0,.28999-.1.53-.32.72-.21.2-.48.3-.8.3-.31,0-.56-.09-.75-.28s-.3-.44-.32-.75999h.6c.03.16.08.28999.17.37s.2.12.34.12.26-.03999.35-.14c.09-.09.14-.2.14-.33,0-.14-.06-.27-.19-.37-.12-.10001-.3-.14999-.54-.14999v-.52c.14-.00999.25-.03.32-.07001.07-.03.13-.08.17-.14s.06-.12.06-.19c0-.09-.03-.16-.09-.22s-.14-.09-.24-.09c-.09,0-.16.03-.24.08-.07.05-.12.12-.14.2l.01.02002Z"/>
      <path class="cls-3" d="m75.67404,223.42691v1.89h.26c.26,0,.45-.03.57-.09s.21-.16.29-.3c.07-.14.11-.32001.11-.52,0-.32001-.09-.57001-.27-.74001-.16-.16-.42-.24001-.77-.24001h-.19v.00002Zm-.57-.55h.68c.44,0,.76.05.97.16s.39.28.52.53c.14.24001.21.53.21.85001,0,.23-.04.44-.11.64-.08.19-.18.35001-.32.48-.13.13-.28.22-.44.27s-.43.07001-.82.07001h-.69v-3.00002Zm-1.89.8l-.41,1.03h.81s-.4-1.03-.39999-1.03Zm-.29-.8h.57l1.15,3h-.59l-.23-.62h-1.23l-.24.62h-.59s1.16-3,1.16-3Zm-2.73,1.17h.18c.18,0,.31-.02.38-.07001s.1-.13.1-.24001c0-.07001-.02-.12-.05-.17-.03-.05-.08-.08-.14-.10001s-.16-.03-.32-.03h-.16v.62l.01001-.00998Zm-.57-1.17h.61c.33,0,.57.03.71.09s.25.16.34.3.13.3.13.49001-.05.36-.14.49001-.24.23-.43.3l.71,1.33h-.62l-.67-1.27h-.06v1.27h-.57v-3l-.00999-.00002Zm-.77.49001l-.4.39999c-.25-.27-.55-.39999-.89-.39999-.29,0-.54.10001-.74.28999-.2.2-.3.42999-.3.71001s.1.53.31.73.46.3.76.3c.2,0,.36-.03999.5-.12s.24-.21001.33-.39h-.87v-.53h1.51v.13c0,.25999-.06.50999-.2.75-.14.23-.31.41-.53.53999-.22.12-.47.19-.76.19-.31,0-.59-.07001-.83-.2-.24-.14-.44-.33-.58-.58s-.21-.52-.21-.81c0-.39999.13-.74001.39-1.03.31-.35001.72-.52,1.22-.52.26,0,.51.05.73.14.19.08.38.22.56.42v-.02Zm-5.85-.49001h.54l1.29,1.97v-1.97h.57v3h-.55l-1.29-1.97v1.97h-.57v-3h.01Zm-1.21,0h.57v3h-.57v-3Zm-3.04,0h.54l1.29,1.97v-1.97h.57v3h-.55l-1.29-1.97v1.97h-.57v-3h.01Zm-1.21,0h.57v3h-.57v-3Zm-1.8,0h.57v2.45h.84v.53999h-1.41v-3,.01001Zm-1.88.8l-.41,1.03h.81l-.4-1.03Zm-.29-.8h.57l1.15,3h-.59l-.23-.62h-1.23l-.24.62h-.59l1.16-3Zm-3.5,0h.58v1.03999l.81-1.03999h.69l-1.05,1.34,1.15,1.66h-.68l-.92-1.34v1.34h-.58s0-3,0-3Zm26.13-3.48l-.3.77h.61l-.3-.77h-.00999Zm-.22-.60001h.43l.87,2.25h-.45l-.18-.46001h-.92l-.18.46001h-.44s.87-2.25.87-2.25Zm-1.98,0h.43v2.25h-.43v-2.25Zm-.8.31l-.32.28c-.11-.14999-.22-.23-.34-.23-.06,0-.1.02-.14.03999-.04.03-.05.06-.05.10001s.01.07001.04.11.14.14.31.28999c.16.14.26.22.3.25999.09.09.15.17.18.25.04.08.05.17.05.25999,0,.17999-.06.34-.19.46001-.13.12-.29.17999-.5.17999-.16,0-.3-.03999-.42-.12-.12-.08-.22-.2-.31-.37l.36-.22c.11.2.23.3.37.3.07,0,.14-.02.19-.06s.08-.09.08-.14999c0-.05-.02-.10001-.06-.14999-.04-.05-.12-.13-.25-.23-.25-.2-.4-.35001-.47-.46001s-.11-.22-.11-.32001c0-.16.06-.28999.18-.39999s.27-.17.44-.17c.11,0,.22.03.32.08s.21.14999.33.28l.00998-.01001Zm-2.01,0l-.32.28c-.11-.14999-.22-.23-.34-.23-.06,0-.1.02-.14.03999-.04.03-.05.06-.05.10001s.01.07001.04.11.14.14.31.28999c.16.14.26.22.3.25999.09.09.15.17.18.25.04.08.05.17.05.25999,0,.17999-.06.34-.19.46001-.13.12-.29.17999-.5.17999-.16,0-.3-.03999-.42-.12-.12-.08-.22-.2-.31-.37l.36-.22c.11.2.23.3.37.3.07,0,.14-.02.19-.06s.08-.09.08-.14999c0-.05-.02-.10001-.06-.14999-.04-.05-.12-.13-.25-.23-.25-.2-.4-.35001-.47-.46001s-.11-.22-.11-.32001c0-.16.06-.28999.18-.39999s.27-.17.44-.17c.11,0,.22.03.32.08s.21.14999.33.28l.00998-.01001Zm-3.59-.31h.43v1.45c0,.13.01.21001.03.27.02.05.06.09.11.12s.11.05.18.05c.08,0,.14-.02.2-.05.05-.03.09-.08.11-.13.02-.05.03-.16.03-.31v-1.39999h.43v1.34c0,.23-.01.38-.04.47s-.07.17-.15.25c-.07.08-.15.14-.25.17999-.09.03999-.2.06-.33.06-.16,0-.3-.03999-.43-.11-.12-.08-.21-.17-.26-.28s-.08-.3-.08-.57001v-1.34l.02001.00002Zm-1.73.88h.14c.14,0,.23-.02.28-.05.05-.03999.08-.10001.08-.17999,0-.05-.01-.09-.04-.13-.03-.03999-.06-.06-.1-.08s-.12-.02-.24-.02h-.12s0,.46001,0,.46001Zm-.43-.88h.45c.25,0,.43.02.53.07001.11.03999.19.12.25.22s.1.22.1.37-.04.27-.11.37c-.07.10001-.18.17-.32.23l.53,1h-.47l-.51-.95h-.04v.95h-.43v-2.25l.02-.00999Zm-3.22,0h.41l.97,1.48v-1.48h.43v2.25h-.41l-.97-1.47v1.47h-.43v-2.25Zm-1.3,0h.43v2.25h-.43v-2.25Zm-2.47,0h1.23v.42h-.8v.39999h.8v.41h-.8v.59h.8v.42h-1.23v-2.25.01001Zm-2.15.41v1.42h.2c.2,0,.34-.02.43-.07001s.16-.12.22-.23.08-.24001.08-.39c0-.24001-.07-.42-.2-.56-.12-.12-.31-.17999-.58-.17999h-.14l-.01.00999Zm-.43-.41h.51c.33,0,.57.03999.73.12s.29.21001.39.39.15.39999.15.64c0,.17-.03.33-.09.48s-.14.27-.24.36c-.1.10001-.21.16-.33.2-.12.03999-.32.05-.61.05h-.51v-2.25.01001Zm-1.8.60001l-.3.77h.61l-.3-.77h-.01Zm-.22-.60001h.43l.87,2.25h-.45l-.18-.46001h-.92l-.18.46001h-.45l.87-2.25h.01Zm-3.67,0h.41l.52,1.57001.53-1.57001h.41l.38,2.25h-.41l-.24-1.42-.48,1.42h-.38l-.47-1.42-.24,1.42h-.42s.39-2.25.39-2.25Z"/>
      <path class="cls-9" d="m13.37404,28.64691v141.16999h26.89l3.62-8.71001,19.54-8.28999,20.17,7.94,3.89,9.06h26.14V28.64691c-.14-5.04-10.23-9.75-9.68-17.05l-80.95-.09c.02,6.82-9.73,12.07-9.62,17.14"/>
      <polygon class="cls-8" points="26.58404 138.36691 23.03404 136.39691 23.03404 110.22691 26.58404 108.24691 26.58404 127.53692 30.26404 129.58691 26.58404 131.63691 26.58404 138.36691"/>
      <polygon class="cls-8" points="30.30404 129.55691 33.85404 127.58691 33.85404 108.08691 26.50404 103.99691 23.05404 106.12691 30.30404 110.17692 30.30404 129.55691"/>
      <polygon class="cls-8" points="46.84404 127.79691 46.84404 131.79691 104.29404 102.75691 100.39404 100.73691 46.84404 127.79691"/>
      <polygon class="cls-8" points="36.13404 112.59691 36.13404 122.99691 39.80404 125.03692 43.45404 123.00691 39.68404 120.89692 39.68404 110.62691 36.13404 112.59691"/>
      <polygon class="cls-8" points="47.05404 121.00691 47.05404 110.60692 43.39404 108.55691 39.74404 110.59691 43.51404 112.69691 43.51404 122.97691 47.05404 121.00691"/>
      <polygon class="cls-8" points="62.53404 99.20691 62.53404 109.60692 66.20404 111.65691 69.85404 109.61691 66.08404 107.51691 66.08404 97.23691 62.53404 99.20691"/>
      <polygon class="cls-8" points="73.50404 111.58691 73.45404 97.21692 69.78404 95.17692 66.13404 97.20691 69.90404 99.31691 69.90404 109.58691 73.50404 111.58691"/>
      <polygon class="cls-8" points="84.61404 84.49691 84.62404 101.89692 88.29404 103.94691 91.94404 101.90691 88.17404 99.80691 88.17404 89.89692 91.85404 87.83691 88.17404 85.79691 88.18404 82.50691 84.61404 84.49691"/>
      <polygon class="cls-8" points="52.94404 118.27691 49.39404 116.30691 49.39404 101.94691 52.94404 103.91691 52.94404 118.27691"/>
      <polygon class="cls-8" points="96.80404 99.46692 93.26404 97.49691 93.27404 78.18691 96.80404 76.21692 96.80404 99.46692"/>
      <polygon class="cls-8" points="104.27404 99.27691 104.21404 84.90691 100.54404 82.86691 96.89404 84.89692 100.67404 87.00691 100.67404 97.27691 104.27404 99.27691"/>
      <polygon class="cls-8" points="79.39404 108.22691 75.84404 106.25691 75.84404 91.99691 82.67404 88.54691 82.69404 92.53692 79.39404 94.20691 79.39404 108.22691"/>
      <polygon class="cls-8" points="60.39404 118.32692 60.33404 103.96692 56.66404 101.92692 53.01404 103.95691 56.78404 106.05691 56.78404 116.33691 60.39404 118.32692"/>
      <polygon class="cls-8" points="45.10404 132.67691 45.06404 126.79691 43.67404 126.10692 42.31404 126.78692 43.70404 127.48691 43.70404 133.37692 45.10404 132.67691"/>
      <polygon class="cls-8" points="40.98404 133.35692 42.32404 134.07692 43.69404 133.38691 42.37404 132.65692 40.98404 133.35692"/>
      <polygon class="cls-8" points="40.92404 127.48691 40.94404 131.09691 42.26404 131.82692 43.65404 131.12691 42.31404 130.40691 42.31404 126.79691 40.92404 127.48691"/>
      <polygon class="cls-8" points="40.26404 135.11691 40.24404 131.53692 38.87404 130.82692 38.87404 135.81691 40.26404 135.11691"/>
      <polygon class="cls-8" points="36.07404 128.59691 36.10404 133.53691 37.42404 134.26692 38.80404 133.56691 37.46404 132.84691 37.46404 129.29691 36.07404 128.59691"/>
      <polygon class="cls-8" points="35.40404 137.56691 35.38404 133.95691 32.65404 132.58691 32.65404 131.65691 31.15404 132.41691 31.17404 133.21692 34.01404 134.64691 34.01404 138.26692 35.40404 137.56691"/>
      <polygon class="cls-8" points="31.28404 134.69691 31.29404 138.23692 32.61404 138.97691 34.00404 138.27691 32.66404 137.54692 32.66404 133.99691 31.28404 134.69691"/>
      <polygon class="cls-8" points="35.45404 132.58691 35.44404 131.59691 34.10404 130.91691 32.73404 131.60692 34.07404 132.28692 34.07404 133.28691 35.45404 132.58691"/>
      <polygon class="cls-8" points="29.87404 140.35692 29.84404 133.14691 28.46404 132.43692 28.47404 139.71692 29.87404 140.35692"/>
      <path class="cls-8" d="m53.76404,96.23691v-10.85c-.52.2-.82.42-.84.65v10.63l.84-.42v-.01Z"/>
      <path class="cls-8" d="m66.29404,84.77691v5.13l3.63-1.83v-2.12c-.17-.49-1.57-.92-3.63-1.18"/>
      <path class="cls-8" d="m56.55404,94.75691v-9.98c-.79.1-1.48.23-2.05.37v10.7s2.05-1.09,2.05-1.09Z"/>
      <path class="cls-8" d="m67.48404,82.63691l-.62-.16-.57,2.3c-.46-.06-.93-.11-1.41-.15l.63-2.49-.56-.14.47-4.7c1.44.04,2.76.4,3.98,1.04l-1.92,4.29v.00999Z"/>
      <path class="cls-8" d="m58.21404,79.92692c.07.38.04.79-.11,1.18-.16.42-.44.76-.78.99l.63,2.53c-.47.03-.93.08-1.38.14l-.57-2.29c-.24,0-.47-.06-.71-.15-.7-.27-1.18-.87-1.33-1.55l-.58-2.34,4.2-1.08.64,2.55-.01.02Z"/>
      <path class="cls-8" d="m57.54404,79.98691c.03.12.05.25.05.38,0,.83-.67,1.5-1.5,1.5-.7,0-1.29-.48-1.46-1.14-.15-.59-.27-1.16-.44-1.77l2.91-.75.44,1.77v.01Z"/>
      <path class="cls-8" d="m54.19404,78.95691l2.91-.75.44,1.77c.03.12.05.25.05.38,0,.83-.67,1.5-1.5,1.5-.7,0-1.29-.48-1.46-1.14-.15-.59-.27-1.16-.44-1.77m-.82-.5l.58,2.34c.15.68.63,1.28,1.33,1.55.23.09.47.14.71.15l.57,2.29c.45-.07.91-.12,1.38-.14l-.63-2.53c.34-.24.62-.58.78-.99.15-.39.18-.8.11-1.18l-.64-2.55-4.2,1.08.01-.02Z"/>
      <path class="cls-8" d="m66.29404,84.77691l.57-2.3.62.16,1.92-4.29c-1.22-.64-2.54-1-3.98-1.04l-.47,4.7.56.14-.63,2.49c.48.03.95.08,1.41.15m.84-2.87l-1.52-.39.33-3.65c.16.01.33.03.49.05l-.22,2.51.26.05.6-2.44c.14.04.31.08.44.13l-.61,2.44.23.08,1.05-2.26c.13.06.25.12.37.2l-1.43,3.28h.00999Z"/>
      <path class="cls-8" d="m60.75404,76.60692h-1.36v-.78h.15c.22.09.62.2,1.11.2h.1v.58Zm0,1.41h-1.33v-.78h1.33v.78Zm0,1.49h-.1c-.61,0-1.04-.26-1.23-.87h1.33s0,.87,0,.87Zm0,.59v4.4c-.99.01-1.94.06-2.8.13h-.02v9.49l6.95-3.51v-5.98c-.86-.07-1.78-.11-2.76-.13v-4.4h.24c.92,0,1.68-.69,1.68-1.66v-2.33c0-.62.41-1.16.9-1.67h-.85c-.44.57-.92,1.05-1.98.97v-.97h-1.37v.97c-.97.05-1.54-.32-1.94-.97h-.86c.57.55.88,1.09.88,1.67v2.43c0,.72.71,1.56,1.66,1.56h.26l.00999.00002Zm1.37-.59v-.87h1.3c-.13.5-.45.87-1.15.87,0,0-.15,0-.15,0Zm0-1.49v-.78h1.3v.78h-1.3Zm0-1.41v-.58h.15c.45,0,.92-.12,1.02-.2h.1v.78h-1.27Z"/>
      <path class="cls-11" d="m79.22404,43.97691h.47c.48,0,.81-.06.99-.19.18-.13.27-.33.27-.62,0-.17-.05-.32-.13-.45-.09-.13-.21-.22-.36-.27-.15-.06-.43-.08-.83-.08h-.41s0,1.61,0,1.61Zm-1.48-3.06h1.58c.87,0,1.48.08,1.85.23.37.15.66.41.89.77.22.36.34.78.34,1.27s-.12.95-.37,1.29c-.25.35-.62.61-1.11.79l1.85,3.48h-1.63l-1.76-3.32h-.15v3.32h-1.48v-7.83h-.00999Zm-5.76,0h4.28v1.46h-2.79v1.41h2.79v1.44h-2.79v2.06h2.79v1.46h-4.28v-7.83Zm-8.07,0h1.41l3.37,5.15v-5.15h1.48v7.83h-1.43l-3.36-5.14v5.14h-1.48v-7.83h.01Zm-1.57,1.07l-1.11.97c-.39-.54-.78-.81-1.18-.81-.2,0-.36.05-.48.16-.13.11-.19.22-.19.35s.04.26.13.37c.12.16.49.49,1.1,1,.57.48.91.78,1.04.9.3.31.52.6.64.87.13.28.19.58.19.91,0,.64-.22,1.17-.67,1.59-.44.42-1.02.63-1.74.63-.56,0-1.04-.14-1.46-.41-.41-.27-.77-.7-1.07-1.29l1.26-.76c.38.69.81,1.04,1.3,1.04.26,0,.47-.07.65-.22.17-.15.26-.32.26-.52,0-.18-.07-.35-.2-.53s-.42-.45-.87-.81c-.85-.69-1.41-1.23-1.65-1.61-.25-.38-.37-.75-.37-1.13,0-.54.21-1.01.62-1.4.41-.39.92-.58,1.53-.58.39,0,.76.09,1.12.27.35.18.74.51,1.15.99v.02Zm-8.92-1.07h1.48v6.41h2.19v1.42h-3.67v-7.83Zm-3.15,0h1.48v7.83h-1.48v-7.83Zm-4.53,3.06h.48c.38,0,.64-.03.78-.08.15-.06.26-.14.35-.27.08-.12.13-.27.13-.45,0-.3-.12-.53-.35-.66-.17-.1-.49-.16-.96-.16h-.42v1.61l-.01.01Zm-1.48-3.06h1.58c.86,0,1.47.08,1.85.24.38.16.68.41.9.77.22.35.33.78.33,1.27,0,.55-.14,1-.43,1.36s-.67.61-1.17.76c-.29.08-.81.12-1.58.12v3.32h-1.48v-7.84Z"/>
      <rect class="cls-11" x="51.24404" y="52.86691" width="24.5" height=".48"/>
      <path class="cls-11" d="m83.62404,57.24691h.16c.16,0,.27-.02.33-.06.06-.04.09-.11.09-.21,0-.06-.02-.11-.04-.15-.03-.04-.07-.07-.12-.09s-.14-.03-.28-.03h-.14v.54Zm-.49-1.02h.53c.29,0,.49.03.62.08.12.05.22.14.3.26.07.12.11.26.11.42,0,.17-.04.32-.12.43-.08.12-.21.2-.37.26l.62,1.16h-.54l-.59-1.11h-.05v1.11h-.49v-2.61h-.02Zm-1.92,0h1.42v.49h-.93v.47h.93v.48h-.93v.69h.93v.49h-1.42v-2.62Zm-2.69,0h.47l1.12,1.72v-1.72h.49v2.61h-.47l-1.12-1.71v1.71h-.49v-2.61Zm-.52.36l-.37.32c-.13-.18-.26-.27-.39-.27-.07,0-.12.02-.16.05-.04.04-.06.07-.06.12s.01.09.04.12c.04.05.16.16.37.33.19.16.3.26.35.3.1.1.17.2.21.29s.06.19.06.3c0,.21-.07.39-.22.53s-.34.21-.58.21c-.19,0-.35-.05-.49-.14s-.26-.23-.35-.43l.42-.25c.13.23.27.35.43.35.09,0,.16-.02.22-.07s.09-.11.09-.17c0-.06-.02-.12-.07-.18-.04-.06-.14-.15-.29-.27-.28-.23-.47-.41-.55-.54s-.12-.25-.12-.38c0-.18.07-.34.21-.47s.31-.19.51-.19c.13,0,.25.03.37.09s.25.17.38.33l-.00999.02Zm-2.97-.36h.49v2.14h.73v.47h-1.22v-2.61Zm-1.05,0h.49v2.61h-.49v-2.61Zm-1.51,1.02h.16c.13,0,.21,0,.26-.03.05-.02.09-.05.12-.09.03-.04.04-.09.04-.15,0-.1-.04-.17-.12-.22-.06-.03-.16-.05-.32-.05h-.14s0,.54,0,.54Zm-.49-1.02h.53c.29,0,.49.03.62.08.13.05.23.14.3.26s.11.26.11.42c0,.18-.05.33-.14.45-.1.12-.22.2-.39.25-.1.03-.27.04-.53.04v1.11h-.49v-2.61h-.01001Zm-2.9,0h1.42v.49h-.93v.47h.93v.48h-.93v.69h.93v.49h-1.42v-2.62Zm-1.61,0h.49v2.14h.73v.47h-1.22v-2.61Zm-2.44,0h.53l.48.94.48-.94h.53l-.77,1.48v1.13h-.5v-1.13l-.77-1.48h.02Zm-1.59,0h1.44v.49h-.48v2.12h-.51v-2.12h-.46v-.49h.01Zm-.27.36l-.37.32c-.13-.18-.26-.27-.39-.27-.07,0-.12.02-.16.05-.04.04-.06.07-.06.12s.01.09.04.12c.04.05.16.16.37.33.19.16.3.26.35.3.1.1.17.2.21.29s.06.19.06.3c0,.21-.07.39-.22.53s-.34.21-.58.21c-.19,0-.35-.05-.49-.14-.14-.09-.26-.23-.35-.43l.42-.25c.13.23.27.35.43.35.09,0,.16-.02.22-.07s.09-.11.09-.17c0-.06-.02-.12-.07-.18-.04-.06-.14-.15-.29-.27-.28-.23-.47-.41-.55-.54-.08-.13-.12-.25-.12-.38,0-.18.07-.34.21-.47s.31-.19.51-.19c.13,0,.25.03.37.09s.25.17.38.33l-.00999.02Zm-5.07-.36h.47l1.12,1.72v-1.72h.49v2.61h-.48l-1.12-1.71v1.71h-.49v-2.61h.01Zm-1.64.69l-.35.9h.71l-.35-.9h-.01Zm-.25-.69h.5l1,2.61h-.52l-.2-.54h-1.07l-.21.54h-.52l1.01-2.61h.01Zm-2.68,0h1.42v.49h-.93v.47h.93v.48h-.93v.69h.93v.49h-1.42v-2.62Zm-1.55,1.02h.16c.13,0,.21,0,.26-.03.05-.02.09-.05.12-.09s.04-.09.04-.15c0-.1-.04-.17-.12-.22-.06-.03-.16-.05-.32-.05h-.14v.54Zm-.49-1.02h.53c.29,0,.49.03.62.08.13.05.23.14.3.26s.11.26.11.42c0,.18-.05.33-.14.45-.1.12-.22.2-.39.25-.1.03-.27.04-.53.04v1.11h-.49v-2.61h-.01Zm-1.83.42c-.24,0-.44.08-.61.25-.16.17-.25.38-.25.64,0,.29.1.52.31.68.16.13.34.2.55.2.23,0,.43-.09.6-.26s.25-.38.25-.63-.08-.46-.25-.63c-.17-.17-.37-.26-.61-.26l.01.01Zm0-.49c.37,0,.69.13.95.4.27.27.4.59.4.98s-.13.7-.39.97c-.26.26-.58.4-.95.4s-.72-.14-.98-.41-.39-.59-.39-.96c0-.25.06-.48.18-.69s.29-.37.5-.5c.21-.12.44-.18.68-.18v-.01001Zm-2.81,1.09h.16c.16,0,.27-.02.33-.06s.09-.11.09-.21c0-.06-.02-.11-.04-.15-.03-.04-.07-.07-.12-.09s-.14-.03-.28-.03h-.14s0,.54,0,.54Zm-.49-1.02h.53c.29,0,.49.03.62.08.12.05.22.14.3.26.07.12.11.26.11.42,0,.17-.04.32-.12.43-.08.12-.21.2-.37.26l.62,1.16h-.54l-.59-1.11h-.05v1.11h-.49v-2.61h-.02Zm-2.38,0h.5v1.69c0,.15.01.25.04.31.03.06.07.11.13.14.06.04.13.05.21.05.09,0,.16-.02.23-.06.06-.04.11-.09.13-.15s.04-.18.04-.36v-1.63h.5v1.56c0,.26-.01.44-.04.55-.03.1-.09.2-.17.29-.08.09-.18.16-.29.21s-.23.07-.38.07c-.19,0-.35-.04-.49-.13-.14-.09-.24-.2-.3-.33-.06-.13-.09-.35-.09-.66v-1.56l-.02.01001Zm-1.87,0h1.42v.49h-.93v.47h.93v.48h-.93v.69h.93v.49h-1.42v-2.62Z"/>
    </g>
  </g>
  <g id="_Слой_2" data-name="Слой 2">
    <g class="cls-16">
      <g>
        <polygon class="cls-14" points="13.52489 233.94223 113.78488 233.94223 102.27489 244.95222 101.76489 246.01224 25.58489 246.01224 25.06489 244.96223 13.52489 233.94223"/>
        <g class="cls-12">
          <rect class="cls-4" x="13.52489" y="233.94221" width="100.26001" height="12.07001"/>
        </g>
      </g>
      <path class="cls-1" d="m104.08391,12.29853c-.00293-.22296.00385-.44836.021-.67633l-80.95001-.08997c.02002,6.82001-9.72998,12.07001-9.62,17.14001v205.29999h100.25V28.67225c-.13562-4.88245-9.60883-9.46448-9.70099-16.37372Z"/>
      <polygon class="cls-10" points="104.08489 9.33223 22.92491 9.33223 22.92491 11.53224 23.15489 11.53224 104.08489 11.53224 104.08489 9.33223"/>
    </g>
  </g>
</svg>