<?xml version="1.0" encoding="UTF-8"?>
<svg xmlns="http://www.w3.org/2000/svg" xmlns:xlink="http://www.w3.org/1999/xlink" viewBox="0 0 127.14894 255.31915">
  <defs>
    <style>
      .cls-1 {
        fill: url(#_Безымянный_градиент_355-2);
      }

      .cls-1, .cls-2, .cls-3, .cls-4, .cls-5, .cls-6, .cls-7, .cls-8, .cls-9, .cls-10, .cls-11 {
        stroke-width: 0px;
      }

      .cls-2, .cls-9 {
        fill: #2a2d0e;
      }

      .cls-3 {
        fill: url(#_Безымянный_градиент_361);
      }

      .cls-4 {
        fill: url(#_Безымянный_градиент);
      }

      .cls-12 {
        clip-path: url(#clippath-2);
      }

      .cls-5, .cls-6 {
        fill: #f5e8b3;
      }

      .cls-6, .cls-9 {
        fill-rule: evenodd;
      }

      .cls-7 {
        fill: none;
      }

      .cls-13 {
        clip-path: url(#clippath-1);
      }

      .cls-8, .cls-14 {
        fill: url(#_Безымянный_градиент_355);
      }

      .cls-15 {
        clip-path: url(#clippath);
      }

      .cls-10 {
        fill: url(#_Безымянный_градиент_361-2);
      }

      .cls-11 {
        fill: url(#_Безымянный_градиент-2);
      }

      .cls-16 {
        opacity: .56;
      }
    </style>
    <clipPath id="clippath">
      <rect class="cls-7" x="22.84993" y="9.3284" width="81.16001" height="2.21"/>
    </clipPath>
    <linearGradient id="_Безымянный_градиент" data-name="Безымянный градиент" x1="22.84993" y1="239.43894" x2="104.00993" y2="239.43894" gradientTransform="translate(0 249.87234) scale(1 -1)" gradientUnits="userSpaceOnUse">
      <stop offset="0" stop-color="#b1b0ae"/>
      <stop offset="1" stop-color="#fdfdfd"/>
    </linearGradient>
    <clipPath id="clippath-1">
      <polygon class="cls-7" points="13.44993 233.93839 113.70993 233.93839 102.19993 244.9484 101.68993 246.0084 25.50993 246.0084 24.98993 244.9584 13.44993 233.93839"/>
    </clipPath>
    <linearGradient id="_Безымянный_градиент-2" data-name="Безымянный градиент" x1="13.44993" y1="9.89894" x2="113.70993" y2="9.89894" xlink:href="#_Безымянный_градиент"/>
    <linearGradient id="_Безымянный_градиент_355" data-name="Безымянный градиент 355" x1="13.4425" y1="239.95575" x2="113.70249" y2="239.95575" gradientUnits="userSpaceOnUse">
      <stop offset=".01397" stop-color="#d29d46" stop-opacity=".7"/>
      <stop offset=".01412" stop-color="#d19c45" stop-opacity=".70158"/>
      <stop offset=".02274" stop-color="#a07a3a" stop-opacity=".78139"/>
      <stop offset=".03232" stop-color="#785d30" stop-opacity=".849"/>
      <stop offset=".04334" stop-color="#564528" stop-opacity=".90496"/>
      <stop offset=".05621" stop-color="#3c3322" stop-opacity=".94791"/>
      <stop offset=".07213" stop-color="#2a261e" stop-opacity=".97797"/>
      <stop offset=".09445" stop-color="#1f1f1b" stop-opacity=".99524"/>
      <stop offset=".15643" stop-color="#1d1d1b"/>
      <stop offset=".25621" stop-color="#4a3b1f" stop-opacity=".89499"/>
      <stop offset=".47693" stop-color="#a7792a" stop-opacity=".68246"/>
      <stop offset=".58603" stop-color="#cc912e" stop-opacity=".6"/>
      <stop offset=".65892" stop-color="#8d6727" stop-opacity=".74392"/>
      <stop offset=".74392" stop-color="#503e20" stop-opacity=".88337"/>
      <stop offset=".81507" stop-color="#2a251c" stop-opacity=".96907"/>
      <stop offset=".86313" stop-color="#1d1d1b"/>
      <stop offset=".90819" stop-color="#1f1e1b" stop-opacity=".99983"/>
      <stop offset=".92926" stop-color="#26231d" stop-opacity=".99926"/>
      <stop offset=".94534" stop-color="#332c20" stop-opacity=".99826"/>
      <stop offset=".95889" stop-color="#463925" stop-opacity=".99685"/>
      <stop offset=".97084" stop-color="#5e492b" stop-opacity=".99501"/>
      <stop offset=".98169" stop-color="#7c5d32" stop-opacity=".99274"/>
      <stop offset=".99146" stop-color="#9e743b" stop-opacity=".99011"/>
      <stop offset="1" stop-color="#c48e45" stop-opacity=".98727"/>
    </linearGradient>
    <clipPath id="clippath-2">
      <polygon class="cls-8" points="13.4425 233.92075 113.70249 233.92075 102.1925 244.93075 101.6825 245.99076 25.5025 245.99076 24.9825 244.94076 13.4425 233.92075"/>
    </clipPath>
    <linearGradient id="_Безымянный_градиент_361" data-name="Безымянный градиент 361" x1="13.4425" y1="239.95574" x2="113.70251" y2="239.95574" gradientUnits="userSpaceOnUse">
      <stop offset=".01397" stop-color="#d2b782" stop-opacity=".7"/>
      <stop offset=".01412" stop-color="#d1b681" stop-opacity=".70158"/>
      <stop offset=".02274" stop-color="#a08d66" stop-opacity=".78139"/>
      <stop offset=".03232" stop-color="#786a4e" stop-opacity=".849"/>
      <stop offset=".04334" stop-color="#564d3b" stop-opacity=".90496"/>
      <stop offset=".05621" stop-color="#3c372c" stop-opacity=".94791"/>
      <stop offset=".07213" stop-color="#2a2822" stop-opacity=".97797"/>
      <stop offset=".09445" stop-color="#1f1f1c" stop-opacity=".99524"/>
      <stop offset=".15643" stop-color="#1d1d1b"/>
      <stop offset=".25621" stop-color="#4a463c" stop-opacity=".89499"/>
      <stop offset=".47693" stop-color="#a79b81" stop-opacity=".68246"/>
      <stop offset=".58603" stop-color="#ccbc9c" stop-opacity=".6"/>
      <stop offset=".65892" stop-color="#8d826d" stop-opacity=".74392"/>
      <stop offset=".74392" stop-color="#504b40" stop-opacity=".88337"/>
      <stop offset=".81507" stop-color="#2a2924" stop-opacity=".96907"/>
      <stop offset=".86313" stop-color="#1d1d1b"/>
      <stop offset=".90819" stop-color="#1f1f1c" stop-opacity=".99983"/>
      <stop offset=".92926" stop-color="#262623" stop-opacity=".99926"/>
      <stop offset=".94534" stop-color="#33322f" stop-opacity=".99826"/>
      <stop offset=".95889" stop-color="#46443f" stop-opacity=".99685"/>
      <stop offset=".97084" stop-color="#5e5b54" stop-opacity=".99501"/>
      <stop offset=".98169" stop-color="#7c776e" stop-opacity=".99274"/>
      <stop offset=".99146" stop-color="#9e988d" stop-opacity=".99011"/>
      <stop offset="1" stop-color="#c4bcae" stop-opacity=".98727"/>
    </linearGradient>
    <linearGradient id="_Безымянный_градиент_355-2" data-name="Безымянный градиент 355" x1="13.45158" y1="122.73076" x2="113.70251" y2="122.73076" xlink:href="#_Безымянный_градиент_355"/>
    <linearGradient id="_Безымянный_градиент_361-2" data-name="Безымянный градиент 361" x1="22.84252" y1="10.41075" x2="104.00249" y2="10.41075" xlink:href="#_Безымянный_градиент_361"/>
  </defs>
  <g id="_Слой_3" data-name="Слой 3">
    <g>
      <path class="cls-6" d="m13.44993,28.6684c-.11-5.07,9.64-10.32,9.62-17.14l80.96.09c-.55,7.29,9.54,12.01,9.68,17.05v205.30001H13.44993V28.6684Z"/>
      <g class="cls-15">
        <rect class="cls-4" x="22.84993" y="9.3284" width="81.16001" height="2.21"/>
      </g>
      <g class="cls-13">
        <rect class="cls-11" x="13.44993" y="233.93839" width="100.26" height="12.07001"/>
      </g>
      <path class="cls-6" d="m113.70993,169.8384V28.6684c-.14-5.04-10.23-9.75-9.68-17.05l-80.96-.09c.02,6.82-9.73,12.07-9.62,17.14v141.17h100.26Z"/>
      <path class="cls-9" d="m81.55993,162.9584l-18.02-7.09-17.43,7.39-7.39,17.8,6.61,17.62,18.3,7.82001,18.45-7.59,7.28-17.78-7.8-18.17v-.00002Zm-39.81,18.19c.49-28.99001,43.61-28.98,44.1,0-.49,28.99001-43.61,28.98-44.1,0Z"/>
      <rect class="cls-2" x="46.51921" y="187.01655" width="1.42" height="1.42" transform="translate(-146.10307 178.00614) rotate(-73)"/>
      <polygon class="cls-9" points="50.23993 188.5984 46.64993 190.54839 47.20993 191.5884 48.67993 190.79839 48.82993 191.0684 47.71993 192.5284 48.45993 193.40839 49.70993 191.71839 51.88993 191.63841 51.31993 190.5884 49.47993 190.7084 49.32993 190.43839 50.80993 189.63841 50.23993 188.5984"/>
      <path class="cls-9" d="m51.82993,193.2384c.72-.8,1.68.2.84.88-.43.33-1.31,1.59-1.85.92-.65-.57001.65-1.39,1.01-1.8Zm.29-1.3c-2.45.23-3.5,3.75-.6,4.3,2.43-.24001,3.52-3.75.6-4.3Z"/>
      <path class="cls-9" d="m52.49993,191.4884c0,.59.93.59.92,0,0-.59-.93-.59-.92,0"/>
      <path class="cls-9" d="m54.35993,192.57839c-.59,0-.59.92999,0,.92.59,0,.59-.92999,0-.92"/>
      <polygon class="cls-9" points="54.58993 194.0384 52.60993 197.6184 53.51993 198.1284 54.68993 196.0084 54.73993 196.0384 54.75993 198.8184 55.73993 199.35839 57.72993 195.7784 56.80993 195.2784 55.61993 197.4284 55.56993 197.3984 55.65993 194.63841 54.58993 194.0384"/>
      <rect class="cls-2" x="56.28224" y="197.55859" width="4.09" height="1.17999" transform="translate(-147.91208 186.73493) rotate(-70.43)"/>
      <path class="cls-9" d="m60.62993,197.1184c-1.94,1.85001-.33,4.92999,2.39,3.84l.32-2.10001-1.42-.21001-.16.73.5.08-.14.89c-1.21.3-1.24-.98-.99-1.85001.09-1.07001,1.32-.91,2.01-.52l.26-.66c-.71-.44-2.1-.67999-2.77-.19"/>
      <path class="cls-9" d="m65.56993,196.88841c-1.98-.07001-2.06,2.00999-.49,2.5,1.54.64-.1,1.39999-.97.89l.03.73c1.49.67999,3.8-.64,2.29-2.11-1.46-.60001-1.89-1.53.11-1.22l.08-.67999c-.32-.09-.67-.12-1.05-.11"/>
      <path class="cls-9" d="m68.92992,198.74839c1.37-.55,1.7,1.11.2,1.09l-.2-1.09Zm-.11-.61l-.19-1.05c1.25-.53,1.52,1.10001.19,1.05Zm-1.43-1.48l.74,4.02c.66-.19,2.51-.25999,2.92-.85001.49-.56.15-1.82001-.69-1.78999v-.03999c1.71-2.12-1.76-1.75999-2.97-1.34v-.00002Z"/>
      <polygon class="cls-9" points="70.80993 195.5684 72.46993 199.3084 75.01993 198.1784 74.72993 197.5184 73.24992 198.1784 72.84993 197.2784 74.02993 196.7584 73.74992 196.0984 72.55993 196.6284 72.16993 195.74839 73.58993 195.1184 73.29993 194.4584 70.80993 195.5684"/>
      <path class="cls-9" d="m76.05993,194.57839l-.37.27-.8-1.11c.58-.85001,1.78.21001,1.17.84m-2.53-.7l2.39,3.32001.96-.69-.79-1.09.39-.28,1.22.78.95-.67999-.03-.07001-1.51-.89c.4-2.89-2.34-1.63-3.6-.39l.02-.01001Z"/>
      <path class="cls-9" d="m77.99992,193.2084c1.31,1.25,3.02-.33,3.27-1.73l-1.62-1.38-.93,1.09.53.52.33-.38.69.59c-.39,1.19-1.49.53999-2.09-.13-.87-.64-.07-1.60001.62-1.98l-.42-.57001c-1.73.85001-2.24,2.96001-.36,3.98l-.02-.00998Z"/>
      <rect class="cls-2" x="79.48353" y="187.50087" width="1.42" height="1.42" transform="translate(-51.55078 31.69323) rotate(-17.01)"/>
      <polygon class="cls-9" points="78.82993 185.8384 82.83993 186.5584 83.04993 185.38841 81.38992 185.0984 81.62993 183.7784 83.27993 184.07839 83.48993 182.9184 79.46993 182.1984 79.26993 183.35839 80.82993 183.63841 80.59993 184.9584 79.02993 184.6784 78.82993 185.8384"/>
      <polygon class="cls-9" points="79.47993 180.5284 82.83993 180.29839 82.90993 181.3084 83.62993 181.3084 83.39993 178.0284 82.68993 178.07839 82.75993 179.10839 79.39993 179.3484 79.47993 180.5284"/>
      <path class="cls-9" d="m80.71993,175.5884l-.15-.42999,1.29-.46001c.65.78999-.7,1.64-1.13.89m-1.28,2.31l1.27-1.2c2.66,1.17999,2.21-1.78999,1.38-3.33l-3.85,1.36.39,1.11,1.27-.45.16.46001-1.09.95.39,1.10001h.07l.01-.00002Z"/>
      <path class="cls-9" d="m79.81992,170.74839l-1.35,1.38-.47-.75,1.8-.67.03.03999h-.01Zm-1.74,3.45l2.84-3.14-.89-1.41-4.02,1.25999.62.98.7-.25999.63.99001-.53.53999.65,1.03v.01001Z"/>
      <polygon class="cls-9" points="75.66993 170.4484 78.31992 167.3484 77.52993 166.6684 75.92992 168.5384 75.88992 168.49839 76.52993 165.8184 75.59993 165.0284 72.94993 168.1284 73.73993 168.79839 75.29993 166.96839 75.33993 166.99839 74.81992 169.71839 75.66993 170.4484"/>
      <path class="cls-9" d="m47.93993,184.4884l-1.09.2c-.55-1.36,1.12-1.69,1.09-.2Zm-1.69.3l-1.04.19c-.53-1.25,1.1-1.50999,1.04-.19Zm2.53.69c-.18-.66-.25-2.50999-.84-2.92-.55-.49001-1.82-.16-1.79.67999h-.04c-2.11-1.71001-1.77,1.75-1.35,2.96001l4.01-.72h.01Z"/>
      <path class="cls-9" d="m46.08993,179.35839c.2.14999.08.59.08.81l-1.36-.11c-.16-.85001.69-1.07001,1.28-.7m-2.04,1.82001l4.07.34.1-1.17999-1.34-.11.04-.48,1.38-.42.1-1.17-.07-.02-1.65.57001c-1.94-2.17-2.75.73-2.62,2.48l-.01-.01001Z"/>
      <path class="cls-9" d="m47.50993,175.96839l-1.67-.95v-.05l1.94.14999-.27.85001Zm-2.64-.46001l3.55,2.28.36-1.10001-.65-.37.36-1.12.75.06.38-1.16-4.23-.17-.51,1.58h-.01Z"/>
      <path class="cls-9" d="m48.60993,172.8984c1.21,1.03999,2.81-.66,2.67-1.92999-.03-.94-2.28-1.92-2.9-2.44l-.65.99001c.37.46001,3.16,1.48,2.51,2.35001-.54.94-2.59-1.22-3.16-1.38l-.65.99001,2.17,1.42999.01001-.01001Z"/>
      <polygon class="cls-9" points="49.75993 166.9884 52.37993 170.1184 54.50993 168.32839 54.04993 167.7884 52.80993 168.8184 52.18993 168.0684 53.17993 167.2384 52.71993 166.6984 51.72993 167.5284 51.10993 166.7884 52.30993 165.7884 51.84993 165.24839 49.75993 166.9884"/>
      <path class="cls-9" d="m55.17993,165.4584l-.61-1.22c.98-.86,1.88.95.61,1.22Zm-1.97-1.28999l1.83,3.64999,1.06-.53-.6-1.2.43-.22,1.08.96001,1.04-.52-.02-.07001-1.35-1.11c.84-2.78999-2.05-1.97-3.48-.95l.00999-.00999Z"/>
      <polygon class="cls-9" points="57.72993 162.0884 58.68993 166.04839 61.38993 165.3984 61.21993 164.7084 59.64993 165.0884 59.41993 164.13841 60.67993 163.82839 60.50993 163.13841 59.24993 163.4484 59.02993 162.5084 60.53993 162.1484 60.37993 161.4484 57.72993 162.0884"/>
      <rect class="cls-2" x="61.93514" y="161.2222" width="1.18" height="4.08" transform="translate(-13.30471 5.73832) rotate(-4.75)"/>
      <path class="cls-9" d="m66.81992,163.79839l.3-1.64999c1.39-.13.95,2.27-.3,1.64999Zm-.74-2.52l-.73,4.00999,1.16.21001.19-1.03999c1.75.81,3.36-1.37,1.84-2.57001-.5-.37-1.86-.47-2.46-.61Z"/>
      <path class="cls-9" d="m70.87993,165.2784l.52-1.03c.4-.99001,1.64-.38,1.08.53999l-.52,1.03999c-.41,1.00999-1.64.38-1.08-.55m-1.03-.64999c-1.17,2.60001,3.2,3.64,3.64.83,1.18-2.59-3.2-3.62-3.64-.83Z"/>
      <path class="cls-9" d="m65.91993,172.4484l3.59-2.11c.08.05.16.09.24.14l-3.71,2.17999-.12-.21001v.00002Zm-.22-.38l3.36-1.97c.09.03999.17.09.26.14l-3.49,2.05-.12-.22h-.01Zm6.46,11.27l3.44-2.03c0,.10001,0,.2-.01.3l-3.31,1.94-.12-.22v.00999Zm-.22-.38l3.67-2.19v.31l-3.55,2.09-.12-.21001v.00002Zm1.94,3.39l.6-.36c-.12.25-.24.5-.38.75l-.22-.39Zm-.2-.36l1.08-.64999c-.05.11-.09.23-.14.34l-.83.5-.11-.19Zm-.22-.39l1.54-.91c-.04.13-.09.25999-.14.39l-1.28.75-.13-.22.00999-.00999Zm-.22-.39l1.95-1.14c-.03.11-.06.23-.1.34l-1.72,1.02-.13-.22Zm-.22-.38l2.31-1.37c-.03.12-.05.23-.08.35001l-2.11,1.24001-.12-.22v-.00002Zm-.21-.37l2.64-1.55c-.02.10001-.04.2-.05.3l-2.46,1.46001-.12-.21001h-.00999Zm-.21-.36l2.92-1.72c-.01.09-.02.19-.04.28l-2.77,1.63-.11-.19Zm-.22-.39l3.2-1.88c0,.10001-.02.21001-.03.31l-3.04,1.78999-.13-.22v.00002Zm-8.77,9.31v-2.75999h.29v2.75999h-.29Zm1.37-4.22v-1.45h.27v1.39999c-.1,0-.19.00999-.27.05Zm-.44,4.17v-2.72h.25v2.69c-.08,0-.16.02-.25.03Zm-.26-2.72v-.98c.16-.12.03.95.07.98h0v2.73c-.09,0-.17.00999-.26.02v-2.75h.19Zm-.19-1.47v-1.42999h.27v1.41s-.09.02-.13.03999v-.03h-.14v.00999Zm-.47-1.42999h.27v1.42999h-.28v-1.42999h.01Zm1.82,5.50999v-2.60001h.31v2.55c-.1.02-.21.03999-.31.06v-.00999Zm-.42-3.52v-.08c.15-.10001.03.95.07.99001h.16v2.63c-.09.00999-.18.03-.27.03999v-2.67h.04v-.91Zm-.19-.3c.81-.67.88.53999.81,1.09h-.44c-.05-.19.18-1.28999-.31-.92999.02.07001,0,.84,0,.92999h-.44c-.04-.17.17-1.32001-.31-.92v.92h-.44v-1.24001h.38v.14h.01c.15-.21001.59-.25.72,0l.02.01001Zm-.29-1.69h.24v1.47c-.07-.03999-.15-.07001-.24-.07001v-1.39999Zm1.86,5.31v-2.39c.05-.00999.1-.03.14-.05v.03999h.11v2.34c-.08.02-.17.03999-.25.07001v-.00999Zm-.46-2.45c.08.05.17.07001.27.07001v2.42c-.09.02-.18.03999-.27.06,0,0,0-2.55,0-2.55Zm1.35,2.19v-2.14999h.29v2.05c-.09.03-.19.07001-.29.10001v-.00002Zm-.45-2.14999h.26v2.21001c-.09.03-.18.05-.26.08v-2.29001Zm-.83-1.34c.94-.33,1.11.48,1,1.22h-.37l-.03-.11h-.02c-.85.64999-1.05-.94-.03-.61.05-.34-.32-.27-.55-.24001l-.02-.27.02.01001Zm-.06-.11v-1.46001h.28v1.41c-.1,0-.19.02-.28.05Zm-.5-1.46001h.31v1.82001c-.04-.19-.14-.33-.31-.39v-1.43001Zm.96,1.39999v-1.39999h.24v1.42c-.08-.00999-.16-.02-.24-.02Zm1.79,3.31v-1.81h.26v1.69c-.09.03999-.18.08-.26.12Zm-.36-1.81v-.84c.06-.02.12-.03.18-.03v2.75999c-.1.03-.18.07001-.27.10001v-1.99001h.09Zm-.54-1.36h.38v.25999h.01c.07-.16.22-.31.4-.28v.39c-.12,0-.27.02-.38.08v.8h-.44v-1.24001h.02l.01-.00999Zm0-.12v-1.42999h.28v1.42999h-.28Zm-.46-1.42999h.27v1.8c-.04-.14-.13-.27-.27-.33v-1.47Zm1.37.95v-.95h.25v.95h-.25Zm.86,3.35001v-1.39h.26v1.25c-.08.05-.17.09-.26.14Zm-.42-1.39h.22v-.28999s0,1.74001.01,1.78c-.08.03999-.15.08-.23.11v-1.60001Zm-.89-2.91h.26v1.41c-.09,0-.16.03999-.22.08v-.05h-.04v-1.44Zm2.19,3.78999v-.89999c.09.03.18.03999.27.05v.67c-.09.06-.18.12-.27.17999Zm-.88-2.24001h.45c-.08.14-.24.42999-.32.57001.08.17.27.49001.33.67h-.46c-.04-.08-.21-.45-.24-.52h-.09v.52h-.44v-1.72h.44v.98h.09c.03-.07001.19-.42.23-.5,0,0,.01,0,.00999,0Zm-.43-.60001v-.95h.24c-.02.05.03,1.66-.02,1.7v-.75h-.22Zm1.74,2.55v-.56c.08,0,.15,0,.22-.02v.42999c-.08.05-.15.11-.22.16v-.00999Zm.48-.66l.02-.46001h.03c0-.23.04-.55-.11-.74001v-1.64h.27v2.98c-.09.07001-.18.14999-.27.22v-.34l.07-.02-.00999.00002Zm-1.23-.77c.14-.98,1.4-.56,1.16.19h-.72c-.04.37.46.31.69.24001v.25c-.53.2-1.28,0-1.13-.69v.00999Zm-.12-.64v-1.42999h.25v1.52c-.35.28-.37,1,0,1.27v1.12c-.08.05-.16.10001-.24.14v-1.14h.13c-.09-.53999-.32-.92.07-1.47h-.21v-.01001Zm2.17,1.02v-2.46001h.26v2.21001c-.08.08-.17.17-.26.25Zm-.42.37v-2.83h.24v2.63c-.08.07001-.16.13-.24.2Zm1.31-1.28v-1.55h.26v1.24001c-.08.11-.17.21001-.26.31Zm-.44-1.55h.25v1.75999c-.09.09-.17.17-.25.25999v-2.02.00002Zm1.3.46001v-.46001h.31c-.1.16-.2.31-.31.46001Zm-.42.56v-1.02h.23v.73c-.08.10001-.15.2-.23.28999v.00002Zm-1.56-1.95l.77-1.17.67,1.17s-1.44,0-1.43999,0Zm-2.38,2.36v-1.42999h.25v1.42999h-.25Zm1.33-.02v-1.41h.23v1.48c-.08-.03-.15-.05-.23-.06v-.00999Zm-.44-1.41h.26v1.39999c-.09,0-.18,0-.26.03v-1.42999Zm-17.36-1.00999l.52.31-.18.31c-.12-.2-.23-.41-.34-.62Zm-.32-.7l1.05.64999-.11.19-.77-.46001c-.06-.13-.12-.25999-.17-.38v.00002Zm-.25-.64l1.52.89999-.13.22-1.24-.73c-.05-.13-.1-.25999-.15-.39999v.00999Zm-.21-.63l1.95,1.14999-.12.21001-1.71-1.02c-.04-.11-.07-.23-.11-.35001l-.01.01001Zm-.17-.62l2.34,1.39-.13.22-2.12-1.25-.09-.36Zm-.12-.56l2.68,1.58-.12.21001-2.49-1.48c-.02-.10001-.04-.2-.06-.31l-.01-.00002Zm-.09-.53l2.97,1.75-.11.19-2.82-1.66c-.02-.09-.03-.19-.05-.28999l.01.00999Zm-.07-.56l3.26,1.92-.13.22-3.1-1.83c-.01-.11-.03-.21001-.04-.32001l.01.01001Zm-.04-.53999l3.53,2.08-.12.22-3.38-1.99001c0-.10001-.02-.2-.02-.31h-.01Zm-.02-.53999l3.76,2.24001-.12.21001-3.63-2.14v-.31l-.01-.00002Zm2.39,6.33v.77c-.18-.25-.36-.50999-.52-.77h.52Zm.19,0h.22v1.3c-.07-.09-.14-.17999-.21-.27v-1.02l-.01-.00999Zm.41,0h.26v1.8c-.09-.10001-.18-.2-.26-.3v-1.5Zm.45,0h.25v2.24001c-.09-.08-.17-.16-.25-.24001v-2Zm.11-1.98l.69,1.05h-1.29s.6-1.05.6-1.05Zm.59,1.98v2.64999c-.08-.08-.17-.16-.25-.24001v-2.42h.25v.01001Zm.43,0v3.00999c-.08-.06-.16-.13-.23-.19v-2.82001h.23v.00002Zm.45,0v1.14c-.29.17-.3.73.01.92v.28999s-.17-.06-.21-.08v.53999c.07.03.14.06.22.07001v.47l.19.13v-.57001h.22v.71001c-.23-.16-.46-.32001-.69-.49001v-3.16h.26v.03001Zm.19,0h.22v1.02c-.07,0-.15.02-.22.03999v-1.06Zm.93,2.49001c.03.12.09.22.18.28999v1.39c-.08-.03999-.16-.09-.24-.14v-1.39s.05-.10001.06-.16v.01001Zm-.26.34v1.10001c-.09-.06-.18-.11-.27-.17v-.84c.1-.02.19-.05.27-.09v-.00002Zm.63.06c.09.03.18.05.29.05v1.49001c-.1-.05-.19-.10001-.29-.14999v-1.39001Zm.48.03999c.09,0,.17-.03.26-.06v1.75999c-.08-.03999-.17-.08-.26-.12v-1.59.00999Zm.45-.02h.23v1.91c-.08-.03-.16-.06-.23-.09v-1.82001Zm.43,0h.12v-.98c.2-.14999.05.94.09.98h.04v2.08c-.08-.03-.17-.06-.26-.10001v-1.98h.01Zm.45,0h.26v2.23c-.08-.03-.17-.05-.25-.08v-2.14l-.01-.00999Zm-1.32-2.91h.25v1.45c-.08-.02-.17-.03999-.25-.03999v-1.41Zm.87,0h.25v1.41s-.08.02-.12.03999v-.5h-.12v-.95h-.01Zm.44,0h.26v1.49001c-.06-.05-.15-.08-.25-.09v-1.39999l-.01-.00002Zm1.37,1.42999v-1.42999h.24v1.42999h-.24Zm.43,0v-1.42999h.28v.95h-.13c.04.27-.12,1.67999.13,1.86v2.73c-.09-.00999-.18-.03-.27-.03999v-2.59h.1v-1.47h-.11v-.01001Zm-.82,1.50999c.07,0,.13,0,.2-.02v2.46001c-.09-.02-.17-.03999-.26-.06v-2.38h.06Zm-.07-2.94h.27v2.42999s0-.95-.02-.99001h-.25v-1.43999Zm.46,5.42v-2.50999h.25v2.56c-.08-.02-.17-.03-.25-.05Zm-2.42-3.46001v.42c-.08.02-.17.05-.25.05v-.50999c.08,0,.18.03.25.05h0v-.01001Zm-1.8.36v.08c-.07.03-.15.00999-.22,0v-.21001c.07.03999.16.07001.22.12v.01001Zm.19-.77c.08,0,.17,0,.25.03v.23c-.09-.06-.17-.10001-.26-.14999v-.10001h.02l-.01-.00999Zm-.02-.41c.13,0,.25.02.37.06l-.04.27c-.76-.17-.62.24001-.06.48.57.63-.39,1.09-.94.8v-.28999c1.91.37-1.4-1.14999.68-1.32001h-.01Zm.26-1.13v1.03999c-.08-.02-.17-.03-.26-.03v-1.00999h.26Zm.36,2.06c-.04-.53999.55-.61.95-.5l-.04.25999c-.67-.25999-.63,1.00999.04.69v.25999c-.54.19-1.07-.10001-.95-.71001v.00002Zm.09-2.06v1.55c-.13.11-.21.28-.21.52-.01-.03-.03-.06-.04-.09,0-.2,0-.67999.05-.87h-.05v-1.11h.25v-.00002Zm.19,0h.29v1.39999c-.11,0-.2.02-.29.03999v-1.44.00002Zm.92,1.07001h.43v.60001h.01c.81-.62.8.62.75,1.12h-.44c-.04-.19.17-1.32001-.33-.92v.92h-.44v-1.72h.02Zm0-1.07001h.24v.95h-.24v-.95Zm1.47,1.55h.44c.05.17999-.17,1.3.31.92999v-.92999h.44v1.24001h-.38l-.02-.13h-.02c-.81.66-.83-.59-.78-1.11h.01Zm-.16-1.55h.28v1.42999h-.24c.05.34-.15,1.28.24,1.45v2.38c-.09-.03-.19-.05-.29-.08v-2.28h.02c0-.67999-.02-2.21001-.01-2.91v.01001Zm1.83,2.92c.08.02.17.03.26.02v2.66c-.08,0-.17-.02-.26-.03v-2.65001Zm.45,2.7v-2.73l.03-.00999v.03h.2v2.73c-.08,0-.15-.00999-.23-.02Zm-.61-4.55h.4c.07.13-.17,1.57001.16,1.49001v.23c-.89.39-.45-1.38-.55-1.72h-.01Zm.16-1.07001h.25v.95h-.25v-.95Zm.87,5.64999v-2.74001h.26v2.75999c-.08,0-.17,0-.26-.00999v-.00999Zm-.43-5.64999h.24v1.42999h-.21v.52h.21v.24001l-.17.25h-.07s0-2.44,0-2.44Zm.88,5.67v-2.75999h.25v2.77h-.25v-.01001Zm0-3.28l.24-.35001v.35001h-.24Zm-.46-.84h.72v.25c-.13.19-.36.52-.49.7h.52v.28h-1.03v-.27c.14-.19.34-.49001.48-.69h-.49v-.28h.28l.01.01001Zm0-.12v-1.42999h.24v1.42999h-.24Zm.44,0v-1.42999h.25v1.42999h-.25Zm-4.49-10.10001l4.78,1.34v6.39999h-2.97v-.02h-.19v.02h-4.52l-.83-1.25,3.72-6.49001.01.00002Zm2.69-9.78999c.12-.02.23-.03999.35-.06l1.21.7-.12.21001-1.44-.85001Zm1.66.47l-.97-.57001c.13-.02.27-.03.4-.03999l.69.39-.12.22Zm.87-.45l-.12-.2c.14,0,.28,0,.43.02l-.31.17999Zm1.58,2.75l3.11-1.83c.09.03999.18.09.28.13l-3.25,1.91-.13-.22-.00999.00999Zm-.21-.37l2.84-1.67c.09.03999.18.08.27.12l-2.99,1.75999-.12-.21001v.00002Zm-.2-.35001l2.55-1.5c.09.03.18.07001.27.10001l-2.71,1.59-.11-.19Zm-.22-.38l2.25-1.3c.1.03.19.06.28.09l-2.41,1.42-.12-.21001v.00002Zm-.21-.37l1.9-1.09c.09.02.19.05.28.08l-2.06,1.21001-.11-.2-.01-.00002Zm-.21-.36l1.51-.87c.1.02.19.03999.29.06l-1.69,1s-.11-.19-.11-.19Zm-.22-.38l1.06-.61c.12.02.23.03999.35.06l-1.29.75999-.12-.21001v.00002Zm-.21-.37l.57-.33c.12.00999.24.02.36.03999l-.82.48-.11-.2v.01001Zm-.75-.11l-.42-.25c.19,0,.38-.00999.57-.02l-.15.25999v.01001Zm.43,11.05l4.78-1.34,3.65,6.37-.9,1.37h-7.53v-6.39999Zm8.06,2.57001l3.86-2.3v.25999l-3.76,2.24001-.11-.19.01-.00999Zm-.22-.39l4.05-2.39c0,.10001.02.19.02.28999l-3.94,2.32001-.13-.22Zm-.22-.39l4.22-2.49001c.01.09.02.17999.03.27l-4.12,2.44-.13-.22Zm-.22-.38l4.37-2.58c.01.09.03.17999.04.25999l-4.29,2.53-.12-.22v.01001Zm-.21-.37l4.5-2.64999c.02.08.03.17.05.25l-4.43,2.61-.12-.21001Zm-.2-.36l4.61-2.72c.02.08.04.14999.05.23l-4.55,2.67999-.11-.19v.00002Zm-.22-.39l4.71-2.78c.02.09.05.17.07.25999l-4.66,2.75-.13-.22.00999-.00999Zm-.22-.38l4.8-2.83c.03.08.05.16.08.24001l-4.75,2.8-.12-.22-.01.00999Zm-.21-.37l4.87-2.87c.03.08.06.14999.08.23l-4.83,2.85001-.12-.21001Zm-.21-.36l4.93-2.91c.03.07001.06.14.08.21001l-4.9,2.89-.11-.19Zm-.22-.38l4.97-2.92999c.03.08.07.14999.1.23l-4.95,2.92-.12-.22Zm-.22-.38l5-2.95c.04.07001.07.14999.11.22l-4.99,2.94-.12-.22v.00999Zm-.21-.37l5.02-2.96001c.04.07001.08.14.11.21001l-5.01,2.95-.12-.21001v.01001Zm-.21-.36l5.02-2.96001c.04.06.07.13.11.19l-5.02,2.96001s-.09-.16-.11-.19Zm-.22-.39l5.01-2.96001c.05.07001.09.14.13.22l-5.02,2.96001-.13-.22h.00999Zm-.22-.38l4.99-2.94c.05.07001.09.14.14.21001l-5,2.95-.12-.22h-.00999Zm-.21-.37l4.95-2.92c.05.07001.1.13.14.2l-4.97,2.92999-.12-.21001v.00002Zm-.21-.36l4.9-2.89c.05.06.09.12.14.17999l-4.93,2.91-.11-.19v-.00999Zm-.22-.39l4.84-2.85001c.06.07001.11.13.17.2l-4.88,2.88-.13-.22v-.00999Zm-.22-.38l4.76-2.81c.06.06.12.13.17.19l-4.81,2.83-.12-.22v.00999Zm-.23-.39l4.66-2.75c.06.06.12.13.18.19l-4.72,2.78999-.13-.23h.00999Zm-.19-.33l4.55-2.71001c.06.05.11.11.17.16l-4.61,2.75-.11-.2Zm-.23-.39999l4.44-2.62c.06.06.13.11.19.17l-4.5,2.67999s-.13-.23-.13-.23Zm-.22-.39l4.31-2.53c.07.06.14.11.2.17l-4.38,2.59-.13-.22v-.00999Zm-.22-.39l4.15-2.44c.07.06.15.11.22.17l-4.24,2.49001s-.13-.22-.13-.22Zm-.2-.35001l3.99-2.34c.06.03999.13.09.19.14l-4.07,2.39-.11-.19Zm-.22-.38l3.8-2.23c.08.05.16.10001.23.14999l-3.91,2.3-.12-.21001v-.00999Zm-14.82,7.73l3.96,2.36-.11.19-3.85-2.3v-.25999.00999Zm.02-.48l4.16,2.46001-.13.22-4.05-2.39c0-.10001,0-.2.02-.28999v-.00002Zm.04-.49001l4.34,2.56-.13.22-4.24-2.5c0-.09.02-.17999.03-.27v-.00999Zm.06-.47l4.5,2.64999-.12.22-4.41-2.60001c.01-.09.02-.17999.04-.27l-.01.00002Zm.08-.46001l4.64,2.73-.12.21001-4.56-2.69c.01-.09.03-.17.04-.25Zm.09-.42999l4.76,2.8-.11.19-4.69-2.77c.02-.08.03-.14999.05-.23l-.01.00999Zm.11-.45l4.87,2.87-.13.22-4.8-2.83c.02-.09.04-.17.07-.25999h-.01Zm.12-.44l4.96,2.92-.12.22-4.91-2.89c.02-.08.05-.16.07-.25Zm7.08.96001l3.87-6.75999h1.58c.15.27,3.84,6.69,3.99,6.96001l-4.77,1.34-4.79-1.34.12-.2v-.00002Zm3.99-6.97l.67-1.17.67,1.17s-1.34,0-1.34,0Zm-1.85-2.37l1.66.96001-.11.19-1.84-1.09c.09-.02.19-.03999.28-.06l.01-.00002Zm-9.09,7.95l5.04,2.97-.12.21001-5-2.95c.03-.08.05-.16.08-.23v-.00002Zm.14-.39l5.1,3.00999-.11.19-5.07-2.99001c.03-.07001.05-.14.08-.21001v.00002Zm.17-.41l5.15,3.03999-.12.22-5.12-3.02c.03-.08.06-.16.1-.23l-.01-.00999Zm.18-.39999l5.19,3.06-.12.22-5.17-3.05c.03-.08.07-.14999.1-.23Zm.19-.39l5.21,3.07001-.12.21001-5.2-3.07001c.04-.07001.07-.14.11-.22v.00999Zm.2-.36l5.22,3.08-.11.19-5.22-3.08c.03-.07001.07-.13.11-.19Zm.23-.39l5.22,3.08-.13.22-5.22-3.08c.04-.07001.09-.14999.13-.22Zm.24-.37l5.2,3.07001-.12.22-5.21-3.07001c.04-.07001.09-.14.13-.21001v-.00999Zm.24-.36l5.17,3.05-.12.21001-5.19-3.06c.05-.07001.09-.13.14-.2v-.00002Zm.25-.33l5.13,3.03-.11.19-5.16-3.03999c.04-.06.09-.12.13-.17999l.01-.00002Zm.28-.35001l5.07,2.99001-.13.22-5.11-3.00999c.05-.07001.11-.13.16-.2l.01-.00002Zm.29-.34l5,2.95-.12.22-5.05-2.97c.06-.07001.11-.13.17-.2Zm.31-.34l4.91,2.89999-.13.23-4.96-2.92999c.06-.06.12-.13.18-.19v-.00999Zm.3-.3l4.81,2.86-.11.2-4.86-2.89999c.05-.05.11-.11.16-.16Zm.32-.3l4.71,2.78-.12.22-4.76-2.84c.06-.05.12-.11.17-.16Zm.33-.28999l4.59,2.7-.12.21001-4.66-2.75c.06-.05.12-.11.18-.16h.01Zm.33-.27l4.46,2.62-.1.17999-4.53-2.66c.06-.05.12-.09.18-.14l-.01.00002Zm.35-.27l4.31,2.53-.11.19-4.39-2.58c.06-.05.13-.09.19-.14Zm.37-.25999l4.14,2.42999-.11.19-4.23-2.49001c.07-.05.14-.09.2-.14v.01001Zm.35-.23l3.98,2.34-.09.16-4.06-2.39c.06-.03999.12-.07001.17-.11Zm.43-.25l3.77,2.21001-.12.21001-3.89-2.28c.08-.05.16-.10001.24-.14v-.00002Zm.44-.24001l3.54,2.08-.12.21001-3.67-2.16c.08-.05.17-.09.25-.13Zm.48-.23l3.28,1.92999-.13.22-3.43-2.00999c.09-.03999.18-.09.28-.13v-.00999Zm.49-.21001l3,1.77-.12.21001-3.16-1.86c.09-.03999.18-.08.27-.11l.01-.01001Zm.49-.19l2.71,1.60001-.11.19-2.88-1.69c.09-.03.18-.07001.27-.10001h.01Zm.51-.17l2.42,1.39999-.12.21001-2.57-1.52c.09-.03.18-.06.28-.09h-.01Zm.57-.16l2.06,1.17999-.12.21001-2.23-1.31c.1-.03.19-.05.29-.08Zm3.01-1.47c-6.04,0-11.13,4.03999-12.73,9.56h0c-4.89,22.35001,30.67,22.03,25.4-.21001h0c-1.09-3.52-3.6-6.42-6.87-8.02h0c-.39-.19-.78-.35001-1.18-.50999h0c-1.44-.53-2.99-.82001-4.61-.82001l-.00999.00002Z"/>
      <path class="cls-9" d="m60.27993,183.1984v-1.86c1.62-.38,1.6,2.28999,0,1.86m-.58-2.14c-.33,0-.64,0-.95-.02v.28999c.47.02.51.06.52.53-.2.47.52,3.53-.52,3.28999v.28999c.8-.05,1.36-.03999,2.16,0v-.28999c-.97.22-.53-1.13-.62-1.64999,3.58.37,2.65-3.23-.58-2.42999l-.01-.00999Z"/>
      <path class="cls-9" d="m65.75993,182.7284c.28.67999,1.51.77,2.01,1.22.77,1.66-2.07,1.3-1.85-.23h-.25v1.49001h.21l.08-.34c2.93,1.75,4.33-1.77.8-2.61-.76-1.44,1.82-1.44,1.69.00999h.24v-1.32001h-.22l-.05.25999c-1.13-.91-3.38-.11-2.67,1.5"/>
      <path class="cls-9" d="m63.74993,178.2884c.98-.73-.4-4.31.87-4.48v-.28999c-1.08.06-1.18.05-2.16,0v.28999c1.22-.35001.42,2.67999.64,3.19.1.60001-.08,2.00999-.88,1.23.72-.3.07-1.39999-.51-.83-.72,1.17999,1.46,1.74001,2.06.89"/>
      <path class="cls-9" d="m66.42992,189.5684c-.29.06-.06.5.17.28999v-.28s-.11-.02-.17,0"/>
      <path class="cls-9" d="m70.10992,189.3384v.12h.31c.1-.28999-.3-.5-.31-.12"/>
      <path class="cls-9" d="m58.72993,190.1484v-1.72h.44v.60001h.01c.8-.62.8.62.75,1.13h-.44c-.04-.19.17-1.32001-.33-.92v.92h-.44l.01-.01001Zm-.63-.52c-.07-.35001.16-.41.45-.3l.07-.41v.8c-.16.03-.53.19-.51-.09h-.01Zm-.56.00999c-.12-.62.4-.89.95-.72l-.04.25999c-.67-.25999-.64,1,.04.69v.25999c-.43.14-.99,0-.95-.49001v.00002Zm-.25-1.09l-.04.27c-.98-.14-.4.28.03.58.36.64999-.51.95-1.03.71001v-.28999c1.97.46001-1.74-1.5,1.05-1.25999l-.01-.01003Zm.08.78c-.13-.21001-.4-.25999-.57-.41.17-.05.37,0,.54.05l.08-.5c-.88-.48-1.96.58-.83,1.11.48.25999-.29.19-.47.06v.53999c.43.17999,1.19.19,1.32-.33.1.47.74.53,1.15.37l.02-.42999v.48h.68v-.98c.2-.14999.05.94.09.98h.68c0-.53999.18-1.82001-.77-1.46001v-.5h-.68v.52c-.51-.16-1.23-.08-1.19.59-.01-.03-.03-.06-.05-.09v.00002Z"/>
      <path class="cls-9" d="m60.19993,189.74839v-.84h.44c.05.17999-.17,1.3.31.92999v-.92999h.44v1.24001h-.38l-.02-.13h-.02c-.24.28-.82.21001-.78-.27m-.12-.95c0,.57001-.15,1.88.82,1.42999v.03999h.61v-1.47h-.68v.99001c-.16.10001-.03-.94-.07-.99001h-.68v.00002Z"/>
      <path class="cls-9" d="m66.57993,189.4284c.06-.33-.31-.27-.55-.24001l-.02-.27c.95-.33,1.11.48,1,1.22h-.37l-.03-.11h-.02c-.83.64999-1.08-.92999-.03-.61m-2.85.72v-1.24001h.38v.14h.01c.15-.21001.6-.24001.72,0,.81-.67.88.53999.81,1.09h-.44c-.05-.19.18-1.28999-.31-.92999.02.07001,0,.84,0,.92999h-.44c-.04-.17999.17-1.32001-.31-.92v.92h-.44l.02.01001Zm-1.26-.27l.48-.69h-.49v-.28h1v.25l-.49.7h.52v.28h-1.03v-.27l.01.01001Zm-.8-.06v-1.39h.44c.07.13-.17,1.57001.16,1.49001v.23c-.27.09-.63-.00999-.6-.33Zm-.12-1.50999c.08.53999-.36,2.42999.8,1.92999v.03h1.94v-.99001c.16-.12.03.95.07.99001h.68v-.99001c.15-.10001.03.95.07.99001h.68v-.25c.11.3.52.35001.77.21001v.03999h.59c.11-.95-.06-1.84-1.25-1.42999l.04.5c.16-.03.32-.06.49-.03999-.28-.02-.56.06-.64.31.12-.58-.36-1.09-.91-.71001-.16-.14999-.44-.16-.64-.06v-.03h-.62v.96001h-.41l.38-.55v-.41h-1.24v.52h.38l-.34.49001h-.15v-1.49001h-.68l-.00999-.02Z"/>
      <path class="cls-9" d="m66.57993,189.4284c.06-.33-.31-.27-.55-.24001l-.02-.27c.95-.33,1.11.48,1,1.22h-.37l-.03-.11h-.02c-.83.64999-1.08-.92999-.03-.61m-2.85.72v-1.24001h.38v.14h.01c.15-.21001.6-.24001.72,0,.81-.67.88.53999.81,1.09h-.44c-.05-.19.18-1.28999-.31-.92999.02.07001,0,.84,0,.92999h-.44c-.04-.17999.17-1.32001-.31-.92v.92h-.44l.02.01001Zm-1.27-1.24001h1v.25l-.49.7h.52v.28h-1.03v-.27l.48-.69h-.49v-.28l.01.01001Zm-.35-.48c.07.13-.17,1.57001.16,1.49001v.23c-.94.35001-.5-1.32001-.6-1.72h.44Zm.23.37v.52h.38l-.34.49001h-.15v-1.49001h-.68c.08.53999-.36,2.42999.8,1.92999v.03h1.94v-.99001c.16-.12.03.95.07.99001h.68v-.99001c.15-.10001.03.95.07.99001h.68v-.25c.11.3.52.35001.77.21001v.03999h.59c.11-.95-.06-1.84-1.25-1.42999l.04.5c.16-.03.32-.06.49-.03999-.28-.02-.56.06-.64.31.12-.58-.36-1.09-.91-.71001-.16-.14999-.44-.16-.64-.06v-.03h-.62v.96001h-.41l.38-.55v-.41h-1.24l-.00999-.02Z"/>
      <path class="cls-9" d="m68.31992,190.1484v-1.72h.44v.98h.09l.23-.5h.46l-.32.57001s.35.64.33.67h-.46l-.24-.52h-.09v.52h-.44001Zm-1.03-1.24001h.4v.25999h.01c.1-.2.22-.3.4-.28v.39c-.11,0-.28.02-.38.08v.8h-.44v-1.24001l.00999-.00999Zm-.12-.12v1.47h.68v-.84c.11-.03999.24-.03.35-.03v.87h.68v-.28999l.13.28999h.66c.07-.14-.26-.66-.31-.78l.38-.69h-.74l-.12.25999v-.75h-.68v.47c-.13-.02-.29-.00999-.39.07001v-.05h-.64Z"/>
      <path class="cls-9" d="m70.23993,189.74839h.56c-.18.03999-.39.11-.56,0m-.43-.72c.46-.36,1.18-.03999,1.01.60001h-.72c-.03.37.43.31.69.24001v.25c-.77.35001-1.5-.41-.98-1.10001v.00999Zm-.08-.09c-.65.82001.29,1.72,1.17,1.27l.02-.46001h.03c.2-.77-.59-1.3-1.22-.8v-.00999Z"/>
      <path class="cls-9" d="m66.57993,189.88841v-.28c-.41-.16-.37.52,0,.28"/>
      <path class="cls-9" d="m70.08993,189.3084v.12h.31c.1-.28999-.3-.5-.31-.12"/>
      <path class="cls-9" d="m57.26993,189.3984c-.43-.28999-1.01-.72-.03-.58l.04-.27c-2.78-.23.92,1.73-1.05,1.25999v.28999c.53.24001,1.39-.06,1.03-.71001"/>
      <path class="cls-9" d="m58.11993,188.8784c-1.05,0-.63,1.72.35,1.25v-.25999c-.67.31-.7-.95-.03-.69l.04-.25999c-.11-.03-.24-.03999-.37-.03999"/>
      <path class="cls-9" d="m58.72993,188.4284v1.72h.44v-.92c.5-.41.29.73.33.92h.44c.05-.50999.05-1.75-.75-1.12h-.01v-.60001h-.45Z"/>
      <path class="cls-9" d="m60.19993,188.9184c-.06.53-.03,1.75999.78,1.10001h.02l.02.13h.38v-1.24001h-.44v.92999c-.48.37-.26-.75-.31-.92999h-.44l-.01.00999Z"/>
      <path class="cls-9" d="m61.66993,188.4284c.1.41-.35,2.07001.58,1.72v-.23c-.31.09-.08-1.37-.14-1.49001h-.44Z"/>
      <polygon class="cls-9" points="62.45993 188.9184 62.45993 189.1984 62.94993 189.1984 62.46993 189.88841 62.46993 190.1484 63.49993 190.1484 63.49993 189.8684 62.96993 189.8684 63.45993 189.1684 63.45993 188.9184 62.45993 188.9184"/>
      <path class="cls-9" d="m63.72993,188.9184v1.24001h.44v-.92c.48-.41.26.74001.31.92h.44v-.92999c.5-.36.26.75.31.92999h.44c.07-.55,0-1.75999-.81-1.09-.13-.25-.58-.22-.72,0h-.01v-.14h-.38l-.02-.01001Z"/>
      <path class="cls-9" d="m66.57993,189.60839v.28c-.37.24001-.41-.44,0-.28m-.25-.44c.21,0,.26.08.25.25999-1.05-.33-.8,1.25999.03.60001h.02l.03.12h.37c.1-.75-.06-1.55-1-1.22l.02.27c.1-.02.2-.03.3-.03h-.02Z"/>
      <path class="cls-9" d="m67.28992,188.9184v1.24001h.44v-.8c.1-.06.26-.08.38-.08v-.39c-.17-.02-.3.08-.4.28999h-.01v-.25999h-.41Z"/>
      <path class="cls-9" d="m68.31992,188.4284v1.72h.44v-.52h.09l.24.52h.46s-.33-.64-.33-.67l.32-.57001h-.46l-.23.5h-.09v-.98s-.44,0-.43999,0Z"/>
      <path class="cls-9" d="m70.08993,189.4284c-.09-.42.4-.42.31,0h-.31Zm-.29-.41c-.52.69.22,1.44.97,1.10001v-.25c-.25.07001-.7.12-.68-.24001h.72c.16-.64999-.55-.96001-1.01-.60001v-.00999Z"/>
      <path class="cls-2" d="m26.74993,223.9584l-.41.39c-2.52-2.07001-2.51,3.3,0,1.23l.4.42c-3.89,2.85001-3.77-4.94.01-2.03999m-4.75-.53999h.59v2.53999h.87v.56h-1.45v-3.10001l-.01.00002Zm-1.94.82001l-.42,1.07001h.84l-.42-1.07001Zm-.3-.82001h.59l1.19,3.10001h-.61l-.24-.64h-1.27l-.25.64h-.61l1.2-3.10001Zm7.62-3.14c-.46,0-.46.72,0,.71001.46,0,.46-.72,0-.71001Zm0-.38c.96-.02.96,1.5,0,1.48-.96.02-.96-1.5,0-1.48Zm-2.05-1.39999c-.46,0-.46.72,0,.71001.46.00999.46-.72,0-.71001Zm2.02-.44h.43l-2.45,3.45h-.43l2.1-2.96001c-.34.06-.64.08-.97.05.28,2.2-2.85.11-.72-.48.67.10001,1.42.27,2.04-.06Zm-4.54.14h1.45v.53999h-1.01l-.13.57001c2.72-.05,0,3.78999-.93,1.22h.62c.93,1.21001,1.32-1.42.1-.5l-.48-.11.37-1.72h.01Zm-1.36,2.52l.41.21001-.52.89-.29-.14.39-.96001h.01Zm-1.54-.60001v-1.03999l-.71,1.03999h.71Zm0-2h.59v2h.28v.53999h-.28v.63h-.58v-.63h-1.35v-.53999l1.35-2h-.01Z"/>
      <path class="cls-2" d="m100.31992,217.8984h1.49v.56h-1.04l-.13.58c2.79-.05,0,3.89-.96,1.25h.64c.96,1.25,1.36-1.46001.11-.52l-.49-.11.38-1.77v.01001Zm6.44,5.37h.6v2.60001h.89v.58h-1.49v-3.18001Zm-2.23.50999c-1.37-.03-1.35,2.2.01,2.16,1.35.02,1.34-2.19-.01-2.16Zm0-.59c2.13-.03999,2.15,3.39,0,3.34-2.17.05-2.16-3.38,0-3.34Zm-4.84.08h.62l.8,2.25999.82-2.25999h.62l-1.15,3.17999h-.58l-1.12-3.17999h-.01Zm7.95-5.37h.6v2.60001h.89v.58h-1.49v-3.18001Zm-3.68,0h.59l.74,2.22.74-2.22h.59l.53,3.17999h-.58l-.34-2.00999-.67,2.00999h-.53l-.67-2.00999-.35,2.00999h-.59l.55-3.17999h-.01Zm-6.13,0h1.49v.56h-1.04l-.13.58c2.79-.05,0,3.89-.96,1.25h.64c.96,1.25,1.36-1.46001.11-.52l-.49-.11.38-1.77v.01001Zm-2.38.78h-.58c.18-1.75999,3.02-.39,1.45.64999,2.07,1.06-1.45,3.03999-1.58.78999h.6c.41,1.38,1.8-.53.27-.5v-.52c1.03.03.3-1.28-.16-.42l.00002.00002Z"/>
      <path class="cls-2" d="m75.75993,223.4484v1.89c1.64.36,1.63-2.19,0-1.89Zm-.57-.55c3.14-.61,3.18,3.64999,0,3v-3Zm-1.89.8l-.41,1.03h.81s-.4-1.03-.39999-1.03Zm-.29-.8h.57l1.15,3h-.59l-.23-.62h-1.23l-.24.62h-.59s1.16-3,1.16-3Zm-2.73,1.17c.86.17.85-.78,0-.62v.62Zm-.57-1.17c1.24-.33,2.65.84,1.21,1.66l.71,1.33h-.62l-.67-1.27h-.06v1.27h-.57v-3,.00999Zm-.77.49001l-.4.39999c-2.65-1.94-2.21,3.34-.03,1.13h-.87v-.53h1.51c.18,1.62-2.17,2.19-2.9.81-1-1.67999,1.47-3.25999,2.69-1.8v-.00999Zm-5.85-.49001h.54l1.29,1.97v-1.97h.57v3h-.55l-1.29-1.97v1.97h-.57v-3h.01Zm-1.21,0h.57v3h-.57v-3Zm-3.04,0h.54l1.29,1.97v-1.97h.57v3h-.55l-1.29-1.97v1.97h-.57v-3h.01Zm-1.21,0h.57v3h-.57v-3Zm-1.8,0h.57v2.45h.84v.53999h-1.41v-3,.01001Zm-1.88.8l-.41,1.03h.81l-.4-1.03Zm-.29-.8h.57l1.15,3h-.59l-.23-.62h-1.23l-.24.62h-.59l1.16-3Zm-3.5,0h.58v1.03999l.81-1.03999h.69l-1.05,1.34,1.15,1.66h-.68l-.92-1.34v1.34h-.58s0-3,0-3Zm26.13-3.48l-.31.77h.61l-.3-.77Zm-.22-.60001h.43l.87,2.25h-.45l-.18-.46001h-.92l-.18.46001h-.45l.87-2.25h.00999Zm-1.98,0h.43v2.25h-.43v-2.25Zm-.8.31l-.32.28c-.14-.2-.31-.3-.48-.19-.21.34.73.67999.78,1.00999.37.89-1.05,1.25999-1.36.41l.36-.22c.14.33.56.42999.64.09-.03-.28999-.71-.64999-.78-.85001-.47-.77.74-1.24001,1.16-.53v.00002Zm-2.01,0l-.32.28c-.14-.2-.31-.3-.48-.19-.21.34.73.67999.78,1.00999.37.89-1.05,1.25999-1.36.41l.36-.22c.14.33.56.42999.64.09-.03-.28999-.71-.64999-.78-.85001-.47-.77.74-1.24001,1.16-.53v.00002Zm-3.59-.31h.43c-.25,2.57001.91,2.56.66,0h.43c-.09.69.36,2.34-.76,2.3-1.12.03999-.68-1.61-.76-2.3Zm-1.73.88c.65.13.64-.59,0-.46001v.46001Zm-.43-.88c.91-.27,1.98.66.91,1.25l.53,1h-.47l-.51-.95h-.04v.95h-.43v-2.25h.01Zm-3.22,0h.41l.97,1.48v-1.48h.43v2.25h-.41l-.97-1.47v1.47h-.43v-2.25Zm-1.3,0h.43v2.25h-.43v-2.25Zm-2.47,0h1.23v.42h-.8v.39999h.8v.41h-.8v.59h.8v.42h-1.23v-2.25.01001Zm-2.15.41v1.42c1.23.27,1.22-1.64,0-1.42Zm-.43-.41c2.36-.46001,2.39,2.74001,0,2.25v-2.25Zm-1.8.60001l-.3.77h.61l-.3-.77h-.01Zm-.22-.60001h.43l.87,2.25h-.44l-.18-.46001h-.92l-.18.46001h-.44l.87-2.25h-.01Zm-3.67,0h.41l.52,1.57001.53-1.57001h.41l.38,2.25h-.41l-.24-1.42-.48,1.42h-.38l-.47-1.42-.24,1.42h-.42s.39-2.25.39-2.25Z"/>
      <path class="cls-9" d="m13.44993,28.6684v141.17h26.89l3.62-8.71001,19.54-8.28999,20.17,7.94,3.89,9.06h26.14V28.6684c-.14-5.04-10.23-9.75-9.68-17.05l-80.96-.09c.02,6.82-9.73,12.07-9.62,17.14"/>
      <polygon class="cls-6" points="26.66993 138.38841 23.11993 136.4184 23.11993 110.2484 26.66993 108.2684 26.66993 127.5584 30.34993 129.60839 26.66993 131.65839 26.66993 138.38841"/>
      <polygon class="cls-6" points="30.38993 129.57839 33.93993 127.6084 33.93993 108.1084 26.58993 104.0184 23.12993 106.1484 30.38993 110.1984 30.38993 129.57839"/>
      <polygon class="cls-6" points="46.92993 127.8184 46.92993 131.8184 104.37993 102.7784 100.46993 100.7584 46.92993 127.8184"/>
      <polygon class="cls-6" points="36.21993 112.6184 36.21993 123.0184 39.88993 125.0584 43.53993 123.0284 39.76993 120.9184 39.76993 110.6484 36.21993 112.6184"/>
      <polygon class="cls-6" points="47.13993 121.0284 47.13993 110.6284 43.46993 108.58839 39.81993 110.6184 43.59993 112.7184 43.59993 122.9984 47.13993 121.0284"/>
      <polygon class="cls-6" points="62.61993 99.2284 62.61993 109.6284 66.27993 111.6784 69.93993 109.6384 66.15993 107.5384 66.15993 97.2584 62.61993 99.2284"/>
      <polygon class="cls-6" points="73.58993 111.6084 73.53992 97.2384 69.86993 95.1984 66.21993 97.2284 69.98993 99.33839 69.98993 109.6084 73.58993 111.6084"/>
      <polygon class="cls-6" points="84.68993 84.5184 84.70993 101.9284 88.37993 103.9684 92.02993 101.9384 88.25993 99.8284 88.25993 89.9184 91.92992 87.8584 88.25993 85.8184 88.26993 82.5284 84.68993 84.5184"/>
      <polygon class="cls-6" points="53.02993 118.2984 49.47993 116.3284 49.47993 101.9684 53.02993 103.9384 53.02993 118.2984"/>
      <polygon class="cls-6" points="96.88992 99.4884 93.33993 97.5184 93.35992 78.2084 96.88992 76.2384 96.88992 99.4884"/>
      <polygon class="cls-6" points="104.35992 99.2984 104.29993 84.9284 100.62993 82.8884 96.97993 84.9184 100.74992 87.0284 100.74992 97.2984 104.35992 99.2984"/>
      <polygon class="cls-6" points="79.47993 108.2484 75.92992 106.2784 75.92992 92.0184 82.75993 88.5684 82.77993 92.5584 79.47993 94.2284 79.47993 108.2484"/>
      <polygon class="cls-6" points="60.46993 118.3484 60.41993 103.9884 56.74993 101.9484 53.09993 103.9784 56.86993 106.0784 56.86993 116.3584 60.46993 118.3484"/>
      <polygon class="cls-6" points="45.17993 132.6984 45.14993 126.8184 43.75993 126.1284 42.39993 126.8084 43.78993 127.5084 43.78993 133.3984 45.17993 132.6984"/>
      <polygon class="cls-6" points="41.06993 133.3784 42.40993 134.0984 43.77993 133.40839 42.45993 132.6784 41.06993 133.3784"/>
      <polygon class="cls-6" points="41.00993 127.5084 41.02993 131.1184 42.34993 131.8484 43.73993 131.1484 42.39993 130.4284 42.38993 126.8184 41.00993 127.5084"/>
      <polygon class="cls-6" points="40.34993 135.13841 40.32993 131.5584 38.94993 130.8484 38.95993 135.8384 40.34993 135.13841"/>
      <polygon class="cls-6" points="36.15993 128.6184 36.17993 133.5584 37.49993 134.2884 38.88993 133.5884 37.54993 132.8684 37.54993 129.3184 36.15993 128.6184"/>
      <polygon class="cls-6" points="35.48993 137.5884 35.46993 133.9784 32.73993 132.60839 32.73993 131.68839 31.23993 132.43839 31.25993 133.2384 34.09993 134.6684 34.09993 138.2884 35.48993 137.5884"/>
      <polygon class="cls-6" points="31.35993 134.71839 31.37993 138.2584 32.69993 138.99839 34.08993 138.29839 32.74993 137.5684 32.74993 134.0184 31.35993 134.71839"/>
      <polygon class="cls-6" points="35.52993 132.60839 35.52993 131.6184 34.18993 130.93839 32.81993 131.6284 34.15993 132.3084 34.15993 133.3084 35.52993 132.60839"/>
      <polygon class="cls-6" points="29.95993 140.3784 29.92993 133.1684 28.54993 132.4584 28.55993 139.7384 29.95993 140.3784"/>
      <path class="cls-6" d="m53.84993,96.2584v-10.85c-1.68-.37-.52,10.68-.84,11.27l.84-.42Z"/>
      <path class="cls-6" d="m66.37993,84.7984v5.13l3.63-1.83c.23-2.56-.07-2.82-3.63-3.3"/>
      <path class="cls-6" d="m56.63993,94.7784v-9.98c-.79.1-1.48.23-2.05.37v10.7l2.05-1.09Z"/>
      <path class="cls-6" d="m67.56992,82.65839l-.62-.16-.57,2.3c-.46-.06-.93-.11-1.41-.15l.63-2.49-.56-.14.47-4.7c1.44.04,2.76.4,3.98,1.04l-1.92,4.29v.00999Z"/>
      <path class="cls-6" d="m58.29993,79.9484c.17.79-.22,1.74-.89,2.18l.63,2.53c-.47.03-.93.08-1.38.14l-.57-2.29c-2.05.03-2.22-2.6-2.62-4.03l4.2-1.08.64,2.55h-.01Z"/>
      <path class="cls-6" d="m57.62993,80.0084c-.16,3.43-3.38,1.75-3.35-1.03l2.91-.75.44,1.77v.01Z"/>
      <path class="cls-6" d="m54.27993,78.9784l2.91-.75c1.82,4.11-2.56,5.26-2.91.75m-.82-.5c.4,1.44.57,4.06,2.62,4.03l.57,2.29c.45-.07.91-.12,1.38-.14l-.63-2.53c1.64-.94.55-3.37.26-4.72l-4.2,1.08v-.01Z"/>
      <path class="cls-6" d="m66.37993,84.7984l.57-2.3.62.16,1.92-4.29c-1.22-.64-2.54-1-3.98-1.04l-.47,4.7.56.14-.63,2.49c.48.03.95.08,1.41.15m.84-2.87l-1.52-.39.33-3.65c.17.01.33.03.49.05l-.22,2.51.26.05.6-2.44c.14.04.31.09.44.13l-.61,2.44.23.08,1.05-2.26c.13.06.25.12.37.19l-1.43,3.28.00999.00999Z"/>
      <path class="cls-6" d="m60.83993,76.6284h-1.36v-.78c.36.02.78.24,1.36.2v.58Zm0,1.41h-1.33v-.78h1.33v.78Zm0,1.49c-.64.03-1.14-.22-1.33-.87h1.33v.87Zm0,.59v4.41c-1,.01-1.94.06-2.82.13v9.49l6.95-3.51v-5.98c-.85-.07-1.78-.11-2.76-.13v-4.41c3.37.1.79-4.27,2.82-5.67h-.85c-.44.57-.92,1.05-1.98.97v-.97h-1.37v.97c-.97.05-1.54-.32-1.94-.97h-.86c2.07,1.47-.67,5.65,2.8,5.67h.00999Zm1.37-.59v-.87h1.3c-.11.55-.59.93-1.3.87Zm0-1.49v-.78h1.3v.78h-1.3Zm0-1.41v-.58c.41.03,1.08-.11,1.16-.2h.1v.78h-1.26Z"/>
      <path class="cls-5" d="m79.30993,43.9984c2.31.39,2.28-2,0-1.61v1.61Zm-1.48-3.06c.88,0,2.85-.07,3.43.23,1.71.72,1.63,3.63-.26,4.12l1.85,3.48h-1.63l-1.76-3.32h-.15v3.32h-1.48s0-7.83,0-7.83Zm-5.76,0h4.28v1.46h-2.79v1.41h2.79v1.44h-2.79v2.06h2.79v1.46h-4.28s0-7.83,0-7.83Zm-8.07,0h1.41l3.37,5.15v-5.15h1.48v7.83h-1.42l-3.36-5.14v5.14h-1.48s0-7.83,0-7.83Zm-1.57,1.07l-1.11.97c-.47-1.02-2.26-1.1-1.72.08.54.66,2.48,1.94,2.78,2.78,1.27,3.12-3.67,4.39-4.74,1.43l1.26-.76c.48,1.51,2.82,1.23,2.01-.24-.96-1.09-2.96-2.14-2.9-3.55.1-2.34,3.24-2.57,4.42-.72v.01Zm-8.92-1.07h1.48v6.41h2.19v1.42h-3.67s0-7.83,0-7.83Zm-3.15,0h1.48v7.83h-1.48s0-7.83,0-7.83Zm-4.53,3.06c2.28.4,2.31-1.98,0-1.61v1.61Zm-1.48-3.06c.89,0,2.83-.07,3.43.24,2.49,1.33.9,4.89-1.95,4.28v3.32h-1.48v-7.84Z"/>
      <rect class="cls-5" x="51.32993" y="52.8884" width="24.5" height=".48"/>
      <path class="cls-5" d="m83.70993,57.2684c.75.15.74-.68,0-.54v.54Zm-.49-1.02c1.08-.29,2.31.73,1.06,1.45l.62,1.16h-.54l-.59-1.1h-.05v1.1h-.49v-2.61h-.01Zm-1.92,0h1.42v.49h-.93v.47h.93v.48h-.93v.69h.93v.49h-1.42v-2.62Zm-2.69,0h.47l1.12,1.72v-1.72h.49v2.61h-.47l-1.12-1.71v1.71h-.49v-2.61Zm-.52.36l-.37.32c-.17-.23-.36-.35-.55-.22-.24.4.84.79.91,1.17.42,1.04-1.22,1.46-1.58.48l.42-.25c.16.5.94.41.67-.08-.45-.46-1.4-1.01-.76-1.65.39-.35.94-.2,1.27.23h-.00999Zm-2.97-.36h.49v2.14h.73v.47h-1.22v-2.61Zm-1.05,0h.49v2.61h-.49v-2.61Zm-1.51,1.02c.74.15.75-.68,0-.54v.54Zm-.49-1.02c1.54-.44,2.33,1.51.49,1.5v1.1h-.49v-2.61.01Zm-2.9,0h1.42v.49h-.93v.47h.93v.48h-.93v.69h.93v.49h-1.42v-2.62Zm-1.61,0h.49v2.14h.73v.47h-1.22v-2.61Zm-2.44,0h.53l.48.94.48-.94h.53c-.41.67-.95,1.79-.77,2.61h-.5c.18-.82-.35-1.95-.77-2.61h.02Zm-1.59,0h1.44v.49h-.48v2.12h-.51v-2.12h-.46v-.49h.01Zm-.27.36l-.37.32c-.17-.23-.36-.35-.55-.22-.24.4.84.79.91,1.17.42,1.04-1.22,1.46-1.58.48l.42-.25c.16.38.65.49.74.1-.04-.33-.83-.76-.91-.98-.55-.9.86-1.44,1.35-.62h-.01Zm-5.07-.36h.47l1.12,1.72v-1.72h.49v2.61h-.47l-1.12-1.71v1.71h-.49v-2.61Zm-1.64.69l-.35.9h.71l-.35-.9h-.01Zm-.25-.69h.5l1,2.61h-.52l-.2-.54h-1.07l-.21.54h-.52l1.01-2.61h.01Zm-2.68,0h1.42v.49h-.93v.47h.93v.48h-.93v.69h.93v.49h-1.42v-2.62Zm-1.55,1.02c.74.15.75-.68,0-.54v.54Zm-.49-1.02c1.54-.44,2.33,1.51.49,1.5v1.1h-.49v-2.61.01Zm-1.83.42c-1.12-.03-1.11,1.81,0,1.77,1.11.02,1.1-1.8,0-1.77Zm0-.49c1.75-.03,1.77,2.78,0,2.74-1.78.04-1.77-2.77,0-2.74Zm-2.81,1.09c.75.15.74-.68,0-.54v.54Zm-.49-1.02c1.08-.29,2.31.73,1.06,1.45l.62,1.16h-.54l-.59-1.1h-.05v1.1h-.49v-2.61h-.01Zm-2.38,0h.5c.12.39-.33,2.22.38,2.2.74.02.27-1.78.39-2.2h.5c-.1.8.42,2.71-.88,2.68-1.3.04-.79-1.87-.89-2.68Zm-1.87,0h1.42v.49h-.93v.47h.93v.48h-.93v.69h.93v.49h-1.42v-2.62Z"/>
    </g>
  </g>
  <g id="_Слой_5" data-name="Слой 5">
    <g class="cls-16">
      <g>
        <polygon class="cls-14" points="13.4425 233.92075 113.70249 233.92075 102.1925 244.93075 101.6825 245.99076 25.5025 245.99076 24.9825 244.94076 13.4425 233.92075"/>
        <g class="cls-12">
          <rect class="cls-3" x="13.4425" y="233.92073" width="100.26001" height="12.07001"/>
        </g>
      </g>
      <path class="cls-1" d="m104.00152,12.27706c-.00293-.22296.00385-.44836.021-.67633l-80.95001-.08997c.02002,6.82001-9.72998,12.07001-9.62,17.14001v205.29999h100.25V28.65078c-.13562-4.88245-9.60883-9.46448-9.70099-16.37372Z"/>
      <polygon class="cls-10" points="104.00249 9.31075 22.84252 9.31075 22.84252 11.51076 23.0725 11.51076 104.00249 11.51076 104.00249 9.31075"/>
    </g>
  </g>
</svg>