<svg width="161" height="44" viewBox="0 0 161 44" fill="none" xmlns="http://www.w3.org/2000/svg">
<g filter="url(#filter0_d_20_608)">
<rect x="4" y="1" width="153" height="36" rx="18" fill="#E8E8E8"/>
</g>
<path d="M23.5 35C32.0604 35 39 28.0604 39 19.5C39 10.9396 32.0604 4 23.5 4C14.9396 4 8 10.9396 8 19.5C8 28.0604 14.9396 35 23.5 35Z" fill="white"/>
<path d="M33 19.5C33 24.7467 28.7467 29 23.5 29C18.2533 29 14 24.7467 14 19.5C14 14.2533 18.2533 10 23.5 10C28.7467 10 33 14.2533 33 19.5Z" fill="black" stroke="black" stroke-width="9"/>
<path d="M27.8055 19.22C27.4904 19.1551 27.1755 19.0907 26.7873 19.0113C26.7748 19.2604 26.7576 19.4421 26.7572 19.6239C26.755 20.8853 26.7504 22.1467 26.7603 23.4076C26.7623 23.6764 26.7015 23.8478 26.4358 23.979C24.7809 24.7987 23.1353 25.6376 21.486 26.4697C21.4408 26.4926 21.3895 26.5039 21.2742 26.5445C21.2644 26.3415 21.2483 26.1614 21.2483 25.9813C21.2467 23.8903 21.2493 21.7999 21.2441 19.709C21.2436 19.5075 21.1969 19.3067 21.172 19.1053L21.1601 19.1182C21.4289 19.0721 21.6967 19.0035 21.9676 18.9843C22.4455 18.9506 22.9257 18.9475 23.4321 18.9309C23.4321 17.7561 23.4321 16.6406 23.4321 15.4934C23.2375 15.4431 23.0408 15.3948 22.8452 15.3418C22.265 15.1851 21.9162 14.8129 21.8664 14.2102C21.8378 13.8681 21.8524 13.5193 21.8794 13.1762C21.9401 12.4157 21.8892 11.6889 21.3365 11.0826C21.7574 10.9747 21.7636 10.9674 22.0288 11.187C22.4295 11.5187 22.8789 11.691 23.4227 11.6796C23.4493 11.4543 23.4725 11.2529 23.4991 11.025C23.8322 11.025 24.153 11.025 24.4986 11.025C24.524 11.2394 24.5478 11.4387 24.5749 11.6677C25.097 11.7009 25.5375 11.5389 25.8988 11.1963C26.1125 10.9934 26.3284 10.9607 26.6456 11.0396C25.9963 11.7325 25.9714 12.5538 26.0078 13.3942C26.0197 13.6693 26.0082 13.947 25.988 14.2221C25.9439 14.83 25.6139 15.2053 25.0284 15.361C24.8801 15.4005 24.7321 15.4441 24.564 15.4913C24.564 16.6183 24.564 17.7364 24.564 18.9231C25.2765 18.9532 25.9755 18.9828 26.7162 19.0139C26.8905 18.3775 27.0581 17.767 27.2325 17.1301C27.0924 17.0611 26.9741 17.0029 26.7919 16.9131C26.9123 15.714 27.0352 14.4874 27.1645 13.1995C28.2896 13.1959 29.2886 13.4829 30.3064 14.0285C29.7889 15.1742 29.2881 16.284 28.78 17.4104C28.6202 17.4182 28.4723 17.426 28.3062 17.4343C28.1334 18.0417 27.9642 18.6371 27.7946 19.2325L27.8055 19.22ZM28.4547 15.8012C28.4272 15.7893 28.3996 15.7774 28.3721 15.7649C28.4889 15.2458 28.6098 14.7277 28.7183 14.2066C28.7374 14.1131 28.7032 14.0083 28.6934 13.9086C28.6534 13.9034 28.6135 13.8982 28.5735 13.893C28.273 14.4313 28.2341 15.0807 27.903 15.617C27.8796 15.2904 27.9278 14.9717 27.9171 14.6551C27.9061 14.3348 28.0472 13.9849 27.8024 13.6657C27.6213 13.9699 27.3949 15.9082 27.4578 16.5524C27.7692 16.6323 28.0935 16.7154 28.4417 16.8052C28.8314 15.9253 29.2014 15.0906 29.5679 14.2543C29.5761 14.2351 29.5404 14.1967 29.5046 14.1271C29.1475 14.2735 29.12 14.6545 28.9482 14.9182C28.765 15.1996 28.6181 15.5059 28.4547 15.8012ZM23.4575 13.2265C23.0833 13.2265 22.7839 13.2265 22.4611 13.2265C22.4611 13.4139 22.4611 13.5717 22.4611 13.7435C22.7974 13.7435 23.098 13.7435 23.4321 13.7435C23.4409 13.5727 23.4483 13.4269 23.4575 13.2265ZM24.5687 13.7342C24.919 13.7342 25.2158 13.7342 25.5443 13.7342C25.5344 13.5504 25.5262 13.4046 25.5168 13.2296C25.1894 13.2296 24.893 13.2296 24.5687 13.2296C24.5687 13.4077 24.5687 13.5525 24.5687 13.7342ZM25.5541 12.0637C25.2048 12.1302 24.8956 12.1888 24.5712 12.2501C24.5712 12.3825 24.5712 12.492 24.5712 12.6207C24.8961 12.6207 25.1935 12.6207 25.5204 12.6207C25.5324 12.4266 25.5422 12.2636 25.5541 12.0637ZM23.4383 12.2459C23.0859 12.1852 22.7751 12.1317 22.4217 12.071C22.431 12.2771 22.4388 12.4385 22.4471 12.6202C22.7938 12.6202 23.1078 12.6202 23.4383 12.6202C23.4383 12.4899 23.4383 12.3928 23.4383 12.2459ZM22.5135 14.3358C22.6775 14.7771 22.8815 14.8897 23.4565 14.8575C23.4487 14.6821 23.4409 14.5061 23.4336 14.3358C23.088 14.3358 22.8057 14.3358 22.5135 14.3358ZM24.5644 14.9037C25.264 14.8072 25.3617 14.7381 25.4213 14.3415C25.139 14.3415 24.8582 14.3415 24.5644 14.3415C24.5644 14.5429 24.5644 14.7075 24.5644 14.9037Z" fill="white"/>
<path d="M21.1719 19.1049C20.8522 19.1096 20.5325 19.1147 20.1734 19.1199C20.1734 21.8327 20.1734 24.4718 20.1734 27.1421C19.6223 27.4212 19.0913 27.6902 18.5112 27.984C18.5112 25.089 18.5112 22.2787 18.5112 19.4303C19.0301 19.3264 19.5325 19.2264 20.0976 19.1137C19.9591 18.5847 19.8371 18.0687 19.6793 17.5642C19.6487 17.4661 19.4878 17.3721 19.3705 17.3435C18.5968 17.1536 18.1681 16.6516 17.987 15.8953C17.851 15.3269 17.6922 14.7636 17.5272 14.136C18.6663 13.8293 19.7717 13.5313 20.9243 13.2209C21.1236 13.9907 21.3395 14.6993 21.4843 15.4224C21.5974 15.9851 21.3789 16.4875 20.9633 16.8727C20.7645 17.057 20.7344 17.2288 20.8045 17.4666C20.9217 17.8637 21.0312 18.2639 21.1283 18.6667C21.1631 18.811 21.1511 18.9668 21.1594 19.1184L21.1719 19.1049ZM20.5242 13.9154C19.7432 14.1241 19.0026 14.3219 18.2522 14.5223C18.262 14.6313 18.2584 14.6993 18.275 14.7626C18.3741 15.1462 18.4665 15.5319 18.5833 15.9098C18.7909 16.5815 19.3721 16.9324 20.013 16.7907C20.6368 16.6526 21.0229 16.0609 20.8958 15.3663C20.8091 14.896 20.6602 14.4376 20.5242 13.9154Z" fill="white"/>
<path d="M27.7932 19.2321C27.8752 19.2123 27.9592 19.1676 28.0381 19.1764C28.7594 19.2565 29.4668 19.3991 30.1379 19.6884C30.47 19.8316 30.6625 20.0443 30.6283 20.442C30.5972 20.8017 30.6174 21.1662 30.623 21.5285C30.6257 21.6977 30.5857 21.8233 30.4218 21.9089C29.611 22.3301 28.8046 22.7587 27.9956 23.1818C27.9707 23.1949 27.9313 23.1792 27.8461 23.173C27.8461 23.0116 27.8461 22.846 27.8461 22.6799C27.8461 21.6967 27.8482 20.713 27.8445 19.7298C27.844 19.5591 27.8213 19.3887 27.8072 19.219C27.8056 19.2201 27.7932 19.2321 27.7932 19.2321Z" fill="white"/>
<path d="M17.9263 19.6691C17.9263 22.5319 17.9263 25.389 17.9263 28.269C17.7311 28.3681 17.5355 28.4673 17.2854 28.5945C17.2667 28.4122 17.2423 28.2856 17.2418 28.1589C17.2392 25.5863 17.2381 23.0142 17.2392 20.4415C17.2397 19.8685 17.3014 19.8009 17.9263 19.6691Z" fill="white"/>
<path d="M46.6632 27V12.4545H51.1447C52.068 12.4545 52.8588 12.6439 53.5169 13.0227C54.1798 13.4015 54.6888 13.92 55.0439 14.5781C55.399 15.2363 55.5766 15.9867 55.5766 16.8295C55.5766 17.6629 55.399 18.4086 55.0439 19.0668C54.6888 19.7249 54.1798 20.2457 53.5169 20.6293C52.8588 21.008 52.0704 21.1974 51.1518 21.1974H47.2882V20.3736H51.1305C51.8786 20.3736 52.5178 20.2221 53.0482 19.919C53.5785 19.6113 53.9857 19.1922 54.2697 18.6619C54.5538 18.1269 54.6959 17.5161 54.6959 16.8295C54.6959 16.1383 54.5538 15.5251 54.2697 14.9901C53.9857 14.455 53.5761 14.036 53.041 13.733C52.5107 13.4299 51.8715 13.2784 51.1234 13.2784H47.551V27H46.6632ZM71.357 19.7273C71.357 21.2282 71.0966 22.5398 70.5758 23.6619C70.0549 24.7794 69.3305 25.6482 68.4025 26.2685C67.4792 26.8887 66.4138 27.1989 65.2065 27.1989C63.9943 27.1989 62.9243 26.8887 61.9962 26.2685C61.0729 25.6435 60.3509 24.7723 59.83 23.6548C59.3092 22.5327 59.0488 21.2235 59.0488 19.7273C59.0488 18.2263 59.3092 16.9171 59.83 15.7997C60.3556 14.6823 61.08 13.8134 62.0033 13.1932C62.9266 12.5682 63.9943 12.2557 65.2065 12.2557C66.4138 12.2557 67.4792 12.5658 68.4025 13.1861C69.3305 13.8063 70.0549 14.6776 70.5758 15.7997C71.0966 16.9171 71.357 18.2263 71.357 19.7273ZM70.4906 19.7273C70.4906 18.3778 70.2633 17.2083 69.8087 16.2188C69.3589 15.2292 68.7363 14.4645 67.9408 13.9247C67.1454 13.3802 66.2339 13.108 65.2065 13.108C64.179 13.108 63.2675 13.3778 62.4721 13.9176C61.6766 14.4527 61.0516 15.2173 60.5971 16.2116C60.1473 17.2012 59.9224 18.3731 59.9224 19.7273C59.9224 21.0672 60.1449 22.2344 60.59 23.2287C61.0398 24.2183 61.6624 24.9853 62.4579 25.5298C63.2533 26.0743 64.1695 26.3466 65.2065 26.3466C66.2339 26.3466 67.1454 26.0767 67.9408 25.5369C68.7363 24.9924 69.3589 24.2254 69.8087 23.2358C70.2633 22.2462 70.4906 21.0767 70.4906 19.7273ZM86.7415 12.4545V27H85.8751L76.5995 14.0668H76.5143V27H75.6265V12.4545H76.5001L85.7756 25.402H85.8609V12.4545H86.7415ZM91.1779 27H90.2404L95.489 12.4545H96.5117L101.76 27H100.823L96.0359 13.598H95.9648L91.1779 27ZM92.506 21.5241H99.4947V22.348H92.506V21.5241ZM105.273 27V12.4545H109.755C110.673 12.4545 111.464 12.6345 112.127 12.9943C112.79 13.3542 113.299 13.8537 113.654 14.4929C114.009 15.1274 114.187 15.866 114.187 16.7088C114.187 17.5421 114.009 18.276 113.654 18.9105C113.299 19.5402 112.79 20.0327 112.127 20.3878C111.469 20.7429 110.681 20.9205 109.762 20.9205H105.749V20.0895H109.741C110.489 20.0895 111.128 19.9498 111.658 19.6705C112.189 19.3911 112.596 19.0005 112.88 18.4986C113.164 17.992 113.306 17.3954 113.306 16.7088C113.306 16.0175 113.164 15.4162 112.88 14.9048C112.596 14.3887 112.186 13.9886 111.651 13.7045C111.121 13.4205 110.482 13.2784 109.734 13.2784H106.161V27H105.273ZM111.246 20.4091L114.826 27H113.803L110.245 20.4091H111.246ZM117.568 13.2784V12.4545H127.76V13.2784H123.108V27H122.22V13.2784H117.568ZM131.795 27V12.4545H132.683V19.3082H141.447V12.4545H142.335V27H141.447V20.1321H132.683V27H131.795Z" fill="black"/>
<defs>
<filter id="filter0_d_20_608" x="0" y="0" width="161" height="44" filterUnits="userSpaceOnUse" color-interpolation-filters="sRGB">
<feFlood flood-opacity="0" result="BackgroundImageFix"/>
<feColorMatrix in="SourceAlpha" type="matrix" values="0 0 0 0 0 0 0 0 0 0 0 0 0 0 0 0 0 0 127 0" result="hardAlpha"/>
<feOffset dy="3"/>
<feGaussianBlur stdDeviation="2"/>
<feComposite in2="hardAlpha" operator="out"/>
<feColorMatrix type="matrix" values="0 0 0 0 0 0 0 0 0 0 0 0 0 0 0 0 0 0 0.25 0"/>
<feBlend mode="normal" in2="BackgroundImageFix" result="effect1_dropShadow_20_608"/>
<feBlend mode="normal" in="SourceGraphic" in2="effect1_dropShadow_20_608" result="shape"/>
</filter>
</defs>
</svg>
