<svg width="161" height="44" viewBox="0 0 161 44" fill="none" xmlns="http://www.w3.org/2000/svg">
<g filter="url(#filter0_d_7_6)">
<rect x="4" y="1" width="153" height="36" rx="18" fill="#E8E8E8"/>
</g>
<g clip-path="url(#clip0_7_6)">
<path d="M23.7655 35.4173C32.4905 35.4173 39.5635 28.2283 39.5635 19.3602C39.5635 10.4921 32.4905 3.30306 23.7655 3.30306C15.0405 3.30306 7.96746 10.4921 7.96746 19.3602C7.96746 28.2283 15.0405 35.4173 23.7655 35.4173Z" fill="white"/>
<path d="M23.7655 30.7789C29.9701 30.7789 35 25.6666 35 19.3602C35 13.0538 29.9701 7.94142 23.7655 7.94142C17.5608 7.94142 12.531 13.0538 12.531 19.3602C12.531 25.6666 17.5608 30.7789 23.7655 30.7789Z" fill="white"/>
<path d="M22.3205 6.01666C21.5274 6.11177 21.271 6.14981 20.7581 6.25444C18.9676 6.62062 16.8353 7.58601 15.3678 8.69407C12.7843 10.6534 10.9416 13.5733 10.2768 16.7834C10.0678 17.7916 10.0061 18.5477 10.0346 19.8032C10.0583 20.9921 10.1153 21.4962 10.3338 22.4853C11.54 27.921 15.9805 32.0441 21.5607 32.9049C22.0213 32.981 22.4012 33 23.2703 33C24.6333 33 25.3694 32.9429 26.134 32.7908C31.8852 31.6209 36.1594 27.046 36.924 21.2299C37.0285 20.4404 37.0285 18.4764 36.924 17.7345C36.6343 15.6658 35.9267 13.7493 34.8392 12.1038C32.6688 8.81771 29.2447 6.63964 25.4074 6.10701C24.885 6.03092 22.7099 5.9691 22.3205 6.01666ZM24.1489 7.05814C24.7093 7.26263 25.3884 7.52894 27.782 8.47531C29.6341 9.20767 30.4985 9.54532 31.529 9.94479L32.5501 10.3395L33.6471 12.9075C35.4708 17.1733 36.3351 19.223 36.3636 19.3514C36.3969 19.5178 32.9538 27.9686 32.7733 28.1588C32.6973 28.2349 31.2061 28.8769 28.1382 30.1466C27.3023 30.4938 26.3003 30.9075 25.9061 31.074C25.5167 31.2357 24.8375 31.5115 24.4006 31.6922L23.6075 32.0108L22.9759 31.7255C22.4582 31.4925 17.6949 29.4428 15.1731 28.3728L14.5557 28.1112L13.4254 25.0962C11.8535 20.897 11.4023 19.6225 11.3881 19.3276C11.3833 19.1659 11.8535 17.958 13.3067 14.4293C13.8576 13.093 14.4417 11.6758 14.608 11.2716C14.7742 10.8674 14.9261 10.525 14.9451 10.506C14.9689 10.4869 15.2823 10.349 15.648 10.1968C17.6379 9.37412 22.5817 7.26263 22.8762 7.1152C23.0614 7.02009 23.2276 6.92022 23.2466 6.89169C23.3036 6.79658 23.5648 6.84413 24.1489 7.05814ZM22.8429 32.1202C22.8429 32.1963 22.7194 32.3818 22.6672 32.3818C22.5865 32.3818 22.5865 32.3295 22.6814 32.2011C22.7432 32.1107 22.8429 32.0584 22.8429 32.1202Z" fill="black"/>
<path d="M22.4852 8.39446C21.6446 8.5086 21.3692 8.56567 20.6948 8.75113C18.9281 9.24096 17.3514 10.154 15.9979 11.4713C13.8181 13.5828 12.6261 16.3934 12.6356 19.399C12.6403 21.1443 12.9917 22.6803 13.7421 24.2259C15.2238 27.2647 18.0733 29.5046 21.3454 30.2085C22.1005 30.3749 22.3047 30.3939 23.3401 30.4177C24.9453 30.4557 25.9426 30.3178 27.2296 29.8803C28.849 29.3287 30.1883 28.5059 31.4515 27.2742C32.3349 26.4087 33.0045 25.5099 33.5459 24.4684C34.4957 22.628 34.8566 20.8542 34.7379 18.6476C34.6952 17.8153 34.6667 17.6251 34.4482 16.7358C34.111 15.3234 33.3987 13.8492 32.4678 12.6222C32.1449 12.2037 31.0716 11.1147 30.6062 10.7437C29.5139 9.87346 28.2886 9.23621 26.8306 8.77967C25.5531 8.3802 23.739 8.21851 22.4852 8.39446ZM23.2641 9.4835C23.2783 9.52154 23.3116 9.87821 23.3401 10.2777C23.3685 10.6772 23.4018 11.0766 23.416 11.1622C23.4493 11.3857 23.3733 11.4571 23.0978 11.4571C22.8746 11.4571 22.8699 11.4523 22.8461 11.3001C22.8129 11.0957 22.7227 9.86395 22.7227 9.6119V9.41216H22.9791C23.1596 9.41216 23.2403 9.43119 23.2641 9.4835ZM25.3489 9.5263C25.8571 9.6119 26.1848 9.76408 26.2845 9.95906C26.3795 10.154 26.37 10.5012 26.256 10.72C26.1183 10.9863 25.9046 11.0861 25.5009 11.0671L25.1685 11.0529L25.121 11.2431C25.0497 11.5332 25.0355 11.5427 24.7648 11.4856C24.4798 11.4285 24.4846 11.4713 24.6461 10.5725C24.7125 10.2111 24.779 9.83541 24.7933 9.74506C24.8313 9.52154 24.8503 9.45972 24.893 9.45972C24.912 9.45972 25.121 9.49301 25.3489 9.5263ZM22.0151 9.65946C22.091 9.79737 21.9676 9.89724 21.6114 9.97808C21.3549 10.0352 21.3454 10.0447 21.3454 10.1921C21.3454 10.2777 21.3739 10.3823 21.4072 10.4251C21.4594 10.4964 21.4927 10.5012 21.7396 10.4536C21.9723 10.4061 22.0246 10.4061 22.0625 10.4632C22.1575 10.6106 22.0863 10.7104 21.8488 10.7723C21.7206 10.8056 21.5971 10.8531 21.5686 10.8816C21.5164 10.934 21.5639 11.2478 21.6304 11.2906C21.6589 11.3049 21.8013 11.2954 21.9486 11.2621C22.3855 11.1765 22.414 11.1813 22.4282 11.3192C22.4472 11.4809 22.3855 11.5237 21.9628 11.6188C21.7681 11.6616 21.5164 11.7234 21.4024 11.7519C21.2837 11.7805 21.184 11.7852 21.1602 11.7614C21.127 11.7234 20.994 11.2145 20.7518 10.2064C20.709 10.0256 20.6853 9.8687 20.6948 9.85444C20.728 9.82115 21.7301 9.5691 21.8536 9.55959C21.9201 9.55959 21.9818 9.59763 22.0151 9.65946ZM27.9182 10.292C28.3599 10.4251 28.6591 10.7532 28.6591 11.0957C28.6591 11.3097 28.3599 11.9754 28.1699 12.1799C28.0322 12.3321 27.714 12.4272 27.505 12.3844C27.2723 12.3369 26.8591 12.0706 26.7547 11.9041C26.6359 11.7091 26.6359 11.3525 26.7642 11.0766C26.9541 10.6581 27.1488 10.4013 27.3483 10.311C27.5858 10.2016 27.6237 10.2016 27.9182 10.292ZM19.9397 10.4632C20.1297 10.6106 20.2056 10.8008 20.2104 11.1337V11.4333L20.4953 11.6616C20.6473 11.79 20.7755 11.9089 20.7755 11.9326C20.7755 11.9754 20.3956 12.1704 20.3101 12.1704C20.2816 12.1704 20.1582 12.0848 20.0394 11.9802C19.8115 11.7852 19.5883 11.7281 19.5883 11.8661C19.5883 11.9041 19.631 12.0373 19.688 12.1562C19.7402 12.275 19.7735 12.3987 19.7592 12.4367C19.726 12.5271 19.422 12.665 19.3366 12.6317C19.2606 12.6032 18.4485 11.0386 18.4485 10.9244C18.4485 10.8912 18.6764 10.7485 18.9566 10.6106C19.5218 10.3348 19.7355 10.3015 19.9397 10.4632ZM29.8843 11.5427L30.0885 11.7186L29.9888 12.1229C29.9366 12.3464 29.8701 12.6032 29.8463 12.6935C29.7656 12.9836 29.8748 12.9836 30.1218 12.6935C30.2453 12.5509 30.402 12.3702 30.4732 12.2893L30.6014 12.1466L30.7772 12.3226C30.9434 12.4843 30.9529 12.5081 30.8864 12.5842C29.9698 13.6589 29.6849 13.9776 29.6374 13.9776C29.6041 13.9776 29.5044 13.8967 29.4094 13.7968L29.2337 13.6209L29.3287 13.1929C29.4617 12.5842 29.4854 12.4082 29.4379 12.4082C29.4142 12.4082 29.2289 12.5842 29.0295 12.7982L28.6686 13.1929L28.4976 13.0312C28.3979 12.9313 28.3456 12.8457 28.3646 12.8077C28.4596 12.6412 29.5946 11.362 29.6516 11.362C29.6659 11.362 29.7703 11.4428 29.8843 11.5427ZM17.7931 11.5379C17.8406 11.5807 17.8786 11.6378 17.8786 11.6663C17.8786 11.6949 17.7599 11.828 17.6079 11.9612L17.3419 12.199L17.5081 12.3844L17.6744 12.5699L17.9023 12.3702C18.116 12.1799 18.135 12.1752 18.2205 12.2465C18.344 12.3606 18.3297 12.413 18.116 12.6222C18.0116 12.7221 17.9261 12.8315 17.9261 12.8647C17.9261 12.9503 18.116 13.1691 18.1968 13.1691C18.2348 13.1691 18.3772 13.074 18.5102 12.9551C18.6479 12.8362 18.7762 12.7411 18.8047 12.7411C18.8284 12.7411 18.8901 12.7934 18.9329 12.8552C19.0089 12.9599 19.0089 12.9694 18.8854 13.0883C18.6194 13.3403 18.04 13.7873 17.9878 13.7873C17.9546 13.7873 17.8738 13.7303 17.8121 13.6542C16.9525 12.6602 16.7293 12.3749 16.7483 12.2846C16.7625 12.2275 17.6316 11.4571 17.6839 11.4571C17.6981 11.4571 17.7456 11.4904 17.7931 11.5379ZM24.931 12.7791C26.3605 13.1025 27.6095 13.8396 28.5261 14.8954C29.3334 15.8322 29.8036 16.8071 30.06 18.0579C30.1598 18.5429 30.155 19.9886 30.0553 20.4832C29.8036 21.753 29.2479 22.8563 28.4216 23.7408C27.1393 25.1104 25.6576 25.7905 23.7342 25.8951C23.2878 25.9189 23.0551 25.9046 22.5802 25.8238C21.6921 25.6811 21.2409 25.5289 20.4431 25.12C18.6289 24.1926 17.3514 22.4093 16.9952 20.3168C16.8955 19.7461 16.9288 18.4241 17.0475 17.8772C17.6269 15.2473 19.6642 13.2737 22.3427 12.7411C22.9601 12.6174 24.2994 12.6365 24.931 12.7791ZM16.7245 13.5828C16.962 13.7493 17.2137 13.949 17.2802 14.0299C17.4464 14.2248 17.4417 14.4912 17.2707 14.8288C17.0997 15.1712 16.8575 15.3662 16.5631 15.39C16.3446 15.409 16.3066 15.3947 15.7415 15.0238C15.4138 14.8145 15.1193 14.6148 15.0909 14.5815C15.0434 14.534 15.0576 14.4816 15.1526 14.32C15.2191 14.2106 15.2998 14.1202 15.3378 14.1202C15.3758 14.1202 15.6655 14.2914 15.9837 14.5007C16.6438 14.9334 16.7815 14.9667 16.8955 14.7337C16.9335 14.6528 16.9525 14.5435 16.9383 14.4912C16.924 14.4388 16.6581 14.2248 16.3066 13.9918C15.9694 13.7636 15.694 13.5638 15.694 13.5353C15.694 13.483 15.884 13.2071 15.9504 13.1596C16.0122 13.1168 16.2069 13.2214 16.7245 13.5828ZM32.0784 14.0013C32.2541 14.2724 32.2731 14.32 32.2161 14.396C31.9929 14.6814 30.9196 15.8322 30.8769 15.8322C30.8104 15.8322 30.6062 15.4898 30.6062 15.39C30.6062 15.3519 30.6394 15.2949 30.6774 15.2616C30.7819 15.176 30.7629 15.0238 30.6299 14.8241C30.516 14.6528 30.497 14.6481 30.307 14.6719C30.1123 14.7004 30.1028 14.6957 29.9936 14.5007C29.9318 14.3913 29.9033 14.2867 29.9223 14.2676C29.9461 14.2486 30.1788 14.163 30.44 14.0822C30.7012 13.9966 31.0764 13.8777 31.2711 13.8159C31.822 13.6351 31.8457 13.6399 32.0784 14.0013ZM33.0852 16.0938C33.3417 16.8214 33.2989 17.0211 32.8478 17.2209C32.6436 17.316 32.4109 17.3065 32.2826 17.2019C32.2399 17.1686 32.1307 17.2351 31.8837 17.4539C31.6431 17.6695 31.4864 17.6663 31.4135 17.4444L31.3518 17.2542L31.594 17.0069C31.9644 16.6312 31.9074 16.4647 31.4563 16.6122C31.3281 16.655 31.2046 16.6787 31.1808 16.6692C31.1618 16.655 31.1048 16.5551 31.0574 16.4457C30.9719 16.2602 30.9719 16.246 31.0479 16.1889C31.0953 16.1556 31.4705 16.0082 31.879 15.8655C32.2874 15.7229 32.6578 15.5945 32.6958 15.5802C32.862 15.5184 32.9095 15.5802 33.0852 16.0938ZM16.3019 15.8608C16.4348 15.875 16.5488 15.9036 16.5488 15.9226C16.5488 16.0177 16.3969 16.3791 16.3446 16.4124C16.3114 16.4314 16.2544 16.4362 16.2116 16.4267C16.0977 16.3886 15.9694 16.517 15.9029 16.7358C15.846 16.9355 15.846 16.9451 15.9837 17.0735C16.1214 17.2019 16.1262 17.2114 16.0692 17.4063C16.0359 17.511 15.9837 17.6108 15.9504 17.6251C15.9077 17.6394 14.6064 16.8404 14.236 16.5741C14.2313 16.5694 14.2788 16.3934 14.3452 16.1842L14.4592 15.799L15.2571 15.818C15.694 15.8275 16.1641 15.8465 16.3019 15.8608ZM14.6919 17.8772C14.7822 17.9009 14.9151 17.977 14.9864 18.0484L15.1193 18.172L15.466 18.0626C15.656 18.0008 15.8412 17.9437 15.8745 17.9342C15.9124 17.9247 15.9314 17.9865 15.9314 18.1577C15.9314 18.4288 15.8697 18.4954 15.523 18.5857C15.2998 18.6476 15.2048 18.7379 15.2286 18.8616C15.2381 18.9281 15.3046 18.9519 15.5278 18.9709L15.8127 18.9947V19.2801C15.8127 19.5369 15.8032 19.5654 15.7177 19.5559C15.6655 19.5464 15.2903 19.5178 14.8866 19.4893C14.483 19.4608 14.0888 19.4227 14.0081 19.4037L13.8656 19.3657L13.8751 18.8568C13.8846 18.2528 13.9653 18.0436 14.2218 17.9152C14.4117 17.8153 14.4735 17.8106 14.6919 17.8772ZM33.5554 18.2338C33.5744 18.4145 33.5934 18.7712 33.6029 19.0185L33.6219 19.4703H33.4794C33.3464 19.4703 33.3369 19.456 33.3084 19.2658C33.2942 19.1564 33.2609 19.0423 33.2324 19.0137C33.204 18.9852 32.9475 18.9852 32.4393 19.0185C32.0262 19.047 31.6605 19.0613 31.6225 19.047C31.575 19.028 31.556 18.9377 31.556 18.7569V18.4954H31.7792C32.1686 18.4954 33.0947 18.3908 33.1612 18.3432C33.1897 18.3147 33.2182 18.2005 33.2182 18.0816C33.2182 17.9421 33.2704 17.8772 33.3749 17.8867L33.5269 17.9009L33.5554 18.2338ZM32.7195 20.1456C33.1137 20.2122 33.4604 20.274 33.4936 20.2835C33.5364 20.2978 33.5459 20.3643 33.5221 20.5498C33.5031 20.6877 33.4841 20.8114 33.4747 20.8209C33.4652 20.8304 33.2847 20.8114 33.071 20.7781C32.7575 20.7353 32.6768 20.7353 32.6436 20.7828C32.5818 20.8875 32.5391 21.306 32.5913 21.3583C32.6151 21.382 32.7765 21.4296 32.9522 21.4676C33.1232 21.5057 33.2847 21.5437 33.3084 21.558C33.3274 21.5723 33.3227 21.6912 33.2942 21.8243L33.2467 22.0716L33.0282 22.0478C32.7385 22.0193 31.7222 21.8386 31.4705 21.772L31.2663 21.7149L31.2996 21.4962C31.3186 21.3773 31.3376 21.2632 31.3518 21.2394C31.3803 21.1918 31.5228 21.1966 31.7697 21.2632C32.0547 21.3392 32.1212 21.2917 32.2066 20.9683C32.2874 20.6497 32.2494 20.6116 31.8457 20.5593C31.5133 20.5213 31.4515 20.4785 31.5133 20.3215C31.537 20.255 31.556 20.1456 31.556 20.079C31.556 19.9411 31.5038 19.9363 32.7195 20.1456ZM15.6417 20.079C15.8222 20.1694 15.9409 20.4167 16.0312 20.8922C16.1641 21.5818 16.1736 21.5532 15.8032 21.6293C15.6228 21.6626 15.3616 21.7102 15.2191 21.734C15.0766 21.7577 14.7869 21.8053 14.5779 21.8433C14.3215 21.8909 14.1933 21.9004 14.1695 21.8671C14.1078 21.7672 13.9748 20.7686 14.0033 20.6259C14.065 20.312 14.3737 20.1694 14.6444 20.331L14.7917 20.4167L14.9199 20.2692C14.9959 20.1884 15.0956 20.098 15.1478 20.0695C15.2761 20.0029 15.504 20.0077 15.6417 20.079ZM15.6607 22.4283C15.7621 22.479 15.7795 22.5995 15.713 22.7897C15.6085 23.0941 15.5705 23.1178 15.2761 23.018C15.1383 22.9704 15.0196 22.9229 15.0054 22.9133C14.9816 22.8848 15.0956 22.433 15.1478 22.3522C15.1858 22.2856 15.466 22.3284 15.6607 22.4283ZM32.2446 22.7992C32.2921 22.9419 32.3159 23.0845 32.3016 23.1226C32.2731 23.1987 31.8125 23.3651 31.7222 23.3271C31.689 23.3176 31.651 23.2558 31.6367 23.1939C31.6225 23.1321 31.5893 23.0037 31.5655 22.9038C31.518 22.7326 31.5228 22.7184 31.6415 22.6708C31.7792 22.6185 32.0214 22.5519 32.1117 22.5424C32.1402 22.5377 32.2019 22.6565 32.2446 22.7992ZM17.019 23.3937C17.1425 23.6172 17.133 23.679 16.9478 23.7741C16.8718 23.8122 16.7293 23.893 16.6296 23.9548C16.4728 24.0499 16.4538 24.0737 16.5108 24.1403C16.5583 24.2021 16.6438 24.2116 17.0047 24.1879L17.4369 24.1593L17.5366 24.34C17.5936 24.4399 17.6411 24.5445 17.6411 24.5731C17.6411 24.5968 17.4654 24.6349 17.2517 24.6491C16.6201 24.7015 16.6248 24.7015 16.3589 25.0581C16.0407 25.4909 15.9932 25.5242 15.9029 25.41C15.6607 25.1009 15.6607 25.139 15.9267 24.7443C16.0597 24.5445 16.1689 24.3638 16.1689 24.34C16.1689 24.2307 16.0169 24.2592 15.7605 24.4114C15.6085 24.5065 15.4518 24.5826 15.4233 24.5826C15.3616 24.5826 15.1716 24.2497 15.1716 24.1451C15.1716 24.088 16.753 23.2034 16.8623 23.2034C16.8908 23.2034 16.962 23.289 17.019 23.3937ZM31.1143 23.6172C31.1761 23.7075 31.1618 23.7361 30.9386 23.9881C30.8009 24.1498 30.7012 24.3115 30.7012 24.3733C30.7012 24.5778 31.3281 25.1532 31.5465 25.1532C31.6557 25.1532 31.9359 24.9345 31.9359 24.8489C31.9359 24.8156 31.8742 24.73 31.7935 24.6539C31.6652 24.5303 31.6415 24.5255 31.5323 24.5826C31.423 24.6396 31.3993 24.6396 31.3091 24.5445L31.2046 24.4447L31.3993 24.2164C31.5038 24.0927 31.6225 23.9834 31.6557 23.9738C31.7365 23.9596 32.4583 24.5635 32.4583 24.6444C32.4583 24.6777 32.3776 24.8394 32.2826 25.0058C31.9882 25.5052 31.5513 25.7524 31.1761 25.6288C30.8911 25.5337 30.402 25.1009 30.2738 24.8346C30.1693 24.6111 30.1693 24.6016 30.25 24.3495C30.3117 24.1546 30.402 24.0166 30.6299 23.7836C30.7962 23.6172 30.9576 23.4888 30.9909 23.4983C31.0241 23.5078 31.0811 23.5601 31.1143 23.6172ZM18.401 24.4589C18.4295 24.497 18.4485 24.5778 18.439 24.6396C18.4295 24.73 18.3962 24.749 18.2585 24.749C18.1208 24.749 18.0875 24.73 18.078 24.6396C18.059 24.5065 18.1445 24.3923 18.2585 24.3923C18.306 24.3923 18.3677 24.4256 18.401 24.4589ZM18.059 24.8917C18.154 24.9345 18.3345 25.0629 18.4532 25.1818L18.6669 25.391L18.7809 25.2721C18.9566 25.0867 19.1608 25.139 19.1608 25.372C19.1608 25.5099 19.0564 25.5908 18.8901 25.5717C18.7619 25.5575 18.7572 25.567 18.7334 25.819C18.7097 26.1044 18.6194 26.2565 18.3202 26.5371C17.7883 27.0412 17.4559 27.0793 17.019 26.6893C16.7245 26.4182 16.6438 26.2661 16.6438 25.9712C16.6438 25.7192 16.6913 25.6288 17.0427 25.2531C17.2327 25.0486 17.6316 24.8203 17.7978 24.8203C17.8453 24.8203 17.9593 24.8536 18.059 24.8917ZM30.0743 25.1532C30.2927 25.2864 30.4162 25.5147 30.4162 25.7762V25.995L30.7534 26.2042C30.9434 26.3184 31.0953 26.4373 31.0953 26.461C31.0953 26.4896 31.0051 26.5704 30.8959 26.6513L30.6964 26.7939L30.5445 26.7036C30.0505 26.4087 30.0458 26.4087 29.9603 26.4943C29.8843 26.5704 29.8891 26.5894 30.0553 26.813C30.1503 26.9461 30.2263 27.0745 30.2263 27.0935C30.2263 27.1363 29.7988 27.4502 29.7751 27.4264C29.6041 27.2172 28.7683 26.033 28.7113 25.9189C28.6401 25.7667 28.6401 25.7572 28.7303 25.6906C28.7825 25.6573 28.925 25.5527 29.0485 25.4624C29.3429 25.2436 29.6944 25.0581 29.8178 25.0581C29.8748 25.0581 29.9888 25.1009 30.0743 25.1532ZM19.3461 26.033C19.631 26.1757 19.65 26.2375 19.6073 26.889C19.5645 27.5596 19.631 27.5501 20.0204 26.8272C20.1059 26.6655 20.2009 26.5324 20.2294 26.5324C20.3244 26.5324 20.5856 26.7226 20.5856 26.7939C20.5856 26.8986 19.726 28.4251 19.6452 28.4584C19.6073 28.4727 19.4838 28.4299 19.3698 28.3633L19.1608 28.2396V27.5643C19.1561 26.8986 19.1561 26.889 19.0706 26.9937C19.0184 27.0555 18.8901 27.26 18.7857 27.455C18.6812 27.6499 18.5719 27.8211 18.5482 27.8354C18.496 27.8687 18.3202 27.8021 18.1968 27.7022C18.116 27.6404 18.1303 27.5976 18.4722 26.9746C18.9899 26.0425 19.0659 25.9141 19.0944 25.9141C19.1038 25.9141 19.2178 25.9665 19.3461 26.033ZM28.5166 26.1947C28.6068 26.3659 28.5688 26.423 28.2791 26.5514C28.1224 26.618 27.9799 26.7083 27.9609 26.7511C27.9277 26.8415 28.0654 27.1506 28.1367 27.1506C28.1651 27.1506 28.2696 27.1078 28.3741 27.0555C28.6068 26.9366 28.6923 26.9366 28.754 27.0507C28.8348 27.2029 28.811 27.2314 28.5403 27.3598C28.3836 27.4312 28.2791 27.5073 28.2791 27.5548C28.2791 27.6594 28.4121 27.9115 28.4738 27.9115C28.4976 27.9115 28.6448 27.8592 28.8015 27.7926C28.9582 27.726 29.115 27.6737 29.1577 27.6737C29.2384 27.6737 29.3097 27.8972 29.2479 27.9591C29.2242 27.9781 28.9582 28.1065 28.6591 28.2349C28.1509 28.4584 28.1082 28.4679 28.0369 28.3966C27.9942 28.349 27.847 28.0494 27.7045 27.7213C27.5668 27.3931 27.4053 27.0317 27.3483 26.9128C27.2676 26.7511 27.2533 26.6845 27.2961 26.6417C27.3483 26.5894 28.3551 26.1186 28.4311 26.1091C28.4501 26.1044 28.4881 26.1472 28.5166 26.1947ZM21.3644 26.9842C21.4594 27.0222 21.5354 27.084 21.5354 27.1221C21.5354 27.1554 21.4784 27.3361 21.4119 27.512C21.3454 27.6927 21.2172 28.0447 21.1317 28.3015C20.956 28.8056 20.8895 28.9577 20.8278 28.9577C20.804 28.9577 20.6901 28.9149 20.5713 28.8626L20.3529 28.7628L20.4716 28.4203C20.5381 28.2301 20.6806 27.8402 20.7803 27.5548C20.8848 27.2647 20.9797 27.0032 20.9892 26.9699C21.0177 26.8938 21.1555 26.8986 21.3644 26.9842ZM27.0634 27.1554C27.1963 27.3123 27.2153 27.4645 27.1346 27.6975C27.0824 27.8402 27.0871 27.8592 27.2581 28.0161C27.4053 28.1493 27.4385 28.2111 27.4433 28.3728C27.448 28.6343 27.3531 28.796 27.1203 28.9102C26.8971 29.0148 25.9473 29.2098 25.8998 29.1575C25.8476 29.1052 25.5151 27.2362 25.5484 27.2029C25.6054 27.1506 26.351 27.0174 26.6502 27.0127C26.9209 27.0079 26.9494 27.0174 27.0634 27.1554ZM23.1501 27.3836C23.435 27.474 23.4588 27.5025 23.3875 27.669C23.3543 27.7498 23.3211 27.8164 23.3163 27.8164C23.3116 27.8164 23.2118 27.7831 23.1026 27.7451C22.8271 27.6499 22.6657 27.6547 22.5185 27.7688C22.3617 27.8925 22.2905 28.1112 22.281 28.5297C22.2715 28.8198 22.2858 28.8816 22.3617 28.9387C22.49 29.0291 22.7987 29.0243 22.8366 28.9292C22.8936 28.777 22.8651 28.6296 22.7654 28.5725C22.6847 28.5297 22.6704 28.4917 22.6942 28.3728C22.7084 28.2919 22.7322 28.2159 22.7464 28.2063C22.7559 28.1968 22.9031 28.2111 23.0789 28.2491C23.3543 28.3015 23.3875 28.3205 23.3875 28.4203C23.3875 28.6058 23.2878 29.2145 23.2403 29.3001C23.1786 29.4143 22.7417 29.4571 22.4282 29.3857C21.7491 29.224 21.5591 28.8341 21.7491 28.0304C21.8251 27.7118 21.9248 27.5548 22.1575 27.3979C22.3 27.298 22.357 27.2885 22.6514 27.3075C22.8366 27.3218 23.0599 27.3551 23.1501 27.3836ZM25.0877 27.5168L25.102 27.6737H24.8265C24.2851 27.6737 24.2471 27.8877 24.7363 28.1398C25.0925 28.3252 25.1875 28.4441 25.2255 28.7675C25.2492 28.9958 25.2444 29.01 25.0687 29.1908C24.8978 29.3572 24.8503 29.381 24.5558 29.4095C24.3754 29.4285 24.1474 29.4285 24.0572 29.4048C23.9004 29.3667 23.8862 29.3477 23.8862 29.1955C23.8862 29.0528 23.9004 29.0338 23.9812 29.0481C24.2329 29.1004 24.5416 29.0624 24.6081 28.9768C24.6651 28.8959 24.6508 28.7104 24.5796 28.6819C24.5606 28.6771 24.4086 28.5915 24.2471 28.4917C23.9289 28.3062 23.815 28.1398 23.815 27.8782C23.8197 27.4978 24.0809 27.3313 24.6698 27.3503L25.0735 27.3646L25.0877 27.5168Z" fill="black"/>
<path d="M25.3917 9.96857C25.3157 10.1208 25.2254 10.5916 25.2539 10.6676C25.3014 10.7913 25.5199 10.758 25.6719 10.6058C25.8523 10.4251 25.8618 10.1731 25.6909 10.0066C25.5579 9.8687 25.4487 9.85444 25.3917 9.96857Z" fill="black"/>
<path d="M27.5668 10.8388C27.4338 11.0243 27.1868 11.576 27.1868 11.6853C27.1868 11.7329 27.2391 11.8233 27.3008 11.8803C27.5383 12.1038 27.7757 11.8898 28.0179 11.2431C28.1414 10.9149 28.1319 10.7675 27.9799 10.7247C27.771 10.6676 27.6665 10.6962 27.5668 10.8388Z" fill="black"/>
<path d="M19.2226 10.8388C19.0754 10.9007 19.0849 11.0148 19.2558 11.2859C19.4173 11.5379 19.5028 11.5522 19.6452 11.3572C19.7307 11.2431 19.7307 11.2193 19.669 11.0624C19.6025 10.9102 19.4648 10.7865 19.3651 10.796C19.3461 10.796 19.2796 10.8151 19.2226 10.8388Z" fill="black"/>
<path d="M22.6752 13.307C22.6752 13.3498 22.8177 13.4211 22.8461 13.3926C22.8556 13.3879 22.8177 13.3546 22.7702 13.3213C22.7179 13.288 22.6752 13.2832 22.6752 13.307Z" fill="black"/>
<path d="M23.1216 13.3355C23.1738 13.3736 23.2356 13.4069 23.2641 13.4069C23.2878 13.4069 23.2688 13.3736 23.2166 13.3355C23.1691 13.2975 23.1073 13.269 23.0789 13.269C23.0551 13.269 23.0741 13.2975 23.1216 13.3355Z" fill="black"/>
<path d="M22.9174 13.4735C22.9269 13.483 22.9886 13.5163 23.0551 13.5448C23.1311 13.5797 23.1406 13.5749 23.0836 13.5305C23.0076 13.4687 22.8509 13.4164 22.9174 13.4735Z" fill="black"/>
<path d="M24.0524 13.502C24.0097 13.5305 24.0049 13.5495 24.0382 13.5495C24.0667 13.5495 24.1094 13.5258 24.1237 13.502C24.1617 13.4449 24.1427 13.4449 24.0524 13.502Z" fill="black"/>
<path d="M24.874 13.7683C24.76 13.8349 24.6698 13.8967 24.6698 13.911C24.6698 13.9395 24.988 13.754 25.0735 13.6827C25.1542 13.6114 25.0782 13.6447 24.874 13.7683Z" fill="black"/>
<path d="M21.3454 13.7873C21.4119 13.8396 21.4974 13.8824 21.5354 13.8824C21.6161 13.8824 21.4737 13.7731 21.3217 13.7255C21.2457 13.697 21.2504 13.7112 21.3454 13.7873Z" fill="black"/>
<path d="M25.3347 13.7398C25.2919 13.7683 25.2872 13.7873 25.3204 13.7873C25.3489 13.7873 25.3917 13.7635 25.4059 13.7398C25.4439 13.6827 25.4249 13.6827 25.3347 13.7398Z" fill="black"/>
<path d="M22.2573 13.8159C22.3047 13.8634 22.3522 13.892 22.3617 13.8777C22.376 13.8634 22.338 13.8254 22.281 13.7921C22.1813 13.7303 22.1813 13.735 22.2573 13.8159Z" fill="black"/>
<path d="M21.0367 13.8539C21.2267 13.9823 22.11 14.5007 22.1433 14.5007C22.1623 14.5007 22.2288 14.5435 22.2953 14.5958C22.3617 14.6481 22.4472 14.6909 22.4852 14.6909C22.5327 14.6909 22.528 14.6719 22.4615 14.6243C22.281 14.5054 21.0225 13.7873 20.9845 13.7873C20.9608 13.7873 20.9845 13.8159 21.0367 13.8539Z" fill="black"/>
<path d="M25.9758 13.8539C25.9236 13.8872 25.7858 13.968 25.6671 14.0346C25.5484 14.1012 25.3157 14.2391 25.1447 14.3437C24.9737 14.4436 24.7933 14.5482 24.741 14.5672C24.6888 14.591 24.6698 14.6148 24.6983 14.6243C24.741 14.6433 25.0307 14.4912 25.4772 14.2153C25.5151 14.1916 25.6814 14.0964 25.8476 14.0013C26.0091 13.9062 26.142 13.8206 26.142 13.8111C26.142 13.7683 26.066 13.7873 25.9758 13.8539Z" fill="black"/>
<path d="M22.7227 13.8539C22.7227 13.8634 22.7559 13.8872 22.7987 13.9015C22.8366 13.9157 22.8556 13.911 22.8414 13.8824C22.8129 13.8349 22.7227 13.8159 22.7227 13.8539Z" fill="black"/>
<path d="M25.4297 13.9348L25.3109 14.0299L25.4677 13.9538C25.5484 13.9157 25.6196 13.8682 25.6196 13.8587C25.6196 13.8111 25.5436 13.8396 25.4297 13.9348Z" fill="black"/>
<path d="M20.823 13.9823C20.9465 14.0679 21.1555 14.1725 21.1555 14.1488C21.1555 14.1202 20.842 13.93 20.7945 13.93C20.7708 13.93 20.785 13.9538 20.823 13.9823Z" fill="black"/>
<path d="M21.6351 13.949C21.7206 14.0203 22.1148 14.2248 22.091 14.182C22.0578 14.1297 21.7016 13.93 21.6446 13.93C21.6304 13.93 21.6256 13.9395 21.6351 13.949Z" fill="black"/>
<path d="M24.4703 14.0061C24.3944 14.0441 24.3374 14.0869 24.3374 14.0964C24.3374 14.144 24.4134 14.1155 24.5273 14.0251C24.6698 13.9157 24.6461 13.9062 24.4703 14.0061Z" fill="black"/>
<path d="M26.1183 14.0204C26.0423 14.0679 25.6909 14.2724 25.3442 14.4769C24.9975 14.6766 24.722 14.8526 24.7363 14.8669C24.7505 14.8811 24.8693 14.8241 25.0022 14.7432C25.1352 14.6624 25.2492 14.5958 25.2587 14.5958C25.2729 14.5958 25.4534 14.4864 25.6624 14.358C25.8713 14.2248 26.0565 14.1202 26.0755 14.1202C26.0898 14.1202 26.1563 14.0774 26.2228 14.0251C26.3747 13.9062 26.313 13.9062 26.1183 14.0204Z" fill="black"/>
<path d="M23.4445 14.2106C23.3875 14.3104 23.3401 14.4056 23.3401 14.4246C23.3401 14.4388 23.4588 14.4531 23.6013 14.4531H23.8625L23.758 14.2391C23.701 14.1202 23.6297 14.0251 23.6013 14.0251C23.5728 14.0251 23.5015 14.106 23.4445 14.2106Z" fill="black"/>
<path d="M20.5903 14.0917C20.6616 14.1583 21.2647 14.5007 21.2789 14.4864C21.3074 14.4579 20.6901 14.0727 20.6236 14.0727C20.5951 14.0727 20.5808 14.0822 20.5903 14.0917Z" fill="black"/>
<path d="M25.0782 14.144C25.026 14.182 25.0022 14.2153 25.0307 14.2153C25.0545 14.2153 25.1162 14.182 25.1637 14.144C25.216 14.106 25.2397 14.0727 25.2112 14.0727C25.1875 14.0727 25.1257 14.106 25.0782 14.144Z" fill="black"/>
<path d="M26.2845 14.1916C26.1943 14.2534 26.0945 14.3057 26.066 14.3057C26.0375 14.3104 25.9806 14.3485 25.9473 14.3913C25.8856 14.4674 26.389 14.2153 26.4982 14.1155C26.5884 14.0299 26.4507 14.0774 26.2845 14.1916Z" fill="black"/>
<path d="M21.203 14.1915C21.203 14.2011 21.2504 14.2391 21.3122 14.2676C21.4072 14.3199 21.4119 14.3199 21.3502 14.2486C21.2884 14.1725 21.203 14.1392 21.203 14.1915Z" fill="black"/>
<path d="M26.2798 14.4341C26.0328 14.5815 25.6766 14.7955 25.4867 14.9097C25.2967 15.0238 25.1257 15.1189 25.102 15.1189C25.0782 15.1189 25.0355 15.1522 25.0022 15.1902C24.912 15.2996 25.0165 15.2758 25.2112 15.1427C25.3062 15.0761 25.6671 14.8621 26.0138 14.6576C26.5789 14.3295 26.8259 14.1678 26.7547 14.1678C26.7404 14.1678 26.5267 14.2867 26.2798 14.4341Z" fill="black"/>
<path d="M22.2003 14.2534C22.2003 14.2772 22.2525 14.32 22.319 14.3485C22.3855 14.377 22.4377 14.396 22.4377 14.3865C22.4377 14.377 22.3855 14.3342 22.319 14.2914C22.2525 14.2486 22.2003 14.2296 22.2003 14.2534Z" fill="black"/>
<path d="M24.8123 14.2867C24.7315 14.3342 24.7173 14.3532 24.7695 14.358C24.8123 14.358 24.874 14.3247 24.9073 14.2867C24.9785 14.2011 24.9642 14.2011 24.8123 14.2867Z" fill="black"/>
<path d="M20.1914 14.3152C20.2246 14.3485 20.2626 14.3628 20.2769 14.3485C20.2911 14.3342 20.2674 14.3057 20.2199 14.2914C20.1534 14.2629 20.1487 14.2676 20.1914 14.3152Z" fill="black"/>
<path d="M21.5069 14.3818C21.5591 14.4198 21.6209 14.4531 21.6494 14.4531C21.6731 14.4531 21.6541 14.4198 21.6019 14.3818C21.5544 14.3437 21.4927 14.3152 21.4642 14.3152C21.4404 14.3152 21.4594 14.3437 21.5069 14.3818Z" fill="black"/>
<path d="M22.5185 14.4579C22.5517 14.4912 22.5897 14.5054 22.6039 14.4912C22.6182 14.4769 22.5944 14.4484 22.547 14.4341C22.4805 14.4056 22.4757 14.4103 22.5185 14.4579Z" fill="black"/>
<path d="M24.5511 14.4531C24.5368 14.4816 24.5558 14.4864 24.5938 14.4721C24.6793 14.4388 24.6935 14.4056 24.6271 14.4056C24.5986 14.4056 24.5653 14.4246 24.5511 14.4531Z" fill="black"/>
<path d="M21.7254 14.4912C21.7254 14.5149 21.7776 14.5577 21.8441 14.5863C21.9106 14.6148 21.9628 14.6338 21.9628 14.6243C21.9628 14.6148 21.9106 14.572 21.8441 14.5292C21.7776 14.4864 21.7254 14.4674 21.7254 14.4912Z" fill="black"/>
<path d="M25.5721 14.61C25.4297 14.6909 25.2587 14.7908 25.1922 14.824C25.1257 14.8573 25.0212 14.9287 24.9548 14.981C24.874 15.0476 24.912 15.038 25.0735 14.9477C25.6149 14.6528 25.9236 14.4531 25.8476 14.4531C25.8381 14.4531 25.7146 14.5244 25.5721 14.61Z" fill="black"/>
<path d="M27.0206 14.4959C26.9921 14.5197 26.8876 14.5863 26.7832 14.6433C26.1468 14.9905 25.1922 15.5612 25.2112 15.5802C25.2397 15.6087 25.5721 15.4328 26.0091 15.1617C26.2133 15.0333 26.389 14.9287 26.3985 14.9287C26.4317 14.9287 27.1393 14.4912 27.1393 14.4721C27.1393 14.4388 27.0634 14.4531 27.0206 14.4959Z" fill="black"/>
<path d="M21.3454 14.5244C21.3454 14.5482 21.5734 14.6861 22.1148 14.9953C22.2478 15.0713 22.3427 15.1046 22.3237 15.0761C22.3047 15.0476 22.1908 14.9667 22.0673 14.9001C21.9438 14.8288 21.7444 14.7099 21.6256 14.6338C21.4119 14.5054 21.3454 14.4769 21.3454 14.5244Z" fill="black"/>
<path d="M20.6331 14.5672C20.6331 14.5815 20.6758 14.6148 20.728 14.6433C20.7803 14.6719 20.823 14.6814 20.823 14.6719C20.823 14.6576 20.7803 14.6243 20.728 14.5958C20.6758 14.5672 20.6331 14.5577 20.6331 14.5672Z" fill="black"/>
<path d="M27.2581 14.6148C27.2058 14.6433 26.9969 14.767 26.7927 14.8906C26.5884 15.019 26.4127 15.1189 26.3985 15.1189C26.389 15.1189 26.2418 15.1997 26.0803 15.2996C25.9188 15.4042 25.6861 15.5422 25.5626 15.6135C25.4392 15.6801 25.3252 15.7609 25.3062 15.7894C25.2682 15.856 25.3822 15.7942 25.9521 15.4518C26.199 15.3044 26.6169 15.0571 26.8781 14.9049C27.4053 14.6005 27.4005 14.6005 27.372 14.5815C27.3626 14.572 27.3103 14.5863 27.2581 14.6148Z" fill="black"/>
<path d="M23.0884 14.7717C23.0266 14.8716 22.9031 15.0951 22.8177 15.2616C22.6467 15.604 22.0483 16.6502 21.7681 17.0925C21.4832 17.5538 21.2694 18.0103 21.3264 18.0674C21.3502 18.0912 21.7681 18.2243 22.2478 18.3575C22.7322 18.4906 23.2213 18.6285 23.3401 18.6666C23.6345 18.7569 23.6677 18.7569 24.2471 18.5667C24.5321 18.4764 24.7933 18.4003 24.8265 18.4003C24.9073 18.4003 25.8571 18.0864 25.8951 18.0484C25.9283 18.0103 25.7574 17.6774 25.3584 16.9974C25.1732 16.6835 24.9263 16.2602 24.8075 16.051C24.6936 15.8465 24.5416 15.5802 24.4703 15.4566C24.3991 15.3377 24.2946 15.1522 24.2424 15.0476C24.0334 14.6481 24.0097 14.6291 23.587 14.6053L23.2071 14.5863L23.0884 14.7717ZM24.0999 15.6135C24.0999 15.6468 24.0524 15.7086 23.9954 15.7466C23.8957 15.8132 23.8862 15.856 23.8577 16.7406C23.834 17.4682 23.815 17.6964 23.7485 17.8153C23.6298 18.0484 23.4635 18.134 23.1406 18.1387C22.8794 18.1387 22.8461 18.1244 22.7179 17.9818C22.4995 17.7392 22.5517 17.4967 22.8177 17.4967C22.8889 17.4967 22.9839 17.5395 23.0266 17.5871C23.1073 17.6727 23.1074 17.6917 23.0409 17.8248C22.9934 17.9231 23.014 17.9723 23.1026 17.9723C23.1928 17.9723 23.2593 17.939 23.2926 17.8819C23.3211 17.8248 23.3401 17.3921 23.3401 16.8119V15.8322L23.2213 15.7562C22.9839 15.5992 23.0789 15.5612 23.6867 15.5517C24.0097 15.5469 24.0999 15.5612 24.0999 15.6135Z" fill="black"/>
<path d="M22.0103 14.6624C22.0103 14.6957 22.3522 14.8859 22.376 14.8669C22.3855 14.8526 22.319 14.8003 22.224 14.7432C22.053 14.6433 22.0103 14.6291 22.0103 14.6624Z" fill="black"/>
<path d="M27.3531 14.8145C27.3008 14.8573 27.1631 14.9429 27.0444 15.0048C26.9256 15.0666 26.7547 15.1665 26.6644 15.2188C26.5742 15.2758 26.294 15.4375 26.047 15.5802C25.3964 15.9606 25.3727 15.9797 25.4012 16.0082C25.4107 16.0225 25.6861 15.875 26.0091 15.6848C26.3272 15.4898 26.6644 15.2901 26.7594 15.2378C27.0919 15.0476 27.5193 14.7765 27.5193 14.7575C27.5193 14.7194 27.448 14.7432 27.3531 14.8145Z" fill="black"/>
<path d="M19.4458 14.8336C19.4458 14.8573 19.4695 14.8811 19.498 14.8811C19.5218 14.8811 19.5313 14.8573 19.517 14.8336C19.5028 14.805 19.479 14.786 19.4648 14.786C19.4553 14.786 19.4458 14.805 19.4458 14.8336Z" fill="black"/>
<path d="M19.8257 14.8003C19.8257 14.8336 20.1677 15.0285 20.1866 15.0095C20.1961 15 20.1202 14.9429 20.0157 14.8859C19.9112 14.8288 19.8257 14.7908 19.8257 14.8003Z" fill="black"/>
<path d="M21.4737 15.0761C21.5069 15.1094 21.5449 15.1237 21.5591 15.1094C21.5734 15.0951 21.5496 15.0666 21.5021 15.0523C21.4357 15.0238 21.4309 15.0285 21.4737 15.0761Z" fill="black"/>
<path d="M27.7567 15.0713C27.6617 15.1332 26.4032 15.875 26.1895 15.9987C25.7621 16.2412 25.6196 16.3363 25.6196 16.3649C25.6196 16.3839 25.7574 16.3173 25.9283 16.2127C26.0993 16.1081 26.2465 16.0225 26.2608 16.0225C26.2703 16.0225 26.541 15.8655 26.8639 15.6753C27.1868 15.4851 27.5383 15.2758 27.6522 15.214C27.7615 15.1522 27.8517 15.0856 27.8517 15.0618C27.8517 15.0143 27.847 15.019 27.7567 15.0713Z" fill="black"/>
<path d="M19.897 15.1189C19.9112 15.1427 19.9492 15.1665 19.9729 15.1665C20.0014 15.1665 20.0062 15.1427 19.9919 15.1189C19.9777 15.0904 19.9397 15.0713 19.9159 15.0713C19.8875 15.0713 19.8827 15.0904 19.897 15.1189Z" fill="black"/>
<path d="M19.2083 15.176C19.2891 15.2568 21.3312 16.479 21.4689 16.5266C21.6826 16.6026 21.4024 16.4219 20.3481 15.8085C19.0611 15.0523 19.1181 15.0856 19.2083 15.176Z" fill="black"/>
<path d="M20.3956 15.1379C20.3956 15.176 20.8753 15.4613 20.899 15.4375C20.9133 15.4233 20.8705 15.3852 20.8088 15.3472C20.747 15.3139 20.6236 15.2473 20.5428 15.1997C20.4621 15.1522 20.3956 15.1236 20.3956 15.1379Z" fill="black"/>
<path d="M20.1202 15.2425C20.1677 15.2901 20.2151 15.3139 20.2341 15.2996C20.2484 15.2806 20.2104 15.2425 20.1487 15.214C20.079 15.176 20.0695 15.1855 20.1202 15.2425Z" fill="black"/>
<path d="M27.828 15.2806C27.5383 15.4708 25.9426 16.4029 25.9093 16.4029C25.8903 16.4029 25.8333 16.4505 25.7811 16.5028L25.6909 16.6074L25.8523 16.5266C25.9378 16.479 26.123 16.3696 26.2655 16.2793C26.4032 16.1889 26.5315 16.1176 26.5457 16.1176C26.5647 16.1176 26.9826 15.8703 27.4243 15.5945C27.4623 15.5707 27.562 15.5184 27.638 15.4756C27.8185 15.3805 28.0322 15.214 27.9704 15.2188C27.9467 15.2188 27.8802 15.2473 27.828 15.2806Z" fill="black"/>
<path d="M19.0184 15.3329C19.0184 15.3519 20.0774 15.9939 20.5381 16.2507C20.6568 16.3173 20.8088 16.4077 20.88 16.4552C20.9465 16.5075 21.0177 16.5456 21.0367 16.5456C21.0557 16.5456 21.1317 16.5884 21.2125 16.6455C21.2884 16.7025 21.3644 16.7358 21.3787 16.7215C21.4072 16.693 21.0985 16.4885 20.728 16.2935C20.5856 16.2174 20.4336 16.1223 20.3909 16.089C20.3529 16.051 20.3054 16.0225 20.2911 16.0225C20.2769 16.0225 20.1249 15.9369 19.9634 15.8322C19.7972 15.7276 19.6262 15.6277 19.5883 15.6087C19.5503 15.5897 19.4173 15.5184 19.2986 15.4423C19.0849 15.3139 19.0184 15.2853 19.0184 15.3329Z" fill="black"/>
<path d="M20.3576 15.3852C20.4051 15.4328 20.4526 15.4565 20.4716 15.4423C20.4858 15.4233 20.4478 15.3852 20.3861 15.3567C20.3165 15.3186 20.307 15.3281 20.3576 15.3852Z" fill="black"/>
<path d="M19.9207 15.3757C19.9207 15.3852 19.9539 15.409 19.9967 15.4233C20.0347 15.4375 20.0537 15.4328 20.0394 15.4042C20.0109 15.3567 19.9207 15.3377 19.9207 15.3757Z" fill="black"/>
<path d="M27.828 15.5421C27.6712 15.642 27.1916 15.9274 26.7594 16.1794C26.3272 16.4314 25.9331 16.6692 25.8808 16.712C25.7526 16.8119 26.3605 16.4885 26.8212 16.2032C27.0254 16.0795 27.2011 15.9749 27.2106 15.9749C27.2391 15.9749 28.1082 15.4518 28.1557 15.4042C28.2554 15.3044 28.1034 15.3709 27.828 15.5421Z" fill="black"/>
<path d="M20.5381 15.4661C20.5381 15.4946 20.9085 15.7371 20.9418 15.7371C20.9607 15.7371 20.956 15.7134 20.9418 15.6896C20.9085 15.6373 20.5381 15.4375 20.5381 15.4661Z" fill="black"/>
<path d="M21.0367 15.5231C21.089 15.5659 21.1745 15.623 21.2267 15.6468L21.3217 15.6943L21.2267 15.6182C21.1745 15.5754 21.089 15.5184 21.0367 15.4946L20.9418 15.447L21.0367 15.5231Z" fill="black"/>
<path d="M18.9424 15.5421C18.9566 15.5612 19.1751 15.7038 19.4315 15.8513C19.9824 16.1699 19.9539 16.1556 20.3481 16.3934C20.5191 16.498 20.766 16.6407 20.8943 16.712C21.0272 16.7834 21.1602 16.8642 21.1935 16.8927C21.2267 16.9165 21.2647 16.9308 21.2789 16.9165C21.2884 16.9023 20.9655 16.693 20.5523 16.4505C20.1392 16.2079 19.612 15.8941 19.3793 15.7561C18.9519 15.4946 18.8996 15.4661 18.9424 15.5421Z" fill="black"/>
<path d="M28.1129 15.642C28.0987 15.6705 28.1177 15.6753 28.1556 15.661C28.2411 15.6277 28.2554 15.5945 28.1889 15.5945C28.1604 15.5945 28.1272 15.6135 28.1129 15.642Z" fill="black"/>
<path d="M21.4452 15.7704C21.5971 15.8846 21.7633 15.9749 21.8061 15.9749C21.8488 15.9749 21.4072 15.6896 21.3644 15.6896C21.3454 15.6896 21.3834 15.7276 21.4452 15.7704Z" fill="black"/>
<path d="M28.1841 15.837C28.0654 15.9131 27.9989 15.9749 28.0322 15.9749C28.0654 15.9749 28.1604 15.9273 28.2459 15.8703C28.3314 15.8085 28.4074 15.7561 28.4169 15.7514C28.4264 15.7419 28.4264 15.7276 28.4169 15.7181C28.4074 15.7086 28.3029 15.7609 28.1841 15.837Z" fill="black"/>
<path d="M21.0367 15.7799C21.0557 15.8132 21.1175 15.8608 21.1697 15.8846C21.2267 15.9083 21.3597 15.9797 21.4642 16.0462C21.6494 16.1604 21.7918 16.2079 21.7016 16.1271C21.6019 16.0367 21.0035 15.7276 21.0367 15.7799Z" fill="black"/>
<path d="M18.6859 15.8988C18.8047 16.013 19.3033 16.265 19.3033 16.2127C19.3033 16.1889 19.2796 16.1651 19.2558 16.1651C19.2273 16.1651 19.0849 16.089 18.9424 15.9987C18.6764 15.8275 18.5672 15.7847 18.6859 15.8988Z" fill="black"/>
<path d="M28.3979 15.9749C28.3836 16.0034 28.4026 16.0082 28.4406 15.9939C28.5261 15.9606 28.5403 15.9274 28.4738 15.9274C28.4453 15.9274 28.4121 15.9464 28.3979 15.9749Z" fill="black"/>
<path d="M18.496 16.0415C18.496 16.0558 18.6194 16.1318 18.7714 16.2174C18.9186 16.303 19.4363 16.6074 19.9159 16.888C20.9513 17.5015 20.9845 17.5205 20.9465 17.4587C20.9228 17.4159 20.7755 17.3255 19.8257 16.7691C19.6025 16.6359 19.3461 16.4838 19.2558 16.4267C19.0184 16.2793 18.553 16.0225 18.5245 16.0225C18.5055 16.0225 18.496 16.032 18.496 16.0415Z" fill="black"/>
<path d="M27.5905 16.1937C27.4338 16.284 27.2723 16.3696 27.2343 16.3886C27.1963 16.4029 27.1298 16.4457 27.0918 16.4742C27.0539 16.5075 26.9161 16.5931 26.7832 16.6645C26.5789 16.7739 26.351 16.907 26.0945 17.0639C26.0565 17.0877 26.0328 17.121 26.047 17.1305C26.0613 17.1448 26.3177 17.0069 26.6169 16.8214C26.9161 16.6407 27.2058 16.4695 27.2581 16.4457C27.3103 16.4219 27.448 16.3411 27.5668 16.265C27.6855 16.1889 27.809 16.1223 27.8422 16.1223C27.8707 16.1176 27.8992 16.0938 27.8992 16.07C27.8992 16.0082 27.9229 15.9987 27.5905 16.1937Z" fill="black"/>
<path d="M27.8755 16.265C27.6665 16.3934 27.3388 16.5884 27.1488 16.6978C26.9541 16.8119 26.6882 16.9641 26.5505 17.0449C26.4175 17.121 26.2655 17.2161 26.2133 17.2494C26.123 17.3065 26.123 17.3112 26.2323 17.278C26.2987 17.2637 26.4602 17.1733 26.5979 17.0877C26.7357 16.9974 26.8639 16.926 26.8781 16.926C26.8924 16.926 27.0729 16.8167 27.2818 16.6883C27.4908 16.5551 27.6807 16.4505 27.7092 16.4505C27.733 16.4505 27.7567 16.4362 27.7567 16.4124C27.7567 16.3934 27.8375 16.3411 27.9372 16.2935C28.1319 16.1984 28.3741 16.0225 28.3029 16.0272C28.2791 16.0272 28.0844 16.1366 27.8755 16.265Z" fill="black"/>
<path d="M28.5641 16.1223C28.5261 16.1414 28.3171 16.2698 28.1034 16.4029C27.8849 16.5313 27.6997 16.6407 27.6855 16.6407C27.6665 16.6407 27.3578 16.8262 27.0681 17.0116C27.0159 17.0402 26.9399 17.083 26.9019 17.102C26.8639 17.121 26.7024 17.2161 26.5457 17.3207C26.161 17.5728 26.351 17.5015 26.8259 17.2161C27.0396 17.0925 27.5335 16.7976 27.9229 16.5694C28.3171 16.3363 28.6448 16.1414 28.6543 16.1318C28.7018 16.0938 28.6306 16.0843 28.5641 16.1223Z" fill="black"/>
<path d="M18.3535 16.2032C18.3535 16.227 18.477 16.3126 18.6289 16.3982C18.7762 16.479 19.0374 16.6312 19.2083 16.7358C19.3793 16.8404 19.5503 16.9403 19.5883 16.9546C19.6263 16.9736 19.7735 17.0592 19.9112 17.1495C20.0489 17.2351 20.1676 17.3065 20.1819 17.3065C20.1961 17.3065 20.3434 17.3921 20.5143 17.4967C20.6853 17.6013 20.823 17.6679 20.823 17.6489C20.823 17.6156 20.5713 17.4539 20.1582 17.2256C20.0679 17.1733 19.6737 16.9403 19.2796 16.7025C18.4057 16.1794 18.3535 16.1509 18.3535 16.2032Z" fill="black"/>
<path d="M21.3929 16.2317C21.3929 16.246 21.4357 16.2793 21.4879 16.3078C21.5401 16.3363 21.5829 16.3458 21.5829 16.3363C21.5829 16.3221 21.5401 16.2888 21.4879 16.2602C21.4357 16.2317 21.3929 16.2222 21.3929 16.2317Z" fill="black"/>
<path d="M19.3508 16.2745C19.3508 16.2983 19.6737 16.498 19.7117 16.498C19.7877 16.498 19.707 16.4124 19.5788 16.3554C19.4933 16.3221 19.4078 16.284 19.3888 16.2698C19.365 16.2602 19.3508 16.265 19.3508 16.2745Z" fill="black"/>
<path d="M18.3297 16.4505C18.344 16.4743 18.3677 16.498 18.382 16.498C18.3915 16.498 18.401 16.4743 18.401 16.4505C18.401 16.4219 18.3772 16.4029 18.3487 16.4029C18.325 16.4029 18.3155 16.4219 18.3297 16.4505Z" fill="black"/>
<path d="M28.4453 16.4505C28.4311 16.479 28.4501 16.4838 28.4881 16.4695C28.5736 16.4362 28.5878 16.4029 28.5213 16.4029C28.4928 16.4029 28.4596 16.4219 28.4453 16.4505Z" fill="black"/>
<path d="M19.802 16.5456C19.8447 16.6122 20.1107 16.7453 20.1107 16.7025C20.1107 16.6787 20.0347 16.6264 19.9397 16.5789C19.8495 16.5361 19.783 16.517 19.802 16.5456Z" fill="black"/>
<path d="M28.6496 16.5741C28.5736 16.6122 28.5166 16.655 28.5166 16.6645C28.5166 16.712 28.5926 16.6835 28.7065 16.5931C28.849 16.4838 28.8253 16.4742 28.6496 16.5741Z" fill="black"/>
<path d="M18.1635 16.5789C18.1683 16.5979 18.477 16.7976 18.8569 17.0211C19.2368 17.2447 19.6595 17.4919 19.7925 17.568C19.9302 17.6489 20.1676 17.782 20.3244 17.8676C20.8135 18.134 20.4526 17.8867 19.7307 17.4634C19.3508 17.2399 18.8616 16.9498 18.6384 16.8166C18.135 16.517 18.1635 16.5313 18.1635 16.5789Z" fill="black"/>
<path d="M18.5909 16.5931C18.7572 16.7073 18.8474 16.7406 18.7334 16.6454C18.6669 16.5931 18.5957 16.5456 18.5672 16.5456C18.5435 16.5456 18.553 16.5694 18.5909 16.5931Z" fill="black"/>
<path d="M26.4555 16.6169C26.4032 16.655 26.3842 16.6883 26.4127 16.6883C26.4412 16.6883 26.4887 16.655 26.522 16.6169C26.5979 16.5266 26.5742 16.5266 26.4555 16.6169Z" fill="black"/>
<path d="M28.6353 16.8357C28.4786 16.9355 28.3694 17.0211 28.3931 17.0211C28.4406 17.0211 28.9915 16.693 28.9915 16.6597C28.9915 16.6169 28.906 16.655 28.6353 16.8357Z" fill="black"/>
<path d="M28.3456 16.7596C28.2981 16.7976 28.2791 16.8309 28.3076 16.8309C28.3361 16.8309 28.3884 16.7976 28.4216 16.7596C28.4976 16.6692 28.4643 16.6692 28.3456 16.7596Z" fill="black"/>
<path d="M18.0685 16.7691C18.0685 16.7929 18.1588 16.8642 18.2728 16.926C18.382 16.9879 18.9139 17.3017 19.46 17.6251C20.0014 17.9485 20.4716 18.21 20.5048 18.21C20.5333 18.21 20.4811 18.1625 20.3861 18.1007C20.1154 17.939 19.6785 17.6822 19.4933 17.5776C19.2558 17.4444 18.3012 16.8785 18.1778 16.7929C18.116 16.7548 18.0685 16.7453 18.0685 16.7691Z" fill="black"/>
<path d="M20.1629 16.7501C20.1724 16.7548 20.2246 16.7929 20.2769 16.8309C20.337 16.8753 20.3465 16.8706 20.3054 16.8167C20.2721 16.7739 20.2199 16.7358 20.1914 16.7358C20.1629 16.7358 20.1534 16.7406 20.1629 16.7501Z" fill="black"/>
<path d="M25.9996 16.8785C25.9568 16.907 25.9521 16.926 25.9853 16.926C26.0138 16.926 26.0565 16.9023 26.0708 16.8785C26.1088 16.8214 26.0898 16.8214 25.9996 16.8785Z" fill="black"/>
<path d="M28.1367 16.8785C28.0939 16.907 28.0892 16.926 28.1224 16.926C28.1509 16.926 28.1936 16.9023 28.2079 16.8785C28.2459 16.8214 28.2269 16.8214 28.1367 16.8785Z" fill="black"/>
<path d="M28.944 16.8975C28.8775 16.9308 28.4928 17.1591 28.0892 17.3968C27.6855 17.6394 27.2058 17.9247 27.0301 18.0293C26.8544 18.134 26.7167 18.2338 26.7262 18.2433C26.7404 18.2528 26.9921 18.1197 27.2866 17.9437C27.5858 17.7678 28.0084 17.5205 28.2316 17.3873C28.4548 17.2589 28.7303 17.0972 28.849 17.0307C29.1055 16.8832 29.1102 16.8832 29.0817 16.8547C29.0675 16.8452 29.0057 16.8642 28.944 16.8975Z" fill="black"/>
<path d="M19.1371 16.926C19.1513 16.9498 19.1751 16.9736 19.1893 16.9736C19.1988 16.9736 19.2083 16.9498 19.2083 16.926C19.2083 16.8975 19.1846 16.8785 19.1561 16.8785C19.1323 16.8785 19.1228 16.8975 19.1371 16.926Z" fill="black"/>
<path d="M20.3956 16.8975C20.3956 16.926 20.8088 17.1638 20.8515 17.1638C20.8705 17.1638 20.7898 17.0972 20.6663 17.0211C20.4431 16.8832 20.3956 16.8595 20.3956 16.8975Z" fill="black"/>
<path d="M27.638 16.926C27.6237 16.9546 27.6427 16.9593 27.6807 16.9451C27.7662 16.9118 27.7805 16.8785 27.714 16.8785C27.6855 16.8785 27.6522 16.8975 27.638 16.926Z" fill="black"/>
<path d="M17.9973 16.9974C18.0495 17.0402 18.2965 17.1971 18.5435 17.3445C18.7904 17.4872 19.2036 17.7345 19.4648 17.8914C20.1439 18.3004 20.3529 18.4098 20.3814 18.386C20.3909 18.3717 20.2674 18.2814 20.1012 18.191C19.9349 18.0959 19.7687 17.996 19.7307 17.9723C19.2131 17.6394 17.8406 16.869 17.9973 16.9974Z" fill="black"/>
<path d="M20.9702 16.9879C20.9797 16.9926 21.032 17.0307 21.0842 17.0687C21.1444 17.1131 21.1539 17.1083 21.1127 17.0544C21.0795 17.0116 21.0272 16.9736 20.9987 16.9736C20.9702 16.9736 20.9607 16.9783 20.9702 16.9879Z" fill="black"/>
<path d="M27.4955 17.2399C27.2628 17.3873 26.9826 17.549 26.8781 17.6061C26.7737 17.6632 26.6454 17.7488 26.5932 17.8011C26.503 17.8819 26.5077 17.8819 26.6644 17.7963C26.7547 17.7488 26.9209 17.6489 27.0349 17.5775C27.1488 17.5062 27.2866 17.4254 27.3436 17.4016C27.4005 17.3731 27.4908 17.3255 27.5383 17.297C27.5905 17.2637 27.7282 17.1781 27.847 17.102C27.9657 17.0307 28.0274 16.9736 27.9894 16.9783C27.9562 16.9783 27.733 17.0972 27.4955 17.2399Z" fill="black"/>
<path d="M28.1367 17.1258C28.0464 17.1828 27.9277 17.2494 27.8755 17.2827C27.6238 17.4254 27.4243 17.5538 27.4243 17.5775C27.4243 17.6013 27.4053 17.6108 27.8897 17.3303C28.1082 17.2019 28.2934 17.083 28.3076 17.0592C28.3409 17.0069 28.3314 17.0116 28.1367 17.1258Z" fill="black"/>
<path d="M19.4458 17.0877C19.4458 17.102 19.4885 17.1353 19.5408 17.1638C19.593 17.1923 19.6357 17.2019 19.6357 17.1923C19.6357 17.1781 19.593 17.1448 19.5408 17.1163C19.4885 17.0877 19.4458 17.0782 19.4458 17.0877Z" fill="black"/>
<path d="M27.3293 17.1163C27.2866 17.1448 27.2818 17.1638 27.3151 17.1638C27.3436 17.1638 27.3863 17.14 27.4005 17.1163C27.4385 17.0592 27.4195 17.0592 27.3293 17.1163Z" fill="black"/>
<path d="M17.8786 17.1876C17.8786 17.1971 17.9498 17.2447 18.0353 17.2827L18.1873 17.3588L18.0733 17.2589C17.9688 17.1686 17.8786 17.1353 17.8786 17.1876Z" fill="black"/>
<path d="M28.8728 17.2114C28.8585 17.2351 28.868 17.2589 28.8918 17.2589C28.9203 17.2589 28.944 17.2351 28.944 17.2114C28.944 17.1828 28.9345 17.1638 28.925 17.1638C28.9108 17.1638 28.887 17.1828 28.8728 17.2114Z" fill="black"/>
<path d="M19.7165 17.2637C19.7497 17.297 19.7877 17.3112 19.802 17.297C19.8162 17.2827 19.7925 17.2542 19.745 17.2399C19.6785 17.2114 19.6737 17.2161 19.7165 17.2637Z" fill="black"/>
<path d="M20.918 17.2304C20.918 17.2399 20.9513 17.2589 20.9892 17.2779C21.0272 17.2922 21.0605 17.2827 21.0605 17.2589C21.0605 17.2304 21.0272 17.2114 20.9892 17.2114C20.9513 17.2114 20.918 17.2209 20.918 17.2304Z" fill="black"/>
<path d="M29.039 17.354C28.9725 17.4063 28.9013 17.4491 28.8728 17.4491C28.8205 17.4539 28.5688 17.6346 28.6211 17.6394C28.6591 17.6394 29.2289 17.3017 29.2289 17.2779C29.2289 17.2351 29.1482 17.2684 29.039 17.354Z" fill="black"/>
<path d="M17.8311 17.3968C17.8311 17.4159 17.8786 17.4587 17.9403 17.4872C17.9973 17.5157 18.154 17.6061 18.2823 17.6869C18.4152 17.763 18.553 17.8439 18.5909 17.8629C18.6289 17.8819 18.7714 17.9628 18.8996 18.0436C19.0326 18.1244 19.1703 18.21 19.2083 18.2291C19.2463 18.2481 19.3223 18.2861 19.3745 18.3194C19.9159 18.6523 20.1629 18.7902 20.1819 18.7712C20.2009 18.7569 19.1656 18.1244 18.7097 17.8724C18.6337 17.8296 18.401 17.6964 18.2015 17.5776C17.9973 17.4587 17.8311 17.3778 17.8311 17.3968Z" fill="black"/>
<path d="M18.211 17.3778C18.211 17.3873 18.2823 17.4349 18.3677 17.4729L18.5197 17.549L18.401 17.4539C18.287 17.3588 18.211 17.3303 18.211 17.3778Z" fill="black"/>
<path d="M19.9872 17.4254C20.0394 17.4634 20.1012 17.4967 20.1297 17.4967C20.1534 17.4967 20.1344 17.4634 20.0822 17.4254C20.0347 17.3873 19.9729 17.3588 19.9444 17.3588C19.9207 17.3588 19.9397 17.3873 19.9872 17.4254Z" fill="black"/>
<path d="M26.7309 17.4777C26.6454 17.5443 26.6454 17.549 26.7499 17.4967C26.8069 17.4682 26.8544 17.4349 26.8544 17.4254C26.8544 17.3873 26.8306 17.3968 26.7309 17.4777Z" fill="black"/>
<path d="M29.172 17.5252C29.096 17.5633 29.039 17.6061 29.039 17.6156C29.039 17.6632 29.115 17.6346 29.2289 17.5443C29.3714 17.4349 29.3477 17.4254 29.172 17.5252Z" fill="black"/>
<path d="M18.5435 17.5633C18.5435 17.5775 18.5862 17.6108 18.6384 17.6394C18.6907 17.6679 18.7334 17.6774 18.7334 17.6679C18.7334 17.6536 18.6907 17.6203 18.6384 17.5918C18.5862 17.5633 18.5435 17.5538 18.5435 17.5633Z" fill="black"/>
<path d="M17.7409 17.6108C17.7504 17.6204 17.9973 17.7678 18.2823 17.939C18.5719 18.1054 19.0801 18.4098 19.4173 18.6095C19.7545 18.8093 20.0537 18.9709 20.0822 18.9709C20.1392 18.9662 20.0204 18.8901 18.9709 18.2766C18.5909 18.0531 18.1778 17.8058 18.0543 17.7297C17.8643 17.6156 17.6649 17.5395 17.7409 17.6108Z" fill="black"/>
<path d="M27.0918 17.7345C26.9731 17.8153 26.8069 17.9152 26.7214 17.958C26.6359 17.996 26.5742 18.0436 26.5884 18.0579C26.6122 18.0769 27.3768 17.6489 27.3768 17.6108C27.3768 17.5633 27.2913 17.6013 27.0918 17.7345Z" fill="black"/>
<path d="M27.714 18.1149C27.2866 18.3765 26.9256 18.6 26.9066 18.619C26.8781 18.6523 27.2106 18.4764 27.7282 18.1863C27.9514 18.0626 28.5118 17.7059 28.5593 17.6631C28.6496 17.568 28.3836 17.7155 27.714 18.1149Z" fill="black"/>
<path d="M28.5166 17.9104C28.2696 18.0579 27.9799 18.2243 27.8755 18.2814C27.5335 18.4764 27.1203 18.7332 27.0681 18.7902C27.0444 18.8188 27.0966 18.7997 27.1868 18.7474C28.5688 17.9532 29.0817 17.6394 28.9915 17.6394C28.9772 17.6394 28.7635 17.763 28.5166 17.9104Z" fill="black"/>
<path d="M18.7809 17.706C18.7809 17.7202 18.8474 17.763 18.9234 17.8058C19.0041 17.8486 19.0659 17.8676 19.0659 17.8581C19.0659 17.8439 19.0041 17.8011 18.9234 17.7583C18.8474 17.7155 18.7809 17.6964 18.7809 17.706Z" fill="black"/>
<path d="M28.8965 17.9247C28.6733 18.0579 28.4596 18.1863 28.4216 18.21C28.3361 18.2624 27.885 18.5287 27.6855 18.6381C27.3436 18.833 27.0729 19.0185 27.1393 19.0137C27.1773 19.0137 27.2676 18.9757 27.3388 18.9329C27.5098 18.8235 27.8042 18.6476 28.6116 18.172C29.3239 17.7535 29.4237 17.6869 29.3477 17.6869C29.3192 17.6869 29.1197 17.7963 28.8965 17.9247Z" fill="black"/>
<path d="M27.7805 17.8534C27.676 17.9152 27.6048 17.9723 27.6238 17.9723C27.6665 17.9723 27.9942 17.7773 27.9942 17.7535C27.9942 17.725 27.9799 17.7297 27.7805 17.8534Z" fill="black"/>
<path d="M17.6886 17.8153C17.6886 17.8676 19.8922 19.1612 19.9777 19.1612C20.0109 19.1612 19.6975 18.9567 19.2796 18.7094C18.8616 18.4669 18.496 18.2433 18.4675 18.2243C18.4437 18.2053 18.344 18.1435 18.2538 18.0959C18.1635 18.0436 18.0021 17.9532 17.8928 17.8914C17.7788 17.8248 17.6886 17.7916 17.6886 17.8153Z" fill="black"/>
<path d="M19.1133 17.8962C19.1133 17.9295 19.4505 18.1292 19.4695 18.1054C19.479 18.0959 19.403 18.0388 19.2986 17.9818C19.1988 17.9247 19.1133 17.8819 19.1133 17.8962Z" fill="black"/>
<path d="M29.2764 17.9723C29.2764 17.996 29.3097 18.0056 29.3477 17.9913C29.3857 17.9723 29.4189 17.9532 29.4189 17.9437C29.4189 17.9342 29.3857 17.9247 29.3477 17.9247C29.3097 17.9247 29.2764 17.9437 29.2764 17.9723Z" fill="black"/>
<path d="M17.8073 18.1625C17.8216 18.1863 17.8596 18.21 17.8833 18.21C17.9118 18.21 17.9166 18.1863 17.9023 18.1625C17.8881 18.134 17.8501 18.1149 17.8263 18.1149C17.7978 18.1149 17.7931 18.134 17.8073 18.1625Z" fill="black"/>
<path d="M29.3429 18.191C29.2574 18.2576 29.2574 18.2624 29.3619 18.21C29.4189 18.1815 29.4664 18.1482 29.4664 18.1387C29.4664 18.1007 29.4427 18.1102 29.3429 18.191Z" fill="black"/>
<path d="M19.6357 18.2338C19.7925 18.3242 19.8685 18.3242 19.7497 18.2338C19.7022 18.1958 19.6262 18.1672 19.5883 18.1672C19.5455 18.1672 19.5693 18.1958 19.6357 18.2338Z" fill="black"/>
<path d="M25.5009 18.3052C25.216 18.3812 24.6888 18.5239 24.3374 18.6285L23.6962 18.814L23.6725 20.0219C23.6582 20.6877 23.6582 21.4011 23.663 21.6151L23.682 22.0003L24.0667 22.0336C24.2804 22.0478 25.121 22.0621 25.9378 22.0621H27.4195L27.5573 21.8576C27.6332 21.7482 27.733 21.5865 27.7757 21.5057C27.8517 21.3535 27.8517 21.3392 27.7377 21.1252C27.581 20.8209 26.1848 18.3908 26.0945 18.2671L26.0233 18.1672L25.5009 18.3052ZM25.8523 19.3609C26.0803 19.4132 26.0898 19.4227 26.1183 19.6034C26.161 19.8555 26.0803 19.9316 25.9758 19.7366C25.8856 19.5559 25.6481 19.3989 25.4629 19.3989C25.2967 19.3989 25.0972 19.5892 25.0972 19.7509C25.0972 19.8412 25.1542 19.9126 25.2967 20.0172C25.4012 20.0933 25.5151 20.1598 25.5436 20.1598C25.5769 20.1598 25.7194 20.2359 25.8666 20.3263C26.3035 20.6021 26.3747 20.9112 26.0755 21.2299C25.8618 21.4534 25.5911 21.5247 25.2492 21.4486C25.0972 21.4153 24.9073 21.3725 24.8265 21.363L24.6698 21.3392V21.0444C24.6746 20.7353 24.6888 20.7353 24.8693 21.0539C25.102 21.4771 25.7621 21.4724 25.7621 21.0491C25.7621 20.8875 25.5626 20.6782 25.3252 20.5926C24.7933 20.3929 24.6556 20.2312 24.6841 19.8317C24.6983 19.6177 24.7268 19.5559 24.8408 19.4655C25.045 19.2991 25.4249 19.261 25.8523 19.3609Z" fill="black"/>
<path d="M20.7898 18.7665C20.6093 19.0756 20.1961 19.7937 19.8732 20.3691L19.2891 21.4106L19.3745 21.5723C19.422 21.6626 19.5265 21.81 19.6073 21.9004L19.7545 22.0716L21.6351 22.0383L23.5158 22.0003L23.549 21.3583C23.6155 19.903 23.5728 18.8996 23.435 18.8283C23.2783 18.7427 21.3977 18.21 21.2599 18.21C21.127 18.21 21.0937 18.2528 20.7898 18.7665ZM22.8509 19.5226C22.9649 19.6082 22.9839 19.6605 22.9981 19.8745C23.0076 20.0172 23.0029 20.1789 22.9839 20.2407C22.9411 20.4119 22.7084 20.526 22.3142 20.5641L21.9581 20.5974L21.9723 20.9826C21.9866 21.344 21.9961 21.3725 22.0958 21.3868C22.1528 21.3963 22.2003 21.4248 22.2003 21.4486C22.2003 21.4724 21.9771 21.4914 21.6969 21.4914H21.1887L21.3074 21.382C21.4119 21.2822 21.4309 21.2156 21.4594 20.8161C21.4784 20.5641 21.4784 20.1979 21.4594 19.9934C21.4309 19.6843 21.4072 19.6082 21.3027 19.5083L21.1792 19.3942L21.9486 19.4085C22.6419 19.4227 22.7274 19.4322 22.8509 19.5226Z" fill="black"/>
<path d="M21.9818 19.6034C21.9676 19.6415 21.9628 19.827 21.9723 20.0219C21.9866 20.3168 22.0008 20.3738 22.072 20.3881C22.2335 20.4214 22.3902 20.3501 22.4615 20.2074C22.5612 20.0172 22.5517 19.8412 22.433 19.6795C22.357 19.5749 22.3 19.5416 22.1718 19.5416C22.0768 19.5416 21.9961 19.5702 21.9818 19.6034Z" fill="black"/>
<path d="M17.5984 18.2766C17.6079 18.2861 17.9498 18.4906 18.3535 18.7284C18.7572 18.9662 19.1228 19.1802 19.1608 19.2087C19.3176 19.3086 19.65 19.4941 19.669 19.4941C19.6832 19.4941 19.669 19.4608 19.6357 19.4227C19.6025 19.3847 19.5598 19.3514 19.5408 19.3514C19.5218 19.3514 19.0896 19.1041 18.5862 18.8045C18.078 18.5049 17.6459 18.2576 17.6221 18.2576C17.5984 18.2576 17.5889 18.2671 17.5984 18.2766Z" fill="black"/>
<path d="M29.0152 18.3575C28.9393 18.405 28.906 18.4478 28.944 18.4478C28.982 18.4478 29.0675 18.405 29.134 18.3527C29.2859 18.2338 29.2005 18.2338 29.0152 18.3575Z" fill="black"/>
<path d="M29.2195 18.4954C29.0912 18.5762 28.982 18.6381 28.9677 18.6381C28.9583 18.6381 28.8348 18.7094 28.6923 18.7902C28.3789 18.9852 28.3409 19.009 27.885 19.2801C27.676 19.4037 27.5193 19.5131 27.5335 19.5226C27.543 19.5369 27.714 19.4513 27.9039 19.3371C28.0987 19.223 28.5403 18.9614 28.887 18.7569C29.2289 18.5572 29.5139 18.3813 29.5139 18.3717C29.5139 18.3289 29.4284 18.3622 29.2195 18.4954Z" fill="black"/>
<path d="M18.3345 18.4716C18.382 18.5097 18.4437 18.5429 18.4675 18.5429C18.496 18.5429 18.4722 18.5097 18.42 18.4716C18.3725 18.4336 18.3108 18.4003 18.287 18.4003C18.2585 18.4003 18.2823 18.4336 18.3345 18.4716Z" fill="black"/>
<path d="M17.7599 18.6428C18.4675 19.0708 19.6452 19.7366 19.6595 19.7223C19.6785 19.7081 18.9709 19.261 18.8521 19.2135C18.8284 19.204 18.7192 19.1421 18.6147 19.0756C18.5102 19.009 18.2443 18.8521 18.0258 18.7237C17.5936 18.4764 17.3704 18.405 17.7599 18.6428Z" fill="black"/>
<path d="M20.1582 18.5144C20.1582 18.5239 20.1914 18.5477 20.2341 18.562C20.2721 18.5762 20.2911 18.5715 20.2769 18.5429C20.2484 18.4954 20.1582 18.4764 20.1582 18.5144Z" fill="black"/>
<path d="M28.5641 18.6381C28.4453 18.7141 28.3646 18.7807 28.3789 18.7807C28.4216 18.7807 28.849 18.5382 28.849 18.5144C28.849 18.4716 28.7683 18.5097 28.5641 18.6381Z" fill="black"/>
<path d="M18.6004 18.619C18.6479 18.6666 18.6954 18.6904 18.7144 18.6761C18.7287 18.6571 18.6907 18.619 18.6289 18.5905C18.5593 18.5525 18.5498 18.562 18.6004 18.619Z" fill="black"/>
<path d="M28.944 18.9044C28.6686 19.0708 28.2459 19.3229 28.0084 19.4608C27.5525 19.7176 27.4053 19.8555 27.7805 19.6748C27.8992 19.6177 27.9942 19.5511 27.9942 19.5321C27.9942 19.5131 28.0179 19.4941 28.0417 19.4941C28.0702 19.4941 28.2126 19.418 28.3551 19.3276C28.4976 19.2373 28.6258 19.1612 28.6353 19.1612C28.6496 19.1612 28.8348 19.0518 29.0437 18.9234C29.2527 18.7902 29.4474 18.6856 29.4712 18.6856C29.4949 18.6856 29.5139 18.6618 29.5139 18.6381C29.5139 18.562 29.4664 18.581 28.944 18.9044Z" fill="black"/>
<path d="M17.4986 18.7189C17.4986 18.7427 17.7504 18.9044 18.059 19.0803C18.363 19.261 18.6479 19.4227 18.6859 19.4513C18.9044 19.5844 19.498 19.9221 19.5218 19.9221C19.6025 19.9221 19.422 19.7984 18.8664 19.4703C18.5197 19.2658 18.0828 19.0042 17.8976 18.8901C17.5509 18.6809 17.4986 18.6571 17.4986 18.7189Z" fill="black"/>
<path d="M18.7809 18.7237C18.7809 18.7522 18.8237 18.7807 18.8759 18.795C18.9281 18.8093 18.9709 18.8093 18.9709 18.7997C18.9709 18.7902 18.9281 18.7617 18.8759 18.7332C18.8237 18.7046 18.7809 18.6999 18.7809 18.7237Z" fill="black"/>
<path d="M28.1129 18.8996C28.0084 18.9614 27.9467 19.0137 27.9704 19.0185C28.0274 19.0185 28.3266 18.8425 28.3266 18.8045C28.3266 18.7665 28.3171 18.7712 28.1129 18.8996Z" fill="black"/>
<path d="M19.0516 18.8806C19.0849 18.9139 19.1228 18.9281 19.1371 18.9139C19.1513 18.8996 19.1276 18.8711 19.0801 18.8568C19.0136 18.8283 19.0089 18.833 19.0516 18.8806Z" fill="black"/>
<path d="M29.3239 18.9377C29.2337 18.9995 29.058 19.1041 28.9393 19.1707C28.8205 19.242 28.5451 19.4037 28.3314 19.5369C28.1129 19.67 27.9277 19.7794 27.9134 19.7794C27.8992 19.7794 27.8375 19.8222 27.771 19.8745C27.5478 20.0505 27.7045 19.9744 28.4074 19.5559C28.7968 19.3324 29.21 19.0898 29.3382 19.0233C29.4617 18.9567 29.5614 18.8853 29.5614 18.8663C29.5614 18.8045 29.4949 18.8235 29.3239 18.9377Z" fill="black"/>
<path d="M27.5668 18.9709C27.505 19.009 27.5098 19.0185 27.581 19.0185C27.6237 19.0185 27.6617 18.9947 27.6617 18.9709C27.6617 18.9139 27.657 18.9139 27.5668 18.9709Z" fill="black"/>
<path d="M17.5271 19.0185C17.5651 19.0565 17.8073 19.1992 19.0801 19.9316C19.2606 20.0362 19.4173 20.1075 19.4268 20.098C19.4505 20.0742 18.9139 19.7414 18.2585 19.3752C18.1398 19.3086 17.9498 19.1897 17.8311 19.1136C17.6269 18.9852 17.4274 18.9186 17.5271 19.0185Z" fill="black"/>
<path d="M19.2558 19.0185C19.2938 19.0423 19.3508 19.0661 19.3745 19.0661C19.403 19.0661 19.3888 19.0423 19.3508 19.0185C19.3128 18.9947 19.2606 18.9709 19.2321 18.9709C19.2083 18.9709 19.2178 18.9947 19.2558 19.0185Z" fill="black"/>
<path d="M27.5525 19.2182C27.429 19.2991 27.3341 19.3704 27.3436 19.3847C27.3673 19.4037 27.8517 19.1184 27.8517 19.0851C27.8517 19.0423 27.771 19.0803 27.5525 19.2182Z" fill="black"/>
<path d="M29.3144 19.1945C29.2669 19.204 29.229 19.2373 29.229 19.261C29.229 19.2896 29.2669 19.2848 29.3239 19.2563C29.3762 19.2277 29.4189 19.1945 29.4189 19.1849C29.4189 19.1707 29.4142 19.1659 29.4094 19.1659C29.3999 19.1707 29.3572 19.1802 29.3144 19.1945Z" fill="black"/>
<path d="M17.4986 19.2278C17.4986 19.2373 17.5319 19.261 17.5746 19.2753C17.6126 19.2896 17.6316 19.2848 17.6174 19.2563C17.5889 19.2087 17.4986 19.1897 17.4986 19.2278Z" fill="black"/>
<path d="M28.6923 19.8127C28.2269 20.0885 27.8612 20.3263 27.8707 20.3406C27.8849 20.3501 28.0369 20.274 28.2079 20.1646C28.3789 20.06 28.5308 19.9696 28.5451 19.9696C28.5546 19.9696 28.7303 19.8698 28.9345 19.7414C29.134 19.6177 29.3572 19.4893 29.4332 19.4513C29.5044 19.4132 29.5614 19.3657 29.5614 19.3419C29.5614 19.3229 29.5566 19.3038 29.5519 19.3038C29.5424 19.3038 29.1577 19.5321 28.6923 19.8127Z" fill="black"/>
<path d="M17.7836 19.3657C17.7836 19.3799 17.8406 19.4227 17.9071 19.4703C17.9783 19.5131 18.0163 19.5273 18.0021 19.4988C17.9688 19.4465 17.7836 19.3324 17.7836 19.3657Z" fill="black"/>
<path d="M28.8253 19.4941C28.7493 19.5464 28.7065 19.5892 28.7303 19.5892C28.7778 19.5892 29.0342 19.4037 28.9915 19.3989C28.9772 19.3989 28.906 19.4417 28.8253 19.4941Z" fill="black"/>
<path d="M17.5176 19.4893C17.5414 19.5274 18.1065 19.865 18.6859 20.1979C18.7762 20.2455 18.9329 20.3358 19.0326 20.3976C19.1323 20.4547 19.2226 20.4927 19.2368 20.4785C19.2511 20.469 19.0849 20.3548 18.8664 20.2312C18.6479 20.1028 18.4675 19.9839 18.458 19.9601C18.4485 19.9411 18.42 19.9221 18.3915 19.9221C18.3392 19.9221 17.8121 19.613 17.6839 19.5083C17.5984 19.437 17.4797 19.4227 17.5176 19.4893Z" fill="black"/>
<path d="M18.0685 19.5606C18.0685 19.5702 18.1018 19.5939 18.1445 19.6082C18.1825 19.6225 18.2015 19.6177 18.1873 19.5892C18.1588 19.5416 18.0685 19.5226 18.0685 19.5606Z" fill="black"/>
<path d="M29.3999 19.651C29.3477 19.6843 29.21 19.7651 29.0912 19.8365C28.9725 19.9126 28.9013 19.9696 28.9298 19.9696C28.9867 19.9696 29.5614 19.6415 29.5614 19.6082C29.5614 19.5749 29.4901 19.5939 29.3999 19.651Z" fill="black"/>
<path d="M17.4986 19.7128C17.4986 19.7366 17.8453 19.9601 18.268 20.2074C19.1086 20.702 19.1418 20.7163 19.0991 20.6497C19.0801 20.6211 18.7619 20.4214 18.3915 20.2026C18.0163 19.9886 17.6649 19.7794 17.6079 19.7414C17.5461 19.7033 17.4986 19.6938 17.4986 19.7128Z" fill="black"/>
<path d="M18.306 19.7033C18.306 19.7128 18.3392 19.7366 18.382 19.7509C18.42 19.7651 18.439 19.7604 18.4247 19.7318C18.3962 19.6843 18.306 19.6653 18.306 19.7033Z" fill="black"/>
<path d="M29.3002 19.9696C29.172 20.0457 29.0295 20.1266 28.9915 20.1456C28.9535 20.1646 28.811 20.2502 28.6733 20.3358C28.5356 20.4214 28.4026 20.4927 28.3741 20.4927C28.3504 20.4927 28.3266 20.5118 28.3266 20.5308C28.3266 20.5546 28.2696 20.5974 28.2031 20.6307C28.1319 20.6592 28.0892 20.6972 28.1034 20.7115C28.1272 20.7353 28.5451 20.507 28.944 20.255C28.982 20.2312 29.1387 20.1408 29.2907 20.0552C29.4379 19.9696 29.5614 19.884 29.5614 19.865C29.5614 19.8127 29.5709 19.8127 29.3002 19.9696Z" fill="black"/>
<path d="M17.5176 20.0077C17.5461 20.0552 18.9376 20.8732 18.9899 20.8732C19.0089 20.8732 18.9946 20.8399 18.9519 20.8019C18.9139 20.7638 18.8711 20.7305 18.8521 20.7305C18.8379 20.7305 18.6907 20.6497 18.5292 20.5498C17.6174 19.9982 17.4607 19.9126 17.5176 20.0077Z" fill="black"/>
<path d="M28.6828 20.079C28.3029 20.2978 28.1319 20.4071 28.1509 20.4262C28.1699 20.4452 28.7683 20.1075 28.8443 20.0362C28.887 19.9982 28.773 20.0267 28.6828 20.079Z" fill="black"/>
<path d="M19.1371 20.2074C19.2178 20.2597 19.3033 20.3025 19.3271 20.3025C19.3556 20.3025 19.3128 20.2597 19.2321 20.2074C19.1561 20.1551 19.0706 20.1123 19.0421 20.1123C19.0184 20.1123 19.0611 20.1551 19.1371 20.2074Z" fill="black"/>
<path d="M17.6411 20.312C17.6791 20.3548 17.8406 20.4595 17.9973 20.5451C18.154 20.6307 18.2633 20.6735 18.2348 20.6497C18.211 20.6211 18.1065 20.5498 18.0068 20.4975C17.9071 20.4404 17.7693 20.3596 17.6981 20.3168C17.5889 20.2502 17.5794 20.2502 17.6411 20.312Z" fill="black"/>
<path d="M29.2527 20.4927C29.2384 20.5165 29.2432 20.5403 29.2717 20.5403C29.2954 20.5403 29.3334 20.5165 29.3477 20.4927C29.3619 20.4642 29.3572 20.4452 29.3287 20.4452C29.3049 20.4452 29.2669 20.4642 29.2527 20.4927Z" fill="black"/>
<path d="M17.5936 20.5165C17.5936 20.526 17.7076 20.6069 17.8453 20.6972C18.0891 20.8526 18.211 20.9144 18.211 20.8827C18.211 20.8589 18.1398 20.8019 18.059 20.7591C17.9736 20.7163 17.8311 20.6354 17.7504 20.5879C17.6649 20.5355 17.5936 20.5023 17.5936 20.5165Z" fill="black"/>
<path d="M29.039 20.6354C28.9962 20.6639 28.9915 20.683 29.0247 20.683C29.0532 20.683 29.096 20.6592 29.1102 20.6354C29.1482 20.5783 29.1292 20.5783 29.039 20.6354Z" fill="black"/>
<path d="M18.306 20.702C18.306 20.7163 18.3487 20.7495 18.401 20.7781C18.4532 20.8066 18.496 20.8161 18.496 20.8066C18.496 20.7923 18.4532 20.7591 18.401 20.7305C18.3487 20.702 18.306 20.6925 18.306 20.702Z" fill="black"/>
<path d="M28.9203 20.9445C28.6876 21.0872 28.4738 21.2108 28.4453 21.2203C28.4216 21.2299 28.4074 21.2536 28.4216 21.2679C28.4453 21.2917 29.3192 20.7971 29.3999 20.7163C29.4949 20.6211 29.3049 20.7115 28.9203 20.9445Z" fill="black"/>
<path d="M28.7065 20.8304L28.5878 20.9255L28.754 20.8447C28.9583 20.7495 28.9772 20.7305 28.8918 20.7305C28.8538 20.7305 28.773 20.7781 28.7065 20.8304Z" fill="black"/>
<path d="M17.6886 20.8447C17.6886 20.8732 18.2443 21.2203 18.4912 21.344C18.8331 21.52 18.6717 21.382 18.1968 21.0967C17.7836 20.8447 17.6886 20.7971 17.6886 20.8447Z" fill="black"/>
<path d="M18.5435 20.8447C18.5435 20.8589 18.5862 20.8922 18.6384 20.9207C18.6907 20.9493 18.7334 20.9588 18.7334 20.9493C18.7334 20.935 18.6907 20.9017 18.6384 20.8732C18.5862 20.8447 18.5435 20.8351 18.5435 20.8447Z" fill="black"/>
<path d="M18.306 20.9588C18.306 20.9826 18.344 21.0159 18.3915 21.0301C18.4342 21.0444 18.5482 21.1062 18.6384 21.1633C18.7287 21.2203 18.7714 21.2394 18.7334 21.1966C18.6194 21.0824 18.306 20.9065 18.306 20.9588Z" fill="black"/>
<path d="M28.3931 21.0254L28.3029 21.1252L28.4358 21.0396C28.5688 20.954 28.5926 20.9207 28.5261 20.9207C28.5023 20.9207 28.4453 20.9683 28.3931 21.0254Z" fill="black"/>
<path d="M28.9535 21.1775C28.5878 21.3916 28.4596 21.4914 28.5498 21.4914C28.5783 21.4914 28.6258 21.4581 28.6591 21.4201C28.6923 21.382 28.735 21.3488 28.7588 21.3488C28.7778 21.3488 28.9108 21.2822 29.0485 21.1966C29.3619 21.0063 29.3429 21.0206 29.3192 20.9968C29.3097 20.9873 29.1435 21.0682 28.9535 21.1775Z" fill="black"/>
<path d="M17.8073 21.2061C17.8216 21.2299 17.8548 21.2536 17.8786 21.2536C17.9023 21.2536 18.0638 21.344 18.2348 21.4486C18.4057 21.558 18.5577 21.6341 18.572 21.6246C18.5957 21.6008 18.4532 21.5057 18.0353 21.2727C17.8216 21.149 17.7599 21.1347 17.8073 21.2061Z" fill="black"/>
<path d="M28.9915 21.4201C28.9013 21.4819 28.7968 21.5342 28.7683 21.5342C28.716 21.539 28.6733 21.6341 28.7255 21.6341C28.7683 21.6341 29.1815 21.3868 29.2052 21.344C29.2527 21.2727 29.1672 21.3012 28.9915 21.4201Z" fill="black"/>
<path d="M17.9261 21.4819C17.9261 21.539 18.4437 21.8481 18.477 21.81C18.4912 21.8005 18.4295 21.7482 18.3392 21.6959C18.249 21.6436 18.1208 21.5628 18.0543 21.5152C17.9831 21.4724 17.9261 21.4534 17.9261 21.4819Z" fill="black"/>
<path d="M27.771 21.7577C27.7092 21.8528 27.6617 21.948 27.6617 21.9717C27.6617 21.9955 27.7805 22.0145 27.9229 22.0145C28.0654 22.0145 28.1841 22.0003 28.1841 21.986C28.1841 21.9147 27.9704 21.5865 27.9277 21.5865C27.8992 21.5913 27.828 21.6674 27.771 21.7577Z" fill="black"/>
<path d="M19.0991 21.772C18.9756 21.9812 18.9946 22.0145 19.2321 22.0145C19.4743 22.0145 19.4933 21.9765 19.3461 21.772C19.2273 21.6008 19.2036 21.6008 19.0991 21.772Z" fill="black"/>
<path d="M18.1873 21.9194C18.2015 21.9432 18.2395 21.967 18.2633 21.967C18.2918 21.967 18.2965 21.9432 18.2823 21.9194C18.268 21.8909 18.23 21.8719 18.2063 21.8719C18.1778 21.8719 18.173 21.8909 18.1873 21.9194Z" fill="black"/>
<path d="M28.849 22.0431C28.849 22.0811 28.8728 22.1001 28.8965 22.0859C28.925 22.0716 28.944 22.0383 28.944 22.0098C28.944 21.986 28.925 21.967 28.8965 21.967C28.8728 21.967 28.849 22.0003 28.849 22.0431Z" fill="black"/>
<path d="M18.496 22.6042C18.496 22.6423 18.5197 22.6898 18.5435 22.7041C18.5719 22.7184 18.5909 22.6993 18.5909 22.6613C18.5909 22.6233 18.5719 22.5757 18.5435 22.5614C18.5197 22.5472 18.496 22.5662 18.496 22.6042Z" fill="black"/>
<path d="M19.2273 23.037C19.2273 23.2986 19.2321 23.3984 19.2416 23.2605C19.2511 23.1226 19.2511 22.9086 19.2416 22.7849C19.2321 22.6613 19.2273 22.7754 19.2273 23.037Z" fill="black"/>
<path d="M19.4315 22.6185C19.3793 22.6661 19.3935 23.6695 19.4458 23.7028C19.4743 23.7218 19.4933 23.5268 19.4933 23.1606C19.4933 22.842 19.4885 22.5852 19.479 22.5852C19.4695 22.5852 19.4458 22.5995 19.4315 22.6185Z" fill="black"/>
<path d="M19.6357 23.2462C19.6357 23.66 19.6547 23.9168 19.6832 23.9168C19.7117 23.9168 19.7307 23.6743 19.7307 23.2795C19.7307 22.9038 19.7117 22.628 19.6832 22.609C19.6547 22.59 19.6357 22.8135 19.6357 23.2462Z" fill="black"/>
<path d="M19.8542 22.6565C19.84 22.6993 19.8257 22.8087 19.8257 22.9038C19.8257 23.1321 19.9397 23.0846 19.9587 22.8468C19.9777 22.6518 19.9064 22.5234 19.8542 22.6565Z" fill="black"/>
<path d="M20.2864 22.6185C20.2341 22.6661 20.2484 22.9086 20.3006 22.9419C20.3291 22.9609 20.3481 22.8943 20.3481 22.7802C20.3481 22.5805 20.3386 22.5614 20.2864 22.6185Z" fill="black"/>
<path d="M20.4906 22.7945C20.4906 22.9133 20.5143 23.0132 20.5381 23.0132C20.5666 23.0132 20.5856 22.9276 20.5856 22.8277C20.5856 22.7231 20.5666 22.6233 20.5381 22.609C20.5096 22.59 20.4906 22.6661 20.4906 22.7945Z" fill="black"/>
<path d="M20.728 22.8658C20.728 23.0275 20.747 23.1559 20.7755 23.1559C20.804 23.1559 20.823 23.0417 20.823 22.8991C20.823 22.7564 20.804 22.6233 20.7755 22.609C20.747 22.59 20.728 22.6898 20.728 22.8658Z" fill="black"/>
<path d="M20.9797 22.8943C20.9797 23.075 20.9892 23.1464 20.9987 23.0465C21.0082 22.9514 21.0082 22.7992 20.9987 22.7136C20.9892 22.6328 20.9797 22.7089 20.9797 22.8943Z" fill="black"/>
<path d="M21.2172 22.7517C21.2172 22.8563 21.2267 22.8943 21.2362 22.8325C21.2457 22.7754 21.2457 22.6898 21.2362 22.6423C21.2219 22.5995 21.2125 22.647 21.2172 22.7517Z" fill="black"/>
<path d="M21.4357 22.5947C21.3977 22.6993 21.4024 22.9181 21.4404 22.9419C21.4689 22.9609 21.4879 22.8991 21.4879 22.7802C21.4879 22.6708 21.4784 22.5852 21.4642 22.5852C21.4499 22.5852 21.4404 22.59 21.4357 22.5947Z" fill="black"/>
<path d="M21.8631 22.7945C21.8583 22.9133 21.8536 23.037 21.8488 23.0703C21.8441 23.0988 21.8678 23.1321 21.8916 23.1416C21.9581 23.1606 21.9818 22.647 21.9153 22.609C21.8868 22.59 21.8631 22.6661 21.8631 22.7945Z" fill="black"/>
<path d="M22.1005 22.7374C22.1005 22.823 22.091 22.9419 22.0863 22.9989C22.0815 23.056 22.091 23.1321 22.11 23.1606C22.129 23.1939 22.1528 23.0845 22.1623 22.9229C22.167 22.7564 22.1623 22.6137 22.1433 22.5995C22.1195 22.59 22.1053 22.6518 22.1005 22.7374Z" fill="black"/>
<path d="M22.5327 22.7469C22.5327 22.842 22.5564 22.9181 22.5802 22.9181C22.6087 22.9181 22.6277 22.8563 22.6277 22.7802C22.6277 22.6993 22.6087 22.6233 22.5802 22.609C22.5517 22.59 22.5327 22.647 22.5327 22.7469Z" fill="black"/>
<path d="M22.7702 22.7421C22.7702 22.8373 22.7892 22.9181 22.8177 22.9181C22.8414 22.9181 22.8509 22.8515 22.8319 22.7612C22.7939 22.5472 22.7702 22.5377 22.7702 22.7421Z" fill="black"/>
<path d="M23.4493 22.8705C23.4493 23.0417 23.4588 23.1083 23.4683 23.0227C23.4778 22.9419 23.4778 22.7992 23.4683 22.7136C23.4588 22.6328 23.4493 22.6993 23.4493 22.8705Z" fill="black"/>
<path d="M23.6582 22.6185C23.606 22.6661 23.6203 23.1559 23.6725 23.1559C23.701 23.1559 23.72 23.0275 23.72 22.8706C23.72 22.5805 23.7152 22.5614 23.6582 22.6185Z" fill="black"/>
<path d="M24.1142 22.8705C24.1142 23.0417 24.1237 23.1083 24.1332 23.0227C24.1427 22.9419 24.1427 22.7992 24.1332 22.7136C24.1237 22.6328 24.1142 22.6993 24.1142 22.8705Z" fill="black"/>
<path d="M24.3516 22.8705C24.3516 23.0417 24.3611 23.1083 24.3706 23.0227C24.3801 22.9419 24.3801 22.7992 24.3706 22.7136C24.3611 22.6328 24.3516 22.6993 24.3516 22.8705Z" fill="black"/>
<path d="M24.5796 22.8943L24.5891 23.2272L24.6366 22.9514C24.6698 22.7517 24.6651 22.6565 24.6271 22.6185C24.5891 22.5805 24.5748 22.6518 24.5796 22.8943Z" fill="black"/>
<path d="M24.8265 22.8705C24.8265 23.0417 24.836 23.1083 24.8455 23.0227C24.855 22.9419 24.855 22.7992 24.8455 22.7136C24.836 22.6328 24.8265 22.6993 24.8265 22.8705Z" fill="black"/>
<path d="M25.064 22.8705C25.064 23.0417 25.0735 23.1083 25.083 23.0227C25.0925 22.9419 25.0925 22.7992 25.083 22.7136C25.0735 22.6328 25.064 22.6993 25.064 22.8705Z" fill="black"/>
<path d="M25.2777 22.7612C25.2682 22.8563 25.2729 23.0085 25.2919 23.1036C25.3157 23.2415 25.3252 23.2034 25.3299 22.9276C25.3347 22.5614 25.3109 22.4758 25.2777 22.7612Z" fill="black"/>
<path d="M25.5199 22.6185C25.4961 22.7707 25.5056 23.1559 25.5389 23.1559C25.5579 23.1559 25.5721 23.0275 25.5721 22.8705C25.5721 22.7136 25.5626 22.5852 25.5484 22.5852C25.5341 22.5852 25.5199 22.5995 25.5199 22.6185Z" fill="black"/>
<path d="M26.6312 22.8705C26.6312 23.0417 26.6407 23.1083 26.6502 23.0227C26.6597 22.9419 26.6597 22.7992 26.6502 22.7136C26.6407 22.6328 26.6312 22.6993 26.6312 22.8705Z" fill="black"/>
<path d="M26.8069 22.8991C26.8069 23.0941 26.8259 23.1987 26.8544 23.1797C26.8829 23.1654 26.9019 23.0227 26.9019 22.8658C26.9019 22.7089 26.8829 22.5852 26.8544 22.5852C26.8259 22.5852 26.8069 22.7231 26.8069 22.8991Z" fill="black"/>
<path d="M27.2771 22.5947C27.2533 22.6803 27.2581 23.2986 27.2866 23.3699C27.3103 23.427 27.3246 23.2795 27.3246 23.0227C27.3293 22.7849 27.3198 22.5852 27.3056 22.5852C27.2913 22.5852 27.2818 22.59 27.2771 22.5947Z" fill="black"/>
<path d="M27.9657 22.9894C27.9657 23.2225 27.9704 23.3271 27.9799 23.2177C27.9894 23.1083 27.9894 22.9133 27.9799 22.7897C27.9704 22.6661 27.9657 22.7517 27.9657 22.9894Z" fill="black"/>
<path d="M28.1699 22.6185C28.1177 22.6661 28.1319 23.1083 28.1841 23.1083C28.2126 23.1083 28.2316 22.9894 28.2316 22.8468C28.2316 22.5805 28.2269 22.5614 28.1699 22.6185Z" fill="black"/>
<path d="M18.9851 22.9419C18.9851 23.1226 18.9946 23.1939 19.0041 23.0941C19.0136 22.9989 19.0136 22.8468 19.0041 22.7612C18.9946 22.6803 18.9851 22.7564 18.9851 22.9419Z" fill="black"/>
<path d="M20.0727 22.7754C20.0727 22.8658 20.0822 22.9038 20.0964 22.8563C20.1059 22.8135 20.1059 22.7374 20.0964 22.6898C20.0822 22.647 20.0727 22.6851 20.0727 22.7754Z" fill="black"/>
<path d="M21.6304 22.8943C21.6304 23.037 21.6541 23.1559 21.6779 23.1559C21.7064 23.1559 21.7254 23.037 21.7254 22.8943C21.7254 22.7517 21.7064 22.6328 21.6779 22.6328C21.6541 22.6328 21.6304 22.7517 21.6304 22.8943Z" fill="black"/>
<path d="M22.3237 22.7089C22.2763 22.8277 22.2905 23.0988 22.3427 23.1321C22.3712 23.1511 22.3902 23.0608 22.3902 22.8991C22.3902 22.6233 22.376 22.5757 22.3237 22.7089Z" fill="black"/>
<path d="M23.2118 22.8943C23.2118 23.0513 23.2213 23.1083 23.2308 23.0227C23.2403 22.9371 23.2403 22.8087 23.2308 22.7374C23.2213 22.6661 23.2118 22.7374 23.2118 22.8943Z" fill="black"/>
<path d="M23.8625 22.8943C23.8625 23.037 23.8862 23.1559 23.9099 23.1559C23.9384 23.1559 23.9574 23.037 23.9574 22.8943C23.9574 22.7517 23.9384 22.6328 23.9099 22.6328C23.8862 22.6328 23.8625 22.7517 23.8625 22.8943Z" fill="black"/>
<path d="M25.9521 22.7659C25.9521 22.8515 25.9758 22.9181 25.9996 22.9181C26.028 22.9181 26.0375 22.8658 26.0185 22.7849C25.9711 22.5995 25.9521 22.5947 25.9521 22.7659Z" fill="black"/>
<path d="M26.199 22.7754C26.199 22.8658 26.2085 22.9038 26.2228 22.8563C26.2323 22.8135 26.2323 22.7374 26.2228 22.6898C26.2085 22.647 26.199 22.6851 26.199 22.7754Z" fill="black"/>
<path d="M26.389 22.8943C26.3842 23.037 26.4032 23.1559 26.427 23.1559C26.4555 23.1559 26.4745 23.037 26.4745 22.8943C26.4745 22.7517 26.4555 22.6328 26.4365 22.6328C26.4127 22.6328 26.3937 22.7517 26.389 22.8943Z" fill="black"/>
<path d="M27.7282 23.1321C27.7282 23.4174 27.733 23.5316 27.7425 23.3794C27.752 23.2272 27.752 22.9942 27.7425 22.8563C27.733 22.7184 27.7282 22.842 27.7282 23.1321Z" fill="black"/>
<path d="M25.7431 22.8135C25.7336 22.8325 25.7384 22.9229 25.7621 23.0132L25.8001 23.1797L25.8048 22.9752C25.8096 22.7802 25.7906 22.7374 25.7431 22.8135Z" fill="black"/>
<path d="M27.0586 22.9657C27.0586 23.0846 27.0681 23.1321 27.0776 23.0703C27.0871 23.0132 27.0871 22.9181 27.0776 22.8563C27.0681 22.7992 27.0586 22.8468 27.0586 22.9657Z" fill="black"/>
<path d="M21.1887 23.0941C21.1745 23.1178 21.1745 23.1844 21.1792 23.251C21.1887 23.3176 21.1982 23.4935 21.1982 23.641C21.203 23.855 21.222 23.9168 21.2742 23.9168C21.3407 23.9168 21.3502 23.8787 21.3644 23.5601C21.3692 23.4983 21.4024 23.465 21.4642 23.465C21.5354 23.465 21.5591 23.4983 21.5686 23.6077C21.5686 23.6838 21.5781 23.7884 21.5781 23.8312C21.5829 23.8787 21.6161 23.9168 21.6541 23.9168C21.7159 23.9168 21.7254 23.8645 21.7159 23.6172L21.7016 23.3223L21.5259 23.3081C21.3692 23.2938 21.3454 23.2748 21.3454 23.1749C21.3454 23.0655 21.2362 23.0132 21.1887 23.0941Z" fill="black"/>
<path d="M22.6609 23.0893C22.6277 23.1226 22.6657 23.8169 22.7037 23.8787C22.7179 23.8978 22.7702 23.9168 22.8224 23.9168C22.9031 23.9168 22.9126 23.8978 22.8794 23.8074C22.8604 23.7503 22.8509 23.5982 22.8556 23.4745C22.8651 23.3461 22.8556 23.2034 22.8414 23.1511C22.8129 23.0608 22.7179 23.0322 22.6609 23.0893Z" fill="black"/>
<path d="M25.9996 23.4888C25.9996 23.8264 26.0138 23.9168 26.066 23.9168C26.104 23.9168 26.142 23.8692 26.1515 23.8122C26.1705 23.6647 26.2608 23.6552 26.3225 23.7979C26.3937 23.9548 26.5505 23.9643 26.4982 23.8074C26.4507 23.6647 26.4507 23.484 26.4935 23.3794C26.5504 23.2605 26.3985 23.2748 26.332 23.3984C26.2655 23.5221 26.1658 23.4888 26.161 23.3414C26.1515 23.0941 26.1373 23.0608 26.0708 23.0608C26.0138 23.0608 25.9996 23.1416 25.9996 23.4888Z" fill="black"/>
<path d="M20.0062 23.1606C19.8732 23.2367 19.9017 23.427 20.0537 23.5221C20.2911 23.6742 20.2959 23.7741 20.0584 23.7741C19.9682 23.7741 19.9207 23.7979 19.9207 23.8454C19.9207 23.8978 19.9729 23.9168 20.1012 23.9168C20.4668 23.912 20.5523 23.679 20.2721 23.4507C20.0774 23.289 20.0917 23.2034 20.3149 23.2034C20.4289 23.2034 20.4478 23.1892 20.3956 23.1559C20.3054 23.0941 20.1107 23.0988 20.0062 23.1606Z" fill="black"/>
<path d="M20.6331 23.3889C20.5618 23.5268 20.5761 23.7551 20.6616 23.8407C20.7423 23.9215 21.013 23.9453 21.013 23.8692C21.013 23.8454 20.9607 23.8122 20.8943 23.7931C20.7993 23.7694 20.7755 23.7361 20.7755 23.6029C20.7755 23.4698 20.7993 23.4365 20.8943 23.4127C21.0462 23.3746 20.9987 23.2986 20.823 23.2986C20.7328 23.2986 20.6663 23.3318 20.6331 23.3889Z" fill="black"/>
<path d="M21.9153 23.5506C21.9153 23.7028 21.9391 23.8312 21.9771 23.8597C22.0056 23.8882 22.129 23.9025 22.2478 23.8978L22.4615 23.8882V23.6029C22.4615 23.3842 22.4472 23.3223 22.3902 23.3223C22.338 23.3223 22.3142 23.3842 22.3047 23.5458C22.2905 23.7313 22.2715 23.7741 22.2003 23.7741C22.129 23.7741 22.11 23.7313 22.0958 23.5506C22.0863 23.3794 22.0625 23.3176 22.0008 23.3081C21.9296 23.2938 21.9153 23.3318 21.9153 23.5506Z" fill="black"/>
<path d="M23.0551 23.3509C23.0551 23.3794 23.0978 23.4127 23.1501 23.427C23.2688 23.4602 23.2688 23.4793 23.1501 23.6552C23.0076 23.874 23.0266 23.9168 23.2641 23.9168C23.492 23.9168 23.606 23.8312 23.4398 23.7884C23.3258 23.7598 23.3163 23.6933 23.4113 23.5649C23.4493 23.5126 23.4825 23.4317 23.4825 23.3842C23.4825 23.3128 23.4445 23.2986 23.2688 23.2986C23.1453 23.2986 23.0551 23.3223 23.0551 23.3509Z" fill="black"/>
<path d="M23.6867 23.3699C23.6772 23.4032 23.6725 23.5316 23.682 23.66C23.6915 23.8359 23.7152 23.8978 23.7817 23.9073C23.8482 23.9215 23.8625 23.8882 23.8625 23.717C23.8625 23.3128 24.0619 23.2843 24.0714 23.6885C24.0762 23.8359 24.0952 23.893 24.1474 23.893C24.1996 23.893 24.2234 23.8264 24.2424 23.6552C24.2614 23.484 24.2851 23.4174 24.3374 23.4174C24.3896 23.4174 24.4134 23.484 24.4323 23.6552C24.4513 23.8359 24.4751 23.8978 24.5416 23.9073C24.6176 23.9215 24.6271 23.893 24.6128 23.6505C24.5986 23.3556 24.5178 23.251 24.3564 23.3223C24.3041 23.3414 24.2471 23.3556 24.2186 23.3461C24.0809 23.3033 23.7105 23.3176 23.6867 23.3699Z" fill="black"/>
<path d="M24.8598 23.3414C24.8598 23.3651 24.912 23.3937 24.969 23.4127C25.064 23.4365 25.083 23.4745 25.0877 23.6314C25.0925 23.7789 25.0782 23.8217 25.0212 23.8217C24.9595 23.8217 24.95 23.7884 24.9737 23.679C24.9975 23.5458 24.9927 23.5363 24.9073 23.5839C24.7838 23.6505 24.7553 23.7123 24.7885 23.8217C24.8123 23.9025 24.855 23.912 25.064 23.9025L25.3109 23.893L25.3062 23.6647C25.3014 23.5458 25.2729 23.4127 25.2397 23.3699C25.178 23.2938 24.8598 23.27 24.8598 23.3414Z" fill="black"/>
<path d="M25.5009 23.3366C25.4867 23.3509 25.4772 23.4888 25.4772 23.641C25.4772 23.8835 25.4867 23.9215 25.5626 23.9073C25.6149 23.8978 25.6481 23.8407 25.6576 23.7266C25.6671 23.6362 25.7194 23.5126 25.7716 23.4507C25.8286 23.3937 25.8666 23.3461 25.8523 23.3414C25.6909 23.3176 25.5246 23.3176 25.5009 23.3366Z" fill="black"/>
<path d="M26.7452 23.3842C26.6407 23.503 26.6454 23.7408 26.7499 23.8359C26.8449 23.9263 27.1156 23.9453 27.1631 23.8692C27.1773 23.8407 27.1393 23.8217 27.0729 23.8217C26.9304 23.8217 26.8829 23.7551 26.8686 23.5458C26.8639 23.4174 26.8734 23.3889 26.9399 23.4032C26.9921 23.4127 27.0159 23.4555 27.0064 23.5316C26.9921 23.6124 27.0111 23.6362 27.0776 23.6219C27.1821 23.6029 27.2153 23.4602 27.1393 23.3699C27.0586 23.27 26.8354 23.2795 26.7452 23.3842Z" fill="black"/>
<path d="M19.8732 23.5839C19.8732 23.6077 19.897 23.6314 19.9254 23.6314C19.9492 23.6314 19.9587 23.6077 19.9444 23.5839C19.9302 23.5554 19.9064 23.5363 19.8922 23.5363C19.8827 23.5363 19.8732 23.5554 19.8732 23.5839Z" fill="black"/>
<path d="M20.9702 23.6124C20.9702 23.6647 20.9845 23.679 20.9987 23.641C21.013 23.6077 21.0082 23.5649 20.994 23.5506C20.9797 23.5316 20.9655 23.5601 20.9702 23.6124Z" fill="black"/>
<path d="M20.4906 24.1736C20.4906 24.321 20.5048 24.4399 20.5286 24.4399C20.5808 24.4399 20.5903 23.9739 20.5381 23.9406C20.5096 23.9215 20.4906 24.0119 20.4906 24.1736Z" fill="black"/>
<path d="M21.8583 24.4684C21.8441 24.9963 21.8821 25.2531 21.9296 24.9583C21.9723 24.6872 21.9676 24.088 21.9201 24.0167C21.8868 23.9691 21.8678 24.1165 21.8583 24.4684Z" fill="black"/>
<path d="M19.8732 24.0595C19.8732 24.0832 19.897 24.107 19.9254 24.107C19.9492 24.107 19.9587 24.0832 19.9444 24.0595C19.9302 24.0309 19.9064 24.0119 19.8922 24.0119C19.8827 24.0119 19.8732 24.0309 19.8732 24.0595Z" fill="black"/>
<path d="M20.2864 24.0452C20.2341 24.0927 20.2484 24.3353 20.3006 24.3686C20.3291 24.3876 20.3481 24.321 20.3481 24.2069C20.3481 24.0071 20.3386 23.9881 20.2864 24.0452Z" fill="black"/>
<path d="M21.4262 24.0452C21.3739 24.0975 21.3882 24.9155 21.4404 24.9155C21.4689 24.9155 21.4879 24.7347 21.4879 24.4637C21.4879 24.0119 21.4832 23.9834 21.4262 24.0452Z" fill="black"/>
<path d="M25.7431 24.4066C25.7051 24.7871 25.7194 24.925 25.7858 24.8584C25.8001 24.8441 25.8096 24.6444 25.8001 24.4114L25.7858 23.9881L25.7431 24.4066Z" fill="black"/>
<path d="M20.728 24.3448C20.728 24.5017 20.747 24.6301 20.7755 24.6301C20.804 24.6301 20.823 24.5017 20.823 24.3448C20.823 24.1878 20.804 24.0594 20.7755 24.0594C20.747 24.0594 20.728 24.1878 20.728 24.3448Z" fill="black"/>
<path d="M20.9797 24.3923C20.9797 24.5873 20.9892 24.6682 20.9987 24.5683C21.0082 24.4732 21.0082 24.3115 20.9987 24.2116C20.9892 24.1165 20.9797 24.1974 20.9797 24.3923Z" fill="black"/>
<path d="M21.222 24.4637C21.222 24.6967 21.2267 24.8013 21.2362 24.6919C21.2457 24.5826 21.2457 24.3876 21.2362 24.2639C21.2267 24.1403 21.222 24.2259 21.222 24.4637Z" fill="black"/>
<path d="M21.6304 24.4732C21.6304 24.7015 21.6541 24.925 21.6779 24.963C21.7111 25.0106 21.7254 24.8869 21.7254 24.5731C21.7254 24.3163 21.7064 24.0975 21.6779 24.0832C21.6494 24.0642 21.6304 24.2069 21.6304 24.4732Z" fill="black"/>
<path d="M22.1243 24.5826C22.1243 24.8822 22.129 25.0058 22.1385 24.8536C22.148 24.7062 22.148 24.4589 22.1385 24.3067C22.129 24.1593 22.1243 24.283 22.1243 24.5826Z" fill="black"/>
<path d="M22.3285 24.0927C22.281 24.1355 22.2952 24.8727 22.3427 24.9868C22.3712 25.0486 22.3855 24.9012 22.3855 24.5683C22.3902 24.0594 22.3855 24.0309 22.3285 24.0927Z" fill="black"/>
<path d="M22.5375 24.6159C22.5422 24.9773 22.5564 25.1247 22.5802 25.0343C22.6372 24.8156 22.6372 24.0594 22.5802 24.0594C22.5517 24.0594 22.5327 24.2734 22.5375 24.6159Z" fill="black"/>
<path d="M22.7702 24.6491C22.7702 24.9773 22.7844 25.2484 22.8082 25.2484C22.8556 25.2484 22.8651 24.1118 22.8129 24.0785C22.7892 24.0642 22.7702 24.302 22.7702 24.6491Z" fill="black"/>
<path d="M23.2166 24.6777C23.2166 25.0296 23.2213 25.177 23.2308 24.9963C23.2403 24.8203 23.2403 24.535 23.2308 24.3543C23.2213 24.1783 23.2166 24.3258 23.2166 24.6777Z" fill="black"/>
<path d="M23.454 24.6777C23.454 25.0296 23.4588 25.177 23.4683 24.9963C23.4778 24.8203 23.4778 24.535 23.4683 24.3543C23.4588 24.1783 23.454 24.3258 23.454 24.6777Z" fill="black"/>
<path d="M23.625 24.6777C23.625 25.0581 23.644 25.2959 23.6725 25.2959C23.701 25.2959 23.72 25.0581 23.72 24.6777C23.72 24.2972 23.701 24.0594 23.6725 24.0594C23.644 24.0594 23.625 24.2972 23.625 24.6777Z" fill="black"/>
<path d="M23.8625 24.6491C23.8625 24.9963 23.8815 25.2531 23.9099 25.2721C23.9384 25.2912 23.9574 25.0819 23.9574 24.6824C23.9574 24.2972 23.9384 24.0594 23.9099 24.0594C23.8815 24.0594 23.8625 24.2877 23.8625 24.6491Z" fill="black"/>
<path d="M24.1189 24.6539C24.1189 24.9916 24.1237 25.1247 24.1332 24.9488C24.1427 24.7728 24.1427 24.4922 24.1332 24.3305C24.1237 24.1688 24.1189 24.3115 24.1189 24.6539Z" fill="black"/>
<path d="M24.3564 24.6539C24.3564 24.9916 24.3611 25.1247 24.3706 24.9488C24.3801 24.7728 24.3801 24.4922 24.3706 24.3305C24.3611 24.1688 24.3564 24.3115 24.3564 24.6539Z" fill="black"/>
<path d="M24.5748 24.6349C24.5748 24.9535 24.5891 25.2056 24.6033 25.1865C24.6603 25.1295 24.6793 24.1213 24.6271 24.088C24.5891 24.0642 24.5748 24.2259 24.5748 24.6349Z" fill="black"/>
<path d="M24.8313 24.6063C24.8313 24.9202 24.836 25.0439 24.8455 24.8774C24.855 24.7157 24.855 24.4589 24.8455 24.3067C24.836 24.1593 24.8313 24.2925 24.8313 24.6063Z" fill="black"/>
<path d="M25.0687 24.5826C25.0687 24.8822 25.0735 25.0058 25.083 24.8536C25.0925 24.7062 25.0925 24.4589 25.083 24.3067C25.0735 24.1593 25.0687 24.283 25.0687 24.5826Z" fill="black"/>
<path d="M25.2777 24.1641C25.2682 24.2259 25.2729 24.4447 25.2919 24.6539L25.3204 25.0344L25.3252 24.5445C25.3347 24.0737 25.3204 23.9453 25.2777 24.1641Z" fill="black"/>
<path d="M25.5104 24.0927C25.4772 24.1498 25.5056 24.9107 25.5436 24.9487C25.5579 24.963 25.5721 24.7728 25.5721 24.5207C25.5721 24.088 25.5626 24.0071 25.5104 24.0927Z" fill="black"/>
<path d="M25.9521 24.4161C25.9521 24.6206 25.9663 24.7775 25.9806 24.7633C26.0185 24.7252 26.0185 24.1118 25.9853 24.0737C25.9663 24.0595 25.9521 24.2116 25.9521 24.4161Z" fill="black"/>
<path d="M26.3842 24.2972C26.3985 24.6254 26.4602 24.6396 26.4697 24.321C26.4745 24.1641 26.4555 24.0594 26.427 24.0594C26.3985 24.0594 26.3795 24.1593 26.3842 24.2972Z" fill="black"/>
<path d="M26.8069 24.2069C26.8069 24.2877 26.8259 24.34 26.8544 24.321C26.8829 24.3067 26.9019 24.2402 26.9019 24.1736C26.9019 24.1118 26.8829 24.0594 26.8544 24.0594C26.8306 24.0594 26.8069 24.126 26.8069 24.2069Z" fill="black"/>
<path d="M26.6217 24.1831C26.6217 24.2354 26.6359 24.2497 26.6502 24.2116C26.6644 24.1783 26.6597 24.1355 26.6454 24.1213C26.6312 24.1023 26.6169 24.1308 26.6217 24.1831Z" fill="black"/>
<path d="M31.2236 14.3628C30.8199 14.4912 30.7962 14.5197 30.9529 14.6766L31.0811 14.8098L31.3518 14.534C31.5038 14.3865 31.6035 14.2629 31.5798 14.2676C31.5513 14.2676 31.3945 14.3104 31.2236 14.3628Z" fill="black"/>
<path d="M32.3776 16.3126C32.1212 16.4362 32.0974 16.5979 32.3159 16.712C32.5011 16.8071 32.5201 16.8024 32.691 16.6597C32.843 16.5313 32.881 16.3696 32.7813 16.2698C32.7005 16.1889 32.6056 16.1984 32.3776 16.3126Z" fill="black"/>
<path d="M15.0766 16.5123C15.4708 16.7596 15.5373 16.7691 15.5753 16.5931C15.5943 16.5123 15.5943 16.4314 15.5753 16.4124C15.561 16.3934 15.3805 16.3744 15.1811 16.3649L14.8154 16.3458L15.0766 16.5123Z" fill="black"/>
<path d="M14.255 18.5334C14.0745 18.7332 14.1933 18.8758 14.5305 18.8758C14.7822 18.8758 14.8866 18.8188 14.8866 18.6809C14.8866 18.4573 14.4212 18.348 14.255 18.5334Z" fill="black"/>
<path d="M15.3331 20.6069C15.1621 20.683 15.1051 20.8399 15.1858 21.0159C15.2571 21.1633 15.4613 21.1966 15.6275 21.0872C15.7747 20.9921 15.77 20.8589 15.6133 20.6877C15.485 20.5498 15.4708 20.5451 15.3331 20.6069Z" fill="black"/>
<path d="M14.4497 20.8304C14.388 20.8637 14.3642 20.935 14.3642 21.0682V21.2584L14.5874 21.2441C14.7869 21.2299 14.8201 21.2156 14.8629 21.0919C14.9009 20.9778 14.8914 20.9445 14.7964 20.8684C14.6729 20.7686 14.5732 20.7591 14.4497 20.8304Z" fill="black"/>
<path d="M17.8548 25.391C17.7314 25.4386 17.3087 25.8428 17.1947 26.0188C17.0427 26.247 17.2042 26.4515 17.4939 26.3992C17.6554 26.3659 18.2585 25.7667 18.2585 25.6336C18.2585 25.5242 18.1018 25.3435 18.0116 25.3482C17.9783 25.3482 17.9071 25.3672 17.8548 25.391Z" fill="black"/>
<path d="M29.4094 25.6003C29.2907 25.6906 29.3049 25.7715 29.4712 25.9997C29.6326 26.2233 29.7561 26.2518 29.8653 26.0949C29.9698 25.9474 29.9603 25.8761 29.8178 25.6906C29.6896 25.5242 29.5519 25.4909 29.4094 25.6003Z" fill="black"/>
<path d="M26.1705 27.4692C26.1183 27.5976 26.2323 27.8639 26.3367 27.8639C26.5647 27.8639 26.7404 27.6071 26.6122 27.455C26.5315 27.3598 26.2085 27.3694 26.1705 27.4692Z" fill="black"/>
<path d="M26.3557 28.2444C26.2703 28.3395 26.2845 28.5345 26.389 28.6581C26.5125 28.8103 26.8544 28.6581 26.8544 28.4536C26.8544 28.1968 26.5267 28.0589 26.3557 28.2444Z" fill="black"/>
</g>
<path d="M46.6632 27V12.4545H51.1447C52.068 12.4545 52.8588 12.6439 53.5169 13.0227C54.1798 13.4015 54.6888 13.92 55.0439 14.5781C55.399 15.2363 55.5766 15.9867 55.5766 16.8295C55.5766 17.6629 55.399 18.4086 55.0439 19.0668C54.6888 19.7249 54.1798 20.2457 53.5169 20.6293C52.8588 21.008 52.0704 21.1974 51.1518 21.1974H47.2882V20.3736H51.1305C51.8786 20.3736 52.5178 20.2221 53.0482 19.919C53.5785 19.6113 53.9857 19.1922 54.2697 18.6619C54.5538 18.1269 54.6959 17.5161 54.6959 16.8295C54.6959 16.1383 54.5538 15.5251 54.2697 14.9901C53.9857 14.455 53.5761 14.036 53.041 13.733C52.5107 13.4299 51.8715 13.2784 51.1234 13.2784H47.551V27H46.6632ZM71.357 19.7273C71.357 21.2282 71.0966 22.5398 70.5758 23.6619C70.0549 24.7794 69.3305 25.6482 68.4025 26.2685C67.4792 26.8887 66.4138 27.1989 65.2065 27.1989C63.9943 27.1989 62.9243 26.8887 61.9962 26.2685C61.0729 25.6435 60.3509 24.7723 59.83 23.6548C59.3092 22.5327 59.0488 21.2235 59.0488 19.7273C59.0488 18.2263 59.3092 16.9171 59.83 15.7997C60.3556 14.6823 61.08 13.8134 62.0033 13.1932C62.9266 12.5682 63.9943 12.2557 65.2065 12.2557C66.4138 12.2557 67.4792 12.5658 68.4025 13.1861C69.3305 13.8063 70.0549 14.6776 70.5758 15.7997C71.0966 16.9171 71.357 18.2263 71.357 19.7273ZM70.4906 19.7273C70.4906 18.3778 70.2633 17.2083 69.8087 16.2188C69.3589 15.2292 68.7363 14.4645 67.9408 13.9247C67.1454 13.3802 66.2339 13.108 65.2065 13.108C64.179 13.108 63.2675 13.3778 62.4721 13.9176C61.6766 14.4527 61.0516 15.2173 60.5971 16.2116C60.1473 17.2012 59.9224 18.3731 59.9224 19.7273C59.9224 21.0672 60.1449 22.2344 60.59 23.2287C61.0398 24.2183 61.6624 24.9853 62.4579 25.5298C63.2533 26.0743 64.1695 26.3466 65.2065 26.3466C66.2339 26.3466 67.1454 26.0767 67.9408 25.5369C68.7363 24.9924 69.3589 24.2254 69.8087 23.2358C70.2633 22.2462 70.4906 21.0767 70.4906 19.7273ZM86.7415 12.4545V27H85.8751L76.5995 14.0668H76.5143V27H75.6265V12.4545H76.5001L85.7756 25.402H85.8609V12.4545H86.7415ZM91.1779 27H90.2404L95.489 12.4545H96.5117L101.76 27H100.823L96.0359 13.598H95.9648L91.1779 27ZM92.506 21.5241H99.4947V22.348H92.506V21.5241ZM105.273 27V12.4545H109.755C110.673 12.4545 111.464 12.6345 112.127 12.9943C112.79 13.3542 113.299 13.8537 113.654 14.4929C114.009 15.1274 114.187 15.866 114.187 16.7088C114.187 17.5421 114.009 18.276 113.654 18.9105C113.299 19.5402 112.79 20.0327 112.127 20.3878C111.469 20.7429 110.681 20.9205 109.762 20.9205H105.749V20.0895H109.741C110.489 20.0895 111.128 19.9498 111.658 19.6705C112.189 19.3911 112.596 19.0005 112.88 18.4986C113.164 17.992 113.306 17.3954 113.306 16.7088C113.306 16.0175 113.164 15.4162 112.88 14.9048C112.596 14.3887 112.186 13.9886 111.651 13.7045C111.121 13.4205 110.482 13.2784 109.734 13.2784H106.161V27H105.273ZM111.246 20.4091L114.826 27H113.803L110.245 20.4091H111.246ZM117.568 13.2784V12.4545H127.76V13.2784H123.108V27H122.22V13.2784H117.568ZM131.795 27V12.4545H132.683V19.3082H141.447V12.4545H142.335V27H141.447V20.1321H132.683V27H131.795Z" fill="black"/>
<defs>
<filter id="filter0_d_7_6" x="0" y="0" width="161" height="44" filterUnits="userSpaceOnUse" color-interpolation-filters="sRGB">
<feFlood flood-opacity="0" result="BackgroundImageFix"/>
<feColorMatrix in="SourceAlpha" type="matrix" values="0 0 0 0 0 0 0 0 0 0 0 0 0 0 0 0 0 0 127 0" result="hardAlpha"/>
<feOffset dy="3"/>
<feGaussianBlur stdDeviation="2"/>
<feComposite in2="hardAlpha" operator="out"/>
<feColorMatrix type="matrix" values="0 0 0 0 0 0 0 0 0 0 0 0 0 0 0 0 0 0 0.25 0"/>
<feBlend mode="normal" in2="BackgroundImageFix" result="effect1_dropShadow_7_6"/>
<feBlend mode="normal" in="SourceGraphic" in2="effect1_dropShadow_7_6" result="shape"/>
</filter>
<clipPath id="clip0_7_6">
<rect width="33" height="33" fill="white" transform="translate(7 3)"/>
</clipPath>
</defs>
</svg>
