<svg width="210" height="210" viewBox="0 0 210 210" fill="none" xmlns="http://www.w3.org/2000/svg">
<path d="M205.5 105C205.5 160.505 160.505 205.5 105 205.5C49.4954 205.5 4.5 160.505 4.5 105C4.5 49.4954 49.4954 4.5 105 4.5C160.505 4.5 205.5 49.4954 205.5 105Z" fill="black" stroke="black" stroke-width="9"/>
<path d="M134.448 100.914C132.228 100.457 130.009 100.003 127.274 99.4439C127.186 101.199 127.065 102.479 127.062 103.76C127.047 112.647 127.014 121.534 127.084 130.418C127.098 132.312 126.67 133.519 124.798 134.444C113.138 140.219 101.544 146.129 89.9238 151.992C89.6057 152.153 89.2437 152.233 88.432 152.519C88.3625 151.089 88.2492 149.82 88.2492 148.551C88.2382 133.819 88.2565 119.091 88.2199 104.359C88.2162 102.94 87.8872 101.525 87.7117 100.106L87.6276 100.197C89.5216 99.8718 91.4083 99.389 93.3169 99.2537C96.6844 99.016 100.067 98.9941 103.635 98.877C103.635 90.6005 103.635 82.741 103.635 74.6583C102.264 74.3036 100.878 73.9635 99.4998 73.5904C95.412 72.4859 92.9549 69.8636 92.6039 65.6175C92.4028 63.2073 92.5052 60.7496 92.6953 58.3321C93.1231 52.9742 92.7648 47.854 88.8707 43.5822C91.8361 42.8215 91.8799 42.7703 93.7483 44.3173C96.5711 46.6544 99.7375 47.8686 103.569 47.7881C103.756 46.2008 103.92 44.7818 104.107 43.1763C106.454 43.1763 108.714 43.1763 111.149 43.1763C111.328 44.6867 111.496 46.0911 111.687 47.704C115.365 47.9381 118.469 46.797 121.014 44.3832C122.52 42.9532 124.041 42.7228 126.276 43.2787C121.701 48.1612 121.526 53.947 121.782 59.8682C121.866 61.8066 121.785 63.7632 121.643 65.7016C121.332 69.9843 119.007 72.6285 114.882 73.7257C113.837 74.0037 112.794 74.3109 111.61 74.6437C111.61 82.5837 111.61 90.4616 111.61 98.8222C116.63 99.0343 121.555 99.2428 126.773 99.4622C128.001 94.9783 129.182 90.6773 130.411 86.1898C129.424 85.7034 128.59 85.2938 127.307 84.6611C128.155 76.2127 129.021 67.5705 129.932 58.4967C137.859 58.4711 144.897 60.4936 152.068 64.3374C148.422 72.4091 144.894 80.2284 141.314 88.1648C140.188 88.2196 139.146 88.2745 137.976 88.333C136.758 92.6121 135.566 96.807 134.371 101.002L134.448 100.914ZM139.022 76.8271C138.828 76.743 138.634 76.6589 138.44 76.5711C139.263 72.9138 140.115 69.2638 140.879 65.5919C141.014 64.9336 140.773 64.1948 140.704 63.4926C140.422 63.456 140.141 63.4194 139.859 63.3829C137.742 67.1755 137.468 71.7508 135.135 75.5288C134.97 73.2283 135.31 70.9827 135.234 68.7518C135.157 66.4952 136.151 64.0302 134.426 61.781C133.15 63.9242 131.555 77.5805 131.998 82.1192C134.192 82.6825 136.477 83.2676 138.93 83.9004C141.676 77.7012 144.283 71.8203 146.865 65.9284C146.923 65.793 146.671 65.5224 146.419 65.0323C143.903 66.0637 143.709 68.7481 142.499 70.606C141.208 72.5883 140.173 74.7461 139.022 76.8271ZM103.814 58.6869C101.178 58.6869 99.0684 58.6869 96.7941 58.6869C96.7941 60.0072 96.7941 61.119 96.7941 62.3296C99.1634 62.3296 101.281 62.3296 103.635 62.3296C103.697 61.1263 103.749 60.0986 103.814 58.6869ZM111.643 62.2637C114.111 62.2637 116.202 62.2637 118.517 62.2637C118.447 60.969 118.389 59.9413 118.323 58.7088C116.016 58.7088 113.928 58.7088 111.643 58.7088C111.643 59.9633 111.643 60.9837 111.643 62.2637ZM118.586 50.4945C116.125 50.9627 113.946 51.3759 111.661 51.8075C111.661 52.7401 111.661 53.5118 111.661 54.4188C113.95 54.4188 116.045 54.4188 118.348 54.4188C118.433 53.051 118.502 51.9026 118.586 50.4945ZM103.679 51.7782C101.196 51.3503 99.0062 50.9736 96.5162 50.5457C96.582 51.9977 96.6369 53.1351 96.6954 54.4152C99.1378 54.4152 101.35 54.4152 103.679 54.4152C103.679 53.4972 103.679 52.8133 103.679 51.7782ZM97.1634 66.5025C98.3188 69.6113 99.7558 70.4049 103.807 70.1781C103.752 68.942 103.697 67.7021 103.646 66.5025C101.211 66.5025 99.222 66.5025 97.1634 66.5025ZM111.613 70.5036C116.542 69.8234 117.23 69.337 117.65 66.5428C115.661 66.5428 113.683 66.5428 111.613 66.5428C111.613 67.9618 111.613 69.1212 111.613 70.5036Z" fill="white"/>
<path d="M87.7108 100.103C85.4585 100.136 83.2061 100.172 80.6759 100.209C80.6759 119.322 80.6759 137.916 80.6759 156.729C76.7929 158.696 73.0524 160.591 68.9646 162.661C68.9646 142.264 68.9646 122.464 68.9646 102.396C72.6209 101.664 76.1603 100.959 80.1421 100.165C79.1659 96.4382 78.3066 92.8028 77.1951 89.2479C76.9793 88.5567 75.8459 87.8947 75.0195 87.6935C69.5679 86.355 66.5477 82.8183 65.2716 77.4897C64.3136 73.4849 63.1948 69.5167 62.032 65.095C70.0578 62.9336 77.8459 60.8343 85.9667 58.6472C87.3708 64.071 88.8918 69.0632 89.912 74.1578C90.709 78.1224 89.1697 81.6626 86.241 84.3764C84.8406 85.6747 84.6285 86.8853 85.1221 88.5603C85.9484 91.3582 86.7199 94.1779 87.4037 97.016C87.6487 98.0327 87.5646 99.1299 87.6231 100.198L87.7108 100.103ZM83.1476 63.5407C77.6448 65.0109 72.4271 66.4044 67.14 67.8161C67.2095 68.5841 67.1839 69.0632 67.3009 69.5094C67.9993 72.2122 68.6501 74.9295 69.4728 77.5921C70.9353 82.3246 75.0305 84.797 79.5461 83.7985C83.9411 82.8257 86.6614 78.6563 85.7656 73.7629C85.155 70.4493 84.1056 67.2199 83.1476 63.5407Z" fill="white"/>
<path d="M134.361 100.999C134.939 100.86 135.531 100.545 136.087 100.607C141.169 101.171 146.153 102.176 150.881 104.214C153.221 105.223 154.577 106.722 154.336 109.524C154.117 112.058 154.259 114.626 154.299 117.179C154.318 118.371 154.036 119.256 152.881 119.859C147.169 122.826 141.487 125.846 135.787 128.827C135.612 128.919 135.334 128.809 134.734 128.765C134.734 127.628 134.734 126.461 134.734 125.291C134.734 118.364 134.749 111.433 134.723 104.506C134.719 103.303 134.559 102.103 134.46 100.907C134.449 100.915 134.361 100.999 134.361 100.999Z" fill="white"/>
<path d="M64.8438 104.078C64.8438 124.248 64.8438 144.378 64.8438 164.669C63.469 165.367 62.0906 166.066 60.3282 166.962C60.1966 165.678 60.0247 164.786 60.0211 163.893C60.0028 145.768 59.9955 127.646 60.0028 109.52C60.0065 105.483 60.4416 105.007 64.8438 104.078Z" fill="white"/>
</svg>
