<svg xmlns="http://www.w3.org/2000/svg" width="1306" height="299" viewBox="0 0 1306 299" version="1.1"><path d="" stroke="none" fill="#ecdc5c" fill-rule="evenodd"/><path d="M 877.435 1.890 C 867.641 6.339, 862 14.546, 862 24.348 C 862 38.730, 873.049 48.995, 888.500 48.968 C 896.786 48.954, 902.032 46.901, 907.334 41.600 C 912.015 36.919, 913.970 33.053, 914.677 27.077 C 915.831 17.335, 909.219 6.360, 899.500 1.886 C 894.079 -0.610, 882.935 -0.608, 877.435 1.890 M 757.607 49.750 C 756.079 58.413, 754.594 66.513, 754.306 67.750 C 753.805 69.904, 753.344 70, 743.459 70 C 734.491 70, 733.066 70.230, 732.615 71.750 C 732.074 73.569, 726 108.042, 726 109.290 C 726 109.681, 730.774 110, 736.608 110 C 747.104 110, 747.211 110.024, 746.673 112.250 C 746.081 114.698, 725 235.497, 725 236.442 C 725 236.760, 746.472 236.903, 772.716 236.760 L 820.433 236.500 823.644 218.500 C 825.409 208.600, 826.887 199.713, 826.927 198.750 C 826.995 197.130, 825.218 197, 803 197 L 779 197 779.063 194.750 C 779.098 193.512, 782.363 174.050, 786.320 151.500 L 793.514 110.500 816.795 110.231 C 834.126 110.032, 840.190 109.648, 840.518 108.731 C 841.143 106.990, 847 73.363, 847 71.522 C 847 70.204, 843.922 70, 824 70 C 806.262 70, 801.002 69.714, 801.008 68.750 C 801.012 68.063, 802.359 60.300, 804 51.500 C 805.641 42.700, 806.988 35.163, 806.992 34.750 C 806.996 34.337, 796.512 34, 783.693 34 L 760.385 34 757.607 49.750 M 83.216 67.019 C 72.081 69.936, 62.630 75.403, 54.273 83.759 L 47 91.032 47 80.516 L 47 70 23.496 70 L -0.008 70 0.246 184.250 L 0.500 298.500 23.750 298.768 L 47 299.037 47 257.518 C 47 234.683, 47.128 216, 47.283 216 C 47.439 216, 50.702 219.059, 54.533 222.797 C 69.435 237.335, 87.693 243.414, 109.156 240.982 C 140.285 237.456, 165.047 214.797, 174.157 181.500 C 176.043 174.607, 176.357 170.801, 176.423 154 C 176.491 136.811, 176.229 133.433, 174.212 125.500 C 166.600 95.561, 144.396 72.576, 117.303 66.590 C 107.491 64.422, 92.401 64.612, 83.216 67.019 M 386 67.052 C 356.291 74.743, 335.305 99.272, 329.396 133.213 C 327.155 146.079, 327.964 170.204, 331.013 181.500 C 340.032 214.907, 364.593 237.442, 395.844 240.982 C 417.307 243.414, 435.565 237.335, 450.467 222.797 C 454.298 219.059, 457.561 216, 457.717 216 C 457.872 216, 458 220.733, 458 226.518 L 458 237.037 481.250 236.768 L 504.500 236.500 504.756 153.250 L 505.011 70 481.506 70 L 458 70 458 80.516 L 458 91.032 450.727 83.759 C 437.932 70.965, 422.776 64.950, 403.590 65.055 C 397.007 65.091, 390.894 65.785, 386 67.052 M 602.047 66.075 C 585.820 68.953, 570.148 77.017, 557.722 88.885 C 538.973 106.791, 531.286 123.592, 530.268 148.890 C 529.244 174.358, 535.185 192.316, 550.675 210.576 C 569.562 232.839, 598.469 243.986, 629.652 241.031 C 643.344 239.734, 650.629 237.787, 661.500 232.519 C 680.546 223.291, 694.950 206.197, 702.576 183.775 C 703.909 179.856, 705 176.279, 705 175.825 C 705 175.371, 694.226 175, 681.059 175 L 657.117 175 653.882 181.071 C 641.393 204.502, 609.706 208.186, 590.978 188.383 C 582.138 179.036, 577.943 167.260, 578.058 152.114 C 578.207 132.446, 587.772 116.170, 603.808 108.295 C 608.887 105.801, 610.576 105.500, 619.500 105.500 C 628.343 105.500, 630.186 105.821, 635.430 108.277 C 643.894 112.241, 648.935 116.757, 653.382 124.362 L 657.264 131 681.132 131 C 694.259 131, 705 130.849, 705 130.665 C 705 130.481, 704.058 127.443, 702.906 123.915 C 696.085 103.014, 679.546 82.857, 661.914 73.957 C 650.128 68.007, 640.090 65.811, 623 65.442 C 614.475 65.258, 605.046 65.543, 602.047 66.075 M 1009.047 66.075 C 992.820 68.953, 977.148 77.017, 964.722 88.885 C 952.008 101.028, 944.201 113.401, 939.933 128.171 C 937.202 137.625, 936.226 157.902, 937.979 168.773 C 943.346 202.063, 969.224 229.921, 1002.936 238.700 C 1015.002 241.843, 1035.775 242.219, 1048.500 239.525 C 1077.925 233.297, 1099.391 213.722, 1109.550 183.852 C 1110.898 179.891, 1112 176.279, 1112 175.825 C 1112 175.371, 1101.226 175, 1088.059 175 L 1064.117 175 1060.882 181.071 C 1051.317 199.015, 1027.826 206.533, 1009.825 197.411 C 987.178 185.935, 978.216 154.573, 990.275 129 C 994.124 120.839, 1002.457 112.364, 1010.500 108.433 C 1015.918 105.785, 1017.471 105.500, 1026.500 105.500 C 1035.343 105.500, 1037.186 105.821, 1042.430 108.277 C 1050.894 112.241, 1055.935 116.757, 1060.382 124.362 L 1064.264 131 1088.151 131 L 1112.038 131 1111.376 128.250 C 1109.120 118.885, 1101.889 104.844, 1094.484 95.450 C 1083.799 81.894, 1071.298 73.459, 1054.463 68.446 C 1046.789 66.160, 1043.271 65.728, 1030 65.442 C 1021.475 65.258, 1012.046 65.543, 1009.047 66.075 M 1198 66.458 C 1164.676 73.621, 1138.541 98.171, 1129.823 130.500 C 1126.754 141.881, 1126.761 164.988, 1129.838 176.337 C 1137.371 204.125, 1160.305 228.200, 1187.597 236.971 C 1209.440 243.990, 1237.926 242.641, 1258.322 233.621 C 1277.035 225.345, 1293.836 208.053, 1301.507 189.174 C 1302.878 185.800, 1304 182.806, 1304 182.520 C 1304 182.234, 1292.810 182, 1279.133 182 L 1254.266 182 1251.672 185.919 C 1244.685 196.478, 1228.138 202.693, 1211.788 200.899 C 1196.471 199.218, 1181.715 185.508, 1176.649 168.250 L 1175.108 163 1240.706 163 L 1306.305 163 1305.661 151.731 C 1304.847 137.472, 1303.596 130.751, 1299.808 120.283 C 1290.802 95.392, 1269.207 75.506, 1243 67.967 C 1233.274 65.170, 1207.946 64.321, 1198 66.458 M 285 67.142 C 272.491 69.209, 258.447 79.306, 253.207 90 L 251.002 94.500 251.001 82.250 L 251 70 227.500 70 L 204 70 204 153.518 L 204 237.037 227.250 236.768 L 250.500 236.500 251 186.500 L 251.500 136.500 254.120 130.914 C 259.069 120.359, 267.899 114.166, 281 112.060 C 284.575 111.485, 293.462 111.012, 300.750 111.008 L 314 111 314 88.500 L 314 66 302.250 66.117 C 295.788 66.181, 288.025 66.643, 285 67.142 M 865 153.518 L 865 237.037 888.250 236.768 L 911.500 236.500 911.756 153.250 L 912.011 70 888.506 70 L 865 70 865 153.518 M 76.929 106.304 C 57.004 111.953, 45.533 132.107, 47.365 158.249 C 49.233 184.908, 64.617 201.054, 88.200 201.106 C 101.736 201.135, 111.971 196.304, 119.621 186.274 C 128.334 174.851, 131.443 153.874, 126.999 136.496 C 123.578 123.120, 116.486 113.831, 105.645 108.527 C 100.895 106.203, 98.305 105.655, 90.700 105.362 C 85.099 105.147, 79.712 105.515, 76.929 106.304 M 404.880 106.317 C 393.340 109.584, 382.885 120.271, 378.926 132.845 C 377.683 136.795, 376.607 143.603, 376.280 149.592 C 374.441 183.266, 393.446 204.226, 422.723 200.810 C 439.716 198.827, 452.525 186.184, 456.486 167.483 C 462.024 141.341, 452.524 117.081, 433.305 108.282 C 426.501 105.167, 412.387 104.191, 404.880 106.317 M 1205.500 106.402 C 1192.501 110.524, 1182.882 119.660, 1177.987 132.534 L 1177.050 135 1216.521 135 L 1255.992 135 1254.044 129.872 C 1248.110 114.257, 1234.016 104.905, 1216.661 105.067 C 1212.722 105.104, 1207.700 105.705, 1205.500 106.402" stroke="none" fill="#ecdc54" fill-rule="evenodd"/></svg>