<?xml version="1.0" encoding="UTF-8"?>
<svg xmlns="http://www.w3.org/2000/svg" viewBox="0 0 568.52773 567.75027">
  <defs>
    <style>
      .cls-1, .cls-2 {
        stroke-width: 0px;
      }

      .cls-2 {
        fill: #fff;
      }
    </style>
  </defs>
  <g id="_Слой_1" data-name="Слой 1">
    <ellipse class="cls-2" cx="288.83771" cy="281.46939" rx="272.17021" ry="276.25532"/>
  </g>
  <g id="_Слой_2" data-name="Слой 2">
    <path class="cls-1" d="m259.36962.35026c-16.7,2-22.1,2.8-32.9,5-37.7,7.7-82.6,28-113.5,51.3C58.56962,97.85026,19.76962,159.25026,5.76962,226.75026,1.36962,247.95026.06962,263.85026.66962,290.25026c.5,25,1.7,35.6,6.3,56.4,25.4,114.3,118.9,201,236.4,219.1,9.7,1.6,17.7,2,36,2,28.7,0,44.2-1.2,60.3-4.4,121.1-24.6,211.1-120.8,227.2-243.1,2.2-16.6,2.2-57.9,0-73.5-6.1-43.5-21-83.8-43.9-118.4C477.26963,59.25026,405.16962,13.45026,324.36962,2.25026c-11-1.6-56.8-2.9-65-1.9Zm38.5,21.9c11.8,4.3,26.1,9.9,76.5,29.8,39,15.4,57.2,22.5,78.9,30.9l21.5,8.3,23.1,54c38.4,89.7,56.6,132.8,57.2,135.5.7,3.5-71.8,181.2-75.6,185.2-1.6,1.6-33,15.1-97.6,41.8-17.6,7.3-38.7,16-47,19.5-8.2,3.4-22.5,9.2-31.7,13l-16.7,6.7-13.3-6c-10.9-4.9-111.2-48-164.3-70.5l-13-5.5-23.8-63.4c-33.1-88.3-42.6-115.1-42.9-121.3-.1-3.4,9.8-28.8,40.4-103,11.6-28.1,23.9-57.9,27.4-66.4s6.7-15.7,7.1-16.1c.5-.4,7.1-3.3,14.8-6.5,41.9-17.3,146-61.7,152.2-64.8,3.9-2,7.4-4.1,7.8-4.7,1.2-2,6.7-1,19,3.5Zm-27.5,527.00001c0,1.6-2.6,5.5-3.7,5.5-1.7,0-1.7-1.1.3-3.8,1.3-1.9,3.4-3,3.4-1.7Z"/>
    <path class="cls-1" d="m262.83771,50.35026c-17.7,2.4-23.5,3.6-37.7,7.5-37.2,10.3-70.4,29.5-98.9,57.2-45.9,44.4-71,103.5-70.8,166.7.1,36.7,7.5,69,23.3,101.5,31.2,63.9,91.2,111,160.1,125.8,15.9,3.5,20.2,3.9,42,4.4,33.8.8,54.8-2.1,81.9-11.3,34.1-11.6,62.3-28.9,88.9-54.8,18.6-18.2,32.7-37.1,44.1-59,20-38.7,27.6-76,25.1-122.4-.9-17.5-1.5-21.5-6.1-40.2-7.1-29.7-22.1-60.7-41.7-86.5-6.8-8.8-29.4-31.7-39.2-39.5-23-18.3-48.8-31.7-79.5-41.3-26.9-8.4-65.1-11.8-91.5-8.1Zm16.4,22.9c.3.8,1,8.3,1.6,16.7s1.3,16.8,1.6,18.6c.7,4.7-.9,6.2-6.7,6.2-4.7,0-4.8-.1-5.3-3.3-.7-4.3-2.6-30.2-2.6-35.5v-4.2h5.4c3.8,0,5.5.4,6,1.5Zm43.9.9c10.7,1.8,17.6,5,19.7,9.1,2,4.1,1.8,11.4-.6,16-2.9,5.6-7.4,7.7-15.9,7.3l-7-.3-1,4c-1.5,6.1-1.8,6.3-7.5,5.1-6-1.2-5.9-.3-2.5-19.2,1.4-7.6,2.8-15.5,3.1-17.4.8-4.7,1.2-6,2.1-6,.4,0,4.8.7,9.6,1.4Zm-70.2,2.8c1.6,2.9-1,5-8.5,6.7-5.4,1.2-5.6,1.4-5.6,4.5,0,1.8.6,4,1.3,4.9,1.1,1.5,1.8,1.6,7,.6,4.9-1,6-1,6.8.2,2,3.1.5,5.2-4.5,6.5-2.7.7-5.3,1.7-5.9,2.3-1.1,1.1-.1,7.7,1.3,8.6.6.3,3.6.1,6.7-.6,9.2-1.8,9.8-1.7,10.1,1.2.4,3.4-.9,4.3-9.8,6.3-4.1.9-9.4,2.2-11.8,2.8-2.5.6-4.6.7-5.1.2-.7-.8-3.5-11.5-8.6-32.7-.9-3.8-1.4-7.1-1.2-7.4.7-.7,21.8-6,24.4-6.2,1.4,0,2.7.8,3.4,2.1Zm124.3,13.3c9.3,2.8,15.6,9.7,15.6,16.9,0,4.5-6.3,18.5-10.3,22.8-2.9,3.2-9.6,5.2-14,4.3-4.9-1-13.6-6.6-15.8-10.1-2.5-4.1-2.5-11.6.2-17.4,4-8.8,8.1-14.2,12.3-16.1,5-2.3,5.8-2.3,12-.4Zm-168,3.6c4,3.1,5.6,7.1,5.7,14.1v6.3l6,4.8c3.2,2.7,5.9,5.2,5.9,5.7,0,.9-8,5-9.8,5-.6,0-3.2-1.8-5.7-4-4.8-4.1-9.5-5.3-9.5-2.4,0,.8.9,3.6,2.1,6.1,1.1,2.5,1.8,5.1,1.5,5.9-.7,1.9-7.1,4.8-8.9,4.1-1.6-.6-18.7-33.5-18.7-35.9,0-.7,4.8-3.7,10.7-6.6,11.9-5.8,16.4-6.5,20.7-3.1Zm209.4,22.7l4.3,3.7-2.1,8.5c-1.1,4.7-2.5,10.1-3,12-1.7,6.1.6,6.1,5.8,0,2.6-3,5.9-6.8,7.4-8.5l2.7-3,3.7,3.7c3.5,3.4,3.7,3.9,2.3,5.5-19.3,22.6-25.3,29.3-26.3,29.3-.7,0-2.8-1.7-4.8-3.8l-3.7-3.7,2-9c2.8-12.8,3.3-16.5,2.3-16.5-.5,0-4.4,3.7-8.6,8.2l-7.6,8.3-3.6-3.4c-2.1-2.1-3.2-3.9-2.8-4.7,2-3.5,25.9-30.4,27.1-30.4.3,0,2.5,1.7,4.9,3.8Zm-254.6-.1c1,.9,1.8,2.1,1.8,2.7s-2.5,3.4-5.7,6.2l-5.6,5,3.5,3.9,3.5,3.9,4.8-4.2c4.5-4,4.9-4.1,6.7-2.6,2.6,2.4,2.3,3.5-2.2,7.9-2.2,2.1-4,4.4-4,5.1,0,1.8,4,6.4,5.7,6.4.8,0,3.8-2,6.6-4.5,2.9-2.5,5.6-4.5,6.2-4.5.5,0,1.8,1.1,2.7,2.4,1.6,2.2,1.6,2.4-1,4.9-5.6,5.3-17.8,14.7-18.9,14.7-.7,0-2.4-1.2-3.7-2.8-18.1-20.9-22.8-26.9-22.4-28.8.3-1.2,18.6-17.4,19.7-17.4.3,0,1.3.7,2.3,1.7Zm150.3,26.1c30.1,6.8,56.4,22.3,75.7,44.5,17,19.7,26.9,40.2,32.3,66.5,2.1,10.2,2,40.6-.1,51-5.3,26.7-17,49.9-34.4,68.5-27,28.8-58.2,43.1-98.7,45.3-9.4.5-14.3.2-24.3-1.5-18.7-3-28.2-6.2-45-14.8-38.2-19.5-65.1-57-72.6-101-2.1-12-1.4-39.8,1.1-51.3,12.2-55.3,55.1-96.8,111.5-108,13-2.6,41.2-2.2,54.5.8Zm-172.8,16.9c5,3.5,10.3,7.7,11.7,9.4,3.5,4.1,3.4,9.7-.2,16.8-3.6,7.2-8.7,11.3-14.9,11.8-4.6.4-5.4.1-17.3-7.7-6.9-4.4-13.1-8.6-13.7-9.3-1-1-.7-2.1,1.3-5.5,1.4-2.3,3.1-4.2,3.9-4.2s6.9,3.6,13.6,8c13.9,9.1,16.8,9.8,19.2,4.9.8-1.7,1.2-4,.9-5.1s-5.9-5.6-13.3-10.5c-7.1-4.8-12.9-9-12.9-9.6,0-1.1,4-6.9,5.4-7.9,1.3-.9,5.4,1.3,16.3,8.9Zm323.3,8.8c3.7,5.7,4.1,6.7,2.9,8.3-4.7,6-27.3,30.2-28.2,30.2-1.4,0-5.7-7.2-5.7-9.3,0-.8.7-2,1.5-2.7,2.2-1.8,1.8-5-1-9.2-2.4-3.6-2.8-3.7-6.8-3.2-4.1.6-4.3.5-6.6-3.6-1.3-2.3-1.9-4.5-1.5-4.9.5-.4,5.4-2.2,10.9-3.9,5.5-1.8,13.4-4.3,17.5-5.6,11.6-3.8,12.1-3.7,17,3.9Zm21.2,44c5.4,15.3,4.5,19.5-5,23.7-4.3,2-9.2,1.8-11.9-.4-.9-.7-3.2.7-8.4,5.3q-7.6,6.8-9.9-.2l-1.3-4,5.1-5.2c7.8-7.9,6.6-11.4-2.9-8.3-2.7.9-5.3,1.4-5.8,1.2-.4-.3-1.6-2.4-2.6-4.7-1.8-3.9-1.8-4.2-.2-5.4,1-.7,8.9-3.8,17.5-6.8s16.4-5.7,17.2-6c3.5-1.3,4.5,0,8.2,10.8Zm-353.40001-4.9c2.8.3,5.2.9,5.2,1.3,0,2-3.2,9.6-4.3,10.3-.7.4-1.9.5-2.8.3-2.4-.8-5.1,1.9-6.5,6.5-1.2,4.2-1.2,4.4,1.7,7.1s3,2.9,1.8,7c-.7,2.2-1.8,4.3-2.5,4.6-.9.3-28.3-16.5-36.1-22.1-.1-.1.9-3.8,2.3-8.2l2.4-8.1,16.8.4c9.2.2,19.1.6,22,.9Zm-33.9,42.4c1.9.5,4.7,2.1,6.2,3.6l2.8,2.6,7.3-2.3c4-1.3,7.9-2.5,8.6-2.7.8-.2,1.2,1.1,1.2,4.7,0,5.7-1.3,7.1-8.6,9-4.7,1.3-6.7,3.2-6.2,5.8.2,1.4,1.6,1.9,6.3,2.3l6,.5v6c0,5.4-.2,6-2,5.8-1.1-.2-9-.8-17.5-1.4s-16.8-1.4-18.5-1.8l-3-.8.2-10.7c.2-12.7,1.9-17.1,7.3-19.8,4-2.1,5.3-2.2,9.9-.8Zm397.20001,7.5c.4,3.8.8,11.3,1,16.5l.4,9.5h-3c-2.8,0-3-.3-3.6-4.3-.3-2.3-1-4.7-1.6-5.3s-6-.6-16.7.1c-8.7.6-16.4.9-17.2.6-1-.4-1.4-2.3-1.4-6.1v-5.5h4.7c8.2,0,27.7-2.2,29.1-3.2.6-.6,1.2-3,1.2-5.5q0-4.4,3.3-4.1l3.2.3.6,7Zm-17.6,40.2c8.3,1.4,15.6,2.7,16.3,2.9.9.3,1.1,1.7.6,5.6-.4,2.9-.8,5.5-1,5.7s-4-.2-8.5-.9c-6.6-.9-8.3-.9-9,.1-1.3,2.2-2.2,11-1.1,12.1.5.5,3.9,1.5,7.6,2.3,3.6.8,7,1.6,7.5,1.9.4.3.3,2.8-.3,5.6l-1,5.2-4.6-.5c-6.1-.6-27.5-4.4-32.8-5.8l-4.3-1.2.7-4.6c.4-2.5.8-4.9,1.1-5.4.6-1,3.6-.9,8.8.5,6,1.6,7.4.6,9.2-6.2,1.7-6.7.9-7.5-7.6-8.6-7-.8-8.3-1.7-7-5,.5-1.4.9-3.7.9-5.1,0-2.9-1.1-3,24.5,1.4Zm-359.60001-1.4c3.8,1.9,6.3,7.1,8.2,17.1,2.8,14.5,3,13.9-4.8,15.5-3.8.7-9.3,1.7-12.3,2.2s-9.1,1.5-13.5,2.3c-5.4,1-8.1,1.2-8.6.5-1.3-2.1-4.1-23.1-3.5-26.1,1.3-6.6,7.8-9.6,13.5-6.2l3.1,1.8,2.7-3.1c1.6-1.7,3.7-3.6,4.8-4.2,2.7-1.4,7.5-1.3,10.4.2Zm.4,49.4q3.2,1.6,1.1,7.6c-2.2,6.4-3,6.9-9.2,4.8-2.9-1-5.4-2-5.7-2.2-.5-.6,1.9-10.1,3-11.8.8-1.4,6.7-.5,10.8,1.6Zm349.20001,7.8c1,3,1.5,6,1.2,6.8-.6,1.6-10.3,5.1-12.2,4.3-.7-.2-1.5-1.5-1.8-2.8s-1-4-1.5-6.1c-1-3.6-.9-3.9,1.6-4.9,2.9-1.1,8-2.5,9.9-2.7.6-.1,1.9,2.4,2.8,5.4Zm-320.6,12.5c2.6,4.7,2.4,6-1.5,8-1.6.8-4.6,2.5-6.7,3.8-3.3,2-3.7,2.5-2.5,3.9,1,1.3,2.8,1.5,10.4,1l9.1-.6,2.1,3.8c1.2,2.1,2.2,4.3,2.2,4.9,0,.5-3.7,1.3-8.2,1.6-13.3,1.1-13.2,1.1-18.8,8.6-6.7,9.1-7.7,9.8-9.6,7.4-5.1-6.5-5.1-5.7.5-14,2.8-4.2,5.1-8,5.1-8.5,0-2.3-3.2-1.7-8.6,1.5-3.2,2-6.5,3.6-7.1,3.6-1.3,0-5.3-7-5.3-9.2,0-1.2,33.3-19.8,35.6-19.8.6,0,2.1,1.8,3.3,4Zm296.8,4.7c1.3,1.9,1,2.5-3.7,7.8-2.9,3.4-5,6.8-5,8.1,0,4.3,13.2,16.4,17.8,16.4,2.3,0,8.2-4.6,8.2-6.4,0-.7-1.3-2.5-3-4.1-2.7-2.6-3.2-2.7-5.5-1.5s-2.8,1.2-4.7-.8l-2.2-2.1,4.1-4.8c2.2-2.6,4.7-4.9,5.4-5.1,1.7-.3,16.9,12.4,16.9,14.1,0,.7-1.7,4.1-3.7,7.6-6.2,10.5-15.4,15.7-23.3,13.1-6-2-16.3-11.1-19-16.7-2.2-4.7-2.2-4.9-.5-10.2,1.3-4.1,3.2-7,8-11.9,3.5-3.5,6.9-6.2,7.6-6s1.9,1.3,2.6,2.5Zm-267.7,17.7c.6.8,1,2.5.8,3.8-.2,1.9-.9,2.3-3.8,2.3s-3.6-.4-3.8-2.3c-.4-2.8,1.4-5.2,3.8-5.2,1,0,2.3.7,3,1.4Zm-7.2,9.1c2,.9,5.8,3.6,8.3,6.1l4.5,4.4,2.4-2.5c3.7-3.9,8-2.8,8,2.1,0,2.9-2.2,4.6-5.7,4.2-2.7-.3-2.8-.1-3.3,5.2-.5,6-2.4,9.2-8.7,15.1-11.2,10.6-18.2,11.4-27.4,3.2-6.2-5.7-7.9-8.9-7.9-15.1,0-5.3,1-7.2,8.4-15.1,4-4.3,12.4-9.1,15.9-9.1,1,0,3.4.7,5.5,1.5Zm253,5.5c4.6,2.8,7.2,7.6,7.2,13.1v4.6l7.1,4.4c4,2.4,7.2,4.9,7.2,5.4,0,.6-1.9,2.3-4.2,4l-4.2,3-3.2-1.9c-10.4-6.2-10.5-6.2-12.3-4.4-1.6,1.6-1.5,2,2,6.7,2,2.8,3.6,5.5,3.6,5.9,0,.9-9,7.5-9.5,7-3.6-4.4-21.2-29.3-22.4-31.7-1.5-3.2-1.5-3.4.4-4.8,1.1-.7,4.1-2.9,6.7-4.8,6.2-4.6,13.6-8.5,16.2-8.5,1.2,0,3.6.9,5.4,2Zm-225.9,18.5c6,3,6.4,4.3,5.5,18-.9,14.1.5,13.9,8.7-1.3,1.8-3.4,3.8-6.2,4.4-6.2,2,0,7.5,4,7.5,5.5,0,2.2-18.1,34.3-19.8,35-.8.3-3.4-.6-5.8-2l-4.4-2.6v-14.2c-.1-14-.1-14.2-1.9-12-1.1,1.3-3.8,5.6-6,9.7s-4.5,7.7-5,8c-1.1.7-4.8-.7-7.4-2.8-1.7-1.3-1.4-2.2,5.8-15.3,10.9-19.6,12.5-22.3,13.1-22.3.2,0,2.6,1.1,5.3,2.5Zm193.1,3.4c1.9,3.6,1.1,4.8-5,7.5-3.3,1.4-6.3,3.3-6.7,4.2-.7,1.9,2.2,8.4,3.7,8.4.6,0,2.8-.9,5-2,4.9-2.5,6.7-2.5,8-.1,1.7,3.2,1.2,3.8-4.5,6.5-3.3,1.5-5.5,3.1-5.5,4.1,0,2.2,2.8,7.5,4.1,7.5.5,0,3.6-1.1,6.9-2.5s6.6-2.5,7.5-2.5c1.7,0,3.2,4.7,1.9,6-.5.4-6.1,3.1-12.4,5.8-10.7,4.7-11.6,4.9-13.1,3.4-.9-1-4-7.3-7-14.2-2.9-6.9-6.3-14.5-7.5-17-1.7-3.4-2-4.8-1.1-5.7,1.1-1.1,22.3-11,23.9-11.2.4-.1,1.2.8,1.8,1.8Zm-150.6,16.6c2,.8,3.6,2.1,3.6,2.9,0,.7-1.2,4.5-2.6,8.2-1.4,3.8-4.1,11.2-5.9,16.6-3.7,10.6-5.1,13.8-6.4,13.8-.5,0-2.9-.9-5.4-2l-4.6-2.1,2.5-7.2c1.4-4,4.4-12.2,6.5-18.2,2.2-6.1,4.2-11.6,4.4-12.3.6-1.6,3.5-1.5,7.9.3Zm120,3.6c2.8,3.3,3.2,6.5,1.5,11.4-1.1,3-1,3.4,2.6,6.7,3.1,2.8,3.8,4.1,3.9,7.5.1,5.5-1.9,8.9-6.8,11.3-4.7,2.2-24.7,6.3-25.7,5.2-1.1-1.1-8.1-40.4-7.4-41.1,1.2-1.1,16.9-3.9,23.2-4,5.7-.1,6.3.1,8.7,3Zm-82.4,4.8c6,1.9,6.5,2.5,5,6-.7,1.7-1.4,3.1-1.5,3.1s-2.2-.7-4.5-1.5c-5.8-2-9.2-1.9-12.3.5-3.3,2.6-4.8,7.2-5,16-.2,6.1.1,7.4,1.7,8.6,2.7,1.9,9.2,1.8,10-.2,1.2-3.2.6-6.3-1.5-7.5-1.7-.9-2-1.7-1.5-4.2.3-1.7.8-3.3,1.1-3.5.2-.2,3.3.1,7,.9,5.8,1.1,6.5,1.5,6.5,3.6,0,3.9-2.1,16.7-3.1,18.5-1.3,2.4-10.5,3.3-17.1,1.8-14.3-3.4-18.3-11.6-14.3-28.5,1.6-6.7,3.7-10,8.6-13.3,3-2.1,4.2-2.3,10.4-1.9,3.9.3,8.6,1,10.5,1.6Zm40.8,2.8l.3,3.3h-5.8c-11.4,0-12.2,4.5-1.9,9.8,7.5,3.9,9.5,6.4,10.3,13.2.5,4.8.4,5.1-3.3,8.9-3.6,3.5-4.6,4-10.8,4.6-3.8.4-8.6.4-10.5-.1-3.3-.8-3.6-1.2-3.6-4.4,0-3,.3-3.4,2-3.1,5.3,1.1,11.8.3,13.2-1.5,1.2-1.7.9-5.6-.6-6.2-.4-.1-3.6-1.9-7-4-6.7-3.9-9.1-7.4-9.1-12.9.1-8,5.6-11.5,18-11.1l8.5.3.3,3.2Z"/>
    <path class="cls-1" d="m324.03771,83.45026c-1.6,3.2-3.5,13.1-2.9,14.7,1,2.6,5.6,1.9,8.8-1.3,3.8-3.8,4-9.1.4-12.6-2.8-2.9-5.1-3.2-6.3-.8Z"/>
    <path class="cls-1" d="m369.83771,101.75026c-2.8,3.9-8,15.5-8,17.8,0,1,1.1,2.9,2.4,4.1,5,4.7,10,.2,15.1-13.4,2.6-6.9,2.4-10-.8-10.9-4.4-1.2-6.6-.6-8.7,2.4Z"/>
    <path class="cls-1" d="m194.13771,101.75026c-3.1,1.3-2.9,3.7.7,9.4,3.4,5.3,5.2,5.6,8.2,1.5,1.8-2.4,1.8-2.9.5-6.2-1.4-3.2-4.3-5.8-6.4-5.6-.4,0-1.8.4-3,.9Z"/>
    <path class="cls-1" d="m266.83771,153.65026c0,.9,3,2.4,3.6,1.8.2-.1-.6-.8-1.6-1.5-1.1-.7-2-.8-2-.3Z"/>
    <path class="cls-1" d="m276.23771,154.25026c1.1.8,2.4,1.5,3,1.5.5,0,.1-.7-1-1.5-1-.8-2.3-1.4-2.9-1.4-.5,0-.1.6.9,1.4Z"/>
    <path class="cls-1" d="m271.93771,157.15026c.2.2,1.5.9,2.9,1.5q2.4,1.1.6-.3c-1.6-1.3-4.9-2.4-3.5-1.2Z"/>
    <path class="cls-1" d="m295.83771,157.75026c-.9.6-1,1-.3,1,.6,0,1.5-.5,1.8-1,.8-1.2.4-1.2-1.5,0Z"/>
    <path class="cls-1" d="m313.13771,163.35026c-2.4,1.4-4.3,2.7-4.3,3,0,.6,6.7-3.3,8.5-4.8,1.7-1.5.1-.8-4.2,1.8Z"/>
    <path class="cls-1" d="m238.83771,163.75026c1.4,1.1,3.2,2,4,2,1.7,0-1.3-2.3-4.5-3.3-1.6-.6-1.5-.3.5,1.3Z"/>
    <path class="cls-1" d="m322.83771,162.75026c-.9.6-1,1-.3,1,.6,0,1.5-.5,1.8-1,.8-1.2.4-1.2-1.5,0Z"/>
    <path class="cls-1" d="m258.03771,164.35026c1,1,2,1.6,2.2,1.3.3-.3-.5-1.1-1.7-1.8-2.1-1.3-2.1-1.2-.5.5Z"/>
    <path class="cls-1" d="m232.33771,165.15026c4,2.7,22.6,13.6,23.3,13.6.4,0,1.8.9,3.2,2s3.2,2,4,2c1,0,.9-.4-.5-1.4-3.8-2.5-30.3-17.6-31.1-17.6-.5,0,0,.6,1.1,1.4Z"/>
    <path class="cls-1" d="m336.33771,165.15026c-1.1.7-4,2.4-6.5,3.8s-7.4,4.3-11,6.5c-3.6,2.1-7.4,4.3-8.5,4.7-1.1.5-1.5,1-.9,1.2.9.4,7-2.8,16.4-8.6.8-.5,4.3-2.5,7.8-4.5,3.4-2,6.2-3.8,6.2-4,0-.9-1.6-.5-3.5.9Z"/>
    <path class="cls-1" d="m267.83771,165.15026c0,.2.7.7,1.6,1,.8.3,1.2.2.9-.4-.6-1-2.5-1.4-2.5-.6Z"/>
    <path class="cls-1" d="m324.83771,166.85026l-2.5,2,3.3-1.6c1.7-.8,3.2-1.8,3.2-2,0-1-1.6-.4-4,1.6Z"/>
    <path class="cls-1" d="m227.83771,167.85026c2.6,1.8,7,4,7,3.5,0-.6-6.6-4.6-7.6-4.6-.5,0-.2.5.6,1.1Z"/>
    <path class="cls-1" d="m244.93771,167.15026c1.8,1.5,10.1,5.8,9.6,4.9-.7-1.1-8.2-5.3-9.4-5.3-.3,0-.4.2-.2.4Z"/>
    <path class="cls-1" d="m304.63771,168.35026c-1.6.8-2.8,1.7-2.8,1.9,0,1,1.6.4,4-1.5,3-2.3,2.5-2.5-1.2-.4Z"/>
    <path class="cls-1" d="m339.33771,168.65026c-1.6,1-9,5.3-16.3,9.6-7.3,4.2-13.1,7.9-12.8,8.2s2.8-.9,5.6-2.6,5.2-3.1,5.4-3.1c.3,0,4.1-2.3,8.5-5,4.4-2.8,8.3-5,8.7-5,.3,0,1.7-.9,3.1-2,3.2-2.5,1.9-2.5-2.2-.1Z"/>
    <path class="cls-1" d="m283.03771,172.65026c-1.2,2.1-2.2,4.1-2.2,4.5,0,.3,2.5.6,5.5.6h5.5l-2.2-4.5c-1.2-2.5-2.7-4.5-3.3-4.5s-2.1,1.7-3.3,3.9Z"/>
    <path class="cls-1" d="m222.93771,170.15026c1.5,1.4,14.2,8.6,14.5,8.3.6-.6-12.4-8.7-13.8-8.7-.6,0-.9.2-.7.4Z"/>
    <path class="cls-1" d="m317.43771,171.25026c-1.1.8-1.6,1.5-1,1.5.5,0,1.8-.7,2.8-1.5,1.1-.8,1.6-1.5,1-1.5-.5,0-1.8.7-2.8,1.5Z"/>
    <path class="cls-1" d="m342.83771,172.25026c-1.9,1.3-4,2.4-4.6,2.4-.6.1-1.8.9-2.5,1.8-1.3,1.6,9.3-3.7,11.6-5.8,1.9-1.8-1-.8-4.5,1.6Z"/>
    <path class="cls-1" d="m235.83771,172.25026c0,.2,1,1,2.3,1.6,2,1.1,2.1,1.1.8-.4-1.3-1.6-3.1-2.3-3.1-1.2Z"/>
    <path class="cls-1" d="m342.73771,177.35026c-5.2,3.1-12.7,7.6-16.7,10s-7.6,4.4-8.1,4.4-1.4.7-2.1,1.5c-1.9,2.3.3,1.8,4.4-1,2-1.4,9.6-5.9,16.9-10.2,11.9-6.9,17.1-10.3,15.6-10.3-.3,0-4.8,2.5-10,5.6Z"/>
    <path class="cls-1" d="m256.83771,173.55026c0,.5,1.1,1.4,2.5,2s2.5,1,2.5.8-1.1-1.1-2.5-2-2.5-1.3-2.5-.8Z"/>
    <path class="cls-1" d="m311.83771,174.25026c-1.7,1-2,1.4-.9,1.5.9,0,2.2-.7,2.9-1.5,1.5-1.8,1.2-1.8-2,0Z"/>
    <path class="cls-1" d="m214.53771,174.85026c.7.7,1.5,1,1.8.7s-.2-.9-1.2-1.2c-1.4-.6-1.5-.5-.6.5Z"/>
    <path class="cls-1" d="m242.23771,176.25026c1.1.8,2.4,1.5,3,1.5.5,0,.1-.7-1-1.5-1-.8-2.3-1.4-2.9-1.4-.5,0-.1.6.9,1.4Z"/>
    <path class="cls-1" d="m263.53771,177.85026c.7.7,1.5,1,1.8.7s-.2-.9-1.2-1.2c-1.4-.6-1.5-.5-.6.5Z"/>
    <path class="cls-1" d="m306.33771,177.75026c-.3.6.1.7.9.4,1.8-.7,2.1-1.4.7-1.4-.6,0-1.3.4-1.6,1Z"/>
    <path class="cls-1" d="m246.83771,178.55026c0,.5,1.1,1.4,2.5,2s2.5,1,2.5.8-1.1-1.1-2.5-2-2.5-1.3-2.5-.8Z"/>
    <path class="cls-1" d="m327.83771,181.05026c-3,1.7-6.6,3.8-8,4.5s-3.6,2.2-5,3.3c-1.7,1.4-.9,1.2,2.5-.7,11.4-6.2,17.9-10.4,16.3-10.4-.2,0-2.8,1.5-5.8,3.3Z"/>
    <path class="cls-1" d="m358.33771,178.65026c-.6.5-2.8,1.9-5,3.1-13.4,7.3-33.5,19.3-33.1,19.7.6.6,7.6-3.1,16.8-8.8,4.3-2.7,8-4.9,8.2-4.9.7,0,15.6-9.2,15.6-9.6,0-.7-1.6-.4-2.5.5Z"/>
    <path class="cls-1" d="m238.83771,179.25026c0,.5,4.8,3.4,16.2,9.9,2.8,1.6,4.8,2.3,4.4,1.7s-2.8-2.3-5.4-3.7c-2.6-1.5-6.8-4-9.3-5.6-4.5-2.7-5.9-3.3-5.9-2.3Z"/>
    <path class="cls-1" d="m223.83771,180.15026c0,.3.9,1,2,1.6s2,.8,2,.6c0-.3-.9-1-2-1.6s-2-.8-2-.6Z"/>
    <path class="cls-1" d="m363.33771,181.15026c-1.1.6-5.5,3.2-9.8,5.8-4.3,2.7-8,4.8-8.3,4.8-.2,0-3.3,1.7-6.7,3.8-3.4,2.2-8.3,5.1-10.9,6.6-2.6,1.4-5,3.1-5.4,3.7-.8,1.4,1.6.1,13.6-7.1,5.2-3.1,14-8.3,19.5-11.5,11.1-6.4,11-6.4,10.4-6.8-.2-.2-1.3.1-2.4.7Z"/>
    <path class="cls-1" d="m275.53771,184.45026c-1.3,2.1-3.9,6.8-5.7,10.3-3.6,7.2-16.2,29.2-22.1,38.5-6,9.7-10.5,19.3-9.3,20.5.5.5,9.3,3.3,19.4,6.1,10.2,2.8,20.5,5.7,23,6.5,6.2,1.9,6.9,1.9,19.1-2.1,6-1.9,11.5-3.5,12.2-3.5,1.7,0,21.7-6.6,22.5-7.4.7-.8-2.9-7.8-11.3-22.1-3.9-6.6-9.1-15.5-11.6-19.9-2.4-4.3-5.6-9.9-7.1-12.5-1.5-2.5-3.7-6.4-4.8-8.6-4.4-8.4-4.9-8.8-13.8-9.3l-8-.4-2.5,3.9Zm21.3,17.7c0,.7-1,2-2.2,2.8-2.1,1.4-2.3,2.3-2.9,20.9-.5,15.3-.9,20.1-2.3,22.6-2.5,4.9-6,6.7-12.8,6.8-5.5,0-6.2-.3-8.9-3.3-4.6-5.1-3.5-10.2,2.1-10.2,1.5,0,3.5.9,4.4,1.9,1.7,1.8,1.7,2.2.3,5q-1.5,3.1,1.3,3.1c1.9,0,3.3-.7,4-1.9.6-1.2,1-10.3,1-22.5v-20.6l-2.5-1.6c-5-3.3-3-4.1,9.8-4.3,6.8-.1,8.7.2,8.7,1.3Z"/>
    <path class="cls-1" d="m252.83771,182.15026c0,.7,7.2,4.7,7.7,4.3.2-.3-1.2-1.4-3.2-2.6-3.6-2.1-4.5-2.4-4.5-1.7Z"/>
    <path class="cls-1" d="m365.33771,185.35026c-1.1.9-4,2.7-6.5,4s-6.1,3.4-8,4.5c-1.9,1.2-7.8,4.6-13,7.6-13.7,8-14.2,8.4-13.6,9,.2.3,6-2.8,12.8-6.8,6.7-4.1,13.8-8.3,15.8-9.4,7-4,16-9.7,16-10.1,0-.8-1.5-.3-3.5,1.2Z"/>
    <path class="cls-1" d="m198.83771,185.75026c0,.5.5,1,1.1,1,.5,0,.7-.5.4-1-.3-.6-.8-1-1.1-1-.2,0-.4.4-.4,1Z"/>
    <path class="cls-1" d="m206.83771,185.05026c0,.7,7.2,4.8,7.6,4.4.2-.2-1.4-1.4-3.6-2.6s-4-2-4-1.8Z"/>
    <path class="cls-1" d="m241.53771,190.85026c.7.7,1.5,1,1.8.7s-.2-.9-1.2-1.2c-1.4-.6-1.5-.5-.6.5Z"/>
    <path class="cls-1" d="m373.83771,190.75026c-2,1.3-28.5,16.9-33,19.5-9,5.1-12,7.1-12,7.7,0,.4,2.9-1,6.5-3.2s6.7-4,7-4c.2,0,5.9-3.3,12.7-7.3s14.2-8.4,16.6-9.7c2.3-1.3,4.2-2.7,4.2-3.2,0-1-.1-.9-2,.2Z"/>
    <path class="cls-1" d="m208.33771,191.75026c.3.5,1.1,1,1.6,1,.6,0,.7-.5.4-1-.3-.6-1.1-1-1.6-1-.6,0-.7.4-.4,1Z"/>
    <path class="cls-1" d="m193.83771,192.95026c1.7,1.7,44.7,27.4,47.6,28.4,4.5,1.6-1.4-2.2-23.6-15.1-27.1-15.9-25.9-15.2-24-13.3Z"/>
    <path class="cls-1" d="m218.83771,192.15026c0,.8,10.1,6.8,10.6,6.3.3-.3-.6-1.1-1.9-1.9-1.3-.7-3.9-2.1-5.6-3.1s-3.1-1.6-3.1-1.3Z"/>
    <path class="cls-1" d="m213.03771,194.35026c1,1,2,1.5,2.4,1.2.3-.4-.5-1.2-1.8-1.8q-2.2-1.2-.6.6Z"/>
    <path class="cls-1" d="m375.33771,195.15026c-6.1,4-39.7,23.6-40.4,23.6-.4,0-1.6,1-2.7,2.1l-1.9,2.2,3.4-1.7c1.8-1,5.7-3.3,8.7-5.2,2.9-1.9,5.6-3.4,5.9-3.4.4,0,9.2-5.2,18.5-11,.8-.5,2.9-1.6,4.5-2.5,3.8-2,8.3-5.5,7-5.4-.5,0-1.9.6-3,1.3Z"/>
    <path class="cls-1" d="m189.83771,196.25026c0,.4,22.3,13.9,32,19.3,2.5,1.4,5.7,3.3,7.2,4.3,1.4,1.1,2.9,1.9,3.3,1.9s2,.9,3.7,2.1c1.6,1.2,3.2,1.9,3.5,1.6.6-.6-5.9-4.9-13.7-9-3-1.6-6.2-3.6-7.1-4.3-.8-.8-1.8-1.4-2.1-1.4s-3.5-1.8-6.9-4c-3.5-2.2-7.1-4.3-7.9-4.7s-3.6-1.9-6.1-3.5c-4.5-2.7-5.9-3.3-5.9-2.3Z"/>
    <path class="cls-1" d="m218.03771,197.35026c1,1,2,1.5,2.4,1.2.3-.4-.5-1.2-1.8-1.8q-2.2-1.2-.6.6Z"/>
    <path class="cls-1" d="m208.83771,197.15026c0,.2.7.7,1.6,1,.8.3,1.2.2.9-.4-.6-1-2.5-1.4-2.5-.6Z"/>
    <path class="cls-1" d="m375.33771,200.65026c-3.3,2.1-13.4,8.1-22.5,13.4s-17.4,10.3-18.5,11.2c-2.7,2.1,10.1-4.7,19.8-10.7,4.3-2.6,8-4.8,8.2-4.8.6,0,18.9-11,19.9-12,2.1-2.1-1.1-.7-6.9,2.9Z"/>
    <path class="cls-1" d="m221.83771,199.05026c0,.6,7.8,5.7,8.5,5.7.4,0,.3-.5,0-1-.7-1.1-8.5-5.3-8.5-4.7Z"/>
    <path class="cls-1" d="m232.33771,200.25026c1.1.9,2.9,2.1,4,2.6l2,1-2-1.6c-1.1-.9-2.9-2.1-4-2.6l-2-1,2,1.6Z"/>
    <path class="cls-1" d="m188.23771,200.65026c.3.4,4.9,3.4,10.3,6.5,11.6,6.7,11,6.4,19.3,11.4,3.6,2.2,8.8,5.2,11.5,6.7,2.8,1.5,5.6,3.2,6.3,3.8.7.5,1.5.8,1.8.5.2-.3-6.6-4.7-15.3-9.8s-19.8-11.7-24.7-14.6c-9-5.5-10.1-6.1-9.2-4.5Z"/>
    <path class="cls-1" d="m381.33771,202.75026c-.3.6.1.7.9.4,1.8-.7,2.1-1.4.7-1.4-.6,0-1.3.4-1.6,1Z"/>
    <path class="cls-1" d="m240.93771,205.45026c3.2,2.4,6.7,4.3,7.6,4.3s-8.4-6-9.3-6c-.4,0,.4.8,1.7,1.7Z"/>
    <path class="cls-1" d="m382.83771,206.85026c-2.5,1.6-3.9,2.9-3.2,2.9s2.7-1,4.5-2.2c1.8-1.3,3.4-2.4,3.6-2.5.2-.2.2-.5,0-.7s-2.4.9-4.9,2.5Z"/>
    <path class="cls-1" d="m232.33771,205.65026c.4.7,1.7,1.7,2.8,2.2,1.2.5,4,2,6.2,3.4,3.9,2.4,6.9,3.4,5,1.7-2.1-1.9-14.7-8.4-14-7.3Z"/>
    <path class="cls-1" d="m182.83771,208.15026c2.5,2.4,13,7.7,13,6.6,0-.5-.5-1-1-1-.6,0-3.6-1.6-6.6-3.5-5.6-3.6-7.9-4.5-5.4-2.1Z"/>
    <path class="cls-1" d="m387.33771,209.75026c-.3.6.1.7.9.4,1.8-.7,2.1-1.4.7-1.4-.6,0-1.3.4-1.6,1Z"/>
    <path class="cls-1" d="m178.83771,211.15026c0,.3,2.6,1.9,5.8,3.7,3.1,1.8,14,8.2,24.1,14.1,21.8,12.9,22.5,13.3,21.7,12-.5-.9-3.6-2.8-23.6-14.5-4.7-2.8-10.1-6-12-7.2-5-3.1-14.8-8.5-15.4-8.5-.4,0-.6.2-.6.4Z"/>
    <path class="cls-1" d="m370.33771,214.35026c-3.3,1.9-6.7,3.7-7.5,4.1-.8.3-2.2,1.2-3,1.8-.8.7-3.7,2.5-6.5,4-4.3,2.3-9.1,5.1-14.5,8.4-.8.5-1.3,1.2-1,1.4.3.3,5.7-2.6,12-6.5,6.3-3.8,12.4-7.4,13.5-7.9s4-2.2,6.5-3.8,5.1-3,5.8-3c.6-.1,1.2-.6,1.2-1.1,0-1.3.5-1.5-6.5,2.6Z"/>
    <path class="cls-1" d="m376.33771,215.85026c-4.4,2.7-11.3,6.8-15.3,9.1-4.1,2.4-9.7,5.6-12.6,7.3-2.8,1.6-6,3.6-7.1,4.3-1.9,1.2-1.9,1.3.4.6,1.4-.3,4.8-2.2,7.7-4,2.9-1.9,5.6-3.4,5.9-3.4s4.1-2.3,8.5-5c4.4-2.8,8.4-5,9-5,.5,0,1-.3,1-.8,0-.4,1.7-1.5,3.8-2.5,4.1-2,9.2-5.7,7.7-5.6-.5,0-4.6,2.3-9,5Z"/>
    <path class="cls-1" d="m390.83771,212.85026c-.8.4-5.2,3.1-9.7,5.9-4.6,2.7-8.5,5-8.8,5-.4,0-6.9,3.9-13,7.8-1.1.6-2.7,1.5-3.5,1.9s-4.2,2.4-7.5,4.6c-8.1,5.3-4.1,3.8,5.9-2.2,4.5-2.6,14.9-8.8,23.1-13.6,8.3-4.9,15.2-9,15.4-9.2,1-.8-.5-1-1.9-.2Z"/>
    <path class="cls-1" d="m175.83771,214.55026c0,.5,2.6,2.3,5.8,4.1,3.1,1.7,8.6,4.9,12.2,7.1s7.2,4.3,8,4.6c.8.4,3.9,2.2,6.8,4.1,2.9,1.8,5.4,3.3,5.7,3.3s3.4,1.8,7,4,6.5,3.6,6.5,3.2c0-.7-5.3-4.1-14-8.9-1.9-1.1-10.2-6-18.5-11-18.4-11-19.5-11.6-19.5-10.5Z"/>
    <path class="cls-1" d="m239.83771,215.15026c0,.3.9,1,2,1.6s2,.8,2,.6c0-.3-.9-1-2-1.6s-2-.8-2-.6Z"/>
    <path class="cls-1" d="m196.83771,216.05026c0,.5,6.8,4.7,7.6,4.7,1.6,0-.1-1.8-2.8-3-1.8-.7-3.6-1.5-4-1.8-.5-.2-.8-.1-.8.1Z"/>
    <path class="cls-1" d="m175.33771,219.75026c.3.5.8,1,1.1,1,.2,0,.4-.5.4-1,0-.6-.5-1-1.1-1-.5,0-.7.4-.4,1Z"/>
    <path class="cls-1" d="m388.33771,219.75026c-.3.6.1.7.9.4,1.8-.7,2.1-1.4.7-1.4-.6,0-1.3.4-1.6,1Z"/>
    <path class="cls-1" d="m206.33771,221.75026c.9,1.4,6.5,4.2,6.5,3.3,0-.5-1.6-1.6-3.6-2.6-1.9-.9-3.3-1.3-2.9-.7Z"/>
    <path class="cls-1" d="m392.63771,222.35026c-1.6.8-2.8,1.7-2.8,1.9,0,1,1.6.4,4-1.5,3-2.3,2.5-2.5-1.2-.4Z"/>
    <path class="cls-1" d="m171.83771,222.45026c.1.4,6.6,4.6,14.6,9.3s16.9,9.9,19.7,11.5c2.9,1.7,7.9,4.5,11.2,6.3,10.3,5.6,2.7.4-12.5-8.5-8-4.7-18.3-10.8-23-13.6-10.6-6.3-10-6-10-5Z"/>
    <path class="cls-1" d="m180.83771,222.75026c3.5,2.4,5.4,3.1,3,1.1-1.4-1.1-2.9-2.1-3.5-2.1-.5,0-.3.5.5,1Z"/>
    <path class="cls-1" d="m346.43771,223.25026c-1.1.8-1.5,1.5-.9,1.5s1.6-.7,2.3-1.5c1.6-1.9,1.1-1.9-1.4,0Z"/>
    <path class="cls-1" d="m392.33771,227.85026c-3.3,2.1-5.6,3.9-5.1,3.9,1,0,12.6-6.9,12.6-7.6,0-.9-1.8-.1-7.5,3.7Z"/>
    <path class="cls-1" d="m386.23771,226.25026c-1,.8-1.4,1.5-.8,1.5s1.7-.7,2.4-1.5c1.6-1.9.9-1.9-1.6,0Z"/>
    <path class="cls-1" d="m169.83771,226.45026c0,.5,1.9,2,4.3,3.3,2.3,1.3,13.5,7.9,25,14.7,11.4,6.8,21.3,12.3,22,12.3.6,0-.5-1-2.5-2.3-5.7-3.4-14.9-8.8-18.8-11-5-2.8-25.1-14.7-27.7-16.5-1.3-.8-2.3-1-2.3-.5Z"/>
    <path class="cls-1" d="m213.93771,226.05026c.2.1,1.3.9,2.4,1.7q1.9,1.4.6-.3c-.7-.9-1.8-1.7-2.4-1.7s-.8.1-.6.3Z"/>
    <path class="cls-1" d="m336.83771,228.75026c-.9.6-1,1-.3,1,.6,0,1.5-.5,1.8-1,.8-1.2.4-1.2-1.5,0Z"/>
    <path class="cls-1" d="m381.83771,228.75026c-.9.6-1,1-.3,1,.6,0,1.5-.5,1.8-1,.8-1.2.4-1.2-1.5,0Z"/>
    <path class="cls-1" d="m398.83771,229.15026c-1.4.7-9.5,5.5-18,10.5-8.5,5.1-18.6,11.1-22.3,13.3s-6.6,4.3-6.4,4.5c.3.2,5.6-2.6,11.8-6.3,6.3-3.7,15.2-8.9,19.9-11.7,4.7-2.7,10.5-6.1,13-7.5,5.4-3.1,5.5-3.1,4.9-3.7-.3-.2-1.6.2-2.9.9Z"/>
    <path class="cls-1" d="m192.33771,229.75026c.3.5.8,1,1.1,1,.2,0,.4-.5.4-1,0-.6-.5-1-1.1-1-.5,0-.7.4-.4,1Z"/>
    <path class="cls-1" d="m218.83771,229.15026c0,.6,8.7,5.6,9.6,5.6.4,0-1.3-1.4-3.9-3-4.7-2.9-5.7-3.4-5.7-2.6Z"/>
    <path class="cls-1" d="m371.33771,229.75026c-.3.6.1.7.9.4,1.8-.7,2.1-1.4.7-1.4-.6,0-1.3.4-1.6,1Z"/>
    <path class="cls-1" d="m168.33771,231.25026c1.1.9,6.3,4.2,11.5,7.3,5.2,3,13.9,8.2,19.4,11.5,14.3,8.6,18.7,10.9,19.3,10.4.2-.3-2.4-2.2-5.9-4.1-3.5-2-7-4.1-7.8-4.6-10.9-7-39.8-23.2-36.5-20.5Z"/>
    <path class="cls-1" d="m230.93771,231.05026c.2.1,1.3.9,2.4,1.7q1.9,1.4.6-.3c-.7-.9-1.8-1.7-2.4-1.7s-.8.1-.6.3Z"/>
    <path class="cls-1" d="m368.33771,236.35026c-4.9,3.1-10.8,6.5-13,7.7s-4.9,3-6,4.1c-1.9,1.7-1.8,1.7,1.5-.1,1.9-1,5.4-3.1,7.8-4.6s5.3-3.2,6.5-3.7c1.2-.6,3.1-1.6,4.1-2.2,1.1-.7,4-2.5,6.5-4.1,2.5-1.5,3.8-2.7,3-2.6-.7,0-5.4,2.5-10.4,5.5Z"/>
    <path class="cls-1" d="m381.83771,233.95026c-1.9,1.2-4.4,2.6-5.5,3.3-5.3,3-9.5,5.7-9.5,6.2s-.4.7,9.8-5.2c4.6-2.7,8.5-5.2,8.8-5.7.7-1.1.5-1-3.6,1.4Z"/>
    <path class="cls-1" d="m198.83771,233.15026c0,.3.9,1,2,1.6s2,.8,2,.6c0-.3-.9-1-2-1.6s-2-.8-2-.6Z"/>
    <path class="cls-1" d="m364.83771,233.75026c-.9.6-1,1-.3,1,.6,0,1.5-.5,1.8-1,.8-1.2.4-1.2-1.5,0Z"/>
    <path class="cls-1" d="m165.83771,235.25026c0,.2,1.5,1.2,3.3,2l3.2,1.6-2.4-2.1c-2.2-1.9-4.1-2.6-4.1-1.5Z"/>
    <path class="cls-1" d="m397.33771,235.75026c-.3.5-.1,1,.4,1,.6,0,1.1-.5,1.1-1,0-.6-.2-1-.4-1-.3,0-.8.4-1.1,1Z"/>
    <path class="cls-1" d="m204.53771,236.85026c.7.7,1.5,1,1.8.7s-.2-.9-1.2-1.2c-1.4-.6-1.5-.5-.6.5Z"/>
    <path class="cls-1" d="m229.83771,236.15026c0,.2.7.6,1.5,1,.8.3,1.5.1,1.5-.4,0-.6-.7-1-1.5-1s-1.5.2-1.5.4Z"/>
    <path class="cls-1" d="m400.83771,238.75026c-1.4,1.1-2.9,2-3.5,2-1.1.1-6.4,3.9-5.3,4,.8,0,12.8-7.1,12.8-7.6,0-.9-1.7-.2-4,1.6Z"/>
    <path class="cls-1" d="m164.83771,239.65026c0,.4,1,1.3,2.3,1.9,1.2.6,4.5,2.5,7.2,4.2,2.8,1.6,5.7,3.3,6.5,3.7s3.8,2.1,6.5,3.8c2.8,1.7,5.7,3.5,6.5,3.9s2.4,1.2,3.5,1.9c11.4,7,16.6,9.9,17,9.5.4-.3-21.4-13.6-31-18.9-1.6-.9-6.5-3.7-10.7-6.2-4.3-2.5-7.8-4.2-7.8-3.8Z"/>
    <path class="cls-1" d="m172.83771,239.25026c0,.2,1.5,1.2,3.3,2l3.2,1.6-2.5-2c-2.4-2-4-2.6-4-1.6Z"/>
    <path class="cls-1" d="m210.23771,240.25026c1.1.8,2.4,1.5,3,1.5.5,0,.1-.7-1-1.5-1-.8-2.3-1.4-2.9-1.4-.5,0-.1.6.9,1.4Z"/>
    <path class="cls-1" d="m352.23771,241.35026c-1.8,1.4-1.8,1.5.4.4,1.2-.6,2.2-1.3,2.2-1.5,0-.8-.5-.6-2.6,1.1Z"/>
    <path class="cls-1" d="m403.63771,242.35026c-1.6.8-2.8,1.7-2.8,1.9,0,1,1.6.4,4-1.5,3-2.3,2.5-2.5-1.2-.4Z"/>
    <path class="cls-1" d="m179.83771,243.15026c0,.3.9,1,2,1.6s2,.8,2,.6c0-.3-.9-1-2-1.6s-2-.8-2-.6Z"/>
    <path class="cls-1" d="m162.93771,244.15026c.2.2,5.4,3.3,11.4,6.9,6.1,3.5,16.8,9.9,23.9,14.1s13.4,7.6,14,7.6c1.2-.1-1.3-1.7-23.4-14.6-8-4.7-16.7-9.9-19.3-11.5-4-2.4-8.2-4-6.6-2.5Z"/>
    <path class="cls-1" d="m359.83771,246.75026c-2.5,1.7-6,3.8-7.8,4.7-1.8.8-3.1,1.8-2.8,2.1.5.4,16.6-8.6,16.6-9.4,0-1-1.8-.2-6,2.6Z"/>
    <path class="cls-1" d="m372.93771,254.75026c-9,5.5-16.6,10.2-17,10.6-.6.7,6.4-3,17.3-9.1,4.7-2.6,16.5-10.1,17.5-11,1.9-2-3.7,1.1-17.8,9.5Z"/>
    <path class="cls-1" d="m389.83771,250.45026c-5.2,3.1-11.3,6.6-13.5,7.8-7.2,4.1-15.9,9.5-17,10.7-.5.6.6.2,2.5-.9,29.1-16.7,39.9-23.3,38-23.3-.3,0-4.8,2.6-10,5.7Z"/>
    <path class="cls-1" d="m184.83771,246.15026c0,.3,1.4,1.2,3,2.1,1.7.9,3,1.3,3,1.1,0-.3-1.3-1.2-3-2.1-1.6-.9-3-1.3-3-1.1Z"/>
    <path class="cls-1" d="m397.83771,250.75026c-4.7,2.8-9.2,5.5-10,6-1.8,1.1-11.3,6.7-15.5,9-7.2,4.1-12.9,8-11.5,7.9.8,0,2.7-.8,4.2-1.7,3.6-2.3,9.8-6,26.8-16,15-8.8,17.1-10.2,15.5-10.2-.6,0-4.8,2.3-9.5,5Z"/>
    <path class="cls-1" d="m374.33771,249.25026c-2.2,1.3-3.7,2.5-3.3,2.5.9,0,7.8-4.1,7.8-4.6,0-.6-.3-.5-4.5,2.1Z"/>
    <path class="cls-1" d="m161.83771,248.45026c0,1.1,46.4,28.3,48.2,28.3.7,0-5.9-4.3-14.7-9.5-8.8-5.1-16.5-9.8-17.1-10.2-.5-.4-2.6-1.7-4.5-2.7-1.9-1.1-5.3-3-7.6-4.3-2.4-1.4-4.3-2.1-4.3-1.6Z"/>
    <path class="cls-1" d="m191.83771,250.15026c0,.7,7.1,4.9,7.5,4.4.2-.2-1.4-1.4-3.6-2.6-2.1-1.2-3.9-2.1-3.9-1.8Z"/>
    <path class="cls-1" d="m405.83771,251.75026c0,.5.7.7,1.5.4.8-.4,1.5-.8,1.5-1s-.7-.4-1.5-.4-1.5.4-1.5,1Z"/>
    <path class="cls-1" d="m164.33771,255.75026c.3.5,1.1,1,1.6,1,.6,0,.7-.5.4-1-.3-.6-1.1-1-1.6-1-.6,0-.7.4-.4,1Z"/>
    <path class="cls-1" d="m407.23771,256.35026c-1.8,1.4-1.8,1.5.4.4,1.2-.6,2.2-1.3,2.2-1.5,0-.8-.5-.6-2.6,1.1Z"/>
    <path class="cls-1" d="m202.83771,257.25026c3.3,1.9,4.9,1.9,2.4,0-1-.8-2.6-1.4-3.4-1.4-.9,0-.4.6,1,1.4Z"/>
    <path class="cls-1" d="m326.33771,258.75026c-6,1.6-17.1,4.6-24.5,6.8l-13.5,3.9-.5,25.4c-.3,14-.3,29-.2,33.5l.4,8.1,8.1.7c4.5.3,22.2.6,39.4.6h31.2l2.9-4.3c1.6-2.3,3.7-5.7,4.6-7.4,1.6-3.2,1.6-3.5-.8-8-3.3-6.4-32.7-57.5-34.6-60.1l-1.5-2.1-11,2.9Zm7.4,22.2c4.8,1.1,5,1.3,5.6,5.1.9,5.3-.8,6.9-3,2.8-1.9-3.8-6.9-7.1-10.8-7.1-3.5,0-7.7,4-7.7,7.4,0,1.9,1.2,3.4,4.2,5.6,2.2,1.6,4.6,3,5.2,3,.7,0,3.7,1.6,6.8,3.5,9.2,5.8,10.7,12.3,4.4,19-4.5,4.7-10.2,6.2-17.4,4.6-3.2-.7-7.2-1.6-8.9-1.8l-3.3-.5v-6.2c.1-6.5.4-6.5,4.2.2,4.9,8.9,18.8,8.8,18.8-.1,0-3.4-4.2-7.8-9.2-9.6-11.2-4.2-14.1-7.6-13.5-16,.3-4.5.9-5.8,3.3-7.7,4.3-3.5,12.3-4.3,21.3-2.2Z"/>
    <path class="cls-1" d="m227.13771,268.45026c-3.8,6.5-12.5,21.6-19.3,33.7l-12.3,21.9,1.8,3.4c1,1.9,3.2,5,4.9,6.9l3.1,3.6,39.6-.7,39.6-.8.7-13.5c1.4-30.6.5-51.7-2.4-53.2-3.3-1.8-42.9-13-45.8-13-2.8,0-3.5.9-9.9,11.7Zm43.4,15.9c2.4,1.8,2.8,2.9,3.1,7.4.2,3,.1,6.4-.3,7.7-.9,3.6-5.8,6-14.1,6.8l-7.5.7.3,8.1c.3,7.6.5,8.2,2.6,8.5,1.2.2,2.2.8,2.2,1.3s-4.7.9-10.6.9h-10.7l2.5-2.3c2.2-2.1,2.6-3.5,3.2-11.9.4-5.3.4-13,0-17.3-.6-6.5-1.1-8.1-3.3-10.2l-2.6-2.4,16.2.3c14.6.3,16.4.5,19,2.4Z"/>
    <path class="cls-1" d="m252.23771,286.05026c-.3.8-.4,4.7-.2,8.8.3,6.2.6,7.4,2.1,7.7,3.4.7,6.7-.8,8.2-3.8,2.1-4,1.9-7.7-.6-11.1-1.6-2.2-2.8-2.9-5.5-2.9-2,0-3.7.6-4,1.3Z"/>
    <path class="cls-1" d="m159.93771,258.15026c.2.2,7.4,4.5,15.9,9.5s16.2,9.5,17,10.1c3.3,2.1,10.3,6,10.7,6,.3,0,0-.7-.7-1.5s-1.6-1.5-2-1.5-9.5-5.2-20.1-11.5c-10.7-6.3-19.8-11.5-20.3-11.5s-.7.2-.5.4Z"/>
    <path class="cls-1" d="m400.33771,259.85026c-1.6,1-2.3,1.9-1.5,1.9s2.6-.9,4-2c3.2-2.5,1.4-2.5-2.5.1Z"/>
    <path class="cls-1" d="m404.63771,262.75026c-2.7,1.7-5,3-5.3,3-.2,0-2.8,1.5-5.8,3.2-6.6,4.1-7.4,4.6-17,10.3-4.4,2.6-7.7,4.9-7.4,5.1.2.3,3.8-1.5,7.8-3.9,4.1-2.4,13.4-7.9,20.7-12.2,7.2-4.2,13.2-7.9,13.2-8.1,0-.9-1.8-.2-6.2,2.6Z"/>
    <path class="cls-1" d="m175.43771,262.25026c1,.8,2.3,1.5,2.8,1.5.6,0,.1-.7-1-1.5-1-.8-2.3-1.5-2.8-1.5-.6,0-.1.7,1,1.5Z"/>
    <path class="cls-1" d="m163.33771,265.85026c14.9,9,39.7,23,40,22.7.4-.3-14.5-9.7-17-10.7-.5-.2-2.8-1.5-5-2.9s-7.8-4.7-12.4-7.4c-9.1-5.2-13.8-6.7-5.6-1.7Z"/>
    <path class="cls-1" d="m213.83771,263.15026c0,.2.7.7,1.6,1,.8.3,1.2.2.9-.4-.6-1-2.5-1.4-2.5-.6Z"/>
    <path class="cls-1" d="m390.83771,265.75026c-2.5,1.6-4.2,3-3.9,3,.9,0,9.9-5.1,9.9-5.6,0-.9-1.7-.1-6,2.6Z"/>
    <path class="cls-1" d="m181.03771,265.35026c1,1,2,1.5,2.4,1.2.3-.4-.5-1.2-1.8-1.8q-2.2-1.2-.6.6Z"/>
    <path class="cls-1" d="m398.83771,271.35026c-5.8,3.5-14.7,8.8-19.7,11.7-9.6,5.4-12.7,8.3-4.8,4.5,2.5-1.2,4.5-2.6,4.5-3s.5-.8,1-.8c.6,0,3.6-1.6,6.6-3.5s5.7-3.5,5.9-3.5c.3,0,4.2-2.3,8.6-5,4.4-2.8,8.5-5,9-5s.9-.5.9-1c0-1.6-1-1.2-12,5.6Z"/>
    <path class="cls-1" d="m157.83771,267.45026c0,.5,5.3,3.9,11.8,7.6,6.4,3.8,12.4,7.2,13.2,7.8,4.6,2.8,17.1,9.9,17.6,9.9,1.7,0-2.1-2.6-13.8-9.5-7.3-4.3-16.5-9.8-20.4-12.2-7.3-4.4-8.4-4.9-8.4-3.6Z"/>
    <path class="cls-1" d="m184.83771,267.55026c0,.6.9,1.2,2,1.5s2,.3,2,.1-.9-.8-2-1.4-2-.7-2-.2Z"/>
    <path class="cls-1" d="m381.33771,271.25026c-2.2,1.3-3.5,2.4-3,2.5,1.2,0,7.5-3.7,7.5-4.5s-.2-.7-4.5,2Z"/>
    <path class="cls-1" d="m190.53771,270.85026c.7.7,1.5,1,1.8.7s-.2-.9-1.2-1.2c-1.4-.6-1.5-.5-.6.5Z"/>
    <path class="cls-1" d="m406.83771,272.05026c-1.9,1.3-5.6,3.5-8.1,4.9-2.5,1.5-8.3,4.9-12.8,7.7-4.6,2.8-8.5,5.1-8.8,5.1s-1.6.9-3,2c-4.7,3.7-1.4,2.1,13.4-6.7,8.2-4.7,16.9-9.8,19.6-11.2,2.6-1.4,4.7-2.9,4.7-3.3,0-1.3-1.4-.9-5,1.5Z"/>
    <path class="cls-1" d="m369.83771,272.75026c-1.3.8-1.2,1,.3,1,.9,0,1.7-.5,1.7-1,0-1.2-.1-1.2-2,0Z"/>
    <path class="cls-1" d="m158.43771,273.75026c.8.8,5.9,3.8,32.7,19.2,3.8,2.2,7.1,3.7,7.3,3.5.5-.5-10.8-7.5-24.6-15.2-2.5-1.4-6.5-3.9-9-5.5-4.3-2.7-8.5-4.1-6.4-2Z"/>
    <path class="cls-1" d="m194.83771,273.75026c.8.5,2,1,2.5,1,.6,0,.3-.5-.5-1s-1.9-1-2.5-1c-.5,0-.3.5.5,1Z"/>
    <path class="cls-1" d="m369.53771,277.95026c-2.6,1.7-4.6,3.2-4.4,3.5.5.4,10.7-5.6,10.7-6.3,0-.9-1.7-.1-6.3,2.8Z"/>
    <path class="cls-1" d="m406.63771,277.45026c-1,.2-1.8.9-1.8,1.4,0,.6.8.5,2-.1,1.1-.6,2-1.3,2-1.5,0-.3-.1-.4-.2-.4-.2.1-1.1.3-2,.6Z"/>
    <path class="cls-1" d="m157.83771,278.15026c0,.2.7.7,1.6,1,.8.3,1.2.2.9-.4-.6-1-2.5-1.4-2.5-.6Z"/>
    <path class="cls-1" d="m393.53771,290.45026c-9.8,5.8-17.5,10.8-17.3,11.1.3.2,3.5-1.4,7.1-3.7,3.6-2.2,6.8-4.1,7.1-4.1.2,0,3.9-2.1,8.2-4.8,4.2-2.6,8.9-5.3,10.5-6.1,1.5-.8,2.7-1.8,2.7-2.3,0-.4-.1-.8-.2-.8-.2,0-8.3,4.8-18.1,10.7Z"/>
    <path class="cls-1" d="m163.83771,281.05026c0,.3,1.2,1.2,2.6,2.2,1.5.9,2.3,1.2,2,.6-.7-1.1-4.6-3.5-4.6-2.8Z"/>
    <path class="cls-1" d="m396.33771,283.75026c-1.6,1.1-2.5,2-2,2,1,0,6.4-3.9,5.5-4-.3,0-1.8.9-3.5,2Z"/>
    <path class="cls-1" d="m158.23771,283.65026c.5.8,12.4,7.9,24.6,14.9,1.9,1,5.2,2.9,7.3,4.2,2.1,1.2,4,2,4.3,1.7.3-.2-3.2-2.6-7.8-5.2-4.6-2.7-8.4-5.2-8.6-5.7-.2-.4-.8-.8-1.4-.8-1.1,0-12.2-6.5-14.9-8.7-1.8-1.5-4.3-1.8-3.5-.4Z"/>
    <path class="cls-1" d="m169.83771,285.15026c0,.2.7.7,1.6,1,.8.3,1.2.2.9-.4-.6-1-2.5-1.4-2.5-.6Z"/>
    <path class="cls-1" d="m408.43771,287.05026c-1.1.7-4,2.4-6.5,3.9-2.5,1.6-4,2.8-3.4,2.8,1.2,0,13.3-6.9,13.3-7.6s-1.5-.3-3.4.9Z"/>
    <path class="cls-1" d="m157.83771,288.35026c0,.5,7.3,5.2,16.2,10.4,17.7,10.4,18.4,10.7,17.5,9.3-.4-.6-7.1-4.8-14.9-9.4-7.9-4.5-15.3-8.9-16.5-9.7-1.3-.8-2.3-1-2.3-.6Z"/>
    <path class="cls-1" d="m174.83771,288.15026c0,.2.7.7,1.6,1,.8.3,1.2.2.9-.4-.6-1-2.5-1.4-2.5-.6Z"/>
    <path class="cls-1" d="m406.33771,293.75026c-2.7,1.6-5.7,3.3-6.5,3.7s-3.8,2.2-6.7,4-5.7,3.3-6.3,3.3c-.5,0-1,.4-1,.8,0,.5-1.2,1.4-2.6,2.1-1.5.6-2.4,1.4-2.1,1.7.5.5,9.3-4.3,17.7-9.6.8-.5,4.1-2.4,7.3-4.2,3.1-1.8,5.7-3.6,5.7-4,0-1.1.2-1.1-5.5,2.2Z"/>
    <path class="cls-1" d="m158.23771,294.55026c.6,1,29.9,18.2,31,18.2.4,0,.1-.7-.8-1.5-.8-.8-1.7-1.5-2.1-1.5-.3,0-3.4-1.7-6.8-3.8-19.2-11.6-22.5-13.4-21.3-11.4Z"/>
    <path class="cls-1" d="m393.33771,296.05026c-8,4.6-11.6,6.9-11.2,7.3s13-6.7,14.6-8.2c.9-.8-1.5-.2-3.4.9Z"/>
    <path class="cls-1" d="m192.33771,298.75026c1.7,1.1,3.5,2,4,2,.6,0-.3-.9-2-2-1.6-1.1-3.4-2-4-2-.5,0,.4.9,2,2Z"/>
    <path class="cls-1" d="m160.83771,300.95026c.8.9,4.2,3.1,7.5,4.9s5.6,2.7,5,2.2c-.5-.6-2.7-2.1-4.8-3.2-2.1-1.2-5-2.9-6.5-3.8-2.3-1.4-2.5-1.4-1.2-.1Z"/>
    <path class="cls-1" d="m405.33771,304.75026c-.3.5-.2,1,.4,1,.5,0,1.3-.5,1.6-1,.3-.6.2-1-.4-1-.5,0-1.3.4-1.6,1Z"/>
    <path class="cls-1" d="m159.83771,305.25026c0,.2,2.4,1.9,5.3,3.8q7.7,4.9,7.7,3.9c0-.5-1.5-1.7-3.2-2.6-1.8-.9-4.8-2.6-6.5-3.6-1.8-1.1-3.3-1.8-3.3-1.5Z"/>
    <path class="cls-1" d="m400.83771,307.75026c-.9.6-1,1-.3,1,.6,0,1.5-.5,1.8-1,.8-1.2.4-1.2-1.5,0Z"/>
    <path class="cls-1" d="m174.83771,309.15026c0,.3.9,1,2,1.6s2,.8,2,.6c0-.3-.9-1-2-1.6s-2-.8-2-.6Z"/>
    <path class="cls-1" d="m398.33771,314.25026c-4.9,3-9.4,5.6-10,5.8-.5.2-.8.7-.5,1,.5.5,18.9-9.9,20.6-11.6,2-2-2-.1-10.1,4.8Z"/>
    <path class="cls-1" d="m393.83771,311.85026l-2.5,2,3.5-1.7c4.3-2,4.7-2.4,2.9-2.4-.8,0-2.5,1-3.9,2.1Z"/>
    <path class="cls-1" d="m161.83771,312.15026c0,.6,11.7,7.9,16.9,10.5,7.2,3.7,3.8.8-6.2-5.2-8.7-5.3-10.7-6.3-10.7-5.3Z"/>
    <path class="cls-1" d="m179.83771,312.15026c0,.3.9,1,2,1.6s2,.8,2,.6c0-.3-.9-1-2-1.6s-2-.8-2-.6Z"/>
    <path class="cls-1" d="m174.83771,314.55026c0,.5.8,1.2,1.8,1.5.9.3,3.3,1.6,5.2,2.8s2.8,1.6,2,.7c-2.4-2.4-9-6.1-9-5Z"/>
    <path class="cls-1" d="m387.23771,315.95026l-1.9,2.1,2.8-1.8c2.8-1.8,3.3-2.5,1.9-2.5-.5,0-1.7,1-2.8,2.2Z"/>
    <path class="cls-1" d="m399.03771,319.15026c-7.7,4.5-10.4,6.6-8.5,6.6.6,0,1.6-.7,2.3-1.5s1.6-1.5,2.1-1.5c.4,0,3.2-1.4,6.1-3.2,6.6-4,6.2-3.7,5.7-4.2-.2-.2-3.7,1.5-7.7,3.8Z"/>
    <path class="cls-1" d="m164.33771,319.75026c.3.5,1,1,1.5,1s3.9,1.9,7.5,4.1c3.6,2.3,6.8,3.9,7.1,3.7.5-.5-2.5-2.5-11.3-7.4-4.5-2.6-5.8-2.9-4.8-1.4Z"/>
    <path class="cls-1" d="m399.83771,324.25026c-1.9,1.3-4.1,2.4-4.7,2.4-1.1.1-2,2.1-.9,2.1.9,0,9.6-5.2,10.1-6.1,1-1.5-.8-.9-4.5,1.6Z"/>
    <path class="cls-1" d="m166.83771,325.55026c0,1.2,10.9,7.7,11.6,6.9.3-.2-1-1.3-2.9-2.4s-4.6-2.8-6-3.8c-1.5-.9-2.7-1.3-2.7-.7Z"/>
    <path class="cls-1" d="m374.13771,331.35026c-1.3,2-2.3,4-2.3,4.5s2.5.9,5.5.9,5.5-.3,5.5-.6c0-1.5-4.5-8.4-5.4-8.4-.6.1-2.1,1.7-3.3,3.6Z"/>
    <path class="cls-1" d="m191.53771,331.65026c-2.6,4.4-2.2,5.1,2.8,5.1,5.1,0,5.5-.8,2.4-5.1-2.5-3.6-3-3.6-5.2,0Z"/>
    <path class="cls-1" d="m172.33771,334.75026c.3.5,1.1,1,1.6,1,.6,0,.7-.5.4-1-.3-.6-1.1-1-1.6-1-.6,0-.7.4-.4,1Z"/>
    <path class="cls-1" d="m396.83771,337.35026c0,.8.5,1.2,1,.9.6-.3,1-1,1-1.6,0-.5-.4-.9-1-.9-.5,0-1,.7-1,1.6Z"/>
    <path class="cls-1" d="m178.83771,349.15026c0,.8.5,1.8,1,2.1.6.3,1-.1,1-.9s-.4-1.8-1-2.1c-.5-.3-1,.1-1,.9Z"/>
    <path class="cls-1" d="m194.23771,358.25027c0,5.5.1,7.6.3,4.7s.2-7.4,0-10-.3-.2-.3,5.3Z"/>
    <path class="cls-1" d="m198.53771,349.45026c-1.1,1-.8,22.1.3,22.8.6.4,1-3.7,1-11.4,0-6.7-.1-12.1-.3-12.1s-.7.3-1,.7Z"/>
    <path class="cls-1" d="m202.83771,362.65027c0,8.7.4,14.1,1,14.1s1-5.1,1-13.4c0-7.9-.4-13.7-1-14.1s-1,4.3-1,13.4Z"/>
    <path class="cls-1" d="m207.43771,350.25026c-.3.9-.6,3.2-.6,5.2,0,4.8,2.4,3.8,2.8-1.2.4-4.1-1.1-6.8-2.2-4Z"/>
    <path class="cls-1" d="m216.53771,349.45026c-1.1,1-.8,6.1.3,6.8.6.4,1-1,1-3.4,0-4.2-.2-4.6-1.3-3.4Z"/>
    <path class="cls-1" d="m220.83771,353.15027c0,2.5.5,4.6,1,4.6.6,0,1-1.8,1-3.9,0-2.2-.4-4.3-1-4.6-.6-.4-1,1.2-1,3.9Z"/>
    <path class="cls-1" d="m225.83771,354.65027c0,3.4.4,6.1,1,6.1s1-2.4,1-5.4-.4-5.8-1-6.1c-.6-.4-1,1.7-1,5.4Z"/>
    <path class="cls-1" d="m231.13771,355.25027c0,3.8.2,5.3.4,3.2.2-2,.2-5.2,0-7-.2-1.7-.4-.1-.4,3.8Z"/>
    <path class="cls-1" d="m236.13771,352.25026c0,2.2.2,3,.4,1.7.2-1.2.2-3,0-4-.3-.9-.5.1-.4,2.3Z"/>
    <path class="cls-1" d="m240.73771,348.95026c-.8,2.2-.7,6.8.1,7.3.6.4,1-.9,1-3.4,0-2.3-.2-4.1-.5-4.1s-.5.1-.6.2Z"/>
    <path class="cls-1" d="m249.73771,353.15027c-.1,2.5-.2,5.1-.3,5.8-.1.6.4,1.3.9,1.5,1.4.4,1.9-10.4.5-11.2-.6-.4-1.1,1.2-1.1,3.9Z"/>
    <path class="cls-1" d="m254.73771,351.95026c0,1.8-.2,4.3-.3,5.5s.1,2.8.5,3.4c.4.7.9-1.6,1.1-5,.1-3.5,0-6.5-.4-6.8-.5-.2-.8,1.1-.9,2.9Z"/>
    <path class="cls-1" d="m263.83771,352.15026c0,2,.5,3.6,1,3.6.6,0,1-1.3,1-2.9,0-1.7-.4-3.3-1-3.6-.6-.4-1,.8-1,2.9Z"/>
    <path class="cls-1" d="m268.83771,352.05026c0,2,.4,3.7,1,3.7.5,0,.7-1.4.3-3.3-.8-4.5-1.3-4.7-1.3-.4Z"/>
    <path class="cls-1" d="m283.13771,354.75027c0,3.6.2,5,.4,3.2.2-1.7.2-4.7,0-6.5-.2-1.7-.4-.3-.4,3.3Z"/>
    <path class="cls-1" d="m287.53771,349.45026c-1.1,1-.8,11.3.3,11.3.6,0,1-2.7,1-6,0-6.1-.1-6.5-1.3-5.3Z"/>
    <path class="cls-1" d="m297.13771,354.75027c0,3.6.2,5,.4,3.2.2-1.7.2-4.7,0-6.5-.2-1.7-.4-.3-.4,3.3Z"/>
    <path class="cls-1" d="m302.13771,354.75027c0,3.6.2,5,.4,3.2.2-1.7.2-4.7,0-6.5-.2-1.7-.4-.3-.4,3.3Z"/>
    <path class="cls-1" d="m306.93771,355.25027l.2,7,1-5.8c.7-4.2.6-6.2-.2-7s-1.1.7-1,5.8Z"/>
    <path class="cls-1" d="m312.13771,354.75027c0,3.6.2,5,.4,3.2.2-1.7.2-4.7,0-6.5-.2-1.7-.4-.3-.4,3.3Z"/>
    <path class="cls-1" d="m317.13771,354.75027c0,3.6.2,5,.4,3.2.2-1.7.2-4.7,0-6.5-.2-1.7-.4-.3-.4,3.3Z"/>
    <path class="cls-1" d="m321.63771,352.45027c-.2,2-.1,5.2.3,7.2.5,2.9.7,2.1.8-3.7.1-7.7-.4-9.5-1.1-3.5Z"/>
    <path class="cls-1" d="m326.73771,349.45026c-.5,3.2-.3,11.3.4,11.3.4,0,.7-2.7.7-6s-.2-6-.5-6-.6.3-.6.7Z"/>
    <path class="cls-1" d="m350.13771,354.75027c0,3.6.2,5,.4,3.2.2-1.7.2-4.7,0-6.5-.2-1.7-.4-.3-.4,3.3Z"/>
    <path class="cls-1" d="m353.83771,355.35027c0,4.1.4,6.3,1,5.9.6-.3,1-3.3,1-6.6s-.4-5.9-1-5.9-1,2.9-1,6.6Z"/>
    <path class="cls-1" d="m363.73771,348.95026c-.5,1.8-.4,14.8.2,16.3.5,1.2.8-1.9.8-7.3.1-5-.1-9.2-.4-9.2s-.5.1-.6.2Z"/>
    <path class="cls-1" d="m378.23771,357.25027c0,4.9.1,7.1.3,4.8s.2-6.4,0-9-.3-.8-.3,4.2Z"/>
    <path class="cls-1" d="m382.53771,349.45026c-1.1,1-.8,10.3.3,10.3.6,0,1-2.5,1-5.5,0-5.6-.1-6-1.3-4.8Z"/>
    <path class="cls-1" d="m189.13771,356.25027c0,3.8.2,5.3.4,3.2.2-2,.2-5.2,0-7-.2-1.7-.4-.1-.4,3.8Z"/>
    <path class="cls-1" d="m212.03771,352.75027c0,1.9.2,2.7.5,1.7.2-.9.2-2.5,0-3.5-.3-.9-.5-.1-.5,1.8Z"/>
    <path class="cls-1" d="m244.83771,355.25027c0,3,.5,5.5,1,5.5.6,0,1-2.5,1-5.5s-.4-5.5-1-5.5c-.5,0-1,2.5-1,5.5Z"/>
    <path class="cls-1" d="m259.43771,351.35026c-1,2.5-.7,8.2.4,8.9.6.4,1-1.5,1-4.9,0-5.8-.3-6.8-1.4-4Z"/>
    <path class="cls-1" d="m278.13771,355.25027c0,3.3.2,4.5.4,2.7s.2-4.5,0-6-.4,0-.4,3.3Z"/>
    <path class="cls-1" d="m291.83771,355.25027c0,3,.5,5.5,1,5.5.6,0,1-2.5,1-5.5s-.4-5.5-1-5.5c-.5,0-1,2.5-1,5.5Z"/>
    <path class="cls-1" d="m335.83771,352.55027c0,1.8.5,3.2,1,3.2.6,0,.8-1.1.4-2.8-1-3.9-1.4-4-1.4-.4Z"/>
    <path class="cls-1" d="m341.03771,352.75027c0,1.9.2,2.7.5,1.7.2-.9.2-2.5,0-3.5-.3-.9-.5-.1-.5,1.8Z"/>
    <path class="cls-1" d="m345.03771,355.25027c-.1,3,.3,5.5.8,5.5.6,0,1-2.5,1-5.5s-.4-5.5-.8-5.5c-.5,0-.9,2.5-1,5.5Z"/>
    <path class="cls-1" d="m373.23771,360.25027c0,6,.1,8.4.3,5.2s.2-8.1,0-11-.3-.3-.3,5.8Z"/>
    <path class="cls-1" d="m331.43771,353.55027c-.2.4-.1,2.3.4,4.2l.8,3.5.1-4.3c.1-4.1-.3-5-1.3-3.4Z"/>
    <path class="cls-1" d="m359.13771,356.75027c0,2.5.2,3.5.4,2.2.2-1.2.2-3.2,0-4.5-.2-1.2-.4-.2-.4,2.3Z"/>
    <path class="cls-1" d="m235.53771,359.45027c-.3.5-.3,1.9-.2,3.3.2,1.4.4,5.1.4,8.2.1,4.5.5,5.8,1.6,5.8,1.4,0,1.6-.8,1.9-7.5.1-1.3.8-2,2.1-2,1.5,0,2,.7,2.2,3,0,1.6.2,3.8.2,4.7.1,1,.8,1.8,1.6,1.8,1.3,0,1.5-1.1,1.3-6.3l-.3-6.2-3.7-.3c-3.3-.3-3.8-.7-3.8-2.8,0-2.3-2.3-3.4-3.3-1.7Z"/>
    <path class="cls-1" d="m266.53771,359.35027c-.7.7.1,15.3.9,16.6.3.4,1.4.8,2.5.8,1.7,0,1.9-.4,1.2-2.3-.4-1.2-.6-4.4-.5-7,.2-2.7,0-5.7-.3-6.8-.6-1.9-2.6-2.5-3.8-1.3Z"/>
    <path class="cls-1" d="m336.83771,367.75027c0,7.1.3,9,1.4,9,.8,0,1.6-1,1.8-2.2.4-3.1,2.3-3.3,3.6-.3,1.5,3.3,4.8,3.5,3.7.2-1-3-1-6.8-.1-9,1.2-2.5-2-2.2-3.4.4s-3.5,1.9-3.6-1.2c-.2-5.2-.5-5.9-1.9-5.9-1.2,0-1.5,1.7-1.5,9Z"/>
    <path class="cls-1" d="m210.63771,360.85027c-2.8,1.6-2.2,5.6,1,7.6,5,3.2,5.1,5.3.1,5.3-1.9,0-2.9.5-2.9,1.5,0,1.1,1.1,1.5,3.8,1.5,7.7-.1,9.5-5,3.6-9.8-4.1-3.4-3.8-5.2.9-5.2,2.4,0,2.8-.3,1.7-1-1.9-1.3-6-1.2-8.2.1Z"/>
    <path class="cls-1" d="m223.83771,365.65027c-1.5,2.9-1.2,7.7.6,9.5,1.7,1.7,7.4,2.2,7.4.6,0-.5-1.1-1.2-2.5-1.6-2-.5-2.5-1.2-2.5-4s.5-3.5,2.5-4c3.2-.8,2.2-2.4-1.5-2.4-1.9,0-3.3.7-4,1.9Z"/>
    <path class="cls-1" d="m250.83771,369.05027c0,3.2.5,5.9,1.3,6.5.6.6,3.2.9,5.7.8l4.5-.2v-6c0-4.6-.3-5.9-1.5-5.9-1.1,0-1.6,1.3-1.8,4.7-.3,3.9-.7,4.8-2.2,4.8s-1.9-.9-2.2-4.7c-.2-3.6-.7-4.9-2-5.1-1.5-.3-1.8.5-1.8,5.1Z"/>
    <path class="cls-1" d="m274.83771,364.85027c0,.6.9,1.3,2,1.6,2.5.7,2.5,1.1,0,4.8-3,4.6-2.6,5.5,2.4,5.5,4.8,0,7.2-1.8,3.7-2.7-2.4-.6-2.6-2-.6-4.7.8-1.1,1.5-2.8,1.5-3.8,0-1.5-.8-1.8-4.5-1.8-2.6,0-4.5.5-4.5,1.1Z"/>
    <path class="cls-1" d="m288.13771,365.25027c-.2.7-.3,3.4-.1,6.1.2,3.7.7,5,2.1,5.2,1.4.3,1.7-.4,1.7-4,0-8.5,4.2-9.1,4.4-.6.1,3.1.5,4.3,1.6,4.3s1.6-1.4,2-5,.9-5,2-5,1.6,1.4,2,5c.4,3.8.9,5.1,2.3,5.3,1.6.3,1.8-.3,1.5-5.4-.3-6.2-2-8.4-5.4-6.9-1.1.4-2.3.7-2.9.5-2.9-.9-10.7-.6-11.2.5Z"/>
    <path class="cls-1" d="m312.83771,364.65027c0,.5,1.1,1.1,2.3,1.5,2,.5,2.4,1.3,2.5,4.6.1,3.1-.2,4-1.4,4-1.3,0-1.5-.7-1-3,.5-2.8.4-3-1.4-2-2.6,1.4-3.2,2.7-2.5,5,.5,1.7,1.4,1.9,5.8,1.7l5.2-.2-.1-4.8c-.1-2.5-.7-5.3-1.4-6.2-1.3-1.6-8-2.1-8-.6Z"/>
    <path class="cls-1" d="m326.33771,364.55027c-.3.3-.5,3.2-.5,6.4,0,5.1.2,5.9,1.8,5.6,1.1-.2,1.8-1.4,2-3.8.2-1.9,1.3-4.5,2.4-5.8,1.2-1.2,2-2.2,1.7-2.3-3.4-.5-6.9-.5-7.4-.1Z"/>
    <path class="cls-1" d="m352.53771,365.55027c-2.2,2.5-2.1,7.5.1,9.5,2,1.9,7.7,2.3,8.7.7.3-.6-.5-1-1.9-1-3,0-4-1.4-4.3-5.8-.1-2.7.1-3.3,1.5-3,1.1.2,1.6,1.1,1.4,2.7-.3,1.7.1,2.2,1.5,1.9,2.2-.4,2.9-3.4,1.3-5.3-1.7-2.1-6.4-1.9-8.3.3Z"/>
    <path class="cls-1" d="m207.83771,369.75027c0,.5.5,1,1.1,1,.5,0,.7-.5.4-1-.3-.6-.8-1-1.1-1-.2,0-.4.4-.4,1Z"/>
    <path class="cls-1" d="m230.93771,370.35027c0,1.1.3,1.4.6.6.3-.7.2-1.6-.1-1.9-.3-.4-.6.2-.5,1.3Z"/>
    <path class="cls-1" d="m220.83771,382.15027c0,3.1.3,5.6.8,5.6,1.1,0,1.3-9.8.2-10.5-.6-.4-1,1.5-1,4.9Z"/>
    <path class="cls-1" d="m249.63771,388.35027c-.3,11.1.5,16.5,1.5,10.3.9-5.7.8-18.3-.2-19.8-.7-1-1.1,2.1-1.3,9.5Z"/>
    <path class="cls-1" d="m207.83771,379.75027c0,.5.5,1,1.1,1,.5,0,.7-.5.4-1-.3-.6-.8-1-1.1-1-.2,0-.4.4-.4,1Z"/>
    <path class="cls-1" d="m216.53771,379.45027c-1.1,1-.8,6.1.3,6.8.6.4,1-1,1-3.4,0-4.2-.2-4.6-1.3-3.4Z"/>
    <path class="cls-1" d="m240.53771,379.45027c-1.1,1.1-.8,18.3.3,18.3.6,0,1-3.8,1-9.5,0-9.5-.1-10.1-1.3-8.8Z"/>
    <path class="cls-1" d="m331.43771,387.05027c-.8,8-.5,10.9.9,9.5.3-.3.5-4.5.3-9.4l-.3-8.9-.9,8.8Z"/>
    <path class="cls-1" d="m225.83771,385.75027c0,3.3.4,6,1,6s1-2.7,1-6-.4-6-1-6-1,2.7-1,6Z"/>
    <path class="cls-1" d="m231.13771,386.75027c0,4.1.2,5.8.4,3.7.2-2,.2-5.4,0-7.5-.2-2-.4-.3-.4,3.8Z"/>
    <path class="cls-1" d="m236.23771,388.25027c0,4.9.1,7.1.3,4.8s.2-6.4,0-9-.3-.8-.3,4.2Z"/>
    <path class="cls-1" d="m244.83771,388.45027c0,4.8.5,9.5,1,10.3.7,1,1-1.6,1-8.2,0-5.4-.4-10-1-10.3-.6-.4-1,2.6-1,8.2Z"/>
    <path class="cls-1" d="m255.23771,390.75027c0,6.3.1,8.9.3,5.7.2-3.1.2-8.3,0-11.5-.2-3.1-.3-.5-.3,5.8Z"/>
    <path class="cls-1" d="m259.53771,380.45027c-1,.9-.7,16.4.3,18.8.6,1.3.9-1.8.9-8.8.1-10.7,0-11.3-1.2-10Z"/>
    <path class="cls-1" d="m263.93771,391.45027c.1,7.6.4,10.7.9,8.8,1.2-4.6,1.2-20.5,0-20.5-.6,0-1,4.5-.9,11.7Z"/>
    <path class="cls-1" d="m268.83771,392.15027c0,6.9.3,12.6.8,12.6,1,0,1.2-23.9.1-24.6-.5-.3-.9,4.7-.9,12Z"/>
    <path class="cls-1" d="m278.23771,392.75027c0,7.4.1,10.5.3,6.7.2-3.7.2-9.7,0-13.5-.2-3.7-.3-.6-.3,6.8Z"/>
    <path class="cls-1" d="m283.23771,392.75027c0,7.4.1,10.5.3,6.7.2-3.7.2-9.7,0-13.5-.2-3.7-.3-.6-.3,6.8Z"/>
    <path class="cls-1" d="m286.83771,392.75027c0,8,.4,13,1,13s1-5,1-13-.4-13-1-13-1,5-1,13Z"/>
    <path class="cls-1" d="m291.83771,392.15027c0,7.3.4,12.7,1,13.1s1-4,1-12.4c0-8.1-.4-13.1-1-13.1s-1,4.8-1,12.4Z"/>
    <path class="cls-1" d="m297.23771,392.25027c0,7.1.1,9.9.3,6.2s.2-9.6,0-13-.3-.4-.3,6.8Z"/>
    <path class="cls-1" d="m302.23771,392.25027c0,7.1.1,9.9.3,6.2s.2-9.6,0-13-.3-.4-.3,6.8Z"/>
    <path class="cls-1" d="m306.83771,391.85027c0,6.7.3,12,.6,11.6,1.2-1.2,1.6-22.4.5-23.1-.8-.5-1.1,2.9-1.1,11.5Z"/>
    <path class="cls-1" d="m312.23771,391.25027c0,6.6.1,9.2.3,5.7.2-3.4.2-8.8,0-12-.2-3.1-.3-.3-.3,6.3Z"/>
    <path class="cls-1" d="m317.23771,390.75027c0,6.3.1,8.9.3,5.7.2-3.1.2-8.3,0-11.5-.2-3.1-.3-.5-.3,5.8Z"/>
    <path class="cls-1" d="m321.63771,381.95027c-.2,1.3-.1,5.9.3,10.3l.6,8,.1-10.3c.2-9.9-.1-12.6-1-8Z"/>
    <path class="cls-1" d="m326.53771,380.45027c-.7,1.2-.1,17.2.7,18,.3.3.6-3.7.6-9,0-9.1-.2-10.8-1.3-9Z"/>
    <path class="cls-1" d="m335.83771,387.25027c0,4.3.3,7.6.6,7.3.8-.8.8-13.7.1-14.5-.4-.3-.7,2.9-.7,7.2Z"/>
    <path class="cls-1" d="m344.93771,384.75027c.3,6.9,1.6,7.2,1.8.5.1-3.3-.3-5.5-.9-5.5s-1,2.1-.9,5Z"/>
    <path class="cls-1" d="m353.83771,382.85027c0,1.7.4,2.8,1,2.4.6-.3,1-1.7,1-3.1,0-1.3-.4-2.4-1-2.4-.5,0-1,1.4-1,3.1Z"/>
    <path class="cls-1" d="m349.93771,382.35027c0,1.1.3,1.4.6.6.3-.7.2-1.6-.1-1.9-.3-.4-.6.2-.5,1.3Z"/>
    <path class="cls-1" d="m446.83771,175.85026c-8.5,2.7-9,3.3-5.7,6.6l2.7,2.8,5.7-5.8c3.2-3.1,5.3-5.7,4.8-5.6-.6,0-3.9.9-7.5,2Z"/>
    <path class="cls-1" d="m471.13771,216.85026c-5.4,2.6-5.9,6-1.3,8.4,3.9,2,4.3,1.9,7.9-1.1,3.2-2.7,4-6.1,1.9-8.2-1.7-1.7-3.7-1.5-8.5.9Z"/>
    <path class="cls-1" d="m106.8377,221.05026c8.3,5.2,9.7,5.4,10.5,1.7.4-1.7.4-3.4,0-3.8-.3-.4-4.1-.8-8.3-1l-7.7-.4,5.5,3.5Z"/>
    <path class="cls-1" d="m89.5377,263.55026c-3.8,4.2-1.3,7.2,5.8,7.2,5.3,0,7.5-1.2,7.5-4.1,0-4.7-9.8-7-13.3-3.1Z"/>
    <path class="cls-1" d="m112.2377,307.15026c-3.6,1.6-4.8,4.9-3.1,8.6,1.5,3.1,5.8,3.8,9.3,1.5,3.1-2,3-4.8-.3-8.4-2.7-2.9-3-3-5.9-1.7Z"/>
    <path class="cls-1" d="m93.6377,311.85026c-1.3.7-1.8,2.2-1.8,5v4l4.7-.3c4.2-.3,4.9-.6,5.8-3.2.8-2.4.6-3.1-1.4-4.7-2.6-2.1-4.7-2.3-7.3-.8Z"/>
    <path class="cls-1" d="m165.33771,407.75027c-2.6,1-11.5,9.5-13.9,13.2-3.2,4.8.2,9.1,6.3,8,3.4-.7,16.1-13.3,16.1-16.1,0-2.3-3.3-6.1-5.2-6-.7,0-2.2.4-3.3.9Z"/>
    <path class="cls-1" d="m408.63771,412.15027c-2.5,1.9-2.2,3.6,1.3,8.4,3.4,4.7,6,5.3,8.3,2,2.2-3.1,2-4.6-1-8.5-2.7-3.5-5.6-4.2-8.6-1.9Z"/>
    <path class="cls-1" d="m340.43771,451.45027c-1.1,2.7,1.3,8.3,3.5,8.3,4.8,0,8.5-5.4,5.8-8.6-1.7-2-8.5-1.8-9.3.3Z"/>
    <path class="cls-1" d="m344.33771,467.75027c-1.8,2-1.5,6.1.7,8.7,2.6,3.2,9.8,0,9.8-4.3,0-5.4-6.9-8.3-10.5-4.4Z"/>
  </g>
  <g id="_Слой_3" data-name="Слой 3">
    <ellipse class="cls-1" cx="268.26323" cy="553.21835" rx="10.7234" ry="10.34043"/>
  </g>
</svg>