<?xml version="1.0" encoding="UTF-8"?>
<svg id="_Слой_1" data-name="Слой 1" xmlns="http://www.w3.org/2000/svg" xmlns:xlink="http://www.w3.org/1999/xlink" viewBox="0 0 998.29787 998.29787">
  <defs>
    <style>
      .cls-1 {fill: url(#_Безымянный_градиент_4);}
      .cls-1, .cls-2, .cls-3, .cls-4, .cls-5, .cls-6 {stroke-width: 0px;}
      .cls-2 {fill: #727272;}
      .cls-3 {fill: #824f2a;}
      .cls-5 {fill: #7a4b27;}
      .cls-6 {fill: url(#_Безымянный_градиент_6);}
    </style>
    <linearGradient id="_Безымянный_градиент_6" data-name="Безымянный градиент 6" x1="557.78948" y1="489.94064" x2="806.98844" y2="817.12493" gradientTransform="translate(0 -81.70209)" gradientUnits="userSpaceOnUse">
      <stop offset="0" stop-color="#727272"/>
      <stop offset="1" stop-color="#444"/>
    </linearGradient>
    <linearGradient id="_Безымянный_градиент_4" data-name="Безымянный градиент 4" x1="565.46903" y1="314.68333" x2="163.47151" y2="857.58764" gradientTransform="translate(0 -81.70209)" gradientUnits="userSpaceOnUse">
      <stop offset="0" stop-color="#fff"/>
      <stop offset="1" stop-color="#666"/>
    </linearGradient>
  </defs>
  <circle class="cls-4" cx="499.14894" cy="499.14894" r="499.14894"/>
  <g>
    <path class="cls-6" d="m918,745.85529c-12.29999,53.09998-49.40002,82.40002-98.20001,99.5-10.90002,3.79999-22.5,5-34.29999,5.29999-11.40002.20001-22.29999-1-33.09998-4.20001-4.5-1.40002-7.79999-3.5-10.59998-7.59998-16.40002-24.29999-33.09998-48.29999-49.70001-72.5-.40002-.70001-.79999-1.40002-1.29999-2.09998-.90002-1.20001-1.79999-2.40002-2.70001-3.59998h0c.29999-1.09998.59998-2.20001.79999-3.40002-.20001,1.09998-.5,2.20001-.79999,3.29999-14.70001-21.20001-29.5-42.29999-44.09998-63.5-38.90002-56.09998-77.59998-112.20001-116.59998-168.29999-3.70001-5.40002-5.5-11.09998-6.29999-17.39999-.90002-6.89999-2.5-13.79999-3.79999-20.60001-1.70001-8.39999-3.70001-16.79999-5-25.29999-2.29999-15.10001-4.70001-30.10001-13.20001-43.20001.5-1.89999.60001-3.89999,1.39999-5.70001,2.29999-5,4.89999-9.79999,7.29999-14.70001,5.80002-11.5,11.49997-23,17.30002-34.60001,5.40002-10.20001,10.79999-20.5,16.20001-30.70001,6.90002-13.20001,13.90002-26.29999,20.79999-39.5,17.79999,19.10001,35.90002,38,53.40002,57.39999,6.29999,7,14.5,10.5,22.20001,14.89999,18.40002,10.29999,37.09998,20.20001,55.59998,30.60001,2.59998,1.5,5.09998,3.70001,6.90002,6.20001,33,47.60001,66,95.20001,98.90002,142.89996.40002.5.59998,1.09998.90002,1.59998.09998.20001.20001.40002.29999.5,11.79999,16.90002,23.70001,33.79999,35.5,50.70001,26.09998,37.70001,51.79999,75.5,78.29999,112.90002,7.29987,10.30005,6.29987,20.90009,3.89984,31.10004Z"/>
    <path class="cls-5" d="m688.20001,760.65534c.29999-1.09998.59998-2.20001.79999-3.29999-.29999,1.09998-.5,2.19995-.79999,3.29999h0Z"/>
    <path class="cls-3" d="m688.20001,760.65534c.29999-1.09998.59998-2.20001.79999-3.29999-.29999,1.09998-.5,2.19995-.79999,3.29999h0Z"/>
    <path class="cls-2" d="m498.29999,228.35533c-1.10001,1.60001-2,3.3-3.29999,4.8-4.10001,4.8-8.20001,9.39999-12.29999,14.10001-5.79999,5.89999-11.60001,11.8-17.29999,17.8-9.29999,10-18.5,20-27.89999,30-.70001.70001-2,.79999-3.10001,1.20001-13.29999-25.89999-26.39999-51.89999-40.10001-77.60001-1.89999-3.60001-6.79999-5.60001-9.89999-8.60001-1.5-1.39999-3.20001-3.7-3-5.39999.70001-5.8-1.5-9.10001-6.79999-10.8-1.5-.5-2.89999-1.5-4.60001-2.39999.10001-.8.10001-1.7.39999-2.39999,11.20001-22.39999,28.39999-36.90001,53.70001-40.7,1.10001-.2,2.20001-.7,3.29999-.89999,5.5-1,7,.2,6.79999,5.8-.20001,4.39999,1.10001,7.60001,5.89999,8,7.29999.60001,7.79999,6.10001,9.10001,11.39999.5,2.10001,1.39999,4.39999,2.79999,6,15.29999,16.59996,30.79999,33.19997,46.29999,49.69997Z"/>
    <path class="cls-1" d="m615.70001,197.85533c-1.40002.8-2.79999,3.39999-2.5,4.89999,1.09998,6.5-.90002,10.7-6.90002,13.7-2.70001,1.39999-5,4.3-6.5,7-5.70001,10.5-11,21.3-16.59998,31.89999-.70001,1.40001-1.79999,2.7-2.79999,3.99998-5.40002,10.89999-10.79999,21.89999-16.09998,32.79999-.79999,1.60001-1.40002,3.29999-2,5-6.90002,13.20001-13.90002,26.29999-20.79999,39.5-5.40002,10.20001-10.79999,20.5-16.20001,30.70001-5.79999,11.5-11.5,23-17.29999,34.60001-2.5,4.89999-5,9.70001-7.29999,14.70001-.79999,1.70001-1,3.79999-1.39999,5.70001-.70001.39999-1.60001.60001-2,1.20001-5.70001,10.29999-11.20001,20.5-12.20001,32.70001-.70001,8.79999-3.10001,17.5-4.79999,26.20001-2,14.79999-4,29.60001-6.10001,44.30002-.20001,1.40002-1,2.79999-1.89999,4-17.10001,24.20001-34.29999,48.29999-51.39999,72.5-.39999.5-1,.90002-1.39999,1.40002-6.10001,8.5-12.20001,16.90002-18.20001,25.40002-20,28.20001-39.89999,56.5-59.79999,84.79999-.20001.29999-.5.40002-.79999.59998-14.39999,20.29999-28.70001,40.70001-43.10001,61-4.60001,6.5-9.39999,12.79999-14.10001,19.20001-6.79999,9.40002-13.5,18.79999-20.20001,28.29999-4.5,6.29999-8.8,12.79999-13.60001,18.90002-2,2.40002-4.8,4.70001-7.7,5.79999-16,5.90002-32.5,7.40002-49.40001,4.20001-28-5.29999-52.3-17.79999-73.4-36.79999-15.80006-14.20013-28.20007-30.80011-36.10007-50.6001-5.8-12.79999-8.6-26.09998-7.7-40.09998.2-2.09998,1.6-4.29999,3-6.09998,9.2-13,18.6-25.90002,27.9-38.79999,11.2-15.90002,22.39999-31.90002,33.7-47.70001,14.8-20.90002,29.7-41.79999,44.60001-62.59998.5-.70001,1.10001-1.20001,1.60001-1.90002,9-12.79999,17.89999-25.70001,27-38.40002,18-25.39999,36.10001-50.79999,54.20001-76.10001.60001-.79999,1.29999-1.5,2-2.20001,10.39999-14.79999,20.70001-29.60001,31.20001-44.39999,1.10001-1.5,3-2.60001,4.70001-3.60001,22.10001-13,44.20001-25.89999,66.20001-39.20001,4-2.39999,7.20001-6.20001,10.70001-9.60001s6.70001-6.89999,10.10001-10.39999c7.60001-8.39999,15.20001-16.79999,22.89999-25.10001,5.60001-6.10001,11.39999-12.10001,17-18.29999,1.20001-1.29999,1.70001-3.10001,2.5-4.70001,1-.39999,2.39999-.5,3.10001-1.20001,9.29999-9.89999,18.5-20,27.89999-30,5.70001-6,11.5-11.89999,17.29999-17.8,4.10001-4.7,8.29999-9.39999,12.29999-14.10001,1.20001-1.5,2.20001-3.2,3.29999-4.8,2.20001-2,4.5-3.8,6.5-5.89999,11.40002-12.10001,22.59998-24.39999,34.29999-36.3,4.5-4.60001,7.90002-9.3,8.70001-15.7.40002-3.39999,1.90002-5.89999,5.59998-6.7,5-1.10001,6.70001-4.60001,6.90002-9.5.20001-6.2,1-6.7,7.29999-5.7,20.29999,3.39999,36.90002,12.89999,48.79999,30,.90002,1.39999,1.90002,2.8,2.79999,4.2,5.70001,9.50002,5.59998,9.40001-3.79999,15.10002Z"/>
    <path class="cls-5" d="m690.90002,764.25532c.40002.70001.79999,1.40002,1.29999,2.09998-.5-.69995-.90002-1.39996-1.29999-2.09998Z"/>
  </g>
</svg>