<?xml version="1.0" encoding="UTF-8"?>
<svg id="_Слой_1" data-name="Слой 1" xmlns="http://www.w3.org/2000/svg" xmlns:xlink="http://www.w3.org/1999/xlink" viewBox="0 0 120.15 251.23">
  <defs>
    <style>
      .cls-1 {
        fill: url(#_Безымянный_градиент_3);
      }

      .cls-1, .cls-2, .cls-3, .cls-4, .cls-5, .cls-6, .cls-7, .cls-8 {
        stroke-width: 0px;
      }

      .cls-2 {
        fill: url(#_Безымянный_градиент_4);
      }

      .cls-3, .cls-7 {
        fill: #2a2d0e;
      }

      .cls-9 {
        clip-path: url(#clippath-2);
      }

      .cls-4, .cls-5 {
        fill: none;
      }

      .cls-10 {
        clip-path: url(#clippath-1);
      }

      .cls-5 {
        clip-rule: evenodd;
      }

      .cls-6, .cls-7 {
        fill-rule: evenodd;
      }

      .cls-6, .cls-8 {
        fill: #e28e13;
      }

      .cls-11 {
        clip-path: url(#clippath);
      }
    </style>
    <clipPath id="clippath">
      <rect class="cls-4" x="-41.85" y="-66.15" width="595.28" height="841.89"/>
    </clipPath>
    <clipPath id="clippath-1">
      <rect class="cls-4" x="20.84" y="4.89" width="81.16" height="2.2"/>
    </clipPath>
    <linearGradient id="_Безымянный_градиент_3" data-name="Безымянный градиент 3" x1="20.84" y1="5.99" x2="102" y2="5.99" gradientUnits="userSpaceOnUse">
      <stop offset="0" stop-color="#b1b0ae"/>
      <stop offset="1" stop-color="#fdfdfd"/>
    </linearGradient>
    <clipPath id="clippath-2">
      <polygon class="cls-5" points="11.44 229.5 111.7 229.5 100.19 240.51 99.68 241.57 23.5 241.57 22.98 240.52 11.44 229.5"/>
    </clipPath>
    <linearGradient id="_Безымянный_градиент_4" data-name="Безымянный градиент 4" x1="11.44" y1="235.54" x2="111.7" y2="235.54" gradientUnits="userSpaceOnUse">
      <stop offset="0" stop-color="#b1b0ae"/>
      <stop offset="1" stop-color="#fdfdfd"/>
    </linearGradient>
  </defs>
  <g class="cls-11">
    <path class="cls-6" d="m11.45,24.23c-.11-5.07,9.64-10.32,9.62-17.14l80.95.09c-.55,7.29,9.54,12.01,9.68,17.05v205.3H11.45V24.23Z"/>
    <g class="cls-10">
      <rect class="cls-1" x="20.84" y="4.89" width="81.16" height="2.2"/>
    </g>
    <g class="cls-9">
      <rect class="cls-2" x="11.44" y="229.5" width="100.26" height="12.07"/>
    </g>
    <path class="cls-6" d="m111.7,165.4V24.23c-.14-5.04-10.23-9.75-9.68-17.05l-80.95-.09c.02,6.82-9.73,12.07-9.62,17.14v141.17h100.25Z"/>
    <path class="cls-7" d="m79.55,158.52l-18.02-7.09-17.43,7.39-7.39,17.8,6.61,17.62,18.3,7.82,18.45-7.59,7.28-17.78-7.8-18.17Zm-39.81,18.19c0-12.18,9.87-22.05,22.05-22.05s22.05,9.87,22.05,22.05-9.87,22.05-22.05,22.05-22.05-9.87-22.05-22.05Z"/>
    <rect class="cls-3" x="44.51" y="182.56" width="1.42" height="1.42" transform="translate(-143.26 172.93) rotate(-73)"/>
    <polygon class="cls-7" points="48.23 184.16 44.64 186.11 45.2 187.15 46.67 186.36 46.82 186.63 45.71 188.09 46.45 188.97 47.7 187.28 49.88 187.2 49.31 186.15 47.47 186.27 47.33 186 48.8 185.2 48.23 184.16"/>
    <path class="cls-7" d="m49.82,188.8c.39-.37.72-.4,1-.11.28.29.22.62-.17.99l-.85.8c-.39.37-.72.41-1,.12-.28-.3-.22-.63.17-1l.84-.8Zm.29-1.3c-.43-.03-.84.15-1.23.52l-.64.61c-.4.38-.6.78-.59,1.2s.21.85.62,1.28c.41.43.83.66,1.25.69.42.03.83-.15,1.22-.53l.65-.61c.4-.38.6-.78.59-1.2,0-.42-.21-.85-.62-1.28-.4-.43-.82-.65-1.24-.68Z"/>
    <path class="cls-7" d="m50.49,187.05c0,.25.21.46.46.46s.46-.21.46-.46-.21-.46-.46-.46-.46.21-.46.46"/>
    <path class="cls-7" d="m52.35,188.14c-.25,0-.46.21-.46.46s.21.46.46.46.46-.21.46-.46-.2-.46-.46-.46"/>
    <polygon class="cls-7" points="52.58 189.6 50.6 193.18 51.51 193.69 52.68 191.57 52.73 191.6 52.75 194.38 53.74 194.92 55.72 191.34 54.8 190.84 53.61 192.99 53.57 192.96 53.65 190.2 52.58 189.6"/>
    <rect class="cls-3" x="54.28" y="193.1" width="4.09" height="1.18" transform="translate(-145.05 181.89) rotate(-70.43)"/>
    <path class="cls-7" d="m58.62,192.68c-.38.25-.61.66-.69,1.22l-.11.76c-.08.55.02.99.31,1.34.29.34.75.56,1.36.66.29.04.57.05.85.03.27-.02.5-.08.67-.16l.32-2.1-1.42-.21-.16.73.5.08-.13.89c-.1.04-.25.04-.43.01-.55-.08-.78-.43-.69-1.03l.13-.83c.05-.32.17-.55.36-.68.19-.13.46-.17.8-.12.32.05.6.14.85.28l.26-.66c-.11-.08-.29-.16-.54-.25-.25-.08-.5-.14-.75-.18-.62-.09-1.11-.01-1.49.24"/>
    <path class="cls-7" d="m63.56,192.45c-1.09.04-1.62.45-1.59,1.23.01.33.11.58.3.76.18.18.45.35.8.5.25.11.42.2.5.27.08.07.13.16.13.28,0,.15-.03.27-.12.35-.09.08-.24.13-.46.14-.35.01-.69-.04-1.02-.15l.03.74c.32.11.7.16,1.15.14,1.09-.04,1.62-.49,1.58-1.35,0-.14-.03-.27-.07-.39-.04-.12-.09-.21-.14-.29-.05-.08-.13-.15-.24-.23-.1-.08-.2-.14-.28-.18-.08-.04-.19-.1-.35-.18-.26-.13-.44-.23-.53-.3-.09-.07-.13-.16-.14-.26,0-.23.2-.35.62-.37.27-.01.53.01.78.07l.08-.68c-.32-.09-.67-.12-1.05-.11"/>
    <path class="cls-7" d="m66.92,194.31l.6-.11c.3-.05.48.1.55.46.04.19.02.34-.03.44-.06.1-.17.16-.32.19l-.59.11-.2-1.09Zm-.11-.61l-.19-1.05.52-.1c.15-.03.26,0,.35.06.08.07.14.19.18.37.07.36-.05.56-.34.62l-.51.09Zm-1.43-1.48l.74,4.02,1.94-.36c.45-.08.78-.25.98-.49.2-.25.27-.56.2-.94-.1-.54-.39-.82-.89-.85v-.04c.34-.22.48-.54.4-.96-.12-.65-.6-.89-1.45-.74l-1.92.35Z"/>
    <polygon class="cls-7" points="68.8 191.13 70.46 194.87 73.01 193.74 72.72 193.08 71.24 193.74 70.84 192.84 72.03 192.31 71.74 191.66 70.55 192.19 70.16 191.31 71.59 190.68 71.29 190.02 68.8 191.13"/>
    <path class="cls-7" d="m74.05,190.14l-.37.27-.8-1.11.37-.27c.12-.09.24-.12.36-.08.12.03.25.16.4.37.16.22.23.39.23.51,0,.12-.07.23-.19.32m-2.53-.7l2.39,3.32.96-.69-.79-1.09.39-.28,1.22.78.95-.68-.03-.07-1.51-.89c.19-.43.13-.86-.18-1.28-.49-.69-1.13-.75-1.9-.2l-1.52,1.09Z"/>
    <path class="cls-7" d="m75.99,188.77c.42.36.86.51,1.3.44.45-.07.87-.34,1.28-.81.19-.22.35-.46.47-.7.12-.24.2-.46.21-.66l-1.62-1.38-.93,1.09.53.52.33-.38.69.59c-.02.11-.09.23-.22.37-.36.42-.77.43-1.24.04l-.64-.55c-.25-.21-.38-.43-.39-.66-.01-.23.09-.48.32-.75.21-.24.43-.43.68-.57l-.42-.57c-.13.05-.29.16-.49.33-.2.17-.39.35-.55.54-.4.47-.6.94-.58,1.39.02.45.24.86.67,1.23l.58.5Z"/>
    <rect class="cls-3" x="77.47" y="183.06" width="1.42" height="1.42" transform="translate(-50.35 30.92) rotate(-17.01)"/>
    <polygon class="cls-7" points="76.82 181.4 80.83 182.12 81.04 180.95 79.38 180.66 79.62 179.34 81.27 179.64 81.48 178.47 77.46 177.76 77.26 178.92 78.83 179.2 78.59 180.52 77.02 180.24 76.82 181.4"/>
    <polygon class="cls-7" points="77.48 176.09 80.83 175.86 80.9 176.87 81.62 176.86 81.39 173.59 80.68 173.64 80.75 174.67 77.39 174.9 77.48 176.09"/>
    <path class="cls-7" d="m78.72,171.15l-.15-.43,1.29-.46.15.43c.05.14.04.27-.02.37-.06.1-.22.2-.46.28-.25.09-.44.11-.55.08-.12-.04-.2-.13-.25-.27m-1.28,2.31l1.27-1.2c.36.3.79.36,1.28.19.79-.28,1.03-.87.72-1.76l-.62-1.76-3.85,1.36.39,1.11,1.27-.45.16.46-1.09.95.39,1.1h.07Z"/>
    <path class="cls-7" d="m77.81,166.31l-1.35,1.38-.47-.75,1.8-.67.03.04Zm-1.74,3.45l2.84-3.14-.89-1.41-4.02,1.26.62.98.7-.26.63.99-.53.54.65,1.03Z"/>
    <polygon class="cls-7" points="73.66 166.01 76.31 162.91 75.52 162.23 73.93 164.1 73.89 164.06 74.52 161.38 73.59 160.59 70.94 163.69 71.73 164.36 73.3 162.53 73.34 162.56 72.81 165.28 73.66 166.01"/>
    <path class="cls-7" d="m45.93,180.05l-1.09.2-.11-.6c-.05-.3.1-.48.46-.54.19-.03.34-.02.44.04.1.06.16.17.19.32l.11.59Zm-1.69.3l-1.04.19-.09-.52c-.03-.14,0-.26.06-.34.07-.08.19-.14.37-.18.36-.06.56.05.61.34l.09.51Zm2.53.69l-.35-1.94c-.08-.45-.24-.78-.49-.98-.24-.2-.56-.27-.94-.2-.54.1-.82.39-.85.88h-.04c-.22-.34-.54-.48-.96-.4-.65.12-.89.6-.74,1.44l.35,1.92,4.01-.72Z"/>
    <path class="cls-7" d="m44.08,174.92c.09.08.13.2.12.35l-.04.46-1.36-.11.04-.46c.01-.15.07-.26.17-.33.1-.07.28-.09.54-.07.27.02.44.07.53.16m-2.05,1.82l4.07.34.1-1.18-1.34-.11.04-.48,1.38-.42.1-1.16-.07-.02-1.65.57c-.21-.42-.57-.65-1.09-.7-.84-.07-1.3.37-1.38,1.31l-.15,1.86Z"/>
    <path class="cls-7" d="m45.5,171.53l-1.67-.96v-.05s1.94.16,1.94.16l-.27.85Zm-2.64-.46l3.55,2.28.36-1.1-.65-.37.36-1.12.75.06.38-1.16-4.23-.17-.51,1.58Z"/>
    <path class="cls-7" d="m46.6,168.46c.87.58,1.63.37,2.28-.61.32-.49.45-.93.39-1.33-.06-.4-.3-.73-.73-1.02l-2.17-1.43-.65.99,2.27,1.5c.18.12.29.25.33.4.04.15.01.3-.09.46-.1.15-.23.24-.39.26-.16.02-.32-.03-.5-.14l-2.27-1.5-.65.99,2.17,1.43Z"/>
    <polygon class="cls-7" points="47.75 162.55 50.37 165.68 52.5 163.89 52.04 163.35 50.81 164.38 50.18 163.63 51.17 162.8 50.71 162.26 49.72 163.09 49.1 162.35 50.3 161.35 49.84 160.81 47.75 162.55"/>
    <path class="cls-7" d="m53.17,161.02l-.61-1.22.41-.21c.14-.07.26-.08.37-.02.11.05.22.19.34.42.12.24.17.42.14.54-.02.12-.1.22-.24.28l-.41.21Zm-1.97-1.29l1.83,3.65,1.06-.53-.6-1.2.43-.22,1.08.96,1.04-.52-.02-.07-1.35-1.11c.25-.4.26-.83.02-1.29-.38-.75-.99-.92-1.84-.49l-1.67.84Z"/>
    <polygon class="cls-7" points="55.72 157.65 56.68 161.61 59.38 160.96 59.21 160.27 57.64 160.65 57.41 159.69 58.67 159.39 58.5 158.7 57.25 159 57.02 158.07 58.53 157.71 58.37 157.01 55.72 157.65"/>
    <rect class="cls-3" x="59.93" y="156.79" width="1.18" height="4.08" transform="translate(-12.94 5.55) rotate(-4.75)"/>
    <path class="cls-7" d="m64.82,159.36l.3-1.65.43.08c.18.03.3.12.37.26.07.14.07.36.02.67-.06.33-.15.54-.26.63-.12.09-.27.12-.46.09l-.4-.07Zm-.74-2.52l-.73,4.01,1.16.21.19-1.04.48.09c.56.1.99.05,1.31-.17.32-.21.52-.56.61-1.03.04-.24.04-.46,0-.65s-.11-.36-.2-.48c-.09-.12-.21-.23-.36-.32-.14-.09-.28-.16-.41-.2-.13-.05-.27-.08-.41-.11l-1.64-.3Z"/>
    <path class="cls-7" d="m68.87,160.84l.52-1.03c.24-.48.54-.62.9-.44.36.18.42.51.18.98l-.52,1.04c-.24.48-.54.63-.9.45-.36-.18-.42-.51-.18-1m-1.03-.65c-.25.49-.3.94-.15,1.33.15.39.49.72,1.02.98.53.27,1,.34,1.4.22.4-.12.72-.42.97-.91l.4-.79c.25-.49.29-.93.15-1.33-.15-.39-.49-.72-1.02-.99-.52-.26-.99-.33-1.4-.21-.41.12-.73.42-.98.91l-.39.79Z"/>
    <path class="cls-7" d="m63.91,168.01l3.59-2.11c.08.05.16.09.24.14l-3.71,2.18-.12-.21Zm-.22-.38l3.36-1.97c.09.04.17.09.26.14l-3.49,2.05-.12-.22Zm6.46,11.27l3.44-2.03c0,.1,0,.2-.01.3l-3.31,1.94-.12-.22Zm-.22-.38l3.67-2.19s0,.07,0,.1c0,.07,0,.14,0,.2l-3.55,2.09-.12-.21Zm1.94,3.39l.6-.36c-.12.25-.24.5-.38.75l-.22-.39Zm-.2-.36l1.08-.65c-.05.11-.09.23-.14.34l-.83.5-.11-.19Zm-.22-.39l1.54-.91c-.04.13-.09.26-.14.39l-1.28.75-.13-.22Zm-.22-.39l1.95-1.14c-.03.11-.06.23-.1.34l-1.72,1.02-.13-.22Zm-.22-.38l2.32-1.37c-.03.12-.05.23-.08.35l-2.11,1.24-.12-.22Zm-.21-.37l2.64-1.55c-.02.1-.04.2-.05.3l-2.46,1.46-.12-.21Zm-.21-.36l2.92-1.72c-.01.09-.02.19-.04.28l-2.77,1.63-.11-.19Zm-.22-.39l3.2-1.88c0,.1-.02.21-.03.31l-3.04,1.79-.13-.22Zm-8.77,9.31v-2.76h.29v2.76c-.09,0-.19,0-.29,0Zm1.37-4.22v-1.45s.27,0,.27,0v1.4s-.01,0-.02,0c-.09,0-.17.02-.25.05Zm-.44,4.17v-2.72h.25v2.69c-.08,0-.16.02-.25.03Zm-.26-2.72v-.98s.02,0,.04,0c0,0,.02,0,.02,0,0,.01.01.05.01.06v.93h0v2.73c-.09,0-.17.01-.26.02v-2.75s.19,0,.19,0Zm-.19-1.47v-1.43s.27,0,.27,0v1.41s-.09.02-.13.04v-.03h-.14Zm-.47-1.43h.28v1.43s-.28,0-.28,0v-1.43Zm1.82,5.51v-2.6h.31v2.55c-.1.02-.21.04-.31.06Zm-.42-3.52s0-.05,0-.08c.01,0,.02,0,.03,0,0,0,.02,0,.02,0,0,0,.01.05.01.06v.93h.16v2.63c-.09.01-.18.03-.27.04v-2.67s.04,0,.04,0v-.91Zm-.19-.3s.08-.08.14-.11c.01,0,.02-.01.03-.02.07-.03.14-.05.22-.05,0,0,.01,0,.02,0,.07,0,.14.02.19.04.14.07.21.21.21.43v.79h-.44v-.81c0-.12-.05-.19-.15-.19-.03,0-.05,0-.08.01-.03.01-.06.03-.08.05,0,.04,0,.08,0,.14v.79h-.44v-.81c0-.11-.04-.17-.11-.18-.01,0-.02,0-.04,0-.07,0-.12.03-.16.08v.92h-.44v-1.24h.38v.14h.01s.09-.09.16-.12c.03-.01.05-.02.08-.03.05-.01.1-.02.15-.02.01,0,.03,0,.04,0,.1,0,.18.04.24.1.02.02.04.04.05.07Zm-.29-1.69h.24v1.47c-.07-.04-.15-.07-.24-.07v-1.4Zm1.86,5.31v-2.39c.05-.01.1-.03.14-.05v.04h.11v2.34c-.08.02-.17.04-.25.07Zm-.46-2.45c.08.05.17.07.27.07v2.42c-.09.02-.18.04-.27.06v-2.55Zm1.35,2.19v-2.15h.29v2.05c-.09.03-.19.07-.29.1Zm-.45-2.15h.26v2.21c-.09.03-.18.05-.26.08v-2.29Zm-.83-1.34c.06-.02.13-.03.21-.04.06,0,.12,0,.19,0h.03c.08,0,.15,0,.22.02.08.02.14.04.19.07.01,0,.02.02.04.03.09.08.14.2.14.36v.8h-.37l-.03-.11h-.02c-.05.06-.12.1-.2.12-.05.02-.11.02-.17.02,0,0-.02,0-.03,0-.1,0-.19-.03-.25-.09,0,0-.01-.01-.02-.02-.06-.06-.09-.15-.09-.27s.03-.21.09-.27c.06-.07.15-.11.27-.12.03,0,.07,0,.11,0,.03,0,.06,0,.08,0,.06,0,.12,0,.17.02v-.07c0-.07-.02-.12-.05-.15-.02-.02-.06-.04-.11-.04-.02,0-.05,0-.08,0-.04,0-.07,0-.11,0-.06,0-.12.01-.19.02l-.02-.27Zm-.06-.11v-1.46s.28,0,.28,0v1.41c-.08,0-.17.02-.24.04h-.03Zm-.5-1.46h.31v1.82c-.04-.19-.14-.33-.31-.39v-1.43Zm.96,1.4v-1.4h.24v1.42c-.07-.01-.14-.02-.21-.02h-.03Zm1.79,3.31v-1.81h.26v1.69c-.09.04-.18.08-.26.12Zm-.36-1.81v-.84s.05-.01.07-.02c.04,0,.07-.01.11-.02v2.76c-.1.03-.18.07-.27.1v-1.99h.09Zm-.54-1.36h.38v.26h.01s.04-.07.06-.11c.07-.11.16-.17.26-.18.01,0,.02,0,.04,0s.03,0,.04,0v.39h-.03s-.03,0-.05,0c-.04,0-.08,0-.13.02-.05,0-.09.02-.13.04-.01,0-.03.01-.04.02v.8h-.44v-1.24h.02Zm0-.12v-1.43h.28v1.43s-.28,0-.28,0Zm-.46-1.43h.27v1.8c-.03-.1-.08-.19-.16-.26-.03-.03-.07-.05-.11-.07v-1.47Zm1.37.95v-.95h.25v.95s-.25,0-.25,0Zm.86,3.35v-1.39h.26v1.25c-.08.05-.17.09-.26.14Zm-.42-1.39h.22v-.29l.02.04v1.75c-.08.04-.16.08-.23.11v-1.6Zm-.89-2.91h.26v1.41c-.09,0-.16.04-.22.08v-.05h-.04v-1.43Zm2.19,3.79v-.9c.09.03.18.04.27.05v.67c-.09.06-.18.12-.27.18Zm-.88-2.24h.45,0s-.19.36-.19.36l-.12.21.12.23.19.37.02.03v.03h-.46s-.19-.42-.19-.42l-.05-.1h-.09v.52h-.44v-1.72h.44v.98h.09l.05-.1.18-.39h.01Zm-.43-.6v-.95s.24,0,.24,0v1.66s-.02.04-.02.04v-.75h-.22Zm1.74,2.55v-.56c.08,0,.15,0,.22-.02v.43c-.08.05-.15.11-.22.16Zm.48-.66l.02-.46h.03v-.35c0-.14-.03-.28-.11-.4v-1.64h.26v2.98c-.09.07-.18.15-.27.22v-.34s.07-.03.07-.03Zm-1.23-.77c0-.7.79-.59.98-.46.21.14.18.41.18.65h-.72c0,.12.01.2.15.26.15.06.38.03.54-.01v.25c-.27.1-.72.1-.95-.07-.21-.16-.18-.38-.18-.62Zm-.12-.64v-1.43s.25,0,.25,0v1.52s-.05.03-.07.05c-.14.13-.18.31-.18.49v.22c0,.2.07.37.23.49,0,0,.01,0,.02.01v1.12c-.08.05-.16.1-.24.14v-1.14s.13,0,.13,0v-.18l-.14-.27v-.66s.21-.38.21-.38h-.21Zm2.17,1.02v-2.46h.26v2.21c-.08.08-.17.17-.26.25Zm-.42.37v-2.83s.24,0,.24,0v2.63c-.08.07-.16.13-.24.2Zm1.31-1.28v-1.55h.26v1.24c-.08.11-.17.21-.26.31Zm-.44-1.55h.25v1.76c-.09.09-.17.17-.25.26v-2.02Zm1.3.46v-.46h.31c-.1.16-.2.31-.31.46Zm-.42.56v-1.02h.23v.73c-.08.1-.15.2-.23.29Zm-1.56-1.95l.77-1.17.67,1.17h-1.44Zm-2.38,2.36v-1.43h.25v1.43s-.25,0-.25,0Zm1.32-.02v-1.41h.23v1.48c-.08-.03-.15-.05-.23-.06Zm-.44-1.41h.26v1.4c-.09,0-.18,0-.26.03v-1.43Zm-17.36-1.01l.52.31-.18.31c-.12-.2-.23-.41-.34-.62Zm-.33-.7l1.05.65-.11.19-.77-.46c-.06-.13-.12-.26-.17-.38Zm-.25-.64l1.52.9-.13.22-1.24-.73c-.05-.13-.1-.26-.15-.4Zm-.21-.63l1.95,1.15-.12.21-1.71-1.02c-.04-.11-.07-.23-.11-.35Zm-.17-.62l2.34,1.39-.13.22-2.12-1.25c-.03-.12-.06-.24-.09-.36Zm-.12-.56l2.68,1.58-.12.21-2.49-1.48c-.02-.1-.04-.2-.06-.31Zm-.09-.53l2.97,1.75-.11.19-2.82-1.66c-.02-.1-.03-.19-.05-.29Zm-.07-.56l3.26,1.92-.13.22-3.1-1.83c-.01-.11-.03-.21-.04-.32Zm-.04-.54l3.53,2.08-.12.22-3.38-1.99c0-.1-.02-.2-.02-.31Zm-.02-.54l3.76,2.24-.12.21-3.63-2.14c0-.1,0-.21,0-.31Zm2.39,6.33v.77c-.18-.25-.36-.51-.52-.77h.52Zm.19,0h.22v1.3c-.07-.09-.14-.18-.21-.27v-1.02Zm.41,0h.26v1.8c-.09-.1-.18-.2-.26-.3v-1.5Zm.45,0h.25v2.24c-.09-.08-.17-.16-.25-.24v-2Zm.11-1.98l.69,1.05h-1.29l.6-1.05Zm.59,1.98v2.65c-.08-.08-.17-.16-.25-.24v-2.42h.25Zm.43,0v3.01c-.08-.06-.16-.13-.23-.19v-2.82s.23,0,.23,0Zm.45,0v1.14c-.13.09-.22.23-.22.45,0,.14.04.28.14.39.03.03.06.06.09.08v.29s-.03-.01-.05-.02l-.16-.06v.54l.08.03s.09.03.14.04v.47s.19.13.19.13v-.57c.06,0,.11,0,.17,0,.02,0,.04,0,.05,0v.71c-.23-.16-.46-.32-.69-.49v-3.16h.26Zm.19,0h.22v1.02c-.07,0-.15.02-.22.04v-1.06Zm.93,2.49c.03.12.09.22.18.29v1.39c-.08-.04-.16-.09-.24-.14v-1.39s.05-.1.06-.16Zm-.26.34v1.1c-.09-.06-.18-.11-.27-.17v-.84c.1-.02.19-.05.27-.09Zm.63.06c.09.03.18.05.29.05v1.49c-.1-.05-.19-.1-.29-.15v-1.39Zm.48.04c.07,0,.15-.02.22-.05h.04s0,1.75,0,1.75c-.09-.04-.17-.08-.26-.12v-1.59Zm.45-.03h.23v1.91c-.08-.03-.16-.06-.23-.09v-1.81Zm.42,0h.12v-.98s.03-.01.05-.01c0,0,.02,0,.03,0,0,0,.01.05.01.06v.93h.04v2.08c-.08-.03-.17-.06-.26-.1v-1.98Zm.45,0h.26v2.23c-.08-.03-.17-.05-.25-.08v-2.14Zm-1.32-2.91h.25v1.45s-.02,0-.02,0c-.07-.02-.15-.03-.23-.04v-1.41Zm.87,0h.25v1.41s-.08.02-.12.04v-.5h-.12v-.95Zm.44,0h.26v1.49c-.06-.05-.15-.08-.25-.09v-1.4Zm1.37,1.43v-1.43h.24v1.43s-.24,0-.24,0Zm.43,0v-1.43s.28,0,.28,0v.95h-.13v1.51c0,.15.05.27.13.35v2.73c-.09-.01-.18-.03-.27-.04v-2.59s.1,0,.1,0v-1.47h-.11Zm-.82,1.51c.07,0,.13,0,.2-.02v2.46c-.09-.02-.17-.04-.26-.06v-2.38s.04,0,.06,0Zm-.07-2.94h.27v2.43s0,0,0,0c-.01-.01-.01-.06-.01-.08v-.92h-.25v-1.43Zm.46,5.41v-2.51h.25v2.56c-.08-.02-.17-.03-.25-.05Zm-2.42-3.46v.42s-.09.02-.09.02c-.05.01-.11.02-.17.03v-.51s.09,0,.13.02l.12.03h0Zm-1.8.36v.08s-.08.02-.1.02c-.04,0-.08,0-.12,0v-.21s.04.02.06.03c.04.02.12.06.16.09Zm.19-.77c.08,0,.17,0,.25.03v.23s-.03-.02-.05-.03c-.05-.03-.09-.05-.14-.08-.02-.01-.05-.03-.08-.04v-.1s.01,0,.02,0Zm-.02-.41c.09,0,.18.01.26.03.04,0,.07.02.1.03l-.04.27s-.04-.01-.06-.01c-.08-.02-.16-.02-.25-.02h-.02c-.08,0-.14.01-.18.04-.04.02-.06.06-.06.1s.02.08.05.11c0,0,0,0,0,0,.03.03.09.06.18.11,0,0,.01,0,.02.01.06.03.1.06.13.07.03.02.07.04.11.08,0,0,0,0,0,0,.04.03.07.06.09.09.02.03.04.07.05.12.01.05.02.1.02.16,0,.17-.05.29-.16.38-.07.05-.16.09-.27.11-.05,0-.11.02-.17.02-.02,0-.03,0-.05,0-.06,0-.11,0-.17,0-.07,0-.13-.02-.19-.03-.03,0-.07-.02-.1-.03v-.29s.06.02.1.03c.06.02.13.03.19.04.04,0,.08,0,.12,0s.07,0,.1-.01c.03,0,.06-.02.08-.04.04-.03.05-.08.05-.14,0-.04-.02-.08-.05-.11-.02-.02-.05-.04-.09-.06-.03-.02-.06-.04-.11-.06-.04-.02-.08-.04-.11-.06-.08-.05-.14-.09-.19-.15,0,0,0,0,0,0-.07-.07-.11-.18-.11-.31s.04-.23.11-.3c.05-.05.11-.09.19-.12.06-.02.14-.04.22-.04.04,0,.09,0,.13,0,.02,0,.03,0,.05,0Zm.26-1.13v1.04c-.08-.02-.17-.03-.26-.03v-1.01h.26Zm.36,2.06c0-.14.03-.25.09-.34.05-.07.11-.12.19-.15.08-.03.18-.05.29-.05,0,0,.01,0,.02,0,.06,0,.12,0,.17,0,.07,0,.13.02.2.03l-.04.26s-.1-.02-.16-.02c-.02,0-.04,0-.07,0-.05,0-.09,0-.12.02-.03.01-.05.03-.07.05-.04.05-.06.12-.06.22v.18c0,.09.02.17.06.21.02.02.04.03.06.04.04.02.09.03.15.03.01,0,.02,0,.04,0,.06,0,.13-.01.2-.03v.26c-.07.02-.13.03-.2.04-.05,0-.1,0-.14,0-.02,0-.03,0-.05,0-.11,0-.21-.02-.29-.06-.08-.04-.14-.09-.19-.15-.06-.08-.09-.19-.09-.33v-.22Zm.09-2.06v1.55c-.13.11-.21.28-.21.51h0s-.03-.06-.04-.08v-.57s.05-.3.05-.3h-.05s0-1.11,0-1.11h.25Zm.19,0h.29v1.4c-.11,0-.2.02-.29.04v-1.44Zm.92,1.07h.43v.6h.01c.06-.06.14-.11.23-.13.04,0,.08-.01.13-.01.02,0,.04,0,.06,0,.12.01.2.06.26.14.05.07.07.17.07.3v.82h-.44v-.81c0-.09-.03-.15-.08-.17-.02,0-.05-.01-.07-.01-.07,0-.13.03-.17.08v.92h-.44v-1.72h0Zm0-1.07h.24v.95h-.24v-.95Zm1.47,1.55h.44v.8c0,.13.05.19.14.2,0,0,0,0,.01,0,.07,0,.12-.02.16-.07v-.93h.44v1.24h-.38l-.02-.13h-.02s0,0,0,0c-.05.06-.12.1-.19.13-.06.02-.12.03-.2.03-.02,0-.05,0-.07,0-.08,0-.14-.03-.19-.08-.08-.07-.12-.19-.12-.35v-.84Zm-.16-1.55h.28v1.43s-.24,0-.24,0v.95c0,.23.08.41.24.5v2.38c-.09-.03-.19-.05-.29-.08v-2.28h.02v-.94c0-.06,0-.11-.01-.16v-1.81Zm1.83,2.92c.06.02.12.02.19.02.02,0,.04,0,.07,0v2.66c-.08,0-.17-.02-.26-.03v-2.65Zm.45,2.7v-2.73s.03-.02.03-.02v.03h.2v2.73c-.08,0-.16-.01-.23-.02Zm-.61-4.55h.4v1.34s0,.06.02.09c0,.01.01.02.02.03.02.02.06.04.11.04h.01v.23s-.09.02-.14.03c-.02,0-.04,0-.07,0-.07,0-.14,0-.19-.03-.08-.04-.14-.13-.15-.21v-1.51Zm.16-1.07h.25v.95s-.25,0-.25,0v-.95Zm.87,5.65v-2.74h.26v2.76c-.08,0-.17,0-.26-.01Zm-.43-5.65h.24v1.43h-.21v.52h.21v.24l-.17.25h-.07v-2.44Zm.88,5.67v-2.76s.25,0,.25,0v2.77c-.08,0-.16,0-.25,0Zm0-3.28l.24-.35v.35s-.24,0-.24,0Zm-.46-.84h.72v.25l-.02.03-.26.37-.19.27-.02.04h.52v.28h-1.03v-.27l.08-.12.19-.28.2-.29h-.49v-.28h.28Zm0-.12v-1.43h.25v1.43s-.25,0-.25,0Zm.44,0v-1.43s.25,0,.25,0v1.43s-.25,0-.25,0Zm-4.49-10.1l4.78,1.34v6.4h-2.97v-.02h-.19v.02h-4.52l-.83-1.25,3.72-6.49Zm2.69-9.79c.12-.02.23-.04.35-.06l1.21.7-.12.21-1.44-.85Zm1.66.47l-.97-.57c.13-.02.27-.03.41-.04l.69.39-.12.22Zm.87-.45l-.12-.2c.14,0,.28,0,.43.02l-.31.18Zm1.58,2.75l3.11-1.83c.09.04.18.09.28.13l-3.25,1.91-.13-.22Zm-.21-.37l2.84-1.67c.09.04.18.08.27.12l-2.99,1.76-.12-.21Zm-.2-.35l2.55-1.5c.09.03.18.07.27.1l-2.71,1.59-.11-.19Zm-.22-.38l2.25-1.3c.1.03.19.06.28.09l-2.41,1.42-.12-.21Zm-.21-.37l1.9-1.09c.09.02.19.05.28.08l-2.06,1.21-.11-.2Zm-.21-.36l1.51-.87c.1.02.19.04.29.06l-1.69,1-.11-.19Zm-.22-.38l1.06-.61c.12.02.23.04.35.06l-1.29.76-.12-.21Zm-.21-.37l.57-.33c.12.01.24.02.36.04l-.82.48-.11-.2Zm-.75-.11l-.42-.25c.19,0,.38-.01.57-.02l-.15.26Zm.43,11.05l4.78-1.34,3.65,6.37-.9,1.37h-7.53v-6.39Zm8.06,2.57l3.86-2.3c0,.09,0,.17,0,.26l-3.76,2.24-.11-.19Zm-.22-.39l4.05-2.39c0,.1.02.19.02.29l-3.94,2.33-.13-.22Zm-.22-.39l4.22-2.49c.01.09.02.18.03.27l-4.12,2.44-.13-.22Zm-.22-.38l4.37-2.58c.01.09.03.18.04.26l-4.29,2.53-.12-.22Zm-.21-.37l4.5-2.65c.02.08.03.17.05.25l-4.43,2.61-.12-.21Zm-.2-.36l4.61-2.72c.02.08.04.15.05.23l-4.55,2.68-.11-.19Zm-.22-.39l4.71-2.78c.02.09.05.17.07.26l-4.66,2.75-.13-.22Zm-.22-.38l4.8-2.83c.03.08.05.16.08.24l-4.75,2.8-.12-.22Zm-.21-.37l4.87-2.87c.03.08.06.15.08.23l-4.83,2.85-.12-.21Zm-.21-.36l4.93-2.9c.03.07.06.14.08.21l-4.9,2.89-.11-.19Zm-.22-.38l4.97-2.93c.03.08.07.15.1.23l-4.95,2.92-.12-.22Zm-.22-.38l5-2.95c.04.07.07.15.11.22l-4.99,2.94-.12-.22Zm-.21-.37l5.02-2.96c.04.07.08.14.11.21l-5.01,2.95-.12-.21Zm-.21-.36l5.02-2.96c.04.06.07.13.11.19l-5.02,2.96-.02-.04-.09-.15Zm-.22-.39l5.01-2.96c.05.07.09.14.13.22l-5.02,2.96-.13-.22Zm-.22-.38l4.99-2.94c.05.07.09.14.14.21l-5,2.95-.12-.22Zm-.21-.37l4.95-2.92c.05.06.1.13.14.2l-4.97,2.93-.12-.21Zm-.21-.36l4.9-2.89c.05.06.09.12.14.18l-4.93,2.91-.11-.19Zm-.22-.39l4.84-2.85c.06.07.11.13.16.2l-4.88,2.88-.13-.22Zm-.22-.38l4.76-2.81c.06.06.12.13.17.19l-4.81,2.83-.12-.22Zm-.23-.39l4.66-2.75c.06.06.12.13.18.19l-4.72,2.79-.13-.23Zm-.19-.33l4.55-2.71c.06.05.11.11.17.16l-4.61,2.75-.11-.2Zm-.23-.4l4.44-2.62c.06.06.13.11.19.17l-4.5,2.68-.13-.23Zm-.22-.39l4.31-2.53c.07.06.14.11.2.17l-4.38,2.59-.13-.22Zm-.22-.39l4.15-2.44c.07.06.15.11.22.17l-4.24,2.49-.13-.22Zm-.2-.35l3.99-2.34c.06.04.13.09.19.14l-4.07,2.39-.11-.19Zm-.22-.38l3.8-2.23c.08.05.15.1.23.15l-3.91,2.3-.12-.21Zm-14.82,7.73l3.96,2.36-.11.19-3.85-2.3c0-.09,0-.17,0-.26Zm.02-.48l4.16,2.46-.13.22-4.05-2.39c0-.1,0-.2.02-.29Zm.04-.49l4.34,2.56-.13.22-4.24-2.5c0-.09.02-.18.03-.28Zm.06-.47l4.5,2.65-.12.22-4.41-2.6c.01-.09.02-.18.04-.27Zm.08-.46l4.64,2.73-.12.21-4.56-2.69c.01-.09.03-.17.04-.25Zm.09-.43l4.76,2.8-.11.19-4.69-2.77c.02-.08.03-.15.05-.23Zm.11-.45l4.87,2.87-.13.22-4.8-2.83c.02-.09.04-.17.07-.26Zm.12-.44l4.96,2.92-.12.22-4.91-2.89c.02-.08.05-.16.07-.25Zm7.08.96l3.87-6.76h1.58l3.87,6.76.12.21-4.77,1.34-4.79-1.34.12-.2Zm3.99-6.97l.67-1.17.67,1.17h-1.34Zm-1.85-2.37l1.66.96-.11.19-1.84-1.09c.09-.02.19-.04.28-.06Zm-9.09,7.95l5.04,2.97-.12.21-5-2.95c.03-.08.05-.16.08-.23Zm.14-.39l5.1,3.01-.11.19-5.07-2.99c.03-.07.05-.14.08-.21Zm.17-.41l5.15,3.04-.12.22-5.12-3.02c.03-.08.06-.16.1-.23Zm.18-.4l5.19,3.06-.12.22-5.17-3.05c.03-.08.07-.15.1-.23Zm.19-.39l5.21,3.07-.12.21-5.2-3.07c.04-.07.07-.14.11-.22Zm.2-.36l5.22,3.08-.11.19-5.22-3.08c.04-.07.07-.13.11-.19Zm.23-.39l5.22,3.08-.13.22-5.22-3.08c.04-.07.09-.15.13-.22Zm.24-.37l5.2,3.07-.12.22-5.21-3.07c.04-.07.09-.14.13-.21Zm.24-.36l5.17,3.05-.12.21-5.19-3.06c.05-.07.09-.13.14-.2Zm.25-.33l5.13,3.03-.11.19-5.16-3.04c.04-.06.09-.12.13-.18Zm.28-.35l5.07,2.99-.13.22-5.11-3.01c.05-.07.11-.13.16-.2Zm.29-.34l5,2.95-.12.22-5.05-2.97c.06-.07.11-.13.17-.2Zm.31-.34l4.91,2.9-.13.23-4.96-2.93c.06-.06.12-.13.18-.19Zm.3-.3l4.81,2.86-.11.2-4.86-2.9c.05-.05.11-.11.16-.16Zm.32-.3l4.71,2.78-.12.22-4.76-2.84c.06-.05.12-.11.17-.16Zm.33-.29l4.59,2.7-.12.21-4.66-2.75c.06-.05.12-.11.18-.16Zm.33-.27l4.46,2.62-.1.18-4.53-2.66c.06-.05.12-.09.18-.14Zm.35-.27l4.31,2.53-.11.19-4.39-2.58c.06-.05.13-.09.19-.14Zm.37-.26l4.14,2.43-.11.19-4.23-2.49c.07-.05.13-.09.2-.14Zm.35-.23l3.98,2.34-.09.16-4.06-2.39c.06-.04.12-.07.17-.11Zm.43-.25l3.77,2.21-.12.21-3.89-2.28c.08-.05.16-.1.24-.14Zm.44-.24l3.54,2.08-.12.21-3.67-2.16c.08-.05.17-.09.25-.13Zm.48-.23l3.28,1.93-.13.22-3.43-2.01c.09-.04.18-.09.28-.13Zm.49-.21l3,1.77-.12.21-3.16-1.86c.09-.04.18-.08.27-.11Zm.49-.19l2.71,1.6-.11.19-2.88-1.69c.09-.03.18-.07.27-.1Zm.51-.17l2.42,1.4-.12.21-2.57-1.52c.09-.03.18-.06.28-.09Zm.57-.16l2.06,1.18-.12.21-2.23-1.31c.1-.03.19-.05.29-.08Zm3.01-1.47c-6.03,0-11.13,4.03-12.73,9.55h0s0,.01,0,.01c-.34,1.17-.52,2.41-.52,3.68,0,7.32,5.93,13.25,13.25,13.25s13.25-5.93,13.25-13.25c0-1.36-.2-2.67-.58-3.9h0s0-.01,0-.01c-1.09-3.52-3.6-6.41-6.86-8h0s0,0,0,0c-.38-.18-.77-.35-1.17-.5h0s0,0,0,0c-1.44-.53-2.99-.82-4.61-.82Z"/>
    <path class="cls-7" d="m58.27,178.76v-1.86h.29c.32,0,.55.07.69.22.14.14.21.38.21.7s-.07.58-.21.74c-.14.15-.36.23-.66.23-.03,0-.09,0-.17,0-.08,0-.13-.01-.17-.01m-.58-2.14c-.18,0-.34,0-.5,0-.16,0-.3-.01-.45-.02v.29c.22,0,.37.03.43.09.06.06.09.21.09.44v2.76c0,.23-.03.38-.09.44-.06.06-.2.09-.43.09v.29c.24-.01.45-.02.63-.03.17,0,.31,0,.41,0,.12,0,.28,0,.47,0,.19,0,.4.02.65.03v-.29h-.13c-.21,0-.34-.03-.4-.09-.06-.06-.09-.21-.09-.44v-1.12c.14,0,.26.02.36.02.1,0,.19,0,.27,0,.56,0,.97-.11,1.24-.32.27-.21.4-.54.4-.99,0-.41-.14-.7-.42-.89-.28-.19-.72-.28-1.33-.28-.07,0-.23,0-.48.01-.25,0-.46.01-.63.01Z"/>
    <path class="cls-7" d="m63.75,178.29c.08.16.21.3.38.43.17.12.44.25.83.39.09.03.16.06.21.08.3.11.5.22.6.33.1.11.15.26.15.44,0,.21-.06.38-.19.49-.13.12-.31.18-.54.18-.36,0-.66-.12-.89-.36-.23-.24-.36-.57-.38-.99h-.25v1.49h.21l.08-.34c.19.16.39.29.6.36.21.08.45.12.71.12.5,0,.89-.12,1.19-.36.29-.24.44-.56.44-.96,0-.33-.09-.59-.27-.79-.18-.2-.56-.4-1.15-.62-.38-.14-.63-.27-.72-.37-.1-.11-.15-.25-.15-.42,0-.21.07-.37.21-.5.14-.13.32-.19.55-.19.31,0,.56.1.75.3.19.2.3.47.33.83h.24v-1.32h-.22l-.05.26c-.17-.12-.35-.22-.55-.28-.2-.06-.41-.09-.63-.09-.5,0-.89.12-1.18.35-.29.23-.43.56-.43.96,0,.21.04.4.12.56"/>
    <path class="cls-7" d="m61.74,173.85c.24-.28.36-.68.36-1.2v-2.75c0-.24.03-.39.09-.44.06-.06.2-.09.41-.09v-.29h-.09c-.51.03-.83.04-.96.04-.1,0-.22,0-.38,0-.15,0-.4-.02-.74-.03v.29h.06c.25,0,.41.03.48.08.07.06.11.21.11.45v3.33c0,.27-.04.46-.12.58-.08.12-.21.18-.38.18-.1,0-.18-.02-.25-.05-.07-.04-.11-.09-.13-.15.11-.05.19-.12.24-.2.05-.08.08-.18.08-.3,0-.14-.04-.25-.13-.34-.09-.09-.2-.14-.34-.14s-.26.05-.35.15c-.1.1-.14.22-.14.37,0,.27.11.49.32.67.22.18.49.26.84.26.45,0,.8-.14,1.04-.41"/>
    <path class="cls-7" d="m64.42,185.13c-.09.01-.13.07-.13.16,0,.11.04.17.13.18,0,0,.01,0,.02,0,.05,0,.1-.02.14-.05v-.28s-.07-.01-.12-.01c-.02,0-.03,0-.04,0"/>
    <path class="cls-7" d="m68.1,184.9v.12h.31v-.13c0-.07-.01-.12-.03-.15-.02-.03-.06-.05-.12-.05,0,0,0,0-.01,0-.05,0-.09.02-.11.05-.02.03-.03.08-.03.15"/>
    <path class="cls-7" d="m56.72,185.71v-1.72h.44v.6h.01c.09-.09.21-.14.36-.14.26,0,.39.15.39.45v.82h-.44v-.81c0-.12-.05-.19-.16-.19-.07,0-.13.03-.17.08v.92h-.44Zm-.63-.52v-.18s0-.11.03-.14c.02-.02.07-.03.1-.03.07,0,.13,0,.2.02l.12.03.07-.41v.8l-.15.04c-.07.02-.13.03-.2.03-.03,0-.1,0-.13-.03-.03-.03-.03-.09-.03-.13Zm-.56.01v-.22c0-.36.2-.54.59-.54.13,0,.25.01.37.04l-.04.26c-.07-.02-.14-.02-.22-.02-.09,0-.15.02-.19.07-.04.05-.06.12-.06.22v.18c0,.09.02.17.06.21.04.05.11.07.21.07.07,0,.15-.01.23-.03v.26c-.12.03-.23.05-.34.05-.41,0-.61-.18-.61-.54Zm-.25-1.09l-.04.27c-.1-.03-.2-.04-.31-.04-.17,0-.25.05-.25.14,0,.04.02.08.05.11.03.03.1.07.21.13.06.03.1.06.13.07.03.02.07.04.11.08.04.03.07.06.09.09.02.03.04.07.05.12.01.05.02.1.02.16,0,.34-.22.51-.65.51-.18,0-.33-.02-.46-.07v-.29c.13.05.27.07.4.07.09,0,.15-.02.18-.05.04-.03.05-.08.05-.14,0-.04-.02-.08-.05-.11-.03-.03-.1-.07-.19-.12-.14-.07-.24-.14-.31-.21-.07-.07-.11-.18-.11-.31,0-.31.22-.47.65-.47.15,0,.29.02.42.06Zm.08.78s-.07-.09-.12-.12c-.04-.03-.08-.06-.12-.09-.05-.03-.09-.05-.14-.08-.06-.03-.14-.07-.19-.11,0,0,0,0,0-.01.03-.02.11-.02.13-.02.09,0,.19.01.28.03l.13.03.08-.5-.1-.03c-.15-.05-.3-.06-.45-.06-.39,0-.77.13-.77.58,0,.14.04.28.14.39.09.1.22.18.34.24.04.02.13.06.16.1,0,0,.01.01.01.03,0,.01,0,.04-.01.05-.02.01-.08.02-.1.02-.12,0-.25-.02-.36-.07l-.16-.06v.54l.08.03c.16.06.33.08.5.08.36,0,.67-.12.75-.45.08.31.34.45.7.45.12,0,.25-.02.37-.06l.08-.03.02-.43v.48h.68v-.98s.03-.01.05-.01c0,0,.02,0,.03,0,0,0,.01.05.01.06v.93h.68v-.94c0-.33-.16-.57-.51-.57-.09,0-.18.02-.26.05v-.5h-.68v.52l-.09-.02c-.13-.03-.26-.05-.4-.05-.44,0-.71.21-.71.66h0s-.03-.06-.05-.09Z"/>
    <path class="cls-7" d="m58.19,185.31v-.84h.44v.8c0,.13.05.2.15.2.07,0,.12-.02.16-.07v-.93h.44v1.24h-.38l-.02-.13h-.02c-.09.11-.22.16-.39.16-.25,0-.38-.14-.38-.43m-.12-.95v.95c0,.33.16.55.5.55.12,0,.23-.02.32-.08v.04h.61v-1.47h-.68v.99s-.03,0-.04,0c0,0-.01,0-.02,0-.01-.01-.01-.06-.01-.08v-.92h-.68Z"/>
    <path class="cls-7" d="m64.58,184.99v-.07c0-.07-.02-.12-.05-.15-.03-.03-.1-.05-.2-.05s-.19,0-.3.03l-.02-.27c.11-.03.25-.05.43-.05.2,0,.35.04.44.12.09.08.14.2.14.36v.8h-.37l-.03-.11h-.02c-.09.1-.21.15-.36.15-.11,0-.21-.03-.28-.09-.07-.06-.11-.16-.11-.29,0-.27.16-.4.47-.4.09,0,.18,0,.25.02m-2.85.72v-1.24h.38v.14h.01s.09-.09.16-.12c.07-.03.14-.05.23-.05.16,0,.27.06.34.18.04-.05.1-.09.17-.12.07-.03.14-.05.22-.05.28,0,.42.16.42.47v.8h-.44v-.81c0-.12-.05-.19-.15-.19-.06,0-.11.02-.16.06,0,.04,0,.08,0,.14v.8h-.44v-.81c0-.12-.05-.19-.15-.19-.06,0-.12.03-.16.08v.92h-.44Zm-1.26-.27l.48-.69h-.49v-.28h1v.25l-.49.7h.52v.28h-1.03v-.27Zm-.8-.06v-1.39h.44v1.34c0,.05.01.09.03.11.02.02.06.04.11.04h.01v.23c-.06.02-.12.03-.21.03-.26,0-.39-.12-.39-.36Zm-.12-1.51v1.51c0,.32.2.48.51.48.08,0,.17,0,.24-.04l.04-.02v.03h1.94v-.99s.02,0,.04,0c0,0,.02,0,.02,0,0,.01.01.05.01.06v.93h.68v-.91s0-.05,0-.08c.01,0,.02,0,.03,0,0,0,.02,0,.02,0,0,0,.01.05.01.06v.93h.68v-.25c.02.06.06.12.12.17.1.08.23.12.35.12.11,0,.21-.02.3-.07v.04h.59v-.92c0-.17-.05-.33-.18-.45-.14-.12-.34-.14-.52-.14-.15,0-.32,0-.46.05l-.09.03.04.5.13-.02c.09-.02.18-.02.28-.02.02,0,.05,0,.08,0-.03,0-.06,0-.08,0-.27,0-.48.09-.56.31v-.24c0-.35-.17-.59-.54-.59-.1,0-.19.02-.27.06-.04.02-.07.04-.1.06-.09-.09-.22-.12-.35-.12-.1,0-.19.02-.28.06v-.03h-.62v.96h-.41l.38-.55v-.41h-1.24v.52h.38l-.34.49h-.13s-.02,0-.02,0c0,0,0-.02,0-.03v-1.46h-.68Z"/>
    <path class="cls-7" d="m64.58,184.99v-.07c0-.07-.02-.12-.05-.15-.03-.03-.1-.05-.2-.05s-.19,0-.3.03l-.02-.27c.11-.03.25-.05.43-.05.2,0,.35.04.44.12.09.08.14.2.14.36v.8h-.37l-.03-.11h-.02c-.09.1-.21.15-.36.15-.11,0-.21-.03-.28-.09-.07-.06-.11-.16-.11-.29,0-.27.16-.4.47-.4.09,0,.18,0,.25.02m-2.85.72v-1.24h.38v.14h.01s.09-.09.16-.12c.07-.03.14-.05.23-.05.16,0,.27.06.34.18.04-.05.1-.09.17-.12.07-.03.14-.05.22-.05.28,0,.42.16.42.47v.8h-.44v-.81c0-.12-.05-.19-.15-.19-.06,0-.11.02-.16.06,0,.04,0,.08,0,.14v.8h-.44v-.81c0-.12-.05-.19-.15-.19-.06,0-.12.03-.16.08v.92h-.44Zm-1.27-1.24h1v.25l-.49.7h.52v.28h-1.03v-.27l.48-.69h-.49v-.28Zm-.35-.48v1.34c0,.05.01.09.03.11.02.02.06.04.11.04h.01v.23c-.06.02-.12.03-.21.03-.26,0-.39-.12-.39-.36v-1.39h.44Zm.23.37v.52h.38l-.34.49h-.13s-.02,0-.02,0c0,0,0-.02,0-.03v-1.46h-.68v1.51c0,.32.2.48.51.48.08,0,.17,0,.24-.04l.04-.02v.03h1.94v-.99s.02,0,.04,0c0,0,.02,0,.02,0,0,.01.01.05.01.06v.93h.68v-.91s0-.05,0-.08c.01,0,.02,0,.03,0,0,0,.02,0,.02,0,0,0,.01.05.01.06v.93h.68v-.25c.02.06.06.12.12.17.1.08.23.12.35.12.11,0,.21-.02.3-.07v.04h.59v-.92c0-.17-.05-.33-.18-.45-.14-.12-.34-.14-.52-.14-.15,0-.32,0-.46.05l-.09.03.04.5.13-.02c.09-.02.18-.02.28-.02.02,0,.05,0,.08,0-.03,0-.06,0-.08,0-.27,0-.48.09-.56.31v-.24c0-.35-.17-.59-.54-.59-.1,0-.19.02-.27.06-.04.02-.07.04-.1.06-.09-.09-.22-.12-.35-.12-.1,0-.19.02-.28.06v-.03h-.62v.96h-.41l.38-.55v-.41h-1.24Z"/>
    <path class="cls-7" d="m66.31,185.71v-1.72h.44v.98h.09l.23-.5h.46l-.32.57.33.64v.03h-.46l-.24-.52h-.09v.52h-.44Zm-1.03-1.24h.4v.26h.01c.09-.19.21-.28.36-.28.01,0,.03,0,.04,0v.39h-.03c-.05,0-.11,0-.18.02-.07.01-.12.03-.16.06v.8h-.44v-1.24Zm-.12-.12v1.47h.68v-.84s.05-.01.07-.02c.05,0,.1-.02.16-.02h.13v.87h.68v-.29l.13.29h.66v-.18l-.31-.61.38-.69h-.74l-.12.26v-.75h-.68v.47h-.08s-.04-.01-.05-.01c-.1,0-.18.03-.25.08v-.05h-.64Z"/>
    <path class="cls-7" d="m68.23,185.31h.56-.04c-.1.04-.21.05-.31.05-.06,0-.14,0-.19-.04,0,0-.01,0-.02-.01m-.43-.72c.1-.09.24-.14.44-.14.2,0,.35.04.44.13.09.09.14.21.14.39v.23h-.72v.05c0,.08.03.14.09.18.06.04.15.06.25.06s.22-.02.34-.05v.25c-.13.04-.28.06-.46.06-.21,0-.37-.05-.49-.14-.12-.09-.18-.22-.18-.4v-.22c0-.18.05-.31.15-.41Zm-.08-.09c-.14.13-.18.31-.18.49v.22c0,.2.07.37.23.49.16.12.36.16.56.16.16,0,.33-.02.49-.07l.07-.03.02-.46h.03v-.35c0-.18-.04-.35-.17-.47-.14-.13-.34-.16-.52-.16s-.38.04-.52.18Z"/>
    <path class="cls-7" d="m64.58,185.45v-.28s-.07-.01-.12-.01c-.12,0-.18.05-.18.16,0,.12.05.18.16.18.05,0,.1-.02.15-.05"/>
    <path class="cls-7" d="m68.09,184.87v.12h.31v-.13c0-.07-.01-.12-.03-.15-.02-.03-.06-.05-.12-.05-.06,0-.1.02-.12.05-.02.03-.03.08-.03.15"/>
    <path class="cls-7" d="m55.26,184.96s-.05-.06-.09-.09c-.04-.03-.08-.06-.11-.08-.03-.02-.08-.04-.13-.07-.1-.06-.17-.1-.21-.13-.03-.03-.05-.06-.05-.11,0-.09.08-.14.25-.14.11,0,.21.01.31.04l.04-.27c-.13-.04-.26-.06-.42-.06-.43,0-.65.15-.65.47,0,.13.04.23.11.31.07.07.17.14.31.21.1.05.16.09.19.12.03.03.05.07.05.11,0,.06-.02.11-.05.14-.04.03-.1.05-.18.05-.14,0-.27-.02-.4-.07v.29c.13.05.28.07.46.07.43,0,.65-.17.65-.51,0-.06,0-.11-.02-.16-.01-.05-.03-.09-.05-.12"/>
    <path class="cls-7" d="m56.11,184.44c-.39,0-.59.18-.59.54v.22c0,.36.2.54.61.54.12,0,.23-.02.33-.05v-.26c-.07.02-.15.03-.22.03-.1,0-.17-.02-.21-.07-.04-.05-.06-.12-.06-.21v-.18c0-.1.02-.17.06-.22.04-.05.1-.07.19-.07.08,0,.15,0,.22.02l.04-.26c-.11-.03-.24-.04-.37-.04"/>
    <path class="cls-7" d="m56.72,183.99v1.72h.44v-.92c.04-.05.1-.08.17-.08.1,0,.16.06.16.19v.81h.44v-.82c0-.3-.13-.45-.39-.45-.15,0-.27.05-.36.15h-.01v-.6h-.44Z"/>
    <path class="cls-7" d="m58.19,184.48v.84c0,.29.13.43.38.43.17,0,.3-.06.39-.17h.02s.02.13.02.13h.38v-1.24h-.44v.93s-.09.07-.16.07c-.1,0-.15-.07-.15-.2v-.8h-.44Z"/>
    <path class="cls-7" d="m59.66,183.99v1.39c0,.24.13.36.39.36.09,0,.15-.01.19-.03v-.23s0,0,0,0c-.05,0-.09-.01-.11-.04-.02-.02-.03-.06-.03-.11v-1.34h-.44Z"/>
    <polygon class="cls-7" points="60.45 184.48 60.45 184.76 60.94 184.76 60.46 185.45 60.46 185.71 61.49 185.71 61.49 185.43 60.96 185.43 61.46 184.73 61.46 184.48 60.45 184.48"/>
    <path class="cls-7" d="m61.72,184.48v1.24h.44v-.92c.04-.05.09-.08.16-.08.1,0,.15.06.15.19v.81h.44v-.8c0-.05,0-.1,0-.14.05-.04.1-.06.16-.06.1,0,.15.06.15.19v.81h.44v-.8c0-.32-.14-.47-.42-.47-.08,0-.15.02-.22.05-.07.03-.13.08-.17.12-.07-.12-.18-.18-.34-.18-.09,0-.16.02-.23.05-.07.03-.12.07-.16.13h-.01v-.14h-.38Z"/>
    <path class="cls-7" d="m64.58,185.17v.28s-.09.05-.15.05c-.1,0-.16-.06-.16-.18,0-.11.06-.16.18-.16.06,0,.1,0,.12.01m-.25-.44c.1,0,.16.02.2.05.03.03.05.08.05.15v.07c-.07-.01-.15-.02-.25-.02-.31,0-.47.13-.47.4,0,.13.04.23.11.29.07.06.16.09.28.09.15,0,.27-.05.36-.15h.02s.03.12.03.12h.37v-.8c0-.16-.05-.28-.14-.36-.09-.08-.24-.12-.44-.12-.18,0-.32.02-.43.05l.02.27c.1-.02.2-.03.3-.03Z"/>
    <path class="cls-7" d="m65.28,184.48v1.24h.44v-.8s.1-.04.16-.06c.07-.01.13-.02.18-.02h.03v-.39s-.03,0-.04,0c-.15,0-.27.1-.36.29h-.01v-.26h-.4Z"/>
    <polygon class="cls-7" points="66.31 183.99 66.31 185.71 66.75 185.71 66.75 185.19 66.84 185.19 67.08 185.71 67.54 185.71 67.54 185.68 67.22 185.05 67.53 184.48 67.07 184.48 66.84 184.97 66.75 184.97 66.75 183.99 66.31 183.99"/>
    <path class="cls-7" d="m68.09,184.99v-.12c0-.07.01-.12.03-.15.02-.03.06-.05.12-.05.06,0,.09.02.12.05.02.03.03.08.03.15v.13h-.31Zm-.29-.41c-.1.09-.15.23-.15.41v.22c0,.18.06.31.18.4.12.09.28.14.49.14.18,0,.33-.02.44-.06v-.25c-.11.03-.22.05-.33.05s-.19-.02-.25-.06c-.06-.04-.09-.1-.09-.18v-.05h.72v-.23c0-.17-.05-.3-.14-.39-.09-.09-.24-.13-.44-.13s-.34.05-.44.14Z"/>
    <path class="cls-3" d="m24.75,219.52l-.41.39c-.28-.3-.6-.44-.95-.44-.3,0-.55.1-.75.3-.2.2-.31.45-.31.75,0,.21.05.39.14.55.09.16.22.29.38.38.16.09.35.14.55.14.17,0,.33-.03.47-.1.14-.06.3-.18.47-.35l.4.42c-.23.22-.45.38-.65.47-.2.09-.44.13-.7.13-.48,0-.88-.15-1.18-.46-.31-.3-.46-.7-.46-1.17,0-.31.07-.58.21-.82.14-.24.34-.43.6-.58.26-.15.54-.22.84-.22.26,0,.5.05.74.16.24.11.44.26.61.46m-4.75-.54h.59v2.54h.87v.56h-1.45v-3.1Zm-1.94.82l-.42,1.07h.84l-.42-1.07Zm-.3-.82h.59l1.19,3.1h-.61l-.24-.64h-1.27l-.25.64h-.61l1.2-3.1Zm7.62-3.14c-.1,0-.18.04-.25.1-.07.07-.1.15-.1.25s.03.18.1.25c.07.07.15.1.25.1s.18-.04.25-.1c.07-.07.1-.15.1-.25s-.03-.18-.1-.25c-.07-.07-.15-.1-.25-.1Zm0-.38c.2,0,.38.07.52.22.14.14.22.32.22.52s-.07.38-.22.52c-.14.14-.32.22-.52.22s-.38-.07-.52-.22c-.14-.14-.22-.32-.22-.52s.07-.38.22-.52c.14-.14.32-.22.52-.22Zm-2.05-1.4c-.1,0-.18.03-.25.1-.07.07-.1.15-.1.25s.03.18.1.25c.07.07.15.1.25.1s.18-.03.25-.1c.07-.07.1-.15.1-.25s-.03-.18-.1-.25c-.07-.07-.15-.1-.25-.1Zm2.02-.44h.43l-2.45,3.45h-.42l2.1-2.96c-.13.02-.25.04-.36.05-.11.01-.21.02-.31.02s-.2,0-.31-.02c.03.1.05.19.05.27,0,.2-.07.38-.21.52-.14.14-.32.21-.52.21s-.38-.07-.53-.21c-.14-.14-.22-.32-.22-.52,0-.13.03-.25.1-.37.06-.11.16-.2.27-.27.12-.07.23-.1.35-.1.09,0,.21.02.36.05.27.06.51.09.72.09.19,0,.36-.02.52-.05.16-.03.31-.08.44-.15Zm-4.54.14h1.45v.54h-1.01l-.13.57s.07-.02.1-.02c.03,0,.07,0,.1,0,.28,0,.51.1.7.29.19.19.28.44.28.73s-.1.56-.31.76c-.21.21-.46.31-.75.31-.26,0-.49-.08-.68-.23-.19-.15-.31-.36-.37-.62h.62c.05.1.11.17.19.22.08.05.16.07.26.07.13,0,.24-.05.33-.14.09-.09.14-.21.14-.36s-.04-.26-.13-.35c-.08-.09-.19-.14-.31-.14-.06,0-.13.02-.19.05-.06.03-.12.08-.18.14l-.48-.11.37-1.72Zm-1.36,2.52l.41.21-.52.89-.29-.14.39-.96Zm-1.54-.6v-1.04l-.71,1.04h.71Zm0-2h.59v2h.28v.54h-.28v.63h-.58v-.63h-1.35v-.54l1.35-2Z"/>
    <path class="cls-3" d="m98.31,213.46h1.49v.56h-1.04l-.13.58s.07-.02.11-.02c.03,0,.07,0,.1,0,.29,0,.53.1.72.29.19.2.29.45.29.75s-.11.57-.32.78c-.21.21-.47.32-.77.32-.27,0-.5-.08-.7-.23-.2-.15-.32-.37-.38-.64h.64c.05.1.11.17.19.23.08.05.17.08.26.08.13,0,.25-.05.34-.14.09-.1.14-.22.14-.37s-.04-.27-.13-.36c-.09-.09-.19-.14-.32-.14-.07,0-.13.02-.2.05-.06.03-.13.08-.19.15l-.49-.11.38-1.77Zm6.44,5.37h.6v2.6h.89v.58h-1.49v-3.18Zm-2.23.51c-.29,0-.54.1-.74.31-.2.2-.3.46-.3.78,0,.35.13.63.38.83.2.16.42.24.67.24.29,0,.53-.1.73-.31.2-.21.3-.46.3-.77s-.1-.56-.3-.77c-.2-.21-.45-.31-.74-.31Zm0-.59c.45,0,.84.16,1.16.49.32.33.49.72.49,1.19s-.16.86-.48,1.18c-.32.32-.71.48-1.16.48s-.87-.17-1.19-.5c-.32-.33-.47-.72-.47-1.18,0-.3.07-.58.22-.84.15-.25.35-.46.61-.61.26-.15.54-.22.83-.22Zm-4.84.08h.62l.8,2.26.82-2.26h.62l-1.15,3.18h-.58l-1.12-3.18Zm7.95-5.37h.6v2.6h.89v.58h-1.49v-3.18Zm-3.68,0h.59l.74,2.22.74-2.22h.59l.53,3.18h-.58l-.34-2.01-.67,2.01h-.53l-.67-2.01-.35,2.01h-.59l.55-3.18Zm-6.13,0h1.49v.56h-1.04l-.13.58s.07-.02.11-.02c.03,0,.07,0,.1,0,.29,0,.53.1.72.29.19.2.29.45.29.75s-.11.57-.32.78c-.21.21-.47.32-.77.32-.27,0-.5-.08-.7-.23-.19-.15-.32-.37-.38-.64h.64c.05.1.11.17.19.23.08.05.17.08.26.08.13,0,.25-.05.34-.14.09-.1.14-.22.14-.37s-.04-.27-.13-.36c-.09-.09-.19-.14-.32-.14-.07,0-.13.02-.2.05-.06.03-.13.08-.19.15l-.49-.11.38-1.77Zm-2.38.78h-.58c.03-.23.11-.42.25-.57.19-.2.44-.3.73-.3.26,0,.48.08.66.25.18.17.26.36.26.59,0,.14-.04.27-.12.39-.08.12-.19.21-.34.28.19.06.34.16.45.3.11.14.16.31.16.51,0,.29-.1.53-.32.72-.21.2-.48.3-.8.3-.31,0-.56-.09-.75-.28-.19-.19-.3-.44-.32-.76h.6c.03.16.08.29.17.37.09.08.2.12.34.12s.26-.04.35-.14c.09-.09.14-.2.14-.33,0-.14-.06-.27-.19-.37-.12-.1-.3-.15-.54-.15v-.52c.14-.01.25-.03.32-.07.07-.03.13-.08.17-.14.04-.06.06-.12.06-.19,0-.09-.03-.16-.09-.22-.06-.06-.14-.09-.24-.09-.09,0-.16.03-.24.08-.07.05-.12.12-.14.2Z"/>
    <path class="cls-3" d="m73.75,219.01v1.89h.26c.26,0,.45-.03.57-.09.12-.06.21-.16.29-.3.07-.14.11-.32.11-.52,0-.32-.09-.57-.27-.74-.16-.16-.42-.24-.77-.24h-.19Zm-.57-.55h.68c.44,0,.76.05.97.16.21.11.39.28.52.53.14.24.21.53.21.85,0,.23-.04.44-.11.64-.08.19-.18.35-.32.48-.13.13-.28.22-.44.27-.16.05-.43.07-.82.07h-.69v-3Zm-1.89.8l-.41,1.03h.81l-.4-1.03Zm-.29-.8h.57l1.15,3h-.59l-.23-.62h-1.23l-.24.62h-.59l1.16-3Zm-2.73,1.17h.18c.18,0,.31-.02.38-.07.07-.05.1-.13.1-.24,0-.07-.02-.12-.05-.17-.03-.05-.08-.08-.14-.1-.06-.02-.16-.03-.32-.03h-.16v.62Zm-.57-1.17h.61c.33,0,.57.03.71.09.14.06.25.16.34.3.09.14.13.3.13.49s-.05.36-.14.49c-.09.13-.24.23-.43.3l.71,1.33h-.62l-.67-1.27h-.06v1.27h-.57v-3Zm-.77.49l-.4.4c-.25-.27-.55-.4-.89-.4-.29,0-.54.1-.74.29-.2.2-.3.43-.3.71s.1.53.31.73c.21.2.46.3.76.3.2,0,.36-.04.5-.12.14-.08.24-.21.33-.39h-.87v-.53h1.51v.13c0,.26-.06.51-.2.75-.14.23-.31.41-.53.54-.22.12-.47.19-.76.19-.31,0-.59-.07-.83-.2-.24-.14-.44-.33-.58-.58-.14-.25-.21-.52-.21-.81,0-.4.13-.74.39-1.03.31-.35.72-.52,1.22-.52.26,0,.51.05.73.14.19.08.38.22.56.42Zm-5.85-.49h.54l1.29,1.97v-1.97h.57v3h-.55l-1.29-1.97v1.97h-.57v-3Zm-1.21,0h.57v3h-.57v-3Zm-3.04,0h.54l1.29,1.97v-1.97h.57v3h-.55l-1.29-1.97v1.97h-.57v-3Zm-1.21,0h.57v3h-.57v-3Zm-1.8,0h.57v2.45h.84v.54h-1.41v-3Zm-1.88.8l-.41,1.03h.81l-.4-1.03Zm-.29-.8h.57l1.15,3h-.59l-.23-.62h-1.23l-.24.62h-.59l1.16-3Zm-3.5,0h.58v1.04l.81-1.04h.69l-1.05,1.34,1.15,1.66h-.68l-.92-1.34v1.34h-.58v-3Zm26.13-3.48l-.3.77h.61l-.3-.77Zm-.22-.6h.43l.87,2.25h-.45l-.18-.46h-.92l-.18.46h-.44l.87-2.25Zm-1.98,0h.43v2.25h-.43v-2.25Zm-.8.31l-.32.28c-.11-.15-.22-.23-.34-.23-.06,0-.1.02-.14.04-.04.03-.05.06-.05.1s.01.07.04.11c.03.04.14.14.31.29.16.14.26.22.3.26.09.09.15.17.18.25.04.08.05.17.05.26,0,.18-.06.34-.19.46-.13.12-.29.18-.5.18-.16,0-.3-.04-.42-.12-.12-.08-.22-.2-.31-.37l.36-.22c.11.2.23.3.37.3.07,0,.14-.02.19-.06.05-.04.08-.09.08-.15,0-.05-.02-.1-.06-.15-.04-.05-.12-.13-.25-.23-.25-.2-.4-.35-.47-.46-.07-.11-.11-.22-.11-.32,0-.16.06-.29.18-.4.12-.11.27-.17.44-.17.11,0,.22.03.32.08.1.05.21.15.33.28Zm-2.01,0l-.32.28c-.11-.15-.22-.23-.34-.23-.06,0-.1.02-.14.04-.04.03-.05.06-.05.1s.01.07.04.11c.03.04.14.14.31.29.16.14.26.22.3.26.09.09.15.17.18.25.04.08.05.17.05.26,0,.18-.06.34-.19.46-.13.12-.29.18-.5.18-.16,0-.3-.04-.42-.12-.12-.08-.22-.2-.31-.37l.36-.22c.11.2.23.3.37.3.07,0,.14-.02.19-.06.05-.04.08-.09.08-.15,0-.05-.02-.1-.06-.15-.04-.05-.12-.13-.25-.23-.25-.2-.4-.35-.47-.46-.07-.11-.11-.22-.11-.32,0-.16.06-.29.18-.4.12-.11.27-.17.44-.17.11,0,.22.03.32.08.1.05.21.15.33.28Zm-3.59-.31h.43v1.45c0,.13.01.21.03.27.02.05.06.09.11.12.05.03.11.05.18.05.08,0,.14-.02.2-.05.05-.03.09-.08.11-.13.02-.05.03-.16.03-.31v-1.4h.43v1.34c0,.23-.01.38-.04.47-.03.09-.07.17-.15.25-.07.08-.15.14-.25.18-.09.04-.2.06-.33.06-.16,0-.3-.04-.43-.11-.12-.08-.21-.17-.26-.28-.05-.11-.08-.3-.08-.57v-1.34Zm-1.73.88h.14c.14,0,.23-.02.28-.05.05-.04.08-.1.08-.18,0-.05-.01-.09-.04-.13-.03-.04-.06-.06-.1-.08-.04-.02-.12-.02-.24-.02h-.12v.46Zm-.43-.88h.45c.25,0,.43.02.53.07.11.04.19.12.25.22.06.1.1.22.1.37s-.04.27-.11.37c-.07.1-.18.17-.32.23l.53,1h-.47l-.51-.95h-.04v.95h-.43v-2.25Zm-3.22,0h.41l.97,1.48v-1.48h.43v2.25h-.41l-.97-1.47v1.47h-.43v-2.25Zm-1.3,0h.43v2.25h-.43v-2.25Zm-2.47,0h1.23v.42h-.8v.4h.8v.41h-.8v.59h.8v.42h-1.23v-2.25Zm-2.15.41v1.42h.2c.2,0,.34-.02.43-.07.09-.05.16-.12.22-.23.06-.11.08-.24.08-.39,0-.24-.07-.42-.2-.56-.12-.12-.31-.18-.58-.18h-.14Zm-.43-.41h.51c.33,0,.57.04.73.12.16.08.29.21.39.39.1.18.15.4.15.64,0,.17-.03.33-.09.48-.06.15-.14.27-.24.36-.1.1-.21.16-.33.2-.12.04-.32.05-.61.05h-.51v-2.25Zm-1.8.6l-.3.77h.61l-.3-.77Zm-.22-.6h.43l.87,2.25h-.45l-.18-.46h-.92l-.18.46h-.45l.87-2.25Zm-3.67,0h.41l.52,1.57.53-1.57h.41l.38,2.25h-.41l-.24-1.42-.48,1.42h-.38l-.47-1.42-.24,1.42h-.42l.39-2.25Z"/>
    <path class="cls-7" d="m11.45,24.23v141.17h26.89l3.62-8.71,19.54-8.29,20.17,7.94,3.89,9.06h26.14V24.23c-.14-5.04-10.23-9.75-9.68-17.05l-80.95-.09c.02,6.82-9.73,12.07-9.62,17.14"/>
    <polygon class="cls-6" points="24.66 133.95 21.11 131.98 21.11 105.81 24.66 103.83 24.66 123.12 28.34 125.17 24.66 127.22 24.66 133.95"/>
    <polygon class="cls-6" points="28.38 125.14 31.93 123.17 31.93 103.67 24.58 99.58 21.13 101.71 28.38 105.76 28.38 125.14"/>
    <polygon class="cls-6" points="44.92 123.38 44.92 127.38 102.37 98.34 98.47 96.32 44.92 123.38"/>
    <polygon class="cls-6" points="34.21 108.18 34.21 118.58 37.88 120.62 41.53 118.59 37.76 116.48 37.76 106.21 34.21 108.18"/>
    <polygon class="cls-6" points="45.13 116.59 45.13 106.19 41.47 104.14 37.82 106.18 41.59 108.28 41.59 118.56 45.13 116.59"/>
    <polygon class="cls-6" points="60.61 94.79 60.61 105.19 64.28 107.24 67.93 105.2 64.16 103.1 64.16 92.82 60.61 94.79"/>
    <polygon class="cls-6" points="71.58 107.17 71.53 92.8 67.86 90.76 64.21 92.79 67.98 94.9 67.98 105.17 71.58 107.17"/>
    <polygon class="cls-6" points="82.69 80.08 82.7 97.48 86.37 99.53 90.02 97.49 86.25 95.39 86.25 85.48 89.93 83.42 86.25 81.38 86.26 78.09 82.69 80.08"/>
    <polygon class="cls-6" points="51.02 113.86 47.47 111.89 47.47 97.53 51.02 99.5 51.02 113.86"/>
    <polygon class="cls-6" points="94.88 95.05 91.34 93.08 91.35 73.77 94.88 71.8 94.88 95.05"/>
    <polygon class="cls-6" points="102.35 94.86 102.29 80.49 98.62 78.45 94.97 80.48 98.75 82.59 98.75 92.86 102.35 94.86"/>
    <polygon class="cls-6" points="77.47 103.81 73.92 101.84 73.92 87.58 80.75 84.13 80.77 88.12 77.47 89.79 77.47 103.81"/>
    <polygon class="cls-6" points="58.47 113.91 58.41 99.55 54.74 97.51 51.09 99.54 54.86 101.64 54.86 111.92 58.47 113.91"/>
    <polygon class="cls-6" points="43.18 128.26 43.14 122.38 41.75 121.69 40.39 122.37 41.78 123.07 41.78 128.96 43.18 128.26"/>
    <polygon class="cls-6" points="39.06 128.94 40.4 129.66 41.77 128.97 40.45 128.24 39.06 128.94"/>
    <polygon class="cls-6" points="39 123.07 39.02 126.68 40.34 127.41 41.73 126.71 40.39 125.99 40.39 122.38 39 123.07"/>
    <polygon class="cls-6" points="38.34 130.7 38.32 127.12 36.95 126.41 36.95 131.4 38.34 130.7"/>
    <polygon class="cls-6" points="34.15 124.18 34.18 129.12 35.5 129.85 36.88 129.15 35.54 128.43 35.54 124.88 34.15 124.18"/>
    <polygon class="cls-6" points="33.48 133.15 33.46 129.54 30.73 128.17 30.73 127.24 29.23 128 29.25 128.8 32.09 130.23 32.09 133.85 33.48 133.15"/>
    <polygon class="cls-6" points="29.36 130.28 29.37 133.82 30.69 134.56 32.08 133.86 30.74 133.13 30.74 129.58 29.36 130.28"/>
    <polygon class="cls-6" points="33.53 128.17 33.52 127.18 32.18 126.5 30.81 127.19 32.15 127.87 32.15 128.87 33.53 128.17"/>
    <polygon class="cls-6" points="27.95 135.94 27.92 128.73 26.54 128.02 26.55 135.3 27.95 135.94"/>
    <path class="cls-6" d="m51.84,91.82v-10.85c-.52.2-.82.42-.84.65v10.63l.84-.42Z"/>
    <path class="cls-6" d="m64.37,80.36v5.13l3.63-1.83v-2.12c-.17-.49-1.57-.92-3.63-1.18"/>
    <path class="cls-6" d="m54.63,90.34v-9.98c-.79.1-1.48.23-2.05.37v10.7l2.05-1.09Z"/>
    <path class="cls-6" d="m65.56,78.22l-.62-.16-.57,2.3c-.46-.06-.93-.11-1.41-.15l.63-2.49-.56-.14.47-4.7c1.44.04,2.76.4,3.98,1.04l-1.92,4.29Z"/>
    <path class="cls-6" d="m56.29,75.51c.07.38.04.79-.11,1.18-.16.42-.44.76-.78.99l.63,2.53c-.47.03-.93.08-1.38.14l-.57-2.29c-.24,0-.47-.06-.71-.15-.7-.27-1.18-.87-1.33-1.55l-.58-2.34,4.2-1.08.64,2.55Z"/>
    <path class="cls-6" d="m55.62,75.57c.03.12.05.25.05.38,0,.83-.67,1.5-1.5,1.5-.7,0-1.29-.48-1.46-1.14-.15-.59-.27-1.16-.44-1.77l2.91-.75.44,1.77Z"/>
    <path class="cls-6" d="m52.27,74.54l2.91-.75.44,1.77c.03.12.05.25.05.38,0,.83-.67,1.5-1.5,1.5-.7,0-1.29-.48-1.46-1.14-.15-.59-.27-1.16-.44-1.77m-.82-.5l.58,2.34c.15.68.63,1.28,1.33,1.55.23.09.47.14.71.15l.57,2.29c.45-.07.91-.12,1.38-.14l-.63-2.53c.34-.24.62-.58.78-.99.15-.39.18-.8.11-1.18l-.64-2.55-4.2,1.08Z"/>
    <path class="cls-6" d="m64.37,80.36l.57-2.3.62.16,1.92-4.29c-1.22-.64-2.54-1-3.98-1.04l-.47,4.7.56.14-.63,2.49c.48.03.95.08,1.41.15m.84-2.87l-1.52-.39.33-3.65c.16.01.33.03.49.05l-.22,2.51.26.05.6-2.44c.14.04.31.08.44.13l-.61,2.44.23.08,1.05-2.26c.13.06.25.12.37.2l-1.43,3.28Z"/>
    <path class="cls-6" d="m58.83,72.19h-1.36v-.78h.15c.22.09.62.2,1.11.2h.1v.58Zm0,1.41h-1.33v-.78h1.33v.78Zm0,1.49h-.1c-.61,0-1.04-.26-1.23-.87h1.33v.87Zm0,.59v4.4c-.99.01-1.94.06-2.8.13,0,0-.01,0-.02,0v9.49l6.95-3.51v-5.98c-.86-.07-1.78-.11-2.76-.13v-4.4s.24,0,.24,0c.92,0,1.68-.69,1.68-1.66v-2.33c0-.62.41-1.16.9-1.67h-.85c-.44.57-.92,1.05-1.98.97v-.97h-1.37v.97c-.97.05-1.54-.32-1.94-.97h-.86c.57.55.88,1.09.88,1.67v2.43c0,.72.71,1.56,1.66,1.56h.26Zm1.37-.59v-.87h1.3c-.13.5-.45.87-1.15.87h-.15Zm0-1.49v-.78h1.3v.78h-1.3Zm0-1.41v-.58h.15c.45,0,.92-.12,1.02-.2h.1v.78h-1.26Z"/>
    <path class="cls-8" d="m77.3,39.56h.47c.48,0,.81-.06.99-.19.18-.13.27-.33.27-.62,0-.17-.05-.32-.13-.45-.09-.13-.21-.22-.36-.27-.15-.06-.43-.08-.83-.08h-.41v1.61Zm-1.48-3.06h1.58c.87,0,1.48.08,1.85.23.37.15.66.41.89.77.22.36.34.78.34,1.27s-.12.95-.37,1.29c-.25.35-.62.61-1.11.79l1.85,3.48h-1.63l-1.76-3.32h-.15v3.32h-1.48v-7.83Zm-5.76,0h4.28v1.46h-2.79v1.41h2.79v1.44h-2.79v2.06h2.79v1.46h-4.28v-7.83Zm-8.07,0h1.41l3.37,5.15v-5.15h1.48v7.83h-1.43l-3.36-5.14v5.14h-1.48v-7.83Zm-1.57,1.07l-1.11.97c-.39-.54-.78-.81-1.18-.81-.2,0-.36.05-.48.16-.13.11-.19.22-.19.35s.04.26.13.37c.12.16.49.49,1.1,1,.57.48.91.78,1.04.9.3.31.52.6.64.87.13.28.19.58.19.91,0,.64-.22,1.17-.67,1.59-.44.42-1.02.63-1.74.63-.56,0-1.04-.14-1.46-.41-.41-.27-.77-.7-1.07-1.29l1.26-.76c.38.69.81,1.04,1.3,1.04.26,0,.47-.07.65-.22.17-.15.26-.32.26-.52,0-.18-.07-.35-.2-.53-.13-.18-.42-.45-.87-.81-.85-.69-1.41-1.23-1.65-1.61-.25-.38-.37-.75-.37-1.13,0-.54.21-1.01.62-1.4.41-.39.92-.58,1.53-.58.39,0,.76.09,1.12.27.35.18.74.51,1.15.99Zm-8.92-1.07h1.48v6.41h2.19v1.42h-3.67v-7.83Zm-3.15,0h1.48v7.83h-1.48v-7.83Zm-4.53,3.06h.48c.38,0,.64-.03.78-.08.15-.06.26-.14.35-.27.08-.12.13-.27.13-.45,0-.3-.12-.53-.35-.66-.17-.1-.49-.16-.96-.16h-.42v1.61Zm-1.48-3.06h1.58c.86,0,1.47.08,1.85.24.38.16.68.41.9.77.22.35.33.78.33,1.27,0,.55-.14,1-.43,1.36-.29.36-.67.61-1.17.76-.29.08-.81.12-1.58.12v3.32h-1.48v-7.83Z"/>
    <rect class="cls-8" x="49.32" y="48.45" width="24.5" height=".48"/>
    <path class="cls-8" d="m81.7,52.83h.16c.16,0,.27-.02.33-.06.06-.04.09-.11.09-.21,0-.06-.02-.11-.04-.15-.03-.04-.07-.07-.12-.09-.05-.02-.14-.03-.28-.03h-.14v.54Zm-.49-1.02h.53c.29,0,.49.03.62.08.12.05.22.14.3.26.07.12.11.26.11.42,0,.17-.04.32-.12.43-.08.12-.21.2-.37.26l.62,1.16h-.54l-.59-1.11h-.05v1.11h-.49v-2.61Zm-1.92,0h1.42v.49h-.93v.47h.93v.48h-.93v.69h.93v.49h-1.42v-2.61Zm-2.69,0h.47l1.12,1.72v-1.72h.49v2.61h-.47l-1.12-1.71v1.71h-.49v-2.61Zm-.52.36l-.37.32c-.13-.18-.26-.27-.39-.27-.07,0-.12.02-.16.05-.04.04-.06.07-.06.12s.01.09.04.12c.04.05.16.16.37.33.19.16.3.26.35.3.1.1.17.2.21.29.04.09.06.19.06.3,0,.21-.07.39-.22.53-.15.14-.34.21-.58.21-.19,0-.35-.05-.49-.14-.14-.09-.26-.23-.35-.43l.42-.25c.13.23.27.35.43.35.09,0,.16-.02.22-.07.06-.05.09-.11.09-.17,0-.06-.02-.12-.07-.18-.04-.06-.14-.15-.29-.27-.28-.23-.47-.41-.55-.54-.08-.13-.12-.25-.12-.38,0-.18.07-.34.21-.47.14-.13.31-.19.51-.19.13,0,.25.03.37.09.12.06.25.17.38.33Zm-2.97-.36h.49v2.14h.73v.47h-1.22v-2.61Zm-1.05,0h.49v2.61h-.49v-2.61Zm-1.51,1.02h.16c.13,0,.21,0,.26-.03.05-.02.09-.05.12-.09.03-.04.04-.09.04-.15,0-.1-.04-.17-.12-.22-.06-.03-.16-.05-.32-.05h-.14v.54Zm-.49-1.02h.53c.29,0,.49.03.62.08.13.05.23.14.3.26.07.12.11.26.11.42,0,.18-.05.33-.14.45-.1.12-.22.2-.39.25-.1.03-.27.04-.53.04v1.11h-.49v-2.61Zm-2.9,0h1.42v.49h-.93v.47h.93v.48h-.93v.69h.93v.49h-1.42v-2.61Zm-1.61,0h.49v2.14h.73v.47h-1.22v-2.61Zm-2.44,0h.53l.48.94.48-.94h.53l-.77,1.48v1.13h-.5v-1.13l-.77-1.48Zm-1.59,0h1.44v.49h-.48v2.12h-.51v-2.12h-.46v-.49Zm-.27.36l-.37.32c-.13-.18-.26-.27-.39-.27-.07,0-.12.02-.16.05-.04.04-.06.07-.06.12s.01.09.04.12c.04.05.16.16.37.33.19.16.3.26.35.3.1.1.17.2.21.29.04.09.06.19.06.3,0,.21-.07.39-.22.53-.15.14-.34.21-.58.21-.19,0-.35-.05-.49-.14-.14-.09-.26-.23-.35-.43l.42-.25c.13.23.27.35.43.35.09,0,.16-.02.22-.07.06-.05.09-.11.09-.17,0-.06-.02-.12-.07-.18-.04-.06-.14-.15-.29-.27-.28-.23-.47-.41-.55-.54-.08-.13-.12-.25-.12-.38,0-.18.07-.34.21-.47.14-.13.31-.19.51-.19.13,0,.25.03.37.09.12.06.25.17.38.33Zm-5.07-.36h.47l1.12,1.72v-1.72h.49v2.61h-.48l-1.12-1.71v1.71h-.49v-2.61Zm-1.64.69l-.35.9h.71l-.35-.9Zm-.25-.69h.5l1,2.61h-.52l-.2-.54h-1.07l-.21.54h-.52l1.01-2.61Zm-2.68,0h1.42v.49h-.93v.47h.93v.48h-.93v.69h.93v.49h-1.42v-2.61Zm-1.55,1.02h.16c.13,0,.21,0,.26-.03.05-.02.09-.05.12-.09.03-.04.04-.09.04-.15,0-.1-.04-.17-.12-.22-.06-.03-.16-.05-.32-.05h-.14v.54Zm-.49-1.02h.53c.29,0,.49.03.62.08.13.05.23.14.3.26.07.12.11.26.11.42,0,.18-.05.33-.14.45-.1.12-.22.2-.39.25-.1.03-.27.04-.53.04v1.11h-.49v-2.61Zm-1.83.42c-.24,0-.44.08-.61.25-.16.17-.25.38-.25.64,0,.29.1.52.31.68.16.13.34.2.55.2.23,0,.43-.09.6-.26.17-.17.25-.38.25-.63s-.08-.46-.25-.63c-.17-.17-.37-.26-.61-.26Zm0-.49c.37,0,.69.13.95.4.27.27.4.59.4.98s-.13.7-.39.97c-.26.26-.58.4-.95.4s-.72-.14-.98-.41c-.26-.27-.39-.59-.39-.96,0-.25.06-.48.18-.69.12-.21.29-.37.5-.5.21-.12.44-.18.68-.18Zm-2.81,1.09h.16c.16,0,.27-.02.33-.06.06-.04.09-.11.09-.21,0-.06-.02-.11-.04-.15-.03-.04-.07-.07-.12-.09-.05-.02-.14-.03-.28-.03h-.14v.54Zm-.49-1.02h.53c.29,0,.49.03.62.08.12.05.22.14.3.26.07.12.11.26.11.42,0,.17-.04.32-.12.43-.08.12-.21.2-.37.26l.62,1.16h-.54l-.59-1.11h-.05v1.11h-.49v-2.61Zm-2.38,0h.5v1.69c0,.15.01.25.04.31.03.06.07.11.13.14.06.04.13.05.21.05.09,0,.16-.02.23-.06.06-.04.11-.09.13-.15.02-.06.04-.18.04-.36v-1.63h.5v1.56c0,.26-.01.44-.04.55-.03.1-.09.2-.17.29-.08.09-.18.16-.29.21-.11.05-.23.07-.38.07-.19,0-.35-.04-.49-.13-.14-.09-.24-.2-.3-.33-.06-.13-.09-.35-.09-.66v-1.56Zm-1.87,0h1.42v.49h-.93v.47h.93v.48h-.93v.69h.93v.49h-1.42v-2.61Z"/>
  </g>
</svg>