<?xml version="1.0" encoding="UTF-8"?>
<svg id="Page_1" data-name="Page 1" xmlns="http://www.w3.org/2000/svg" viewBox="0 0 177.53999 139.96">
  <defs>
    <style>
      .cls-1 {
        fill: #1d1d1b;
        fill-rule: evenodd;
        stroke-width: 0px;
      }
    </style>
  </defs>
  <g id="_Слой_1" data-name=" Слой 1">
    <g>
      <polygon class="cls-1" points="39.43 112.7 42.39 111.2 42.39 118.9 45.34 120.19001 42.39 121.68 39.43 120.34999 39.43 112.7 39.43 112.7"/>
      <polygon class="cls-1" points="35 119.73999 37.95 121.12 37.95 128.76 35 130.25 35 119.73999 35 119.73999"/>
      <polygon class="cls-1" points="42.4 123.65 45.34 125.03 42.38 126.53 39.44 125.19001 42.4 123.65 42.4 123.65"/>
      <polygon class="cls-1" points="42.39 111.22001 45.34 112.56 45.34 125.03 48.3 123.54 48.3 111.04 45.34 109.71 42.39 111.22001 42.39 111.22001"/>
      <polygon class="cls-1" points="29.07 115.06 32.03 116.43 32.03 124.09 35 125.47001 32.03 126.97001 29.07 125.59 29.07 115.06 29.07 115.06"/>
      <polygon class="cls-1" points="15.77 124.65 12.81 123.25 12.81 138.58001 15.77 139.96 15.77 124.65 15.77 124.65"/>
      <polygon class="cls-1" points="24.64 135.46 21.68 134.01999 21.68 126.46 18.72 127.96 18.72 135.51999 21.68 136.9 21.68 136.9 21.74 136.92 24.64 135.46 24.64 135.46"/>
      <polygon class="cls-1" points="21.65 123.51 21.65 121.68 18.69 123.17 18.69 125.01 24.64 127.83001 24.64 135.46 27.59 133.96 27.59 126.34 21.65 123.51 21.65 123.51"/>
      <polygon class="cls-1" points="21.68 121.69001 24.64 123.12 24.64 124.97001 27.59 123.45 27.59 121.51999 24.64 120.18 21.68 121.69001 21.68 121.69001"/>
      <path class="cls-1" d="m0,74.06l7.88-3.98v43.28001s7.91,3.69,7.87,3.67l-7.87,3.98v15.28l-7.88-3.67999v-58.55h0Z"/>
      <path class="cls-1" d="m134.92999,56.83l7.88,3.66,7.87-3.98-7.87-3.66v-22.94s7.91-4.08,7.87-4.06l-7.87-3.6v-7.66l-7.88,3.68v38.56h0Z"/>
      <path class="cls-1" d="m81.3,91.56l-7.88-3.67v-22.98s-7.87-3.66-7.83-3.64l7.83-3.98h0l7.88,3.68v30.59h0Z"/>
      <path class="cls-1" d="m153.89,3.98l7.88-3.98v50.88l-7.88-3.68V3.98h0Z"/>
      <path class="cls-1" d="m177.53999,50.58l-7.88-3.67v-22.98s-7.87-3.66-7.83-3.64l7.83-3.98h0l7.88,3.68v30.59h0Z"/>
      <path class="cls-1" d="m52.48,121.42v-7.66c19.8-10,97.37001-49.2,117.17-59.21l7.88,3.66c-17.49001,8.84-107.56,54.35999-125.05,63.2h0v.00999Z"/>
      <path class="cls-1" d="m110.13,77.04l-7.88-3.67v-22.98s-7.87-3.66-7.83-3.64l7.83-3.98h0l7.88,3.68v30.59h0Z"/>
      <path class="cls-1" d="m52.48,98.48999l-7.88,3.98v-22.98s-7.89-3.67-7.86-3.65l7.86-3.97,7.88,3.68v22.94h0Z"/>
      <path class="cls-1" d="m28.83,79.84l7.88-3.98v22.93s7.92,3.72,7.88,3.7l-7.88,3.96001h0l-7.88-3.67999v-22.94h0v.00999Z"/>
      <path class="cls-1" d="m86.48,50.72l7.88-3.98v22.93s7.92,3.72,7.88,3.7l-7.88,3.96h0l-7.88-3.68v-22.94h0v.01001Z"/>
      <path class="cls-1" d="m57.65,57.58l7.88,3.68v30.64l-7.88-3.68v-30.64h0Z"/>
      <path class="cls-1" d="m115.3,36.16c4.86-2.46,10.19-5.12,15.03-7.59,0,14.87,0-7.26,0,7.6l-7.14999,3.6v30.43l-7.88-3.68v-30.36h0Z"/>
      <path class="cls-1" d="m23.65,69.77v43.28001l-7.88,3.99001v-43.28l-15.77-7.35,7.88-3.99,15.76,7.35h0l.01-.00002Z"/>
      <g>
        <path class="cls-1" d="m102.24001,30.07l-7.88,3.98v-11.18c4.75999.61,7.88,1.62,7.88,2.76v4.44h0ZM82.41.55999h2.96001v2.08c1.77-.07,2.97-.4,4.32001-2.08h1.75c-4.78,4.25,1.8,11.52-6.07001,12.29v9.43c2.13.03,4.14999.13,6.00999.28v12.99l-14.98,7.56v-20.55c1.86-.15,3.89-.25,6.01-.28v-9.43c-7.88-.77-1.29-8.04-6.07-12.29h1.75c1.36,1.67,2.55,2.01,4.32,2.08V.55999h0Zm0,3.5v7.37c-.85-.09-2.07-.32-2.49-1.13-.33-.62-.31-1.63-.29-2.31.04-1.26.14-2.49,0-3.75-.03-.25-.06-.5-.11-.74.91.39,1.91.52,2.89.56h0Zm2.96001,7.37v-7.37c.98-.04,1.98-.16,2.89-.56-.07001.35-.11.71-.14,1.08-.09,1.19,0,2.35.03999,3.54.00999.65.02,1.59-.28999,2.18-.42999.81-1.64,1.03-2.49001,1.13h-.00999Zm-11.95,33.19l-4.47,2.25v-23.19c1.22-.31,2.73-.59,4.46-.81l-1.28-4.81c-1.97-.11-3.8-1.42-4.33-3.39l-1.45-5.39,9.21-2.47,1.45,5.39c.52,1.95-.39,4-2.03,5.08l1.4,5.27c-1.04.09-2.03.19-2.96.31v21.75h0v.01Zm-5.96,3.01l-1.88.95-.05-22.94c0-.54.69-1.05,1.92-1.5v23.49h.01ZM101.06001,9.10999c-.39-.65-3.42999-1.61-4.06-1.78s-3.75999-.86-4.41-.49l-1.03,10.06,1.23.33h.03999l-1.44,5.33c1.05.09,2.05.19,2.98.31l1.32001-4.86,1.17999.32,4.2-9.23h0l-.00998.01Zm-6.35001,4.49l1.56-5.07.75.2-1.19,5.17.19.05,2.56-4.8.75.2-3.3,7.24c-.96001-.26-1.92-.52-2.88-.78l.81-7.9.75999.2-.2,5.44.19.05h.00002Zm-26.55-3.27l1.03,3.84c.47,1.74,2.29,2.8,4.03,2.33,1.74-.47,2.8-2.29,2.33-4.03l-1.03-3.84-6.36,1.7h0Z"/>
        <path class="cls-1" d="m88.56999,5.25h-9.41v1.47h9.41v-1.47h0Zm0,2.95h-9.41v1.47h9.41v-1.47h0Z"/>
      </g>
    </g>
  </g>
</svg>