<?xml version="1.0" encoding="UTF-8"?>
<svg id="Page_1" data-name="Page 1" xmlns="http://www.w3.org/2000/svg" viewBox="0 0 262 211">
  <defs>
    <style>
      .cls-1 {
        fill: #1d1d1b;
        fill-rule: evenodd;
      }
    </style>
  </defs>
  <g id="_Слой_1" data-name="Слой 1">
    <g>
      <polygon class="cls-1" points="82.4 149.72 85.36 148.22 85.36 155.92 88.31 157.21 85.36 158.7 82.4 157.37 82.4 149.72 82.4 149.72"/>
      <polygon class="cls-1" points="77.97 156.76 80.92 158.14 80.92 165.78 77.97 167.27 77.97 156.76 77.97 156.76"/>
      <polygon class="cls-1" points="85.37 160.67 88.31 162.05 85.35 163.55 82.41 162.21 85.37 160.67 85.37 160.67"/>
      <polygon class="cls-1" points="85.36 148.24 88.31 149.58 88.31 162.05 91.27 160.56 91.27 148.06 88.31 146.73 85.36 148.24 85.36 148.24"/>
      <polygon class="cls-1" points="72.04 152.08 75 153.45 75 161.11 77.97 162.49 75 163.99 72.04 162.61 72.04 152.08 72.04 152.08"/>
      <polygon class="cls-1" points="58.74 161.67 55.78 160.27 55.78 175.6 58.74 176.98 58.74 161.67 58.74 161.67"/>
      <polygon class="cls-1" points="67.61 172.48 64.65 171.04 64.65 163.48 61.69 164.98 61.69 172.54 64.65 173.92 64.65 173.92 64.71 173.94 67.61 172.48 67.61 172.48"/>
      <polygon class="cls-1" points="64.62 160.53 64.62 158.7 61.66 160.19 61.66 162.03 67.61 164.85 67.61 172.48 70.56 170.98 70.56 163.36 64.62 160.53 64.62 160.53"/>
      <polygon class="cls-1" points="64.65 158.71 67.61 160.14 67.61 161.99 70.56 160.47 70.56 158.54 67.61 157.2 64.65 158.71 64.65 158.71"/>
      <path class="cls-1" d="m42.97,111.08l7.88-3.98v43.28s7.91,3.69,7.87,3.67l-7.87,3.98v15.28s-7.88-3.68-7.88-3.68v-58.55h0Z"/>
      <path class="cls-1" d="m177.9,93.85l7.88,3.66,7.87-3.98-7.87-3.66v-22.94s7.91-4.08,7.87-4.06l-7.87-3.6v-7.66s-7.88,3.68-7.88,3.68v38.56h0Z"/>
      <path class="cls-1" d="m124.27,128.58l-7.88-3.67v-22.98s-7.87-3.66-7.83-3.64l7.83-3.98h0s7.88,3.68,7.88,3.68v30.59h0Z"/>
      <path class="cls-1" d="m196.86,41l7.88-3.98v50.88l-7.88-3.68v-43.22h0Z"/>
      <path class="cls-1" d="m220.51,87.6l-7.88-3.67v-22.98s-7.87-3.66-7.83-3.64l7.83-3.98h0s7.88,3.68,7.88,3.68v30.59h0Z"/>
      <path class="cls-1" d="m95.45,158.44v-7.66c19.8-10,97.37-49.2,117.17-59.21l7.88,3.66c-17.49,8.84-107.56,54.36-125.05,63.2h0Z"/>
      <path class="cls-1" d="m153.1,114.06l-7.88-3.67v-22.98s-7.87-3.66-7.83-3.64l7.83-3.98h0s7.88,3.68,7.88,3.68v30.59h0Z"/>
      <path class="cls-1" d="m95.45,135.51l-7.88,3.98v-22.98s-7.89-3.67-7.86-3.65l7.86-3.97,7.88,3.68v22.94h0Z"/>
      <path class="cls-1" d="m71.8,116.86l7.88-3.98v22.93s7.92,3.72,7.88,3.7l-7.88,3.96h0s-7.88-3.68-7.88-3.68v-22.94h0Z"/>
      <path class="cls-1" d="m129.45,87.74l7.88-3.98v22.93s7.92,3.72,7.88,3.7l-7.88,3.96h0s-7.88-3.68-7.88-3.68v-22.94h0Z"/>
      <path class="cls-1" d="m100.62,94.6l7.88,3.68v30.64l-7.88-3.68v-30.64h0Z"/>
      <path class="cls-1" d="m158.27,73.18c4.86-2.46,10.19-5.12,15.03-7.59,0,14.87,0-7.26,0,7.6l-7.15,3.6v30.43l-7.88-3.68v-30.36h0Z"/>
      <path class="cls-1" d="m66.62,106.79v43.28l-7.88,3.99v-43.28l-15.77-7.35,7.88-3.99,15.76,7.35h0Z"/>
      <g>
        <path class="cls-1" d="m145.21,67.09l-7.88,3.98v-11.18c4.76.61,7.88,1.62,7.88,2.76v4.44h0Zm-19.83-29.51h2.96v2.08c1.77-.07,2.97-.4,4.32-2.08h1.75c-4.78,4.25,1.8,11.52-6.07,12.29v9.43c2.13.03,4.15.13,6.01.28v12.99l-14.98,7.56v-20.55c1.86-.15,3.89-.25,6.01-.28v-9.43c-7.88-.77-1.29-8.04-6.07-12.29h1.75c1.36,1.67,2.55,2.01,4.32,2.08v-2.08h0Zm0,3.5v7.37c-.85-.09-2.07-.32-2.49-1.13-.33-.62-.31-1.63-.29-2.31.04-1.26.14-2.49,0-3.75-.03-.25-.06-.5-.11-.74.91.39,1.91.52,2.89.56h0Zm2.96,7.37v-7.37c.98-.04,1.98-.16,2.89-.56-.07.35-.11.71-.14,1.08-.09,1.19,0,2.35.04,3.54.01.65.02,1.59-.29,2.18-.43.81-1.64,1.03-2.49,1.13h0Zm-11.95,33.19l-4.47,2.25v-23.19c1.22-.31,2.73-.59,4.46-.81l-1.28-4.81c-1.97-.11-3.8-1.42-4.33-3.39l-1.45-5.39,9.21-2.47,1.45,5.39c.52,1.95-.39,4-2.03,5.08l1.4,5.27c-1.04.09-2.03.19-2.96.31v21.75h0Zm-5.96,3.01l-1.88.95-.05-22.94c0-.54.69-1.05,1.92-1.5v23.49h0Zm33.6-38.52c-.39-.65-3.43-1.61-4.06-1.78-.63-.17-3.76-.86-4.41-.49l-1.03,10.06,1.23.33h.04s-1.44,5.33-1.44,5.33c1.05.09,2.05.19,2.98.31l1.32-4.86,1.18.32,4.2-9.23h0Zm-6.35,4.49l1.56-5.07.75.2-1.19,5.17.19.05,2.56-4.8.75.2-3.3,7.24c-.96-.26-1.92-.52-2.88-.78l.81-7.9.76.2-.2,5.44.19.05h0Zm-26.55-3.27l1.03,3.84c.47,1.74,2.29,2.8,4.03,2.33,1.74-.47,2.8-2.29,2.33-4.03l-1.03-3.84-6.36,1.7h0Z"/>
        <path class="cls-1" d="m131.54,42.27h-9.41v1.47h9.41v-1.47h0Zm0,2.95h-9.41v1.47h9.41v-1.47h0Z"/>
      </g>
    </g>
  </g>
</svg>