<?xml version="1.0" standalone="no"?>
<!DOCTYPE svg PUBLIC "-//W3C//DTD SVG 20010904//EN"
 "http://www.w3.org/TR/2001/REC-SVG-20010904/DTD/svg10.dtd">
<svg version="1.0" xmlns="http://www.w3.org/2000/svg"
 width="603.000000pt" height="680.000000pt" viewBox="0 0 603.000000 680.000000"
 preserveAspectRatio="xMidYMid meet">

<g transform="translate(0.000000,680.000000) scale(0.100000,-0.100000)"
fill="#000000" stroke="none">
<path d="M2810 6434 c-167 -20 -221 -28 -329 -50 -377 -77 -826 -280 -1135
-513 -544 -412 -932 -1026 -1072 -1701 -44 -212 -57 -371 -51 -635 5 -250 17
-356 63 -564 254 -1143 1189 -2010 2364 -2191 97 -16 177 -20 360 -20 287 0
442 12 603 44 1211 246 2111 1208 2272 2431 22 166 22 579 0 735 -61 435 -210
838 -439 1184 -457 691 -1178 1149 -1986 1261 -110 16 -568 29 -650 19z m385
-219 c118 -43 261 -99 765 -298 390 -154 572 -225 789 -309 l215 -83 231 -540
c384 -897 566 -1328 572 -1355 7 -35 -718 -1812 -756 -1852 -16 -16 -330 -151
-976 -418 -176 -73 -387 -160 -470 -195 -82 -34 -225 -92 -317 -130 l-167 -67
-133 60 c-109 49 -1112 480 -1643 705 l-130 55 -238 634 c-331 883 -426 1151
-429 1213 -1 34 98 288 404 1030 116 281 239 579 274 664 35 85 67 157 71 161
5 4 71 33 148 65 419 173 1460 617 1522 648 39 20 74 41 78 47 12 20 67 10
190 -35z m-275 -5270 c0 -16 -26 -55 -37 -55 -17 0 -17 11 3 38 13 19 34 30
34 17z"/>
<path d="M2850 5934 c-177 -24 -235 -36 -377 -75 -372 -103 -704 -295 -989
-572 -459 -444 -710 -1035 -708 -1667 1 -367 75 -690 233 -1015 312 -639 912
-1110 1601 -1258 159 -35 202 -39 420 -44 338 -8 548 21 819 113 341 116 623
289 889 548 186 182 327 371 441 590 200 387 276 760 251 1224 -9 175 -15 215
-61 402 -71 297 -221 607 -417 865 -68 88 -294 317 -392 395 -230 183 -488
317 -795 413 -269 84 -651 118 -915 81z m164 -229 c3 -8 10 -83 16 -167 6 -84
13 -168 16 -186 7 -47 -9 -62 -67 -62 -47 0 -48 1 -53 33 -7 43 -26 302 -26
355 l0 42 54 0 c38 0 55 -4 60 -15z m439 -9 c107 -18 176 -50 197 -91 20 -41
18 -114 -6 -160 -29 -56 -74 -77 -159 -73 l-70 3 -10 -40 c-15 -61 -18 -63
-75 -51 -60 12 -59 3 -25 192 14 76 28 155 31 174 8 47 12 60 21 60 4 0 48 -7
96 -14z m-702 -28 c16 -29 -10 -50 -85 -67 -54 -12 -56 -14 -56 -45 0 -18 6
-40 13 -49 11 -15 18 -16 70 -6 49 10 60 10 68 -2 20 -31 5 -52 -45 -65 -27
-7 -53 -17 -59 -23 -11 -11 -1 -77 13 -86 6 -3 36 -1 67 6 92 18 98 17 101
-12 4 -34 -9 -43 -98 -63 -41 -9 -94 -22 -118 -28 -25 -6 -46 -7 -51 -2 -7 8
-35 115 -86 327 -9 38 -14 71 -12 74 7 7 218 60 244 62 14 0 27 -8 34 -21z
m1243 -133 c93 -28 156 -97 156 -169 0 -45 -63 -185 -103 -228 -29 -32 -96
-52 -140 -43 -49 10 -136 66 -158 101 -25 41 -25 116 2 174 40 88 81 142 123
161 50 23 58 23 120 4z m-1680 -36 c40 -31 56 -71 57 -141 l0 -63 60 -48 c32
-27 59 -52 59 -57 0 -9 -80 -50 -98 -50 -6 0 -32 18 -57 40 -48 41 -95 53 -95
24 0 -8 9 -36 21 -61 11 -25 18 -51 15 -59 -7 -19 -71 -48 -89 -41 -16 6 -187
335 -187 359 0 7 48 37 107 66 119 58 164 65 207 31z m2094 -227 l43 -37 -21
-85 c-11 -47 -25 -101 -30 -120 -17 -61 6 -61 58 0 26 30 59 68 74 85 l27 30
37 -37 c35 -34 37 -39 23 -55 -193 -226 -253 -293 -263 -293 -7 0 -28 17 -48
38 l-37 37 20 90 c28 128 33 165 23 165 -5 0 -44 -37 -86 -82 l-76 -83 -36 34
c-21 21 -32 39 -28 47 20 35 259 304 271 304 3 0 25 -17 49 -38z m-2546 1 c10
-9 18 -21 18 -27 0 -6 -25 -34 -57 -62 l-56 -50 35 -39 35 -39 48 42 c45 40
49 41 67 26 26 -24 23 -35 -22 -79 -22 -21 -40 -44 -40 -51 0 -18 40 -64 57
-64 8 0 38 20 66 45 29 25 56 45 62 45 5 0 18 -11 27 -24 16 -22 16 -24 -10
-49 -56 -53 -178 -147 -189 -147 -7 0 -24 12 -37 28 -181 209 -228 269 -224
288 3 12 186 174 197 174 3 0 13 -7 23 -17z m1503 -261 c301 -68 564 -223 757
-445 170 -197 269 -402 323 -665 21 -102 20 -406 -1 -510 -53 -267 -170 -499
-344 -685 -270 -288 -582 -431 -987 -453 -94 -5 -143 -2 -243 15 -187 30 -282
62 -450 148 -382 195 -651 570 -726 1010 -21 120 -14 398 11 513 122 553 551
968 1115 1080 130 26 412 22 545 -8z m-1728 -169 c50 -35 103 -77 117 -94 35
-41 34 -97 -2 -168 -36 -72 -87 -113 -149 -118 -46 -4 -54 -1 -173 77 -69 44
-131 86 -137 93 -10 10 -7 21 13 55 14 23 31 42 39 42 8 0 69 -36 136 -80 139
-91 168 -98 192 -49 8 17 12 40 9 51 -3 11 -59 56 -133 105 -71 48 -129 90
-129 96 0 11 40 69 54 79 13 9 54 -13 163 -89z m3233 -88 c37 -57 41 -67 29
-83 -47 -60 -273 -302 -282 -302 -14 0 -57 72 -57 93 0 8 7 20 15 27 22 18 18
50 -10 92 -24 36 -28 37 -68 32 -41 -6 -43 -5 -66 36 -13 23 -19 45 -15 49 5
4 54 22 109 39 55 18 134 43 175 56 116 38 121 37 170 -39z m212 -440 c54
-153 45 -195 -50 -237 -43 -20 -92 -18 -119 4 -9 7 -32 -7 -84 -53 -76 -68
-76 -68 -99 2 l-13 40 51 52 c78 79 66 114 -29 83 -27 -9 -53 -14 -58 -12 -4
3 -16 24 -26 47 -18 39 -18 42 -2 54 10 7 89 38 175 68 86 30 164 57 172 60
35 13 45 0 82 -108z m-3534 49 c28 -3 52 -9 52 -13 0 -20 -32 -96 -43 -103 -7
-4 -19 -5 -28 -3 -24 8 -51 -19 -65 -65 -12 -42 -12 -44 17 -71 29 -27 30 -29
18 -70 -7 -22 -18 -43 -25 -46 -9 -3 -283 165 -361 221 -1 1 9 38 23 82 l24
81 168 -4 c92 -2 191 -6 220 -9z m-339 -424 c19 -5 47 -21 62 -36 l28 -26 73
23 c40 13 79 25 86 27 8 2 12 -11 12 -47 0 -57 -13 -71 -86 -90 -47 -13 -67
-32 -62 -58 2 -14 16 -19 63 -23 l60 -5 0 -60 c0 -54 -2 -60 -20 -58 -11 2
-90 8 -175 14 -85 6 -168 14 -185 18 l-30 8 2 107 c2 127 19 171 73 198 40 21
53 22 99 8z m3972 -75 c4 -38 8 -113 10 -165 l4 -95 -30 0 c-28 0 -30 3 -36
43 -3 23 -10 47 -16 53 -6 6 -60 6 -167 -1 -87 -6 -164 -9 -172 -6 -10 4 -14
23 -14 61 l0 55 47 0 c82 0 277 22 291 32 6 6 12 30 12 55 0 44 0 44 33 41
l32 -3 6 -70z m-176 -402 c83 -14 156 -27 163 -29 9 -3 11 -17 6 -56 -4 -29
-8 -55 -10 -57 -2 -2 -40 2 -85 9 -66 9 -83 9 -90 -1 -13 -22 -22 -110 -11
-121 5 -5 39 -15 76 -23 36 -8 70 -16 75 -19 4 -3 3 -28 -3 -56 l-10 -52 -46
5 c-61 6 -275 44 -328 58 l-43 12 7 46 c4 25 8 49 11 54 6 10 36 9 88 -5 60
-16 74 -6 92 62 17 67 9 75 -76 86 -70 8 -83 17 -70 50 5 14 9 37 9 51 0 29
-11 30 245 -14z m-3596 14 c38 -19 63 -71 82 -171 28 -145 30 -139 -48 -155
-38 -7 -93 -17 -123 -22 -30 -5 -91 -15 -135 -23 -54 -10 -81 -12 -86 -5 -13
21 -41 231 -35 261 13 66 78 96 135 62 l31 -18 27 31 c16 17 37 36 48 42 27
14 75 13 104 -2z m4 -494 c32 -16 32 -16 11 -76 -22 -64 -30 -69 -92 -48 -29
10 -54 20 -57 22 -5 6 19 101 30 118 8 14 67 5 108 -16z m3492 -78 c10 -30 15
-60 12 -68 -6 -16 -103 -51 -122 -43 -7 2 -15 15 -18 28 -3 13 -10 40 -15 61
-10 36 -9 39 16 49 29 11 80 25 99 27 6 1 19 -24 28 -54z m-3206 -125 c26 -47
24 -60 -15 -80 -16 -8 -46 -25 -67 -38 -33 -20 -37 -25 -25 -39 10 -13 28 -15
104 -10 l91 6 21 -38 c12 -21 22 -43 22 -49 0 -5 -37 -13 -82 -16 -133 -11
-132 -11 -188 -86 -67 -91 -77 -98 -96 -74 -51 65 -51 57 5 140 28 42 51 80
51 85 0 23 -32 17 -86 -15 -32 -20 -65 -36 -71 -36 -13 0 -53 70 -53 92 0 12
333 198 356 198 6 0 21 -18 33 -40z m2968 -47 c13 -19 10 -25 -37 -78 -29 -34
-50 -68 -50 -81 0 -43 132 -164 178 -164 23 0 82 46 82 64 0 7 -13 25 -30 41
-27 26 -32 27 -55 15 -23 -12 -28 -12 -47 8 l-22 21 41 48 c22 26 47 49 54 51
17 3 169 -124 169 -141 0 -7 -17 -41 -37 -76 -62 -105 -154 -157 -233 -131
-60 20 -163 111 -190 167 -22 47 -22 49 -5 102 13 41 32 70 80 119 35 35 69
62 76 60 7 -2 19 -13 26 -25z m-2677 -177 c6 -8 10 -25 8 -38 -2 -19 -9 -23
-38 -23 -29 0 -36 4 -38 23 -4 28 14 52 38 52 10 0 23 -7 30 -14z m-72 -91
c20 -9 58 -36 83 -61 l45 -44 24 25 c37 39 80 28 80 -21 0 -29 -22 -46 -57
-42 -27 3 -28 1 -33 -52 -5 -60 -24 -92 -87 -151 -112 -106 -182 -114 -274
-32 -62 57 -79 89 -79 151 0 53 10 72 84 151 40 43 124 91 159 91 10 0 34 -7
55 -15z m2530 -55 c46 -28 72 -76 72 -131 l0 -46 71 -44 c40 -24 72 -49 72
-54 0 -6 -19 -23 -42 -40 l-42 -30 -32 19 c-104 62 -105 62 -123 44 -16 -16
-15 -20 20 -67 20 -28 36 -55 36 -59 0 -9 -90 -75 -95 -70 -36 44 -212 293
-224 317 -15 32 -15 34 4 48 11 7 41 29 67 48 62 46 136 85 162 85 12 0 36 -9
54 -20z m-2259 -185 c60 -30 64 -43 55 -180 -9 -141 5 -139 87 13 18 34 38 62
44 62 20 0 75 -40 75 -55 0 -22 -181 -343 -198 -350 -8 -3 -34 6 -58 20 l-44
26 0 142 c-1 140 -1 142 -19 120 -11 -13 -38 -56 -60 -97 -22 -41 -45 -77 -50
-80 -11 -7 -48 7 -74 28 -17 13 -14 22 58 153 109 196 125 223 131 223 2 0 26
-11 53 -25z m1931 -34 c19 -36 11 -48 -50 -75 -33 -14 -63 -33 -67 -42 -7 -19
22 -84 37 -84 6 0 28 9 50 20 49 25 67 25 80 1 17 -32 12 -38 -45 -65 -33 -15
-55 -31 -55 -41 0 -22 28 -75 41 -75 5 0 36 11 69 25 33 14 66 25 75 25 17 0
32 -47 19 -60 -5 -4 -61 -31 -124 -58 -107 -47 -116 -49 -131 -34 -9 10 -40
73 -70 142 -29 69 -63 145 -75 170 -17 34 -20 48 -11 57 11 11 223 110 239
112 4 1 12 -8 18 -18z m-1506 -166 c20 -8 36 -21 36 -29 0 -7 -12 -45 -26 -82
-14 -38 -41 -112 -59 -166 -37 -106 -51 -138 -64 -138 -5 0 -29 9 -54 20 l-46
21 25 72 c14 40 44 122 65 182 22 61 42 116 44 123 6 16 35 15 79 -3z m1200
-36 c28 -33 32 -65 15 -114 -11 -30 -10 -34 26 -67 31 -28 38 -41 39 -75 1
-55 -19 -89 -68 -113 -47 -22 -247 -63 -257 -52 -11 11 -81 404 -74 411 12 11
169 39 232 40 57 1 63 -1 87 -30z m-824 -48 c60 -19 65 -25 50 -60 -7 -17 -14
-31 -15 -31 -1 0 -22 7 -45 15 -58 20 -92 19 -123 -5 -33 -26 -48 -72 -50
-160 -2 -61 1 -74 17 -86 27 -19 92 -18 100 2 12 32 6 63 -15 75 -17 9 -20 17
-15 42 3 17 8 33 11 35 2 2 33 -1 70 -9 58 -11 65 -15 65 -36 0 -39 -21 -167
-31 -185 -13 -24 -105 -33 -171 -18 -143 34 -183 116 -143 285 16 67 37 100
86 133 30 21 42 23 104 19 39 -3 86 -10 105 -16z m408 -28 l3 -33 -58 0 c-114
0 -122 -45 -19 -98 75 -39 95 -64 103 -132 5 -48 4 -51 -33 -89 -36 -35 -46
-40 -108 -46 -38 -4 -86 -4 -105 1 -33 8 -36 12 -36 44 0 30 3 34 20 31 53
-11 118 -3 132 15 12 17 9 56 -6 62 -4 1 -36 19 -70 40 -67 39 -91 74 -91 129
1 80 56 115 180 111 l85 -3 3 -32z"/>
<path d="M3462 5603 c-16 -32 -35 -131 -29 -147 10 -26 56 -19 88 13 38 38 40
91 4 126 -28 29 -51 32 -63 8z"/>
<path d="M3920 5420 c-28 -39 -80 -155 -80 -178 0 -10 11 -29 24 -41 50 -47
100 -2 151 134 26 69 24 100 -8 109 -44 12 -66 6 -87 -24z"/>
<path d="M2163 5420 c-31 -13 -29 -37 7 -94 34 -53 52 -56 82 -15 18 24 18 29
5 62 -14 32 -43 58 -64 56 -4 0 -18 -4 -30 -9z"/>
<path d="M2890 4901 c0 -9 30 -24 36 -18 2 1 -6 8 -16 15 -11 7 -20 8 -20 3z"/>
<path d="M2984 4895 c11 -8 24 -15 30 -15 5 0 1 7 -10 15 -10 8 -23 14 -29 14
-5 0 -1 -6 9 -14z"/>
<path d="M2941 4866 c2 -2 15 -9 29 -15 24 -11 24 -11 6 3 -16 13 -49 24 -35
12z"/>
<path d="M3180 4860 c-9 -6 -10 -10 -3 -10 6 0 15 5 18 10 8 12 4 12 -15 0z"/>
<path d="M3353 4804 c-24 -14 -43 -27 -43 -30 0 -6 67 33 85 48 17 15 1 8 -42
-18z"/>
<path d="M2610 4800 c14 -11 32 -20 40 -20 17 0 -13 23 -45 33 -16 6 -15 3 5
-13z"/>
<path d="M3450 4810 c-9 -6 -10 -10 -3 -10 6 0 15 5 18 10 8 12 4 12 -15 0z"/>
<path d="M2802 4794 c10 -10 20 -16 22 -13 3 3 -5 11 -17 18 -21 13 -21 12 -5
-5z"/>
<path d="M2545 4786 c40 -27 226 -136 233 -136 4 0 18 -9 32 -20 14 -11 32
-20 40 -20 10 0 9 4 -5 14 -38 25 -303 176 -311 176 -5 0 0 -6 11 -14z"/>
<path d="M3585 4786 c-11 -7 -40 -24 -65 -38 -25 -14 -74 -43 -110 -65 -36
-21 -74 -43 -85 -47 -11 -5 -15 -10 -9 -12 9 -4 70 28 164 86 8 5 43 25 78 45
34 20 62 38 62 40 0 9 -16 5 -35 -9z"/>
<path d="M2900 4786 c0 -2 7 -7 16 -10 8 -3 12 -2 9 4 -6 10 -25 14 -25 6z"/>
<path d="M3470 4769 l-25 -20 33 16 c17 8 32 18 32 20 0 10 -16 4 -40 -16z"/>
<path d="M2500 4759 c26 -18 70 -40 70 -35 0 6 -66 46 -76 46 -5 0 -2 -5 6
-11z"/>
<path d="M2671 4766 c18 -15 101 -58 96 -49 -7 11 -82 53 -94 53 -3 0 -4 -2
-2 -4z"/>
<path d="M3268 4754 c-16 -8 -28 -17 -28 -19 0 -10 16 -4 40 15 30 23 25 25
-12 4z"/>
<path d="M3615 4751 c-16 -10 -90 -53 -163 -96 -73 -42 -131 -79 -128 -82 3
-3 28 9 56 26 28 17 52 31 54 31 3 0 41 23 85 50 44 28 83 50 87 50 3 0 17 9
31 20 32 25 19 25 -22 1z"/>
<path d="M3052 4711 c-12 -21 -22 -41 -22 -45 0 -3 25 -6 55 -6 l55 0 -22 45
c-12 25 -27 45 -33 45 -6 0 -21 -17 -33 -39z"/>
<path d="M2451 4736 c15 -14 142 -86 145 -83 6 6 -124 87 -138 87 -6 0 -9 -2
-7 -4z"/>
<path d="M3396 4725 c-11 -8 -16 -15 -10 -15 5 0 18 7 28 15 11 8 16 15 10 15
-5 0 -18 -7 -28 -15z"/>
<path d="M3650 4715 c-19 -13 -40 -24 -46 -24 -6 -1 -18 -9 -25 -18 -13 -16
93 37 116 58 19 18 -10 8 -45 -16z"/>
<path d="M2580 4715 c0 -2 10 -10 23 -16 20 -11 21 -11 8 4 -13 16 -31 23 -31
12z"/>
<path d="M3649 4664 c-52 -31 -127 -76 -167 -100 -40 -24 -76 -44 -81 -44 -5
0 -14 -7 -21 -15 -19 -23 3 -18 44 10 20 14 96 59 169 102 119 69 171 103 156
103 -3 0 -48 -25 -100 -56z"/>
<path d="M2790 4702 c0 -5 11 -14 25 -20 14 -6 25 -10 25 -8 0 2 -11 11 -25
20 -14 9 -25 13 -25 8z"/>
<path d="M3340 4695 c-17 -10 -20 -14 -9 -15 9 0 22 7 29 15 15 18 12 18 -20
0z"/>
<path d="M2367 4689 c7 -7 15 -10 18 -7 3 3 -2 9 -12 12 -14 6 -15 5 -6 -5z"/>
<path d="M2644 4675 c11 -8 24 -15 30 -15 5 0 1 7 -10 15 -10 8 -23 14 -29 14
-5 0 -1 -6 9 -14z"/>
<path d="M2857 4659 c7 -7 15 -10 18 -7 3 3 -2 9 -12 12 -14 6 -15 5 -6 -5z"/>
<path d="M3285 4660 c-3 -6 1 -7 9 -4 18 7 21 14 7 14 -6 0 -13 -4 -16 -10z"/>
<path d="M2690 4652 c0 -5 11 -14 25 -20 14 -6 25 -10 25 -8 0 2 -11 11 -25
20 -14 9 -25 13 -25 8z"/>
<path d="M3500 4627 c-30 -17 -66 -38 -80 -45 -14 -7 -36 -22 -50 -33 -17 -14
-9 -12 25 7 114 62 179 104 163 104 -2 0 -28 -15 -58 -33z"/>
<path d="M3805 4651 c-6 -5 -28 -19 -50 -31 -134 -73 -335 -193 -331 -197 6
-6 76 31 168 88 43 27 80 49 82 49 7 0 156 92 156 96 0 7 -16 4 -25 -5z"/>
<path d="M2610 4645 c0 -5 48 -34 162 -99 28 -16 48 -23 44 -17 -4 6 -28 23
-54 37 -26 15 -68 40 -93 56 -45 27 -59 33 -59 23z"/>
<path d="M2460 4636 c0 -3 9 -10 20 -16 11 -6 20 -8 20 -6 0 3 -9 10 -20 16
-11 6 -20 8 -20 6z"/>
<path d="M3855 4626 c-11 -6 -55 -32 -98 -58 -43 -27 -80 -48 -83 -48 -2 0
-33 -17 -67 -38 -34 -22 -83 -51 -109 -66 -26 -14 -50 -31 -54 -37 -8 -14 16
-1 136 71 52 31 140 83 195 115 111 64 110 64 104 68 -2 2 -13 -1 -24 -7z"/>
<path d="M2977 4593 c-13 -21 -39 -68 -57 -103 -36 -72 -162 -292 -221 -385
-60 -97 -105 -193 -93 -205 5 -5 93 -33 194 -61 102 -28 205 -57 230 -65 62
-19 69 -19 191 21 60 19 115 35 122 35 17 0 217 66 225 74 7 8 -29 78 -113
221 -39 66 -91 155 -116 199 -24 43 -56 99 -71 125 -15 25 -37 64 -48 86 -44
84 -49 88 -138 93 l-80 4 -25 -39z m213 -177 c0 -7 -10 -20 -22 -28 -21 -14
-23 -23 -29 -209 -5 -153 -9 -201 -23 -226 -25 -49 -60 -67 -128 -68 -55 0
-62 3 -89 33 -46 51 -35 102 21 102 15 0 35 -9 44 -19 17 -18 17 -22 3 -50
-15 -31 -15 -31 13 -31 19 0 33 7 40 19 6 12 10 103 10 225 l0 206 -25 16
c-50 33 -30 41 98 43 68 1 87 -2 87 -13z"/>
<path d="M2750 4616 c0 -7 72 -47 77 -43 2 3 -12 14 -32 26 -36 21 -45 24 -45
17z"/>
<path d="M3875 4584 c-11 -9 -40 -27 -65 -40 -25 -13 -61 -34 -80 -45 -19 -12
-78 -46 -130 -76 -137 -80 -142 -84 -136 -90 2 -3 60 28 128 68 67 41 138 83
158 94 70 40 160 97 160 101 0 8 -15 3 -35 -12z"/>
<path d="M2210 4580 c0 -5 5 -10 11 -10 5 0 7 5 4 10 -3 6 -8 10 -11 10 -2 0
-4 -4 -4 -10z"/>
<path d="M2290 4587 c0 -7 72 -48 76 -44 2 2 -14 14 -36 26 -22 12 -40 20 -40
18z"/>
<path d="M2637 4529 c7 -7 15 -10 18 -7 3 3 -2 9 -12 12 -14 6 -15 5 -6 -5z"/>
<path d="M3960 4530 c-20 -13 -285 -169 -330 -195 -90 -51 -120 -71 -120 -77
0 -4 29 10 65 32 36 22 67 40 70 40 2 0 59 33 127 73 68 40 142 84 166 97 23
13 42 27 42 32 0 10 -1 9 -20 -2z"/>
<path d="M2305 4520 c3 -5 11 -10 16 -10 6 0 7 5 4 10 -3 6 -11 10 -16 10 -6
0 -7 -4 -4 -10z"/>
<path d="M2160 4508 c17 -17 447 -274 476 -284 45 -16 -14 22 -236 151 -271
159 -259 152 -240 133z"/>
<path d="M2410 4516 c0 -8 101 -68 106 -63 3 3 -6 11 -19 19 -13 7 -39 21 -56
31 -17 10 -31 16 -31 13z"/>
<path d="M2352 4494 c10 -10 20 -15 24 -12 3 4 -5 12 -18 18 -22 12 -22 12 -6
-6z"/>
<path d="M3975 4486 c-61 -40 -397 -236 -404 -236 -4 0 -16 -10 -27 -21 l-19
-22 34 17 c18 10 57 33 87 52 29 19 56 34 59 34 4 0 92 52 185 110 8 5 29 16
45 25 38 20 83 55 70 54 -5 0 -19 -6 -30 -13z"/>
<path d="M2120 4475 c0 -4 223 -139 320 -193 25 -14 57 -33 72 -43 14 -11 29
-19 33 -19 4 0 20 -9 37 -21 16 -12 32 -19 35 -16 6 6 -59 49 -137 90 -30 16
-62 36 -71 43 -8 8 -18 14 -21 14 -3 0 -35 18 -69 40 -35 22 -71 43 -79 47 -8
4 -36 19 -61 35 -45 27 -59 33 -59 23z"/>
<path d="M2402 4464 c10 -10 20 -15 24 -12 3 4 -5 12 -18 18 -22 12 -22 12 -6
-6z"/>
<path d="M2310 4466 c0 -2 7 -7 16 -10 8 -3 12 -2 9 4 -6 10 -25 14 -25 6z"/>
<path d="M3975 4431 c-33 -21 -134 -81 -225 -134 -91 -53 -174 -103 -185 -112
-27 -21 101 47 198 107 43 26 80 48 82 48 6 0 189 110 199 120 21 21 -11 7
-69 -29z"/>
<path d="M2440 4447 c0 -6 78 -57 85 -57 4 0 3 5 0 10 -7 11 -85 53 -85 47z"/>
<path d="M2545 4435 c11 -9 29 -21 40 -26 l20 -10 -20 16 c-11 9 -29 21 -40
26 l-20 10 20 -16z"/>
<path d="M2104 4431 c3 -4 49 -34 103 -65 116 -67 110 -64 193 -114 36 -22 88
-52 115 -67 28 -15 56 -32 63 -38 7 -5 15 -8 18 -5 2 3 -66 47 -153 98 -87 51
-198 117 -247 146 -90 55 -101 61 -92 45z"/>
<path d="M4035 4410 c-3 -6 1 -7 9 -4 18 7 21 14 7 14 -6 0 -13 -4 -16 -10z"/>
<path d="M2631 4383 c32 -24 67 -43 76 -43 9 0 -84 60 -93 60 -4 0 4 -8 17
-17z"/>
<path d="M4050 4369 c-25 -16 -39 -29 -32 -29 7 0 27 10 45 22 18 13 34 24 36
25 2 2 2 5 0 7 -2 2 -24 -9 -49 -25z"/>
<path d="M2545 4381 c4 -7 17 -17 28 -22 12 -5 40 -20 62 -34 39 -24 69 -34
50 -17 -21 19 -147 84 -140 73z"/>
<path d="M2050 4356 c25 -24 130 -77 130 -66 0 5 -5 10 -10 10 -6 0 -36 16
-66 35 -56 36 -79 45 -54 21z"/>
<path d="M4095 4340 c-3 -6 1 -7 9 -4 18 7 21 14 7 14 -6 0 -13 -4 -16 -10z"/>
<path d="M2010 4326 c0 -3 26 -19 58 -37 31 -18 140 -82 241 -141 218 -129
225 -133 217 -120 -5 9 -36 28 -236 145 -47 28 -101 60 -120 72 -50 31 -148
85 -154 85 -4 0 -6 -2 -6 -4z"/>
<path d="M3925 4294 c-33 -19 -67 -37 -75 -41 -8 -3 -22 -12 -30 -18 -8 -7
-37 -25 -65 -40 -43 -23 -91 -51 -145 -84 -8 -5 -13 -12 -10 -14 3 -3 57 26
120 65 63 38 124 74 135 79 11 5 40 22 65 38 25 16 51 30 58 30 6 1 12 6 12
11 0 13 5 15 -65 -26z"/>
<path d="M3985 4279 c-44 -27 -113 -68 -153 -91 -41 -24 -97 -56 -126 -73 -28
-16 -60 -36 -71 -43 -19 -12 -19 -13 4 -6 14 3 48 22 77 40 29 19 56 34 59 34
3 0 41 23 85 50 44 28 84 50 90 50 5 0 10 3 10 8 0 4 17 15 38 25 41 20 92 57
77 56 -5 0 -46 -23 -90 -50z"/>
<path d="M4130 4309 c-8 -4 -52 -31 -97 -59 -46 -27 -85 -50 -88 -50 -4 0 -69
-39 -130 -78 -11 -6 -27 -15 -35 -19 -8 -4 -42 -24 -75 -46 -81 -53 -41 -38
59 22 45 26 149 88 231 136 83 49 152 90 154 92 10 8 -5 10 -19 2z"/>
<path d="M1980 4292 c0 -5 26 -23 58 -41 31 -17 86 -49 122 -71 36 -22 72 -43
80 -46 8 -4 39 -22 68 -41 29 -18 54 -33 57 -33 3 0 34 -18 70 -40 36 -22 65
-36 65 -32 0 7 -53 41 -140 89 -19 11 -102 60 -185 110 -184 110 -195 116
-195 105z"/>
<path d="M2620 4286 c0 -3 9 -10 20 -16 11 -6 20 -8 20 -6 0 3 -9 10 -20 16
-11 6 -20 8 -20 6z"/>
<path d="M2190 4277 c0 -5 68 -47 76 -47 16 0 -1 18 -28 30 -18 7 -36 15 -40
18 -5 2 -8 1 -8 -1z"/>
<path d="M1975 4240 c3 -5 8 -10 11 -10 2 0 4 5 4 10 0 6 -5 10 -11 10 -5 0
-7 -4 -4 -10z"/>
<path d="M4105 4240 c-3 -6 1 -7 9 -4 18 7 21 14 7 14 -6 0 -13 -4 -16 -10z"/>
<path d="M2285 4220 c9 -14 65 -42 65 -33 0 5 -16 16 -36 26 -19 9 -33 13 -29
7z"/>
<path d="M4148 4214 c-16 -8 -28 -17 -28 -19 0 -10 16 -4 40 15 30 23 25 25
-12 4z"/>
<path d="M1940 4213 c1 -4 66 -46 146 -93 80 -47 169 -99 197 -115 29 -17 79
-45 112 -63 103 -56 27 -4 -125 85 -80 47 -183 108 -230 136 -106 63 -100 60
-100 50z"/>
<path d="M2030 4210 c35 -24 54 -31 30 -11 -14 11 -29 21 -35 21 -5 0 -3 -5 5
-10z"/>
<path d="M3686 4205 c-11 -8 -15 -15 -9 -15 6 0 16 7 23 15 16 19 11 19 -14 0z"/>
<path d="M4145 4159 c-33 -21 -56 -39 -51 -39 10 0 126 69 126 76 0 9 -18 1
-75 -37z"/>
<path d="M4084 4175 c-10 -8 -14 -15 -8 -15 6 0 17 7 24 15 16 19 9 19 -16 0z"/>
<path d="M1920 4173 c0 -5 19 -20 43 -33 23 -13 135 -79 250 -147 114 -68 213
-123 220 -123 6 0 -5 10 -25 23 -57 34 -149 88 -188 110 -50 28 -251 147 -277
165 -13 8 -23 10 -23 5z"/>
<path d="M2361 4177 c2 -1 13 -9 24 -17 19 -14 19 -14 6 3 -7 9 -18 17 -24 17
-6 0 -8 -1 -6 -3z"/>
<path d="M3590 4150 c-9 -6 -10 -10 -3 -10 6 0 15 5 18 10 8 12 4 12 -15 0z"/>
<path d="M4040 4150 c-9 -6 -10 -10 -3 -10 6 0 15 5 18 10 8 12 4 12 -15 0z"/>
<path d="M4210 4146 c-14 -7 -95 -55 -180 -105 -85 -51 -186 -111 -223 -133
-37 -22 -66 -43 -64 -45 3 -2 56 26 118 63 63 37 152 89 199 117 47 27 105 61
130 75 54 31 55 31 49 37 -3 2 -16 -2 -29 -9z"/>
<path d="M2145 4140 c3 -5 8 -10 11 -10 2 0 4 5 4 10 0 6 -5 10 -11 10 -5 0
-7 -4 -4 -10z"/>
<path d="M2410 4146 c0 -6 87 -56 96 -56 4 0 -13 14 -39 30 -47 29 -57 34 -57
26z"/>
<path d="M3935 4140 c-3 -6 1 -7 9 -4 18 7 21 14 7 14 -6 0 -13 -4 -16 -10z"/>
<path d="M1905 4125 c11 -9 63 -42 115 -73 52 -30 139 -82 194 -115 143 -86
187 -109 193 -104 2 3 -24 22 -59 41 -35 20 -70 41 -78 46 -109 70 -398 232
-365 205z"/>
<path d="M2531 4127 c2 -1 13 -9 24 -17 19 -14 19 -14 6 3 -7 9 -18 17 -24 17
-6 0 -8 -1 -6 -3z"/>
<path d="M3905 4074 c-49 -31 -108 -65 -130 -77 -22 -12 -49 -30 -60 -41 -19
-17 -18 -17 15 1 19 10 54 31 78 46 24 15 53 32 65 37 12 6 31 16 41 22 11 7
40 25 65 41 25 15 38 27 30 26 -7 0 -54 -25 -104 -55z"/>
<path d="M4040 4098 c-19 -12 -44 -26 -55 -33 -53 -30 -95 -57 -95 -62 0 -5
-4 -7 98 52 46 27 85 52 88 57 7 11 5 10 -36 -14z"/>
<path d="M2210 4106 c0 -3 9 -10 20 -16 11 -6 20 -8 20 -6 0 3 -9 10 -20 16
-11 6 -20 8 -20 6z"/>
<path d="M3870 4100 c-9 -6 -10 -10 -3 -10 6 0 15 5 18 10 8 12 4 12 -15 0z"/>
<path d="M1880 4085 c0 -2 15 -12 33 -20 l32 -16 -24 21 c-22 19 -41 26 -41
15z"/>
<path d="M4195 4080 c-3 -5 -1 -10 4 -10 6 0 11 5 11 10 0 6 -2 10 -4 10 -3 0
-8 -4 -11 -10z"/>
<path d="M2267 4069 c7 -7 15 -10 18 -7 3 3 -2 9 -12 12 -14 6 -15 5 -6 -5z"/>
<path d="M2520 4076 c0 -2 7 -6 15 -10 8 -3 15 -1 15 4 0 6 -7 10 -15 10 -8 0
-15 -2 -15 -4z"/>
<path d="M4230 4050 c-14 -11 -29 -20 -35 -20 -11 -1 -64 -39 -53 -40 8 0 128
71 128 76 0 9 -17 2 -40 -16z"/>
<path d="M1870 4041 c0 -4 10 -13 23 -19 12 -6 45 -25 72 -42 28 -16 57 -33
65 -37 8 -4 38 -21 65 -38 28 -17 57 -35 65 -39 8 -4 24 -12 35 -19 114 -70
166 -99 170 -95 4 3 -214 136 -310 189 -16 9 -65 37 -107 62 -43 25 -78 42
-78 38z"/>
<path d="M1950 4045 c0 -2 15 -12 33 -20 l32 -16 -25 20 c-24 20 -40 26 -40
16z"/>
<path d="M2324 4035 c11 -8 24 -15 30 -15 5 0 1 7 -10 15 -10 8 -23 14 -29 14
-5 0 -1 -6 9 -14z"/>
<path d="M3744 4024 c-18 -14 -18 -15 4 -4 12 6 22 13 22 15 0 8 -5 6 -26 -11z"/>
<path d="M4258 4014 c-16 -8 -28 -17 -28 -19 0 -10 16 -4 40 15 30 23 25 25
-12 4z"/>
<path d="M2020 4006 c0 -3 9 -10 20 -16 11 -6 20 -8 20 -6 0 3 -9 10 -20 16
-11 6 -20 8 -20 6z"/>
<path d="M1851 3996 c2 -2 54 -33 114 -69 61 -35 168 -99 239 -141 71 -42 134
-76 140 -76 12 1 -13 17 -234 146 -80 47 -167 99 -193 115 -40 24 -82 40 -66
25z"/>
<path d="M3820 3970 c-25 -17 -60 -38 -78 -47 -18 -8 -31 -18 -28 -21 5 -4
166 86 166 94 0 10 -18 2 -60 -26z"/>
<path d="M3951 3890 c-90 -55 -166 -102 -170 -106 -6 -7 64 30 173 91 47 26
165 101 175 110 19 20 -37 -11 -178 -95z"/>
<path d="M4120 3933 c-52 -31 -113 -66 -135 -78 -72 -41 -159 -95 -170 -107
-5 -6 6 -2 25 9 291 167 399 233 380 233 -3 0 -48 -26 -100 -57z"/>
<path d="M2070 3976 c0 -3 14 -12 30 -21 17 -9 30 -13 30 -11 0 3 -13 12 -30
21 -16 9 -30 13 -30 11z"/>
<path d="M4200 3930 c-47 -28 -92 -55 -100 -60 -18 -11 -113 -67 -155 -90 -72
-41 -129 -80 -115 -79 8 0 27 8 42 17 36 23 98 60 268 160 150 88 171 102 155
102 -6 0 -48 -23 -95 -50z"/>
<path d="M3965 3945 c-22 -13 -37 -25 -33 -25 9 0 78 41 78 46 0 6 -3 5 -45
-21z"/>
<path d="M1840 3953 c0 -11 464 -283 482 -283 7 0 -59 43 -147 95 -88 51 -165
98 -171 102 -5 4 -26 17 -45 27 -19 11 -53 30 -76 43 -24 14 -43 21 -43 16z"/>
<path d="M2140 3936 c0 -7 71 -49 75 -44 2 2 -14 14 -36 26 -21 12 -39 21 -39
18z"/>
<path d="M4280 3920 c0 -5 7 -7 15 -4 8 4 15 8 15 10 0 2 -7 4 -15 4 -8 0 -15
-4 -15 -10z"/>
<path d="M1865 3880 c3 -5 11 -10 16 -10 6 0 7 5 4 10 -3 6 -11 10 -16 10 -6
0 -7 -4 -4 -10z"/>
<path d="M4294 3874 c-18 -14 -18 -15 4 -4 12 6 22 13 22 15 0 8 -5 6 -26 -11z"/>
<path d="M2250 3865 c33 -19 49 -19 24 0 -10 8 -26 14 -34 14 -9 0 -4 -6 10
-14z"/>
<path d="M3485 3850 c-60 -16 -171 -46 -245 -68 l-135 -39 -5 -254 c-3 -140
-3 -290 -2 -335 l4 -81 81 -7 c45 -3 222 -6 394 -6 l312 0 29 43 c16 23 37 57
46 74 16 32 16 35 -8 80 -33 64 -327 575 -346 601 l-15 21 -110 -29z m74 -222
c48 -11 50 -13 56 -51 9 -53 -8 -69 -30 -28 -19 38 -69 71 -108 71 -35 0 -77
-40 -77 -74 0 -19 12 -34 42 -56 22 -16 46 -30 52 -30 7 0 37 -16 68 -35 92
-58 107 -123 44 -190 -45 -47 -102 -62 -174 -46 -32 7 -72 16 -89 18 l-33 5 0
62 c1 65 4 65 42 -2 49 -89 188 -88 188 1 0 34 -42 78 -92 96 -112 42 -141 76
-135 160 3 45 9 58 33 77 43 35 123 43 213 22z"/>
<path d="M2493 3753 c-38 -65 -125 -216 -193 -337 l-123 -219 18 -34 c10 -19
32 -50 49 -69 l31 -36 396 7 396 8 7 135 c14 306 5 517 -24 532 -33 18 -429
130 -458 130 -28 0 -35 -9 -99 -117z m434 -159 c24 -18 28 -29 31 -74 2 -30 1
-64 -3 -77 -9 -36 -58 -60 -141 -68 l-75 -7 3 -81 c3 -76 5 -82 26 -85 12 -2
22 -8 22 -13 0 -5 -47 -9 -106 -9 l-107 0 25 23 c22 21 26 35 32 119 4 53 4
130 0 173 -6 65 -11 81 -33 102 l-26 24 162 -3 c146 -3 164 -5 190 -24z"/>
<path d="M2744 3577 c-3 -8 -4 -47 -2 -88 3 -62 6 -74 21 -77 34 -7 67 8 82
38 21 40 19 77 -6 111 -16 22 -28 29 -55 29 -20 0 -37 -6 -40 -13z"/>
<path d="M1821 3856 c2 -2 74 -45 159 -95 85 -50 162 -95 170 -101 33 -21 103
-60 107 -60 3 0 0 7 -7 15 -7 8 -16 15 -20 15 -4 0 -95 52 -201 115 -107 63
-198 115 -203 115 -5 0 -7 -2 -5 -4z"/>
<path d="M4225 3839 c-16 -10 -23 -19 -15 -19 8 0 26 9 40 20 32 25 14 25 -25
-1z"/>
<path d="M4268 3810 c-27 -17 -50 -30 -53 -30 -2 0 -28 -15 -58 -32 -66 -41
-74 -46 -170 -103 -44 -26 -77 -49 -74 -51 2 -3 38 15 78 39 41 24 134 79 207
122 72 42 132 79 132 81 0 9 -18 2 -62 -26z"/>
<path d="M1976 3815 c10 -8 23 -15 28 -15 6 0 1 7 -10 15 -10 8 -23 15 -28 15
-6 0 -1 -7 10 -15z"/>
<path d="M1855 3779 c149 -90 397 -230 400 -227 4 3 -145 97 -170 107 -5 2
-28 15 -50 29 -22 14 -78 47 -124 74 -91 52 -138 67 -56 17z"/>
<path d="M2360 3806 c0 -2 7 -7 16 -10 8 -3 12 -2 9 4 -6 10 -25 14 -25 6z"/>
<path d="M4130 3780 c-25 -16 -42 -30 -39 -30 9 0 99 51 99 56 0 9 -17 1 -60
-26z"/>
<path d="M2032 3784 c10 -10 20 -15 24 -12 3 4 -5 12 -18 18 -22 12 -22 12 -6
-6z"/>
<path d="M4210 3724 c-58 -35 -147 -88 -197 -117 -96 -54 -127 -83 -48 -45 25
12 45 26 45 30 0 4 5 8 10 8 6 0 36 16 66 35 30 19 57 35 59 35 3 0 42 23 86
50 44 28 85 50 90 50 5 0 9 5 9 10 0 16 -10 12 -120 -56z"/>
<path d="M1800 3763 c0 -5 53 -39 118 -76 64 -38 124 -72 132 -78 46 -28 171
-99 176 -99 17 0 -21 26 -138 95 -73 43 -165 98 -204 122 -73 44 -84 49 -84
36z"/>
<path d="M2070 3762 c0 -6 9 -12 20 -15 11 -3 20 -3 20 -1 0 2 -9 8 -20 14
-11 6 -20 7 -20 2z"/>
<path d="M4035 3725 c-22 -13 -35 -24 -30 -25 12 0 75 37 75 45 0 8 -2 7 -45
-20z"/>
<path d="M2127 3729 c7 -7 15 -10 18 -7 3 3 -2 9 -12 12 -14 6 -15 5 -6 -5z"/>
<path d="M4290 3717 c-19 -13 -56 -35 -81 -49 -25 -15 -83 -49 -128 -77 -46
-28 -85 -51 -88 -51 -3 0 -16 -9 -30 -20 -47 -37 -14 -21 134 67 82 47 169 98
196 112 26 14 47 29 47 33 0 13 -14 9 -50 -15z"/>
<path d="M3920 3710 c-13 -8 -12 -10 3 -10 9 0 17 5 17 10 0 12 -1 12 -20 0z"/>
<path d="M1806 3700 c8 -8 59 -38 327 -192 38 -22 71 -37 73 -35 5 5 -108 75
-246 152 -25 14 -65 39 -90 55 -43 27 -85 41 -64 20z"/>
<path d="M2170 3700 c8 -5 20 -10 25 -10 6 0 3 5 -5 10 -8 5 -19 10 -25 10 -5
0 -3 -5 5 -10z"/>
<path d="M3917 3658 c-26 -17 -46 -32 -44 -35 5 -4 107 56 107 63 0 9 -17 1
-63 -28z"/>
<path d="M4288 3663 c-10 -2 -18 -9 -18 -14 0 -6 8 -5 20 1 11 6 20 13 20 15
0 3 -1 4 -2 4 -2 -1 -11 -3 -20 -6z"/>
<path d="M1800 3656 c0 -2 7 -7 16 -10 8 -3 12 -2 9 4 -6 10 -25 14 -25 6z"/>
<path d="M4157 3533 c-98 -58 -175 -108 -173 -111 3 -2 35 14 71 37 36 22 68
41 71 41 2 0 39 21 82 48 42 26 89 53 105 61 15 8 27 18 27 23 0 4 -1 8 -2 8
-2 0 -83 -48 -181 -107z"/>
<path d="M1860 3627 c0 -3 12 -12 26 -22 15 -9 23 -12 20 -6 -7 11 -46 35 -46
28z"/>
<path d="M4185 3600 c-16 -11 -25 -20 -20 -20 10 0 64 39 55 40 -3 0 -18 -9
-35 -20z"/>
<path d="M1804 3601 c5 -8 124 -79 246 -149 19 -10 52 -29 73 -42 21 -12 40
-20 43 -17 3 2 -32 26 -78 52 -46 27 -84 52 -86 57 -2 4 -8 8 -14 8 -11 0
-122 65 -149 87 -18 15 -43 18 -35 4z"/>
<path d="M1920 3586 c0 -2 7 -7 16 -10 8 -3 12 -2 9 4 -6 10 -25 14 -25 6z"/>
<path d="M4306 3567 c-11 -7 -40 -24 -65 -39 -25 -16 -40 -28 -34 -28 12 0
133 69 133 76 0 7 -15 3 -34 -9z"/>
<path d="M1800 3554 c0 -5 73 -52 162 -104 177 -104 184 -107 175 -93 -4 6
-71 48 -149 94 -79 45 -153 89 -165 97 -13 8 -23 10 -23 6z"/>
<path d="M1970 3556 c0 -2 7 -7 16 -10 8 -3 12 -2 9 4 -6 10 -25 14 -25 6z"/>
<path d="M4285 3500 c-27 -16 -57 -33 -65 -37 -8 -4 -38 -22 -67 -40 -29 -18
-57 -33 -63 -33 -5 0 -10 -4 -10 -8 0 -5 -12 -14 -26 -21 -15 -6 -24 -14 -21
-17 5 -5 93 43 177 96 8 5 41 24 73 42 31 18 57 36 57 40 0 11 2 11 -55 -22z"/>
<path d="M1804 3492 c6 -10 299 -182 310 -182 4 0 1 7 -8 15 -8 8 -17 15 -21
15 -3 0 -34 17 -68 38 -192 116 -225 134 -213 114z"/>
<path d="M4155 3477 c-80 -46 -116 -69 -112 -73 4 -4 130 67 146 82 9 8 -15 2
-34 -9z"/>
<path d="M2145 3450 c17 -11 35 -20 40 -20 6 0 -3 9 -20 20 -16 11 -34 20 -40
20 -5 0 4 -9 20 -20z"/>
<path d="M1830 3428 c8 -9 42 -31 75 -49 33 -18 56 -27 50 -22 -5 6 -27 21
-48 32 -21 12 -50 29 -65 38 -23 14 -25 14 -12 1z"/>
<path d="M4275 3390 c-3 -5 -2 -10 4 -10 5 0 13 5 16 10 3 6 2 10 -4 10 -5 0
-13 -4 -16 -10z"/>
<path d="M1820 3385 c0 -2 24 -19 53 -38 77 -49 77 -49 77 -39 0 5 -15 17 -32
26 -18 9 -48 26 -65 36 -18 11 -33 18 -33 15z"/>
<path d="M4230 3360 c-9 -6 -10 -10 -3 -10 6 0 15 5 18 10 8 12 4 12 -15 0z"/>
<path d="M1970 3346 c0 -3 9 -10 20 -16 11 -6 20 -8 20 -6 0 3 -9 10 -20 16
-11 6 -20 8 -20 6z"/>
<path d="M4205 3295 c-49 -30 -94 -56 -100 -58 -5 -2 -8 -7 -5 -10 5 -5 189
99 206 116 20 20 -20 1 -101 -48z"/>
<path d="M4160 3319 l-25 -20 35 17 c43 20 47 24 29 24 -8 0 -25 -10 -39 -21z"/>
<path d="M1840 3316 c0 -6 117 -79 169 -105 72 -37 38 -8 -62 52 -87 53 -107
63 -107 53z"/>
<path d="M2020 3316 c0 -3 9 -10 20 -16 11 -6 20 -8 20 -6 0 3 -9 10 -20 16
-11 6 -20 8 -20 6z"/>
<path d="M1970 3292 c0 -5 8 -12 18 -15 9 -3 33 -16 52 -28 19 -12 28 -16 20
-7 -24 24 -90 61 -90 50z"/>
<path d="M4094 3278 l-19 -21 28 18 c28 18 33 25 19 25 -5 0 -17 -10 -28 -22z"/>
<path d="M4212 3246 c-77 -45 -104 -66 -85 -66 6 0 16 7 23 15 7 8 16 15 21
15 4 0 32 14 61 32 66 40 62 37 57 42 -2 2 -37 -15 -77 -38z"/>
<path d="M1865 3240 c3 -5 10 -10 15 -10 5 0 39 -19 75 -41 36 -23 68 -39 71
-37 5 5 -25 25 -113 74 -45 26 -58 29 -48 14z"/>
<path d="M4220 3195 c-19 -13 -41 -24 -47 -24 -11 -1 -20 -21 -9 -21 9 0 96
52 101 61 10 15 -8 9 -45 -16z"/>
<path d="M1890 3182 c0 -12 109 -77 116 -69 3 2 -10 13 -29 24 -19 11 -46 28
-60 38 -15 9 -27 13 -27 7z"/>
<path d="M3963 3124 c-13 -20 -23 -40 -23 -45 0 -5 25 -9 55 -9 30 0 55 3 55
6 0 15 -45 84 -54 84 -6 -1 -21 -17 -33 -36z"/>
<path d="M2137 3121 c-26 -44 -22 -51 28 -51 51 0 55 8 24 51 -25 36 -30 36
-52 0z"/>
<path d="M1945 3090 c3 -5 11 -10 16 -10 6 0 7 5 4 10 -3 6 -11 10 -16 10 -6
0 -7 -4 -4 -10z"/>
<path d="M4190 3064 c0 -8 5 -12 10 -9 6 3 10 10 10 16 0 5 -4 9 -10 9 -5 0
-10 -7 -10 -16z"/>
<path d="M2010 2946 c0 -8 5 -18 10 -21 6 -3 10 1 10 9 0 8 -4 18 -10 21 -5 3
-10 -1 -10 -9z"/>
<path d="M2164 2855 c0 -55 1 -76 3 -47 2 29 2 74 0 100 -2 26 -3 2 -3 -53z"/>
<path d="M2207 2943 c-11 -10 -8 -221 3 -228 6 -4 10 37 10 114 0 67 -1 121
-3 121 -2 0 -7 -3 -10 -7z"/>
<path d="M2250 2811 c0 -87 4 -141 10 -141 6 0 10 51 10 134 0 79 -4 137 -10
141 -6 4 -10 -43 -10 -134z"/>
<path d="M2296 2935 c-3 -9 -6 -32 -6 -52 0 -48 24 -38 28 12 4 41 -11 68 -22
40z"/>
<path d="M2387 2943 c-11 -10 -8 -61 3 -68 6 -4 10 10 10 34 0 42 -2 46 -13
34z"/>
<path d="M2430 2906 c0 -25 5 -46 10 -46 6 0 10 18 10 39 0 22 -4 43 -10 46
-6 4 -10 -12 -10 -39z"/>
<path d="M2480 2891 c0 -34 4 -61 10 -61 6 0 10 24 10 54 0 30 -4 58 -10 61
-6 4 -10 -17 -10 -54z"/>
<path d="M2533 2885 c0 -38 2 -53 4 -32 2 20 2 52 0 70 -2 17 -4 1 -4 -38z"/>
<path d="M2583 2915 c0 -22 2 -30 4 -17 2 12 2 30 0 40 -3 9 -5 -1 -4 -23z"/>
<path d="M2629 2948 c-8 -22 -7 -68 1 -73 6 -4 10 9 10 34 0 23 -2 41 -5 41
-3 0 -5 -1 -6 -2z"/>
<path d="M2719 2906 c-1 -25 -2 -51 -3 -58 -1 -6 4 -13 9 -15 14 -4 19 104 5
112 -6 4 -11 -12 -11 -39z"/>
<path d="M2769 2918 c0 -18 -2 -43 -3 -55 -1 -12 1 -28 5 -34 4 -7 9 16 11 50
1 35 0 65 -4 68 -5 2 -8 -11 -9 -29z"/>
<path d="M2860 2916 c0 -20 5 -36 10 -36 6 0 10 13 10 29 0 17 -4 33 -10 36
-6 4 -10 -8 -10 -29z"/>
<path d="M2910 2917 c0 -20 4 -37 10 -37 5 0 7 14 3 33 -8 45 -13 47 -13 4z"/>
<path d="M3053 2890 c0 -36 2 -50 4 -32 2 17 2 47 0 65 -2 17 -4 3 -4 -33z"/>
<path d="M3097 2943 c-11 -10 -8 -113 3 -113 6 0 10 27 10 60 0 61 -1 65 -13
53z"/>
<path d="M3193 2890 c0 -36 2 -50 4 -32 2 17 2 47 0 65 -2 17 -4 3 -4 -33z"/>
<path d="M3243 2890 c0 -36 2 -50 4 -32 2 17 2 47 0 65 -2 17 -4 3 -4 -33z"/>
<path d="M3291 2885 l2 -70 10 58 c7 42 6 62 -2 70 -8 8 -11 -7 -10 -58z"/>
<path d="M3343 2890 c0 -36 2 -50 4 -32 2 17 2 47 0 65 -2 17 -4 3 -4 -33z"/>
<path d="M3393 2890 c0 -36 2 -50 4 -32 2 17 2 47 0 65 -2 17 -4 3 -4 -33z"/>
<path d="M3438 2913 c-2 -20 -1 -52 3 -72 5 -29 7 -21 8 37 1 77 -4 95 -11 35z"/>
<path d="M3489 2943 c-5 -32 -3 -113 4 -113 4 0 7 27 7 60 0 33 -2 60 -5 60
-3 0 -6 -3 -6 -7z"/>
<path d="M3723 2890 c0 -36 2 -50 4 -32 2 17 2 47 0 65 -2 17 -4 3 -4 -33z"/>
<path d="M3760 2884 c0 -41 4 -63 10 -59 6 3 10 33 10 66 0 33 -4 59 -10 59
-6 0 -10 -29 -10 -66z"/>
<path d="M3859 2948 c-5 -18 -4 -148 2 -163 5 -12 8 19 8 73 1 50 -1 92 -4 92
-3 0 -5 -1 -6 -2z"/>
<path d="M4004 2865 c0 -49 1 -71 3 -48 2 23 2 64 0 90 -2 26 -3 8 -3 -42z"/>
<path d="M4047 2943 c-11 -10 -8 -103 3 -103 6 0 10 25 10 55 0 56 -1 60 -13
48z"/>
<path d="M2113 2875 c0 -38 2 -53 4 -32 2 20 2 52 0 70 -2 17 -4 1 -4 -38z"/>
<path d="M2342 2910 c0 -19 2 -27 5 -17 2 9 2 25 0 35 -3 9 -5 1 -5 -18z"/>
<path d="M2670 2885 c0 -30 5 -55 10 -55 6 0 10 25 10 55 0 30 -4 55 -10 55
-5 0 -10 -25 -10 -55z"/>
<path d="M2816 2924 c-10 -25 -7 -82 4 -89 6 -4 10 15 10 49 0 58 -3 68 -14
40z"/>
<path d="M3003 2885 c0 -33 2 -45 4 -27 2 18 2 45 0 60 -2 15 -4 0 -4 -33z"/>
<path d="M3140 2885 c0 -30 5 -55 10 -55 6 0 10 25 10 55 0 30 -4 55 -10 55
-5 0 -10 -25 -10 -55z"/>
<path d="M3580 2912 c0 -18 5 -32 10 -32 6 0 8 11 4 28 -10 39 -14 40 -14 4z"/>
<path d="M3632 2910 c0 -19 2 -27 5 -17 2 9 2 25 0 35 -3 9 -5 1 -5 -18z"/>
<path d="M3672 2885 c-1 -30 3 -55 8 -55 6 0 10 25 10 55 0 30 -4 55 -8 55 -5
0 -9 -25 -10 -55z"/>
<path d="M3954 2835 c0 -60 1 -84 3 -52 2 32 2 81 0 110 -2 29 -3 3 -3 -58z"/>
<path d="M3536 2902 c-2 -4 -1 -23 4 -42 l8 -35 1 43 c1 41 -3 50 -13 34z"/>
<path d="M3813 2870 c0 -25 2 -35 4 -22 2 12 2 32 0 45 -2 12 -4 2 -4 -23z"/>
<path d="M2577 2843 c-3 -5 -3 -19 -2 -33 2 -14 4 -51 4 -82 1 -45 5 -58 16
-58 14 0 16 8 19 75 1 13 8 20 21 20 15 0 20 -7 22 -30 0 -16 2 -38 2 -47 1
-10 8 -18 16 -18 13 0 15 11 13 63 l-3 62 -37 3 c-33 3 -38 7 -38 28 0 23 -23
34 -33 17z"/>
<path d="M2887 2844 c-7 -7 1 -153 9 -166 3 -4 14 -8 25 -8 17 0 19 4 12 23
-4 12 -6 44 -5 70 2 27 0 57 -3 68 -6 19 -26 25 -38 13z"/>
<path d="M3590 2760 c0 -71 3 -90 14 -90 8 0 16 10 18 22 4 31 23 33 36 3 15
-33 48 -35 37 -2 -10 30 -10 68 -1 90 12 25 -20 22 -34 -4 -14 -26 -35 -19
-36 12 -2 52 -5 59 -19 59 -12 0 -15 -17 -15 -90z"/>
<path d="M2328 2829 c-28 -16 -22 -56 10 -76 50 -32 51 -53 1 -53 -19 0 -29
-5 -29 -15 0 -11 11 -15 38 -15 77 1 95 50 36 98 -41 34 -38 52 9 52 24 0 28
3 17 10 -19 13 -60 12 -82 -1z"/>
<path d="M2460 2781 c-15 -29 -12 -77 6 -95 17 -17 74 -22 74 -6 0 5 -11 12
-25 16 -20 5 -25 12 -25 40 0 28 5 35 25 40 32 8 22 24 -15 24 -19 0 -33 -7
-40 -19z"/>
<path d="M2730 2747 c0 -32 5 -59 13 -65 6 -6 32 -9 57 -8 l45 2 0 60 c0 46
-3 59 -15 59 -11 0 -16 -13 -18 -47 -3 -39 -7 -48 -22 -48 -15 0 -19 9 -22 47
-2 36 -7 49 -20 51 -15 3 -18 -5 -18 -51z"/>
<path d="M2970 2789 c0 -6 9 -13 20 -16 25 -7 25 -11 0 -48 -30 -46 -26 -55
24 -55 48 0 72 18 37 27 -24 6 -26 20 -6 47 8 11 15 28 15 38 0 15 -8 18 -45
18 -26 0 -45 -5 -45 -11z"/>
<path d="M3103 2785 c-2 -7 -3 -34 -1 -61 2 -37 7 -50 21 -52 14 -3 17 4 17
40 0 85 42 91 44 6 1 -31 5 -43 16 -43 11 0 16 14 20 50 4 36 9 50 20 50 11 0
16 -14 20 -50 4 -38 9 -51 23 -53 16 -3 18 3 15 54 -3 62 -20 84 -54 69 -11
-4 -23 -7 -29 -5 -29 9 -107 6 -112 -5z"/>
<path d="M3350 2791 c0 -5 11 -11 23 -15 20 -5 24 -13 25 -46 1 -31 -2 -40
-14 -40 -13 0 -15 7 -10 30 5 28 4 30 -14 20 -26 -14 -32 -27 -25 -50 5 -17
14 -19 58 -17 l52 2 -1 48 c-1 25 -7 53 -14 62 -13 16 -80 21 -80 6z"/>
<path d="M3485 2792 c-3 -3 -5 -32 -5 -64 0 -51 2 -59 18 -56 11 2 18 14 20
38 2 19 13 45 24 58 12 12 20 22 17 23 -34 5 -69 5 -74 1z"/>
<path d="M3747 2782 c-22 -25 -21 -75 1 -95 20 -19 77 -23 87 -7 3 6 -5 10
-19 10 -30 0 -40 14 -43 58 -1 27 1 33 15 30 11 -2 16 -11 14 -27 -3 -17 1
-22 15 -19 22 4 29 34 13 53 -17 21 -64 19 -83 -3z"/>
<path d="M2300 2740 c0 -5 5 -10 11 -10 5 0 7 5 4 10 -3 6 -8 10 -11 10 -2 0
-4 -4 -4 -10z"/>
<path d="M2531 2734 c0 -11 3 -14 6 -6 3 7 2 16 -1 19 -3 4 -6 -2 -5 -13z"/>
<path d="M2430 2616 c0 -31 3 -56 8 -56 11 0 13 98 2 105 -6 4 -10 -15 -10
-49z"/>
<path d="M2718 2554 c-3 -111 5 -165 15 -103 9 57 8 183 -2 198 -7 10 -11 -21
-13 -95z"/>
<path d="M2300 2640 c0 -5 5 -10 11 -10 5 0 7 5 4 10 -3 6 -8 10 -11 10 -2 0
-4 -4 -4 -10z"/>
<path d="M2387 2643 c-11 -10 -8 -61 3 -68 6 -4 10 10 10 34 0 42 -2 46 -13
34z"/>
<path d="M2627 2643 c-11 -11 -8 -183 3 -183 6 0 10 38 10 95 0 95 -1 101 -13
88z"/>
<path d="M3536 2567 c-8 -80 -5 -109 9 -95 3 3 5 45 3 94 l-3 89 -9 -88z"/>
<path d="M2480 2580 c0 -33 4 -60 10 -60 6 0 10 27 10 60 0 33 -4 60 -10 60
-6 0 -10 -27 -10 -60z"/>
<path d="M2533 2570 c0 -41 2 -58 4 -37 2 20 2 54 0 75 -2 20 -4 3 -4 -38z"/>
<path d="M2584 2555 c0 -49 1 -71 3 -48 2 23 2 64 0 90 -2 26 -3 8 -3 -42z"/>
<path d="M2670 2553 c0 -48 5 -95 10 -103 7 -10 10 16 10 82 0 54 -4 100 -10
103 -6 4 -10 -26 -10 -82z"/>
<path d="M2774 2530 c0 -63 1 -89 3 -57 2 31 2 83 0 115 -2 31 -3 5 -3 -58z"/>
<path d="M2817 2633 c-10 -9 -7 -164 3 -188 6 -13 9 18 9 88 1 107 0 113 -12
100z"/>
<path d="M2861 2523 c1 -76 4 -107 9 -88 12 46 12 205 0 205 -6 0 -10 -45 -9
-117z"/>
<path d="M2910 2516 c0 -69 3 -126 8 -126 10 0 12 239 1 246 -5 3 -9 -47 -9
-120z"/>
<path d="M3004 2510 c0 -74 1 -105 3 -67 2 37 2 97 0 135 -2 37 -3 6 -3 -68z"/>
<path d="M3054 2510 c0 -74 1 -105 3 -67 2 37 2 97 0 135 -2 37 -3 6 -3 -68z"/>
<path d="M3090 2510 c0 -80 4 -130 10 -130 6 0 10 50 10 130 0 80 -4 130 -10
130 -6 0 -10 -50 -10 -130z"/>
<path d="M3140 2516 c0 -73 4 -127 10 -131 6 -4 10 40 10 124 0 81 -4 131 -10
131 -6 0 -10 -48 -10 -124z"/>
<path d="M3194 2515 c0 -71 1 -99 3 -62 2 37 2 96 0 130 -2 34 -3 4 -3 -68z"/>
<path d="M3244 2515 c0 -71 1 -99 3 -62 2 37 2 96 0 130 -2 34 -3 4 -3 -68z"/>
<path d="M3290 2519 c0 -67 3 -120 6 -116 12 12 16 224 5 231 -8 5 -11 -29
-11 -115z"/>
<path d="M3344 2525 c0 -66 1 -92 3 -57 2 34 2 88 0 120 -2 31 -3 3 -3 -63z"/>
<path d="M3394 2530 c0 -63 1 -89 3 -57 2 31 2 83 0 115 -2 31 -3 5 -3 -58z"/>
<path d="M3438 2618 c-2 -13 -1 -59 3 -103 l6 -80 1 103 c2 99 -1 126 -10 80z"/>
<path d="M3487 2633 c-7 -12 -1 -172 7 -180 3 -3 6 37 6 90 0 91 -2 108 -13
90z"/>
<path d="M3580 2565 c0 -43 3 -76 6 -73 8 8 8 137 1 145 -4 3 -7 -29 -7 -72z"/>
<path d="M3671 2590 c3 -69 16 -72 18 -5 1 33 -3 55 -9 55 -6 0 -10 -21 -9
-50z"/>
<path d="M3760 2609 c0 -17 4 -28 10 -24 6 3 10 17 10 31 0 13 -4 24 -10 24
-5 0 -10 -14 -10 -31z"/>
<path d="M3721 2614 c0 -11 3 -14 6 -6 3 7 2 16 -1 19 -3 4 -6 -2 -5 -13z"/>
<path d="M4690 4679 c-85 -27 -90 -33 -57 -66 l27 -28 57 58 c32 31 53 57 48
56 -6 0 -39 -9 -75 -20z"/>
<path d="M4933 4269 c-54 -26 -59 -60 -13 -84 39 -20 43 -19 79 11 32 27 40
61 19 82 -17 17 -37 15 -85 -9z"/>
<path d="M1290 4227 c83 -52 97 -54 105 -17 4 17 4 34 0 38 -3 4 -41 8 -83 10
l-77 4 55 -35z"/>
<path d="M1117 3802 c-38 -42 -13 -72 58 -72 53 0 75 12 75 41 0 47 -98 70
-133 31z"/>
<path d="M1344 3366 c-36 -16 -48 -49 -31 -86 15 -31 58 -38 93 -15 31 20 30
48 -3 84 -27 29 -30 30 -59 17z"/>
<path d="M1158 3319 c-13 -7 -18 -22 -18 -50 l0 -40 47 3 c42 3 49 6 58 32 8
24 6 31 -14 47 -26 21 -47 23 -73 8z"/>
<path d="M1875 2360 c-26 -10 -115 -95 -139 -132 -32 -48 2 -91 63 -80 34 7
161 133 161 161 0 23 -33 61 -52 60 -7 0 -22 -4 -33 -9z"/>
<path d="M4308 2316 c-25 -19 -22 -36 13 -84 34 -47 60 -53 83 -20 22 31 20
46 -10 85 -27 35 -56 42 -86 19z"/>
<path d="M3626 1923 c-11 -27 13 -83 35 -83 48 0 85 54 58 86 -17 20 -85 18
-93 -3z"/>
<path d="M3665 1760 c-18 -20 -15 -61 7 -87 26 -32 98 0 98 43 0 54 -69 83
-105 44z"/>
</g>
</svg>
