<?xml version="1.0" encoding="UTF-8"?>
<svg id="_Слой_1" data-name="Слой 1" xmlns="http://www.w3.org/2000/svg" xmlns:xlink="http://www.w3.org/1999/xlink" viewBox="0 0 111.32 237.45">
  <defs>
    <style>
      .cls-1 {
        fill: url(#_Безымянный_градиент_12);
      }

      .cls-1, .cls-2, .cls-3, .cls-4, .cls-5, .cls-6, .cls-7, .cls-8, .cls-9, .cls-10, .cls-11 {
        stroke-width: 0px;
      }

      .cls-2 {
        fill: url(#_Безымянный_градиент_32);
      }

      .cls-12 {
        clip-path: url(#clippath-2);
      }

      .cls-3, .cls-7 {
        fill: #768098;
      }

      .cls-4, .cls-5 {
        fill: none;
      }

      .cls-13 {
        clip-path: url(#clippath-1);
      }

      .cls-14 {
        clip-path: url(#clippath-4);
      }

      .cls-5 {
        clip-rule: evenodd;
      }

      .cls-6 {
        fill: #73859e;
      }

      .cls-15 {
        clip-path: url(#clippath);
      }

      .cls-16 {
        clip-path: url(#clippath-3);
      }

      .cls-7, .cls-10 {
        fill-rule: evenodd;
      }

      .cls-8, .cls-10 {
        fill: #f6f3ec;
      }

      .cls-9 {
        fill: url(#_Безымянный_градиент_31);
      }

      .cls-11 {
        fill: url(#_Безымянный_градиент_11);
      }
    </style>
    <clipPath id="clippath">
      <rect class="cls-4" x="-289" y="-365.85" width="595.28" height="841.89"/>
    </clipPath>
    <clipPath id="clippath-1">
      <rect class="cls-4" x="19.43" y="5" width="76.27" height="2.07"/>
    </clipPath>
    <linearGradient id="_Безымянный_градиент_11" data-name="Безымянный градиент 11" x1="19.43" y1="6.04" x2="95.7" y2="6.04" gradientUnits="userSpaceOnUse">
      <stop offset="0" stop-color="#b1b0ae"/>
      <stop offset="1" stop-color="#fdfdfd"/>
    </linearGradient>
    <clipPath id="clippath-2">
      <polygon class="cls-5" points="10.59 216.09 104.81 216.09 94 226.44 93.51 227.44 21.92 227.44 21.44 226.45 10.59 216.09"/>
    </clipPath>
    <linearGradient id="_Безымянный_градиент_12" data-name="Безымянный градиент 12" x1="10.59" y1="221.76" x2="104.81" y2="221.76" gradientUnits="userSpaceOnUse">
      <stop offset="0" stop-color="#b1b0ae"/>
      <stop offset="1" stop-color="#fdfdfd"/>
    </linearGradient>
    <clipPath id="clippath-3">
      <rect class="cls-4" x="19.43" y="5" width="76.27" height="2.07"/>
    </clipPath>
    <linearGradient id="_Безымянный_градиент_31" data-name="Безымянный градиент 31" x1="19.43" y1="6.04" x2="95.7" y2="6.04" gradientUnits="userSpaceOnUse">
      <stop offset="0" stop-color="#b1b0ae"/>
      <stop offset="1" stop-color="#fdfdfd"/>
    </linearGradient>
    <clipPath id="clippath-4">
      <polygon class="cls-5" points="10.59 216.09 104.81 216.09 94 226.44 93.51 227.44 21.92 227.44 21.44 226.45 10.59 216.09"/>
    </clipPath>
    <linearGradient id="_Безымянный_градиент_32" data-name="Безымянный градиент 32" x1="10.59" y1="221.76" x2="104.81" y2="221.76" gradientUnits="userSpaceOnUse">
      <stop offset="0" stop-color="#b1b0ae"/>
      <stop offset="1" stop-color="#fdfdfd"/>
    </linearGradient>
  </defs>
  <g class="cls-15">
    <g class="cls-13">
      <rect class="cls-11" x="19.43" y="5" width="76.27" height="2.07"/>
    </g>
    <g class="cls-12">
      <rect class="cls-1" x="10.59" y="216.09" width="94.22" height="11.34"/>
    </g>
    <path class="cls-7" d="m104.81,216.38V23.18c-.13-4.73-9.61-9.16-9.09-16.02l-76.08-.09c.02,6.41-9.15,11.34-9.04,16.11v193.2h94.22Z"/>
    <path class="cls-10" d="m74.56,149.4l-16.93-6.66-16.38,6.95-6.95,16.73,6.21,16.56,17.2,7.35,17.34-7.14,6.84-16.71-7.33-17.08Zm-37.41,17.09c.46-27.24,40.99-27.24,41.45,0-.47,27.24-40.99,27.24-41.45,0Z"/>
    <rect class="cls-8" x="41.62" y="172" width="1.34" height="1.33" transform="translate(-135.19 162.65) rotate(-73.01)"/>
    <polygon class="cls-10" points="45.13 173.5 41.75 175.33 42.28 176.31 43.65 175.57 43.8 175.83 42.75 177.19 43.45 178.03 44.62 176.43 46.67 176.36 46.14 175.37 44.41 175.49 44.27 175.23 45.66 174.48 45.13 173.5"/>
    <path class="cls-10" d="m46.62,177.86c.68-.75,1.58.19.79.83,0,0-.8.75-.8.75-.69.76-1.58-.19-.78-.83,0,0,.79-.75.79-.75Zm.27-1.22c-2.3.21-3.29,3.52-.56,4.04,2.28-.22,3.31-3.52.56-4.04Z"/>
    <path class="cls-10" d="m47.25,176.22c0,.56.87.56.86,0,0-.56-.87-.56-.86,0"/>
    <path class="cls-10" d="m49,177.25c-.56,0-.56.87,0,.86.56,0,.56-.87,0-.86"/>
    <polygon class="cls-10" points="49.21 178.62 47.35 181.98 48.2 182.46 49.3 180.47 49.35 180.49 49.37 183.11 50.3 183.62 52.16 180.25 51.3 179.78 50.18 181.8 50.14 181.77 50.22 179.18 49.21 178.62"/>
    <rect class="cls-8" x="50.8" y="181.9" width="3.84" height="1.11" transform="translate(-136.86 171.04) rotate(-70.43)"/>
    <path class="cls-10" d="m54.89,181.51c-1.82,1.74-.31,4.64,2.25,3.61l.3-1.97-1.33-.2-.15.68.47.07-.13.84c-1.14.28-1.17-.93-.93-1.74.08-1.01,1.24-.85,1.89-.49l.25-.62c-.67-.41-1.98-.64-2.6-.18"/>
    <path class="cls-10" d="m59.53,181.29c-1.86-.07-1.93,1.88-.46,2.35,1.45.6-.09,1.31-.91.84l.03.69c1.4.63,3.57-.6,2.15-1.99-1.35-.53-1.72-1.47.11-1.15l.08-.64c-.3-.08-.63-.12-.99-.1"/>
    <path class="cls-10" d="m62.69,183.04c1.26-.54,1.58,1.07.19,1.02l-.19-1.02Zm-.11-.57l-.18-.98c1.18-.5,1.42,1.03.18.98Zm-1.34-1.39l.7,3.78c.62-.17,2.36-.24,2.74-.8.46-.52.14-1.71-.65-1.68v-.03c1.6-1.99-1.65-1.66-2.79-1.26Z"/>
    <polygon class="cls-10" points="64.46 180.05 66.02 183.57 68.41 182.5 68.14 181.89 66.74 182.5 66.37 181.66 67.49 181.17 67.21 180.56 66.1 181.05 65.73 180.22 67.07 179.63 66.8 179.01 64.46 180.05"/>
    <path class="cls-10" d="m69.39,179.12l-.35.25-.75-1.05c.55-.8,1.67.2,1.1.79m-2.37-.65l2.24,3.12.9-.65-.74-1.03.37-.27,1.15.73.89-.64-.03-.06-1.42-.84c.37-2.72-2.2-1.53-3.38-.37Z"/>
    <path class="cls-10" d="m71.21,177.83c1.23,1.17,2.84-.31,3.07-1.63l-1.52-1.29-.87,1.03.5.49.31-.36.65.55c-.36,1.11-1.4.5-1.97-.13-.82-.6-.07-1.5.58-1.86l-.4-.54c-1.63.8-2.1,2.78-.34,3.74Z"/>
    <rect class="cls-8" x="72.6" y="172.47" width="1.33" height="1.34" transform="translate(-47.41 28.98) rotate(-17)"/>
    <polygon class="cls-10" points="71.99 170.91 75.76 171.58 75.96 170.49 74.4 170.21 74.62 168.98 76.18 169.25 76.37 168.16 72.6 167.49 72.4 168.58 73.88 168.84 73.66 170.08 72.18 169.82 71.99 170.91"/>
    <polygon class="cls-10" points="72.61 165.92 75.76 165.7 75.83 166.65 76.5 166.65 76.29 163.57 75.62 163.62 75.68 164.59 72.53 164.81 72.61 165.92"/>
    <path class="cls-10" d="m73.77,161.28l-.14-.41,1.21-.43c.61.75-.66,1.55-1.07.84m-1.2,2.17l1.2-1.12c2.5,1.11,2.08-1.68,1.29-3.13l-3.61,1.28.37,1.05,1.19-.42.15.43-1.02.9.37,1.04h.07Z"/>
    <path class="cls-10" d="m72.92,156.73l-1.27,1.3-.44-.71,1.69-.63.02.04Zm-1.63,3.24l2.67-2.95-.83-1.32-3.78,1.19.58.92.66-.24.59.93-.5.5.61.97Z"/>
    <polygon class="cls-10" points="69.02 156.45 71.51 153.53 70.77 152.89 69.27 154.65 69.23 154.61 69.83 152.09 68.96 151.35 66.47 154.26 67.21 154.9 68.68 153.17 68.72 153.21 68.22 155.76 69.02 156.45"/>
    <path class="cls-10" d="m42.97,169.64l-1.02.18c-.53-1.26,1.07-1.57,1.02-.18Zm-1.59.29l-.98.18c-.49-1.18,1.04-1.42.98-.18Zm2.38.65c-.17-.62-.23-2.36-.79-2.74-.52-.46-1.71-.15-1.68.64h-.03c-1.98-1.61-1.66,1.64-1.27,2.78l3.77-.68Z"/>
    <path class="cls-10" d="m41.22,164.82c.19.14.08.56.07.76l-1.28-.11c-.15-.8.65-1.01,1.2-.65m-1.92,1.71l3.82.32.09-1.11-1.26-.1.04-.45,1.3-.4.09-1.09-.07-.02-1.55.53c-1.82-2.04-2.59.68-2.47,2.33Z"/>
    <path class="cls-10" d="m42.55,161.64l-1.56-.9v-.04s1.82.15,1.82.15l-.26.79Zm-2.48-.43l3.33,2.14.34-1.03-.61-.35.34-1.05.71.06.35-1.09-3.98-.16-.48,1.49Z"/>
    <path class="cls-10" d="m43.59,158.75c1.14.98,2.64-.62,2.51-1.82-.03-.88-2.14-1.8-2.72-2.3l-.61.93c.35.44,2.97,1.39,2.36,2.21-.51.89-2.44-1.15-2.97-1.3l-.61.93,2.04,1.34Z"/>
    <polygon class="cls-10" points="44.67 153.2 47.14 156.14 49.14 154.46 48.71 153.94 47.54 154.92 46.95 154.21 47.88 153.43 47.46 152.92 46.52 153.7 45.94 153.01 47.06 152.07 46.63 151.55 44.67 153.2"/>
    <path class="cls-10" d="m49.77,151.76l-.58-1.15c.92-.81,1.77.89.58,1.15Zm-1.85-1.21l1.72,3.43.99-.5-.57-1.13.41-.2,1.02.9.98-.49v-.07s-1.28-1.05-1.28-1.05c.79-2.62-1.93-1.85-3.27-.89Z"/>
    <polygon class="cls-10" points="52.16 148.59 53.06 152.31 55.6 151.7 55.44 151.05 53.97 151.4 53.75 150.51 54.93 150.23 54.78 149.58 53.59 149.86 53.38 148.99 54.81 148.64 54.65 147.99 52.16 148.59"/>
    <rect class="cls-8" x="56.11" y="147.78" width="1.11" height="3.83" transform="translate(-12.19 5.2) rotate(-4.75)"/>
    <path class="cls-10" d="m60.71,150.19l.28-1.55c1.31-.13.9,2.14-.28,1.55Zm-.69-2.37l-.69,3.77,1.09.2.18-.98c1.65.77,3.16-1.29,1.73-2.41-.47-.35-1.75-.44-2.31-.58Z"/>
    <path class="cls-10" d="m64.52,151.59l.49-.97c.38-.93,1.54-.36,1.02.51,0,0-.49.98-.49.98-.38.95-1.54.36-1.02-.51m-.96-.61c-1.1,2.44,3.01,3.42,3.42.78,1.11-2.44-3.01-3.41-3.42-.78Z"/>
    <path class="cls-10" d="m59.86,158.33l3.38-1.98c.08.04.15.09.23.13l-3.49,2.05-.11-.2Zm-.21-.36l3.16-1.86c.08.04.16.09.24.13l-3.28,1.93-.12-.2Zm6.07,10.59l3.24-1.91c0,.09,0,.19-.01.28l-3.11,1.83-.12-.2Zm-.2-.35l3.45-2.05c0,.1,0,.19,0,.29l-3.33,1.96-.11-.2Zm1.83,3.19l.56-.34c-.11.24-.23.47-.36.7l-.21-.36Zm-.19-.34l1.02-.61c-.04.11-.09.22-.13.32l-.78.47-.1-.18Zm-.21-.36l1.45-.86c-.04.12-.08.25-.13.37l-1.2.7-.12-.21Zm-.21-.36l1.83-1.07c-.03.11-.06.21-.09.32l-1.62.96-.12-.21Zm-.21-.36l2.18-1.29c-.02.11-.05.22-.08.33l-1.98,1.16-.12-.2Zm-.2-.35l2.48-1.46c-.02.09-.03.19-.05.28l-2.31,1.37-.11-.2Zm-.19-.34l2.74-1.62c-.01.09-.02.18-.04.26l-2.6,1.53-.1-.18Zm-.21-.37l3-1.77c0,.1-.02.2-.03.29l-2.86,1.68-.12-.21Zm-8.24,8.75v-2.6h.27v2.59c-.09,0-.18,0-.27,0Zm1.29-3.96v-1.37s.26,0,.26,0v1.32c-.09,0-.18.01-.26.05Zm-.41,3.92v-2.55h.23v2.53c-.08,0-.15.02-.23.02Zm-.25-2.55v-.93c.15-.11.03.89.07.93h0v2.57c-.08,0-.16.01-.24.01v-2.58s.17,0,.17,0Zm-.18-1.38v-1.35s.25,0,.25,0v1.33s-.09.02-.13.04v-.03h-.13Zm-.44-1.35h.26v1.35s-.26,0-.26,0v-1.35Zm1.71,5.18v-2.45h.29v2.4c-.1.02-.19.04-.29.05Zm-.39-3.31s0-.05,0-.07c.14-.09.03.89.06.93h.15v2.48c-.08.01-.17.02-.25.03v-2.51s.04,0,.04,0v-.86Zm-.17-.28c.76-.63.83.51.76,1.03h-.41c-.05-.17.17-1.21-.29-.87.02.07,0,.79,0,.87h-.41c-.04-.16.16-1.24-.29-.86v.86h-.41v-1.16h.36v.13h.01c.14-.2.55-.23.68,0Zm-.28-1.59h.23v1.38c-.06-.04-.14-.06-.23-.07v-1.32Zm1.74,4.99v-2.25s.09-.03.13-.05v.04h.1v2.2c-.08.02-.16.04-.23.06Zm-.43-2.3c.08.05.16.07.25.07v2.27c-.09.02-.17.04-.25.05v-2.4Zm1.27,2.06v-2.02h.27v1.92c-.09.03-.18.06-.27.1Zm-.42-2.02h.25v2.08c-.08.03-.16.05-.25.07v-2.15Zm-.78-1.26c.89-.31,1.04.45.94,1.15h-.35l-.02-.11h-.02c-.8.62-.99-.88-.03-.57.05-.32-.3-.25-.51-.22l-.02-.25Zm-.06-.1v-1.37s.26,0,.26,0v1.32c-.09,0-.18.02-.26.05Zm-.47-1.37h.29v1.71c-.03-.18-.13-.31-.29-.36v-1.35Zm.91,1.32v-1.32h.23v1.33c-.08-.01-.15-.02-.23-.02Zm1.68,3.11v-1.7h.25v1.59c-.08.04-.17.07-.25.11Zm-.34-1.7v-.79c.06-.02.11-.03.17-.03v2.59c-.09.03-.17.06-.25.1v-1.87h.09Zm-.51-1.27h.36v.24h.01c.07-.15.21-.29.37-.27v.37c-.11,0-.25.01-.35.07v.75h-.41v-1.16h.02Zm0-.11v-1.35h.26v1.35s-.26,0-.26,0Zm-.43-1.35h.26v1.69c-.03-.13-.13-.25-.25-.31v-1.38Zm1.29.89v-.89h.23v.89s-.23,0-.23,0Zm.81,3.15v-1.31h.24v1.18c-.08.05-.16.09-.24.13Zm-.4-1.31h.2v-.28s0,1.64.01,1.68c-.07.04-.14.07-.22.11v-1.51Zm-.83-2.73h.24v1.32c-.08,0-.15.03-.21.08v-.05h-.04v-1.35Zm2.06,3.56v-.85c.08.03.17.04.26.05v.63c-.08.06-.17.11-.26.17Zm-.83-2.1h.42c-.07.13-.23.41-.3.54.07.16.26.46.31.63h-.43c-.03-.08-.19-.42-.23-.49h-.08v.49h-.41v-1.62h.41v.92h.08c.03-.06.18-.4.21-.47h.01Zm-.4-.57v-.89s.23,0,.23,0c-.02.05.03,1.56-.02,1.59v-.7h-.21Zm1.64,2.4v-.53c.07,0,.14,0,.21-.02v.4c-.07.05-.14.1-.21.15Zm.45-.62l.02-.43h.03c0-.21.04-.52-.1-.7v-1.54h.25v2.8c-.08.07-.17.14-.26.2v-.32s.06-.02.06-.02Zm-1.16-.73c.13-.92,1.31-.53,1.09.18h-.68c-.04.34.43.29.65.23v.24c-.5.19-1.2,0-1.06-.65Zm-.11-.6v-1.35s.24,0,.24,0v1.43c-.33.26-.34.94,0,1.19v1.05c-.08.05-.15.09-.23.13v-1.08s.13,0,.13,0c-.09-.46-.29-.94.07-1.38h-.2Zm2.04.96v-2.31h.24v2.08c-.08.08-.16.16-.24.23Zm-.4.35v-2.66s.22,0,.22,0v2.47c-.08.06-.15.13-.22.19Zm1.23-1.2v-1.46h.25v1.16c-.08.1-.16.2-.25.3Zm-.41-1.46h.24v1.66c-.08.08-.16.16-.23.24v-1.9Zm1.22.43v-.43h.29c-.09.15-.19.29-.29.43Zm-.39.53v-.96h.21v.68c-.07.09-.14.18-.21.27Zm-1.47-1.83l.72-1.1.63,1.1h-1.35Zm-2.23,2.22v-1.35h.24v1.35s-.24,0-.24,0Zm1.25-.02v-1.33h.22v1.39c-.07-.03-.14-.05-.22-.06Zm-.41-1.33h.24v1.32c-.08,0-.17,0-.24.03v-1.35Zm-16.32-.95l.49.29-.17.29c-.11-.19-.22-.39-.32-.59Zm-.31-.66l.99.61-.1.18-.72-.43c-.06-.12-.11-.24-.16-.36Zm-.24-.6l1.43.85-.12.21-1.17-.68c-.05-.12-.1-.25-.14-.38Zm-.19-.59l1.83,1.08-.12.2-1.61-.96c-.04-.11-.07-.22-.1-.32Zm-.16-.59l2.2,1.3-.12.21-1.99-1.18c-.03-.11-.06-.22-.09-.34Zm-.12-.53l2.52,1.48-.11.2-2.34-1.39c-.02-.1-.04-.19-.06-.29Zm-.09-.5l2.79,1.65-.1.18-2.65-1.56c-.02-.09-.03-.18-.04-.27Zm-.06-.52l3.07,1.8-.12.21-2.91-1.72c-.01-.1-.02-.2-.03-.3Zm-.04-.51l3.31,1.95-.12.2-3.18-1.87c0-.1-.01-.19-.02-.29Zm-.02-.5l3.53,2.1-.11.2-3.41-2.01c0-.1,0-.19,0-.29Zm2.25,5.95v.72c-.17-.23-.33-.48-.49-.72h.49Zm.18,0h.21v1.22c-.06-.08-.13-.17-.2-.26v-.96Zm.38,0h.24v1.69c-.08-.09-.17-.19-.25-.28v-1.41Zm.42,0h.24v2.1c-.08-.07-.16-.15-.23-.23v-1.88Zm.1-1.86l.65.99h-1.22l.57-.99Zm.55,1.86v2.49c-.08-.07-.16-.15-.24-.22v-2.27h.24Zm.4,0v2.83c-.08-.06-.15-.12-.22-.18v-2.65s.22,0,.22,0Zm.42,0v1.07c-.27.16-.28.69.01.87v.28s-.16-.06-.2-.07v.51c.06.03.14.05.2.07v.44s.18.12.18.12v-.53c.07,0,.14,0,.21,0v.67c-.22-.15-.43-.3-.64-.46v-2.97h.24Zm.18,0h.21v.96c-.07,0-.14.02-.2.04v-.99Zm.87,2.34c.03.12.09.21.17.27v1.31c-.08-.04-.15-.08-.23-.13v-1.3s.04-.09.06-.15Zm-.24.32v1.03c-.08-.05-.17-.11-.26-.16v-.79c.1-.02.18-.04.26-.08Zm.59.06c.08.03.17.04.27.05v1.4c-.09-.05-.18-.09-.27-.14v-1.3Zm.45.04c.08,0,.16-.03.24-.06v1.66c-.08-.04-.16-.07-.24-.11v-1.49Zm.42-.02h.22v1.79c-.07-.03-.15-.06-.22-.09v-1.7Zm.4,0h.12v-.92c.19-.14.04.88.09.92h.04v1.95c-.08-.03-.16-.06-.24-.09v-1.86Zm.42,0h.24v2.09c-.07-.03-.16-.05-.24-.08v-2.01Zm-1.24-2.73h.23v1.36c-.08-.02-.16-.03-.24-.04v-1.32Zm.82,0h.23v1.33s-.08.02-.12.04v-.47h-.12v-.89Zm.41,0h.24v1.4c-.06-.05-.14-.08-.24-.08v-1.32Zm1.29,1.35v-1.35h.23v1.35s-.23,0-.23,0Zm.41,0v-1.35s.26,0,.26,0v.89h-.12c.04.25-.11,1.58.12,1.75v2.57c-.09-.01-.17-.03-.25-.04v-2.44s.09,0,.09,0v-1.38h-.1Zm-.77,1.42c.06,0,.13,0,.18-.02v2.31c-.08-.02-.16-.04-.24-.06v-2.23s.04,0,.06,0Zm-.07-2.76h.26v2.28s0-.89-.02-.93h-.23v-1.35Zm.43,5.09v-2.36h.23v2.4c-.08-.01-.16-.03-.23-.05Zm-2.28-3.25v.4c-.08.02-.16.05-.24.05v-.48c.07,0,.17.03.24.04h0Zm-1.69.33v.08c-.06.02-.14.01-.21,0v-.2c.06.04.15.07.21.11Zm.18-.73c.08,0,.16,0,.23.03v.21c-.08-.06-.16-.09-.25-.14v-.1s.01,0,.02,0Zm-.02-.38c.12,0,.23.02.35.06l-.04.25c-.71-.16-.59.23-.06.46.53.6-.37,1.02-.89.75v-.27c1.79.35-1.32-1.08.64-1.24Zm.24-1.06v.98c-.08-.02-.16-.02-.24-.03v-.95h.24Zm.33,1.94c-.03-.51.52-.58.9-.47l-.04.25c-.63-.25-.59.95.04.65v.24c-.51.18-1.01-.1-.89-.67Zm.08-1.94v1.46c-.13.1-.2.26-.2.48-.01-.03-.02-.05-.04-.08,0-.19,0-.64.04-.82h-.04s0-1.04,0-1.04h.24Zm.18,0h.27v1.32c-.1,0-.19.02-.27.04v-1.36Zm.86,1h.41v.56h.01c.76-.58.75.59.71,1.06h-.41c-.04-.18.16-1.24-.31-.86v.86h-.41v-1.62h0Zm0-1h.23v.89h-.22v-.89Zm1.38,1.46h.41c.04.17-.16,1.22.29.87v-.87h.42v1.16h-.35l-.02-.12h-.02c-.76.62-.78-.55-.73-1.04Zm-.15-1.46h.26v1.35s-.22,0-.22,0c.04.32-.15,1.2.23,1.36v2.24c-.09-.02-.18-.05-.27-.08v-2.14h.02c0-.64-.02-2.08,0-2.73Zm1.72,2.74c.07.02.16.03.24.02v2.5c-.08,0-.16-.02-.24-.03v-2.49Zm.42,2.54v-2.56s.03-.01.03-.01v.03h.19v2.57c-.07,0-.15-.01-.22-.02Zm-.57-4.28h.37c.06.12-.16,1.48.15,1.4v.22c-.84.37-.42-1.3-.52-1.62Zm.15-1h.23v.89s-.23,0-.23,0v-.89Zm.82,5.31v-2.58h.24v2.59c-.08,0-.16,0-.24-.01Zm-.4-5.31h.23v1.35h-.2v.49h.2v.23s-.16.23-.16.23h-.06v-2.29Zm.83,5.33v-2.6s.23,0,.23,0v2.6c-.07,0-.15,0-.23,0Zm0-3.08l.23-.33v.33s-.23,0-.23,0Zm-.43-.79h.68v.24c-.12.18-.34.49-.46.66h.49v.26h-.96v-.25c.13-.18.32-.46.45-.65h-.46v-.27h.27Zm0-.11v-1.35h.23v1.35s-.23,0-.23,0Zm.41,0v-1.35s.24,0,.24,0v1.35s-.24,0-.24,0Zm-4.22-9.49l4.5,1.26v6.01h-2.79v-.02h-.18v.02h-4.25l-.78-1.18,3.49-6.1Zm2.52-9.2c.11-.02.22-.04.33-.05l1.14.65-.11.2-1.35-.8Zm1.56.44l-.91-.54c.13-.01.25-.03.38-.04l.64.37-.12.2Zm.82-.42l-.11-.19c.13,0,.27,0,.4.02l-.29.17Zm1.48,2.58l2.92-1.71c.09.04.17.08.26.12l-3.06,1.8-.12-.21Zm-.2-.35l2.66-1.57c.09.04.17.07.25.11l-2.81,1.65-.11-.19Zm-.19-.33l2.39-1.41c.08.03.17.06.25.09l-2.54,1.49-.1-.18Zm-.2-.36l2.11-1.22c.09.03.18.06.27.09l-2.26,1.33-.11-.2Zm-.2-.34l1.78-1.03c.09.02.18.05.26.07l-1.94,1.14-.11-.19Zm-.2-.34l1.42-.82c.09.02.18.04.27.06l-1.59.94-.1-.18Zm-.2-.35l1-.57c.11.02.22.03.32.05l-1.21.71-.11-.19Zm-.2-.35l.53-.31c.11.01.23.02.34.04l-.77.46-.11-.18Zm-.7-.11l-.39-.23c.18,0,.36-.01.54-.01l-.14.25Zm.4,10.38l4.49-1.26,3.43,5.98-.85,1.29h-7.07v-6.01Zm7.57,2.41l3.63-2.16c0,.08,0,.16,0,.24l-3.53,2.1-.1-.18Zm-.21-.36l3.81-2.25c0,.09.01.18.02.27l-3.71,2.18-.12-.21Zm-.21-.36l3.97-2.34c.01.09.02.17.03.26l-3.88,2.29-.12-.21Zm-.21-.36l4.11-2.42c.01.08.03.17.04.25l-4.03,2.38-.12-.2Zm-.2-.35l4.23-2.49c.02.08.03.16.05.24l-4.16,2.45-.11-.2Zm-.19-.34l4.33-2.55c.02.07.03.14.05.21l-4.28,2.52-.1-.18Zm-.21-.36l4.43-2.61c.02.08.04.16.07.24l-4.38,2.58-.12-.21Zm-.21-.36l4.51-2.66c.02.08.05.15.07.23l-4.47,2.63-.12-.2Zm-.2-.35l4.58-2.7c.03.07.05.14.08.22l-4.54,2.68-.11-.2Zm-.19-.34l4.63-2.73c.03.07.05.13.08.2l-4.6,2.71-.1-.18Zm-.21-.36l4.67-2.75c.03.07.06.14.09.22l-4.65,2.74-.12-.2Zm-.21-.36l4.7-2.77c.03.07.07.14.1.21l-4.69,2.76-.12-.2Zm-.2-.35l4.72-2.78c.04.07.07.13.11.2l-4.71,2.78-.11-.2Zm-.19-.34l4.72-2.78c.03.06.07.12.1.18l-4.72,2.78s-.09-.16-.1-.18Zm-.21-.36l4.71-2.78c.04.07.08.14.13.2l-4.72,2.78-.12-.21Zm-.21-.36l4.69-2.76c.04.06.09.13.13.19l-4.7,2.77-.12-.2Zm-.2-.35l4.65-2.74c.05.06.09.12.13.18l-4.67,2.76-.11-.2Zm-.19-.34l4.61-2.72c.04.06.09.11.13.17l-4.63,2.73-.1-.18Zm-.21-.36l4.55-2.68c.05.06.1.12.16.19l-4.58,2.7-.12-.21Zm-.21-.36l4.47-2.64c.05.06.11.12.16.18l-4.52,2.66-.12-.2Zm-.21-.37l4.38-2.58c.06.06.12.12.17.18l-4.43,2.62-.12-.21Zm-.18-.31l4.28-2.55c.05.05.1.1.16.15l-4.33,2.58-.11-.18Zm-.21-.37l4.17-2.46c.06.05.12.11.18.16l-4.23,2.52-.13-.22Zm-.21-.37l4.05-2.38c.06.05.13.11.19.16l-4.12,2.43-.12-.21Zm-.21-.37l3.9-2.29c.07.05.14.11.21.16l-3.99,2.34-.12-.21Zm-.19-.33l3.75-2.2c.06.04.12.08.18.13l-3.83,2.25-.1-.18Zm-.2-.36l3.57-2.1c.07.05.15.09.22.14l-3.67,2.16-.12-.2Zm-13.93,7.26l3.72,2.22-.1.18-3.62-2.16c0-.08,0-.16,0-.24Zm.02-.45l3.91,2.31-.12.21-3.8-2.24c0-.09,0-.18.01-.28Zm.04-.46l4.08,2.4-.12.21-3.98-2.35c0-.09.02-.17.02-.26Zm.06-.45l4.23,2.49-.12.2-4.15-2.44c.01-.08.02-.17.03-.25Zm.07-.43l4.36,2.57-.11.2-4.29-2.53c.01-.08.03-.16.04-.24Zm.08-.4l4.47,2.63-.1.18-4.41-2.6c.01-.07.03-.14.05-.22Zm.1-.43l4.57,2.7-.12.21-4.52-2.66c.02-.08.04-.16.06-.24Zm.12-.41l4.66,2.75-.12.2-4.61-2.72c.02-.08.04-.15.07-.23Zm6.65.91l3.64-6.35h1.48c.15.25,3.6,6.29,3.75,6.54l-4.49,1.26-4.5-1.26.11-.19Zm3.75-6.55l.63-1.1.63,1.1h-1.26Zm-1.74-2.23l1.56.9-.1.18-1.73-1.02c.09-.02.18-.04.27-.06Zm-8.54,7.47l4.74,2.79-.11.2-4.7-2.77c.02-.07.05-.15.07-.22Zm.14-.37l4.79,2.83-.1.18-4.76-2.81c.02-.07.05-.13.07-.2Zm.16-.39l4.84,2.85-.12.2-4.82-2.84c.03-.07.06-.15.09-.22Zm.17-.38l4.88,2.88-.12.2-4.86-2.86c.03-.07.06-.14.1-.21Zm.18-.36l4.9,2.89-.11.2-4.89-2.88c.03-.07.07-.14.1-.2Zm.18-.34l4.91,2.89-.1.18-4.9-2.89c.03-.06.07-.12.1-.18Zm.21-.36l4.91,2.89-.12.21-4.91-2.89c.04-.07.08-.14.12-.21Zm.22-.35l4.89,2.88-.12.2-4.9-2.89c.04-.07.08-.13.13-.2Zm.23-.34l4.86,2.87-.11.2-4.88-2.88c.04-.06.09-.12.13-.19Zm.23-.31l4.82,2.84-.1.18-4.85-2.86c.04-.06.08-.11.13-.17Zm.26-.33l4.77,2.81-.12.21-4.8-2.83c.05-.06.1-.13.15-.19Zm.28-.32l4.7,2.78-.12.2-4.74-2.79c.05-.06.11-.12.16-.18Zm.29-.32l4.62,2.72-.12.21-4.66-2.76c.06-.06.11-.12.17-.18Zm.28-.28l4.52,2.69-.11.19-4.57-2.72c.05-.05.1-.1.15-.15Zm.3-.28l4.43,2.61-.12.2-4.47-2.66c.05-.05.11-.1.16-.15Zm.31-.27l4.31,2.54-.11.2-4.38-2.58c.06-.05.12-.1.17-.15Zm.31-.25l4.19,2.46-.1.17-4.26-2.5c.05-.04.11-.09.16-.13Zm.33-.25l4.05,2.38-.1.18-4.13-2.42c.06-.04.12-.09.18-.13Zm.35-.25l3.89,2.29-.1.18-3.98-2.34c.06-.04.13-.09.19-.13Zm.33-.21l3.74,2.2-.09.15-3.81-2.24c.05-.04.11-.07.16-.1Zm.4-.24l3.54,2.08-.11.2-3.65-2.15c.08-.05.15-.09.23-.13Zm.42-.23l3.32,1.95-.11.2-3.45-2.03c.08-.04.16-.08.24-.12Zm.45-.22l3.08,1.81-.12.21-3.22-1.89c.09-.04.17-.08.26-.12Zm.46-.2l2.82,1.66-.11.19-2.97-1.74c.08-.04.17-.07.26-.11Zm.46-.18l2.55,1.5-.1.18-2.7-1.59c.08-.03.17-.06.25-.09Zm.48-.16l2.27,1.31-.11.2-2.42-1.43c.09-.03.17-.06.26-.08Zm.54-.15l1.93,1.11-.11.19-2.1-1.23c.09-.03.18-.05.27-.07Zm2.82-1.38c-5.68,0-10.46,3.8-11.97,8.99h0c-4.59,21,28.82,20.7,23.87-.2h0c-1.03-3.31-3.38-6.04-6.46-7.53h0c-.36-.18-.74-.33-1.11-.48h0c-1.35-.5-2.81-.77-4.33-.77Z"/>
    <path class="cls-10" d="m54.56,168.43v-1.75c1.53-.36,1.5,2.15,0,1.75m-.55-2.01c-.31,0-.6,0-.89-.02v.27c.98-.23.3,2.66.49,3.09-.01.44-.05.49-.49.5v.27c.75-.04,1.28-.04,2.03,0v-.27c-.91.21-.5-1.06-.59-1.55,3.35.39,2.42-3.08-.55-2.29Z"/>
    <path class="cls-10" d="m59.7,167.98c.24.47.77.63,1.33.84,2.2,1.12-1.25,2.24-1.17.09h-.24v1.4h.2l.07-.31c2.75,1.64,4.07-1.66.75-2.46-.71-1.35,1.71-1.35,1.59.01h.22v-1.24h-.21l-.05.25c-1.06-.86-3.18-.1-2.51,1.41"/>
    <path class="cls-10" d="m57.82,163.81c.93-.69-.38-4.05.81-4.21v-.27c-1.01.05-1.11.05-2.03,0v.27c1.14-.32.4,2.52.6,3,.09.56-.08,1.89-.83,1.16.68-.29.06-1.31-.48-.78-.68,1.11,1.37,1.63,1.93.83"/>
    <path class="cls-10" d="m60.34,174.41c-.28.06-.06.47.16.27v-.26s-.11-.01-.16,0"/>
    <path class="cls-10" d="m63.79,174.2v.12h.29c.09-.28-.28-.47-.29-.12"/>
    <path class="cls-10" d="m53.1,174.96v-1.62h.41v.56h.01c.75-.58.76.58.71,1.06h-.41c-.04-.18.16-1.24-.31-.86v.86h-.41Zm-.6-.49c-.07-.33.15-.38.42-.28l.06-.38v.75c-.15.03-.5.18-.48-.09Zm-.53.01c-.12-.58.37-.84.9-.68l-.04.25c-.63-.24-.6.94.04.65v.24c-.4.13-.93,0-.89-.46Zm-.23-1.02l-.04.25c-.92-.13-.38.27.03.54.34.61-.47.89-.97.67v-.27c1.85.44-1.63-1.41.98-1.19Zm.08.74c-.12-.19-.38-.24-.53-.39.16-.05.34,0,.51.04l.07-.47c-.83-.45-1.84.54-.78,1.05.46.25-.27.18-.44.06v.51c.4.17,1.12.18,1.24-.31.09.44.7.5,1.08.35l.02-.41v.45h.64v-.92c.19-.14.05.88.09.92h.64c0-.51.17-1.71-.72-1.37v-.47h-.64v.49c-.48-.15-1.15-.08-1.12.56-.01-.03-.03-.06-.04-.08Z"/>
    <path class="cls-10" d="m54.49,174.59v-.79h.42c.04.17-.16,1.22.29.87v-.87h.41v1.16h-.35l-.02-.12h-.02c-.23.26-.77.2-.73-.26m-.11-.9c0,.53-.15,1.77.77,1.35v.04h.57v-1.39h-.64v.93c-.15.09-.03-.89-.07-.93h-.64Z"/>
    <path class="cls-10" d="m60.48,174.29c.05-.31-.29-.26-.51-.22l-.02-.25c.89-.31,1.04.45.94,1.15h-.35l-.02-.11h-.02c-.78.61-1.01-.88-.03-.57m-2.68.68v-1.16h.36v.13h.01c.14-.2.56-.23.68,0,.76-.63.83.51.76,1.03h-.41c-.05-.17.17-1.21-.29-.87.02.07,0,.79,0,.87h-.41c-.04-.17.16-1.24-.29-.86v.86h-.41Zm-1.18-.25l.45-.65h-.46v-.27h.94v.24l-.46.66h.49v.26h-.96v-.25Zm-.75-.06v-1.31h.41c.07.12-.16,1.48.15,1.4v.22c-.25.09-.59,0-.56-.31Zm-.11-1.42c.07.51-.34,2.28.75,1.81v.03h1.82v-.93c.15-.12.03.89.07.93h.64s0-.9,0-.93c.14-.09.03.89.06.93h.64v-.24c.1.28.49.33.73.2v.04h.55c.11-.89-.06-1.73-1.17-1.35l.03.47c.15-.03.3-.06.46-.04-.26-.02-.52.06-.6.29.11-.55-.34-1.03-.86-.67-.15-.14-.41-.15-.6-.06v-.02h-.58v.9h-.39l.36-.52v-.38h-1.17v.49h.36l-.32.46s-.13,0-.14,0c0-.03,0-1.37,0-1.4h-.64Z"/>
    <path class="cls-10" d="m60.48,174.29c.05-.31-.29-.26-.51-.22l-.02-.25c.89-.31,1.04.45.94,1.15h-.35l-.02-.11h-.02c-.78.61-1.01-.88-.03-.57m-2.68.68v-1.16h.36v.13h.01c.14-.2.56-.23.68,0,.76-.63.83.51.76,1.03h-.41c-.05-.17.17-1.21-.29-.87.02.07,0,.79,0,.87h-.41c-.04-.17.16-1.24-.29-.86v.86h-.41Zm-1.19-1.16h.94v.24l-.46.66h.49v.26h-.96v-.25l.45-.65h-.46v-.27Zm-.33-.46c.07.12-.16,1.48.15,1.4v.22c-.89.33-.47-1.24-.56-1.62h.41Zm.22.34v.49h.36l-.32.46s-.13,0-.14,0c0-.03,0-1.37,0-1.4h-.64c.07.51-.34,2.28.75,1.81v.03h1.82v-.93c.15-.12.03.89.07.93h.64s0-.9,0-.93c.14-.09.03.89.06.93h.64v-.24c.1.28.49.33.73.2v.04h.55c.11-.89-.06-1.73-1.17-1.35l.03.47c.15-.03.3-.06.46-.04-.26-.02-.52.06-.6.29.11-.55-.34-1.03-.86-.67-.15-.14-.41-.15-.6-.06v-.02h-.58v.9h-.39l.36-.52v-.38h-1.17Z"/>
    <path class="cls-10" d="m62.12,174.96v-1.62h.41v.92h.08l.21-.47h.43l-.3.54s.33.6.31.63h-.43l-.23-.49h-.08v.49h-.41Zm-.97-1.16h.38v.24h.01c.09-.19.21-.28.38-.27v.37c-.1,0-.26.02-.35.07v.75h-.41v-1.16Zm-.11-.11v1.39h.64v-.79c.11-.03.22-.03.33-.03v.82h.64v-.28l.13.28h.62c.06-.13-.24-.62-.29-.74l.36-.65h-.7l-.11.25v-.7h-.64v.44c-.12-.02-.27-.01-.37.07v-.05h-.6Z"/>
    <path class="cls-10" d="m63.92,174.58h.52c-.17.04-.37.1-.52,0m-.41-.68c.44-.34,1.1-.04.95.56h-.68c-.03.34.4.29.65.23v.24c-.72.33-1.41-.38-.92-1.03Zm-.08-.08c-.61.77.27,1.62,1.1,1.19l.02-.43h.03c.18-.72-.56-1.22-1.14-.76Z"/>
    <path class="cls-10" d="m60.48,174.72v-.26c-.38-.15-.35.49,0,.26"/>
    <path class="cls-10" d="m63.78,174.17v.12h.29c.09-.28-.28-.47-.29-.12"/>
    <path class="cls-7" d="m51.73,174.26c-.41-.28-.95-.68-.03-.54l.04-.25c-2.62-.22.87,1.62-.98,1.19v.27c.5.22,1.31-.06.97-.67"/>
    <path class="cls-7" d="m52.53,173.77c-.98,0-.59,1.62.33,1.18v-.24c-.63.29-.66-.9-.03-.65l.04-.25c-.11-.03-.22-.04-.35-.04"/>
    <path class="cls-7" d="m53.1,173.35v1.62h.41v-.86c.47-.38.27.68.31.86h.41c.05-.48.04-1.64-.71-1.05h-.01v-.57h-.41Z"/>
    <path class="cls-7" d="m54.49,173.8c-.05.49-.03,1.66.73,1.04h.02s.02.12.02.12h.35v-1.16h-.41v.87c-.45.35-.25-.7-.29-.87h-.42Z"/>
    <path class="cls-7" d="m55.87,173.35c.09.38-.33,1.95.55,1.62v-.22c-.29.08-.07-1.29-.14-1.4h-.41Z"/>
    <polygon class="cls-7" points="56.61 173.8 56.61 174.07 57.07 174.07 56.62 174.71 56.62 174.96 57.58 174.96 57.58 174.7 57.09 174.7 57.55 174.04 57.55 173.8 56.61 173.8"/>
    <path class="cls-7" d="m57.8,173.8v1.16h.41v-.86c.45-.38.25.7.29.86h.41c0-.09,0-.8,0-.87.47-.34.25.7.29.87h.41c.06-.52,0-1.66-.76-1.03-.12-.24-.54-.21-.68,0h-.01v-.13h-.36Z"/>
    <path class="cls-7" d="m60.48,174.46v.26c-.35.23-.38-.41,0-.26m-.23-.42c.19,0,.25.08.23.25-.99-.31-.75,1.18.03.57h.02s.02.11.02.11h.35c.1-.7-.05-1.46-.94-1.15l.02.25c.1-.02.19-.02.28-.02Z"/>
    <path class="cls-7" d="m61.15,173.8v1.16h.41v-.75c.09-.05.25-.07.35-.07v-.37c-.16-.02-.28.07-.38.27h-.01v-.25h-.38Z"/>
    <path class="cls-7" d="m62.12,173.35v1.62h.41v-.49h.08l.23.49h.43s-.31-.6-.31-.63l.3-.54h-.43l-.21.47h-.08v-.92h-.41Z"/>
    <path class="cls-7" d="m63.78,174.29c-.09-.4.38-.4.29,0h-.29Zm-.27-.38c-.49.65.2,1.36.91,1.03v-.24c-.23.06-.66.11-.64-.23h.68c.15-.61-.52-.9-.95-.56Z"/>
    <path class="cls-7" d="m74.81,146.69l-17.11-6.73-18.3,7.76-7.73,18.63.29.77,6.66,17.76,19.19,8.2,19.32-7.95,7.65-18.69-8.17-19.04-1.79-.7Zm-33.45,2.97l16.38-6.95c2.23.88,15.03,5.91,16.93,6.66l7.33,17.08-6.84,16.71-17.34,7.14-17.2-7.35-6.21-16.56.23-.56,6.71-16.17Z"/>
    <path class="cls-7" d="m38.6,184.87l-6.66-17.76-21.35,10.17v39.09h94.22v-83.99l-30.01,14.3,1.79.7,8.17,19.04-7.65,18.69-19.32,7.95-19.19-8.2Z"/>
    <path class="cls-10" d="m10.6,177.29l21.06-10.94,7.73-18.63,18.3-7.76,17.11,6.73,30.01-14.3V23.18c-.13-4.73-9.61-9.16-9.09-16.02l-76.08-.09c.02,6.41-9.15,11.34-9.04,16.11v154.11Z"/>
    <path class="cls-8" d="m22.4,206.28l-.39.37c-2.37-1.95-2.36,3.1,0,1.15l.38.39c-3.66,2.68-3.54-4.65.01-1.91m-4.46-.51h.55v2.38h.82v.53h-1.37v-2.91Zm-1.82.77l-.39,1h.79l-.39-1Zm-.28-.77h.56l1.12,2.91h-.58l-.23-.6h-1.19l-.23.6h-.58l1.13-2.91Zm7.16-2.95c-.44,0-.44.68,0,.67.43,0,.43-.68,0-.67Zm0-.36c.9-.02.9,1.41,0,1.39-.9.02-.9-1.41,0-1.39Zm-1.93-1.31c-.43,0-.43.68,0,.67.43,0,.43-.68,0-.67Zm1.89-.42h.4l-2.31,3.24h-.4l1.98-2.78c-.32.05-.6.08-.91.05.26,2.07-2.68.11-.67-.45.63.09,1.34.25,1.92-.06Zm-4.27.13h1.36v.51h-.95l-.12.53c2.56-.05,0,3.56-.88,1.14h.58c.88,1.14,1.24-1.34.1-.47l-.45-.1.35-1.62Zm-1.28,2.36l.39.19-.49.83-.27-.13.37-.9Zm-1.45-.56v-.98l-.67.98h.67Zm0-1.88h.55v1.88h.26v.51h-.26v.6h-.54v-.6h-1.27v-.51l1.27-1.88Z"/>
    <path class="cls-8" d="m91.54,200.58h1.4v.52h-.97l-.12.55c2.62-.05,0,3.66-.9,1.17h.6c.9,1.17,1.28-1.37.1-.48l-.46-.1.36-1.66Zm6.05,5.05h.57v2.45h.84v.54h-1.4v-2.99Zm-2.09.48c-1.29-.03-1.27,2.07.01,2.03,1.27.02,1.26-2.06-.01-2.03Zm0-.56c2-.04,2.02,3.18,0,3.14-2.04.05-2.03-3.18,0-3.14Zm-4.55.08h.58l.75,2.12.77-2.12h.58l-1.08,2.99h-.55l-1.06-2.99Zm7.47-5.05h.57v2.45h.84v.54h-1.4v-2.99Zm-3.46,0h.55l.7,2.08.7-2.08h.55l.5,2.99h-.55l-.32-1.89-.63,1.89h-.5l-.63-1.89-.33,1.89h-.55l.52-2.99Zm-5.76,0h1.4v.52h-.97l-.12.55c2.62-.05,0,3.66-.9,1.17h.6c.9,1.17,1.28-1.37.1-.48l-.46-.1.36-1.66Zm-2.23.74h-.55c.17-1.65,2.84-.37,1.36.61,1.94.99-1.36,2.85-1.48.74h.56c.38,1.3,1.7-.49.25-.47v-.49c.97.03.28-1.2-.15-.39Z"/>
    <path class="cls-8" d="m68.46,205.8v1.78c1.54.34,1.53-2.06,0-1.78Zm-.53-.52c2.95-.57,2.99,3.43,0,2.82v-2.82Zm-1.77.75l-.38.97h.76l-.38-.97Zm-.27-.75h.54l1.08,2.82h-.56l-.22-.58h-1.15l-.23.58h-.56l1.09-2.82Zm-2.57,1.1c.81.16.8-.74,0-.58v.58Zm-.53-1.1c1.16-.31,2.49.79,1.14,1.56l.66,1.25h-.59l-.63-1.19h-.05v1.19h-.53v-2.82Zm-.73.46l-.38.37c-2.49-1.82-2.07,3.14-.03,1.06h-.82v-.5h1.42c.17,1.52-2.04,2.06-2.73.77-.94-1.58,1.38-3.06,2.53-1.69Zm-5.5-.46h.51l1.21,1.85v-1.85h.53v2.82h-.51l-1.21-1.85v1.85h-.53v-2.82Zm-1.14,0h.53v2.82h-.53v-2.82Zm-2.86,0h.51l1.21,1.85v-1.85h.53v2.82h-.51l-1.21-1.85v1.85h-.53v-2.82Zm-1.14,0h.53v2.82h-.53v-2.82Zm-1.69,0h.53v2.31h.79v.51h-1.32v-2.82Zm-1.77.75l-.38.97h.76l-.38-.97Zm-.27-.75h.54l1.08,2.82h-.56l-.22-.58h-1.15l-.22.58h-.56l1.09-2.82Zm-3.29,0h.54v.97l.76-.97h.65l-.98,1.26,1.08,1.56h-.64l-.87-1.25v1.25h-.54v-2.82Zm24.56-3.27l-.29.73h.57l-.28-.73Zm-.2-.56h.41l.81,2.11h-.42l-.17-.44h-.87l-.17.44h-.42l.82-2.11Zm-1.86,0h.4v2.11h-.4v-2.11Zm-.75.29l-.3.26c-.36-.49-.76-.03-.17.29.67.36.68,1.31-.15,1.32-.32,0-.53-.16-.68-.46l.34-.2c.13.31.53.4.6.08-.03-.27-.67-.61-.73-.8-.44-.73.7-1.17,1.09-.5Zm-1.89,0l-.3.26c-.36-.49-.76-.03-.17.29.67.36.68,1.31-.15,1.32-.32,0-.53-.16-.68-.46l.34-.2c.13.31.53.4.6.08-.03-.27-.67-.61-.73-.8-.45-.73.7-1.17,1.09-.5Zm-3.37-.29h.4c-.23,2.42.85,2.41.62,0h.4c-.08.65.34,2.2-.71,2.17-1.05.03-.64-1.51-.72-2.17Zm-1.63.83c.61.12.6-.55,0-.44v.44Zm-.4-.83c.85-.26,1.86.62.86,1.17l.5.94h-.44l-.47-.89h-.04v.89h-.4v-2.11Zm-3.02,0h.38l.91,1.39v-1.39h.4v2.11h-.38l-.91-1.39v1.39h-.4v-2.11Zm-1.22,0h.4v2.11h-.4v-2.11Zm-2.32,0h1.15v.39h-.75v.38h.75v.39h-.75v.56h.75v.39h-1.15v-2.11Zm-2.02.39v1.33c1.16.26,1.15-1.54,0-1.33Zm-.4-.39c2.22-.43,2.24,2.57,0,2.11v-2.11Zm-1.69.56l-.29.73h.57l-.28-.73Zm-.2-.56h.4l.81,2.11h-.42l-.16-.44h-.87l-.17.44h-.42l.82-2.11Zm-3.45,0h.39l.49,1.47.49-1.47h.39l.35,2.11h-.39l-.23-1.33-.45,1.33h-.35l-.45-1.33-.23,1.33h-.39l.36-2.11Z"/>
    <polygon class="cls-7" points="22.61 130.66 19.28 128.72 19.28 104.13 22.61 102.36 22.61 120.49 26.07 122.5 22.61 124.34 22.61 130.66"/>
    <polygon class="cls-7" points="26.11 122.48 29.44 120.71 29.44 102.39 22.53 98.36 19.29 100.28 26.11 104.27 26.11 122.48"/>
    <polygon class="cls-7" points="41.65 121.23 41.65 124.99 95.64 99.13 91.97 97.13 41.65 121.23"/>
    <polygon class="cls-7" points="31.59 106.68 31.59 116.46 35.04 118.47 38.47 116.65 34.92 114.57 34.92 104.92 31.59 106.68"/>
    <polygon class="cls-7" points="41.85 114.85 41.85 105.08 38.4 103.07 34.97 104.89 38.52 106.96 38.52 116.62 41.85 114.85"/>
    <polygon class="cls-7" points="56.39 94.76 56.39 104.53 59.84 106.54 63.27 104.72 59.73 102.65 59.73 92.99 56.39 94.76"/>
    <polygon class="cls-7" points="66.71 106.66 66.66 93.16 63.21 91.15 59.78 92.97 63.32 95.04 63.32 104.69 66.71 106.66"/>
    <polygon class="cls-7" points="77.14 81.48 77.16 97.84 80.6 99.85 84.03 98.03 80.49 95.96 80.49 86.64 83.95 84.8 80.49 82.79 80.5 79.7 77.14 81.48"/>
    <polygon class="cls-7" points="47.38 112.44 44.05 110.5 44.05 97 47.38 98.95 47.38 112.44"/>
    <polygon class="cls-7" points="88.61 95.85 85.27 93.91 85.28 75.76 88.61 74 88.61 95.85"/>
    <polygon class="cls-7" points="95.62 95.85 95.57 82.35 92.12 80.34 88.69 82.16 92.24 84.23 92.24 93.89 95.62 95.85"/>
    <polygon class="cls-7" points="72.24 103.65 68.9 101.71 68.9 88.31 75.32 85.24 75.34 88.98 72.24 90.47 72.24 103.65"/>
    <polygon class="cls-7" points="54.38 112.67 54.33 99.17 50.88 97.16 47.45 98.98 51 101.05 51 110.71 54.38 112.67"/>
    <polygon class="cls-7" points="40.01 125.78 39.98 120.25 38.67 119.56 37.39 120.18 38.7 120.87 38.7 126.4 40.01 125.78"/>
    <polygon class="cls-7" points="36.14 126.31 37.4 127.02 38.69 126.41 37.45 125.69 36.14 126.31"/>
    <polygon class="cls-7" points="36.09 120.8 36.11 124.19 37.35 124.91 38.65 124.28 37.39 123.57 37.39 120.18 36.09 120.8"/>
    <polygon class="cls-7" points="35.47 127.95 35.45 124.59 34.16 123.88 34.16 128.57 35.47 127.95"/>
    <polygon class="cls-7" points="31.53 121.71 31.55 126.36 32.79 127.08 34.1 126.46 32.84 125.75 32.84 122.41 31.53 121.71"/>
    <polygon class="cls-7" points="30.9 130.13 30.88 126.74 28.31 125.38 28.31 124.51 26.91 125.19 26.92 125.94 29.59 127.35 29.6 130.75 30.9 130.13"/>
    <polygon class="cls-7" points="27.02 127.33 27.04 130.66 28.28 131.38 29.59 130.76 28.33 130.05 28.32 126.71 27.02 127.33"/>
    <polygon class="cls-7" points="30.94 125.46 30.94 124.52 29.68 123.85 28.39 124.47 29.65 125.14 29.65 126.08 30.94 125.46"/>
    <polygon class="cls-7" points="25.7 132.62 25.67 125.84 24.38 125.14 24.39 131.98 25.7 132.62"/>
    <path class="cls-7" d="m48.15,91.74v-10.2c-1.59-.38-.48,10.03-.79,10.57l.79-.38Z"/>
    <path class="cls-7" d="m59.93,81.29v4.82l3.42-1.63c.22-2.41-.08-2.65-3.42-3.19"/>
    <path class="cls-7" d="m50.78,90.43v-9.38c-.74.08-1.39.18-1.92.3v10.06l1.92-.98Z"/>
    <path class="cls-7" d="m61.05,79.31l-.59-.16-.53,2.15c-.43-.07-.87-.13-1.32-.17l.6-2.32-.53-.15.44-4.41c1.35.08,2.6.44,3.74,1.08l-1.81,3.98Z"/>
    <path class="cls-7" d="m52.34,76.53c.16.74-.2,1.62-.84,2.02l.59,2.39c-.44.02-.88.05-1.3.1l-.54-2.17c-1.92-.03-2.09-2.49-2.46-3.86l3.94-.91.6,2.41Z"/>
    <path class="cls-7" d="m51.71,76.57c-.15,3.26-3.22,1.47-3.15-1.05l2.74-.63.42,1.68Z"/>
    <path class="cls-7" d="m48.56,75.52l2.74-.63c1.71,3.93-2.42,4.85-2.74.63m-.77-.49c.37,1.37.54,3.83,2.46,3.86l.54,2.17c.42-.05.85-.09,1.3-.1l-.59-2.39c1.55-.86.51-3.17.24-4.43l-3.94.91Z"/>
    <path class="cls-7" d="m59.93,81.29l.53-2.15.59.16,1.81-3.98c-1.14-.64-2.39-1-3.74-1.08l-.44,4.41.53.15-.6,2.32c.45.04.89.1,1.32.17m.79-2.68l-1.42-.4.31-3.42c.16.02.31.04.46.06l-.2,2.35.24.05.56-2.28c.13.04.29.09.41.13l-.57,2.28.22.08.99-2.1c.12.06.24.12.35.19l-1.35,3.05Z"/>
    <path class="cls-7" d="m54.72,73.47l-1.28-.03v-.73c.34.03.73.24,1.28.22v.55Zm0,1.32l-1.25-.03v-.73l1.25.03v.73Zm0,1.4c-.6,0-1.07-.24-1.25-.85l1.25.03v.82Zm0,.56v4.14c-.94-.01-1.83,0-2.65.05v8.92l6.53-3.12v-5.62c-.8-.09-1.68-.15-2.59-.19v-4.14c3.17.17.74-3.98,2.65-5.25l-.8-.02c-.42.53-.86.96-1.86.86v-.91l-1.29-.03v.91c-.91.02-1.45-.34-1.82-.96l-.81-.02c1.94,1.43-.62,5.3,2.63,5.39Zm1.29-.52v-.82l1.22.03c-.11.52-.55.86-1.22.79Zm0-1.4v-.73l1.22.03v.73l-1.22-.03Zm0-1.32v-.55c.38.03,1.01-.07,1.09-.16h.09v.73l-1.18-.03Z"/>
    <path class="cls-3" d="m77.49,37.55c2.17.37,2.14-1.87,0-1.52v1.52Zm-1.39-2.88c.82,0,2.68-.07,3.22.22,1.61.67,1.53,3.4-.24,3.87l1.74,3.27h-1.53l-1.65-3.11h-.14v3.11h-1.39v-7.35Zm-5.41,0h4.01v1.37h-2.62v1.32h2.62v1.35h-2.62v1.93h2.62v1.37h-4.01v-7.35Zm-2.98,0h1.39v7.35h-1.39v-7.35Zm-4.45,4.14v1.88c2.5.39,2.38-2.2,0-1.88Zm0-2.81v1.56c1.73.32,1.74-1.9,0-1.56Zm-1.39,6.02v-7.35c2.23-.43,5.72.94,3.33,3.31,1.69.62,1.67,3.06.14,3.79-.67.39-2.64.21-3.47.25Zm-1.45-6.35l-1.04.91c-.46-.75-1.49-1.14-1.74-.28-.05.52,1.84,1.77,2.13,2.14,2.83,2.77-2.5,5.6-3.85,2.17l1.18-.71c.45,1.42,2.65,1.15,1.89-.22-1.28-1.29-3.93-2.85-2.14-4.65,1.11-1,2.66-.56,3.56.64Zm-5.32,0l-1.04.91c-.46-.75-1.49-1.14-1.74-.28-.05.52,1.84,1.77,2.13,2.14,2.83,2.77-2.5,5.6-3.85,2.17l1.18-.71c.45,1.42,2.65,1.15,1.89-.22-1.28-1.29-3.94-2.85-2.14-4.65,1.11-1,2.66-.56,3.56.64Zm-6.83-1h1.39v7.35h-1.39v-7.35Zm-5.21,0h4.01v1.37h-2.62v1.32h2.62v1.35h-2.62v1.93h2.62v1.37h-4.01v-7.35Zm-9.78,0h1.37l1.07,4.69,1.31-4.69h1.16l1.34,4.69,1.06-4.69h1.37l-1.67,7.35h-1.34l-1.35-4.75-1.33,4.75h-1.32l-1.67-7.35Z"/>
    <rect class="cls-6" x="45.62" y="45.94" width="23.02" height=".45"/>
    <path class="cls-6" d="m73.15,50.03c.71.14.7-.64,0-.51v.51Zm-.46-.96c.99-.3,2.16.72.99,1.36l.58,1.09h-.51l-.55-1.04h-.05v1.04h-.46v-2.45Zm-1.8,0h1.34v.46h-.88v.44h.88v.45h-.88v.65h.88v.46h-1.34v-2.45Zm-1.78,0h1.34v.46h-.88v.44h.88v.45h-.88v.65h.88v.46h-1.34v-2.45Zm-1.52,1.38v.63c.82.15.78-.75,0-.63Zm0-.94v.52c.58.11.58-.64,0-.52Zm-.46,2.01v-2.45c.74-.16,1.9.34,1.11,1.1,1.16.75-.19,1.62-1.11,1.35Zm-2.63-2.45h1.36v.46h-.45v1.99h-.48v-1.99h-.43v-.46Zm-1.3.65l-.33.84h.66l-.33-.84Zm-.24-.65h.47l.94,2.45h-.49l-.19-.51h-1.01l-.2.51h-.49l.95-2.45Zm-2.52,0h1.34v.46h-.88v.44h.88v.45h-.88v.65h.88v.46h-1.34v-2.45Zm-2.33,0h.48v.93h.82v-.93h.47v2.45h-.47v-1.08h-.82v1.08h-.48v-2.45Zm-3.26,0h.46l.36,1.57.44-1.57h.39l.45,1.57.36-1.57h.46l-.56,2.45h-.45l-.45-1.59-.44,1.59h-.44l-.56-2.45Zm-3.29,0h.44l1.06,1.62v-1.62h.46v2.45h-.45l-1.05-1.61v1.61h-.46v-2.45Zm-1.55.65l-.33.84h.66l-.33-.84Zm-.24-.65h.47l.94,2.45h-.49l-.19-.51h-1.01l-.2.51h-.49l.95-2.45Zm-1.74,0h.46v2.45h-.46v-2.45Zm-.57.4l-.33.33c-2.12-1.63-1.79,2.77-.02.92h-.71v-.44h1.23c.15,1.32-1.78,1.79-2.38.67-.82-1.38,1.2-2.67,2.2-1.48Zm-3.78-.4h.46v2.01h.69v.44h-1.15v-2.45Zm-1.77,0h1.34v.46h-.88v.44h.88v.45h-.88v.65h.88v.46h-1.34v-2.45Zm-1.52,1.38v.63c.82.15.78-.75,0-.63Zm0-.94v.52c.58.11.58-.64,0-.52Zm-.46,2.01v-2.45c.74-.16,1.91.34,1.11,1.1,1.16.75-.19,1.62-1.11,1.35Z"/>
    <g class="cls-16">
      <rect class="cls-9" x="19.43" y="5" width="76.27" height="2.07"/>
    </g>
    <g class="cls-14">
      <rect class="cls-2" x="10.59" y="216.09" width="94.22" height="11.34"/>
    </g>
    <path class="cls-7" d="m104.81,216.38V23.18c-.13-4.73-9.61-9.16-9.09-16.02l-76.08-.09c.02,6.41-9.15,11.34-9.04,16.11v193.2h94.22Z"/>
    <path class="cls-10" d="m74.56,149.4l-16.93-6.66-16.38,6.95-6.95,16.73,6.21,16.56,17.2,7.35,17.34-7.14,6.84-16.71-7.33-17.08Zm-37.41,17.09c.46-27.24,40.99-27.24,41.45,0-.47,27.24-40.99,27.24-41.45,0Z"/>
    <rect class="cls-8" x="41.62" y="172" width="1.34" height="1.33" transform="translate(-135.19 162.65) rotate(-73.01)"/>
    <polygon class="cls-10" points="45.13 173.5 41.75 175.33 42.28 176.31 43.65 175.57 43.8 175.83 42.75 177.19 43.45 178.03 44.62 176.43 46.67 176.36 46.14 175.37 44.41 175.49 44.27 175.23 45.66 174.48 45.13 173.5"/>
    <path class="cls-10" d="m46.62,177.86c.68-.75,1.58.19.79.83,0,0-.8.75-.8.75-.69.76-1.58-.19-.78-.83,0,0,.79-.75.79-.75Zm.27-1.22c-2.3.21-3.29,3.52-.56,4.04,2.28-.22,3.31-3.52.56-4.04Z"/>
    <path class="cls-10" d="m47.25,176.22c0,.56.87.56.86,0,0-.56-.87-.56-.86,0"/>
    <path class="cls-10" d="m49,177.25c-.56,0-.56.87,0,.86.56,0,.56-.87,0-.86"/>
    <polygon class="cls-10" points="49.21 178.62 47.35 181.98 48.2 182.46 49.3 180.47 49.35 180.49 49.37 183.11 50.3 183.62 52.16 180.25 51.3 179.78 50.18 181.8 50.14 181.77 50.22 179.18 49.21 178.62"/>
    <rect class="cls-8" x="50.8" y="181.9" width="3.84" height="1.11" transform="translate(-136.86 171.04) rotate(-70.43)"/>
    <path class="cls-10" d="m54.89,181.51c-1.82,1.74-.31,4.64,2.25,3.61l.3-1.97-1.33-.2-.15.68.47.07-.13.84c-1.14.28-1.17-.93-.93-1.74.08-1.01,1.24-.85,1.89-.49l.25-.62c-.67-.41-1.98-.64-2.6-.18"/>
    <path class="cls-10" d="m59.53,181.29c-1.86-.07-1.93,1.88-.46,2.35,1.45.6-.09,1.31-.91.84l.03.69c1.4.63,3.57-.6,2.15-1.99-1.35-.53-1.72-1.47.11-1.15l.08-.64c-.3-.08-.63-.12-.99-.1"/>
    <path class="cls-10" d="m62.69,183.04c1.26-.54,1.58,1.07.19,1.02l-.19-1.02Zm-.11-.57l-.18-.98c1.18-.5,1.42,1.03.18.98Zm-1.34-1.39l.7,3.78c.62-.17,2.36-.24,2.74-.8.46-.52.14-1.71-.65-1.68v-.03c1.6-1.99-1.65-1.66-2.79-1.26Z"/>
    <polygon class="cls-10" points="64.46 180.05 66.02 183.57 68.41 182.5 68.14 181.89 66.74 182.5 66.37 181.66 67.49 181.17 67.21 180.56 66.1 181.05 65.73 180.22 67.07 179.63 66.8 179.01 64.46 180.05"/>
    <path class="cls-10" d="m69.39,179.12l-.35.25-.75-1.05c.55-.8,1.67.2,1.1.79m-2.37-.65l2.24,3.12.9-.65-.74-1.03.37-.27,1.15.73.89-.64-.03-.06-1.42-.84c.37-2.72-2.2-1.53-3.38-.37Z"/>
    <path class="cls-10" d="m71.21,177.83c1.23,1.17,2.84-.31,3.07-1.63l-1.52-1.29-.87,1.03.5.49.31-.36.65.55c-.36,1.11-1.4.5-1.97-.13-.82-.6-.07-1.5.58-1.86l-.4-.54c-1.63.8-2.1,2.78-.34,3.74Z"/>
    <rect class="cls-8" x="72.6" y="172.47" width="1.33" height="1.34" transform="translate(-47.41 28.98) rotate(-17)"/>
    <polygon class="cls-10" points="71.99 170.91 75.76 171.58 75.96 170.49 74.4 170.21 74.62 168.98 76.18 169.25 76.37 168.16 72.6 167.49 72.4 168.58 73.88 168.84 73.66 170.08 72.18 169.82 71.99 170.91"/>
    <polygon class="cls-10" points="72.61 165.92 75.76 165.7 75.83 166.65 76.5 166.65 76.29 163.57 75.62 163.62 75.68 164.59 72.53 164.81 72.61 165.92"/>
    <path class="cls-10" d="m73.77,161.28l-.14-.41,1.21-.43c.61.75-.66,1.55-1.07.84m-1.2,2.17l1.2-1.12c2.5,1.11,2.08-1.68,1.29-3.13l-3.61,1.28.37,1.05,1.19-.42.15.43-1.02.9.37,1.04h.07Z"/>
    <path class="cls-10" d="m72.92,156.73l-1.27,1.3-.44-.71,1.69-.63.02.04Zm-1.63,3.24l2.67-2.95-.83-1.32-3.78,1.19.58.92.66-.24.59.93-.5.5.61.97Z"/>
    <polygon class="cls-10" points="69.02 156.45 71.51 153.53 70.77 152.89 69.27 154.65 69.23 154.61 69.83 152.09 68.96 151.35 66.47 154.26 67.21 154.9 68.68 153.17 68.72 153.21 68.22 155.76 69.02 156.45"/>
    <path class="cls-10" d="m42.97,169.64l-1.02.18c-.53-1.26,1.07-1.57,1.02-.18Zm-1.59.29l-.98.18c-.49-1.18,1.04-1.42.98-.18Zm2.38.65c-.17-.62-.23-2.36-.79-2.74-.52-.46-1.71-.15-1.68.64h-.03c-1.98-1.61-1.66,1.64-1.27,2.78l3.77-.68Z"/>
    <path class="cls-10" d="m41.22,164.82c.19.14.08.56.07.76l-1.28-.11c-.15-.8.65-1.01,1.2-.65m-1.92,1.71l3.82.32.09-1.11-1.26-.1.04-.45,1.3-.4.09-1.09-.07-.02-1.55.53c-1.82-2.04-2.59.68-2.47,2.33Z"/>
    <path class="cls-10" d="m42.55,161.64l-1.56-.9v-.04s1.82.15,1.82.15l-.26.79Zm-2.48-.43l3.33,2.14.34-1.03-.61-.35.34-1.05.71.06.35-1.09-3.98-.16-.48,1.49Z"/>
    <path class="cls-10" d="m43.59,158.75c1.14.98,2.64-.62,2.51-1.82-.03-.88-2.14-1.8-2.72-2.3l-.61.93c.35.44,2.97,1.39,2.36,2.21-.51.89-2.44-1.15-2.97-1.3l-.61.93,2.04,1.34Z"/>
    <polygon class="cls-10" points="44.67 153.2 47.14 156.14 49.14 154.46 48.71 153.94 47.54 154.92 46.95 154.21 47.88 153.43 47.46 152.92 46.52 153.7 45.94 153.01 47.06 152.07 46.63 151.55 44.67 153.2"/>
    <path class="cls-10" d="m49.77,151.76l-.58-1.15c.92-.81,1.77.89.58,1.15Zm-1.85-1.21l1.72,3.43.99-.5-.57-1.13.41-.2,1.02.9.98-.49v-.07s-1.28-1.05-1.28-1.05c.79-2.62-1.93-1.85-3.27-.89Z"/>
    <polygon class="cls-10" points="52.16 148.59 53.06 152.31 55.6 151.7 55.44 151.05 53.97 151.4 53.75 150.51 54.93 150.23 54.78 149.58 53.59 149.86 53.38 148.99 54.81 148.64 54.65 147.99 52.16 148.59"/>
    <rect class="cls-8" x="56.11" y="147.78" width="1.11" height="3.83" transform="translate(-12.19 5.2) rotate(-4.75)"/>
    <path class="cls-10" d="m60.71,150.19l.28-1.55c1.31-.13.9,2.14-.28,1.55Zm-.69-2.37l-.69,3.77,1.09.2.18-.98c1.65.77,3.16-1.29,1.73-2.41-.47-.35-1.75-.44-2.31-.58Z"/>
    <path class="cls-10" d="m64.52,151.59l.49-.97c.38-.93,1.54-.36,1.02.51,0,0-.49.98-.49.98-.38.95-1.54.36-1.02-.51m-.96-.61c-1.1,2.44,3.01,3.42,3.42.78,1.11-2.44-3.01-3.41-3.42-.78Z"/>
    <path class="cls-10" d="m59.86,158.33l3.38-1.98c.08.04.15.09.23.13l-3.49,2.05-.11-.2Zm-.21-.36l3.16-1.86c.08.04.16.09.24.13l-3.28,1.93-.12-.2Zm6.07,10.59l3.24-1.91c0,.09,0,.19-.01.28l-3.11,1.83-.12-.2Zm-.2-.35l3.45-2.05c0,.1,0,.19,0,.29l-3.33,1.96-.11-.2Zm1.83,3.19l.56-.34c-.11.24-.23.47-.36.7l-.21-.36Zm-.19-.34l1.02-.61c-.04.11-.09.22-.13.32l-.78.47-.1-.18Zm-.21-.36l1.45-.86c-.04.12-.08.25-.13.37l-1.2.7-.12-.21Zm-.21-.36l1.83-1.07c-.03.11-.06.21-.09.32l-1.62.96-.12-.21Zm-.21-.36l2.18-1.29c-.02.11-.05.22-.08.33l-1.98,1.16-.12-.2Zm-.2-.35l2.48-1.46c-.02.09-.03.19-.05.28l-2.31,1.37-.11-.2Zm-.19-.34l2.74-1.62c-.01.09-.02.18-.04.26l-2.6,1.53-.1-.18Zm-.21-.37l3-1.77c0,.1-.02.2-.03.29l-2.86,1.68-.12-.21Zm-8.24,8.75v-2.6h.27v2.59c-.09,0-.18,0-.27,0Zm1.29-3.96v-1.37s.26,0,.26,0v1.32c-.09,0-.18.01-.26.05Zm-.41,3.92v-2.55h.23v2.53c-.08,0-.15.02-.23.02Zm-.25-2.55v-.93c.15-.11.03.89.07.93h0v2.57c-.08,0-.16.01-.24.01v-2.58s.17,0,.17,0Zm-.18-1.38v-1.35s.25,0,.25,0v1.33s-.09.02-.13.04v-.03h-.13Zm-.44-1.35h.26v1.35s-.26,0-.26,0v-1.35Zm1.71,5.18v-2.45h.29v2.4c-.1.02-.19.04-.29.05Zm-.39-3.31s0-.05,0-.07c.14-.09.03.89.06.93h.15v2.48c-.08.01-.17.02-.25.03v-2.51s.04,0,.04,0v-.86Zm-.17-.28c.76-.63.83.51.76,1.03h-.41c-.05-.17.17-1.21-.29-.87.02.07,0,.79,0,.87h-.41c-.04-.16.16-1.24-.29-.86v.86h-.41v-1.16h.36v.13h.01c.14-.2.55-.23.68,0Zm-.28-1.59h.23v1.38c-.06-.04-.14-.06-.23-.07v-1.32Zm1.74,4.99v-2.25s.09-.03.13-.05v.04h.1v2.2c-.08.02-.16.04-.23.06Zm-.43-2.3c.08.05.16.07.25.07v2.27c-.09.02-.17.04-.25.05v-2.4Zm1.27,2.06v-2.02h.27v1.92c-.09.03-.18.06-.27.1Zm-.42-2.02h.25v2.08c-.08.03-.16.05-.25.07v-2.15Zm-.78-1.26c.89-.31,1.04.45.94,1.15h-.35l-.02-.11h-.02c-.8.62-.99-.88-.03-.57.05-.32-.3-.25-.51-.22l-.02-.25Zm-.06-.1v-1.37s.26,0,.26,0v1.32c-.09,0-.18.02-.26.05Zm-.47-1.37h.29v1.71c-.03-.18-.13-.31-.29-.36v-1.35Zm.91,1.32v-1.32h.23v1.33c-.08-.01-.15-.02-.23-.02Zm1.68,3.11v-1.7h.25v1.59c-.08.04-.17.07-.25.11Zm-.34-1.7v-.79c.06-.02.11-.03.17-.03v2.59c-.09.03-.17.06-.25.1v-1.87h.09Zm-.51-1.27h.36v.24h.01c.07-.15.21-.29.37-.27v.37c-.11,0-.25.01-.35.07v.75h-.41v-1.16h.02Zm0-.11v-1.35h.26v1.35s-.26,0-.26,0Zm-.43-1.35h.26v1.69c-.03-.13-.13-.25-.25-.31v-1.38Zm1.29.89v-.89h.23v.89s-.23,0-.23,0Zm.81,3.15v-1.31h.24v1.18c-.08.05-.16.09-.24.13Zm-.4-1.31h.2v-.28s0,1.64.01,1.68c-.07.04-.14.07-.22.11v-1.51Zm-.83-2.73h.24v1.32c-.08,0-.15.03-.21.08v-.05h-.04v-1.35Zm2.06,3.56v-.85c.08.03.17.04.26.05v.63c-.08.06-.17.11-.26.17Zm-.83-2.1h.42c-.07.13-.23.41-.3.54.07.16.26.46.31.63h-.43c-.03-.08-.19-.42-.23-.49h-.08v.49h-.41v-1.62h.41v.92h.08c.03-.06.18-.4.21-.47h.01Zm-.4-.57v-.89s.23,0,.23,0c-.02.05.03,1.56-.02,1.59v-.7h-.21Zm1.64,2.4v-.53c.07,0,.14,0,.21-.02v.4c-.07.05-.14.1-.21.15Zm.45-.62l.02-.43h.03c0-.21.04-.52-.1-.7v-1.54h.25v2.8c-.08.07-.17.14-.26.2v-.32s.06-.02.06-.02Zm-1.16-.73c.13-.92,1.31-.53,1.09.18h-.68c-.04.34.43.29.65.23v.24c-.5.19-1.2,0-1.06-.65Zm-.11-.6v-1.35s.24,0,.24,0v1.43c-.33.26-.34.94,0,1.19v1.05c-.08.05-.15.09-.23.13v-1.08s.13,0,.13,0c-.09-.46-.29-.94.07-1.38h-.2Zm2.04.96v-2.31h.24v2.08c-.08.08-.16.16-.24.23Zm-.4.35v-2.66s.22,0,.22,0v2.47c-.08.06-.15.13-.22.19Zm1.23-1.2v-1.46h.25v1.16c-.08.1-.16.2-.25.3Zm-.41-1.46h.24v1.66c-.08.08-.16.16-.23.24v-1.9Zm1.22.43v-.43h.29c-.09.15-.19.29-.29.43Zm-.39.53v-.96h.21v.68c-.07.09-.14.18-.21.27Zm-1.47-1.83l.72-1.1.63,1.1h-1.35Zm-2.23,2.22v-1.35h.24v1.35s-.24,0-.24,0Zm1.25-.02v-1.33h.22v1.39c-.07-.03-.14-.05-.22-.06Zm-.41-1.33h.24v1.32c-.08,0-.17,0-.24.03v-1.35Zm-16.32-.95l.49.29-.17.29c-.11-.19-.22-.39-.32-.59Zm-.31-.66l.99.61-.1.18-.72-.43c-.06-.12-.11-.24-.16-.36Zm-.24-.6l1.43.85-.12.21-1.17-.68c-.05-.12-.1-.25-.14-.38Zm-.19-.59l1.83,1.08-.12.2-1.61-.96c-.04-.11-.07-.22-.1-.32Zm-.16-.59l2.2,1.3-.12.21-1.99-1.18c-.03-.11-.06-.22-.09-.34Zm-.12-.53l2.52,1.48-.11.2-2.34-1.39c-.02-.1-.04-.19-.06-.29Zm-.09-.5l2.79,1.65-.1.18-2.65-1.56c-.02-.09-.03-.18-.04-.27Zm-.06-.52l3.07,1.8-.12.21-2.91-1.72c-.01-.1-.02-.2-.03-.3Zm-.04-.51l3.31,1.95-.12.2-3.18-1.87c0-.1-.01-.19-.02-.29Zm-.02-.5l3.53,2.1-.11.2-3.41-2.01c0-.1,0-.19,0-.29Zm2.25,5.95v.72c-.17-.23-.33-.48-.49-.72h.49Zm.18,0h.21v1.22c-.06-.08-.13-.17-.2-.26v-.96Zm.38,0h.24v1.69c-.08-.09-.17-.19-.25-.28v-1.41Zm.42,0h.24v2.1c-.08-.07-.16-.15-.23-.23v-1.88Zm.1-1.86l.65.99h-1.22l.57-.99Zm.55,1.86v2.49c-.08-.07-.16-.15-.24-.22v-2.27h.24Zm.4,0v2.83c-.08-.06-.15-.12-.22-.18v-2.65s.22,0,.22,0Zm.42,0v1.07c-.27.16-.28.69.01.87v.28s-.16-.06-.2-.07v.51c.06.03.14.05.2.07v.44s.18.12.18.12v-.53c.07,0,.14,0,.21,0v.67c-.22-.15-.43-.3-.64-.46v-2.97h.24Zm.18,0h.21v.96c-.07,0-.14.02-.2.04v-.99Zm.87,2.34c.03.12.09.21.17.27v1.31c-.08-.04-.15-.08-.23-.13v-1.3s.04-.09.06-.15Zm-.24.32v1.03c-.08-.05-.17-.11-.26-.16v-.79c.1-.02.18-.04.26-.08Zm.59.06c.08.03.17.04.27.05v1.4c-.09-.05-.18-.09-.27-.14v-1.3Zm.45.04c.08,0,.16-.03.24-.06v1.66c-.08-.04-.16-.07-.24-.11v-1.49Zm.42-.02h.22v1.79c-.07-.03-.15-.06-.22-.09v-1.7Zm.4,0h.12v-.92c.19-.14.04.88.09.92h.04v1.95c-.08-.03-.16-.06-.24-.09v-1.86Zm.42,0h.24v2.09c-.07-.03-.16-.05-.24-.08v-2.01Zm-1.24-2.73h.23v1.36c-.08-.02-.16-.03-.24-.04v-1.32Zm.82,0h.23v1.33s-.08.02-.12.04v-.47h-.12v-.89Zm.41,0h.24v1.4c-.06-.05-.14-.08-.24-.08v-1.32Zm1.29,1.35v-1.35h.23v1.35s-.23,0-.23,0Zm.41,0v-1.35s.26,0,.26,0v.89h-.12c.04.25-.11,1.58.12,1.75v2.57c-.09-.01-.17-.03-.25-.04v-2.44s.09,0,.09,0v-1.38h-.1Zm-.77,1.42c.06,0,.13,0,.18-.02v2.31c-.08-.02-.16-.04-.24-.06v-2.23s.04,0,.06,0Zm-.07-2.76h.26v2.28s0-.89-.02-.93h-.23v-1.35Zm.43,5.09v-2.36h.23v2.4c-.08-.01-.16-.03-.23-.05Zm-2.28-3.25v.4c-.08.02-.16.05-.24.05v-.48c.07,0,.17.03.24.04h0Zm-1.69.33v.08c-.06.02-.14.01-.21,0v-.2c.06.04.15.07.21.11Zm.18-.73c.08,0,.16,0,.23.03v.21c-.08-.06-.16-.09-.25-.14v-.1s.01,0,.02,0Zm-.02-.38c.12,0,.23.02.35.06l-.04.25c-.71-.16-.59.23-.06.46.53.6-.37,1.02-.89.75v-.27c1.79.35-1.32-1.08.64-1.24Zm.24-1.06v.98c-.08-.02-.16-.02-.24-.03v-.95h.24Zm.33,1.94c-.03-.51.52-.58.9-.47l-.04.25c-.63-.25-.59.95.04.65v.24c-.51.18-1.01-.1-.89-.67Zm.08-1.94v1.46c-.13.1-.2.26-.2.48-.01-.03-.02-.05-.04-.08,0-.19,0-.64.04-.82h-.04s0-1.04,0-1.04h.24Zm.18,0h.27v1.32c-.1,0-.19.02-.27.04v-1.36Zm.86,1h.41v.56h.01c.76-.58.75.59.71,1.06h-.41c-.04-.18.16-1.24-.31-.86v.86h-.41v-1.62h0Zm0-1h.23v.89h-.22v-.89Zm1.38,1.46h.41c.04.17-.16,1.22.29.87v-.87h.42v1.16h-.35l-.02-.12h-.02c-.76.62-.78-.55-.73-1.04Zm-.15-1.46h.26v1.35s-.22,0-.22,0c.04.32-.15,1.2.23,1.36v2.24c-.09-.02-.18-.05-.27-.08v-2.14h.02c0-.64-.02-2.08,0-2.73Zm1.72,2.74c.07.02.16.03.24.02v2.5c-.08,0-.16-.02-.24-.03v-2.49Zm.42,2.54v-2.56s.03-.01.03-.01v.03h.19v2.57c-.07,0-.15-.01-.22-.02Zm-.57-4.28h.37c.06.12-.16,1.48.15,1.4v.22c-.84.37-.42-1.3-.52-1.62Zm.15-1h.23v.89s-.23,0-.23,0v-.89Zm.82,5.31v-2.58h.24v2.59c-.08,0-.16,0-.24-.01Zm-.4-5.31h.23v1.35h-.2v.49h.2v.23s-.16.23-.16.23h-.06v-2.29Zm.83,5.33v-2.6s.23,0,.23,0v2.6c-.07,0-.15,0-.23,0Zm0-3.08l.23-.33v.33s-.23,0-.23,0Zm-.43-.79h.68v.24c-.12.18-.34.49-.46.66h.49v.26h-.96v-.25c.13-.18.32-.46.45-.65h-.46v-.27h.27Zm0-.11v-1.35h.23v1.35s-.23,0-.23,0Zm.41,0v-1.35s.24,0,.24,0v1.35s-.24,0-.24,0Zm-4.22-9.49l4.5,1.26v6.01h-2.79v-.02h-.18v.02h-4.25l-.78-1.18,3.49-6.1Zm2.52-9.2c.11-.02.22-.04.33-.05l1.14.65-.11.2-1.35-.8Zm1.56.44l-.91-.54c.13-.01.25-.03.38-.04l.64.37-.12.2Zm.82-.42l-.11-.19c.13,0,.27,0,.4.02l-.29.17Zm1.48,2.58l2.92-1.71c.09.04.17.08.26.12l-3.06,1.8-.12-.21Zm-.2-.35l2.66-1.57c.09.04.17.07.25.11l-2.81,1.65-.11-.19Zm-.19-.33l2.39-1.41c.08.03.17.06.25.09l-2.54,1.49-.1-.18Zm-.2-.36l2.11-1.22c.09.03.18.06.27.09l-2.26,1.33-.11-.2Zm-.2-.34l1.78-1.03c.09.02.18.05.26.07l-1.94,1.14-.11-.19Zm-.2-.34l1.42-.82c.09.02.18.04.27.06l-1.59.94-.1-.18Zm-.2-.35l1-.57c.11.02.22.03.32.05l-1.21.71-.11-.19Zm-.2-.35l.53-.31c.11.01.23.02.34.04l-.77.46-.11-.18Zm-.7-.11l-.39-.23c.18,0,.36-.01.54-.01l-.14.25Zm.4,10.38l4.49-1.26,3.43,5.98-.85,1.29h-7.07v-6.01Zm7.57,2.41l3.63-2.16c0,.08,0,.16,0,.24l-3.53,2.1-.1-.18Zm-.21-.36l3.81-2.25c0,.09.01.18.02.27l-3.71,2.18-.12-.21Zm-.21-.36l3.97-2.34c.01.09.02.17.03.26l-3.88,2.29-.12-.21Zm-.21-.36l4.11-2.42c.01.08.03.17.04.25l-4.03,2.38-.12-.2Zm-.2-.35l4.23-2.49c.02.08.03.16.05.24l-4.16,2.45-.11-.2Zm-.19-.34l4.33-2.55c.02.07.03.14.05.21l-4.28,2.52-.1-.18Zm-.21-.36l4.43-2.61c.02.08.04.16.07.24l-4.38,2.58-.12-.21Zm-.21-.36l4.51-2.66c.02.08.05.15.07.23l-4.47,2.63-.12-.2Zm-.2-.35l4.58-2.7c.03.07.05.14.08.22l-4.54,2.68-.11-.2Zm-.19-.34l4.63-2.73c.03.07.05.13.08.2l-4.6,2.71-.1-.18Zm-.21-.36l4.67-2.75c.03.07.06.14.09.22l-4.65,2.74-.12-.2Zm-.21-.36l4.7-2.77c.03.07.07.14.1.21l-4.69,2.76-.12-.2Zm-.2-.35l4.72-2.78c.04.07.07.13.11.2l-4.71,2.78-.11-.2Zm-.19-.34l4.72-2.78c.03.06.07.12.1.18l-4.72,2.78s-.09-.16-.1-.18Zm-.21-.36l4.71-2.78c.04.07.08.14.13.2l-4.72,2.78-.12-.21Zm-.21-.36l4.69-2.76c.04.06.09.13.13.19l-4.7,2.77-.12-.2Zm-.2-.35l4.65-2.74c.05.06.09.12.13.18l-4.67,2.76-.11-.2Zm-.19-.34l4.61-2.72c.04.06.09.11.13.17l-4.63,2.73-.1-.18Zm-.21-.36l4.55-2.68c.05.06.1.12.16.19l-4.58,2.7-.12-.21Zm-.21-.36l4.47-2.64c.05.06.11.12.16.18l-4.52,2.66-.12-.2Zm-.21-.37l4.38-2.58c.06.06.12.12.17.18l-4.43,2.62-.12-.21Zm-.18-.31l4.28-2.55c.05.05.1.1.16.15l-4.33,2.58-.11-.18Zm-.21-.37l4.17-2.46c.06.05.12.11.18.16l-4.23,2.52-.13-.22Zm-.21-.37l4.05-2.38c.06.05.13.11.19.16l-4.12,2.43-.12-.21Zm-.21-.37l3.9-2.29c.07.05.14.11.21.16l-3.99,2.34-.12-.21Zm-.19-.33l3.75-2.2c.06.04.12.08.18.13l-3.83,2.25-.1-.18Zm-.2-.36l3.57-2.1c.07.05.15.09.22.14l-3.67,2.16-.12-.2Zm-13.93,7.26l3.72,2.22-.1.18-3.62-2.16c0-.08,0-.16,0-.24Zm.02-.45l3.91,2.31-.12.21-3.8-2.24c0-.09,0-.18.01-.28Zm.04-.46l4.08,2.4-.12.21-3.98-2.35c0-.09.02-.17.02-.26Zm.06-.45l4.23,2.49-.12.2-4.15-2.44c.01-.08.02-.17.03-.25Zm.07-.43l4.36,2.57-.11.2-4.29-2.53c.01-.08.03-.16.04-.24Zm.08-.4l4.47,2.63-.1.18-4.41-2.6c.01-.07.03-.14.05-.22Zm.1-.43l4.57,2.7-.12.21-4.52-2.66c.02-.08.04-.16.06-.24Zm.12-.41l4.66,2.75-.12.2-4.61-2.72c.02-.08.04-.15.07-.23Zm6.65.91l3.64-6.35h1.48c.15.25,3.6,6.29,3.75,6.54l-4.49,1.26-4.5-1.26.11-.19Zm3.75-6.55l.63-1.1.63,1.1h-1.26Zm-1.74-2.23l1.56.9-.1.18-1.73-1.02c.09-.02.18-.04.27-.06Zm-8.54,7.47l4.74,2.79-.11.2-4.7-2.77c.02-.07.05-.15.07-.22Zm.14-.37l4.79,2.83-.1.18-4.76-2.81c.02-.07.05-.13.07-.2Zm.16-.39l4.84,2.85-.12.2-4.82-2.84c.03-.07.06-.15.09-.22Zm.17-.38l4.88,2.88-.12.2-4.86-2.86c.03-.07.06-.14.1-.21Zm.18-.36l4.9,2.89-.11.2-4.89-2.88c.03-.07.07-.14.1-.2Zm.18-.34l4.91,2.89-.1.18-4.9-2.89c.03-.06.07-.12.1-.18Zm.21-.36l4.91,2.89-.12.21-4.91-2.89c.04-.07.08-.14.12-.21Zm.22-.35l4.89,2.88-.12.2-4.9-2.89c.04-.07.08-.13.13-.2Zm.23-.34l4.86,2.87-.11.2-4.88-2.88c.04-.06.09-.12.13-.19Zm.23-.31l4.82,2.84-.1.18-4.85-2.86c.04-.06.08-.11.13-.17Zm.26-.33l4.77,2.81-.12.21-4.8-2.83c.05-.06.1-.13.15-.19Zm.28-.32l4.7,2.78-.12.2-4.74-2.79c.05-.06.11-.12.16-.18Zm.29-.32l4.62,2.72-.12.21-4.66-2.76c.06-.06.11-.12.17-.18Zm.28-.28l4.52,2.69-.11.19-4.57-2.72c.05-.05.1-.1.15-.15Zm.3-.28l4.43,2.61-.12.2-4.47-2.66c.05-.05.11-.1.16-.15Zm.31-.27l4.31,2.54-.11.2-4.38-2.58c.06-.05.12-.1.17-.15Zm.31-.25l4.19,2.46-.1.17-4.26-2.5c.05-.04.11-.09.16-.13Zm.33-.25l4.05,2.38-.1.18-4.13-2.42c.06-.04.12-.09.18-.13Zm.35-.25l3.89,2.29-.1.18-3.98-2.34c.06-.04.13-.09.19-.13Zm.33-.21l3.74,2.2-.09.15-3.81-2.24c.05-.04.11-.07.16-.1Zm.4-.24l3.54,2.08-.11.2-3.65-2.15c.08-.05.15-.09.23-.13Zm.42-.23l3.32,1.95-.11.2-3.45-2.03c.08-.04.16-.08.24-.12Zm.45-.22l3.08,1.81-.12.21-3.22-1.89c.09-.04.17-.08.26-.12Zm.46-.2l2.82,1.66-.11.19-2.97-1.74c.08-.04.17-.07.26-.11Zm.46-.18l2.55,1.5-.1.18-2.7-1.59c.08-.03.17-.06.25-.09Zm.48-.16l2.27,1.31-.11.2-2.42-1.43c.09-.03.17-.06.26-.08Zm.54-.15l1.93,1.11-.11.19-2.1-1.23c.09-.03.18-.05.27-.07Zm2.82-1.38c-5.68,0-10.46,3.8-11.97,8.99h0c-4.59,21,28.82,20.7,23.87-.2h0c-1.03-3.31-3.38-6.04-6.46-7.53h0c-.36-.18-.74-.33-1.11-.48h0c-1.35-.5-2.81-.77-4.33-.77Z"/>
    <path class="cls-10" d="m54.56,168.43v-1.75c1.53-.36,1.5,2.15,0,1.75m-.55-2.01c-.31,0-.6,0-.89-.02v.27c.98-.23.3,2.66.49,3.09-.01.44-.05.49-.49.5v.27c.75-.04,1.28-.04,2.03,0v-.27c-.91.21-.5-1.06-.59-1.55,3.35.39,2.42-3.08-.55-2.29Z"/>
    <path class="cls-10" d="m59.7,167.98c.24.47.77.63,1.33.84,2.2,1.12-1.25,2.24-1.17.09h-.24v1.4h.2l.07-.31c2.75,1.64,4.07-1.66.75-2.46-.71-1.35,1.71-1.35,1.59.01h.22v-1.24h-.21l-.05.25c-1.06-.86-3.18-.1-2.51,1.41"/>
    <path class="cls-10" d="m57.82,163.81c.93-.69-.38-4.05.81-4.21v-.27c-1.01.05-1.11.05-2.03,0v.27c1.14-.32.4,2.52.6,3,.09.56-.08,1.89-.83,1.16.68-.29.06-1.31-.48-.78-.68,1.11,1.37,1.63,1.93.83"/>
    <path class="cls-10" d="m60.34,174.41c-.28.06-.06.47.16.27v-.26s-.11-.01-.16,0"/>
    <path class="cls-10" d="m63.79,174.2v.12h.29c.09-.28-.28-.47-.29-.12"/>
    <path class="cls-10" d="m53.1,174.96v-1.62h.41v.56h.01c.75-.58.76.58.71,1.06h-.41c-.04-.18.16-1.24-.31-.86v.86h-.41Zm-.6-.49c-.07-.33.15-.38.42-.28l.06-.38v.75c-.15.03-.5.18-.48-.09Zm-.53.01c-.12-.58.37-.84.9-.68l-.04.25c-.63-.24-.6.94.04.65v.24c-.4.13-.93,0-.89-.46Zm-.23-1.02l-.04.25c-.92-.13-.38.27.03.54.34.61-.47.89-.97.67v-.27c1.85.44-1.63-1.41.98-1.19Zm.08.74c-.12-.19-.38-.24-.53-.39.16-.05.34,0,.51.04l.07-.47c-.83-.45-1.84.54-.78,1.05.46.25-.27.18-.44.06v.51c.4.17,1.12.18,1.24-.31.09.44.7.5,1.08.35l.02-.41v.45h.64v-.92c.19-.14.05.88.09.92h.64c0-.51.17-1.71-.72-1.37v-.47h-.64v.49c-.48-.15-1.15-.08-1.12.56-.01-.03-.03-.06-.04-.08Z"/>
    <path class="cls-10" d="m54.49,174.59v-.79h.42c.04.17-.16,1.22.29.87v-.87h.41v1.16h-.35l-.02-.12h-.02c-.23.26-.77.2-.73-.26m-.11-.9c0,.53-.15,1.77.77,1.35v.04h.57v-1.39h-.64v.93c-.15.09-.03-.89-.07-.93h-.64Z"/>
    <path class="cls-10" d="m60.48,174.29c.05-.31-.29-.26-.51-.22l-.02-.25c.89-.31,1.04.45.94,1.15h-.35l-.02-.11h-.02c-.78.61-1.01-.88-.03-.57m-2.68.68v-1.16h.36v.13h.01c.14-.2.56-.23.68,0,.76-.63.83.51.76,1.03h-.41c-.05-.17.17-1.21-.29-.87.02.07,0,.79,0,.87h-.41c-.04-.17.16-1.24-.29-.86v.86h-.41Zm-1.18-.25l.45-.65h-.46v-.27h.94v.24l-.46.66h.49v.26h-.96v-.25Zm-.75-.06v-1.31h.41c.07.12-.16,1.48.15,1.4v.22c-.25.09-.59,0-.56-.31Zm-.11-1.42c.07.51-.34,2.28.75,1.81v.03h1.82v-.93c.15-.12.03.89.07.93h.64s0-.9,0-.93c.14-.09.03.89.06.93h.64v-.24c.1.28.49.33.73.2v.04h.55c.11-.89-.06-1.73-1.17-1.35l.03.47c.15-.03.3-.06.46-.04-.26-.02-.52.06-.6.29.11-.55-.34-1.03-.86-.67-.15-.14-.41-.15-.6-.06v-.02h-.58v.9h-.39l.36-.52v-.38h-1.17v.49h.36l-.32.46s-.13,0-.14,0c0-.03,0-1.37,0-1.4h-.64Z"/>
    <path class="cls-10" d="m60.48,174.29c.05-.31-.29-.26-.51-.22l-.02-.25c.89-.31,1.04.45.94,1.15h-.35l-.02-.11h-.02c-.78.61-1.01-.88-.03-.57m-2.68.68v-1.16h.36v.13h.01c.14-.2.56-.23.68,0,.76-.63.83.51.76,1.03h-.41c-.05-.17.17-1.21-.29-.87.02.07,0,.79,0,.87h-.41c-.04-.17.16-1.24-.29-.86v.86h-.41Zm-1.19-1.16h.94v.24l-.46.66h.49v.26h-.96v-.25l.45-.65h-.46v-.27Zm-.33-.46c.07.12-.16,1.48.15,1.4v.22c-.89.33-.47-1.24-.56-1.62h.41Zm.22.34v.49h.36l-.32.46s-.13,0-.14,0c0-.03,0-1.37,0-1.4h-.64c.07.51-.34,2.28.75,1.81v.03h1.82v-.93c.15-.12.03.89.07.93h.64s0-.9,0-.93c.14-.09.03.89.06.93h.64v-.24c.1.28.49.33.73.2v.04h.55c.11-.89-.06-1.73-1.17-1.35l.03.47c.15-.03.3-.06.46-.04-.26-.02-.52.06-.6.29.11-.55-.34-1.03-.86-.67-.15-.14-.41-.15-.6-.06v-.02h-.58v.9h-.39l.36-.52v-.38h-1.17Z"/>
    <path class="cls-10" d="m62.12,174.96v-1.62h.41v.92h.08l.21-.47h.43l-.3.54s.33.6.31.63h-.43l-.23-.49h-.08v.49h-.41Zm-.97-1.16h.38v.24h.01c.09-.19.21-.28.38-.27v.37c-.1,0-.26.02-.35.07v.75h-.41v-1.16Zm-.11-.11v1.39h.64v-.79c.11-.03.22-.03.33-.03v.82h.64v-.28l.13.28h.62c.06-.13-.24-.62-.29-.74l.36-.65h-.7l-.11.25v-.7h-.64v.44c-.12-.02-.27-.01-.37.07v-.05h-.6Z"/>
    <path class="cls-10" d="m63.92,174.58h.52c-.17.04-.37.1-.52,0m-.41-.68c.44-.34,1.1-.04.95.56h-.68c-.03.34.4.29.65.23v.24c-.72.33-1.41-.38-.92-1.03Zm-.08-.08c-.61.77.27,1.62,1.1,1.19l.02-.43h.03c.18-.72-.56-1.22-1.14-.76Z"/>
    <path class="cls-10" d="m60.48,174.72v-.26c-.38-.15-.35.49,0,.26"/>
    <path class="cls-10" d="m63.78,174.17v.12h.29c.09-.28-.28-.47-.29-.12"/>
    <path class="cls-7" d="m51.73,174.26c-.41-.28-.95-.68-.03-.54l.04-.25c-2.62-.22.87,1.62-.98,1.19v.27c.5.22,1.31-.06.97-.67"/>
    <path class="cls-7" d="m52.53,173.77c-.98,0-.59,1.62.33,1.18v-.24c-.63.29-.66-.9-.03-.65l.04-.25c-.11-.03-.22-.04-.35-.04"/>
    <path class="cls-7" d="m53.1,173.35v1.62h.41v-.86c.47-.38.27.68.31.86h.41c.05-.48.04-1.64-.71-1.05h-.01v-.57h-.41Z"/>
    <path class="cls-7" d="m54.49,173.8c-.05.49-.03,1.66.73,1.04h.02s.02.12.02.12h.35v-1.16h-.41v.87c-.45.35-.25-.7-.29-.87h-.42Z"/>
    <path class="cls-7" d="m55.87,173.35c.09.38-.33,1.95.55,1.62v-.22c-.29.08-.07-1.29-.14-1.4h-.41Z"/>
    <polygon class="cls-7" points="56.61 173.8 56.61 174.07 57.07 174.07 56.62 174.71 56.62 174.96 57.58 174.96 57.58 174.7 57.09 174.7 57.55 174.04 57.55 173.8 56.61 173.8"/>
    <path class="cls-7" d="m57.8,173.8v1.16h.41v-.86c.45-.38.25.7.29.86h.41c0-.09,0-.8,0-.87.47-.34.25.7.29.87h.41c.06-.52,0-1.66-.76-1.03-.12-.24-.54-.21-.68,0h-.01v-.13h-.36Z"/>
    <path class="cls-7" d="m60.48,174.46v.26c-.35.23-.38-.41,0-.26m-.23-.42c.19,0,.25.08.23.25-.99-.31-.75,1.18.03.57h.02s.02.11.02.11h.35c.1-.7-.05-1.46-.94-1.15l.02.25c.1-.02.19-.02.28-.02Z"/>
    <path class="cls-7" d="m61.15,173.8v1.16h.41v-.75c.09-.05.25-.07.35-.07v-.37c-.16-.02-.28.07-.38.27h-.01v-.25h-.38Z"/>
    <path class="cls-7" d="m62.12,173.35v1.62h.41v-.49h.08l.23.49h.43s-.31-.6-.31-.63l.3-.54h-.43l-.21.47h-.08v-.92h-.41Z"/>
    <path class="cls-7" d="m63.78,174.29c-.09-.4.38-.4.29,0h-.29Zm-.27-.38c-.49.65.2,1.36.91,1.03v-.24c-.23.06-.66.11-.64-.23h.68c.15-.61-.52-.9-.95-.56Z"/>
    <path class="cls-7" d="m74.81,146.69l-17.11-6.73-18.3,7.76-7.73,18.63.29.77,6.66,17.76,19.19,8.2,19.32-7.95,7.65-18.69-8.17-19.04-1.79-.7Zm-33.45,2.97l16.38-6.95c2.23.88,15.03,5.91,16.93,6.66l7.33,17.08-6.84,16.71-17.34,7.14-17.2-7.35-6.21-16.56.23-.56,6.71-16.17Z"/>
    <path class="cls-7" d="m38.6,184.87l-6.66-17.76-21.35,10.17v39.09h94.22v-83.99l-30.01,14.3,1.79.7,8.17,19.04-7.65,18.69-19.32,7.95-19.19-8.2Z"/>
    <path class="cls-10" d="m10.6,177.29l21.06-10.94,7.73-18.63,18.3-7.76,17.11,6.73,30.01-14.3V23.18c-.13-4.73-9.61-9.16-9.09-16.02l-76.08-.09c.02,6.41-9.15,11.34-9.04,16.11v154.11Z"/>
    <path class="cls-8" d="m22.4,206.28l-.39.37c-2.37-1.95-2.36,3.1,0,1.15l.38.39c-3.66,2.68-3.54-4.65.01-1.91m-4.46-.51h.55v2.38h.82v.53h-1.37v-2.91Zm-1.82.77l-.39,1h.79l-.39-1Zm-.28-.77h.56l1.12,2.91h-.58l-.23-.6h-1.19l-.23.6h-.58l1.13-2.91Zm7.16-2.95c-.44,0-.44.68,0,.67.43,0,.43-.68,0-.67Zm0-.36c.9-.02.9,1.41,0,1.39-.9.02-.9-1.41,0-1.39Zm-1.93-1.31c-.43,0-.43.68,0,.67.43,0,.43-.68,0-.67Zm1.89-.42h.4l-2.31,3.24h-.4l1.98-2.78c-.32.05-.6.08-.91.05.26,2.07-2.68.11-.67-.45.63.09,1.34.25,1.92-.06Zm-4.27.13h1.36v.51h-.95l-.12.53c2.56-.05,0,3.56-.88,1.14h.58c.88,1.14,1.24-1.34.1-.47l-.45-.1.35-1.62Zm-1.28,2.36l.39.19-.49.83-.27-.13.37-.9Zm-1.45-.56v-.98l-.67.98h.67Zm0-1.88h.55v1.88h.26v.51h-.26v.6h-.54v-.6h-1.27v-.51l1.27-1.88Z"/>
    <path class="cls-8" d="m91.54,200.58h1.4v.52h-.97l-.12.55c2.62-.05,0,3.66-.9,1.17h.6c.9,1.17,1.28-1.37.1-.48l-.46-.1.36-1.66Zm6.05,5.05h.57v2.45h.84v.54h-1.4v-2.99Zm-2.09.48c-1.29-.03-1.27,2.07.01,2.03,1.27.02,1.26-2.06-.01-2.03Zm0-.56c2-.04,2.02,3.18,0,3.14-2.04.05-2.03-3.18,0-3.14Zm-4.55.08h.58l.75,2.12.77-2.12h.58l-1.08,2.99h-.55l-1.06-2.99Zm7.47-5.05h.57v2.45h.84v.54h-1.4v-2.99Zm-3.46,0h.55l.7,2.08.7-2.08h.55l.5,2.99h-.55l-.32-1.89-.63,1.89h-.5l-.63-1.89-.33,1.89h-.55l.52-2.99Zm-5.76,0h1.4v.52h-.97l-.12.55c2.62-.05,0,3.66-.9,1.17h.6c.9,1.17,1.28-1.37.1-.48l-.46-.1.36-1.66Zm-2.23.74h-.55c.17-1.65,2.84-.37,1.36.61,1.94.99-1.36,2.85-1.48.74h.56c.38,1.3,1.7-.49.25-.47v-.49c.97.03.28-1.2-.15-.39Z"/>
    <path class="cls-8" d="m68.46,205.8v1.78c1.54.34,1.53-2.06,0-1.78Zm-.53-.52c2.95-.57,2.99,3.43,0,2.82v-2.82Zm-1.77.75l-.38.97h.76l-.38-.97Zm-.27-.75h.54l1.08,2.82h-.56l-.22-.58h-1.15l-.23.58h-.56l1.09-2.82Zm-2.57,1.1c.81.16.8-.74,0-.58v.58Zm-.53-1.1c1.16-.31,2.49.79,1.14,1.56l.66,1.25h-.59l-.63-1.19h-.05v1.19h-.53v-2.82Zm-.73.46l-.38.37c-2.49-1.82-2.07,3.14-.03,1.06h-.82v-.5h1.42c.17,1.52-2.04,2.06-2.73.77-.94-1.58,1.38-3.06,2.53-1.69Zm-5.5-.46h.51l1.21,1.85v-1.85h.53v2.82h-.51l-1.21-1.85v1.85h-.53v-2.82Zm-1.14,0h.53v2.82h-.53v-2.82Zm-2.86,0h.51l1.21,1.85v-1.85h.53v2.82h-.51l-1.21-1.85v1.85h-.53v-2.82Zm-1.14,0h.53v2.82h-.53v-2.82Zm-1.69,0h.53v2.31h.79v.51h-1.32v-2.82Zm-1.77.75l-.38.97h.76l-.38-.97Zm-.27-.75h.54l1.08,2.82h-.56l-.22-.58h-1.15l-.22.58h-.56l1.09-2.82Zm-3.29,0h.54v.97l.76-.97h.65l-.98,1.26,1.08,1.56h-.64l-.87-1.25v1.25h-.54v-2.82Zm24.56-3.27l-.29.73h.57l-.28-.73Zm-.2-.56h.41l.81,2.11h-.42l-.17-.44h-.87l-.17.44h-.42l.82-2.11Zm-1.86,0h.4v2.11h-.4v-2.11Zm-.75.29l-.3.26c-.36-.49-.76-.03-.17.29.67.36.68,1.31-.15,1.32-.32,0-.53-.16-.68-.46l.34-.2c.13.31.53.4.6.08-.03-.27-.67-.61-.73-.8-.44-.73.7-1.17,1.09-.5Zm-1.89,0l-.3.26c-.36-.49-.76-.03-.17.29.67.36.68,1.31-.15,1.32-.32,0-.53-.16-.68-.46l.34-.2c.13.31.53.4.6.08-.03-.27-.67-.61-.73-.8-.45-.73.7-1.17,1.09-.5Zm-3.37-.29h.4c-.23,2.42.85,2.41.62,0h.4c-.08.65.34,2.2-.71,2.17-1.05.03-.64-1.51-.72-2.17Zm-1.63.83c.61.12.6-.55,0-.44v.44Zm-.4-.83c.85-.26,1.86.62.86,1.17l.5.94h-.44l-.47-.89h-.04v.89h-.4v-2.11Zm-3.02,0h.38l.91,1.39v-1.39h.4v2.11h-.38l-.91-1.39v1.39h-.4v-2.11Zm-1.22,0h.4v2.11h-.4v-2.11Zm-2.32,0h1.15v.39h-.75v.38h.75v.39h-.75v.56h.75v.39h-1.15v-2.11Zm-2.02.39v1.33c1.16.26,1.15-1.54,0-1.33Zm-.4-.39c2.22-.43,2.24,2.57,0,2.11v-2.11Zm-1.69.56l-.29.73h.57l-.28-.73Zm-.2-.56h.4l.81,2.11h-.42l-.16-.44h-.87l-.17.44h-.42l.82-2.11Zm-3.45,0h.39l.49,1.47.49-1.47h.39l.35,2.11h-.39l-.23-1.33-.45,1.33h-.35l-.45-1.33-.23,1.33h-.39l.36-2.11Z"/>
    <polygon class="cls-7" points="22.61 130.66 19.28 128.72 19.28 104.13 22.61 102.36 22.61 120.49 26.07 122.5 22.61 124.34 22.61 130.66"/>
    <polygon class="cls-7" points="26.11 122.48 29.44 120.71 29.44 102.39 22.53 98.36 19.29 100.28 26.11 104.27 26.11 122.48"/>
    <polygon class="cls-7" points="41.65 121.23 41.65 124.99 95.64 99.13 91.97 97.13 41.65 121.23"/>
    <polygon class="cls-7" points="31.59 106.68 31.59 116.46 35.04 118.47 38.47 116.65 34.92 114.57 34.92 104.92 31.59 106.68"/>
    <polygon class="cls-7" points="41.85 114.85 41.85 105.08 38.4 103.07 34.97 104.89 38.52 106.96 38.52 116.62 41.85 114.85"/>
    <polygon class="cls-7" points="56.39 94.76 56.39 104.53 59.84 106.54 63.27 104.72 59.73 102.65 59.73 92.99 56.39 94.76"/>
    <polygon class="cls-7" points="66.71 106.66 66.66 93.16 63.21 91.15 59.78 92.97 63.32 95.04 63.32 104.69 66.71 106.66"/>
    <polygon class="cls-7" points="77.14 81.48 77.16 97.84 80.6 99.85 84.03 98.03 80.49 95.96 80.49 86.64 83.95 84.8 80.49 82.79 80.5 79.7 77.14 81.48"/>
    <polygon class="cls-7" points="47.38 112.44 44.05 110.5 44.05 97 47.38 98.95 47.38 112.44"/>
    <polygon class="cls-7" points="88.61 95.85 85.27 93.91 85.28 75.76 88.61 74 88.61 95.85"/>
    <polygon class="cls-7" points="95.62 95.85 95.57 82.35 92.12 80.34 88.69 82.16 92.24 84.23 92.24 93.89 95.62 95.85"/>
    <polygon class="cls-7" points="72.24 103.65 68.9 101.71 68.9 88.31 75.32 85.24 75.34 88.98 72.24 90.47 72.24 103.65"/>
    <polygon class="cls-7" points="54.38 112.67 54.33 99.17 50.88 97.16 47.45 98.98 51 101.05 51 110.71 54.38 112.67"/>
    <polygon class="cls-7" points="40.01 125.78 39.98 120.25 38.67 119.56 37.39 120.18 38.7 120.87 38.7 126.4 40.01 125.78"/>
    <polygon class="cls-7" points="36.14 126.31 37.4 127.02 38.69 126.41 37.45 125.69 36.14 126.31"/>
    <polygon class="cls-7" points="36.09 120.8 36.11 124.19 37.35 124.91 38.65 124.28 37.39 123.57 37.39 120.18 36.09 120.8"/>
    <polygon class="cls-7" points="35.47 127.95 35.45 124.59 34.16 123.88 34.16 128.57 35.47 127.95"/>
    <polygon class="cls-7" points="31.53 121.71 31.55 126.36 32.79 127.08 34.1 126.46 32.84 125.75 32.84 122.41 31.53 121.71"/>
    <polygon class="cls-7" points="30.9 130.13 30.88 126.74 28.31 125.38 28.31 124.51 26.91 125.19 26.92 125.94 29.59 127.35 29.6 130.75 30.9 130.13"/>
    <polygon class="cls-7" points="27.02 127.33 27.04 130.66 28.28 131.38 29.59 130.76 28.33 130.05 28.32 126.71 27.02 127.33"/>
    <polygon class="cls-7" points="30.94 125.46 30.94 124.52 29.68 123.85 28.39 124.47 29.65 125.14 29.65 126.08 30.94 125.46"/>
    <polygon class="cls-7" points="25.7 132.62 25.67 125.84 24.38 125.14 24.39 131.98 25.7 132.62"/>
    <path class="cls-7" d="m48.15,91.74v-10.2c-1.59-.38-.48,10.03-.79,10.57l.79-.38Z"/>
    <path class="cls-7" d="m59.93,81.29v4.82l3.42-1.63c.22-2.41-.08-2.65-3.42-3.19"/>
    <path class="cls-7" d="m50.78,90.43v-9.38c-.74.08-1.39.18-1.92.3v10.06l1.92-.98Z"/>
    <path class="cls-7" d="m61.05,79.31l-.59-.16-.53,2.15c-.43-.07-.87-.13-1.32-.17l.6-2.32-.53-.15.44-4.41c1.35.08,2.6.44,3.74,1.08l-1.81,3.98Z"/>
    <path class="cls-7" d="m52.34,76.53c.16.74-.2,1.62-.84,2.02l.59,2.39c-.44.02-.88.05-1.3.1l-.54-2.17c-1.92-.03-2.09-2.49-2.46-3.86l3.94-.91.6,2.41Z"/>
    <path class="cls-7" d="m51.71,76.57c-.15,3.26-3.22,1.47-3.15-1.05l2.74-.63.42,1.68Z"/>
    <path class="cls-7" d="m48.56,75.52l2.74-.63c1.71,3.93-2.42,4.85-2.74.63m-.77-.49c.37,1.37.54,3.83,2.46,3.86l.54,2.17c.42-.05.85-.09,1.3-.1l-.59-2.39c1.55-.86.51-3.17.24-4.43l-3.94.91Z"/>
    <path class="cls-7" d="m59.93,81.29l.53-2.15.59.16,1.81-3.98c-1.14-.64-2.39-1-3.74-1.08l-.44,4.41.53.15-.6,2.32c.45.04.89.1,1.32.17m.79-2.68l-1.42-.4.31-3.42c.16.02.31.04.46.06l-.2,2.35.24.05.56-2.28c.13.04.29.09.41.13l-.57,2.28.22.08.99-2.1c.12.06.24.12.35.19l-1.35,3.05Z"/>
    <path class="cls-7" d="m54.72,73.47l-1.28-.03v-.73c.34.03.73.24,1.28.22v.55Zm0,1.32l-1.25-.03v-.73l1.25.03v.73Zm0,1.4c-.6,0-1.07-.24-1.25-.85l1.25.03v.82Zm0,.56v4.14c-.94-.01-1.83,0-2.65.05v8.92l6.53-3.12v-5.62c-.8-.09-1.68-.15-2.59-.19v-4.14c3.17.17.74-3.98,2.65-5.25l-.8-.02c-.42.53-.86.96-1.86.86v-.91l-1.29-.03v.91c-.91.02-1.45-.34-1.82-.96l-.81-.02c1.94,1.43-.62,5.3,2.63,5.39Zm1.29-.52v-.82l1.22.03c-.11.52-.55.86-1.22.79Zm0-1.4v-.73l1.22.03v.73l-1.22-.03Zm0-1.32v-.55c.38.03,1.01-.07,1.09-.16h.09v.73l-1.18-.03Z"/>
    <path class="cls-3" d="m77.49,37.55c2.17.37,2.14-1.87,0-1.52v1.52Zm-1.39-2.88c.82,0,2.68-.07,3.22.22,1.61.67,1.53,3.4-.24,3.87l1.74,3.27h-1.53l-1.65-3.11h-.14v3.11h-1.39v-7.35Zm-5.41,0h4.01v1.37h-2.62v1.32h2.62v1.35h-2.62v1.93h2.62v1.37h-4.01v-7.35Zm-2.98,0h1.39v7.35h-1.39v-7.35Zm-4.45,4.14v1.88c2.5.39,2.38-2.2,0-1.88Zm0-2.81v1.56c1.73.32,1.74-1.9,0-1.56Zm-1.39,6.02v-7.35c2.23-.43,5.72.94,3.33,3.31,1.69.62,1.67,3.06.14,3.79-.67.39-2.64.21-3.47.25Zm-1.45-6.35l-1.04.91c-.46-.75-1.49-1.14-1.74-.28-.05.52,1.84,1.77,2.13,2.14,2.83,2.77-2.5,5.6-3.85,2.17l1.18-.71c.45,1.42,2.65,1.15,1.89-.22-1.28-1.29-3.93-2.85-2.14-4.65,1.11-1,2.66-.56,3.56.64Zm-5.32,0l-1.04.91c-.46-.75-1.49-1.14-1.74-.28-.05.52,1.84,1.77,2.13,2.14,2.83,2.77-2.5,5.6-3.85,2.17l1.18-.71c.45,1.42,2.65,1.15,1.89-.22-1.28-1.29-3.94-2.85-2.14-4.65,1.11-1,2.66-.56,3.56.64Zm-6.83-1h1.39v7.35h-1.39v-7.35Zm-5.21,0h4.01v1.37h-2.62v1.32h2.62v1.35h-2.62v1.93h2.62v1.37h-4.01v-7.35Zm-9.78,0h1.37l1.07,4.69,1.31-4.69h1.16l1.34,4.69,1.06-4.69h1.37l-1.67,7.35h-1.34l-1.35-4.75-1.33,4.75h-1.32l-1.67-7.35Z"/>
    <rect class="cls-6" x="45.62" y="45.94" width="23.02" height=".45"/>
    <path class="cls-6" d="m73.15,50.03c.71.14.7-.64,0-.51v.51Zm-.46-.96c.99-.3,2.16.72.99,1.36l.58,1.09h-.51l-.55-1.04h-.05v1.04h-.46v-2.45Zm-1.8,0h1.34v.46h-.88v.44h.88v.45h-.88v.65h.88v.46h-1.34v-2.45Zm-1.78,0h1.34v.46h-.88v.44h.88v.45h-.88v.65h.88v.46h-1.34v-2.45Zm-1.52,1.38v.63c.82.15.78-.75,0-.63Zm0-.94v.52c.58.11.58-.64,0-.52Zm-.46,2.01v-2.45c.74-.16,1.9.34,1.11,1.1,1.16.75-.19,1.62-1.11,1.35Zm-2.63-2.45h1.36v.46h-.45v1.99h-.48v-1.99h-.43v-.46Zm-1.3.65l-.33.84h.66l-.33-.84Zm-.24-.65h.47l.94,2.45h-.49l-.19-.51h-1.01l-.2.51h-.49l.95-2.45Zm-2.52,0h1.34v.46h-.88v.44h.88v.45h-.88v.65h.88v.46h-1.34v-2.45Zm-2.33,0h.48v.93h.82v-.93h.47v2.45h-.47v-1.08h-.82v1.08h-.48v-2.45Zm-3.26,0h.46l.36,1.57.44-1.57h.39l.45,1.57.36-1.57h.46l-.56,2.45h-.45l-.45-1.59-.44,1.59h-.44l-.56-2.45Zm-3.29,0h.44l1.06,1.62v-1.62h.46v2.45h-.45l-1.05-1.61v1.61h-.46v-2.45Zm-1.55.65l-.33.84h.66l-.33-.84Zm-.24-.65h.47l.94,2.45h-.49l-.19-.51h-1.01l-.2.51h-.49l.95-2.45Zm-1.74,0h.46v2.45h-.46v-2.45Zm-.57.4l-.33.33c-2.12-1.63-1.79,2.77-.02.92h-.71v-.44h1.23c.15,1.32-1.78,1.79-2.38.67-.82-1.38,1.2-2.67,2.2-1.48Zm-3.78-.4h.46v2.01h.69v.44h-1.15v-2.45Zm-1.77,0h1.34v.46h-.88v.44h.88v.45h-.88v.65h.88v.46h-1.34v-2.45Zm-1.52,1.38v.63c.82.15.78-.75,0-.63Zm0-.94v.52c.58.11.58-.64,0-.52Zm-.46,2.01v-2.45c.74-.16,1.91.34,1.11,1.1,1.16.75-.19,1.62-1.11,1.35Z"/>
  </g>
</svg>