<?xml version="1.0" encoding="UTF-8"?>
<svg id="_Слой_1" data-name="Слой 1" xmlns="http://www.w3.org/2000/svg" xmlns:xlink="http://www.w3.org/1999/xlink" viewBox="0 0 118.98 253.96">
  <defs>
    <style>
      .cls-1, .cls-2, .cls-3, .cls-4, .cls-5, .cls-6, .cls-7, .cls-8 {
        stroke-width: 0px;
      }

      .cls-1, .cls-7 {
        fill: #2a2d0e;
      }

      .cls-9 {
        clip-path: url(#clippath-2);
      }

      .cls-2, .cls-3 {
        fill: #f5e8b3;
      }

      .cls-3, .cls-7 {
        fill-rule: evenodd;
      }

      .cls-4, .cls-6 {
        fill: none;
      }

      .cls-5 {
        fill: url(#_Безымянный_градиент_8);
      }

      .cls-10 {
        clip-path: url(#clippath-1);
      }

      .cls-6 {
        clip-rule: evenodd;
      }

      .cls-11 {
        clip-path: url(#clippath);
      }

      .cls-8 {
        fill: url(#_Безымянный_градиент_7);
      }
    </style>
    <clipPath id="clippath">
      <rect class="cls-4" x="-310.96" y="-63.38" width="595.28" height="841.89"/>
    </clipPath>
    <clipPath id="clippath-1">
      <rect class="cls-4" x="20.8" y="8.76" width="81.16" height="2.21"/>
    </clipPath>
    <linearGradient id="_Безымянный_градиент_7" data-name="Безымянный градиент 7" x1="20.8" y1="9.86" x2="101.96" y2="9.86" gradientUnits="userSpaceOnUse">
      <stop offset="0" stop-color="#b1b0ae"/>
      <stop offset="1" stop-color="#fdfdfd"/>
    </linearGradient>
    <clipPath id="clippath-2">
      <polygon class="cls-6" points="11.4 233.37 111.66 233.37 100.15 244.38 99.64 245.44 23.46 245.44 22.94 244.39 11.4 233.37"/>
    </clipPath>
    <linearGradient id="_Безымянный_градиент_8" data-name="Безымянный градиент 8" x1="11.4" y1="239.41" x2="111.66" y2="239.41" gradientUnits="userSpaceOnUse">
      <stop offset="0" stop-color="#b1b0ae"/>
      <stop offset="1" stop-color="#fdfdfd"/>
    </linearGradient>
  </defs>
  <g class="cls-11">
    <path class="cls-3" d="m11.4,28.1c-.11-5.07,9.64-10.32,9.62-17.14l80.96.09c-.55,7.29,9.54,12.01,9.68,17.05v205.3H11.4V28.1Z"/>
    <g class="cls-10">
      <rect class="cls-8" x="20.8" y="8.76" width="81.16" height="2.21"/>
    </g>
    <g class="cls-9">
      <rect class="cls-5" x="11.4" y="233.37" width="100.26" height="12.07"/>
    </g>
    <path class="cls-3" d="m111.66,169.27V28.1c-.14-5.04-10.23-9.75-9.68-17.05l-80.96-.09c.02,6.82-9.73,12.07-9.62,17.14v141.17h100.25Z"/>
    <path class="cls-7" d="m79.51,162.39l-18.02-7.09-17.43,7.39-7.39,17.8,6.61,17.62,18.3,7.82,18.45-7.59,7.28-17.78-7.8-18.17Zm-39.81,18.19c.49-28.99,43.61-28.98,44.1,0-.49,28.99-43.61,28.98-44.1,0Z"/>
    <rect class="cls-1" x="44.46" y="186.43" width="1.42" height="1.42" transform="translate(-146.99 175.64) rotate(-73)"/>
    <polygon class="cls-7" points="48.19 188.03 44.6 189.98 45.16 191.02 46.63 190.23 46.78 190.5 45.67 191.96 46.41 192.84 47.66 191.15 49.84 191.07 49.27 190.02 47.43 190.14 47.28 189.87 48.76 189.07 48.19 188.03"/>
    <path class="cls-7" d="m49.78,192.67c.72-.8,1.68.2.84.88-.43.33-1.31,1.59-1.85.92-.65-.57.65-1.39,1.01-1.8Zm.29-1.3c-2.45.23-3.5,3.75-.6,4.3,2.43-.24,3.52-3.75.6-4.3Z"/>
    <path class="cls-7" d="m50.45,190.92c0,.59.93.59.92,0,0-.59-.93-.59-.92,0"/>
    <path class="cls-7" d="m52.31,192.01c-.59,0-.59.93,0,.92.59,0,.59-.93,0-.92"/>
    <polygon class="cls-7" points="52.54 193.47 50.56 197.05 51.47 197.56 52.64 195.44 52.69 195.47 52.71 198.25 53.69 198.79 55.68 195.21 54.76 194.71 53.57 196.86 53.52 196.83 53.61 194.07 52.54 193.47"/>
    <rect class="cls-1" x="54.23" y="196.97" width="4.09" height="1.18" transform="translate(-148.72 184.43) rotate(-70.43)"/>
    <path class="cls-7" d="m58.58,196.55c-1.94,1.85-.33,4.93,2.39,3.84l.32-2.1-1.42-.21-.16.73.5.08-.14.89c-1.21.3-1.24-.98-.99-1.85.09-1.07,1.32-.91,2.01-.52l.26-.66c-.71-.44-2.1-.68-2.77-.19"/>
    <path class="cls-7" d="m63.52,196.32c-1.98-.07-2.06,2.01-.49,2.5,1.54.64-.1,1.4-.97.89l.03.73c1.49.68,3.8-.64,2.29-2.11-1.46-.6-1.89-1.53.11-1.22l.08-.68c-.32-.09-.67-.12-1.05-.11"/>
    <path class="cls-7" d="m66.88,198.18c1.37-.55,1.7,1.11.2,1.09l-.2-1.09Zm-.11-.61l-.19-1.05c1.25-.53,1.52,1.1.19,1.05Zm-1.43-1.48l.74,4.02c.66-.19,2.51-.26,2.92-.85.49-.56.15-1.82-.69-1.79v-.04c1.71-2.12-1.76-1.76-2.97-1.34Z"/>
    <polygon class="cls-7" points="68.76 195 70.42 198.74 72.97 197.61 72.68 196.95 71.2 197.61 70.8 196.71 71.98 196.19 71.7 195.53 70.51 196.06 70.12 195.18 71.54 194.55 71.25 193.89 68.76 195"/>
    <path class="cls-7" d="m74.01,194.01l-.37.27-.8-1.11c.58-.85,1.78.21,1.17.84m-2.53-.7l2.39,3.32.96-.69-.79-1.09.39-.28,1.22.78.95-.68-.03-.07-1.51-.89c.4-2.89-2.34-1.63-3.6-.39Z"/>
    <path class="cls-7" d="m75.95,192.64c1.31,1.25,3.02-.33,3.27-1.73l-1.62-1.38-.93,1.09.53.52.33-.38.69.59c-.39,1.19-1.49.54-2.09-.13-.87-.64-.07-1.6.62-1.98l-.42-.57c-1.73.85-2.24,2.96-.36,3.98Z"/>
    <rect class="cls-1" x="77.43" y="186.93" width="1.42" height="1.42" transform="translate(-51.47 31.07) rotate(-17.01)"/>
    <polygon class="cls-7" points="76.78 185.27 80.79 185.99 81 184.82 79.34 184.53 79.58 183.21 81.23 183.51 81.44 182.35 77.42 181.63 77.22 182.79 78.78 183.07 78.55 184.39 76.98 184.11 76.78 185.27"/>
    <polygon class="cls-7" points="77.43 179.96 80.79 179.73 80.86 180.74 81.58 180.74 81.35 177.46 80.64 177.51 80.71 178.54 77.35 178.78 77.43 179.96"/>
    <path class="cls-7" d="m78.67,175.02l-.15-.43,1.29-.46c.65.79-.7,1.64-1.13.89m-1.28,2.31l1.27-1.2c2.66,1.18,2.21-1.79,1.38-3.33l-3.85,1.36.39,1.11,1.27-.45.16.46-1.09.95.39,1.1h.07Z"/>
    <path class="cls-7" d="m77.77,170.18l-1.35,1.38-.47-.75,1.8-.67.03.04Zm-1.74,3.45l2.84-3.14-.89-1.41-4.02,1.26.62.98.7-.26.63.99-.53.54.65,1.03Z"/>
    <polygon class="cls-7" points="73.62 169.88 76.27 166.78 75.48 166.1 73.88 167.97 73.84 167.93 74.48 165.25 73.55 164.46 70.9 167.56 71.69 168.23 73.25 166.4 73.29 166.43 72.77 169.15 73.62 169.88"/>
    <path class="cls-7" d="m45.89,183.92l-1.09.2c-.55-1.36,1.12-1.69,1.09-.2Zm-1.69.3l-1.04.19c-.53-1.25,1.1-1.51,1.04-.19Zm2.53.69c-.18-.66-.25-2.51-.84-2.92-.55-.49-1.82-.16-1.79.68h-.04c-2.11-1.71-1.77,1.75-1.35,2.96l4.01-.72Z"/>
    <path class="cls-7" d="m44.04,178.79c.2.15.08.59.08.81l-1.36-.11c-.16-.85.69-1.07,1.28-.7m-2.04,1.82l4.07.34.1-1.18-1.34-.11.04-.48,1.38-.42.1-1.17-.07-.02-1.65.57c-1.94-2.17-2.75.73-2.62,2.48Z"/>
    <path class="cls-7" d="m45.46,175.4l-1.67-.95v-.05s1.94.15,1.94.15l-.27.85Zm-2.64-.46l3.55,2.28.36-1.1-.65-.37.36-1.12.75.06.38-1.16-4.23-.17-.51,1.58Z"/>
    <path class="cls-7" d="m46.56,172.33c1.21,1.04,2.81-.66,2.67-1.93-.03-.94-2.28-1.92-2.9-2.44l-.65.99c.37.46,3.16,1.48,2.51,2.35-.54.94-2.59-1.22-3.16-1.38l-.65.99,2.17,1.43Z"/>
    <polygon class="cls-7" points="47.71 166.42 50.33 169.55 52.46 167.76 52 167.22 50.76 168.25 50.14 167.5 51.13 166.67 50.67 166.13 49.68 166.96 49.06 166.22 50.26 165.22 49.8 164.68 47.71 166.42"/>
    <path class="cls-7" d="m53.13,164.89l-.61-1.22c.98-.86,1.88.95.61,1.22Zm-1.97-1.29l1.83,3.65,1.06-.53-.6-1.2.43-.22,1.08.96,1.04-.52-.02-.07-1.35-1.11c.84-2.79-2.05-1.97-3.48-.95Z"/>
    <polygon class="cls-7" points="55.68 161.52 56.64 165.48 59.34 164.83 59.17 164.14 57.6 164.52 57.37 163.57 58.63 163.26 58.46 162.57 57.2 162.88 56.98 161.94 58.49 161.58 58.33 160.88 55.68 161.52"/>
    <rect class="cls-1" x="59.88" y="160.66" width="1.18" height="4.08" transform="translate(-13.26 5.56) rotate(-4.75)"/>
    <path class="cls-7" d="m64.77,163.23l.3-1.65c1.39-.13.95,2.27-.3,1.65Zm-.74-2.52l-.73,4.01,1.16.21.19-1.04c1.75.81,3.36-1.37,1.84-2.57-.5-.37-1.86-.47-2.46-.61Z"/>
    <path class="cls-7" d="m68.83,164.71l.52-1.03c.4-.99,1.64-.38,1.08.54,0,0-.52,1.04-.52,1.04-.41,1.01-1.64.38-1.08-.55m-1.03-.65c-1.17,2.6,3.2,3.64,3.64.83,1.18-2.59-3.2-3.62-3.64-.83Z"/>
    <path class="cls-7" d="m63.87,171.88l3.59-2.11c.08.05.16.09.24.14l-3.71,2.18-.12-.21Zm-.22-.38l3.36-1.97c.09.04.17.09.26.14l-3.49,2.05-.12-.22Zm6.46,11.27l3.44-2.03c0,.1,0,.2-.01.3l-3.31,1.94-.12-.22Zm-.22-.38l3.67-2.19c0,.1,0,.2,0,.31l-3.55,2.09-.12-.21Zm1.94,3.39l.6-.36c-.12.25-.24.5-.38.75l-.22-.39Zm-.2-.36l1.08-.65c-.05.11-.09.23-.14.34l-.83.5-.11-.19Zm-.22-.39l1.54-.91c-.04.13-.09.26-.14.39l-1.28.75-.13-.22Zm-.22-.39l1.95-1.14c-.03.11-.06.23-.1.34l-1.72,1.02-.13-.22Zm-.22-.38l2.31-1.37c-.03.12-.05.23-.08.35l-2.11,1.24-.12-.22Zm-.21-.37l2.64-1.55c-.02.1-.04.2-.05.3l-2.46,1.46-.12-.21Zm-.21-.36l2.92-1.72c-.01.09-.02.19-.04.28l-2.77,1.63-.11-.19Zm-.22-.39l3.2-1.88c0,.1-.02.21-.03.31l-3.04,1.79-.13-.22Zm-8.77,9.31v-2.76h.29v2.76c-.09,0-.19,0-.29,0Zm1.37-4.22v-1.45s.27,0,.27,0v1.4c-.1,0-.19.01-.27.05Zm-.44,4.17v-2.72h.25v2.69c-.08,0-.16.02-.25.03Zm-.26-2.72v-.98c.16-.12.03.95.07.98h0v2.73c-.09,0-.17.01-.26.02v-2.75s.19,0,.19,0Zm-.19-1.47v-1.43s.27,0,.27,0v1.41s-.09.02-.13.04v-.03h-.14Zm-.47-1.43h.27v1.43s-.28,0-.28,0v-1.43Zm1.82,5.51v-2.6h.31v2.55c-.1.02-.21.04-.31.06Zm-.42-3.52s0-.05,0-.08c.15-.1.03.95.07.99h.16v2.63c-.09.01-.18.03-.27.04v-2.67s.04,0,.04,0v-.91Zm-.19-.3c.81-.67.88.54.81,1.09h-.44c-.05-.19.18-1.29-.31-.93.02.07,0,.84,0,.93h-.44c-.04-.17.17-1.32-.31-.92v.92h-.44v-1.24h.38v.14h.01c.15-.21.59-.25.72,0Zm-.29-1.69h.24v1.47c-.07-.04-.15-.07-.24-.07v-1.4Zm1.86,5.31v-2.39c.05-.01.1-.03.14-.05v.04h.11v2.34c-.08.02-.17.04-.25.07Zm-.46-2.45c.08.05.17.07.27.07v2.42c-.09.02-.18.04-.27.06v-2.55Zm1.35,2.19v-2.15h.29v2.05c-.09.03-.19.07-.29.1Zm-.45-2.15h.26v2.21c-.09.03-.18.05-.26.08v-2.29Zm-.83-1.34c.94-.33,1.11.48,1,1.22h-.37l-.03-.11h-.02c-.85.65-1.05-.94-.03-.61.05-.34-.32-.27-.55-.24l-.02-.27Zm-.06-.11v-1.46s.28,0,.28,0v1.41c-.1,0-.19.02-.28.05Zm-.5-1.46h.31v1.82c-.04-.19-.14-.33-.31-.39v-1.43Zm.96,1.4v-1.4h.24v1.42c-.08-.01-.16-.02-.24-.02Zm1.79,3.31v-1.81h.26v1.69c-.09.04-.18.08-.26.12Zm-.36-1.81v-.84c.06-.02.12-.03.18-.03v2.76c-.1.03-.18.07-.27.1v-1.99h.09Zm-.54-1.36h.38v.26h.01c.07-.16.22-.31.4-.28v.39c-.12,0-.27.02-.38.08v.8h-.44v-1.24h.02Zm0-.12v-1.43h.28v1.43s-.28,0-.28,0Zm-.46-1.43h.27v1.8c-.04-.14-.13-.27-.27-.33v-1.47Zm1.37.95v-.95h.25v.95s-.25,0-.25,0Zm.86,3.35v-1.39h.26v1.25c-.08.05-.17.09-.26.14Zm-.42-1.39h.22v-.29s0,1.74.01,1.78c-.08.04-.15.08-.23.11v-1.6Zm-.89-2.91h.26v1.41c-.09,0-.16.04-.22.08v-.05h-.04v-1.43Zm2.19,3.79v-.9c.09.03.18.04.27.05v.67c-.09.06-.18.12-.27.18Zm-.88-2.24h.45c-.08.14-.24.43-.32.57.08.17.27.49.33.67h-.46c-.04-.08-.21-.45-.24-.52h-.09v.52h-.44v-1.72h.44v.98h.09c.03-.07.19-.42.23-.5h.01Zm-.43-.6v-.95s.24,0,.24,0c-.02.05.03,1.66-.02,1.7v-.75h-.22Zm1.74,2.55v-.56c.08,0,.15,0,.22-.02v.43c-.08.05-.15.11-.22.16Zm.48-.66l.02-.46h.03c0-.23.04-.55-.11-.74v-1.64h.27v2.98c-.09.07-.18.15-.27.22v-.34s.07-.02.07-.02Zm-1.23-.77c.14-.98,1.4-.56,1.16.19h-.72c-.04.37.46.31.69.24v.25c-.53.2-1.28,0-1.13-.69Zm-.12-.64v-1.43s.25,0,.25,0v1.52c-.35.28-.37,1,0,1.27v1.12c-.08.05-.16.1-.24.14v-1.14s.13,0,.13,0c-.09-.54-.32-.92.07-1.47h-.21Zm2.17,1.02v-2.46h.26v2.21c-.08.08-.17.17-.26.25Zm-.42.37v-2.83s.24,0,.24,0v2.63c-.08.07-.16.13-.24.2Zm1.31-1.28v-1.55h.26v1.24c-.08.11-.17.21-.26.31Zm-.44-1.55h.25v1.76c-.09.09-.17.17-.25.26v-2.02Zm1.3.46v-.46h.31c-.1.16-.2.31-.31.46Zm-.42.56v-1.02h.23v.73c-.08.1-.15.2-.23.29Zm-1.56-1.95l.77-1.17.67,1.17h-1.44Zm-2.38,2.36v-1.43h.25v1.43s-.25,0-.25,0Zm1.33-.02v-1.41h.23v1.48c-.08-.03-.15-.05-.23-.06Zm-.44-1.41h.26v1.4c-.09,0-.18,0-.26.03v-1.43Zm-17.36-1.01l.52.31-.18.31c-.12-.2-.23-.41-.34-.62Zm-.32-.7l1.05.65-.11.19-.77-.46c-.06-.13-.12-.26-.17-.38Zm-.25-.64l1.52.9-.13.22-1.24-.73c-.05-.13-.1-.26-.15-.4Zm-.21-.63l1.95,1.15-.12.21-1.71-1.02c-.04-.11-.07-.23-.11-.35Zm-.17-.62l2.34,1.39-.13.22-2.12-1.25c-.03-.12-.06-.24-.09-.36Zm-.12-.56l2.68,1.58-.12.21-2.49-1.48c-.02-.1-.04-.2-.06-.31Zm-.09-.53l2.97,1.75-.11.19-2.82-1.66c-.02-.09-.03-.19-.05-.29Zm-.07-.56l3.26,1.92-.13.22-3.1-1.83c-.01-.11-.03-.21-.04-.32Zm-.04-.54l3.53,2.08-.12.22-3.38-1.99c0-.1-.02-.2-.02-.31Zm-.02-.54l3.76,2.24-.12.21-3.63-2.14c0-.1,0-.21,0-.31Zm2.39,6.33v.77c-.18-.25-.36-.51-.52-.77h.52Zm.19,0h.22v1.3c-.07-.09-.14-.18-.21-.27v-1.02Zm.41,0h.26v1.8c-.09-.1-.18-.2-.26-.3v-1.5Zm.45,0h.25v2.24c-.09-.08-.17-.16-.25-.24v-2Zm.11-1.98l.69,1.05h-1.29l.6-1.05Zm.59,1.98v2.65c-.08-.08-.17-.16-.25-.24v-2.42h.25Zm.43,0v3.01c-.08-.06-.16-.13-.23-.19v-2.82s.23,0,.23,0Zm.45,0v1.14c-.29.17-.3.73.01.92v.29s-.17-.06-.21-.08v.54c.07.03.14.06.22.07v.47s.19.13.19.13v-.57c.08,0,.15,0,.22,0v.71c-.23-.16-.46-.32-.69-.49v-3.16h.26Zm.19,0h.22v1.02c-.07,0-.15.02-.22.04v-1.06Zm.93,2.49c.03.12.09.22.18.29v1.39c-.08-.04-.16-.09-.24-.14v-1.39s.05-.1.06-.16Zm-.26.34v1.1c-.09-.06-.18-.11-.27-.17v-.84c.1-.02.19-.05.27-.09Zm.63.06c.09.03.18.05.29.05v1.49c-.1-.05-.19-.1-.29-.15v-1.39Zm.48.04c.09,0,.17-.03.26-.06v1.76c-.08-.04-.17-.08-.26-.12v-1.59Zm.45-.02h.23v1.91c-.08-.03-.16-.06-.23-.09v-1.81Zm.43,0h.12v-.98c.2-.15.05.94.09.98h.04v2.08c-.08-.03-.17-.06-.26-.1v-1.98Zm.45,0h.26v2.23c-.08-.03-.17-.05-.25-.08v-2.14Zm-1.32-2.91h.25v1.45c-.08-.02-.17-.04-.25-.04v-1.41Zm.87,0h.25v1.41s-.08.02-.12.04v-.5h-.12v-.95Zm.44,0h.26v1.49c-.06-.05-.15-.08-.25-.09v-1.4Zm1.37,1.43v-1.43h.24v1.43s-.24,0-.24,0Zm.43,0v-1.43s.28,0,.28,0v.95h-.13c.04.27-.12,1.68.13,1.86v2.73c-.09-.01-.18-.03-.27-.04v-2.59s.1,0,.1,0v-1.47h-.11Zm-.82,1.51c.07,0,.13,0,.2-.02v2.46c-.09-.02-.17-.04-.26-.06v-2.38s.04,0,.06,0Zm-.07-2.94h.27v2.43s0-.95-.02-.99h-.25v-1.43Zm.46,5.42v-2.51h.25v2.56c-.08-.02-.17-.03-.25-.05Zm-2.42-3.46v.42c-.08.02-.17.05-.25.05v-.51c.08,0,.18.03.25.05h0Zm-1.8.36v.08c-.07.03-.15.01-.22,0v-.21c.07.04.16.07.22.12Zm.19-.77c.08,0,.17,0,.25.03v.23c-.09-.06-.17-.1-.26-.15v-.1s.01,0,.02,0Zm-.02-.41c.13,0,.25.02.37.06l-.04.27c-.76-.17-.62.24-.06.48.57.63-.39,1.09-.94.8v-.29c1.91.37-1.4-1.15.68-1.32Zm.26-1.13v1.04c-.08-.02-.17-.03-.26-.03v-1.01h.26Zm.36,2.06c-.04-.54.55-.61.95-.5l-.04.26c-.67-.26-.63,1.01.04.69v.26c-.54.19-1.07-.1-.95-.71Zm.09-2.06v1.55c-.13.11-.21.28-.21.52-.01-.03-.03-.06-.04-.09,0-.2,0-.68.05-.87h-.05s0-1.11,0-1.11h.25Zm.19,0h.29v1.4c-.11,0-.2.02-.29.04v-1.44Zm.92,1.07h.43v.6h.01c.81-.62.8.62.75,1.12h-.44c-.04-.19.17-1.32-.33-.92v.92h-.44v-1.72h0Zm0-1.07h.24v.95h-.24v-.95Zm1.47,1.55h.44c.05.18-.17,1.3.31.93v-.93h.44v1.24h-.38l-.02-.13h-.02c-.81.66-.83-.59-.78-1.11Zm-.16-1.55h.28v1.43s-.24,0-.24,0c.05.34-.15,1.28.24,1.45v2.38c-.09-.03-.19-.05-.29-.08v-2.28h.02c0-.68-.02-2.21-.01-2.91Zm1.83,2.92c.08.02.17.03.26.02v2.66c-.08,0-.17-.02-.26-.03v-2.65Zm.45,2.7v-2.73s.03-.01.03-.01v.03h.2v2.73c-.08,0-.15-.01-.23-.02Zm-.61-4.55h.4c.07.13-.17,1.57.16,1.49v.23c-.89.39-.45-1.38-.55-1.72Zm.16-1.07h.25v.95s-.25,0-.25,0v-.95Zm.87,5.65v-2.74h.26v2.76c-.08,0-.17,0-.26-.01Zm-.43-5.65h.24v1.43h-.21v.52h.21v.24s-.17.25-.17.25h-.07v-2.44Zm.88,5.67v-2.76s.25,0,.25,0v2.77c-.08,0-.16,0-.25,0Zm0-3.28l.24-.35v.35s-.24,0-.24,0Zm-.46-.84h.72v.25c-.13.19-.36.52-.49.7h.52v.28h-1.03v-.27c.14-.19.34-.49.48-.69h-.49v-.28h.28Zm0-.12v-1.43h.24v1.43s-.24,0-.24,0Zm.44,0v-1.43s.25,0,.25,0v1.43s-.25,0-.25,0Zm-4.49-10.1l4.78,1.34v6.4h-2.97v-.02h-.19v.02h-4.52l-.83-1.25,3.72-6.49Zm2.69-9.79c.12-.02.23-.04.35-.06l1.21.7-.12.21-1.44-.85Zm1.66.47l-.97-.57c.13-.02.27-.03.4-.04l.69.39-.12.22Zm.87-.45l-.12-.2c.14,0,.28,0,.43.02l-.31.18Zm1.58,2.75l3.11-1.83c.09.04.18.09.28.13l-3.25,1.91-.13-.22Zm-.21-.37l2.84-1.67c.09.04.18.08.27.12l-2.99,1.76-.12-.21Zm-.2-.35l2.55-1.5c.09.03.18.07.27.1l-2.71,1.59-.11-.19Zm-.22-.38l2.25-1.3c.1.03.19.06.28.09l-2.41,1.42-.12-.21Zm-.21-.37l1.9-1.09c.09.02.19.05.28.08l-2.06,1.21-.11-.2Zm-.21-.36l1.51-.87c.1.02.19.04.29.06l-1.69,1-.11-.19Zm-.22-.38l1.06-.61c.12.02.23.04.35.06l-1.29.76-.12-.21Zm-.21-.37l.57-.33c.12.01.24.02.36.04l-.82.48-.11-.2Zm-.75-.11l-.42-.25c.19,0,.38-.01.57-.02l-.15.26Zm.43,11.05l4.78-1.34,3.65,6.37-.9,1.37h-7.53v-6.39Zm8.06,2.57l3.86-2.3c0,.09,0,.17,0,.26l-3.76,2.24-.11-.19Zm-.22-.39l4.05-2.39c0,.1.02.19.02.29l-3.94,2.32-.13-.22Zm-.22-.39l4.22-2.49c.01.09.02.18.03.27l-4.12,2.44-.13-.22Zm-.22-.38l4.37-2.58c.01.09.03.18.04.26l-4.29,2.53-.12-.22Zm-.21-.37l4.5-2.65c.02.08.03.17.05.25l-4.43,2.61-.12-.21Zm-.2-.36l4.61-2.72c.02.08.04.15.05.23l-4.55,2.68-.11-.19Zm-.22-.39l4.71-2.78c.02.09.05.17.07.26l-4.66,2.75-.13-.22Zm-.22-.38l4.8-2.83c.03.08.05.16.08.24l-4.75,2.8-.12-.22Zm-.21-.37l4.87-2.87c.03.08.06.15.08.23l-4.83,2.85-.12-.21Zm-.21-.36l4.93-2.91c.03.07.06.14.08.21l-4.9,2.89-.11-.19Zm-.22-.38l4.97-2.93c.03.08.07.15.1.23l-4.95,2.92-.12-.22Zm-.22-.38l5-2.95c.04.07.07.15.11.22l-4.99,2.94-.12-.22Zm-.21-.37l5.02-2.96c.04.07.08.14.11.21l-5.01,2.95-.12-.21Zm-.21-.36l5.02-2.96c.04.06.07.13.11.19l-5.02,2.96s-.09-.16-.11-.19Zm-.22-.39l5.01-2.96c.05.07.09.14.13.22l-5.02,2.96-.13-.22Zm-.22-.38l4.99-2.94c.05.07.09.14.14.21l-5,2.95-.12-.22Zm-.21-.37l4.95-2.92c.05.07.1.13.14.2l-4.97,2.93-.12-.21Zm-.21-.36l4.9-2.89c.05.06.09.12.14.18l-4.93,2.91-.11-.19Zm-.22-.39l4.84-2.85c.06.07.11.13.17.2l-4.88,2.88-.13-.22Zm-.22-.38l4.76-2.81c.06.06.12.13.17.19l-4.81,2.83-.12-.22Zm-.23-.39l4.66-2.75c.06.06.12.13.18.19l-4.72,2.79-.13-.23Zm-.19-.33l4.55-2.71c.06.05.11.11.17.16l-4.61,2.75-.11-.2Zm-.23-.4l4.44-2.62c.06.06.13.11.19.17l-4.5,2.68-.13-.23Zm-.22-.39l4.31-2.53c.07.06.14.11.2.17l-4.38,2.59-.13-.22Zm-.22-.39l4.15-2.44c.07.06.15.11.22.17l-4.24,2.49-.13-.22Zm-.2-.35l3.99-2.34c.06.04.13.09.19.14l-4.07,2.39-.11-.19Zm-.22-.38l3.8-2.23c.08.05.16.1.23.15l-3.91,2.3-.12-.21Zm-14.82,7.73l3.96,2.36-.11.19-3.85-2.3c0-.09,0-.17,0-.26Zm.02-.48l4.16,2.46-.13.22-4.05-2.39c0-.1,0-.2.02-.29Zm.04-.49l4.34,2.56-.13.22-4.24-2.5c0-.09.02-.18.03-.27Zm.06-.47l4.5,2.65-.12.22-4.41-2.6c.01-.09.02-.18.04-.27Zm.08-.46l4.64,2.73-.12.21-4.56-2.69c.01-.09.03-.17.04-.25Zm.09-.43l4.76,2.8-.11.19-4.69-2.77c.02-.08.03-.15.05-.23Zm.11-.45l4.87,2.87-.13.22-4.8-2.83c.02-.09.04-.17.07-.26Zm.12-.44l4.96,2.92-.12.22-4.91-2.89c.02-.08.05-.16.07-.25Zm7.08.96l3.87-6.76h1.58c.15.27,3.84,6.69,3.99,6.96l-4.77,1.34-4.79-1.34.12-.2Zm3.99-6.97l.67-1.17.67,1.17h-1.34Zm-1.85-2.37l1.66.96-.11.19-1.84-1.09c.09-.02.19-.04.28-.06Zm-9.09,7.95l5.04,2.97-.12.21-5-2.95c.03-.08.05-.16.08-.23Zm.14-.39l5.1,3.01-.11.19-5.07-2.99c.03-.07.05-.14.08-.21Zm.17-.41l5.15,3.04-.12.22-5.12-3.02c.03-.08.06-.16.1-.23Zm.18-.4l5.19,3.06-.12.22-5.17-3.05c.03-.08.07-.15.1-.23Zm.19-.39l5.21,3.07-.12.21-5.2-3.07c.04-.07.07-.14.11-.22Zm.2-.36l5.22,3.08-.11.19-5.22-3.08c.03-.07.07-.13.11-.19Zm.23-.39l5.22,3.08-.13.22-5.22-3.08c.04-.07.09-.15.13-.22Zm.24-.37l5.2,3.07-.12.22-5.21-3.07c.04-.07.09-.14.13-.21Zm.24-.36l5.17,3.05-.12.21-5.19-3.06c.05-.07.09-.13.14-.2Zm.25-.33l5.13,3.03-.11.19-5.16-3.04c.04-.06.09-.12.13-.18Zm.28-.35l5.07,2.99-.13.22-5.11-3.01c.05-.07.11-.13.16-.2Zm.29-.34l5,2.95-.12.22-5.05-2.97c.06-.07.11-.13.17-.2Zm.31-.34l4.91,2.9-.13.23-4.96-2.93c.06-.06.12-.13.18-.19Zm.3-.3l4.81,2.86-.11.2-4.86-2.9c.05-.05.11-.11.16-.16Zm.32-.3l4.71,2.78-.12.22-4.76-2.84c.06-.05.12-.11.17-.16Zm.33-.29l4.59,2.7-.12.21-4.66-2.75c.06-.05.12-.11.18-.16Zm.33-.27l4.46,2.62-.1.18-4.53-2.66c.06-.05.12-.09.18-.14Zm.35-.27l4.31,2.53-.11.19-4.39-2.58c.06-.05.13-.09.19-.14Zm.37-.26l4.14,2.43-.11.19-4.23-2.49c.07-.05.14-.09.2-.14Zm.35-.23l3.98,2.34-.09.16-4.06-2.39c.06-.04.12-.07.17-.11Zm.43-.25l3.77,2.21-.12.21-3.89-2.28c.08-.05.16-.1.24-.14Zm.44-.24l3.54,2.08-.12.21-3.67-2.16c.08-.05.17-.09.25-.13Zm.48-.23l3.28,1.93-.13.22-3.43-2.01c.09-.04.18-.09.28-.13Zm.49-.21l3,1.77-.12.21-3.16-1.86c.09-.04.18-.08.27-.11Zm.49-.19l2.71,1.6-.11.19-2.88-1.69c.09-.03.18-.07.27-.1Zm.51-.17l2.42,1.4-.12.21-2.57-1.52c.09-.03.18-.06.28-.09Zm.57-.16l2.06,1.18-.12.21-2.23-1.31c.1-.03.19-.05.29-.08Zm3.01-1.47c-6.04,0-11.13,4.04-12.73,9.56h0c-4.89,22.35,30.67,22.03,25.4-.21h0c-1.09-3.52-3.6-6.42-6.87-8.02h0c-.39-.19-.78-.35-1.18-.51h0c-1.44-.53-2.99-.82-4.61-.82Z"/>
    <path class="cls-7" d="m58.23,182.63v-1.86c1.62-.38,1.6,2.29,0,1.86m-.58-2.14c-.33,0-.64,0-.95-.02v.29c.47.02.51.06.52.53-.2.47.52,3.53-.52,3.29v.29c.8-.05,1.36-.04,2.16,0v-.29c-.97.22-.53-1.13-.62-1.65,3.58.37,2.65-3.23-.58-2.43Z"/>
    <path class="cls-7" d="m63.71,182.16c.28.68,1.51.77,2.01,1.22.77,1.66-2.07,1.3-1.85-.23h-.25v1.49h.21l.08-.34c2.93,1.75,4.33-1.77.8-2.61-.76-1.44,1.82-1.44,1.69.01h.24v-1.32h-.22l-.05.26c-1.13-.91-3.38-.11-2.67,1.5"/>
    <path class="cls-7" d="m61.7,177.72c.98-.73-.4-4.31.87-4.48v-.29c-1.08.06-1.18.05-2.16,0v.29c1.22-.35.42,2.68.64,3.19.1.6-.08,2.01-.88,1.23.72-.3.07-1.4-.51-.83-.72,1.18,1.46,1.74,2.06.89"/>
    <path class="cls-7" d="m64.38,189c-.29.06-.06.5.17.29v-.28s-.11-.02-.17,0"/>
    <path class="cls-7" d="m68.06,188.77v.12h.31c.1-.29-.3-.5-.31-.12"/>
    <path class="cls-7" d="m56.68,189.58v-1.72h.44v.6h.01c.8-.62.8.62.75,1.13h-.44c-.04-.19.17-1.32-.33-.92v.92h-.44Zm-.63-.52c-.07-.35.16-.41.45-.3l.07-.41v.8c-.16.03-.53.19-.51-.09Zm-.56.01c-.12-.62.4-.89.95-.72l-.04.26c-.67-.26-.64,1,.04.69v.26c-.43.14-.99,0-.95-.49Zm-.25-1.09l-.04.27c-.98-.14-.4.28.03.58.36.65-.51.95-1.03.71v-.29c1.97.46-1.74-1.5,1.05-1.26Zm.08.78c-.13-.21-.4-.26-.57-.41.17-.05.37,0,.54.05l.08-.5c-.88-.48-1.96.58-.83,1.11.48.26-.29.19-.47.06v.54c.43.18,1.19.19,1.32-.33.1.47.74.53,1.15.37l.02-.43v.48h.68v-.98c.2-.15.05.94.09.98h.68c0-.54.18-1.82-.77-1.46v-.5h-.68v.52c-.51-.16-1.23-.08-1.19.59-.01-.03-.03-.06-.05-.09Z"/>
    <path class="cls-7" d="m58.15,189.18v-.84h.44c.05.18-.17,1.3.31.93v-.93h.44v1.24h-.38l-.02-.13h-.02c-.24.28-.82.21-.78-.27m-.12-.95c0,.57-.15,1.88.82,1.43v.04h.61v-1.47h-.68v.99c-.16.1-.03-.94-.07-.99h-.68Z"/>
    <path class="cls-7" d="m64.53,188.86c.06-.33-.31-.27-.55-.24l-.02-.27c.95-.33,1.11.48,1,1.22h-.37l-.03-.11h-.02c-.83.65-1.08-.93-.03-.61m-2.85.72v-1.24h.38v.14h.01c.15-.21.6-.24.72,0,.81-.67.88.54.81,1.09h-.44c-.05-.19.18-1.29-.31-.93.02.07,0,.84,0,.93h-.44c-.04-.18.17-1.32-.31-.92v.92h-.44Zm-1.26-.27l.48-.69h-.49v-.28h1v.25l-.49.7h.52v.28h-1.03v-.27Zm-.8-.06v-1.39h.44c.07.13-.17,1.57.16,1.49v.23c-.27.09-.63-.01-.6-.33Zm-.12-1.51c.08.54-.36,2.43.8,1.93v.03h1.94v-.99c.16-.12.03.95.07.99h.68s0-.96,0-.99c.15-.1.03.95.07.99h.68v-.25c.11.3.52.35.77.21v.04h.59c.11-.95-.06-1.84-1.25-1.43l.04.5c.16-.03.32-.06.49-.04-.28-.02-.56.06-.64.31.12-.58-.36-1.09-.91-.71-.16-.15-.44-.16-.64-.06v-.03h-.62v.96h-.41l.38-.55v-.41h-1.24v.52h.38l-.34.49s-.13,0-.15,0c0-.03,0-1.46,0-1.49h-.68Z"/>
    <path class="cls-7" d="m64.53,188.86c.06-.33-.31-.27-.55-.24l-.02-.27c.95-.33,1.11.48,1,1.22h-.37l-.03-.11h-.02c-.83.65-1.08-.93-.03-.61m-2.85.72v-1.24h.38v.14h.01c.15-.21.6-.24.72,0,.81-.67.88.54.81,1.09h-.44c-.05-.19.18-1.29-.31-.93.02.07,0,.84,0,.93h-.44c-.04-.18.17-1.32-.31-.92v.92h-.44Zm-1.27-1.24h1v.25l-.49.7h.52v.28h-1.03v-.27l.48-.69h-.49v-.28Zm-.35-.48c.07.13-.17,1.57.16,1.49v.23c-.94.35-.5-1.32-.6-1.72h.44Zm.23.37v.52h.38l-.34.49s-.13,0-.15,0c0-.03,0-1.46,0-1.49h-.68c.08.54-.36,2.43.8,1.93v.03h1.94v-.99c.16-.12.03.95.07.99h.68s0-.96,0-.99c.15-.1.03.95.07.99h.68v-.25c.11.3.52.35.77.21v.04h.59c.11-.95-.06-1.84-1.25-1.43l.04.5c.16-.03.32-.06.49-.04-.28-.02-.56.06-.64.31.12-.58-.36-1.09-.91-.71-.16-.15-.44-.16-.64-.06v-.03h-.62v.96h-.41l.38-.55v-.41h-1.24Z"/>
    <path class="cls-7" d="m66.27,189.58v-1.72h.44v.98h.09l.23-.5h.46l-.32.57s.35.64.33.67h-.46l-.24-.52h-.09v.52h-.44Zm-1.03-1.24h.4v.26h.01c.1-.2.22-.3.4-.28v.39c-.11,0-.28.02-.38.08v.8h-.44v-1.24Zm-.12-.12v1.47h.68v-.84c.11-.04.24-.03.35-.03v.87h.68v-.29l.13.29h.66c.07-.14-.26-.66-.31-.78l.38-.69h-.74l-.12.26v-.75h-.68v.47c-.13-.02-.29-.01-.39.07v-.05h-.64Z"/>
    <path class="cls-7" d="m68.19,189.18h.56c-.18.04-.39.11-.56,0m-.43-.72c.46-.36,1.18-.04,1.01.6h-.72c-.03.37.43.31.69.24v.25c-.77.35-1.5-.41-.98-1.1Zm-.08-.09c-.65.82.29,1.72,1.17,1.27l.02-.46h.03c.2-.77-.59-1.3-1.22-.8Z"/>
    <path class="cls-7" d="m64.53,189.32v-.28c-.41-.16-.37.52,0,.28"/>
    <path class="cls-7" d="m68.04,188.74v.12h.31c.1-.29-.3-.5-.31-.12"/>
    <path class="cls-7" d="m55.22,188.83c-.43-.29-1.01-.72-.03-.58l.04-.27c-2.78-.23.92,1.73-1.05,1.26v.29c.53.24,1.39-.06,1.03-.71"/>
    <path class="cls-7" d="m56.07,188.31c-1.05,0-.63,1.72.35,1.25v-.26c-.67.31-.7-.95-.03-.69l.04-.26c-.11-.03-.24-.04-.37-.04"/>
    <path class="cls-7" d="m56.68,187.86v1.72h.44v-.92c.5-.41.29.73.33.92h.44c.05-.51.05-1.75-.75-1.12h-.01v-.6h-.44Z"/>
    <path class="cls-7" d="m58.15,188.35c-.06.53-.03,1.76.78,1.1h.02s.02.13.02.13h.38v-1.24h-.44v.93c-.48.37-.26-.75-.31-.93h-.44Z"/>
    <path class="cls-7" d="m59.62,187.86c.1.41-.35,2.07.58,1.72v-.23c-.31.09-.08-1.37-.14-1.49h-.44Z"/>
    <polygon class="cls-7" points="60.41 188.35 60.41 188.63 60.9 188.63 60.42 189.32 60.42 189.58 61.45 189.58 61.45 189.3 60.92 189.3 61.41 188.6 61.41 188.35 60.41 188.35"/>
    <path class="cls-7" d="m61.68,188.35v1.24h.44v-.92c.48-.41.26.74.31.92h.44c0-.1,0-.85,0-.93.5-.36.26.75.31.93h.44c.07-.55,0-1.76-.81-1.09-.13-.25-.58-.22-.72,0h-.01v-.14h-.38Z"/>
    <path class="cls-7" d="m64.53,189.04v.28c-.37.24-.41-.44,0-.28m-.25-.44c.21,0,.26.08.25.26-1.05-.33-.8,1.26.03.6h.02s.03.12.03.12h.37c.1-.75-.06-1.55-1-1.22l.02.27c.1-.02.2-.03.3-.03Z"/>
    <path class="cls-7" d="m65.24,188.35v1.24h.44v-.8c.1-.06.26-.08.38-.08v-.39c-.17-.02-.3.08-.4.29h-.01v-.26h-.4Z"/>
    <path class="cls-7" d="m66.27,187.86v1.72h.44v-.52h.09l.24.52h.46s-.33-.64-.33-.67l.32-.57h-.46l-.23.5h-.09v-.98h-.44Z"/>
    <path class="cls-7" d="m68.04,188.86c-.09-.42.4-.42.31,0h-.31Zm-.29-.41c-.52.69.22,1.44.97,1.1v-.25c-.25.07-.7.12-.68-.24h.72c.16-.65-.55-.96-1.01-.6Z"/>
    <path class="cls-1" d="m24.7,223.39l-.41.39c-2.52-2.07-2.51,3.3,0,1.23l.4.42c-3.89,2.85-3.77-4.94.01-2.04m-4.75-.54h.59v2.54h.87v.56h-1.45v-3.1Zm-1.94.82l-.42,1.07h.84l-.42-1.07Zm-.3-.82h.59l1.19,3.1h-.61l-.24-.64h-1.27l-.25.64h-.61l1.2-3.1Zm7.62-3.14c-.46,0-.46.72,0,.71.46,0,.46-.72,0-.71Zm0-.38c.96-.02.96,1.5,0,1.48-.96.02-.96-1.5,0-1.48Zm-2.05-1.4c-.46,0-.46.72,0,.71.46.01.46-.72,0-.71Zm2.02-.44h.43l-2.45,3.45h-.43l2.1-2.96c-.34.06-.64.08-.97.05.28,2.2-2.85.11-.72-.48.67.1,1.42.27,2.04-.06Zm-4.54.14h1.45v.54h-1.01l-.13.57c2.72-.05,0,3.79-.93,1.22h.62c.93,1.21,1.32-1.42.1-.5l-.48-.11.37-1.72Zm-1.36,2.52l.41.21-.52.89-.29-.14.39-.96Zm-1.54-.6v-1.04l-.71,1.04h.71Zm0-2h.59v2h.28v.54h-.28v.63h-.58v-.63h-1.35v-.54l1.35-2Z"/>
    <path class="cls-1" d="m98.27,217.33h1.49v.56h-1.04l-.13.58c2.79-.05,0,3.89-.96,1.25h.64c.96,1.25,1.36-1.46.11-.52l-.49-.11.38-1.77Zm6.44,5.37h.6v2.6h.89v.58h-1.49v-3.18Zm-2.23.51c-1.37-.03-1.35,2.2.01,2.16,1.35.02,1.34-2.19-.01-2.16Zm0-.59c2.13-.04,2.15,3.39,0,3.34-2.17.05-2.16-3.38,0-3.34Zm-4.84.08h.62l.8,2.26.82-2.26h.62l-1.15,3.18h-.58l-1.12-3.18Zm7.95-5.37h.6v2.6h.89v.58h-1.49v-3.18Zm-3.68,0h.59l.74,2.22.74-2.22h.59l.53,3.18h-.58l-.34-2.01-.67,2.01h-.53l-.67-2.01-.35,2.01h-.59l.55-3.18Zm-6.13,0h1.49v.56h-1.04l-.13.58c2.79-.05,0,3.89-.96,1.25h.64c.96,1.25,1.36-1.46.11-.52l-.49-.11.38-1.77Zm-2.38.78h-.58c.18-1.76,3.02-.39,1.45.65,2.07,1.06-1.45,3.04-1.58.79h.6c.41,1.38,1.8-.53.27-.5v-.52c1.03.03.3-1.28-.16-.42Z"/>
    <path class="cls-1" d="m73.71,222.88v1.89c1.64.36,1.63-2.19,0-1.89Zm-.57-.55c3.14-.61,3.18,3.65,0,3v-3Zm-1.89.8l-.41,1.03h.81l-.4-1.03Zm-.29-.8h.57l1.15,3h-.59l-.23-.62h-1.23l-.24.62h-.59l1.16-3Zm-2.73,1.17c.86.17.85-.78,0-.62v.62Zm-.57-1.17c1.24-.33,2.65.84,1.21,1.66l.71,1.33h-.62l-.67-1.27h-.06v1.27h-.57v-3Zm-.77.49l-.4.4c-2.65-1.94-2.21,3.34-.03,1.13h-.87v-.53h1.51c.18,1.62-2.17,2.19-2.9.81-1-1.68,1.47-3.26,2.69-1.8Zm-5.85-.49h.54l1.29,1.97v-1.97h.57v3h-.55l-1.29-1.97v1.97h-.57v-3Zm-1.21,0h.57v3h-.57v-3Zm-3.04,0h.54l1.29,1.97v-1.97h.57v3h-.55l-1.29-1.97v1.97h-.57v-3Zm-1.21,0h.57v3h-.57v-3Zm-1.8,0h.57v2.45h.84v.54h-1.41v-3Zm-1.88.8l-.41,1.03h.81l-.4-1.03Zm-.29-.8h.57l1.15,3h-.59l-.23-.62h-1.23l-.24.62h-.59l1.16-3Zm-3.5,0h.58v1.04l.81-1.04h.69l-1.05,1.34,1.15,1.66h-.68l-.92-1.34v1.34h-.58v-3Zm26.13-3.48l-.31.77h.61l-.3-.77Zm-.22-.6h.43l.87,2.25h-.45l-.18-.46h-.92l-.18.46h-.45l.87-2.25Zm-1.98,0h.43v2.25h-.43v-2.25Zm-.8.31l-.32.28c-.14-.2-.31-.3-.48-.19-.21.34.73.68.78,1.01.37.89-1.05,1.26-1.36.41l.36-.22c.14.33.56.43.64.09-.03-.29-.71-.65-.78-.85-.47-.77.74-1.24,1.16-.53Zm-2.01,0l-.32.28c-.14-.2-.31-.3-.48-.19-.21.34.73.68.78,1.01.37.89-1.05,1.26-1.36.41l.36-.22c.14.33.56.43.64.09-.03-.29-.71-.65-.78-.85-.47-.77.74-1.24,1.16-.53Zm-3.59-.31h.43c-.25,2.57.91,2.56.66,0h.43c-.09.69.36,2.34-.76,2.3-1.12.04-.68-1.61-.76-2.3Zm-1.73.88c.65.13.64-.59,0-.46v.46Zm-.43-.88c.91-.27,1.98.66.91,1.25l.53,1h-.47l-.51-.95h-.04v.95h-.43v-2.25Zm-3.22,0h.41l.97,1.48v-1.48h.43v2.25h-.41l-.97-1.47v1.47h-.43v-2.25Zm-1.3,0h.43v2.25h-.43v-2.25Zm-2.47,0h1.23v.42h-.8v.4h.8v.41h-.8v.59h.8v.42h-1.23v-2.25Zm-2.15.41v1.42c1.23.27,1.22-1.64,0-1.42Zm-.43-.41c2.36-.46,2.39,2.74,0,2.25v-2.25Zm-1.8.6l-.3.77h.61l-.3-.77Zm-.22-.6h.43l.87,2.25h-.44l-.18-.46h-.92l-.18.46h-.44l.87-2.25Zm-3.67,0h.41l.52,1.57.53-1.57h.41l.38,2.25h-.41l-.24-1.42-.48,1.42h-.38l-.47-1.42-.24,1.42h-.42l.39-2.25Z"/>
    <path class="cls-7" d="m11.4,28.1v141.17h26.89l3.62-8.71,19.54-8.29,20.17,7.94,3.89,9.06h26.14V28.1c-.14-5.04-10.23-9.75-9.68-17.05l-80.96-.09c.02,6.82-9.73,12.07-9.62,17.14"/>
    <polygon class="cls-3" points="24.62 137.82 21.07 135.85 21.07 109.68 24.62 107.7 24.62 126.99 28.3 129.04 24.62 131.09 24.62 137.82"/>
    <polygon class="cls-3" points="28.34 129.01 31.89 127.04 31.89 107.54 24.54 103.45 21.08 105.58 28.34 109.63 28.34 129.01"/>
    <polygon class="cls-3" points="44.88 127.25 44.88 131.25 102.33 102.21 98.42 100.19 44.88 127.25"/>
    <polygon class="cls-3" points="34.17 112.05 34.17 122.45 37.84 124.49 41.49 122.46 37.72 120.35 37.72 110.08 34.17 112.05"/>
    <polygon class="cls-3" points="45.09 120.46 45.09 110.06 41.42 108.02 37.77 110.05 41.55 112.15 41.55 122.43 45.09 120.46"/>
    <polygon class="cls-3" points="60.57 98.66 60.57 109.06 64.23 111.11 67.89 109.07 64.11 106.97 64.11 96.69 60.57 98.66"/>
    <polygon class="cls-3" points="71.54 111.04 71.49 96.67 67.82 94.63 64.17 96.66 67.94 98.77 67.94 109.04 71.54 111.04"/>
    <polygon class="cls-3" points="82.64 83.95 82.66 101.36 86.33 103.4 89.98 101.37 86.21 99.26 86.21 89.35 89.88 87.29 86.21 85.25 86.22 81.96 82.64 83.95"/>
    <polygon class="cls-3" points="50.98 117.73 47.43 115.76 47.43 101.4 50.98 103.37 50.98 117.73"/>
    <polygon class="cls-3" points="94.84 98.92 91.29 96.95 91.31 77.64 94.84 75.67 94.84 98.92"/>
    <polygon class="cls-3" points="102.31 98.73 102.25 84.36 98.58 82.32 94.93 84.35 98.7 86.46 98.7 96.73 102.31 98.73"/>
    <polygon class="cls-3" points="77.43 107.68 73.88 105.71 73.88 91.45 80.71 88 80.73 91.99 77.43 93.66 77.43 107.68"/>
    <polygon class="cls-3" points="58.42 117.78 58.37 103.42 54.7 101.38 51.05 103.41 54.82 105.51 54.82 115.79 58.42 117.78"/>
    <polygon class="cls-3" points="43.13 132.13 43.1 126.25 41.71 125.56 40.35 126.24 41.74 126.94 41.74 132.83 43.13 132.13"/>
    <polygon class="cls-3" points="39.02 132.81 40.36 133.53 41.73 132.84 40.41 132.11 39.02 132.81"/>
    <polygon class="cls-3" points="38.96 126.94 38.98 130.55 40.3 131.28 41.69 130.58 40.35 129.86 40.34 126.25 38.96 126.94"/>
    <polygon class="cls-3" points="38.3 134.57 38.28 130.99 36.9 130.28 36.91 135.27 38.3 134.57"/>
    <polygon class="cls-3" points="34.11 128.05 34.13 132.99 35.45 133.72 36.84 133.02 35.5 132.3 35.5 128.75 34.11 128.05"/>
    <polygon class="cls-3" points="33.44 137.02 33.42 133.41 30.69 132.04 30.69 131.12 29.19 131.87 29.21 132.67 32.05 134.1 32.05 137.72 33.44 137.02"/>
    <polygon class="cls-3" points="29.31 134.15 29.33 137.69 30.65 138.43 32.04 137.73 30.7 137 30.7 133.45 29.31 134.15"/>
    <polygon class="cls-3" points="33.48 132.04 33.48 131.05 32.14 130.37 30.77 131.06 32.11 131.74 32.11 132.74 33.48 132.04"/>
    <polygon class="cls-3" points="27.91 139.81 27.88 132.6 26.5 131.89 26.51 139.17 27.91 139.81"/>
    <path class="cls-3" d="m51.8,95.69v-10.85c-1.68-.37-.52,10.68-.84,11.27l.84-.42Z"/>
    <path class="cls-3" d="m64.33,84.23v5.13l3.63-1.83c.23-2.56-.07-2.82-3.63-3.3"/>
    <path class="cls-3" d="m54.59,94.21v-9.98c-.79.1-1.48.23-2.05.37v10.7l2.05-1.09Z"/>
    <path class="cls-3" d="m65.52,82.09l-.62-.16-.57,2.3c-.46-.06-.93-.11-1.41-.15l.63-2.49-.56-.14.47-4.7c1.44.04,2.76.4,3.98,1.04l-1.92,4.29Z"/>
    <path class="cls-3" d="m56.25,79.38c.17.79-.22,1.74-.89,2.18l.63,2.53c-.47.03-.93.08-1.38.14l-.57-2.29c-2.05.03-2.22-2.6-2.62-4.03l4.2-1.08.64,2.55Z"/>
    <path class="cls-3" d="m55.58,79.44c-.16,3.43-3.38,1.75-3.35-1.03l2.91-.75.44,1.77Z"/>
    <path class="cls-3" d="m52.23,78.41l2.91-.75c1.82,4.11-2.56,5.26-2.91.75m-.82-.5c.4,1.44.57,4.06,2.62,4.03l.57,2.29c.45-.07.91-.12,1.38-.14l-.63-2.53c1.64-.94.55-3.37.26-4.72l-4.2,1.08Z"/>
    <path class="cls-3" d="m64.33,84.23l.57-2.3.62.16,1.92-4.29c-1.22-.64-2.54-1-3.98-1.04l-.47,4.7.56.14-.63,2.49c.48.03.95.08,1.41.15m.84-2.87l-1.52-.39.33-3.65c.17.01.33.03.49.05l-.22,2.51.26.05.6-2.44c.14.04.31.09.44.13l-.61,2.44.23.08,1.05-2.26c.13.06.25.12.37.19l-1.43,3.28Z"/>
    <path class="cls-3" d="m58.79,76.06h-1.36v-.78c.36.02.78.24,1.36.2v.58Zm0,1.41h-1.33v-.78h1.33v.78Zm0,1.49c-.64.03-1.14-.22-1.33-.87h1.33v.87Zm0,.59v4.41c-1,.01-1.94.06-2.82.13v9.49l6.95-3.51v-5.98c-.85-.07-1.78-.11-2.76-.13v-4.41c3.37.1.79-4.27,2.82-5.67h-.85c-.44.57-.92,1.05-1.98.97v-.97h-1.37v.97c-.97.05-1.54-.32-1.94-.97h-.86c2.07,1.47-.67,5.65,2.8,5.67Zm1.37-.59v-.87h1.3c-.11.55-.59.93-1.3.87Zm0-1.49v-.78h1.3v.78h-1.3Zm0-1.41v-.58c.41.03,1.08-.11,1.16-.2h.1v.78h-1.26Z"/>
    <path class="cls-2" d="m77.26,43.43c2.31.39,2.28-2,0-1.61v1.61Zm-1.48-3.06c.88,0,2.85-.07,3.43.23,1.71.72,1.63,3.63-.26,4.12l1.85,3.48h-1.63l-1.76-3.32h-.15v3.32h-1.48v-7.83Zm-5.76,0h4.28v1.46h-2.79v1.41h2.79v1.44h-2.79v2.06h2.79v1.46h-4.28v-7.83Zm-8.07,0h1.41l3.37,5.15v-5.15h1.48v7.83h-1.42l-3.36-5.14v5.14h-1.48v-7.83Zm-1.57,1.07l-1.11.97c-.47-1.02-2.26-1.1-1.72.08.54.66,2.48,1.94,2.78,2.78,1.27,3.12-3.67,4.39-4.74,1.43l1.26-.76c.48,1.51,2.82,1.23,2.01-.24-.96-1.09-2.96-2.14-2.9-3.55.1-2.34,3.24-2.57,4.42-.72Zm-8.92-1.07h1.48v6.41h2.19v1.42h-3.67v-7.83Zm-3.15,0h1.48v7.83h-1.48v-7.83Zm-4.53,3.06c2.28.4,2.31-1.98,0-1.61v1.61Zm-1.48-3.06c.89,0,2.83-.07,3.43.24,2.49,1.33.9,4.89-1.95,4.28v3.32h-1.48v-7.83Z"/>
    <rect class="cls-2" x="49.28" y="52.32" width="24.5" height=".48"/>
    <path class="cls-2" d="m81.66,56.7c.75.15.74-.68,0-.54v.54Zm-.49-1.02c1.08-.29,2.31.73,1.06,1.45l.62,1.16h-.54l-.59-1.1h-.05v1.1h-.49v-2.61Zm-1.92,0h1.42v.49h-.93v.47h.93v.48h-.93v.69h.93v.49h-1.42v-2.61Zm-2.69,0h.47l1.12,1.72v-1.72h.49v2.61h-.47l-1.12-1.71v1.71h-.49v-2.61Zm-.52.36l-.37.32c-.17-.23-.36-.35-.55-.22-.24.4.84.79.91,1.17.42,1.04-1.22,1.46-1.58.48l.42-.25c.16.5.94.41.67-.08-.45-.46-1.4-1.01-.76-1.65.39-.35.94-.2,1.27.23Zm-2.97-.36h.49v2.14h.73v.47h-1.22v-2.61Zm-1.05,0h.49v2.61h-.49v-2.61Zm-1.51,1.02c.74.15.75-.68,0-.54v.54Zm-.49-1.02c1.54-.44,2.33,1.51.49,1.5v1.1h-.49v-2.61Zm-2.9,0h1.42v.49h-.93v.47h.93v.48h-.93v.69h.93v.49h-1.42v-2.61Zm-1.61,0h.49v2.14h.73v.47h-1.22v-2.61Zm-2.44,0h.53l.48.94.48-.94h.53c-.41.67-.95,1.79-.77,2.61h-.5c.18-.82-.35-1.95-.77-2.61Zm-1.59,0h1.44v.49h-.48v2.12h-.51v-2.12h-.46v-.49Zm-.27.36l-.37.32c-.17-.23-.36-.35-.55-.22-.24.4.84.79.91,1.17.42,1.04-1.22,1.46-1.58.48l.42-.25c.16.38.65.49.74.1-.04-.33-.83-.76-.91-.98-.55-.9.86-1.44,1.35-.62Zm-5.07-.36h.47l1.12,1.72v-1.72h.49v2.61h-.47l-1.12-1.71v1.71h-.49v-2.61Zm-1.64.69l-.35.9h.71l-.35-.9Zm-.25-.69h.5l1,2.61h-.52l-.2-.54h-1.07l-.21.54h-.52l1.01-2.61Zm-2.68,0h1.42v.49h-.93v.47h.93v.48h-.93v.69h.93v.49h-1.42v-2.61Zm-1.55,1.02c.74.15.75-.68,0-.54v.54Zm-.49-1.02c1.54-.44,2.33,1.51.49,1.5v1.1h-.49v-2.61Zm-1.83.42c-1.12-.03-1.11,1.81,0,1.77,1.11.02,1.1-1.8,0-1.77Zm0-.49c1.75-.03,1.77,2.78,0,2.74-1.78.04-1.77-2.77,0-2.74Zm-2.81,1.09c.75.15.74-.68,0-.54v.54Zm-.49-1.02c1.08-.29,2.31.73,1.06,1.45l.62,1.16h-.54l-.59-1.1h-.05v1.1h-.49v-2.61Zm-2.38,0h.5c.12.39-.33,2.22.38,2.2.74.02.27-1.78.39-2.2h.5c-.1.8.42,2.71-.88,2.68-1.3.04-.79-1.87-.89-2.68Zm-1.87,0h1.42v.49h-.93v.47h.93v.48h-.93v.69h.93v.49h-1.42v-2.61Z"/>
  </g>
</svg>