<?xml version="1.0" encoding="UTF-8"?>
<svg id="_Слой_1" data-name="Слой 1" xmlns="http://www.w3.org/2000/svg" xmlns:xlink="http://www.w3.org/1999/xlink" viewBox="0 0 110.3 227.23">
  <defs>
    <style>
      .cls-1, .cls-2, .cls-3, .cls-4, .cls-5, .cls-6, .cls-7, .cls-8, .cls-9, .cls-10 {
        stroke-width: 0px;
      }

      .cls-1, .cls-8 {
        fill: #fcf6e6;
      }

      .cls-2 {
        fill: url(#_Безымянный_градиент_45);
      }

      .cls-11 {
        clip-path: url(#clippath-2);
      }

      .cls-3 {
        fill: url(#_Безымянный_градиент_25);
      }

      .cls-4, .cls-5 {
        fill: none;
      }

      .cls-12 {
        clip-path: url(#clippath-1);
      }

      .cls-13 {
        clip-path: url(#clippath-4);
      }

      .cls-5 {
        clip-rule: evenodd;
      }

      .cls-6 {
        fill: url(#_Безымянный_градиент_46);
      }

      .cls-7, .cls-8 {
        fill-rule: evenodd;
      }

      .cls-7, .cls-9 {
        fill: #4a5342;
      }

      .cls-14 {
        clip-path: url(#clippath);
      }

      .cls-15 {
        clip-path: url(#clippath-3);
      }

      .cls-10 {
        fill: url(#_Безымянный_градиент_26);
      }
    </style>
    <clipPath id="clippath">
      <rect class="cls-4" x="-60.23" y="-361.25" width="595.28" height="841.89"/>
    </clipPath>
    <clipPath id="clippath-1">
      <rect class="cls-4" x="22.01" y="6.24" width="73.56" height="2"/>
    </clipPath>
    <linearGradient id="_Безымянный_градиент_25" data-name="Безымянный градиент 25" x1="22.01" y1="7.24" x2="95.57" y2="7.24" gradientUnits="userSpaceOnUse">
      <stop offset="0" stop-color="#b1b0ae"/>
      <stop offset="1" stop-color="#fdfdfd"/>
    </linearGradient>
    <clipPath id="clippath-2">
      <polygon class="cls-5" points="13.49 209.84 104.36 209.84 93.93 219.82 93.47 220.78 24.41 220.78 23.95 219.83 13.49 209.84"/>
    </clipPath>
    <linearGradient id="_Безымянный_градиент_26" data-name="Безымянный градиент 26" x1="13.49" y1="215.31" x2="104.36" y2="215.31" gradientUnits="userSpaceOnUse">
      <stop offset="0" stop-color="#b1b0ae"/>
      <stop offset="1" stop-color="#fdfdfd"/>
    </linearGradient>
    <clipPath id="clippath-3">
      <rect class="cls-4" x="22.01" y="6.24" width="73.56" height="2"/>
    </clipPath>
    <linearGradient id="_Безымянный_градиент_45" data-name="Безымянный градиент 45" x1="22.01" y1="7.24" x2="95.57" y2="7.24" gradientUnits="userSpaceOnUse">
      <stop offset="0" stop-color="#b1b0ae"/>
      <stop offset="1" stop-color="#fdfdfd"/>
    </linearGradient>
    <clipPath id="clippath-4">
      <polygon class="cls-5" points="13.49 209.84 104.36 209.84 93.93 219.82 93.47 220.78 24.41 220.78 23.95 219.83 13.49 209.84"/>
    </clipPath>
    <linearGradient id="_Безымянный_градиент_46" data-name="Безымянный градиент 46" x1="13.49" y1="215.31" x2="104.36" y2="215.31" gradientUnits="userSpaceOnUse">
      <stop offset="0" stop-color="#b1b0ae"/>
      <stop offset="1" stop-color="#fdfdfd"/>
    </linearGradient>
  </defs>
  <g class="cls-14">
    <path class="cls-8" d="m13.49,23.78c-.1-4.59,8.74-9.35,8.72-15.53l73.38.08c-.5,6.61,8.64,10.89,8.77,15.45v186.09H13.49V23.78Z"/>
    <g class="cls-12">
      <rect class="cls-3" x="22.01" y="6.24" width="73.56" height="2"/>
    </g>
    <g class="cls-11">
      <rect class="cls-10" x="13.49" y="209.84" width="90.88" height="10.94"/>
    </g>
    <path class="cls-8" d="m104.36,151.74V23.78c-.13-4.57-9.27-8.84-8.77-15.45l-73.38-.08c.02,6.18-8.82,10.94-8.72,15.53v127.96h90.87Z"/>
    <path class="cls-7" d="m75.23,145.5l-16.33-6.43-15.8,6.7-6.7,16.14,5.99,15.97,16.59,7.09,16.73-6.88,6.6-16.12-7.07-16.47Zm-36.08,16.48c.45-26.27,39.53-26.27,39.98,0-.45,26.27-39.53,26.27-39.98,0Z"/>
    <rect class="cls-9" x="43.46" y="167.29" width="1.29" height="1.29" transform="translate(-129.39 160.97) rotate(-72.99)"/>
    <polygon class="cls-7" points="46.84 168.74 43.58 170.51 44.09 171.45 45.42 170.73 45.55 170.98 44.55 172.3 45.22 173.1 46.35 171.57 48.33 171.5 47.81 170.54 46.15 170.66 46.01 170.41 47.35 169.69 46.84 168.74"/>
    <path class="cls-7" d="m48.28,172.95c.65-.72,1.52.18.76.8,0,0-.77.73-.77.73-.66.73-1.52-.18-.75-.8,0,0,.76-.72.76-.72Zm.26-1.18c-2.22.21-3.17,3.4-.54,3.9,2.2-.22,3.19-3.4.54-3.9Z"/>
    <path class="cls-7" d="m48.88,171.36c0,.54.84.54.83,0,0-.54-.84-.54-.83,0"/>
    <path class="cls-7" d="m50.57,172.35c-.54,0-.54.84,0,.83.54,0,.54-.84,0-.83"/>
    <polygon class="cls-7" points="50.78 173.68 48.98 176.92 49.8 177.38 50.87 175.46 50.91 175.49 50.93 178 51.82 178.5 53.62 175.25 52.79 174.79 51.71 176.74 51.67 176.72 51.75 174.22 50.78 173.68"/>
    <rect class="cls-9" x="52.31" y="176.85" width="3.71" height="1.07" transform="translate(-131.11 169.03) rotate(-70.44)"/>
    <path class="cls-7" d="m56.25,176.46c-1.76,1.68-.3,4.47,2.17,3.48l.29-1.9-1.29-.19-.15.66.45.07-.12.81c-1.1.27-1.13-.89-.9-1.68.08-.97,1.2-.82,1.82-.47l.24-.6c-.64-.4-1.91-.62-2.51-.17"/>
    <path class="cls-7" d="m60.73,176.26c-1.8-.06-1.87,1.82-.45,2.26,1.4.58-.09,1.27-.88.81l.03.67c1.35.61,3.44-.58,2.08-1.92-1.3-.51-1.66-1.41.1-1.11l.07-.62c-.29-.08-.61-.11-.95-.1"/>
    <path class="cls-7" d="m63.78,177.94c1.22-.52,1.53,1.03.18.99l-.18-.99Zm-.1-.55l-.17-.95c1.14-.48,1.37,1,.17.95Zm-1.3-1.34l.67,3.65c.6-.17,2.28-.23,2.65-.77.44-.51.14-1.65-.62-1.62v-.03c1.55-1.92-1.6-1.6-2.69-1.22Z"/>
    <polygon class="cls-7" points="65.48 175.06 66.99 178.45 69.29 177.42 69.03 176.83 67.69 177.42 67.33 176.61 68.4 176.13 68.14 175.54 67.07 176.02 66.71 175.22 68 174.65 67.74 174.06 65.48 175.06"/>
    <path class="cls-7" d="m70.24,174.16l-.34.24-.72-1.01c.5-.77,1.62.19,1.06.76m-2.29-.63l2.16,3.01.87-.63-.71-.99.36-.26,1.11.71.86-.62-.03-.06-1.37-.81c.36-2.62-2.13-1.47-3.26-.35Z"/>
    <path class="cls-7" d="m72,172.92c1.18,1.13,2.74-.3,2.96-1.57l-1.47-1.25-.84.99.48.47.3-.35.62.53c-.35,1.07-1.35.49-1.9-.12-.79-.58-.07-1.45.56-1.79l-.38-.52c-1.57.77-2.03,2.68-.33,3.61Z"/>
    <rect class="cls-9" x="73.34" y="167.75" width="1.29" height="1.29" transform="translate(-46.03 29.01) rotate(-17.01)"/>
    <polygon class="cls-7" points="72.75 166.24 76.39 166.89 76.57 165.84 75.07 165.57 75.28 164.38 76.79 164.64 76.97 163.59 73.33 162.94 73.14 164 74.57 164.25 74.35 165.44 72.93 165.19 72.75 166.24"/>
    <polygon class="cls-7" points="73.34 161.43 76.38 161.21 76.45 162.13 77.1 162.13 76.89 159.16 76.24 159.21 76.31 160.14 73.27 160.35 73.34 161.43"/>
    <path class="cls-7" d="m74.47,156.95l-.14-.39,1.17-.41c.6.69-.64,1.5-1.03.81m-1.16,2.09l1.15-1.08c2.41,1.07,2-1.63,1.25-3.02l-3.49,1.23.36,1.01,1.15-.41.15.41-.98.86.35,1h.07Z"/>
    <path class="cls-7" d="m73.65,152.56l-1.23,1.25-.43-.68,1.63-.6.02.04Zm-1.57,3.12l2.58-2.85-.8-1.28-3.65,1.14.56.89.64-.24.57.9-.48.49.59.94Z"/>
    <polygon class="cls-7" points="69.89 152.29 72.29 149.48 71.57 148.87 70.13 150.56 70.09 150.52 70.66 148.09 69.82 147.37 67.42 150.19 68.13 150.8 69.55 149.14 69.59 149.17 69.11 151.63 69.89 152.29"/>
    <path class="cls-7" d="m44.75,165.02l-.98.18c-.51-1.22,1.03-1.52.98-.18Zm-1.53.28l-.95.17c-.48-1.14,1-1.37.95-.17Zm2.29.63c-.17-.6-.22-2.27-.76-2.64-.5-.44-1.65-.14-1.62.62h-.03c-1.91-1.55-1.6,1.58-1.23,2.68l3.64-.66Z"/>
    <path class="cls-7" d="m43.07,160.37c.18.13.07.54.07.73l-1.23-.1c-.15-.77.62-.97,1.16-.63m-1.85,1.65l3.69.31.09-1.07-1.21-.1.04-.44,1.25-.38.09-1.06-.06-.02-1.5.52c-1.76-1.97-2.49.66-2.38,2.24Z"/>
    <path class="cls-7" d="m44.36,157.3l-1.51-.87v-.04s1.76.14,1.76.14l-.25.77Zm-2.39-.42l3.22,2.07.32-1-.59-.34.33-1.01.68.06.34-1.05-3.84-.15-.47,1.43Z"/>
    <path class="cls-7" d="m45.36,154.51c1.1.95,2.55-.6,2.42-1.75-.03-.85-2.06-1.74-2.63-2.22l-.59.89c.34.42,2.86,1.34,2.28,2.13-.49.85-2.35-1.11-2.86-1.25l-.59.89,1.96,1.29Z"/>
    <polygon class="cls-7" points="46.4 149.16 48.78 151.99 50.71 150.37 50.29 149.88 49.17 150.82 48.6 150.14 49.5 149.38 49.08 148.89 48.18 149.64 47.63 148.98 48.71 148.07 48.29 147.57 46.4 149.16"/>
    <path class="cls-7" d="m51.31,147.77l-.56-1.11c.89-.78,1.71.86.56,1.11Zm-1.78-1.17l1.66,3.31.96-.48-.55-1.09.39-.2.98.87.95-.48v-.07s-1.23-1.01-1.23-1.01c.77-2.53-1.86-1.79-3.15-.86Z"/>
    <polygon class="cls-7" points="53.62 144.71 54.49 148.31 56.94 147.72 56.79 147.09 55.36 147.43 55.16 146.57 56.3 146.29 56.15 145.67 55.01 145.94 54.8 145.09 56.17 144.76 56.02 144.13 53.62 144.71"/>
    <rect class="cls-9" x="57.43" y="143.93" width="1.07" height="3.7" transform="translate(-11.86 5.29) rotate(-4.74)"/>
    <path class="cls-7" d="m61.87,146.26l.27-1.5c1.26-.12.87,2.06-.27,1.5Zm-.67-2.29l-.66,3.64,1.05.19.17-.95c1.59.74,3.05-1.24,1.66-2.33-.46-.34-1.69-.42-2.23-.56Z"/>
    <path class="cls-7" d="m65.54,147.6l.47-.94c.36-.9,1.49-.34.98.49,0,0-.47.94-.47.94-.37.91-1.49.35-.98-.5m-.93-.59c-1.06,2.35,2.91,3.3,3.3.75,1.07-2.35-2.9-3.28-3.3-.75Z"/>
    <path class="cls-7" d="m61.05,154.1l3.26-1.91c.07.04.15.08.22.13l-3.36,1.98-.11-.19Zm-.2-.35l3.05-1.79c.08.04.16.08.23.12l-3.17,1.86-.11-.2Zm5.86,10.22l3.12-1.84c0,.09,0,.18-.01.27l-3,1.76-.11-.2Zm-.2-.34l3.32-1.98c0,.09,0,.19,0,.28l-3.21,1.89-.11-.19Zm1.76,3.07l.54-.33c-.11.23-.22.46-.34.68l-.2-.35Zm-.19-.32l.98-.59c-.04.1-.08.21-.13.31l-.75.45-.1-.17Zm-.2-.35l1.4-.83c-.04.12-.08.24-.12.35l-1.16.68-.12-.2Zm-.2-.35l1.77-1.04c-.03.1-.06.21-.09.31l-1.56.93-.11-.2Zm-.2-.35l2.1-1.24c-.02.11-.05.21-.07.32l-1.91,1.12-.11-.2Zm-.19-.34l2.39-1.41c-.02.09-.03.18-.05.27l-2.23,1.32-.11-.19Zm-.19-.32l2.64-1.56c-.01.09-.02.17-.03.26l-2.51,1.48-.1-.17Zm-.2-.35l2.9-1.7c0,.09-.02.19-.03.28l-2.76,1.62-.12-.2Zm-7.95,8.44v-2.51h.26v2.5c-.08,0-.17,0-.26,0Zm1.24-3.82v-1.32s.25,0,.25,0v1.27c-.09,0-.17.01-.25.05Zm-.4,3.78v-2.46h.23v2.44c-.07,0-.15.02-.23.02Zm-.24-2.46v-.89c.14-.11.03.86.06.89h0v2.48c-.08,0-.16.01-.24.01v-2.49s.17,0,.17,0Zm-.17-1.34v-1.3s.24,0,.24,0v1.28s-.08.02-.12.04v-.02h-.12Zm-.42-1.3h.25v1.3s-.25,0-.25,0v-1.3Zm1.65,5v-2.36h.28v2.31c-.09.02-.19.03-.28.05Zm-.38-3.19s0-.05,0-.07c.14-.09.03.86.06.9h.15v2.39c-.08.01-.16.02-.24.03v-2.42s.04,0,.04,0v-.83Zm-.17-.27c.73-.61.8.49.73.99h-.4c-.05-.17.17-1.17-.28-.84.02.07,0,.76,0,.84h-.4c-.04-.16.15-1.2-.28-.83v.83h-.4v-1.12h.35v.12h.01c.14-.19.53-.22.66,0Zm-.27-1.54h.22v1.33c-.06-.04-.14-.06-.22-.06v-1.27Zm1.68,4.82v-2.17s.09-.03.13-.05v.03h.1v2.12c-.07.02-.15.04-.23.06Zm-.42-2.22c.07.04.16.06.25.07v2.19c-.08.02-.16.04-.24.05v-2.31Zm1.22,1.98v-1.95h.26v1.85c-.08.03-.17.06-.26.09Zm-.41-1.95h.24v2c-.08.02-.16.05-.24.07v-2.07Zm-.76-1.22c.86-.3,1,.44.91,1.11h-.33l-.02-.1h-.01c-.77.59-.96-.85-.03-.55.05-.31-.29-.24-.49-.21l-.02-.24Zm-.06-.1v-1.32s.25,0,.25,0v1.28c-.09,0-.17.02-.25.05Zm-.45-1.32h.28v1.65c-.03-.17-.12-.3-.28-.35v-1.3Zm.87,1.27v-1.27h.22v1.28c-.07-.01-.15-.02-.22-.01Zm1.62,3v-1.64h.24v1.53c-.08.04-.16.07-.24.11Zm-.32-1.64v-.76c.05-.02.11-.02.16-.03v2.5c-.09.03-.17.06-.24.09v-1.8h.08Zm-.49-1.23h.35v.23h.01c.07-.15.2-.28.36-.26v.35c-.11,0-.24.01-.34.07v.72h-.4v-1.12h.02Zm0-.11v-1.3h.25v1.3s-.25,0-.25,0Zm-.42-1.3h.25v1.63c-.03-.13-.12-.24-.25-.3v-1.33Zm1.24.86v-.86h.23v.86s-.23,0-.23,0Zm.78,3.04v-1.26h.24v1.14c-.08.04-.16.09-.24.13Zm-.38-1.26h.2v-.27s0,1.58.01,1.62c-.07.03-.14.07-.21.1v-1.45Zm-.8-2.63h.23v1.27c-.08,0-.15.03-.2.07v-.05h-.04v-1.3Zm1.99,3.44v-.82c.08.03.16.04.25.04v.61c-.08.05-.16.11-.25.16Zm-.8-2.03h.41c-.07.12-.22.39-.29.52.07.16.25.44.3.6h-.42c-.03-.07-.19-.41-.22-.47h-.08v.47h-.4v-1.56h.4v.89h.08c.03-.06.17-.38.2-.45h.01Zm-.39-.55v-.86s.22,0,.22,0c-.02.04.03,1.5-.02,1.54v-.68h-.2Zm1.58,2.31v-.51c.07,0,.14,0,.2-.02v.39c-.07.05-.14.1-.2.14Zm.44-.6l.02-.42h.02c0-.21.03-.5-.1-.68v-1.48h.24v2.71c-.08.07-.16.13-.25.2v-.3s.06-.02.06-.02Zm-1.12-.7c.13-.89,1.27-.51,1.05.17h-.65c-.04.33.41.28.62.22v.23c-.48.18-1.16,0-1.02-.62Zm-.11-.58v-1.3s.23,0,.23,0v1.38c-.32.25-.33.9,0,1.15v1.01c-.07.04-.15.09-.22.13v-1.04s.12,0,.12,0c-.08-.44-.28-.91.06-1.34h-.19Zm1.97.93v-2.23h.23v2c-.07.08-.15.15-.23.22Zm-.38.34v-2.56s.21,0,.21,0v2.38c-.07.06-.14.12-.21.18Zm1.18-1.16v-1.41h.24v1.12c-.08.1-.16.19-.24.28Zm-.4-1.41h.23v1.6c-.08.08-.15.16-.23.23v-1.83Zm1.17.42v-.42h.28c-.09.14-.18.28-.28.42Zm-.38.51v-.93h.21v.66c-.07.09-.14.18-.21.27Zm-1.42-1.77l.7-1.06.61,1.06h-1.3Zm-2.15,2.14v-1.3h.23v1.3s-.23,0-.23,0Zm1.2-.02v-1.28h.21v1.34c-.07-.03-.14-.05-.21-.06Zm-.4-1.28h.23v1.27c-.08,0-.16,0-.24.03v-1.3Zm-15.74-.92l.47.28-.16.28c-.11-.19-.21-.37-.31-.57Zm-.29-.63l.95.59-.1.18-.69-.42c-.05-.12-.11-.23-.16-.35Zm-.23-.58l1.38.82-.12.2-1.13-.66c-.05-.12-.09-.24-.14-.36Zm-.19-.57l1.76,1.04-.11.19-1.55-.92c-.03-.1-.07-.21-.1-.31Zm-.15-.57l2.12,1.26-.12.2-1.92-1.13c-.03-.11-.06-.22-.08-.32Zm-.11-.51l2.43,1.43-.11.19-2.26-1.34c-.02-.09-.04-.18-.06-.28Zm-.08-.48l2.69,1.59-.1.17-2.55-1.5c-.01-.09-.03-.17-.04-.26Zm-.06-.5l2.96,1.74-.12.2-2.81-1.66c-.01-.1-.02-.19-.03-.29Zm-.04-.49l3.2,1.88-.11.2-3.06-1.8c0-.09-.01-.18-.02-.28Zm-.02-.49l3.41,2.03-.11.19-3.29-1.94c0-.09,0-.19,0-.28Zm2.17,5.74v.7c-.16-.23-.32-.46-.47-.7h.47Zm.17,0h.2v1.17c-.06-.08-.13-.16-.19-.25v-.93Zm.37,0h.24v1.63c-.08-.09-.16-.18-.24-.27v-1.36Zm.41,0h.23v2.03c-.08-.07-.15-.15-.22-.22v-1.81Zm.1-1.79l.63.95h-1.17l.55-.95Zm.53,1.79v2.41c-.07-.07-.15-.14-.23-.21v-2.19h.23Zm.39,0v2.73c-.07-.06-.14-.11-.21-.17v-2.56s.21,0,.21,0Zm.4,0v1.04c-.26.15-.27.66.01.84v.27s-.15-.06-.19-.07v.49c.06.02.13.05.2.07v.42s.17.12.17.12v-.51c.07,0,.13,0,.2,0v.65c-.21-.14-.42-.29-.62-.45v-2.86h.23Zm.17,0h.2v.92c-.06,0-.13.02-.2.04v-.96Zm.84,2.26c.03.11.09.2.16.26v1.26c-.07-.04-.15-.08-.22-.12v-1.26s.04-.09.06-.14Zm-.23.31v.99c-.08-.05-.16-.1-.25-.15v-.76c.09-.02.18-.04.25-.08Zm.57.05c.08.03.17.04.26.04v1.35c-.09-.04-.18-.09-.26-.13v-1.26Zm.43.04c.08,0,.16-.03.23-.05v1.6c-.08-.04-.16-.07-.23-.11v-1.44Zm.41-.02h.21v1.73c-.07-.03-.14-.06-.21-.09v-1.64Zm.39,0h.11v-.89c.18-.13.04.85.08.89h.04v1.88c-.07-.03-.15-.06-.23-.09v-1.8Zm.41,0h.23v2.02c-.07-.02-.15-.05-.23-.08v-1.94Zm-1.19-2.63h.23v1.32c-.07-.02-.15-.03-.23-.04v-1.28Zm.79,0h.22v1.28s-.07.02-.11.04v-.45h-.11v-.86Zm.4,0h.23v1.35c-.06-.05-.13-.07-.23-.08v-1.27Zm1.24,1.3v-1.3h.22v1.3s-.22,0-.22,0Zm.39,0v-1.3s.25,0,.25,0v.86h-.12c.04.24-.11,1.53.12,1.69v2.47c-.08-.01-.16-.02-.24-.04v-2.35s.09,0,.09,0v-1.34h-.1Zm-.75,1.37c.06,0,.12,0,.18-.02v2.23c-.08-.02-.16-.04-.24-.06v-2.15s.04,0,.06,0Zm-.07-2.66h.25v2.2s0-.86-.02-.9h-.23v-1.3Zm.41,4.91v-2.27h.23v2.32c-.07-.01-.15-.03-.23-.05Zm-2.2-3.14v.38c-.07.02-.15.04-.23.05v-.46c.07,0,.16.03.23.04h0Zm-1.63.32v.07c-.06.02-.14.01-.2,0v-.19c.06.03.14.06.2.11Zm.17-.7c.08,0,.15,0,.22.02v.21c-.08-.05-.16-.09-.24-.14v-.09s.01,0,.02,0Zm-.01-.37c.12,0,.22.02.33.05l-.04.24c-.69-.15-.57.22-.05.44.51.57-.36.99-.86.73v-.26c1.71.34-1.26-1.06.62-1.2Zm.24-1.03v.94c-.08-.02-.16-.02-.24-.03v-.92h.24Zm.32,1.87c-.03-.49.5-.56.86-.45l-.04.24c-.61-.24-.57.91.04.63v.23c-.49.17-.97-.09-.86-.64Zm.08-1.87v1.4c-.12.1-.19.25-.19.47-.01-.03-.02-.05-.04-.08,0-.18,0-.62.04-.79h-.04s0-1,0-1h.23Zm.17,0h.26v1.27c-.1,0-.19.02-.26.04v-1.31Zm.83.97h.39v.54h.01c.73-.56.73.57.68,1.02h-.4c-.04-.17.16-1.2-.3-.83v.83h-.4v-1.56h0Zm0-.97h.22v.86h-.22v-.86Zm1.33,1.41h.4c.04.17-.16,1.17.28.84v-.84h.4v1.12h-.34l-.02-.12h-.02c-.74.6-.75-.53-.7-1Zm-.14-1.41h.25v1.3s-.22,0-.22,0c.04.31-.14,1.16.22,1.31v2.16c-.08-.02-.17-.05-.26-.07v-2.06h.02c0-.62-.02-2,0-2.63Zm1.65,2.64c.07.02.15.02.23.02v2.41c-.08,0-.16-.02-.23-.03v-2.4Zm.41,2.45v-2.47s.03-.01.03-.01v.03h.18v2.48c-.07,0-.14-.01-.21-.02Zm-.55-4.13h.36c.06.12-.15,1.43.14,1.35v.21c-.81.35-.41-1.25-.5-1.56Zm.15-.97h.23v.86s-.23,0-.23,0v-.86Zm.79,5.12v-2.49h.23v2.5c-.07,0-.15,0-.23-.01Zm-.39-5.12h.22v1.3h-.19v.47h.19v.22s-.16.22-.16.22h-.06v-2.21Zm.8,5.14v-2.5s.23,0,.23,0v2.51c-.07,0-.15,0-.23,0Zm0-2.97l.22-.32v.32s-.22,0-.22,0Zm-.41-.76h.65v.23c-.12.17-.33.47-.45.64h.47v.25h-.93v-.24c.12-.18.31-.45.43-.62h-.44v-.26h.26Zm0-.11v-1.3h.22v1.3s-.22,0-.22,0Zm.4,0v-1.3s.23,0,.23,0v1.3s-.23,0-.23,0Zm-4.07-9.16l4.34,1.22v5.8h-2.69v-.02h-.17v.02h-4.1l-.75-1.14,3.37-5.88Zm2.43-8.87c.11-.02.21-.03.32-.05l1.1.63-.11.19-1.31-.77Zm1.5.43l-.88-.52c.12-.01.24-.03.37-.04l.62.36-.11.2Zm.79-.4l-.1-.18c.13,0,.26,0,.39.02l-.28.17Zm1.43,2.49l2.81-1.65c.08.04.17.08.25.12l-2.95,1.73-.11-.2Zm-.19-.34l2.57-1.51c.08.03.16.07.25.1l-2.71,1.59-.11-.19Zm-.18-.32l2.31-1.36c.08.03.16.06.24.09l-2.45,1.44-.1-.17Zm-.2-.34l2.04-1.18c.09.03.17.05.26.08l-2.18,1.29-.11-.19Zm-.19-.33l1.72-.99c.08.02.17.05.25.07l-1.87,1.1-.1-.18Zm-.19-.33l1.37-.79c.09.02.18.04.26.06l-1.53.91-.1-.18Zm-.2-.34l.96-.55c.1.02.21.03.31.05l-1.17.69-.11-.19Zm-.19-.33l.52-.3c.11.01.22.02.33.03l-.74.44-.1-.18Zm-.68-.1l-.38-.23c.17,0,.34-.01.52-.01l-.14.24Zm.39,10.01l4.33-1.22,3.31,5.77-.82,1.24h-6.82v-5.8Zm7.3,2.33l3.5-2.09c0,.08,0,.15,0,.23l-3.41,2.03-.1-.17Zm-.2-.35l3.67-2.17c0,.09.01.18.02.26l-3.57,2.11-.12-.2Zm-.2-.35l3.83-2.26c.01.08.02.16.03.25l-3.74,2.21-.11-.2Zm-.2-.35l3.96-2.34c.01.08.03.16.04.24l-3.89,2.29-.11-.19Zm-.19-.34l4.08-2.41c.02.08.03.15.04.23l-4.01,2.37-.11-.19Zm-.19-.32l4.18-2.46c.02.07.03.14.05.2l-4.13,2.43-.1-.17Zm-.2-.35l4.27-2.52c.02.08.04.15.06.23l-4.22,2.49-.12-.2Zm-.2-.35l4.35-2.57c.02.07.05.15.07.22l-4.31,2.54-.11-.2Zm-.19-.34l4.42-2.6c.03.07.05.14.07.21l-4.38,2.58-.11-.19Zm-.19-.32l4.47-2.63c.03.06.05.13.07.19l-4.44,2.62-.1-.17Zm-.2-.35l4.51-2.66c.03.07.06.14.09.21l-4.49,2.64-.11-.2Zm-.2-.35l4.53-2.67c.03.07.07.14.1.2l-4.52,2.67-.11-.2Zm-.19-.34l4.55-2.68c.03.06.07.13.1.19l-4.54,2.68-.11-.19Zm-.19-.32l4.55-2.68c.03.06.07.12.1.17l-4.55,2.68s-.09-.15-.1-.17Zm-.2-.35l4.54-2.68c.04.07.08.13.12.2l-4.55,2.68-.12-.2Zm-.2-.35l4.52-2.67c.04.06.08.12.13.19l-4.54,2.67-.11-.2Zm-.19-.34l4.49-2.65c.04.06.09.12.13.18l-4.51,2.66-.11-.19Zm-.19-.32l4.45-2.62c.04.05.08.11.12.16l-4.47,2.64-.1-.17Zm-.2-.35l4.39-2.59c.05.06.1.12.15.18l-4.42,2.61-.11-.2Zm-.2-.35l4.31-2.55c.05.06.11.12.16.18l-4.36,2.57-.11-.2Zm-.2-.36l4.23-2.49c.06.06.11.11.17.17l-4.28,2.53-.12-.21Zm-.17-.3l4.13-2.46c.05.05.1.1.15.14l-4.17,2.49-.1-.18Zm-.21-.36l4.03-2.38c.06.05.12.1.17.15l-4.08,2.43-.12-.21Zm-.2-.35l3.9-2.29c.06.05.12.1.19.15l-3.97,2.34-.12-.2Zm-.2-.35l3.76-2.21c.07.05.13.1.2.15l-3.84,2.26-.12-.2Zm-.18-.32l3.62-2.12c.06.04.12.08.18.12l-3.69,2.17-.1-.17Zm-.2-.34l3.44-2.02c.07.04.14.09.21.14l-3.54,2.08-.11-.19Zm-13.44,7l3.59,2.14-.1.17-3.49-2.08c0-.08,0-.16,0-.23Zm.02-.44l3.77,2.23-.12.2-3.67-2.16c0-.09,0-.18.01-.27Zm.04-.44l3.93,2.32-.11.2-3.84-2.27c0-.08.01-.17.02-.25Zm.05-.43l4.08,2.4-.11.2-4-2.36c.01-.08.02-.16.03-.24Zm.07-.41l4.2,2.48-.11.19-4.13-2.44c.01-.08.03-.15.04-.23Zm.08-.39l4.31,2.54-.1.17-4.25-2.51c.01-.07.03-.14.04-.21Zm.1-.41l4.41,2.6-.12.2-4.36-2.57c.02-.08.04-.16.06-.23Zm.11-.4l4.5,2.65-.11.2-4.45-2.62c.02-.07.04-.15.07-.22Zm6.42.87l3.51-6.12h1.43c.14.25,3.47,6.06,3.62,6.31l-4.33,1.22-4.34-1.22.11-.18Zm3.62-6.31l.61-1.06.61,1.06h-1.21Zm-1.68-2.15l1.51.87-.1.17-1.67-.99c.09-.02.17-.04.26-.05Zm-8.24,7.21l4.57,2.69-.11.19-4.53-2.67c.02-.07.05-.14.07-.21Zm.13-.36l4.62,2.73-.1.17-4.6-2.71c.02-.06.05-.13.07-.19Zm.15-.37l4.67,2.75-.11.2-4.65-2.74c.03-.07.06-.14.09-.21Zm.16-.37l4.7,2.77-.11.2-4.69-2.76c.03-.07.06-.14.09-.21Zm.17-.35l4.73,2.79-.11.19-4.72-2.78c.03-.07.07-.13.1-.2Zm.18-.33l4.73,2.79-.1.17-4.73-2.79c.03-.06.06-.12.1-.18Zm.2-.35l4.73,2.79-.12.2-4.73-2.79c.04-.07.08-.13.12-.2Zm.21-.34l4.72,2.78-.11.19-4.73-2.79c.04-.06.08-.13.12-.19Zm.22-.32l4.69,2.76-.11.19-4.71-2.77c.04-.06.08-.12.13-.18Zm.22-.3l4.65,2.74-.1.17-4.67-2.76c.04-.05.08-.11.12-.16Zm.25-.32l4.6,2.71-.11.2-4.63-2.73c.05-.06.1-.12.15-.18Zm.27-.31l4.53,2.68-.11.2-4.57-2.69c.05-.06.1-.12.15-.18Zm.28-.3l4.45,2.63-.12.21-4.5-2.66c.05-.06.11-.12.16-.17Zm.27-.27l4.36,2.59-.1.18-4.4-2.63s.1-.1.15-.15Zm.29-.27l4.27,2.52-.11.2-4.31-2.57c.05-.05.1-.1.16-.15Zm.3-.27l4.16,2.45-.11.19-4.22-2.49c.06-.05.11-.1.17-.14Zm.3-.24l4.04,2.37-.09.17-4.1-2.41c.05-.04.11-.09.16-.13Zm.32-.24l3.91,2.29-.1.17-3.98-2.34c.06-.04.11-.09.17-.13Zm.34-.24l3.75,2.21-.1.18-3.84-2.26c.06-.04.12-.08.18-.13Zm.32-.21l3.6,2.12-.08.14-3.68-2.16c.05-.03.1-.07.16-.1Zm.39-.23l3.41,2.01-.11.19-3.52-2.07c.07-.04.15-.09.22-.13Zm.4-.22l3.21,1.88-.11.19-3.32-1.95c.08-.04.15-.08.23-.12Zm.43-.21l2.97,1.75-.11.2-3.11-1.83c.08-.04.17-.08.25-.12Zm.44-.19l2.72,1.6-.11.19-2.86-1.68c.08-.04.16-.07.25-.1Zm.45-.17l2.46,1.45-.1.17-2.61-1.53c.08-.03.16-.06.24-.09Zm.47-.15l2.19,1.27-.11.19-2.33-1.38c.08-.03.17-.05.25-.08Zm.52-.15l1.86,1.07-.11.19-2.02-1.19c.09-.02.18-.05.26-.07Zm2.72-1.33c-5.48,0-10.09,3.66-11.54,8.67h0c-4.43,20.26,27.8,19.97,23.02-.19h0c-.99-3.19-3.26-5.82-6.23-7.27h0c-.35-.17-.71-.32-1.07-.46h0c-1.3-.48-2.71-.75-4.18-.75Z"/>
    <path class="cls-7" d="m55.93,163.85v-1.69c1.47-.35,1.45,2.07,0,1.69m-.53-1.94c-.3,0-.58,0-.86-.02v.26c.42.02.46.06.47.48-.18.42.47,3.2-.47,2.98v.26c.73-.04,1.23-.04,1.96,0v-.26c-.88.2-.48-1.03-.57-1.5,3.23.38,2.34-2.97-.53-2.21Z"/>
    <path class="cls-7" d="m60.9,163.42c.23.45.74.61,1.28.81,2.12,1.06-1.27,2.14-1.13.09h-.23v1.35h.19l.07-.3c2.66,1.58,3.93-1.6.73-2.37-.68-1.3,1.65-1.31,1.53.01h.22v-1.19h-.2l-.04.24c-1.02-.82-3.07-.1-2.42,1.36"/>
    <path class="cls-7" d="m59.08,159.39c.91-.69-.39-3.84.78-4.06v-.26c-.98.05-1.07.05-1.96,0v.26c1.1-.31.38,2.43.58,2.89.09.54-.08,1.82-.8,1.12.66-.28.06-1.27-.46-.75-.65,1.07,1.32,1.58,1.86.8"/>
    <path class="cls-7" d="m61.51,169.62c-.27.06-.06.45.15.26v-.25s-.1-.01-.15,0"/>
    <path class="cls-7" d="m64.84,169.42v.11h.28c.09-.27-.27-.45-.28-.11"/>
    <path class="cls-8" d="m54.53,170.15v-1.56h.4v.54h.01c.73-.56.73.56.68,1.02h-.4c-.04-.17.16-1.2-.3-.83v.83h-.4Zm-.57-.47c-.07-.32.14-.37.41-.27l.06-.37v.73c-.14.03-.48.17-.47-.08Zm-.51.01c-.11-.56.36-.81.87-.65l-.04.24c-.61-.24-.58.91.04.63v.23c-.39.13-.9,0-.86-.45Zm-.23-.99l-.04.24c-.89-.13-.36.26.02.52.33.59-.46.86-.94.64v-.26c1.77.41-1.57-1.37.95-1.14Zm.08.71c-.12-.19-.36-.24-.52-.37.16-.05.33,0,.49.04l.07-.45c-.8-.44-1.78.52-.76,1.01.44.24-.26.17-.42.06v.49c.39.17,1.08.18,1.2-.3.09.43.67.48,1.04.33l.02-.39v.44h.61v-.89c.18-.13.04.85.08.89h.61c0-.49.16-1.65-.7-1.32v-.45h-.61v.47c-.46-.15-1.11-.07-1.08.54-.01-.03-.02-.06-.04-.08Z"/>
    <path class="cls-8" d="m55.87,169.79v-.76h.4c.04.17-.16,1.18.28.84v-.84h.4v1.12h-.34l-.02-.12h-.02c-.22.25-.75.19-.7-.25m-.11-.87c0,.51-.14,1.71.75,1.3v.04h.55v-1.34h-.62v.9c-.14.09-.03-.86-.06-.9h-.62Z"/>
    <path class="cls-7" d="m61.65,169.5c.05-.3-.28-.25-.49-.22l-.02-.24c.86-.3,1,.44.91,1.11h-.33l-.02-.1h-.02c-.75.59-.98-.84-.03-.55m-2.59.65v-1.12h.35v.12h.01c.13-.19.54-.22.66,0,.74-.61.8.49.73.99h-.4c-.05-.17.17-1.17-.28-.84.02.07,0,.76,0,.84h-.4c-.04-.16.16-1.2-.28-.83v.83h-.4Zm-1.14-.24l.43-.62h-.44v-.26h.91v.23l-.45.64h.47v.25h-.93v-.24Zm-.72-.06v-1.26h.4c.06.12-.15,1.43.14,1.35v.21c-.24.09-.57,0-.54-.3Zm-.11-1.37c.07.49-.33,2.2.72,1.75v.03h1.76v-.89c.14-.11.03.86.06.89h.61s0-.87,0-.9c.14-.09.03.86.06.9h.61v-.23c.1.27.47.32.7.19v.03h.54c.13-.82-.12-1.7-1.13-1.3l.03.45c.15-.02.29-.05.44-.04-.25-.02-.51.06-.58.28.11-.53-.33-.99-.83-.65-.15-.14-.4-.14-.58-.06v-.02h-.56v.87h-.37l.35-.5v-.37h-1.13v.47h.34l-.31.44s-.12,0-.14,0c0-.03,0-1.32,0-1.35h-.61Z"/>
    <path class="cls-8" d="m61.65,169.5c.05-.3-.28-.25-.49-.22l-.02-.24c.86-.3,1,.44.91,1.11h-.33l-.02-.1h-.02c-.75.59-.98-.84-.03-.55m-2.59.65v-1.12h.35v.12h.01c.13-.19.54-.22.66,0,.74-.61.8.49.73.99h-.4c-.05-.17.17-1.17-.28-.84.02.07,0,.76,0,.84h-.4c-.04-.16.16-1.2-.28-.83v.83h-.4Zm-1.15-1.12h.91v.23l-.45.64h.47v.25h-.93v-.24l.43-.62h-.44v-.26Zm-.32-.44c.06.12-.15,1.43.14,1.35v.21c-.85.32-.45-1.19-.54-1.56h.4Zm.21.33v.47h.34l-.31.44s-.12,0-.14,0c0-.03,0-1.32,0-1.35h-.61c.07.49-.33,2.2.72,1.75v.03h1.76v-.89c.14-.11.03.86.06.89h.61s0-.87,0-.9c.14-.09.03.86.06.9h.61v-.23c.1.27.47.32.7.19v.03h.54c.13-.82-.12-1.7-1.13-1.3l.03.45c.15-.02.29-.05.44-.04-.25-.02-.51.06-.58.28.11-.53-.33-.99-.83-.65-.15-.14-.4-.14-.58-.06v-.02h-.56v.87h-.37l.35-.5v-.37h-1.13Z"/>
    <path class="cls-8" d="m63.23,170.15v-1.56h.4v.89h.08l.2-.45h.42l-.29.52s.32.58.3.6h-.42l-.22-.47h-.08v.47h-.4Zm-.93-1.12h.36v.23h.01c.09-.18.2-.27.36-.26v.35c-.1,0-.25.02-.34.07v.72h-.4v-1.12Zm-.11-.11v1.34h.61v-.76c.1-.03.21-.03.32-.03v.79h.61v-.27l.12.27h.59c.06-.12-.23-.6-.28-.71l.35-.63h-.67l-.11.24v-.68h-.61v.42c-.12-.02-.26-.01-.35.06v-.05h-.58Z"/>
    <path class="cls-8" d="m64.96,169.78h.51c-.16.04-.36.1-.51,0m-.39-.65c.42-.33,1.07-.04.92.54h-.65c-.02.33.39.28.62.22v.23c-.69.31-1.36-.37-.89-.99Zm-.07-.08c-.58.75.26,1.56,1.06,1.15l.02-.42h.02c.18-.7-.54-1.18-1.1-.73Z"/>
    <path class="cls-8" d="m61.65,169.92v-.25c-.37-.14-.34.47,0,.25"/>
    <path class="cls-8" d="m64.83,169.39v.11h.28c.09-.27-.27-.45-.28-.11"/>
    <path class="cls-7" d="m53.21,169.47c-.39-.27-.91-.65-.02-.52l.04-.24c-2.51-.22.82,1.56-.95,1.14v.26c.48.22,1.26-.06.93-.64"/>
    <path class="cls-7" d="m53.98,169c-.95,0-.57,1.56.32,1.14v-.23c-.6.28-.64-.86-.03-.63l.04-.24c-.1-.03-.21-.04-.33-.04"/>
    <path class="cls-7" d="m54.53,168.59v1.56h.4v-.83c.46-.37.26.66.3.83h.4c.04-.46.04-1.58-.68-1.01h-.01v-.55h-.4Z"/>
    <path class="cls-7" d="m55.87,169.03c-.05.48-.03,1.6.7,1h.02s.02.12.02.12h.34v-1.12h-.4v.84c-.44.34-.24-.68-.28-.84h-.4Z"/>
    <path class="cls-7" d="m57.2,168.59c.09.37-.31,1.88.53,1.56v-.21c-.29.08-.07-1.24-.13-1.35h-.4Z"/>
    <polygon class="cls-7" points="57.91 169.03 57.91 169.29 58.35 169.29 57.92 169.91 57.92 170.15 58.85 170.15 58.85 169.9 58.38 169.9 58.82 169.26 58.82 169.03 57.91 169.03"/>
    <path class="cls-7" d="m59.06,169.03v1.12h.4v-.83c.43-.37.24.67.28.83h.4c0-.09,0-.77,0-.84.45-.33.24.68.28.84h.4c.06-.5,0-1.6-.73-.99-.12-.23-.52-.2-.66,0h-.01v-.13h-.35Z"/>
    <path class="cls-7" d="m61.65,169.66v.25c-.34.22-.37-.4,0-.25m-.23-.4c.19,0,.24.08.23.24-.95-.3-.73,1.14.03.55h.02s.02.11.02.11h.33c.09-.68-.05-1.41-.91-1.11l.02.24c.09-.02.18-.02.27-.02Z"/>
    <path class="cls-7" d="m62.29,169.03v1.12h.4v-.72c.09-.05.24-.07.34-.07v-.35c-.16-.02-.27.07-.36.26h-.01v-.24h-.36Z"/>
    <path class="cls-7" d="m63.23,168.59v1.56h.4v-.47h.08l.22.47h.42s-.3-.58-.3-.6l.29-.52h-.42l-.2.45h-.08v-.89h-.4Z"/>
    <path class="cls-7" d="m64.83,169.5c-.08-.38.36-.38.28,0h-.28Zm-.26-.37c-.47.62.19,1.31.88.99v-.23c-.22.06-.64.11-.61-.22h.65c.15-.59-.5-.87-.92-.54Z"/>
    <path class="cls-9" d="m25.55,200.8l-.37.36c-2.29-1.88-2.28,2.99,0,1.11l.36.38c-3.53,2.59-3.42-4.48.01-1.85m-4.31-.49h.53v2.3h.79v.51h-1.32v-2.81Zm-1.76.75l-.38.97h.76l-.38-.97Zm-.27-.75h.54l1.08,2.81h-.56l-.22-.58h-1.15l-.22.58h-.56l1.09-2.81Zm6.91-2.85c-.42,0-.42.65,0,.65.42,0,.42-.65,0-.65Zm0-.35c.87-.02.87,1.36,0,1.34-.87.02-.87-1.36,0-1.34Zm-1.86-1.27c-.42,0-.42.65,0,.64.42,0,.42-.66,0-.64Zm1.83-.4h.39l-2.22,3.12h-.39l1.91-2.68c-.31.05-.58.08-.88.05.25,2-2.58.1-.65-.43.61.09,1.29.24,1.85-.05Zm-4.12.13h1.32v.49h-.92l-.11.52c2.47-.05,0,3.44-.85,1.1h.56c.84,1.1,1.2-1.29.09-.45l-.44-.1.34-1.56Zm-1.23,2.28l.38.19-.47.81-.26-.12.36-.87Zm-1.4-.54v-.94l-.64.94h.64Zm0-1.81h.53v1.81h.25v.49h-.25v.57h-.52v-.57h-1.23v-.49l1.22-1.81Z"/>
    <path class="cls-9" d="m92.23,195.3h1.35v.51h-.94l-.12.53c2.53-.05,0,3.53-.87,1.13h.58c.87,1.13,1.23-1.32.1-.47l-.45-.1.35-1.6Zm5.84,4.87h.55v2.36h.81v.52h-1.35v-2.88Zm-2.02.47c-1.24-.03-1.23,2,0,1.96,1.23.02,1.22-1.98,0-1.96Zm0-.54c1.93-.03,1.95,3.07,0,3.03-1.97.05-1.95-3.06,0-3.03Zm-4.39.07h.56l.72,2.05.74-2.05h.56l-1.04,2.88h-.53l-1.02-2.88Zm7.2-4.87h.55v2.36h.81v.52h-1.35v-2.88Zm-3.33,0h.53l.67,2.01.67-2.01h.53l.48,2.88h-.53l-.31-1.82-.61,1.82h-.48l-.61-1.82-.31,1.82h-.54l.5-2.88Zm-5.56,0h1.35v.51h-.94l-.12.53c2.53-.05,0,3.53-.87,1.13h.58c.87,1.13,1.23-1.32.1-.47l-.45-.1.35-1.6Zm-2.15.71h-.53c.16-1.59,2.74-.35,1.31.59,1.87.96-1.31,2.75-1.43.71h.54c.37,1.25,1.64-.48.24-.45v-.47c.93.03.27-1.16-.14-.38Z"/>
    <path class="cls-9" d="m69.97,200.33v1.71c1.49.33,1.47-1.99,0-1.71Zm-.51-.5c2.85-.55,2.88,3.31,0,2.72v-2.72Zm-1.71.72l-.37.94h.73l-.37-.94Zm-.26-.72h.52l1.05,2.72h-.54l-.21-.56h-1.11l-.22.56h-.54l1.05-2.72Zm-2.48,1.06c.78.15.77-.71,0-.56v.56Zm-.51-1.06c1.12-.3,2.4.76,1.1,1.51l.64,1.21h-.56l-.61-1.15h-.05v1.15h-.51v-2.72Zm-.7.44l-.36.36c-2.4-1.76-2,3.03-.03,1.02h-.79v-.48h1.37c.16,1.47-1.97,1.98-2.63.74-.91-1.52,1.33-2.95,2.44-1.63Zm-5.31-.44h.49l1.17,1.79v-1.79h.51v2.72h-.49l-1.17-1.78v1.78h-.51v-2.72Zm-1.1,0h.51v2.72h-.51v-2.72Zm-2.76,0h.49l1.17,1.79v-1.79h.51v2.72h-.49l-1.17-1.78v1.78h-.51v-2.72Zm-1.1,0h.51v2.72h-.51v-2.72Zm-1.63,0h.51v2.22h.76v.49h-1.28v-2.72Zm-1.7.72l-.37.94h.73l-.37-.94Zm-.26-.72h.52l1.05,2.72h-.54l-.21-.56h-1.11l-.22.56h-.54l1.05-2.72Zm-3.17,0h.52v.94l.74-.94h.62l-.95,1.21,1.04,1.5h-.61l-.84-1.21v1.21h-.52v-2.72Zm23.69-3.16l-.28.7h.55l-.27-.7Zm-.2-.54h.39l.78,2.04h-.4l-.16-.42h-.84l-.16.42h-.4l.79-2.04Zm-1.79,0h.39v2.04h-.39v-2.04Zm-.73.28l-.29.25c-.12-.27-.59-.29-.45.02.14.17.65.51.72.72.33.81-.95,1.14-1.23.37l.33-.2c.13.3.51.39.58.08-.03-.26-.65-.59-.71-.77-.43-.7.67-1.13,1.05-.48Zm-1.83,0l-.29.25c-.35-.47-.73-.03-.16.28.65.35.66,1.26-.14,1.28-.31,0-.51-.16-.66-.44l.33-.2c.12.3.51.39.58.08-.03-.26-.65-.59-.71-.77-.43-.7.67-1.13,1.05-.48Zm-3.25-.28h.39c-.23,2.32.83,2.31.6,0h.39c.38,2.86-1.76,2.86-1.38,0Zm-1.57.8c.59.12.58-.53,0-.42v.42Zm-.39-.8c.82-.25,1.79.6.83,1.13l.48.91h-.42l-.46-.86h-.04v.86h-.39v-2.04Zm-2.92,0h.37l.88,1.34v-1.34h.39v2.04h-.37l-.88-1.34v1.34h-.39v-2.04Zm-1.17,0h.39v2.04h-.39v-2.04Zm-2.24,0h1.11v.38h-.73v.37h.73v.37h-.73v.54h.73v.38h-1.11v-2.04Zm-1.95.37v1.29c1.12.25,1.11-1.49,0-1.29Zm-.39-.37c2.14-.41,2.16,2.48,0,2.04v-2.04Zm-1.63.54l-.28.7h.55l-.27-.7Zm-.2-.54h.39l.78,2.04h-.4l-.16-.42h-.84l-.16.42h-.4l.79-2.04Zm-3.33,0h.38l.47,1.42.48-1.42h.38l.34,2.04h-.37l-.22-1.29-.43,1.29h-.34l-.43-1.29-.22,1.29h-.38l.35-2.04Z"/>
    <path class="cls-7" d="m13.49,23.78v127.96h24.38l3.28-7.9,17.71-7.51,18.28,7.2,3.52,8.22h23.7V23.78c-.13-4.57-9.27-8.84-8.77-15.45l-73.38-.08c.02,6.18-8.82,10.94-8.72,15.53"/>
    <polygon class="cls-8" points="25.47 123.23 22.25 121.44 22.25 97.72 25.47 95.93 25.47 113.41 28.8 115.27 25.47 117.13 25.47 123.23"/>
    <polygon class="cls-8" points="28.84 115.25 32.06 113.46 32.06 95.78 25.39 92.07 22.26 94.01 28.84 97.68 28.84 115.25"/>
    <polygon class="cls-8" points="43.83 113.64 43.84 117.28 95.91 90.95 92.37 89.12 43.83 113.64"/>
    <polygon class="cls-8" points="34.13 99.87 34.13 109.3 37.45 111.15 40.76 109.3 37.34 107.4 37.34 98.08 34.13 99.87"/>
    <polygon class="cls-8" points="44.03 107.49 44.03 98.06 40.7 96.21 37.39 98.06 40.81 99.96 40.81 109.28 44.03 107.49"/>
    <polygon class="cls-8" points="58.05 87.74 58.05 97.16 61.38 99.02 64.69 97.17 61.27 95.26 61.27 85.95 58.05 87.74"/>
    <polygon class="cls-8" points="68 98.95 67.95 85.93 64.63 84.08 61.32 85.92 64.74 87.83 64.74 97.14 68 98.95"/>
    <polygon class="cls-8" points="78.06 74.4 78.08 90.18 81.4 92.03 84.71 90.19 81.29 88.28 81.29 79.29 84.63 77.43 81.29 75.58 81.31 72.6 78.06 74.4"/>
    <polygon class="cls-8" points="49.36 105.02 46.15 103.23 46.15 90.21 49.36 92.01 49.36 105.02"/>
    <polygon class="cls-8" points="89.12 87.97 85.91 86.18 85.92 68.68 89.12 66.89 89.12 87.97"/>
    <polygon class="cls-8" points="95.89 87.79 95.84 74.77 92.51 72.92 89.2 74.77 92.62 76.67 92.62 85.99 95.89 87.79"/>
    <polygon class="cls-8" points="73.34 95.91 70.12 94.12 70.12 81.2 76.31 78.07 76.33 81.68 73.34 83.2 73.34 95.91"/>
    <polygon class="cls-8" points="56.11 105.07 56.06 92.05 52.74 90.2 49.43 92.04 52.85 93.95 52.85 103.26 56.11 105.07"/>
    <polygon class="cls-8" points="42.25 118.07 42.22 112.75 40.96 112.11 39.73 112.74 40.98 113.37 40.99 118.71 42.25 118.07"/>
    <polygon class="cls-8" points="38.52 118.69 39.74 119.34 40.97 118.72 39.78 118.05 38.52 118.69"/>
    <polygon class="cls-8" points="38.47 113.37 38.49 116.64 39.68 117.3 40.94 116.67 39.72 116.01 39.72 112.74 38.47 113.37"/>
    <polygon class="cls-8" points="37.87 120.28 37.85 117.04 36.6 116.4 36.61 120.92 37.87 120.28"/>
    <polygon class="cls-8" points="34.07 114.37 34.09 118.85 35.29 119.52 36.55 118.88 35.33 118.23 35.33 115.01 34.07 114.37"/>
    <polygon class="cls-8" points="33.46 122.5 33.44 119.23 30.97 117.99 30.97 117.15 29.61 117.84 29.63 118.57 32.2 119.86 32.21 123.14 33.46 122.5"/>
    <polygon class="cls-8" points="29.73 119.9 29.74 123.12 30.94 123.78 32.2 123.15 30.98 122.49 30.98 119.27 29.73 119.9"/>
    <polygon class="cls-8" points="33.5 117.99 33.5 117.09 32.29 116.48 31.04 117.11 32.26 117.72 32.26 118.63 33.5 117.99"/>
    <polygon class="cls-8" points="28.45 125.04 28.42 118.5 27.17 117.85 27.18 124.46 28.45 125.04"/>
    <path class="cls-8" d="m50.1,85.04v-9.83c-1.53-.34-.47,9.68-.76,10.22l.76-.38Z"/>
    <path class="cls-8" d="m61.46,74.66v4.65l3.29-1.66c.2-2.32-.06-2.56-3.29-2.99"/>
    <path class="cls-8" d="m52.63,83.7v-9.05c-.72.09-1.35.21-1.85.34v9.7l1.85-.99Z"/>
    <path class="cls-8" d="m62.54,72.71l-.57-.14-.51,2.08c-.42-.06-.84-.1-1.28-.13l.57-2.26-.51-.13.43-4.26c1.3.04,2.5.36,3.61.95l-1.74,3.89Z"/>
    <path class="cls-8" d="m54.14,70.26c.15.72-.2,1.57-.81,1.97l.57,2.29c-.43.03-.85.07-1.25.13l-.52-2.07c-1.86.03-2.02-2.36-2.37-3.66l3.8-.98.58,2.31Z"/>
    <path class="cls-8" d="m53.54,70.31c-.14,3.12-3.09,1.55-3.04-.93l2.64-.68.4,1.61Z"/>
    <path class="cls-8" d="m50.5,69.38l2.64-.68c1.65,3.72-2.32,4.77-2.64.68m-.74-.45c.36,1.3.52,3.68,2.37,3.66l.52,2.07c.4-.06.82-.1,1.25-.13l-.57-2.29c1.48-.85.5-3.06.23-4.28l-3.8.98Z"/>
    <path class="cls-8" d="m61.46,74.66l.51-2.08.57.14,1.74-3.89c-1.1-.58-2.3-.91-3.61-.95l-.43,4.26.51.13-.57,2.26c.43.03.86.07,1.28.13m.76-2.6l-1.37-.35.3-3.31c.15.01.3.03.45.05l-.2,2.27.23.05.54-2.21c.12.03.28.08.4.12l-.55,2.21.21.07.95-2.05c.11.05.23.11.33.18l-1.3,2.98Z"/>
    <path class="cls-8" d="m56.44,67.25h-1.24v-.71c.32.02.71.22,1.24.18v.53Zm0,1.28h-1.2v-.71h1.2v.71Zm0,1.35c-.58.02-1.03-.2-1.2-.79h1.2v.79Zm0,.54v3.99c-.9.01-1.76.05-2.55.12v8.6l6.3-3.18v-5.42c-.77-.06-1.62-.1-2.5-.12v-3.99c3.06.09.72-3.87,2.56-5.14h-.77c-.4.52-.83.95-1.79.88v-.88h-1.24v.88c-.88.05-1.4-.29-1.76-.88h-.78c1.88,1.33-.61,5.12,2.54,5.14Zm1.24-.54v-.79h1.18c-.1.5-.53.84-1.18.79Zm0-1.35v-.71h1.18v.71h-1.18Zm0-1.28v-.53c.37.02.97-.1,1.06-.18h.09v.71h-1.14Z"/>
    <path class="cls-1" d="m73.18,37.67c2.09.35,2.06-1.81,0-1.46v1.46Zm-1.34-2.78c.8,0,2.59-.06,3.11.21,1.55.65,1.48,3.29-.24,3.73l1.68,3.15h-1.48l-1.59-3.01h-.14v3.01h-1.34v-7.1Zm-5.22,0h3.87v1.32h-2.53v1.28h2.53v1.31h-2.53v1.87h2.53v1.32h-3.87v-7.1Zm-7.31,0h1.28l3.06,4.67v-4.67h1.34v7.1h-1.29l-3.05-4.66v4.66h-1.34v-7.1Zm-1.42.97l-1,.88c-.42-.93-2.05-1-1.56.07.49.6,2.25,1.76,2.52,2.52,1.15,2.82-3.33,3.98-4.3,1.3l1.14-.69c.45.84,1.11,1.21,1.77.74,1.01-1.09-2.08-2.41-2.23-3.15-1.5-2.44,2.34-3.92,3.66-1.68Zm-8.09-.97h1.34v5.81h1.99v1.29h-3.33v-7.1Zm-2.86,0h1.34v7.1h-1.34v-7.1Zm-4.1,2.78c2.06.37,2.09-1.8,0-1.46v1.46Zm-1.34-2.78c.8,0,2.57-.06,3.11.21,2.26,1.21.82,4.43-1.77,3.88v3.01h-1.34v-7.1Z"/>
    <rect class="cls-1" x="47.82" y="45.73" width="22.21" height=".43"/>
    <path class="cls-1" d="m77.17,49.7c.68.13.67-.62,0-.49v.49Zm-.45-.93c.95-.29,2.08.69.96,1.31l.56,1.05h-.49l-.53-1h-.05v1h-.45v-2.37Zm-1.74,0h1.29v.44h-.84v.42h.84v.43h-.84v.62h.84v.44h-1.29v-2.37Zm-2.44,0h.43l1.02,1.56v-1.56h.45v2.37h-.43l-1.02-1.55v1.55h-.45v-2.37Zm-.47.32l-.33.29c-.15-.21-.32-.31-.5-.2-.22.36.77.71.82,1.06.38.94-1.11,1.33-1.43.43l.38-.23c.15.35.59.45.67.09-.04-.3-.75-.68-.82-.89-.5-.81.78-1.31,1.22-.56Zm-2.69-.32h.45v1.94h.66v.43h-1.11v-2.37Zm-.95,0h.45v2.37h-.45v-2.37Zm-1.37.93c.67.14.68-.62,0-.49v.49Zm-.45-.93c1.4-.4,2.11,1.37.45,1.36v1h-.45v-2.37Zm-2.63,0h1.29v.44h-.84v.42h.84v.43h-.84v.62h.84v.44h-1.29v-2.37Zm-1.46,0h.45v1.94h.66v.43h-1.11v-2.37Zm-2.21,0h.48l.44.85.44-.85h.48c-.37.57-.86,1.67-.69,2.37h-.45c.17-.72-.32-1.78-.69-2.37Zm-1.44,0h1.31v.44h-.43v1.92h-.46v-1.92h-.42v-.44Zm-.24.32l-.33.29c-.15-.21-.32-.31-.5-.2-.22.36.77.71.82,1.06.38.94-1.11,1.33-1.43.43l.38-.23c.15.35.59.45.67.09-.04-.3-.75-.68-.82-.89-.5-.81.78-1.31,1.22-.56Zm-4.6-.32h.43l1.02,1.56v-1.56h.45v2.37h-.43l-1.02-1.55v1.55h-.45v-2.37Zm-1.49.63l-.32.81h.64l-.32-.81Zm-.23-.63h.45l.91,2.37h-.47l-.18-.49h-.97l-.19.49h-.47l.92-2.37Zm-2.43,0h1.29v.44h-.84v.42h.84v.43h-.84v.62h.84v.44h-1.29v-2.37Zm-1.4.93c.67.14.68-.62,0-.49v.49Zm-.45-.93c1.4-.4,2.11,1.37.45,1.36v1h-.45v-2.37Zm-1.65.38c-1.02-.02-1.01,1.64,0,1.61,1.01.02,1-1.63,0-1.61Zm0-.44c1.58-.03,1.6,2.52,0,2.48-1.61.04-1.6-2.51,0-2.48Zm-2.55.98c.68.13.67-.62,0-.49v.49Zm-.45-.93c.95-.29,2.08.69.96,1.31l.56,1.05h-.49l-.53-1h-.05v1h-.45v-2.37Zm-2.15,0h.45c-.26,2.72.95,2.7.7,0h.45c-.09.73.38,2.46-.8,2.42-1.18.04-.71-1.7-.8-2.42Zm-1.69,0h1.29v.44h-.84v.42h.84v.43h-.84v.62h.84v.44h-1.29v-2.37Z"/>
    <path class="cls-8" d="m13.49,23.78c-.1-4.59,8.74-9.35,8.72-15.53l73.38.08c-.5,6.61,8.64,10.89,8.77,15.45v186.09H13.49V23.78Z"/>
    <g class="cls-15">
      <rect class="cls-2" x="22.01" y="6.24" width="73.56" height="2"/>
    </g>
    <g class="cls-13">
      <rect class="cls-6" x="13.49" y="209.84" width="90.88" height="10.94"/>
    </g>
    <path class="cls-8" d="m104.36,151.74V23.78c-.13-4.57-9.27-8.84-8.77-15.45l-73.38-.08c.02,6.18-8.82,10.94-8.72,15.53v127.96h90.87Z"/>
    <path class="cls-7" d="m75.23,145.5l-16.33-6.43-15.8,6.7-6.7,16.14,5.99,15.97,16.59,7.09,16.73-6.88,6.6-16.12-7.07-16.47Zm-36.08,16.48c.45-26.27,39.53-26.27,39.98,0-.45,26.27-39.53,26.27-39.98,0Z"/>
    <rect class="cls-9" x="43.46" y="167.29" width="1.29" height="1.29" transform="translate(-129.39 160.97) rotate(-72.99)"/>
    <polygon class="cls-7" points="46.84 168.74 43.58 170.51 44.09 171.45 45.42 170.73 45.55 170.98 44.55 172.3 45.22 173.1 46.35 171.57 48.33 171.5 47.81 170.54 46.15 170.66 46.01 170.41 47.35 169.69 46.84 168.74"/>
    <path class="cls-7" d="m48.28,172.95c.65-.72,1.52.18.76.8,0,0-.77.73-.77.73-.66.73-1.52-.18-.75-.8,0,0,.76-.72.76-.72Zm.26-1.18c-2.22.21-3.17,3.4-.54,3.9,2.2-.22,3.19-3.4.54-3.9Z"/>
    <path class="cls-7" d="m48.88,171.36c0,.54.84.54.83,0,0-.54-.84-.54-.83,0"/>
    <path class="cls-7" d="m50.57,172.35c-.54,0-.54.84,0,.83.54,0,.54-.84,0-.83"/>
    <polygon class="cls-7" points="50.78 173.68 48.98 176.92 49.8 177.38 50.87 175.46 50.91 175.49 50.93 178 51.82 178.5 53.62 175.25 52.79 174.79 51.71 176.74 51.67 176.72 51.75 174.22 50.78 173.68"/>
    <rect class="cls-9" x="52.31" y="176.85" width="3.71" height="1.07" transform="translate(-131.11 169.03) rotate(-70.44)"/>
    <path class="cls-7" d="m56.25,176.46c-1.76,1.68-.3,4.47,2.17,3.48l.29-1.9-1.29-.19-.15.66.45.07-.12.81c-1.1.27-1.13-.89-.9-1.68.08-.97,1.2-.82,1.82-.47l.24-.6c-.64-.4-1.91-.62-2.51-.17"/>
    <path class="cls-7" d="m60.73,176.26c-1.8-.06-1.87,1.82-.45,2.26,1.4.58-.09,1.27-.88.81l.03.67c1.35.61,3.44-.58,2.08-1.92-1.3-.51-1.66-1.41.1-1.11l.07-.62c-.29-.08-.61-.11-.95-.1"/>
    <path class="cls-7" d="m63.78,177.94c1.22-.52,1.53,1.03.18.99l-.18-.99Zm-.1-.55l-.17-.95c1.14-.48,1.37,1,.17.95Zm-1.3-1.34l.67,3.65c.6-.17,2.28-.23,2.65-.77.44-.51.14-1.65-.62-1.62v-.03c1.55-1.92-1.6-1.6-2.69-1.22Z"/>
    <polygon class="cls-7" points="65.48 175.06 66.99 178.45 69.29 177.42 69.03 176.83 67.69 177.42 67.33 176.61 68.4 176.13 68.14 175.54 67.07 176.02 66.71 175.22 68 174.65 67.74 174.06 65.48 175.06"/>
    <path class="cls-7" d="m70.24,174.16l-.34.24-.72-1.01c.5-.77,1.62.19,1.06.76m-2.29-.63l2.16,3.01.87-.63-.71-.99.36-.26,1.11.71.86-.62-.03-.06-1.37-.81c.36-2.62-2.13-1.47-3.26-.35Z"/>
    <path class="cls-7" d="m72,172.92c1.18,1.13,2.74-.3,2.96-1.57l-1.47-1.25-.84.99.48.47.3-.35.62.53c-.35,1.07-1.35.49-1.9-.12-.79-.58-.07-1.45.56-1.79l-.38-.52c-1.57.77-2.03,2.68-.33,3.61Z"/>
    <rect class="cls-9" x="73.34" y="167.75" width="1.29" height="1.29" transform="translate(-46.03 29.01) rotate(-17.01)"/>
    <polygon class="cls-7" points="72.75 166.24 76.39 166.89 76.57 165.84 75.07 165.57 75.28 164.38 76.79 164.64 76.97 163.59 73.33 162.94 73.14 164 74.57 164.25 74.35 165.44 72.93 165.19 72.75 166.24"/>
    <polygon class="cls-7" points="73.34 161.43 76.38 161.21 76.45 162.13 77.1 162.13 76.89 159.16 76.24 159.21 76.31 160.14 73.27 160.35 73.34 161.43"/>
    <path class="cls-7" d="m74.47,156.95l-.14-.39,1.17-.41c.6.69-.64,1.5-1.03.81m-1.16,2.09l1.15-1.08c2.41,1.07,2-1.63,1.25-3.02l-3.49,1.23.36,1.01,1.15-.41.15.41-.98.86.35,1h.07Z"/>
    <path class="cls-7" d="m73.65,152.56l-1.23,1.25-.43-.68,1.63-.6.02.04Zm-1.57,3.12l2.58-2.85-.8-1.28-3.65,1.14.56.89.64-.24.57.9-.48.49.59.94Z"/>
    <polygon class="cls-7" points="69.89 152.29 72.29 149.48 71.57 148.87 70.13 150.56 70.09 150.52 70.66 148.09 69.82 147.37 67.42 150.19 68.13 150.8 69.55 149.14 69.59 149.17 69.11 151.63 69.89 152.29"/>
    <path class="cls-7" d="m44.75,165.02l-.98.18c-.51-1.22,1.03-1.52.98-.18Zm-1.53.28l-.95.17c-.48-1.14,1-1.37.95-.17Zm2.29.63c-.17-.6-.22-2.27-.76-2.64-.5-.44-1.65-.14-1.62.62h-.03c-1.91-1.55-1.6,1.58-1.23,2.68l3.64-.66Z"/>
    <path class="cls-7" d="m43.07,160.37c.18.13.07.54.07.73l-1.23-.1c-.15-.77.62-.97,1.16-.63m-1.85,1.65l3.69.31.09-1.07-1.21-.1.04-.44,1.25-.38.09-1.06-.06-.02-1.5.52c-1.76-1.97-2.49.66-2.38,2.24Z"/>
    <path class="cls-7" d="m44.36,157.3l-1.51-.87v-.04s1.76.14,1.76.14l-.25.77Zm-2.39-.42l3.22,2.07.32-1-.59-.34.33-1.01.68.06.34-1.05-3.84-.15-.47,1.43Z"/>
    <path class="cls-7" d="m45.36,154.51c1.1.95,2.55-.6,2.42-1.75-.03-.85-2.06-1.74-2.63-2.22l-.59.89c.34.42,2.86,1.34,2.28,2.13-.49.85-2.35-1.11-2.86-1.25l-.59.89,1.96,1.29Z"/>
    <polygon class="cls-7" points="46.4 149.16 48.78 151.99 50.71 150.37 50.29 149.88 49.17 150.82 48.6 150.14 49.5 149.38 49.08 148.89 48.18 149.64 47.63 148.98 48.71 148.07 48.29 147.57 46.4 149.16"/>
    <path class="cls-7" d="m51.31,147.77l-.56-1.11c.89-.78,1.71.86.56,1.11Zm-1.78-1.17l1.66,3.31.96-.48-.55-1.09.39-.2.98.87.95-.48v-.07s-1.23-1.01-1.23-1.01c.77-2.53-1.86-1.79-3.15-.86Z"/>
    <polygon class="cls-7" points="53.62 144.71 54.49 148.31 56.94 147.72 56.79 147.09 55.36 147.43 55.16 146.57 56.3 146.29 56.15 145.67 55.01 145.94 54.8 145.09 56.17 144.76 56.02 144.13 53.62 144.71"/>
    <rect class="cls-9" x="57.43" y="143.93" width="1.07" height="3.7" transform="translate(-11.86 5.29) rotate(-4.74)"/>
    <path class="cls-7" d="m61.87,146.26l.27-1.5c1.26-.12.87,2.06-.27,1.5Zm-.67-2.29l-.66,3.64,1.05.19.17-.95c1.59.74,3.05-1.24,1.66-2.33-.46-.34-1.69-.42-2.23-.56Z"/>
    <path class="cls-7" d="m65.54,147.6l.47-.94c.36-.9,1.49-.34.98.49,0,0-.47.94-.47.94-.37.91-1.49.35-.98-.5m-.93-.59c-1.06,2.35,2.91,3.3,3.3.75,1.07-2.35-2.9-3.28-3.3-.75Z"/>
    <path class="cls-7" d="m61.05,154.1l3.26-1.91c.07.04.15.08.22.13l-3.36,1.98-.11-.19Zm-.2-.35l3.05-1.79c.08.04.16.08.23.12l-3.17,1.86-.11-.2Zm5.86,10.22l3.12-1.84c0,.09,0,.18-.01.27l-3,1.76-.11-.2Zm-.2-.34l3.32-1.98c0,.09,0,.19,0,.28l-3.21,1.89-.11-.19Zm1.76,3.07l.54-.33c-.11.23-.22.46-.34.68l-.2-.35Zm-.19-.32l.98-.59c-.04.1-.08.21-.13.31l-.75.45-.1-.17Zm-.2-.35l1.4-.83c-.04.12-.08.24-.12.35l-1.16.68-.12-.2Zm-.2-.35l1.77-1.04c-.03.1-.06.21-.09.31l-1.56.93-.11-.2Zm-.2-.35l2.1-1.24c-.02.11-.05.21-.07.32l-1.91,1.12-.11-.2Zm-.19-.34l2.39-1.41c-.02.09-.03.18-.05.27l-2.23,1.32-.11-.19Zm-.19-.32l2.64-1.56c-.01.09-.02.17-.03.26l-2.51,1.48-.1-.17Zm-.2-.35l2.9-1.7c0,.09-.02.19-.03.28l-2.76,1.62-.12-.2Zm-7.95,8.44v-2.51h.26v2.5c-.08,0-.17,0-.26,0Zm1.24-3.82v-1.32s.25,0,.25,0v1.27c-.09,0-.17.01-.25.05Zm-.4,3.78v-2.46h.23v2.44c-.07,0-.15.02-.23.02Zm-.24-2.46v-.89c.14-.11.03.86.06.89h0v2.48c-.08,0-.16.01-.24.01v-2.49s.17,0,.17,0Zm-.17-1.34v-1.3s.24,0,.24,0v1.28s-.08.02-.12.04v-.02h-.12Zm-.42-1.3h.25v1.3s-.25,0-.25,0v-1.3Zm1.65,5v-2.36h.28v2.31c-.09.02-.19.03-.28.05Zm-.38-3.19s0-.05,0-.07c.14-.09.03.86.06.9h.15v2.39c-.08.01-.16.02-.24.03v-2.42s.04,0,.04,0v-.83Zm-.17-.27c.73-.61.8.49.73.99h-.4c-.05-.17.17-1.17-.28-.84.02.07,0,.76,0,.84h-.4c-.04-.16.15-1.2-.28-.83v.83h-.4v-1.12h.35v.12h.01c.14-.19.53-.22.66,0Zm-.27-1.54h.22v1.33c-.06-.04-.14-.06-.22-.06v-1.27Zm1.68,4.82v-2.17s.09-.03.13-.05v.03h.1v2.12c-.07.02-.15.04-.23.06Zm-.42-2.22c.07.04.16.06.25.07v2.19c-.08.02-.16.04-.24.05v-2.31Zm1.22,1.98v-1.95h.26v1.85c-.08.03-.17.06-.26.09Zm-.41-1.95h.24v2c-.08.02-.16.05-.24.07v-2.07Zm-.76-1.22c.86-.3,1,.44.91,1.11h-.33l-.02-.1h-.01c-.77.59-.96-.85-.03-.55.05-.31-.29-.24-.49-.21l-.02-.24Zm-.06-.1v-1.32s.25,0,.25,0v1.28c-.09,0-.17.02-.25.05Zm-.45-1.32h.28v1.65c-.03-.17-.12-.3-.28-.35v-1.3Zm.87,1.27v-1.27h.22v1.28c-.07-.01-.15-.02-.22-.01Zm1.62,3v-1.64h.24v1.53c-.08.04-.16.07-.24.11Zm-.32-1.64v-.76c.05-.02.11-.02.16-.03v2.5c-.09.03-.17.06-.24.09v-1.8h.08Zm-.49-1.23h.35v.23h.01c.07-.15.2-.28.36-.26v.35c-.11,0-.24.01-.34.07v.72h-.4v-1.12h.02Zm0-.11v-1.3h.25v1.3s-.25,0-.25,0Zm-.42-1.3h.25v1.63c-.03-.13-.12-.24-.25-.3v-1.33Zm1.24.86v-.86h.23v.86s-.23,0-.23,0Zm.78,3.04v-1.26h.24v1.14c-.08.04-.16.09-.24.13Zm-.38-1.26h.2v-.27s0,1.58.01,1.62c-.07.03-.14.07-.21.1v-1.45Zm-.8-2.63h.23v1.27c-.08,0-.15.03-.2.07v-.05h-.04v-1.3Zm1.99,3.44v-.82c.08.03.16.04.25.04v.61c-.08.05-.16.11-.25.16Zm-.8-2.03h.41c-.07.12-.22.39-.29.52.07.16.25.44.3.6h-.42c-.03-.07-.19-.41-.22-.47h-.08v.47h-.4v-1.56h.4v.89h.08c.03-.06.17-.38.2-.45h.01Zm-.39-.55v-.86s.22,0,.22,0c-.02.04.03,1.5-.02,1.54v-.68h-.2Zm1.58,2.31v-.51c.07,0,.14,0,.2-.02v.39c-.07.05-.14.1-.2.14Zm.44-.6l.02-.42h.02c0-.21.03-.5-.1-.68v-1.48h.24v2.71c-.08.07-.16.13-.25.2v-.3s.06-.02.06-.02Zm-1.12-.7c.13-.89,1.27-.51,1.05.17h-.65c-.04.33.41.28.62.22v.23c-.48.18-1.16,0-1.02-.62Zm-.11-.58v-1.3s.23,0,.23,0v1.38c-.32.25-.33.9,0,1.15v1.01c-.07.04-.15.09-.22.13v-1.04s.12,0,.12,0c-.08-.44-.28-.91.06-1.34h-.19Zm1.97.93v-2.23h.23v2c-.07.08-.15.15-.23.22Zm-.38.34v-2.56s.21,0,.21,0v2.38c-.07.06-.14.12-.21.18Zm1.18-1.16v-1.41h.24v1.12c-.08.1-.16.19-.24.28Zm-.4-1.41h.23v1.6c-.08.08-.15.16-.23.23v-1.83Zm1.17.42v-.42h.28c-.09.14-.18.28-.28.42Zm-.38.51v-.93h.21v.66c-.07.09-.14.18-.21.27Zm-1.42-1.77l.7-1.06.61,1.06h-1.3Zm-2.15,2.14v-1.3h.23v1.3s-.23,0-.23,0Zm1.2-.02v-1.28h.21v1.34c-.07-.03-.14-.05-.21-.06Zm-.4-1.28h.23v1.27c-.08,0-.16,0-.24.03v-1.3Zm-15.74-.92l.47.28-.16.28c-.11-.19-.21-.37-.31-.57Zm-.29-.63l.95.59-.1.18-.69-.42c-.05-.12-.11-.23-.16-.35Zm-.23-.58l1.38.82-.12.2-1.13-.66c-.05-.12-.09-.24-.14-.36Zm-.19-.57l1.76,1.04-.11.19-1.55-.92c-.03-.1-.07-.21-.1-.31Zm-.15-.57l2.12,1.26-.12.2-1.92-1.13c-.03-.11-.06-.22-.08-.32Zm-.11-.51l2.43,1.43-.11.19-2.26-1.34c-.02-.09-.04-.18-.06-.28Zm-.08-.48l2.69,1.59-.1.17-2.55-1.5c-.01-.09-.03-.17-.04-.26Zm-.06-.5l2.96,1.74-.12.2-2.81-1.66c-.01-.1-.02-.19-.03-.29Zm-.04-.49l3.2,1.88-.11.2-3.06-1.8c0-.09-.01-.18-.02-.28Zm-.02-.49l3.41,2.03-.11.19-3.29-1.94c0-.09,0-.19,0-.28Zm2.17,5.74v.7c-.16-.23-.32-.46-.47-.7h.47Zm.17,0h.2v1.17c-.06-.08-.13-.16-.19-.25v-.93Zm.37,0h.24v1.63c-.08-.09-.16-.18-.24-.27v-1.36Zm.41,0h.23v2.03c-.08-.07-.15-.15-.22-.22v-1.81Zm.1-1.79l.63.95h-1.17l.55-.95Zm.53,1.79v2.41c-.07-.07-.15-.14-.23-.21v-2.19h.23Zm.39,0v2.73c-.07-.06-.14-.11-.21-.17v-2.56s.21,0,.21,0Zm.4,0v1.04c-.26.15-.27.66.01.84v.27s-.15-.06-.19-.07v.49c.06.02.13.05.2.07v.42s.17.12.17.12v-.51c.07,0,.13,0,.2,0v.65c-.21-.14-.42-.29-.62-.45v-2.86h.23Zm.17,0h.2v.92c-.06,0-.13.02-.2.04v-.96Zm.84,2.26c.03.11.09.2.16.26v1.26c-.07-.04-.15-.08-.22-.12v-1.26s.04-.09.06-.14Zm-.23.31v.99c-.08-.05-.16-.1-.25-.15v-.76c.09-.02.18-.04.25-.08Zm.57.05c.08.03.17.04.26.04v1.35c-.09-.04-.18-.09-.26-.13v-1.26Zm.43.04c.08,0,.16-.03.23-.05v1.6c-.08-.04-.16-.07-.23-.11v-1.44Zm.41-.02h.21v1.73c-.07-.03-.14-.06-.21-.09v-1.64Zm.39,0h.11v-.89c.18-.13.04.85.08.89h.04v1.88c-.07-.03-.15-.06-.23-.09v-1.8Zm.41,0h.23v2.02c-.07-.02-.15-.05-.23-.08v-1.94Zm-1.19-2.63h.23v1.32c-.07-.02-.15-.03-.23-.04v-1.28Zm.79,0h.22v1.28s-.07.02-.11.04v-.45h-.11v-.86Zm.4,0h.23v1.35c-.06-.05-.13-.07-.23-.08v-1.27Zm1.24,1.3v-1.3h.22v1.3s-.22,0-.22,0Zm.39,0v-1.3s.25,0,.25,0v.86h-.12c.04.24-.11,1.53.12,1.69v2.47c-.08-.01-.16-.02-.24-.04v-2.35s.09,0,.09,0v-1.34h-.1Zm-.75,1.37c.06,0,.12,0,.18-.02v2.23c-.08-.02-.16-.04-.24-.06v-2.15s.04,0,.06,0Zm-.07-2.66h.25v2.2s0-.86-.02-.9h-.23v-1.3Zm.41,4.91v-2.27h.23v2.32c-.07-.01-.15-.03-.23-.05Zm-2.2-3.14v.38c-.07.02-.15.04-.23.05v-.46c.07,0,.16.03.23.04h0Zm-1.63.32v.07c-.06.02-.14.01-.2,0v-.19c.06.03.14.06.2.11Zm.17-.7c.08,0,.15,0,.22.02v.21c-.08-.05-.16-.09-.24-.14v-.09s.01,0,.02,0Zm-.01-.37c.12,0,.22.02.33.05l-.04.24c-.69-.15-.57.22-.05.44.51.57-.36.99-.86.73v-.26c1.71.34-1.26-1.06.62-1.2Zm.24-1.03v.94c-.08-.02-.16-.02-.24-.03v-.92h.24Zm.32,1.87c-.03-.49.5-.56.86-.45l-.04.24c-.61-.24-.57.91.04.63v.23c-.49.17-.97-.09-.86-.64Zm.08-1.87v1.4c-.12.1-.19.25-.19.47-.01-.03-.02-.05-.04-.08,0-.18,0-.62.04-.79h-.04s0-1,0-1h.23Zm.17,0h.26v1.27c-.1,0-.19.02-.26.04v-1.31Zm.83.97h.39v.54h.01c.73-.56.73.57.68,1.02h-.4c-.04-.17.16-1.2-.3-.83v.83h-.4v-1.56h0Zm0-.97h.22v.86h-.22v-.86Zm1.33,1.41h.4c.04.17-.16,1.17.28.84v-.84h.4v1.12h-.34l-.02-.12h-.02c-.74.6-.75-.53-.7-1Zm-.14-1.41h.25v1.3s-.22,0-.22,0c.04.31-.14,1.16.22,1.31v2.16c-.08-.02-.17-.05-.26-.07v-2.06h.02c0-.62-.02-2,0-2.63Zm1.65,2.64c.07.02.15.02.23.02v2.41c-.08,0-.16-.02-.23-.03v-2.4Zm.41,2.45v-2.47s.03-.01.03-.01v.03h.18v2.48c-.07,0-.14-.01-.21-.02Zm-.55-4.13h.36c.06.12-.15,1.43.14,1.35v.21c-.81.35-.41-1.25-.5-1.56Zm.15-.97h.23v.86s-.23,0-.23,0v-.86Zm.79,5.12v-2.49h.23v2.5c-.07,0-.15,0-.23-.01Zm-.39-5.12h.22v1.3h-.19v.47h.19v.22s-.16.22-.16.22h-.06v-2.21Zm.8,5.14v-2.5s.23,0,.23,0v2.51c-.07,0-.15,0-.23,0Zm0-2.97l.22-.32v.32s-.22,0-.22,0Zm-.41-.76h.65v.23c-.12.17-.33.47-.45.64h.47v.25h-.93v-.24c.12-.18.31-.45.43-.62h-.44v-.26h.26Zm0-.11v-1.3h.22v1.3s-.22,0-.22,0Zm.4,0v-1.3s.23,0,.23,0v1.3s-.23,0-.23,0Zm-4.07-9.16l4.34,1.22v5.8h-2.69v-.02h-.17v.02h-4.1l-.75-1.14,3.37-5.88Zm2.43-8.87c.11-.02.21-.03.32-.05l1.1.63-.11.19-1.31-.77Zm1.5.43l-.88-.52c.12-.01.24-.03.37-.04l.62.36-.11.2Zm.79-.4l-.1-.18c.13,0,.26,0,.39.02l-.28.17Zm1.43,2.49l2.81-1.65c.08.04.17.08.25.12l-2.95,1.73-.11-.2Zm-.19-.34l2.57-1.51c.08.03.16.07.25.1l-2.71,1.59-.11-.19Zm-.18-.32l2.31-1.36c.08.03.16.06.24.09l-2.45,1.44-.1-.17Zm-.2-.34l2.04-1.18c.09.03.17.05.26.08l-2.18,1.29-.11-.19Zm-.19-.33l1.72-.99c.08.02.17.05.25.07l-1.87,1.1-.1-.18Zm-.19-.33l1.37-.79c.09.02.18.04.26.06l-1.53.91-.1-.18Zm-.2-.34l.96-.55c.1.02.21.03.31.05l-1.17.69-.11-.19Zm-.19-.33l.52-.3c.11.01.22.02.33.03l-.74.44-.1-.18Zm-.68-.1l-.38-.23c.17,0,.34-.01.52-.01l-.14.24Zm.39,10.01l4.33-1.22,3.31,5.77-.82,1.24h-6.82v-5.8Zm7.3,2.33l3.5-2.09c0,.08,0,.15,0,.23l-3.41,2.03-.1-.17Zm-.2-.35l3.67-2.17c0,.09.01.18.02.26l-3.57,2.11-.12-.2Zm-.2-.35l3.83-2.26c.01.08.02.16.03.25l-3.74,2.21-.11-.2Zm-.2-.35l3.96-2.34c.01.08.03.16.04.24l-3.89,2.29-.11-.19Zm-.19-.34l4.08-2.41c.02.08.03.15.04.23l-4.01,2.37-.11-.19Zm-.19-.32l4.18-2.46c.02.07.03.14.05.2l-4.13,2.43-.1-.17Zm-.2-.35l4.27-2.52c.02.08.04.15.06.23l-4.22,2.49-.12-.2Zm-.2-.35l4.35-2.57c.02.07.05.15.07.22l-4.31,2.54-.11-.2Zm-.19-.34l4.42-2.6c.03.07.05.14.07.21l-4.38,2.58-.11-.19Zm-.19-.32l4.47-2.63c.03.06.05.13.07.19l-4.44,2.62-.1-.17Zm-.2-.35l4.51-2.66c.03.07.06.14.09.21l-4.49,2.64-.11-.2Zm-.2-.35l4.53-2.67c.03.07.07.14.1.2l-4.52,2.67-.11-.2Zm-.19-.34l4.55-2.68c.03.06.07.13.1.19l-4.54,2.68-.11-.19Zm-.19-.32l4.55-2.68c.03.06.07.12.1.17l-4.55,2.68s-.09-.15-.1-.17Zm-.2-.35l4.54-2.68c.04.07.08.13.12.2l-4.55,2.68-.12-.2Zm-.2-.35l4.52-2.67c.04.06.08.12.13.19l-4.54,2.67-.11-.2Zm-.19-.34l4.49-2.65c.04.06.09.12.13.18l-4.51,2.66-.11-.19Zm-.19-.32l4.45-2.62c.04.05.08.11.12.16l-4.47,2.64-.1-.17Zm-.2-.35l4.39-2.59c.05.06.1.12.15.18l-4.42,2.61-.11-.2Zm-.2-.35l4.31-2.55c.05.06.11.12.16.18l-4.36,2.57-.11-.2Zm-.2-.36l4.23-2.49c.06.06.11.11.17.17l-4.28,2.53-.12-.21Zm-.17-.3l4.13-2.46c.05.05.1.1.15.14l-4.17,2.49-.1-.18Zm-.21-.36l4.03-2.38c.06.05.12.1.17.15l-4.08,2.43-.12-.21Zm-.2-.35l3.9-2.29c.06.05.12.1.19.15l-3.97,2.34-.12-.2Zm-.2-.35l3.76-2.21c.07.05.13.1.2.15l-3.84,2.26-.12-.2Zm-.18-.32l3.62-2.12c.06.04.12.08.18.12l-3.69,2.17-.1-.17Zm-.2-.34l3.44-2.02c.07.04.14.09.21.14l-3.54,2.08-.11-.19Zm-13.44,7l3.59,2.14-.1.17-3.49-2.08c0-.08,0-.16,0-.23Zm.02-.44l3.77,2.23-.12.2-3.67-2.16c0-.09,0-.18.01-.27Zm.04-.44l3.93,2.32-.11.2-3.84-2.27c0-.08.01-.17.02-.25Zm.05-.43l4.08,2.4-.11.2-4-2.36c.01-.08.02-.16.03-.24Zm.07-.41l4.2,2.48-.11.19-4.13-2.44c.01-.08.03-.15.04-.23Zm.08-.39l4.31,2.54-.1.17-4.25-2.51c.01-.07.03-.14.04-.21Zm.1-.41l4.41,2.6-.12.2-4.36-2.57c.02-.08.04-.16.06-.23Zm.11-.4l4.5,2.65-.11.2-4.45-2.62c.02-.07.04-.15.07-.22Zm6.42.87l3.51-6.12h1.43c.14.25,3.47,6.06,3.62,6.31l-4.33,1.22-4.34-1.22.11-.18Zm3.62-6.31l.61-1.06.61,1.06h-1.21Zm-1.68-2.15l1.51.87-.1.17-1.67-.99c.09-.02.17-.04.26-.05Zm-8.24,7.21l4.57,2.69-.11.19-4.53-2.67c.02-.07.05-.14.07-.21Zm.13-.36l4.62,2.73-.1.17-4.6-2.71c.02-.06.05-.13.07-.19Zm.15-.37l4.67,2.75-.11.2-4.65-2.74c.03-.07.06-.14.09-.21Zm.16-.37l4.7,2.77-.11.2-4.69-2.76c.03-.07.06-.14.09-.21Zm.17-.35l4.73,2.79-.11.19-4.72-2.78c.03-.07.07-.13.1-.2Zm.18-.33l4.73,2.79-.1.17-4.73-2.79c.03-.06.06-.12.1-.18Zm.2-.35l4.73,2.79-.12.2-4.73-2.79c.04-.07.08-.13.12-.2Zm.21-.34l4.72,2.78-.11.19-4.73-2.79c.04-.06.08-.13.12-.19Zm.22-.32l4.69,2.76-.11.19-4.71-2.77c.04-.06.08-.12.13-.18Zm.22-.3l4.65,2.74-.1.17-4.67-2.76c.04-.05.08-.11.12-.16Zm.25-.32l4.6,2.71-.11.2-4.63-2.73c.05-.06.1-.12.15-.18Zm.27-.31l4.53,2.68-.11.2-4.57-2.69c.05-.06.1-.12.15-.18Zm.28-.3l4.45,2.63-.12.21-4.5-2.66c.05-.06.11-.12.16-.17Zm.27-.27l4.36,2.59-.1.18-4.4-2.63s.1-.1.15-.15Zm.29-.27l4.27,2.52-.11.2-4.31-2.57c.05-.05.1-.1.16-.15Zm.3-.27l4.16,2.45-.11.19-4.22-2.49c.06-.05.11-.1.17-.14Zm.3-.24l4.04,2.37-.09.17-4.1-2.41c.05-.04.11-.09.16-.13Zm.32-.24l3.91,2.29-.1.17-3.98-2.34c.06-.04.11-.09.17-.13Zm.34-.24l3.75,2.21-.1.18-3.84-2.26c.06-.04.12-.08.18-.13Zm.32-.21l3.6,2.12-.08.14-3.68-2.16c.05-.03.1-.07.16-.1Zm.39-.23l3.41,2.01-.11.19-3.52-2.07c.07-.04.15-.09.22-.13Zm.4-.22l3.21,1.88-.11.19-3.32-1.95c.08-.04.15-.08.23-.12Zm.43-.21l2.97,1.75-.11.2-3.11-1.83c.08-.04.17-.08.25-.12Zm.44-.19l2.72,1.6-.11.19-2.86-1.68c.08-.04.16-.07.25-.1Zm.45-.17l2.46,1.45-.1.17-2.61-1.53c.08-.03.16-.06.24-.09Zm.47-.15l2.19,1.27-.11.19-2.33-1.38c.08-.03.17-.05.25-.08Zm.52-.15l1.86,1.07-.11.19-2.02-1.19c.09-.02.18-.05.26-.07Zm2.72-1.33c-5.48,0-10.09,3.66-11.54,8.67h0c-4.43,20.26,27.8,19.97,23.02-.19h0c-.99-3.19-3.26-5.82-6.23-7.27h0c-.35-.17-.71-.32-1.07-.46h0c-1.3-.48-2.71-.75-4.18-.75Z"/>
    <path class="cls-7" d="m55.93,163.85v-1.69c1.47-.35,1.45,2.07,0,1.69m-.53-1.94c-.3,0-.58,0-.86-.02v.26c.42.02.46.06.47.48-.18.42.47,3.2-.47,2.98v.26c.73-.04,1.23-.04,1.96,0v-.26c-.88.2-.48-1.03-.57-1.5,3.23.38,2.34-2.97-.53-2.21Z"/>
    <path class="cls-7" d="m60.9,163.42c.23.45.74.61,1.28.81,2.12,1.06-1.27,2.14-1.13.09h-.23v1.35h.19l.07-.3c2.66,1.58,3.93-1.6.73-2.37-.68-1.3,1.65-1.31,1.53.01h.22v-1.19h-.2l-.04.24c-1.02-.82-3.07-.1-2.42,1.36"/>
    <path class="cls-7" d="m59.08,159.39c.91-.69-.39-3.84.78-4.06v-.26c-.98.05-1.07.05-1.96,0v.26c1.1-.31.38,2.43.58,2.89.09.54-.08,1.82-.8,1.12.66-.28.06-1.27-.46-.75-.65,1.07,1.32,1.58,1.86.8"/>
    <path class="cls-7" d="m61.51,169.62c-.27.06-.06.45.15.26v-.25s-.1-.01-.15,0"/>
    <path class="cls-7" d="m64.84,169.42v.11h.28c.09-.27-.27-.45-.28-.11"/>
    <path class="cls-8" d="m54.53,170.15v-1.56h.4v.54h.01c.73-.56.73.56.68,1.02h-.4c-.04-.17.16-1.2-.3-.83v.83h-.4Zm-.57-.47c-.07-.32.14-.37.41-.27l.06-.37v.73c-.14.03-.48.17-.47-.08Zm-.51.01c-.11-.56.36-.81.87-.65l-.04.24c-.61-.24-.58.91.04.63v.23c-.39.13-.9,0-.86-.45Zm-.23-.99l-.04.24c-.89-.13-.36.26.02.52.33.59-.46.86-.94.64v-.26c1.77.41-1.57-1.37.95-1.14Zm.08.71c-.12-.19-.36-.24-.52-.37.16-.05.33,0,.49.04l.07-.45c-.8-.44-1.78.52-.76,1.01.44.24-.26.17-.42.06v.49c.39.17,1.08.18,1.2-.3.09.43.67.48,1.04.33l.02-.39v.44h.61v-.89c.18-.13.04.85.08.89h.61c0-.49.16-1.65-.7-1.32v-.45h-.61v.47c-.46-.15-1.11-.07-1.08.54-.01-.03-.02-.06-.04-.08Z"/>
    <path class="cls-8" d="m55.87,169.79v-.76h.4c.04.17-.16,1.18.28.84v-.84h.4v1.12h-.34l-.02-.12h-.02c-.22.25-.75.19-.7-.25m-.11-.87c0,.51-.14,1.71.75,1.3v.04h.55v-1.34h-.62v.9c-.14.09-.03-.86-.06-.9h-.62Z"/>
    <path class="cls-7" d="m61.65,169.5c.05-.3-.28-.25-.49-.22l-.02-.24c.86-.3,1,.44.91,1.11h-.33l-.02-.1h-.02c-.75.59-.98-.84-.03-.55m-2.59.65v-1.12h.35v.12h.01c.13-.19.54-.22.66,0,.74-.61.8.49.73.99h-.4c-.05-.17.17-1.17-.28-.84.02.07,0,.76,0,.84h-.4c-.04-.16.16-1.2-.28-.83v.83h-.4Zm-1.14-.24l.43-.62h-.44v-.26h.91v.23l-.45.64h.47v.25h-.93v-.24Zm-.72-.06v-1.26h.4c.06.12-.15,1.43.14,1.35v.21c-.24.09-.57,0-.54-.3Zm-.11-1.37c.07.49-.33,2.2.72,1.75v.03h1.76v-.89c.14-.11.03.86.06.89h.61s0-.87,0-.9c.14-.09.03.86.06.9h.61v-.23c.1.27.47.32.7.19v.03h.54c.13-.82-.12-1.7-1.13-1.3l.03.45c.15-.02.29-.05.44-.04-.25-.02-.51.06-.58.28.11-.53-.33-.99-.83-.65-.15-.14-.4-.14-.58-.06v-.02h-.56v.87h-.37l.35-.5v-.37h-1.13v.47h.34l-.31.44s-.12,0-.14,0c0-.03,0-1.32,0-1.35h-.61Z"/>
    <path class="cls-8" d="m61.65,169.5c.05-.3-.28-.25-.49-.22l-.02-.24c.86-.3,1,.44.91,1.11h-.33l-.02-.1h-.02c-.75.59-.98-.84-.03-.55m-2.59.65v-1.12h.35v.12h.01c.13-.19.54-.22.66,0,.74-.61.8.49.73.99h-.4c-.05-.17.17-1.17-.28-.84.02.07,0,.76,0,.84h-.4c-.04-.16.16-1.2-.28-.83v.83h-.4Zm-1.15-1.12h.91v.23l-.45.64h.47v.25h-.93v-.24l.43-.62h-.44v-.26Zm-.32-.44c.06.12-.15,1.43.14,1.35v.21c-.85.32-.45-1.19-.54-1.56h.4Zm.21.33v.47h.34l-.31.44s-.12,0-.14,0c0-.03,0-1.32,0-1.35h-.61c.07.49-.33,2.2.72,1.75v.03h1.76v-.89c.14-.11.03.86.06.89h.61s0-.87,0-.9c.14-.09.03.86.06.9h.61v-.23c.1.27.47.32.7.19v.03h.54c.13-.82-.12-1.7-1.13-1.3l.03.45c.15-.02.29-.05.44-.04-.25-.02-.51.06-.58.28.11-.53-.33-.99-.83-.65-.15-.14-.4-.14-.58-.06v-.02h-.56v.87h-.37l.35-.5v-.37h-1.13Z"/>
    <path class="cls-8" d="m63.23,170.15v-1.56h.4v.89h.08l.2-.45h.42l-.29.52s.32.58.3.6h-.42l-.22-.47h-.08v.47h-.4Zm-.93-1.12h.36v.23h.01c.09-.18.2-.27.36-.26v.35c-.1,0-.25.02-.34.07v.72h-.4v-1.12Zm-.11-.11v1.34h.61v-.76c.1-.03.21-.03.32-.03v.79h.61v-.27l.12.27h.59c.06-.12-.23-.6-.28-.71l.35-.63h-.67l-.11.24v-.68h-.61v.42c-.12-.02-.26-.01-.35.06v-.05h-.58Z"/>
    <path class="cls-8" d="m64.96,169.78h.51c-.16.04-.36.1-.51,0m-.39-.65c.42-.33,1.07-.04.92.54h-.65c-.02.33.39.28.62.22v.23c-.69.31-1.36-.37-.89-.99Zm-.07-.08c-.58.75.26,1.56,1.06,1.15l.02-.42h.02c.18-.7-.54-1.18-1.1-.73Z"/>
    <path class="cls-8" d="m61.65,169.92v-.25c-.37-.14-.34.47,0,.25"/>
    <path class="cls-8" d="m64.83,169.39v.11h.28c.09-.27-.27-.45-.28-.11"/>
    <path class="cls-7" d="m53.21,169.47c-.39-.27-.91-.65-.02-.52l.04-.24c-2.51-.22.82,1.56-.95,1.14v.26c.48.22,1.26-.06.93-.64"/>
    <path class="cls-7" d="m53.98,169c-.95,0-.57,1.56.32,1.14v-.23c-.6.28-.64-.86-.03-.63l.04-.24c-.1-.03-.21-.04-.33-.04"/>
    <path class="cls-7" d="m54.53,168.59v1.56h.4v-.83c.46-.37.26.66.3.83h.4c.04-.46.04-1.58-.68-1.01h-.01v-.55h-.4Z"/>
    <path class="cls-7" d="m55.87,169.03c-.05.48-.03,1.6.7,1h.02s.02.12.02.12h.34v-1.12h-.4v.84c-.44.34-.24-.68-.28-.84h-.4Z"/>
    <path class="cls-7" d="m57.2,168.59c.09.37-.31,1.88.53,1.56v-.21c-.29.08-.07-1.24-.13-1.35h-.4Z"/>
    <polygon class="cls-7" points="57.91 169.03 57.91 169.29 58.35 169.29 57.92 169.91 57.92 170.15 58.85 170.15 58.85 169.9 58.38 169.9 58.82 169.26 58.82 169.03 57.91 169.03"/>
    <path class="cls-7" d="m59.06,169.03v1.12h.4v-.83c.43-.37.24.67.28.83h.4c0-.09,0-.77,0-.84.45-.33.24.68.28.84h.4c.06-.5,0-1.6-.73-.99-.12-.23-.52-.2-.66,0h-.01v-.13h-.35Z"/>
    <path class="cls-7" d="m61.65,169.66v.25c-.34.22-.37-.4,0-.25m-.23-.4c.19,0,.24.08.23.24-.95-.3-.73,1.14.03.55h.02s.02.11.02.11h.33c.09-.68-.05-1.41-.91-1.11l.02.24c.09-.02.18-.02.27-.02Z"/>
    <path class="cls-7" d="m62.29,169.03v1.12h.4v-.72c.09-.05.24-.07.34-.07v-.35c-.16-.02-.27.07-.36.26h-.01v-.24h-.36Z"/>
    <path class="cls-7" d="m63.23,168.59v1.56h.4v-.47h.08l.22.47h.42s-.3-.58-.3-.6l.29-.52h-.42l-.2.45h-.08v-.89h-.4Z"/>
    <path class="cls-7" d="m64.83,169.5c-.08-.38.36-.38.28,0h-.28Zm-.26-.37c-.47.62.19,1.31.88.99v-.23c-.22.06-.64.11-.61-.22h.65c.15-.59-.5-.87-.92-.54Z"/>
    <path class="cls-9" d="m25.55,200.8l-.37.36c-2.29-1.88-2.28,2.99,0,1.11l.36.38c-3.53,2.59-3.42-4.48.01-1.85m-4.31-.49h.53v2.3h.79v.51h-1.32v-2.81Zm-1.76.75l-.38.97h.76l-.38-.97Zm-.27-.75h.54l1.08,2.81h-.56l-.22-.58h-1.15l-.22.58h-.56l1.09-2.81Zm6.91-2.85c-.42,0-.42.65,0,.65.42,0,.42-.65,0-.65Zm0-.35c.87-.02.87,1.36,0,1.34-.87.02-.87-1.36,0-1.34Zm-1.86-1.27c-.42,0-.42.65,0,.64.42,0,.42-.66,0-.64Zm1.83-.4h.39l-2.22,3.12h-.39l1.91-2.68c-.31.05-.58.08-.88.05.25,2-2.58.1-.65-.43.61.09,1.29.24,1.85-.05Zm-4.12.13h1.32v.49h-.92l-.11.52c2.47-.05,0,3.44-.85,1.1h.56c.84,1.1,1.2-1.29.09-.45l-.44-.1.34-1.56Zm-1.23,2.28l.38.19-.47.81-.26-.12.36-.87Zm-1.4-.54v-.94l-.64.94h.64Zm0-1.81h.53v1.81h.25v.49h-.25v.57h-.52v-.57h-1.23v-.49l1.22-1.81Z"/>
    <path class="cls-9" d="m92.23,195.3h1.35v.51h-.94l-.12.53c2.53-.05,0,3.53-.87,1.13h.58c.87,1.13,1.23-1.32.1-.47l-.45-.1.35-1.6Zm5.84,4.87h.55v2.36h.81v.52h-1.35v-2.88Zm-2.02.47c-1.24-.03-1.23,2,0,1.96,1.23.02,1.22-1.98,0-1.96Zm0-.54c1.93-.03,1.95,3.07,0,3.03-1.97.05-1.95-3.06,0-3.03Zm-4.39.07h.56l.72,2.05.74-2.05h.56l-1.04,2.88h-.53l-1.02-2.88Zm7.2-4.87h.55v2.36h.81v.52h-1.35v-2.88Zm-3.33,0h.53l.67,2.01.67-2.01h.53l.48,2.88h-.53l-.31-1.82-.61,1.82h-.48l-.61-1.82-.31,1.82h-.54l.5-2.88Zm-5.56,0h1.35v.51h-.94l-.12.53c2.53-.05,0,3.53-.87,1.13h.58c.87,1.13,1.23-1.32.1-.47l-.45-.1.35-1.6Zm-2.15.71h-.53c.16-1.59,2.74-.35,1.31.59,1.87.96-1.31,2.75-1.43.71h.54c.37,1.25,1.64-.48.24-.45v-.47c.93.03.27-1.16-.14-.38Z"/>
    <path class="cls-9" d="m69.97,200.33v1.71c1.49.33,1.47-1.99,0-1.71Zm-.51-.5c2.85-.55,2.88,3.31,0,2.72v-2.72Zm-1.71.72l-.37.94h.73l-.37-.94Zm-.26-.72h.52l1.05,2.72h-.54l-.21-.56h-1.11l-.22.56h-.54l1.05-2.72Zm-2.48,1.06c.78.15.77-.71,0-.56v.56Zm-.51-1.06c1.12-.3,2.4.76,1.1,1.51l.64,1.21h-.56l-.61-1.15h-.05v1.15h-.51v-2.72Zm-.7.44l-.36.36c-2.4-1.76-2,3.03-.03,1.02h-.79v-.48h1.37c.16,1.47-1.97,1.98-2.63.74-.91-1.52,1.33-2.95,2.44-1.63Zm-5.31-.44h.49l1.17,1.79v-1.79h.51v2.72h-.49l-1.17-1.78v1.78h-.51v-2.72Zm-1.1,0h.51v2.72h-.51v-2.72Zm-2.76,0h.49l1.17,1.79v-1.79h.51v2.72h-.49l-1.17-1.78v1.78h-.51v-2.72Zm-1.1,0h.51v2.72h-.51v-2.72Zm-1.63,0h.51v2.22h.76v.49h-1.28v-2.72Zm-1.7.72l-.37.94h.73l-.37-.94Zm-.26-.72h.52l1.05,2.72h-.54l-.21-.56h-1.11l-.22.56h-.54l1.05-2.72Zm-3.17,0h.52v.94l.74-.94h.62l-.95,1.21,1.04,1.5h-.61l-.84-1.21v1.21h-.52v-2.72Zm23.69-3.16l-.28.7h.55l-.27-.7Zm-.2-.54h.39l.78,2.04h-.4l-.16-.42h-.84l-.16.42h-.4l.79-2.04Zm-1.79,0h.39v2.04h-.39v-2.04Zm-.73.28l-.29.25c-.12-.27-.59-.29-.45.02.14.17.65.51.72.72.33.81-.95,1.14-1.23.37l.33-.2c.13.3.51.39.58.08-.03-.26-.65-.59-.71-.77-.43-.7.67-1.13,1.05-.48Zm-1.83,0l-.29.25c-.35-.47-.73-.03-.16.28.65.35.66,1.26-.14,1.28-.31,0-.51-.16-.66-.44l.33-.2c.12.3.51.39.58.08-.03-.26-.65-.59-.71-.77-.43-.7.67-1.13,1.05-.48Zm-3.25-.28h.39c-.23,2.32.83,2.31.6,0h.39c.38,2.86-1.76,2.86-1.38,0Zm-1.57.8c.59.12.58-.53,0-.42v.42Zm-.39-.8c.82-.25,1.79.6.83,1.13l.48.91h-.42l-.46-.86h-.04v.86h-.39v-2.04Zm-2.92,0h.37l.88,1.34v-1.34h.39v2.04h-.37l-.88-1.34v1.34h-.39v-2.04Zm-1.17,0h.39v2.04h-.39v-2.04Zm-2.24,0h1.11v.38h-.73v.37h.73v.37h-.73v.54h.73v.38h-1.11v-2.04Zm-1.95.37v1.29c1.12.25,1.11-1.49,0-1.29Zm-.39-.37c2.14-.41,2.16,2.48,0,2.04v-2.04Zm-1.63.54l-.28.7h.55l-.27-.7Zm-.2-.54h.39l.78,2.04h-.4l-.16-.42h-.84l-.16.42h-.4l.79-2.04Zm-3.33,0h.38l.47,1.42.48-1.42h.38l.34,2.04h-.37l-.22-1.29-.43,1.29h-.34l-.43-1.29-.22,1.29h-.38l.35-2.04Z"/>
    <path class="cls-7" d="m13.49,23.78v127.96h24.38l3.28-7.9,17.71-7.51,18.28,7.2,3.52,8.22h23.7V23.78c-.13-4.57-9.27-8.84-8.77-15.45l-73.38-.08c.02,6.18-8.82,10.94-8.72,15.53"/>
    <polygon class="cls-8" points="25.47 123.23 22.25 121.44 22.25 97.72 25.47 95.93 25.47 113.41 28.8 115.27 25.47 117.13 25.47 123.23"/>
    <polygon class="cls-8" points="28.84 115.25 32.06 113.46 32.06 95.78 25.39 92.07 22.26 94.01 28.84 97.68 28.84 115.25"/>
    <polygon class="cls-8" points="43.83 113.64 43.84 117.28 95.91 90.95 92.37 89.12 43.83 113.64"/>
    <polygon class="cls-8" points="34.13 99.87 34.13 109.3 37.45 111.15 40.76 109.3 37.34 107.4 37.34 98.08 34.13 99.87"/>
    <polygon class="cls-8" points="44.03 107.49 44.03 98.06 40.7 96.21 37.39 98.06 40.81 99.96 40.81 109.28 44.03 107.49"/>
    <polygon class="cls-8" points="58.05 87.74 58.05 97.16 61.38 99.02 64.69 97.17 61.27 95.26 61.27 85.95 58.05 87.74"/>
    <polygon class="cls-8" points="68 98.95 67.95 85.93 64.63 84.08 61.32 85.92 64.74 87.83 64.74 97.14 68 98.95"/>
    <polygon class="cls-8" points="78.06 74.4 78.08 90.18 81.4 92.03 84.71 90.19 81.29 88.28 81.29 79.29 84.63 77.43 81.29 75.58 81.31 72.6 78.06 74.4"/>
    <polygon class="cls-8" points="49.36 105.02 46.15 103.23 46.15 90.21 49.36 92.01 49.36 105.02"/>
    <polygon class="cls-8" points="89.12 87.97 85.91 86.18 85.92 68.68 89.12 66.89 89.12 87.97"/>
    <polygon class="cls-8" points="95.89 87.79 95.84 74.77 92.51 72.92 89.2 74.77 92.62 76.67 92.62 85.99 95.89 87.79"/>
    <polygon class="cls-8" points="73.34 95.91 70.12 94.12 70.12 81.2 76.31 78.07 76.33 81.68 73.34 83.2 73.34 95.91"/>
    <polygon class="cls-8" points="56.11 105.07 56.06 92.05 52.74 90.2 49.43 92.04 52.85 93.95 52.85 103.26 56.11 105.07"/>
    <polygon class="cls-8" points="42.25 118.07 42.22 112.75 40.96 112.11 39.73 112.74 40.98 113.37 40.99 118.71 42.25 118.07"/>
    <polygon class="cls-8" points="38.52 118.69 39.74 119.34 40.97 118.72 39.78 118.05 38.52 118.69"/>
    <polygon class="cls-8" points="38.47 113.37 38.49 116.64 39.68 117.3 40.94 116.67 39.72 116.01 39.72 112.74 38.47 113.37"/>
    <polygon class="cls-8" points="37.87 120.28 37.85 117.04 36.6 116.4 36.61 120.92 37.87 120.28"/>
    <polygon class="cls-8" points="34.07 114.37 34.09 118.85 35.29 119.52 36.55 118.88 35.33 118.23 35.33 115.01 34.07 114.37"/>
    <polygon class="cls-8" points="33.46 122.5 33.44 119.23 30.97 117.99 30.97 117.15 29.61 117.84 29.63 118.57 32.2 119.86 32.21 123.14 33.46 122.5"/>
    <polygon class="cls-8" points="29.73 119.9 29.74 123.12 30.94 123.78 32.2 123.15 30.98 122.49 30.98 119.27 29.73 119.9"/>
    <polygon class="cls-8" points="33.5 117.99 33.5 117.09 32.29 116.48 31.04 117.11 32.26 117.72 32.26 118.63 33.5 117.99"/>
    <polygon class="cls-8" points="28.45 125.04 28.42 118.5 27.17 117.85 27.18 124.46 28.45 125.04"/>
    <path class="cls-8" d="m50.1,85.04v-9.83c-1.53-.34-.47,9.68-.76,10.22l.76-.38Z"/>
    <path class="cls-8" d="m61.46,74.66v4.65l3.29-1.66c.2-2.32-.06-2.56-3.29-2.99"/>
    <path class="cls-8" d="m52.63,83.7v-9.05c-.72.09-1.35.21-1.85.34v9.7l1.85-.99Z"/>
    <path class="cls-8" d="m62.54,72.71l-.57-.14-.51,2.08c-.42-.06-.84-.1-1.28-.13l.57-2.26-.51-.13.43-4.26c1.3.04,2.5.36,3.61.95l-1.74,3.89Z"/>
    <path class="cls-8" d="m54.14,70.26c.15.72-.2,1.57-.81,1.97l.57,2.29c-.43.03-.85.07-1.25.13l-.52-2.07c-1.86.03-2.02-2.36-2.37-3.66l3.8-.98.58,2.31Z"/>
    <path class="cls-8" d="m53.54,70.31c-.14,3.12-3.09,1.55-3.04-.93l2.64-.68.4,1.61Z"/>
    <path class="cls-8" d="m50.5,69.38l2.64-.68c1.65,3.72-2.32,4.77-2.64.68m-.74-.45c.36,1.3.52,3.68,2.37,3.66l.52,2.07c.4-.06.82-.1,1.25-.13l-.57-2.29c1.48-.85.5-3.06.23-4.28l-3.8.98Z"/>
    <path class="cls-8" d="m61.46,74.66l.51-2.08.57.14,1.74-3.89c-1.1-.58-2.3-.91-3.61-.95l-.43,4.26.51.13-.57,2.26c.43.03.86.07,1.28.13m.76-2.6l-1.37-.35.3-3.31c.15.01.3.03.45.05l-.2,2.27.23.05.54-2.21c.12.03.28.08.4.12l-.55,2.21.21.07.95-2.05c.11.05.23.11.33.18l-1.3,2.98Z"/>
    <path class="cls-8" d="m56.44,67.25h-1.24v-.71c.32.02.71.22,1.24.18v.53Zm0,1.28h-1.2v-.71h1.2v.71Zm0,1.35c-.58.02-1.03-.2-1.2-.79h1.2v.79Zm0,.54v3.99c-.9.01-1.76.05-2.55.12v8.6l6.3-3.18v-5.42c-.77-.06-1.62-.1-2.5-.12v-3.99c3.06.09.72-3.87,2.56-5.14h-.77c-.4.52-.83.95-1.79.88v-.88h-1.24v.88c-.88.05-1.4-.29-1.76-.88h-.78c1.88,1.33-.61,5.12,2.54,5.14Zm1.24-.54v-.79h1.18c-.1.5-.53.84-1.18.79Zm0-1.35v-.71h1.18v.71h-1.18Zm0-1.28v-.53c.37.02.97-.1,1.06-.18h.09v.71h-1.14Z"/>
    <path class="cls-1" d="m73.18,37.67c2.09.35,2.06-1.81,0-1.46v1.46Zm-1.34-2.78c.8,0,2.59-.06,3.11.21,1.55.65,1.48,3.29-.24,3.73l1.68,3.15h-1.48l-1.59-3.01h-.14v3.01h-1.34v-7.1Zm-5.22,0h3.87v1.32h-2.53v1.28h2.53v1.31h-2.53v1.87h2.53v1.32h-3.87v-7.1Zm-7.31,0h1.28l3.06,4.67v-4.67h1.34v7.1h-1.29l-3.05-4.66v4.66h-1.34v-7.1Zm-1.42.97l-1,.88c-.42-.93-2.05-1-1.56.07.49.6,2.25,1.76,2.52,2.52,1.15,2.82-3.33,3.98-4.3,1.3l1.14-.69c.45.84,1.11,1.21,1.77.74,1.01-1.09-2.08-2.41-2.23-3.15-1.5-2.44,2.34-3.92,3.66-1.68Zm-8.09-.97h1.34v5.81h1.99v1.29h-3.33v-7.1Zm-2.86,0h1.34v7.1h-1.34v-7.1Zm-4.1,2.78c2.06.37,2.09-1.8,0-1.46v1.46Zm-1.34-2.78c.8,0,2.57-.06,3.11.21,2.26,1.21.82,4.43-1.77,3.88v3.01h-1.34v-7.1Z"/>
    <rect class="cls-1" x="47.82" y="45.73" width="22.21" height=".43"/>
    <path class="cls-1" d="m77.17,49.7c.68.13.67-.62,0-.49v.49Zm-.45-.93c.95-.29,2.08.69.96,1.31l.56,1.05h-.49l-.53-1h-.05v1h-.45v-2.37Zm-1.74,0h1.29v.44h-.84v.42h.84v.43h-.84v.62h.84v.44h-1.29v-2.37Zm-2.44,0h.43l1.02,1.56v-1.56h.45v2.37h-.43l-1.02-1.55v1.55h-.45v-2.37Zm-.47.32l-.33.29c-.15-.21-.32-.31-.5-.2-.22.36.77.71.82,1.06.38.94-1.11,1.33-1.43.43l.38-.23c.15.35.59.45.67.09-.04-.3-.75-.68-.82-.89-.5-.81.78-1.31,1.22-.56Zm-2.69-.32h.45v1.94h.66v.43h-1.11v-2.37Zm-.95,0h.45v2.37h-.45v-2.37Zm-1.37.93c.67.14.68-.62,0-.49v.49Zm-.45-.93c1.4-.4,2.11,1.37.45,1.36v1h-.45v-2.37Zm-2.63,0h1.29v.44h-.84v.42h.84v.43h-.84v.62h.84v.44h-1.29v-2.37Zm-1.46,0h.45v1.94h.66v.43h-1.11v-2.37Zm-2.21,0h.48l.44.85.44-.85h.48c-.37.57-.86,1.67-.69,2.37h-.45c.17-.72-.32-1.78-.69-2.37Zm-1.44,0h1.31v.44h-.43v1.92h-.46v-1.92h-.42v-.44Zm-.24.32l-.33.29c-.15-.21-.32-.31-.5-.2-.22.36.77.71.82,1.06.38.94-1.11,1.33-1.43.43l.38-.23c.15.35.59.45.67.09-.04-.3-.75-.68-.82-.89-.5-.81.78-1.31,1.22-.56Zm-4.6-.32h.43l1.02,1.56v-1.56h.45v2.37h-.43l-1.02-1.55v1.55h-.45v-2.37Zm-1.49.63l-.32.81h.64l-.32-.81Zm-.23-.63h.45l.91,2.37h-.47l-.18-.49h-.97l-.19.49h-.47l.92-2.37Zm-2.43,0h1.29v.44h-.84v.42h.84v.43h-.84v.62h.84v.44h-1.29v-2.37Zm-1.4.93c.67.14.68-.62,0-.49v.49Zm-.45-.93c1.4-.4,2.11,1.37.45,1.36v1h-.45v-2.37Zm-1.65.38c-1.02-.02-1.01,1.64,0,1.61,1.01.02,1-1.63,0-1.61Zm0-.44c1.58-.03,1.6,2.52,0,2.48-1.61.04-1.6-2.51,0-2.48Zm-2.55.98c.68.13.67-.62,0-.49v.49Zm-.45-.93c.95-.29,2.08.69.96,1.31l.56,1.05h-.49l-.53-1h-.05v1h-.45v-2.37Zm-2.15,0h.45c-.26,2.72.95,2.7.7,0h.45c-.09.73.38,2.46-.8,2.42-1.18.04-.71-1.7-.8-2.42Zm-1.69,0h1.29v.44h-.84v.42h.84v.43h-.84v.62h.84v.44h-1.29v-2.37Z"/>
  </g>
</svg>