<svg width="29" height="29" viewBox="0 0 29 29" fill="none" xmlns="http://www.w3.org/2000/svg">
<path d="M23.5417 13.3333H15.0833V4.875C15.0833 4.39175 14.6916 4 14.2083 4C13.7251 4 13.3333 4.39175 13.3333 4.875V13.3333H4.875C4.39175 13.3333 4 13.7251 4 14.2083C4 14.6916 4.39175 15.0833 4.875 15.0833H13.3333V23.5417C13.3333 24.0249 13.7251 24.4167 14.2083 24.4167C14.6916 24.4167 15.0833 24.0249 15.0833 23.5417V15.0833H23.5417C24.0249 15.0833 24.4167 14.6916 24.4167 14.2083C24.4167 13.7251 24.0249 13.3333 23.5417 13.3333Z" fill="black" stroke="black"/>
</svg>
